<svg viewBox="0 0 24 24" fill="none" xmlns="http://www.w3.org/2000/svg">
<rect width="24" height="24" rx="12" fill="white" fill-opacity="0.2"/>
<g clip-path="url(#clip0_10944_186349)">
<path d="M13.4485 6.69264C12.952 5.81749 11.8525 5.51753 10.9927 6.02267C10.133 6.5278 9.83848 7.64674 10.335 8.52189L15.1137 16.9448C15.6103 17.8199 16.7098 18.1198 17.5696 17.6147C18.4293 17.1096 18.7238 15.9906 18.2273 15.1155L13.4485 6.69264Z" fill="url(#paint0_linear_10944_186349)"/>
<path d="M15.1996 9.80898C13.5896 8.94999 12.5125 10.1296 12.0418 10.8448C11.9666 10.9577 11.8971 11.0745 11.8336 11.1946C11.8001 11.2558 11.782 11.2986 11.7753 11.3132C11.7687 11.3278 11.7753 11.3132 11.7753 11.3181L11.1528 12.4122L8.58026 16.9452C8.34195 17.3653 7.94941 17.6719 7.48901 17.7974C7.0286 17.923 6.53804 17.8573 6.12523 17.6147C5.71243 17.3722 5.41121 16.9728 5.28782 16.5043C5.16444 16.0357 5.229 15.5366 5.46732 15.1165L9.91806 7.27184L10.2466 6.68882C10.4046 6.41106 10.6318 6.18057 10.9051 6.02056C11.1786 5.86054 11.4886 5.77666 11.804 5.77735H11.8737C12.1895 5.77715 12.4997 5.86167 12.7731 6.02237C13.0465 6.18307 13.2735 6.41428 13.4311 6.6927L15.1996 9.80898Z" fill="white"/>
</g>
<defs>
<linearGradient id="paint0_linear_10944_186349" x1="17.8559" y1="18.2257" x2="9.64597" y2="15.2525" gradientUnits="userSpaceOnUse">
<stop stop-color="white"/>
<stop offset="1" stop-color="white" stop-opacity="0"/>
</linearGradient>
<clipPath id="clip0_10944_186349">
<rect width="13.5468" height="12.4485" fill="white" transform="translate(5.22656 5.77612)"/>
</clipPath>
</defs>
</svg>

