<svg viewBox="0 0 40 40" fill="none" xmlns="http://www.w3.org/2000/svg">
<path d="M16.646 23.5816L12.8814 15.9469V15.9441C12.8632 15.9048 12.8523 15.8627 12.8486 15.8195C12.8486 15.8135 12.8452 15.8081 12.8449 15.8021C12.8447 15.7961 12.8412 15.7899 12.8412 15.7833V15.783C12.8415 14.7403 12.3045 13.7706 11.4202 13.2179C10.5357 12.665 9.4289 12.6066 8.49145 13.0634C7.55399 13.5205 6.91788 14.428 6.80859 15.4651L15.2797 23.5822L16.646 23.5816Z" fill="url(#paint0_linear_4559_33842)"/>
<path d="M30.1919 12.0168C31.2461 12.0154 32.2521 12.4562 32.9653 13.2323C32.3759 10.2273 30.7608 7.52049 28.396 5.57433C26.0313 3.62824 23.0641 2.56445 20.0022 2.56445C16.9403 2.56445 13.9727 3.62831 11.6083 5.57433C9.24357 7.52012 7.62848 10.2269 7.03906 13.2323C7.88603 12.3134 9.13312 11.8734 10.3691 12.0581C11.6052 12.2428 12.6695 13.0278 13.2109 14.1542C13.6224 13.2965 14.3433 12.6262 15.2286 12.2781C16.114 11.9301 17.0984 11.9301 17.9838 12.2781C18.8692 12.6262 19.5901 13.2965 20.0016 14.1542C20.4131 13.2965 21.134 12.6262 22.0194 12.2781C22.9047 11.9301 23.8889 11.9301 24.7742 12.2781C25.6596 12.6262 26.3805 13.2965 26.792 14.1542C27.1002 13.5139 27.5829 12.974 28.1842 12.5957C28.7859 12.2178 29.4818 12.0171 30.1921 12.0168L30.1919 12.0168ZM21.4031 4.68955C21.3881 4.68955 21.373 4.6887 21.3579 4.68642C20.9082 4.63206 20.4557 4.60446 20.0026 4.60417C19.7977 4.60417 19.6318 4.43797 19.6318 4.23334C19.6318 4.02843 19.7977 3.86222 20.0026 3.86222C20.4861 3.86222 20.9691 3.89182 21.4492 3.95073C21.643 3.97521 21.7844 4.14597 21.7725 4.34092C21.7608 4.53587 21.6 4.68841 21.4045 4.68955L21.4031 4.68955ZM22.6767 4.93061H22.677C22.5808 4.90727 22.498 4.84694 22.4467 4.76241C22.3955 4.67788 22.3798 4.57656 22.4037 4.48065C22.4277 4.38475 22.4886 4.30221 22.5734 4.25156C22.6585 4.2009 22.7598 4.1861 22.8557 4.21057C24.4768 4.61755 25.9951 5.35836 27.3137 6.38572C28.632 7.41316 29.7211 8.70462 30.5117 10.1774C30.6085 10.3579 30.5411 10.5827 30.3606 10.6797C30.1799 10.7768 29.9551 10.7091 29.858 10.5286C28.3593 7.7347 25.7522 5.70242 22.6771 4.93057L22.6767 4.93061Z" fill="url(#paint1_linear_4559_33842)"/>
<path d="M22.5332 23.5819L26.4173 15.7046C26.4031 14.6245 25.814 13.6341 24.8717 13.1062C23.9293 12.5786 22.777 12.5934 21.8487 13.1458C20.9206 13.6979 20.3574 14.7034 20.3713 15.7831V23.5817L22.5332 23.5819Z" fill="url(#paint2_linear_4559_33842)"/>
<path d="M19.9992 26.5731C20.0838 26.5731 20.166 26.6018 20.2318 26.6551L21.4085 27.6005V24.3242H18.5898V27.6005L19.7652 26.6551C19.8313 26.6016 19.9141 26.5725 19.9992 26.5731H19.9992Z" fill="url(#paint3_linear_4559_33842)"/>
<path d="M19.628 15.7835C19.6428 14.7038 19.0804 13.6977 18.1527 13.1447C17.2249 12.592 16.0725 12.5761 15.1297 13.1032C14.187 13.6303 13.5971 14.6201 13.582 15.7002L17.4693 23.5826H19.628V15.7835Z" fill="url(#paint4_linear_4559_33842)"/>
<path d="M12.4534 24.9967V36.7632C12.4536 37.1343 12.7545 37.4351 13.1256 37.4354H26.8737C27.2449 37.4351 27.5457 37.1343 27.546 36.7632V24.9967C27.5457 24.6256 27.2449 24.3248 26.8737 24.3242H22.1508V28.3749C22.1506 28.5175 22.0689 28.6473 21.9405 28.7088C21.8116 28.7699 21.6591 28.7523 21.5475 28.6632L19.9996 27.4209L18.4533 28.6652V28.6655C18.3421 28.7551 18.1892 28.7728 18.0603 28.711C17.9317 28.6493 17.8497 28.5189 17.8497 28.376V24.3242H13.1253C12.7542 24.3248 12.4534 24.6256 12.4531 24.9967L12.4534 24.9967Z" fill="url(#paint5_linear_4559_33842)"/>
<path d="M30.1889 12.7598C29.3866 12.7601 28.6173 13.0788 28.0496 13.6457C27.4821 14.2123 27.1622 14.9813 27.1608 15.7836V15.7939V15.7942C27.1585 15.8192 27.1534 15.844 27.146 15.8682C27.1423 15.8926 27.136 15.9165 27.1272 15.9396C27.1272 15.943 27.1272 15.9461 27.1246 15.9495L23.3594 23.5828H24.7232L33.1936 15.4658C33.1162 14.723 32.7661 14.0354 32.2112 13.5356C31.6562 13.0359 30.9356 12.7593 30.1888 12.7599L30.1889 12.7598Z" fill="url(#paint6_linear_4559_33842)"/>
<defs>
<linearGradient id="paint0_linear_4559_33842" x1="6.80859" y1="18.17" x2="16.646" y2="18.17" gradientUnits="userSpaceOnUse">
<stop stop-color="#5433FF"/>
<stop offset="0.5" stop-color="#20BDFF"/>
<stop offset="1" stop-color="#A5FECB"/>
</linearGradient>
<linearGradient id="paint1_linear_4559_33842" x1="7.03906" y1="8.35933" x2="32.9653" y2="8.35933" gradientUnits="userSpaceOnUse">
<stop stop-color="#5433FF"/>
<stop offset="0.5" stop-color="#20BDFF"/>
<stop offset="1" stop-color="#A5FECB"/>
</linearGradient>
<linearGradient id="paint2_linear_4559_33842" x1="20.3711" y1="18.1513" x2="26.4173" y2="18.1513" gradientUnits="userSpaceOnUse">
<stop stop-color="#5433FF"/>
<stop offset="0.5" stop-color="#20BDFF"/>
<stop offset="1" stop-color="#A5FECB"/>
</linearGradient>
<linearGradient id="paint3_linear_4559_33842" x1="18.5898" y1="25.9624" x2="21.4085" y2="25.9624" gradientUnits="userSpaceOnUse">
<stop stop-color="#5433FF"/>
<stop offset="0.5" stop-color="#20BDFF"/>
<stop offset="1" stop-color="#A5FECB"/>
</linearGradient>
<linearGradient id="paint4_linear_4559_33842" x1="13.582" y1="18.1507" x2="19.6283" y2="18.1507" gradientUnits="userSpaceOnUse">
<stop stop-color="#5433FF"/>
<stop offset="0.5" stop-color="#20BDFF"/>
<stop offset="1" stop-color="#A5FECB"/>
</linearGradient>
<linearGradient id="paint5_linear_4559_33842" x1="12.4531" y1="30.8798" x2="27.546" y2="30.8798" gradientUnits="userSpaceOnUse">
<stop stop-color="#5433FF"/>
<stop offset="0.5" stop-color="#20BDFF"/>
<stop offset="1" stop-color="#A5FECB"/>
</linearGradient>
<linearGradient id="paint6_linear_4559_33842" x1="23.3594" y1="18.1713" x2="33.1936" y2="18.1713" gradientUnits="userSpaceOnUse">
<stop stop-color="#5433FF"/>
<stop offset="0.5" stop-color="#20BDFF"/>
<stop offset="1" stop-color="#A5FECB"/>
</linearGradient>
</defs>
</svg>
