<svg width="18" height="16" viewBox="0 0 18 16" fill="none" xmlns="http://www.w3.org/2000/svg">
<path d="M17.0117 2.74486C16.8852 2.58235 16.6867 2.47402 16.4699 2.47402H4.04526L3.55763 0.523647C3.48545 0.21666 3.21448 0 2.88948 0H0.686276C0.306971 0 0 0.306987 0 0.686276C0 1.06556 0.306987 1.37255 0.686276 1.37255H2.3657L5.14686 12.7136C5.21904 13.0206 5.49001 13.2373 5.81501 13.2373H13.7429C14.1222 13.2373 14.4292 12.9303 14.4292 12.551C14.4292 12.1717 14.1222 11.8647 13.7429 11.8647H6.33872L5.94142 10.2575H14.8265C15.1335 10.2575 15.4044 10.0408 15.4946 9.75181L17.138 3.3228C17.1923 3.12427 17.1382 2.90747 17.0117 2.74497V2.74486Z" fill="#color"/>
<path d="M8.19917 14.8985C8.19917 15.5068 7.70599 15.9999 7.09757 15.9999C6.48927 15.9999 5.99609 15.5068 5.99609 14.8985C5.99609 14.29 6.48927 13.7969 7.09757 13.7969C7.70599 13.7969 8.19917 14.29 8.19917 14.8985Z" fill="#color"/>
<path d="M13.8868 14.8985C13.8868 15.5068 13.3936 15.9999 12.7852 15.9999C12.1768 15.9999 11.6836 15.5068 11.6836 14.8985C11.6836 14.29 12.1768 13.7969 12.7852 13.7969C13.3936 13.7969 13.8868 14.29 13.8868 14.8985Z" fill="#color"/>
</svg>
