<svg viewBox="0 0 40 40" fill="none" xmlns="http://www.w3.org/2000/svg">
<path fill-rule="evenodd" clip-rule="evenodd" d="M28.1455 8H11.8545C8.67273 8 6 10.6727 6 13.8545V34.7273C6 35.2364 6.25455 35.6182 6.63636 35.8727C6.89091 36 7.01818 36 7.27273 36C7.52727 36 7.78182 35.8727 8.03636 35.7455L14.2727 31.2909C15.2909 30.6545 16.4364 30.2727 17.5818 30.2727H28.1455C31.4545 30.2727 34 27.6 34 24.4182V13.8545C34 10.6727 31.3273 8 28.1455 8ZM25.7273 17.5455H14.2727C13.5091 17.5455 13 17.0364 13 16.2727C13 15.5091 13.5091 15 14.2727 15H25.8545C26.6182 15 27.1273 15.5091 27.1273 16.2727C27.1273 17.0364 26.4909 17.5455 25.7273 17.5455ZM14.2727 23.2727H20C20.7636 23.2727 21.2727 22.7636 21.2727 22C21.2727 21.2364 20.7636 20.7273 20 20.7273H14.2727C13.5091 20.7273 13 21.2364 13 22C13 22.7636 13.5091 23.2727 14.2727 23.2727Z" fill="url(#paint0_linear_5234_136139)"/>
<defs>
<linearGradient id="paint0_linear_5234_136139" x1="6" y1="22" x2="34" y2="22" gradientUnits="userSpaceOnUse">
<stop stop-color="#5433FF"/>
<stop offset="0.5" stop-color="#20BDFF"/>
<stop offset="1" stop-color="#A5FECB"/>
</linearGradient>
</defs>
</svg>
