<svg width="16" height="16" viewBox="0 0 16 16" fill="none" xmlns="http://www.w3.org/2000/svg">
<g clip-path="url(#clip0_24162_252200)">
<path d="M8 16C12.4334 16 16 12.4334 16 8C16 3.56664 12.4334 0 8 0C3.56664 0 0 3.56664 0 8C0 12.4334 3.56664 16 8 16Z" fill="#2775CA"/>
<path d="M10.2 9.26641C10.2 8.09977 9.49998 7.69977 8.09998 7.53313C7.09998 7.39977 6.89998 7.13313 6.89998 6.66641C6.89998 6.19969 7.23334 5.89977 7.89998 5.89977C8.49998 5.89977 8.83334 6.09977 8.99998 6.59977C9.03334 6.69977 9.13334 6.76641 9.23334 6.76641H9.76662C9.89998 6.76641 9.99998 6.66641 9.99998 6.53313V6.49977C9.86662 5.76641 9.26662 5.19977 8.49998 5.13313V4.33313C8.49998 4.19977 8.39998 4.09977 8.23334 4.06641H7.73334C7.59998 4.06641 7.49998 4.16641 7.46662 4.33313V5.09977C6.46662 5.23313 5.83334 5.89977 5.83334 6.73313C5.83334 7.83313 6.49998 8.26641 7.89998 8.43313C8.83334 8.59977 9.13334 8.79977 9.13334 9.33313C9.13334 9.86649 8.66662 10.2331 8.03334 10.2331C7.16662 10.2331 6.86662 9.86641 6.76662 9.36641C6.73334 9.23313 6.63334 9.16641 6.53334 9.16641H5.96662C5.83334 9.16641 5.73334 9.26641 5.73334 9.39977V9.43313C5.86662 10.2664 6.39998 10.8664 7.49998 11.0331V11.8331C7.49998 11.9664 7.59998 12.0664 7.76662 12.0998H8.26662C8.39998 12.0998 8.49998 11.9998 8.53334 11.8331V11.0331C9.53334 10.8664 10.2 10.1664 10.2 9.26641Z" fill="white"/>
<path d="M6.29998 12.7673C3.69998 11.834 2.36662 8.93398 3.33334 6.36726C3.83334 4.96726 4.93334 3.90062 6.29998 3.40062C6.43334 3.33398 6.49998 3.23398 6.49998 3.06726V2.60062C6.49998 2.46726 6.43334 2.36726 6.29998 2.33398C6.26662 2.33398 6.19998 2.33398 6.16662 2.36726C2.99998 3.36726 1.26662 6.73398 2.26662 9.90062C2.86662 11.7673 4.29998 13.2006 6.16662 13.8006C6.29998 13.8673 6.43334 13.8006 6.46662 13.6673C6.49998 13.634 6.49998 13.6006 6.49998 13.534V13.0673C6.49998 12.9673 6.39998 12.834 6.29998 12.7673ZM9.83334 2.36726C9.69998 2.30062 9.56662 2.36726 9.53334 2.50062C9.49998 2.53398 9.49998 2.56726 9.49998 2.63398V3.10062C9.49998 3.23398 9.59998 3.36726 9.69998 3.43398C12.3 4.36726 13.6333 7.26726 12.6666 9.83398C12.1666 11.234 11.0666 12.3006 9.69998 12.8006C9.56662 12.8673 9.49998 12.9673 9.49998 13.134V13.6006C9.49998 13.734 9.56662 13.834 9.69998 13.8673C9.73334 13.8673 9.79998 13.8673 9.83334 13.834C13 12.834 14.7333 9.46726 13.7333 6.30062C13.1333 4.40062 11.6666 2.96726 9.83334 2.36726Z" fill="white"/>
</g>
<defs>
<clipPath id="clip0_24162_252200">
<rect width="16" height="16" fill="white"/>
</clipPath>
</defs>
</svg>
