<svg viewBox="0 0 40 40" fill="none" xmlns="http://www.w3.org/2000/svg">
<path fill-rule="evenodd" clip-rule="evenodd" d="M16.1765 8C16.1765 7.44772 15.7288 7 15.1765 7H8C7.44772 7 7 7.44771 7 8V15.1765C7 15.7288 7.44771 16.1765 8 16.1765H15.1765C15.7288 16.1765 16.1765 15.7288 16.1765 15.1765V8ZM16.1765 24.8235C16.1765 24.2712 15.7288 23.8235 15.1765 23.8235H8C7.44772 23.8235 7 24.2712 7 24.8235V32C7 32.5523 7.44771 33 8 33H15.1765C15.7288 33 16.1765 32.5523 16.1765 32V24.8235ZM23.8235 8C23.8235 7.44772 24.2712 7 24.8235 7H32C32.5523 7 33 7.44771 33 8V15.1765C33 15.7288 32.5523 16.1765 32 16.1765H24.8235C24.2712 16.1765 23.8235 15.7288 23.8235 15.1765V8ZM33 24.8235C33 24.2712 32.5523 23.8235 32 23.8235H24.8235C24.2712 23.8235 23.8235 24.2712 23.8235 24.8235V32C23.8235 32.5523 24.2712 33 24.8235 33H32C32.5523 33 33 32.5523 33 32V24.8235ZM21.5294 11.5882C21.5294 11.9666 21.2227 12.2732 20.8444 12.2732H19.1556C18.7773 12.2732 18.4706 11.9666 18.4706 11.5882C18.4706 11.2099 18.7773 10.9032 19.1556 10.9032H20.8444C21.2227 10.9032 21.5294 11.2099 21.5294 11.5882ZM11.5882 21.5294C11.9666 21.5294 12.2732 21.2227 12.2732 20.8444V19.1556C12.2732 18.7773 11.9666 18.4706 11.5882 18.4706C11.2099 18.4706 10.9032 18.7773 10.9032 19.1556L10.9032 20.8444C10.9032 21.2227 11.2099 21.5294 11.5882 21.5294ZM21.5294 28.4118C21.5294 28.7901 21.2227 29.0968 20.8444 29.0968H19.1556C18.7773 29.0968 18.4706 28.7901 18.4706 28.4118C18.4706 28.0334 18.7773 27.7268 19.1556 27.7268H20.8444C21.2227 27.7268 21.5294 28.0334 21.5294 28.4118ZM28.4118 21.5294C28.7901 21.5294 29.0968 21.2227 29.0968 20.8444V19.1556C29.0968 18.7773 28.7901 18.4706 28.4118 18.4706C28.0334 18.4706 27.7268 18.7773 27.7268 19.1556V20.8444C27.7268 21.2227 28.0334 21.5294 28.4118 21.5294Z" fill="url(#paint0_linear_13168_213570)"/>
<defs>
<linearGradient id="paint0_linear_13168_213570" x1="7" y1="20" x2="33" y2="20" gradientUnits="userSpaceOnUse">
<stop stop-color="#5433FF"/>
<stop offset="0.5" stop-color="#20BDFF"/>
<stop offset="1" stop-color="#A5FECB"/>
</linearGradient>
</defs>
</svg>
