<svg viewBox="0 0 20 20" fill="none" xmlns="http://www.w3.org/2000/svg">
<path d="M15.9134 5.01348C15.9086 5.005 15.9008 4.99835 15.8913 4.99473C14.7891 4.52621 13.6259 4.19212 12.4309 4.00082C12.4201 3.99895 12.4089 4.0003 12.3989 4.00467C12.3889 4.00905 12.3807 4.01623 12.3753 4.02519C12.217 4.29152 12.0732 4.56509 11.9446 4.84484C10.6565 4.66368 9.3462 4.66368 8.05809 4.84484C7.92861 4.56438 7.78253 4.29074 7.62051 4.02519C7.61495 4.01643 7.60667 4.00941 7.59675 4.00506C7.58683 4.00072 7.57572 3.99924 7.56488 4.00082C6.36978 4.19172 5.20657 4.52584 4.1045 4.99476C4.09507 4.99847 4.08711 5.00479 4.08172 5.01287C1.87781 8.06211 1.27408 11.0364 1.57025 13.9738C1.57108 13.981 1.57347 13.988 1.57727 13.9943C1.58107 14.0006 1.58621 14.0062 1.59237 14.0106C2.87568 14.891 4.31109 15.5629 5.83732 15.9979C5.84807 16.0008 5.85955 16.0007 5.87021 15.9975C5.88088 15.9942 5.89021 15.988 5.89697 15.9797C6.22477 15.5665 6.51523 15.1289 6.76539 14.6715C6.76883 14.6652 6.77079 14.6583 6.77115 14.6513C6.77151 14.6443 6.77025 14.6372 6.76747 14.6307C6.76468 14.6241 6.76043 14.6182 6.755 14.6133C6.74956 14.6084 6.74306 14.6046 6.73593 14.6022C6.2779 14.4398 5.83447 14.2441 5.40981 14.0168C5.40209 14.0126 5.39561 14.0067 5.39094 13.9996C5.38627 13.9926 5.38355 13.9845 5.38302 13.9763C5.38249 13.968 5.38417 13.9597 5.38791 13.9522C5.39165 13.9446 5.39733 13.9381 5.40446 13.9331C5.49356 13.8712 5.58273 13.8069 5.66782 13.7419C5.67537 13.7361 5.68452 13.7324 5.69423 13.7312C5.70393 13.73 5.71381 13.7313 5.72275 13.735C8.50489 14.9114 11.5169 14.9114 14.2661 13.735C14.2751 13.7311 14.2851 13.7296 14.2949 13.7307C14.3048 13.7318 14.3141 13.7355 14.3218 13.7413C14.4069 13.8063 14.496 13.8712 14.5858 13.9331C14.593 13.938 14.5987 13.9446 14.6025 13.9521C14.6063 13.9596 14.608 13.9678 14.6076 13.9761C14.6071 13.9844 14.6044 13.9924 14.5998 13.9995C14.5952 14.0066 14.5888 14.0126 14.5811 14.0168C14.1574 14.246 13.7136 14.4416 13.2544 14.6015C13.2472 14.6041 13.2407 14.6079 13.2353 14.6129C13.2299 14.6179 13.2257 14.6239 13.223 14.6305C13.2203 14.6371 13.2191 14.6442 13.2195 14.6512C13.2199 14.6583 13.2219 14.6652 13.2254 14.6715C13.4798 15.1264 13.7698 15.5634 14.0932 15.979C14.0998 15.9875 14.109 15.9939 14.1198 15.9973C14.1305 16.0007 14.142 16.0008 14.1528 15.9978C15.6818 15.5643 17.1197 14.8923 18.4046 14.0106C18.4109 14.0064 18.4161 14.001 18.4199 13.9947C18.4237 13.9885 18.4261 13.9816 18.4268 13.9744C18.7813 10.5784 17.8332 7.62855 15.9134 5.01348ZM7.18088 12.1852C6.34325 12.1852 5.65307 11.4731 5.65307 10.5985C5.65307 9.72385 6.32986 9.01164 7.18088 9.01164C8.03854 9.01164 8.72204 9.73003 8.70866 10.5984C8.70866 11.4731 8.03184 12.1852 7.18088 12.1852ZM12.8296 12.1852C11.992 12.1852 11.3019 11.4731 11.3019 10.5985C11.3019 9.72385 11.9787 9.01164 12.8296 9.01164C13.6874 9.01164 14.3708 9.73003 14.3574 10.5984C14.3574 11.4731 13.6874 12.1852 12.8296 12.1852Z" fill="white"/>
</svg>
