<svg width="16" height="16" viewBox="0 0 16 16" fill="none" xmlns="http://www.w3.org/2000/svg">
<g clip-path="url(#clip0_13474_126650)">
<path fill-rule="evenodd" clip-rule="evenodd" d="M13.6013 7.33317H14.668C15.068 7.33317 15.3346 7.59984 15.3346 7.99984C15.3346 8.39984 15.068 8.6665 14.668 8.6665H13.6013C13.3346 11.2665 11.268 13.2665 8.66797 13.5998V14.6665C8.66797 15.0665 8.4013 15.3332 8.0013 15.3332C7.6013 15.3332 7.33463 15.0665 7.33463 14.6665V13.5998C4.73463 13.3332 2.73464 11.2665 2.4013 8.6665H1.33464C0.934635 8.6665 0.667969 8.39984 0.667969 7.99984C0.667969 7.59984 0.934635 7.33317 1.33464 7.33317H2.4013C2.66797 4.73317 4.73463 2.6665 7.33463 2.39984V1.33317C7.33463 0.933171 7.6013 0.666504 8.0013 0.666504C8.4013 0.666504 8.66797 0.933171 8.66797 1.33317V2.39984C11.268 2.6665 13.3346 4.73317 13.6013 7.33317ZM10.2018 7.99981C10.2018 9.21481 9.21679 10.1998 8.00179 10.1998C6.78672 10.1998 5.80176 9.21481 5.80176 7.99981C5.80176 6.7848 6.78672 5.7998 8.00179 5.7998C9.21679 5.7998 10.2018 6.7848 10.2018 7.99981Z" fill="#color"/>
</g>
<defs>
<clipPath id="clip0_13474_126650">
<rect width="16" height="16" fill="white"/>
</clipPath>
</defs>
</svg>
