<svg width="14" height="12" viewBox="0 0 14 12" fill="none" xmlns="http://www.w3.org/2000/svg">
<path d="M1.33594 11.3337V10.667C1.33594 9.42931 1.8276 8.24233 2.70277 7.36716C3.57794 6.49199 4.76493 6.00032 6.0026 6.00032M6.0026 6.00032C7.24028 6.00032 7.80244 6.00032 9 6.00032C10.1976 6.00032 12.5 6.00032 12.5 1M6.0026 6.00032C6.70985 6.00032 7.38813 5.71937 7.88822 5.21928C8.38832 4.71918 8.66927 4.0409 8.66927 3.33366C8.66927 2.62641 8.38832 1.94814 7.88822 1.44804C7.38813 0.947944 6.70985 0.666992 6.0026 0.666992C5.29536 0.666992 4.61708 0.947944 4.11699 1.44804C3.61689 1.94814 3.33594 2.62641 3.33594 3.33366C3.33594 4.0409 3.61689 4.71918 4.11699 5.21928C4.61708 5.71937 5.29536 6.00032 6.0026 6.00032Z" stroke="white" stroke-width="1.25"/>
</svg>
