<svg width="20" height="21" viewBox="0 0 20 21" fill="none" xmlns="http://www.w3.org/2000/svg">
<path d="M2.91992 17.1673V16.334C2.91992 14.7869 3.5345 13.3032 4.62847 12.2092C5.72243 11.1152 7.20616 10.5007 8.75326 10.5007M8.75326 10.5007C10.3004 10.5007 11.003 10.5007 12.5 10.5007C13.997 10.5007 16.875 10.5007 16.875 4.25024M8.75326 10.5007C9.63731 10.5007 10.4852 10.1495 11.1103 9.52434C11.7354 8.89922 12.0866 8.05137 12.0866 7.16732C12.0866 6.28326 11.7354 5.43542 11.1103 4.81029C10.4852 4.18517 9.63731 3.83398 8.75326 3.83398C7.8692 3.83398 7.02135 4.18517 6.39623 4.81029C5.77111 5.43542 5.41992 6.28326 5.41992 7.16732C5.41992 8.05137 5.77111 8.89922 6.39623 9.52434C7.02135 10.1495 7.8692 10.5007 8.75326 10.5007Z" stroke="white" stroke-width="1.25"/>
</svg>
