
<svg viewBox="0 0 16 16" fill="none" xmlns="http://www.w3.org/2000/svg">
<path fill-rule="evenodd" clip-rule="evenodd" d="M9.26536 0.999903L13.2654 3.33324C14.132 3.7999 14.6654 4.7999 14.6654 5.7999V10.1999C14.6654 11.1999 14.132 12.1999 13.2654 12.6666L9.26536 14.9999C8.86536 15.1999 8.46536 15.3332 7.9987 15.3332C7.53203 15.3332 7.13203 15.1999 6.73203 14.9999L2.73203 12.6666C1.86536 12.1999 1.33203 11.1999 1.33203 10.1999V5.7999C1.33203 4.7999 1.86536 3.7999 2.73203 3.33324L6.66536 0.999903C7.46536 0.533235 8.46536 0.533235 9.26536 0.999903ZM12.3307 4.79987C12.664 4.66653 13.064 4.79987 13.264 5.06653C13.3973 5.39987 13.3307 5.79987 12.9973 5.99987L8.66399 8.33317V13.1998C8.66399 13.5998 8.39733 13.8665 7.99733 13.8665C7.59733 13.8665 7.33066 13.5998 7.33066 13.1998V8.33317L2.99735 5.99987C2.66402 5.79987 2.53069 5.3332 2.73069 5.06653C2.93069 4.79987 3.33069 4.66653 3.66402 4.79987L7.99733 7.19984L12.3307 4.79987Z" fill="#color"/>
</svg>
