<svg width="20" height="20" viewBox="0 0 20 20" fill="none" xmlns="http://www.w3.org/2000/svg">
<g id="mobile app/icons/google">
<path id="Vector" d="M18.8 10.2085C18.8 9.5585 18.7417 8.9335 18.6333 8.3335H10V11.8835H14.9333C14.7167 13.0252 14.0667 13.9918 13.0917 14.6418V16.9502H16.0667C17.8 15.3502 18.8 13.0002 18.8 10.2085Z" fill="#4285F4"/>
<path id="Vector_2" d="M9.99974 19.1667C12.4747 19.1667 14.5497 18.35 16.0664 16.95L13.0914 14.6417C12.2747 15.1917 11.2331 15.525 9.99974 15.525C7.61641 15.525 5.59141 13.9167 4.86641 11.75H1.81641V14.1167C3.32474 17.1083 6.41641 19.1667 9.99974 19.1667Z" fill="#34A853"/>
<path id="Vector_3" d="M4.86732 11.7416C4.68398 11.1916 4.57565 10.6083 4.57565 9.99993C4.57565 9.3916 4.68398 8.80827 4.86732 8.25827V5.8916H1.81732C1.19232 7.12493 0.833984 8.5166 0.833984 9.99993C0.833984 11.4833 1.19232 12.8749 1.81732 14.1083L4.19232 12.2583L4.86732 11.7416Z" fill="#FBBC05"/>
<path id="Vector_4" d="M9.99974 4.4835C11.3497 4.4835 12.5497 4.95016 13.5081 5.85016L16.1331 3.22516C14.5414 1.74183 12.4747 0.833496 9.99974 0.833496C6.41641 0.833496 3.32474 2.89183 1.81641 5.89183L4.86641 8.2585C5.59141 6.09183 7.61641 4.4835 9.99974 4.4835Z" fill="#EA4335"/>
</g>
</svg>
