<svg width="22" height="22" viewBox="0 0 22 22" fill="none" xmlns="http://www.w3.org/2000/svg">
<path d="M16.334 3.66667C16.334 3.29848 16.0355 3 15.6673 3H6.33399C5.9658 3 5.66732 3.29848 5.66732 3.66667C5.66732 4.03486 5.96579 4.33333 6.33398 4.33333H15.6673C16.0355 4.33333 16.334 4.03486 16.334 3.66667ZM5.66732 18.3333C5.66732 18.7015 5.96579 19 6.33398 19H15.6673C16.0355 19 16.334 18.7015 16.334 18.3333C16.334 17.9651 16.0355 17.6667 15.6673 17.6667H6.33398C5.96579 17.6667 5.66732 17.9651 5.66732 18.3333ZM16.334 5.66667H5.66732C4.93065 5.66667 4.33398 6.26333 4.33398 7V15C4.33398 15.7367 4.93065 16.3333 5.66732 16.3333H16.334C17.0706 16.3333 17.6673 15.7367 17.6673 15V7C17.6673 6.26333 17.0706 5.66667 16.334 5.66667ZM11.0006 7.5C11.8273 7.5 12.5006 8.17333 12.5006 9C12.5006 9.83 11.8273 10.5 11.0006 10.5C10.174 10.5 9.50065 9.83 9.50065 9C9.50065 8.17333 10.174 7.5 11.0006 7.5ZM14.334 14.3333H7.66732V13.3333C7.66732 12.2233 9.89065 11.6667 11.0006 11.6667C12.1106 11.6667 14.334 12.2233 14.334 13.3333V14.3333Z" fill="white"/>
</svg>
