<svg width="20" height="20" viewBox="0 0 20 20" fill="none" xmlns="http://www.w3.org/2000/svg">
<path d="M10 18.4736C8.84342 18.4736 7.75326 18.2523 6.72949 17.8096C5.71126 17.3669 4.81201 16.7554 4.03174 15.9751C3.25146 15.1948 2.63997 14.2956 2.19727 13.2773C1.75456 12.2536 1.5332 11.1634 1.5332 10.0068C1.5332 8.85026 1.75456 7.76286 2.19727 6.74463C2.63997 5.72087 3.2487 4.81885 4.02344 4.03857C4.80371 3.2583 5.70296 2.64681 6.72119 2.2041C7.74495 1.76139 8.83512 1.54004 9.9917 1.54004C11.1483 1.54004 12.2384 1.76139 13.2622 2.2041C14.286 2.64681 15.188 3.2583 15.9683 4.03857C16.7485 4.81885 17.36 5.72087 17.8027 6.74463C18.2454 7.76286 18.4668 8.85026 18.4668 10.0068C18.4668 11.1634 18.2454 12.2536 17.8027 13.2773C17.36 14.2956 16.7485 15.1948 15.9683 15.9751C15.188 16.7554 14.286 17.3669 13.2622 17.8096C12.244 18.2523 11.1566 18.4736 10 18.4736ZM7.21094 13.4932C7.41016 13.4932 7.57894 13.4268 7.71729 13.2939L10.0083 10.9863L12.3076 13.2939C12.4349 13.4268 12.5981 13.4932 12.7974 13.4932C12.991 13.4932 13.1543 13.4268 13.2871 13.2939C13.4199 13.1556 13.4863 12.9924 13.4863 12.8042C13.4863 12.5994 13.4199 12.4362 13.2871 12.3145L10.9795 10.0151L13.2954 7.70752C13.4282 7.56917 13.4946 7.40592 13.4946 7.21777C13.4946 7.02962 13.4282 6.86914 13.2954 6.73633C13.1626 6.60352 13.0021 6.53711 12.814 6.53711C12.6313 6.53711 12.4736 6.60352 12.3408 6.73633L10.0083 9.05225L7.69238 6.74463C7.55404 6.61735 7.39355 6.55371 7.21094 6.55371C7.02279 6.55371 6.8623 6.62012 6.72949 6.75293C6.59668 6.88021 6.53027 7.04069 6.53027 7.23438C6.53027 7.41699 6.59668 7.57747 6.72949 7.71582L9.03711 10.0151L6.72949 12.3228C6.59668 12.4556 6.53027 12.616 6.53027 12.8042C6.53027 12.9924 6.59668 13.1556 6.72949 13.2939C6.8623 13.4268 7.02279 13.4932 7.21094 13.4932Z" fill="#EBEBF5" fill-opacity="0.6"/>
</svg>
