<svg viewBox="0 0 40 40" fill="none" xmlns="http://www.w3.org/2000/svg">
<g clip-path="url(#clip0_4559_33843)">
<path d="M21.9843 6.73564L21.6359 7.56299C21.4182 8.08539 21.6794 8.73867 22.2021 8.95645C22.3327 8.99988 22.4633 9.04362 22.6376 9.04362C23.0731 9.04362 23.4649 8.78242 23.6389 8.39063L23.9873 7.56328C24.5534 6.25698 24.3357 4.73328 23.4212 3.64476C22.9857 3.07864 22.8988 2.29507 23.2906 1.64173L23.7261 0.945006C24.0311 0.422609 23.9002 -0.230674 23.3778 -0.535304C22.8554 -0.840238 22.2021 -0.709335 21.8974 -0.186939L21.4619 0.509784C20.5912 1.90325 20.7218 3.68818 21.7231 4.95102C22.1586 5.47311 22.2455 6.16986 21.9843 6.73565L21.9843 6.73564Z" fill="url(#paint0_linear_4559_33843)"/>
<path d="M16.8905 6.73522L16.5422 7.60596C16.3244 8.12836 16.5856 8.78164 17.1083 8.99942C17.2389 9.04285 17.3695 9.08659 17.5438 9.08659C17.9794 9.08659 18.3712 8.82539 18.5452 8.4336L18.8936 7.60625C19.4597 6.29994 19.2419 4.77625 18.3274 3.68773C17.8919 3.12161 17.805 2.33804 18.1968 1.6847L18.6324 0.987974C18.9373 0.465578 18.8064 -0.187705 18.284 -0.492336C17.7616 -0.797269 17.1083 -0.666367 16.8037 -0.14397L16.3682 0.552753C15.4974 1.94621 15.628 3.73115 16.6294 4.99399C17.0649 5.47265 17.1518 6.16936 16.8906 6.73524L16.8905 6.73522Z" fill="url(#paint1_linear_4559_33843)"/>
<path d="M23.0677 25.3711H16.9722L12.0085 33.5132C11.399 34.4711 11.7908 35.3419 11.9651 35.6903C12.1391 36.0386 12.7053 36.7788 13.8372 36.7788H26.2028C27.3348 36.7788 27.9009 35.9952 28.0749 35.6903C28.2489 35.3419 28.641 34.5146 28.0315 33.5132L23.0677 25.3711Z" fill="url(#paint2_linear_4559_33843)"/>
<path d="M31.3861 31.4668L26.2481 23.0634C25.682 22.1055 25.3773 21.017 25.3773 19.9284V13.6585H26.553C27.1626 13.6585 27.6415 13.1795 27.6415 12.57C27.6415 11.9604 27.1626 11.4814 26.553 11.4814H13.5343C12.9248 11.4814 12.4458 11.9604 12.4458 12.57C12.4458 13.1795 12.9248 13.6585 13.5343 13.6585H14.71V19.9284C14.71 21.0604 14.4051 22.1489 13.8393 23.0634L8.65783 31.4668C7.48215 33.3826 7.43868 35.6468 8.52723 37.6061C9.61575 39.522 11.575 40.6976 13.7958 40.6976H26.1614C28.3819 40.6976 30.3415 39.522 31.43 37.6061C32.562 35.6465 32.5182 33.3826 31.3863 31.4668H31.3861ZM29.6008 36.561C28.9041 37.8236 27.5978 38.5641 26.1612 38.5641L13.8392 38.5638C12.4023 38.5638 11.1397 37.8236 10.3996 36.5607C9.70289 35.2982 9.70289 33.8176 10.4868 32.5984L15.6244 24.1951C16.408 22.8888 16.8436 21.4519 16.8436 19.9281V13.6582H23.2007V19.9281C23.2007 21.4522 23.6362 22.9325 24.4198 24.1951L29.5575 32.5984C30.2977 33.8179 30.2977 35.2982 29.6009 36.561L29.6008 36.561Z" fill="url(#paint3_linear_4559_33843)"/>
</g>
<defs>
<linearGradient id="paint0_linear_4559_33843" x1="20.8828" y1="4.17318" x2="24.2982" y2="4.17318" gradientUnits="userSpaceOnUse">
<stop stop-color="#5433FF"/>
<stop offset="0.5" stop-color="#20BDFF"/>
<stop offset="1" stop-color="#A5FECB"/>
</linearGradient>
<linearGradient id="paint1_linear_4559_33843" x1="15.7891" y1="4.21615" x2="19.2044" y2="4.21615" gradientUnits="userSpaceOnUse">
<stop stop-color="#5433FF"/>
<stop offset="0.5" stop-color="#20BDFF"/>
<stop offset="1" stop-color="#A5FECB"/>
</linearGradient>
<linearGradient id="paint2_linear_4559_33843" x1="11.6797" y1="31.0749" x2="28.3602" y2="31.0749" gradientUnits="userSpaceOnUse">
<stop stop-color="#5433FF"/>
<stop offset="0.5" stop-color="#20BDFF"/>
<stop offset="1" stop-color="#A5FECB"/>
</linearGradient>
<linearGradient id="paint3_linear_4559_33843" x1="7.74219" y1="26.0895" x2="32.2574" y2="26.0895" gradientUnits="userSpaceOnUse">
<stop stop-color="#5433FF"/>
<stop offset="0.5" stop-color="#20BDFF"/>
<stop offset="1" stop-color="#A5FECB"/>
</linearGradient>
<clipPath id="clip0_4559_33843">
<rect width="40" height="40" fill="white"/>
</clipPath>
</defs>
</svg>
