<svg viewBox="0 0 21 20" fill="none" xmlns="http://www.w3.org/2000/svg">
<mask id="path-1-inside-1_13111_213398" fill="white">
<path fill-rule="evenodd" clip-rule="evenodd" d="M12.6746 3.86223C12.6746 3.31258 12.3429 2.87755 11.8896 2.71638C11.4462 2.55876 10.9091 2.67887 10.5869 3.12676L8.82652 5.31106L7.39414 7.04464L5.13364 9.85719C5.11601 9.87912 5.0998 9.90212 5.08508 9.92612C4.85028 10.3087 4.86737 10.7605 5.01707 11.1019C5.17102 11.4531 5.52779 11.8099 6.06326 11.8099H8.40306V16.0863C8.40306 16.6499 8.74754 17.0727 9.199 17.2383C9.62892 17.3959 10.1317 17.3168 10.5158 17.0039C10.5527 16.9739 10.5863 16.9399 10.6159 16.9027L13.7564 12.9649L15.1204 11.2983L15.1295 11.2868L16.0178 10.1512C16.0333 10.1314 16.0477 10.1107 16.0609 10.0892C16.2957 9.70659 16.2786 9.25479 16.1289 8.91332C15.9749 8.56216 15.6182 8.20539 15.0827 8.20539H12.6746V3.86223Z"/>
</mask>
<path fill-rule="evenodd" clip-rule="evenodd" d="M12.6746 3.86223C12.6746 3.31258 12.3429 2.87755 11.8896 2.71638C11.4462 2.55876 10.9091 2.67887 10.5869 3.12676L8.82652 5.31106L7.39414 7.04464L5.13364 9.85719C5.11601 9.87912 5.0998 9.90212 5.08508 9.92612C4.85028 10.3087 4.86737 10.7605 5.01707 11.1019C5.17102 11.4531 5.52779 11.8099 6.06326 11.8099H8.40306V16.0863C8.40306 16.6499 8.74754 17.0727 9.199 17.2383C9.62892 17.3959 10.1317 17.3168 10.5158 17.0039C10.5527 16.9739 10.5863 16.9399 10.6159 16.9027L13.7564 12.9649L15.1204 11.2983L15.1295 11.2868L16.0178 10.1512C16.0333 10.1314 16.0477 10.1107 16.0609 10.0892C16.2957 9.70659 16.2786 9.25479 16.1289 8.91332C15.9749 8.56216 15.6182 8.20539 15.0827 8.20539H12.6746V3.86223Z" stroke="#color" stroke-width="2.5" stroke-linecap="round" stroke-linejoin="round" mask="url(#path-1-inside-1_13111_213398)"/>
</svg>
