<svg width="24" height="24" viewBox="0 0 24 24" fill="none" xmlns="http://www.w3.org/2000/svg">
<g id="dapp/icons/40x40/alternative sidebar/launchpad">
<g id="Subtract">
<path fill-rule="evenodd" clip-rule="evenodd" d="M10.3371 16.3904L16.241 13.2975C17.0706 12.8632 17.7824 12.234 18.3152 11.464C18.8481 10.6941 19.1862 9.80626 19.3004 8.87686L19.7949 4.84971C19.8056 4.76241 19.7964 4.6738 19.7677 4.59062C19.7391 4.50745 19.6919 4.43189 19.6297 4.36969C19.5675 4.30749 19.492 4.26029 19.4088 4.23167C19.3256 4.20306 19.237 4.19378 19.1497 4.20455L15.1226 4.69899C14.1932 4.81323 13.3054 5.1513 12.5354 5.68418C11.7655 6.21706 11.1363 6.92884 10.702 7.7584L7.61218 13.6654L9.73941 9.59442C5.6475 8.91243 4.19922 12.9804 4.19922 12.9804L7.61218 13.6654L10.3371 16.3904ZM12.4998 9.57001C12.4998 10.0816 12.703 10.5722 13.0648 10.934C13.4265 11.2957 13.9171 11.499 14.4287 11.499C14.9403 11.499 15.4309 11.2957 15.7927 10.934C16.1544 10.5722 16.3577 10.0816 16.3577 9.57001C16.3577 9.05841 16.1544 8.56778 15.7927 8.20603C15.4309 7.84427 14.9403 7.64105 14.4287 7.64105C13.9171 7.64105 13.4265 7.84427 13.0648 8.20603C12.703 8.56778 12.4998 9.05841 12.4998 9.57001Z" fill="#999999"/>
<path d="M4.8812 19.1183C4.8812 19.1183 4.19922 17.0723 5.56319 15.7084L8.29113 18.4363C6.92716 19.8003 4.8812 19.1183 4.8812 19.1183Z" fill="#999999"/>
<path d="M11.019 19.8002C11.019 19.8002 15.0469 18.3723 14.365 14.2803L10.3371 16.3904L11.019 19.8002Z" fill="#999999"/>
</g>
</g>
</svg>
