<svg width="149" height="148" viewBox="0 0 149 148" fill="none" xmlns="http://www.w3.org/2000/svg">
<g id="Layer_1">
<g id="Vector">
<path d="M111.053 24H37.9467C30.5203 24 24.5 30.0203 24.5 37.4467V110.553C24.5 117.98 30.5203 124 37.9467 124H111.053C118.48 124 124.5 117.98 124.5 110.553V37.4467C124.5 30.0203 118.48 24 111.053 24Z" fill="#007AFF"/>
<path d="M111.053 16H37.9467C26.102 16 16.5 25.602 16.5 37.4467V110.553C16.5 122.398 26.102 132 37.9467 132H111.053C122.898 132 132.5 122.398 132.5 110.553V37.4467C132.5 25.602 122.898 16 111.053 16Z" stroke="#007AFF" stroke-opacity="0.2" stroke-width="16"/>
</g>
<g id="Group 33672">
<g id="Group 33670">
<g id="Group 33669">
<path id="Vector_2" d="M76.2145 65.2855V63.538C76.2145 62.145 75.6611 60.809 74.6761 59.824C73.6911 58.839 72.3551 58.2856 70.9621 58.2856H49.9668C48.5738 58.2857 47.2379 58.839 46.2529 59.824C45.2678 60.809 44.7145 62.145 44.7145 63.538V77.5333C44.7145 78.2231 44.8503 78.9061 45.1143 79.5433C45.3782 80.1806 45.7651 80.7596 46.2529 81.2473C46.7406 81.735 47.3196 82.1219 47.9568 82.3858C48.5941 82.6498 49.2771 82.7856 49.9668 82.7856H56.9645V89.7856C56.9645 89.7856 58.7145 88.0356 60.4645 86.2856C62.2145 84.5356 63.9645 82.7856 63.9645 82.7856H65.7147V74.038C65.7173 71.7176 66.6402 69.4929 68.281 67.8521C69.9218 66.2113 72.1464 65.2883 74.4668 65.2855L76.2145 65.2855Z" fill="black" stroke="black" stroke-width="3" stroke-linejoin="round"/>
<path id="1 2" d="M81.7472 52.7529C82.7322 53.7379 83.2856 55.0739 83.2856 56.4669L76.2145 63.538C76.2145 62.145 75.6612 60.809 74.6761 59.824L81.7472 52.7529Z" fill="black" stroke="black" stroke-width="3" stroke-linejoin="round"/>
<path id="2 3" d="M78.0331 51.2144C79.4261 51.2144 80.7621 51.7677 81.7471 52.7527L74.676 59.8238C73.691 58.8388 72.355 58.2854 70.962 58.2854L78.0331 51.2144Z" fill="black" stroke="black" stroke-width="3" stroke-linejoin="round"/>
<path id="0 1" d="M83.2855 56.4668V58.2143L76.2145 65.2854V63.5379L83.2855 56.4668Z" fill="black" stroke="black" stroke-width="3" stroke-linejoin="round"/>
<path id="18 0" d="M83.2856 58.2144L81.538 58.2144L74.4669 65.2855L76.2146 65.2854L83.2856 58.2144Z" fill="black" stroke="black" stroke-width="3" stroke-linejoin="round"/>
<path id="17 18" d="M81.5378 58.2144C79.2173 58.2171 76.9927 59.1401 75.352 60.7809L68.2811 67.8517C69.9219 66.2111 72.1464 65.2881 74.4667 65.2854L81.5378 58.2144Z" fill="black" stroke="black" stroke-width="3" stroke-linejoin="round"/>
<path id="3 4" d="M57.0377 51.2144H78.033L70.962 58.2854H49.9667L57.0377 51.2144Z" fill="black" stroke="black" stroke-width="3" stroke-linejoin="round"/>
<path id="16 17" d="M75.3521 60.7808C73.7113 62.4216 72.7884 64.6463 72.7858 66.9667L65.7147 74.0378C65.7173 71.7173 66.6403 69.4927 68.281 67.8518L75.3521 60.7808Z" fill="black" stroke="black" stroke-width="3" stroke-linejoin="round"/>
<path id="4 5" d="M53.3239 52.7527C54.3089 51.7677 55.6448 51.2144 57.0378 51.2144L49.9668 58.2854C48.5738 58.2854 47.2378 58.8388 46.2528 59.8238L53.3239 52.7527Z" fill="black" stroke="black" stroke-width="3" stroke-linejoin="round"/>
<path id="15 16" d="M72.7858 66.9668V75.7144L65.7147 82.7855V74.0379L72.7858 66.9668Z" fill="black" stroke="black" stroke-width="3" stroke-linejoin="round"/>
<path id="5 6" d="M51.7855 56.4669C51.7855 55.0739 52.3389 53.7379 53.3239 52.7529L46.2529 59.824C45.2678 60.809 44.7145 62.145 44.7145 63.538L51.7855 56.4669Z" fill="black" stroke="black" stroke-width="3" stroke-linejoin="round"/>
<path id="14 15" d="M72.7858 75.7144H71.0355L63.9645 82.7854H65.7147L72.7858 75.7144Z" fill="black" stroke="black" stroke-width="3" stroke-linejoin="round"/>
<path id="19 14" d="M67.5355 79.2144C69.2855 77.4644 71.0355 75.7144 71.0355 75.7144L63.9645 82.7854C63.9645 82.7854 62.2145 84.5354 60.4645 86.2854L67.5355 79.2144Z" stroke="black" stroke-width="3" stroke-linejoin="round"/>
<path id="6 7" d="M51.7855 70.4621V56.4668L44.7145 63.5379V77.5332L51.7855 70.4621Z" fill="black" stroke="black" stroke-width="3" stroke-linejoin="round"/>
<path id="11 12" d="M64.0354 75.7144H57.0377L49.9667 82.7854H56.9643L64.0354 75.7144Z" fill="black" stroke="black" stroke-width="3" stroke-linejoin="round"/>
<path id="12 13" d="M64.0355 82.7144V75.7144L56.9645 82.7854V89.7854L64.0355 82.7144Z" fill="black" stroke="black" stroke-width="3" stroke-linejoin="round"/>
<path id="13 19" d="M64.0355 82.7144C64.0355 82.7144 65.7855 80.9644 67.5355 79.2144L60.4645 86.2854C58.7145 88.0354 56.9645 89.7854 56.9645 89.7854L64.0355 82.7144Z" stroke="black" stroke-width="3" stroke-linejoin="round"/>
<path id="10 11" d="M57.038 75.7143C56.3482 75.7143 55.6652 75.5784 55.028 75.3145L47.9569 82.3855C48.5941 82.6495 49.2771 82.7853 49.9669 82.7853L57.038 75.7143Z" fill="black" stroke="black" stroke-width="3" stroke-linejoin="round"/>
<path id="7 8" d="M52.1854 72.4719C51.9214 71.8346 51.7855 71.1517 51.7855 70.4619L44.7145 77.533C44.7145 78.2227 44.8503 78.9057 45.1143 79.543L52.1854 72.4719Z" fill="black" stroke="black" stroke-width="3" stroke-linejoin="round"/>
<path id="9 10" d="M55.0279 75.3143C54.3906 75.0504 53.8116 74.6635 53.3239 74.1758L46.2528 81.2468C46.7405 81.7346 47.3195 82.1215 47.9568 82.3854L55.0279 75.3143Z" fill="black" stroke="black" stroke-width="3" stroke-linejoin="round"/>
<path id="8 9" d="M53.324 74.1761C52.8363 73.6884 52.4494 73.1094 52.1854 72.4722L45.1144 79.5432C45.3783 80.1805 45.7652 80.7595 46.2529 81.2472L53.324 74.1761Z" fill="black" stroke="black" stroke-width="3" stroke-linejoin="round"/>
</g>
<path id="Vector_3" d="M83.2855 58.2142V56.4667C83.2855 55.0737 82.7321 53.7377 81.7471 52.7527C80.7621 51.7677 79.4262 51.2144 78.0331 51.2144H57.0378C55.6448 51.2144 54.3089 51.7677 53.3239 52.7527C52.3389 53.7378 51.7855 55.0737 51.7855 56.4667V70.4621C51.7855 71.1518 51.9214 71.8348 52.1853 72.472C52.4493 73.1093 52.8362 73.6883 53.3239 74.176C53.8116 74.6637 54.3906 75.0506 55.0279 75.3146C55.6651 75.5785 56.3481 75.7144 57.0378 75.7144H64.0355V82.7144L71.0355 75.7144H72.7857V66.9668C72.7884 64.6463 73.7113 62.4217 75.352 60.7808C76.9928 59.14 79.2174 58.217 81.5379 58.2143L83.2855 58.2142Z" fill="white" stroke="black" stroke-width="3" stroke-linejoin="round"/>
</g>
<g id="Group 33671">
<g id="Group 33668">
<path id="Vector_4" d="M91.9622 65.2856H70.9669C70.2771 65.2856 69.5941 65.4215 68.9569 65.6855C68.3196 65.9494 67.7406 66.3363 67.2529 66.824C66.7651 67.3117 66.3783 67.8908 66.1143 68.528C65.8503 69.1652 65.7145 69.8482 65.7145 70.538V84.5333C65.7145 85.2231 65.8503 85.9061 66.1143 86.5433C66.3783 87.1806 66.7651 87.7596 67.2529 88.2473C67.7406 88.735 68.3196 89.1219 68.9569 89.3859C69.5941 89.6498 70.2771 89.7857 70.9669 89.7856H77.9645L84.9645 96.7856V89.7856H91.9622C93.3552 89.7856 94.6911 89.2323 95.6761 88.2473C96.6611 87.2623 97.2145 85.9263 97.2145 84.5333V70.538C97.2145 69.145 96.6611 67.8091 95.6761 66.824C94.6911 65.839 93.3552 65.2857 91.9622 65.2856Z" fill="black" stroke="black" stroke-width="3" stroke-linejoin="round"/>
<path id="18 0_2" d="M99.0333 58.2144C100.426 58.2144 101.762 58.7678 102.747 59.7528L95.6762 66.8238C94.6912 65.8388 93.3553 65.2854 91.9623 65.2854L99.0333 58.2144Z" fill="black" stroke="black" stroke-width="3" stroke-linejoin="round"/>
<path id="17 18_2" d="M102.747 59.7529C103.732 60.7379 104.286 62.0739 104.286 63.4669L97.2145 70.5379C97.2145 69.1449 96.6611 67.809 95.6761 66.824L102.747 59.7529Z" fill="black" stroke="black" stroke-width="3" stroke-linejoin="round"/>
<path id="16 17_2" d="M104.286 63.4668V77.4621L97.2145 84.5332V70.5379L104.286 63.4668Z" fill="black" stroke="black" stroke-width="3" stroke-linejoin="round"/>
<path id="0 1_2" d="M78.038 58.2144H99.0333L91.9623 65.2854H70.9669L78.038 58.2144Z" fill="black" stroke="black" stroke-width="3" stroke-linejoin="round"/>
<path id="15 16_2" d="M104.286 77.4619C104.286 78.8549 103.732 80.1909 102.747 81.1758L95.6761 88.2469C96.6611 87.2619 97.2145 85.926 97.2145 84.533L104.286 77.4619Z" fill="black" stroke="black" stroke-width="3" stroke-linejoin="round"/>
<path id="14 15_2" d="M102.747 81.1758C101.762 82.1608 100.426 82.7141 99.0333 82.7141L91.9623 89.7852C93.3553 89.7852 94.6912 89.2318 95.6762 88.2468L102.747 81.1758Z" fill="black" stroke="black" stroke-width="3" stroke-linejoin="round"/>
<path id="1 2_2" d="M76.028 58.6142C76.6652 58.3502 77.3482 58.2144 78.038 58.2144L70.9669 65.2854C70.2772 65.2854 69.5942 65.4213 68.9569 65.6852L76.028 58.6142Z" fill="black" stroke="black" stroke-width="3" stroke-linejoin="round"/>
<path id="2 3_2" d="M74.3239 59.7528C74.8116 59.2651 75.3906 58.8782 76.0279 58.6143L68.9568 65.6853C68.3196 65.9493 67.7405 66.3362 67.2528 66.8239L74.3239 59.7528Z" fill="black" stroke="black" stroke-width="3" stroke-linejoin="round"/>
<path id="3 4_2" d="M73.1854 61.4569C73.4494 60.8197 73.8363 60.2407 74.324 59.7529L67.253 66.824C66.7652 67.3117 66.3783 67.8907 66.1144 68.528L73.1854 61.4569Z" fill="black" stroke="black" stroke-width="3" stroke-linejoin="round"/>
<path id="13 14" d="M99.0332 82.7144H92.0355L84.9645 89.7854H91.9622L99.0332 82.7144Z" fill="black" stroke="black" stroke-width="3" stroke-linejoin="round"/>
<path id="4 5_2" d="M72.7855 63.4665C72.7855 62.7768 72.9214 62.0938 73.1854 61.4565L66.1143 68.5276C65.8503 69.1649 65.7145 69.8479 65.7145 70.5376L72.7855 63.4665Z" fill="black" stroke="black" stroke-width="3" stroke-linejoin="round"/>
<path id="12 13_2" d="M92.0355 82.7144V89.7144L84.9645 96.7854V89.7854L92.0355 82.7144Z" fill="black" stroke="black" stroke-width="3" stroke-linejoin="round"/>
<path id="11 12_2" d="M92.0355 89.7144L85.0355 82.7144L77.9645 89.7854L84.9645 96.7854L92.0355 89.7144Z" fill="black" stroke="black" stroke-width="3" stroke-linejoin="round"/>
<path id="5 6_2" d="M72.7855 77.4621V63.4668L65.7145 70.5379V84.5332L72.7855 77.4621Z" fill="black" stroke="black" stroke-width="3" stroke-linejoin="round"/>
<path id="10 11_2" d="M85.0356 82.7144H78.038L70.9669 89.7854H77.9645L85.0356 82.7144Z" fill="black" stroke="black" stroke-width="3" stroke-linejoin="round"/>
<path id="9 10_2" d="M78.038 82.7142C77.3482 82.7142 76.6652 82.5784 76.028 82.3145L68.9569 89.3855C69.5942 89.6495 70.2772 89.7853 70.9669 89.7853L78.038 82.7142Z" fill="black" stroke="black" stroke-width="3" stroke-linejoin="round"/>
<path id="6 7_2" d="M73.1854 79.4719C72.9214 78.8347 72.7855 78.1517 72.7855 77.4619L65.7145 84.533C65.7145 85.2227 65.8503 85.9057 66.1143 86.543L73.1854 79.4719Z" fill="black" stroke="black" stroke-width="3" stroke-linejoin="round"/>
<path id="8 9_2" d="M76.0279 82.3143C75.3906 82.0504 74.8116 81.6635 74.3239 81.1758L67.2528 88.2468C67.7405 88.7346 68.3196 89.1215 68.9568 89.3854L76.0279 82.3143Z" fill="black" stroke="black" stroke-width="3" stroke-linejoin="round"/>
<path id="7 8_2" d="M74.324 81.1761C73.8363 80.6884 73.4494 80.1094 73.1854 79.4722L66.1144 86.5432C66.3783 87.1805 66.7652 87.7595 67.253 88.2472L74.324 81.1761Z" fill="black" stroke="black" stroke-width="3" stroke-linejoin="round"/>
</g>
<path id="Vector_5" d="M99.0332 58.2144H78.0379C77.3481 58.2144 76.6652 58.3502 76.0279 58.6142C75.3907 58.8781 74.8116 59.265 74.3239 59.7527C73.8362 60.2405 73.4493 60.8195 73.1853 61.4567C72.9214 62.094 72.7855 62.777 72.7855 63.4667V77.4621C72.7855 78.1518 72.9214 78.8348 73.1853 79.472C73.4493 80.1093 73.8362 80.6883 74.3239 81.176C74.8116 81.6637 75.3907 82.0506 76.0279 82.3146C76.6652 82.5785 77.3482 82.7144 78.0379 82.7144H85.0355L92.0355 89.7144V82.7144H99.0332C100.426 82.7144 101.762 82.161 102.747 81.176C103.732 80.191 104.286 78.8551 104.286 77.4621V63.4667C104.286 62.0737 103.732 60.7378 102.747 59.7528C101.762 58.7678 100.426 58.2144 99.0332 58.2144Z" fill="white" stroke="black" stroke-width="3" stroke-linejoin="round"/>
</g>
</g>
</g>
</svg>
