<svg width="24" height="24" viewBox="0 0 24 24" fill="none" xmlns="http://www.w3.org/2000/svg">
<g id="icons/24x24/mic">
<path id="Vector" d="M6.16406 10.3337C6.16406 11.8808 6.77864 13.3645 7.87261 14.4584C8.96657 15.5524 10.4503 16.167 11.9974 16.167M11.9974 16.167C13.5445 16.167 15.0282 15.5524 16.1222 14.4584C17.2161 13.3645 17.8307 11.8808 17.8307 10.3337M11.9974 16.167V19.5003M8.66406 19.5003H15.3307M11.9974 3.66699C13.3781 3.66699 14.4974 4.78628 14.4974 6.16699V10.3337C14.4974 11.7144 13.3781 12.8337 11.9974 12.8337C10.6167 12.8337 9.4974 11.7144 9.4974 10.3337V6.16699C9.4974 4.78628 10.6167 3.66699 11.9974 3.66699Z" stroke="white" stroke-width="1.5" stroke-linecap="round" stroke-linejoin="round"/>
</g>
</svg>
