<svg width="149" height="148" viewBox="0 0 149 148" fill="none" xmlns="http://www.w3.org/2000/svg">
<path d="M111.053 24H37.9467C30.5203 24 24.5 30.0203 24.5 37.4467V110.553C24.5 117.98 30.5203 124 37.9467 124H111.053C118.48 124 124.5 117.98 124.5 110.553V37.4467C124.5 30.0203 118.48 24 111.053 24Z" fill="#007AFF"/>
<path d="M111.053 16H37.9467C26.102 16 16.5 25.602 16.5 37.4467V110.553C16.5 122.398 26.102 132 37.9467 132H111.053C122.898 132 132.5 122.398 132.5 110.553V37.4467C132.5 25.602 122.898 16 111.053 16Z" stroke="#007AFF" stroke-opacity="0.2" stroke-width="16"/>
<path d="M68.4686 50.702C67.4329 51.7381 66.7897 53.1735 66.7897 54.7563C66.7897 55.029 66.8089 55.2976 66.8459 55.5607C64.439 56.4148 62.2833 57.7956 60.517 59.5628C57.4481 62.6333 55.5474 66.8784 55.5474 71.5647V85.917C54.2174 86.0895 53.0246 86.7034 52.1239 87.6045C51.0534 88.6754 50.3887 90.159 50.3887 91.795C50.3887 95.0686 53.0425 97.7224 56.3161 97.7224L66.7971 97.7226C66.9014 100.796 69.4257 103.255 72.5243 103.255C74.1068 103.255 75.5418 102.612 76.5773 101.576C77.5688 100.584 78.2003 99.2257 78.2515 97.7226L88.7327 97.7224C90.3695 97.7224 91.8538 97.057 92.9249 95.9854C93.9954 94.9145 94.6602 93.4309 94.6602 91.795C94.6602 88.7821 92.4124 86.2943 89.5024 85.917V71.5647C89.5024 64.1783 84.7866 57.8966 78.2032 55.5605C78.2403 55.2974 78.2594 55.0289 78.2594 54.7563C78.2594 51.5891 75.6918 49.0215 72.5245 49.0215C70.9409 49.0215 69.5048 49.6654 68.4686 50.702ZM72.1109 54.5922C72.1332 54.5359 72.167 54.4852 72.2102 54.442C72.2922 54.3599 72.4014 54.3118 72.5245 54.3118C72.7121 54.3118 72.8725 54.4279 72.9378 54.5921C72.8005 54.5889 72.6629 54.5872 72.5249 54.5872C72.3865 54.5872 72.2485 54.5889 72.1109 54.5922Z" fill="black" stroke="black" stroke-width="3" stroke-linejoin="round"/>
<path d="M82.0616 51.5743C82.3429 51.293 82.5009 50.9115 82.5009 50.5136C82.5009 47.3464 79.9333 44.7788 76.7661 44.7788C76.3683 44.7788 75.9867 44.9368 75.7054 45.2181L71.4628 49.4608C71.0338 49.8898 70.9054 50.535 71.1376 51.0955C71.3698 51.656 71.9167 52.0214 72.5234 52.0214C74.0338 52.0214 75.2583 53.2459 75.2583 54.7563C75.2583 55.363 75.6237 55.9099 76.1842 56.1421C76.7447 56.3743 77.3899 56.2459 77.8189 55.8169L82.0616 51.5743Z" fill="black" stroke="black" stroke-width="3" stroke-linejoin="round"/>
<path d="M81.6568 53.3828C81.7786 53.261 81.8785 53.1191 81.9521 52.9634C82.3044 52.2187 82.5006 51.387 82.5006 50.5137C82.5006 49.907 82.1351 49.36 81.5746 49.1279C81.0141 48.8957 80.3689 49.024 79.94 49.453L75.6973 53.6957C75.416 53.977 75.258 54.3585 75.258 54.7563C75.258 55.1768 75.1641 55.5713 74.9975 55.9234C74.6856 56.5829 74.8934 57.3711 75.4898 57.7911C76.0862 58.2112 76.8984 58.1412 77.4142 57.6254L81.6568 53.3828Z" fill="black" stroke="black" stroke-width="3" stroke-linejoin="round"/>
<path d="M77.8277 47.3395C78.2567 46.9105 78.385 46.2653 78.1529 45.7048C77.9207 45.1443 77.3737 44.7788 76.767 44.7788C75.1835 44.7788 73.7475 45.4226 72.7113 46.4591C72.7112 46.4592 72.7111 46.4593 72.7111 46.4594L68.4701 50.7003L68.4699 50.7005C67.8842 51.2863 67.8841 52.2359 68.4698 52.8217C69.0555 53.4075 70.0051 53.4077 70.591 52.8221C70.5911 52.822 70.5911 52.8219 70.5912 52.8218C70.5913 52.8218 70.5913 52.8217 70.5914 52.8217C71.0879 52.3256 71.7692 52.0214 72.5244 52.0214C72.9222 52.0214 73.3038 51.8634 73.5851 51.5821L77.8277 47.3395Z" fill="black" stroke="black" stroke-width="3" stroke-linejoin="round"/>
<path d="M79.7713 51.5745C80.0526 51.2932 80.2106 50.9117 80.2106 50.5139C80.2106 48.6115 78.6684 47.0693 76.7661 47.0693C76.3683 47.0693 75.9867 47.2274 75.7054 47.5087L71.4628 51.7513C71.0338 52.1803 70.9054 52.8255 71.1376 53.386C71.3698 53.9465 71.9167 54.312 72.5234 54.312C72.7689 54.312 72.968 54.511 72.968 54.7565C72.968 55.3632 73.3334 55.9102 73.8939 56.1423C74.4545 56.3745 75.0996 56.2462 75.5286 55.8172L79.7713 51.5745Z" fill="black" stroke="black" stroke-width="3" stroke-linejoin="round"/>
<path d="M77.827 49.63C78.256 49.201 78.3843 48.5558 78.1522 47.9953C77.92 47.4348 77.373 47.0693 76.7664 47.0693C75.8154 47.0693 74.9521 47.4566 74.3304 48.0785C74.3303 48.0786 74.3303 48.0787 74.3302 48.0787L70.0888 52.3201C70.0887 52.3202 70.0887 52.3203 70.0886 52.3203L70.0884 52.3206C69.5026 52.9063 69.5026 53.856 70.0882 54.4418C70.6739 55.0276 71.6236 55.0277 72.2095 54.4421C72.2095 54.442 72.2096 54.442 72.2097 54.4419C72.2917 54.36 72.4007 54.312 72.5237 54.312C72.9215 54.312 73.3031 54.1539 73.5844 53.8726L77.827 49.63Z" fill="black" stroke="black" stroke-width="3" stroke-linejoin="round"/>
<path d="M80.2119 50.5137C80.2119 49.907 79.8465 49.36 79.2859 49.1279C78.7254 48.8957 78.0803 49.024 77.6513 49.453L73.4086 53.6957C73.1273 53.977 72.9693 54.3585 72.9693 54.7563C72.9693 54.876 72.9239 54.9821 72.8462 55.0633L72.8241 55.0855C72.2405 55.669 72.238 56.6144 72.8184 57.2011C73.3988 57.7877 74.3442 57.7954 74.934 57.2181C74.9495 57.2029 74.9649 57.1876 74.9801 57.1721L79.1832 52.969C79.8164 52.3459 80.2119 51.4746 80.2119 50.5137Z" fill="black" stroke="black" stroke-width="3" stroke-linejoin="round"/>
<path d="M93.3043 68.3829C93.5856 68.1016 93.7436 67.72 93.7436 67.3222C93.7436 59.3938 88.3103 52.7382 80.9662 50.8686C80.4534 50.7381 79.9097 50.8874 79.5355 51.2616L75.2929 55.5042C74.9115 55.8856 74.7643 56.4422 74.9071 56.9622C75.0499 57.4822 75.4609 57.8855 75.9835 58.0185C82.0304 59.5579 86.501 65.0412 86.501 71.5648C86.501 72.1715 86.8665 72.7185 87.427 72.9507C87.9875 73.1828 88.6327 73.0545 89.0617 72.6255L93.3043 68.3829Z" fill="black" stroke="black" stroke-width="3" stroke-linejoin="round"/>
<path d="M76.768 50.3447C76.3702 50.3447 75.9887 50.5028 75.7074 50.7841L71.4647 55.0267C71.0357 55.4557 70.9074 56.1009 71.1396 56.6614C71.3717 57.2219 71.9187 57.5874 72.5254 57.5874C72.9401 57.5874 73.3502 57.6054 73.755 57.6406C74.1965 57.679 74.6323 57.5203 74.9457 57.2069L79.1883 52.9643C79.6006 52.552 79.7366 51.9381 79.5371 51.3903C79.3376 50.8424 78.8386 50.4598 78.2577 50.4093C77.7665 50.3665 77.2696 50.3447 76.768 50.3447Z" fill="black" stroke="black" stroke-width="3" stroke-linejoin="round"/>
<path d="M76.4529 50.1996C77.0385 49.6137 77.0383 48.6641 76.4525 48.0784C75.8667 47.4927 74.9171 47.4928 74.3313 48.0785L74.3311 48.0787L70.0887 52.3211L70.0884 52.3214C69.4671 52.943 69.0801 53.806 69.0801 54.7565C69.0801 55.3632 69.4455 55.9102 70.0061 56.1423C70.5666 56.3745 71.2117 56.2462 71.6407 55.8172L75.8834 51.5745C76.1647 51.2932 76.3227 50.9117 76.3227 50.5139C76.3227 50.3908 76.3707 50.2819 76.4526 50.1998C76.4527 50.1997 76.4528 50.1997 76.4529 50.1996Z" fill="black" stroke="black" stroke-width="3" stroke-linejoin="round"/>
<path d="M75.2766 50.4093C74.925 50.4399 74.5956 50.5935 74.346 50.843L70.1034 55.0857C69.6576 55.5315 69.5381 56.2085 69.8045 56.78C70.0708 57.3514 70.6661 57.6954 71.2942 57.6407C71.6992 57.6054 72.1095 57.5874 72.5244 57.5874C72.9222 57.5874 73.3037 57.4293 73.5851 57.148L77.8277 52.9054C78.2567 52.4764 78.385 51.8312 78.1529 51.2707C77.9207 50.7102 77.3737 50.3447 76.767 50.3447C76.2652 50.3447 75.768 50.3665 75.2766 50.4093Z" fill="black" stroke="black" stroke-width="3" stroke-linejoin="round"/>
<path d="M74.8323 48.5805C75.4179 47.9946 75.4178 47.0449 74.832 46.4592C74.2462 45.8736 73.2965 45.8736 72.7108 46.4594L72.7105 46.4596L68.4681 50.702L68.4679 50.7022C67.4322 51.7383 66.7891 53.1737 66.7891 54.7565C66.7891 55.3632 67.1545 55.9102 67.715 56.1423C68.2755 56.3745 68.9207 56.2462 69.3497 55.8172L73.5924 51.5745C73.8737 51.2932 74.0317 50.9117 74.0317 50.5139C74.0317 49.7586 74.3359 49.0772 74.8321 48.5807C74.8322 48.5806 74.8322 48.5805 74.8323 48.5805Z" fill="black" stroke="black" stroke-width="3" stroke-linejoin="round"/>
<path d="M76.3227 50.5137C76.3227 49.907 75.9573 49.36 75.3967 49.1279C74.8362 48.8957 74.1911 49.024 73.7621 49.453L69.5194 53.6957C69.2381 53.977 69.0801 54.3585 69.0801 54.7563C69.0801 55.7207 69.4783 56.5947 70.1155 57.2182C70.7031 57.7932 71.644 57.7881 72.2253 57.2068L76.468 52.9642C76.7512 52.6809 76.9094 52.2961 76.9073 51.8954C76.9051 51.4948 76.7428 51.1117 76.4564 50.8315C76.3722 50.749 76.3227 50.6385 76.3227 50.5137Z" fill="black" stroke="black" stroke-width="3" stroke-linejoin="round"/>
<path d="M74.0317 50.5137C74.0317 49.907 73.6662 49.36 73.1057 49.1279C72.5452 48.8957 71.9 49.024 71.471 49.453L67.2284 53.6957C66.9471 53.977 66.7891 54.3585 66.7891 54.7563C66.7891 55.6298 66.9854 56.4615 67.3376 57.2063C67.5463 57.6474 67.9564 57.9594 68.4372 58.0428C68.9179 58.1262 69.4092 57.9706 69.7543 57.6256L73.9969 53.3829C74.4449 52.9349 74.5631 52.2537 74.2922 51.6809C74.1256 51.3287 74.0317 50.9343 74.0317 50.5137Z" fill="black" stroke="black" stroke-width="3" stroke-linejoin="round"/>
<path d="M93.3053 84.1852C93.5866 83.9039 93.7446 83.5224 93.7446 83.1246V67.3218C93.7446 66.7151 93.3791 66.1681 92.8186 65.936C92.2581 65.7038 91.6129 65.8321 91.1839 66.2611L86.9413 70.5038C86.66 70.7851 86.502 71.1666 86.502 71.5644V87.3672C86.502 87.9739 86.8674 88.5208 87.4279 88.753C87.9884 88.9852 88.6336 88.8569 89.0626 88.4279L93.3053 84.1852Z" fill="black" stroke="black" stroke-width="3" stroke-linejoin="round"/>
<path d="M73.9977 53.3829C74.4753 52.9053 74.5748 52.1674 74.2408 51.5804C73.9067 50.9934 73.2215 50.702 72.567 50.8686C69.5628 51.6335 66.8808 53.1982 64.7601 55.3199C64.76 55.32 64.7599 55.3201 64.7598 55.3202L60.5232 59.5568L60.523 59.557C59.9372 60.1428 59.9372 61.0924 60.5228 61.6782C61.1085 62.264 62.0581 62.2642 62.644 61.6786C62.6441 61.6785 62.6442 61.6785 62.6443 61.6784C64.3924 59.9312 66.5986 58.6464 69.0645 58.0185C69.3259 57.952 69.5644 57.8162 69.7551 57.6256L73.9977 53.3829Z" fill="black" stroke="black" stroke-width="3" stroke-linejoin="round"/>
<path d="M98.4632 88.6132C98.7445 88.3318 98.9026 87.9503 98.9026 87.5525C98.9026 84.2788 96.2487 81.625 92.9751 81.625C92.5772 81.625 92.1957 81.783 91.9144 82.0643L87.6718 86.307C87.2428 86.736 87.1144 87.3812 87.3466 87.9417C87.5788 88.5022 88.1257 88.8676 88.7324 88.8676C90.3492 88.8676 91.6599 90.1783 91.6599 91.7951C91.6599 92.4018 92.0254 92.9488 92.5859 93.181C93.1464 93.4131 93.7916 93.2848 94.2206 92.8558L98.4632 88.6132Z" fill="black" stroke="black" stroke-width="3" stroke-linejoin="round"/>
<path d="M94.0355 84.1857C94.4645 83.7567 94.5929 83.1115 94.3607 82.551C94.1285 81.9905 93.5816 81.625 92.9749 81.625H92.2446C91.8468 81.625 91.4652 81.783 91.1839 82.0643L86.9413 86.307C86.5123 86.736 86.384 87.3812 86.6161 87.9417C86.8483 88.5022 87.3953 88.8676 88.002 88.8676H88.7322C89.13 88.8676 89.5116 88.7096 89.7929 88.4283L94.0355 84.1857Z" fill="black" stroke="black" stroke-width="3" stroke-linejoin="round"/>
<path d="M97.1666 91.743L97.1668 91.7427C98.2373 90.6718 98.902 89.1882 98.902 87.5522C98.902 86.9456 98.5366 86.3986 97.9761 86.1664C97.4156 85.9343 96.7704 86.0626 96.3414 86.4916L92.0987 90.7342C91.8174 91.0155 91.6594 91.3971 91.6594 91.7949C91.6594 92.6034 91.3336 93.3329 90.8026 93.8643C90.8025 93.8643 90.8025 93.8644 90.8024 93.8645C90.2168 94.4504 90.2169 95.4 90.8027 95.9857C91.3885 96.5714 92.3382 96.5713 92.9239 95.9856L92.9242 95.9854L97.1666 91.743Z" fill="black" stroke="black" stroke-width="3" stroke-linejoin="round"/>
<path d="M92.9751 90.4796C92.5772 90.4796 92.1957 90.6376 91.9144 90.9189L87.6718 95.1616C87.2428 95.5905 87.1144 96.2357 87.3466 96.7962C87.5788 97.3567 88.1257 97.7222 88.7324 97.7222C90.3692 97.7222 91.8534 97.0568 92.9245 95.9854C92.9245 95.9854 92.9246 95.9853 92.9247 95.9852L97.1651 91.7448C97.1653 91.7446 97.1654 91.7445 97.1656 91.7443L97.1658 91.7441C97.7515 91.1584 97.7516 90.2087 97.1659 89.6229C96.5802 89.0371 95.6305 89.0369 95.0447 89.6226C95.0446 89.6226 95.0445 89.6227 95.0445 89.6228C95.0444 89.6228 95.0443 89.6229 95.0443 89.623C94.5129 90.1539 93.7835 90.4796 92.9751 90.4796Z" fill="black" stroke="black" stroke-width="3" stroke-linejoin="round"/>
<path d="M66.8809 57.4408C67.4665 56.8549 67.4664 55.9052 66.8806 55.3196C66.2947 54.7339 65.3451 54.734 64.7594 55.3197L64.7591 55.32L60.5167 59.5624L60.5165 59.5626C57.4475 62.6331 55.5469 66.8783 55.5469 71.5645C55.5469 72.1712 55.9123 72.7182 56.4728 72.9503C57.0334 73.1825 57.6785 73.0542 58.1075 72.6252L62.3502 68.3825C62.6315 68.1012 62.7895 67.7197 62.7895 67.3219C62.7895 63.4631 64.3512 59.9719 66.8807 57.441C66.8808 57.4409 66.8809 57.4409 66.8809 57.4408Z" fill="black" stroke="black" stroke-width="3" stroke-linejoin="round"/>
<path d="M94.035 93.0406C94.464 92.6116 94.5924 91.9665 94.3602 91.4059C94.128 90.8454 93.581 90.48 92.9743 90.48L80.9965 90.4802C80.5987 90.4802 80.2172 90.6382 79.9359 90.9195L75.6932 95.1621C75.2642 95.5911 75.1359 96.2363 75.3681 96.7968C75.6003 97.3573 76.1472 97.7228 76.7539 97.7228L88.7317 97.7226C89.1296 97.7226 89.5111 97.5646 89.7924 97.2833L94.035 93.0406Z" fill="black" stroke="black" stroke-width="3" stroke-linejoin="round"/>
<path d="M82.0572 94.3426C82.3385 94.0613 82.4965 93.6797 82.4965 93.2819V91.98C82.4965 91.3733 82.1311 90.8263 81.5706 90.5942C81.0101 90.362 80.3649 90.4903 79.9359 90.9193L75.6932 95.162C75.4119 95.4433 75.2539 95.8248 75.2539 96.2226V97.5245C75.2539 98.1312 75.6194 98.6782 76.1799 98.9104C76.7404 99.1425 77.3856 99.0142 77.8146 98.5852L82.0572 94.3426Z" fill="black" stroke="black" stroke-width="3" stroke-linejoin="round"/>
<path d="M62.7895 67.3223C62.7895 66.7156 62.4241 66.1686 61.8635 65.9364C61.303 65.7043 60.6579 65.8326 60.2289 66.2616L55.9862 70.5042C55.7049 70.7856 55.5469 71.1671 55.5469 71.5649V87.3677C55.5469 87.9744 55.9123 88.5213 56.4728 88.7535C57.0334 88.9857 57.6785 88.8573 58.1075 88.4283L62.3502 84.1857C62.6315 83.9044 62.7895 83.5229 62.7895 83.125V67.3223Z" fill="black" stroke="black" stroke-width="3" stroke-linejoin="round"/>
<path d="M80.8191 97.333L80.8189 97.3332L76.577 101.575C76.5768 101.575 76.5767 101.576 76.5765 101.576L76.5763 101.576C75.9905 102.162 75.0409 102.162 74.4551 101.576C73.8693 100.99 73.8691 100.041 74.4547 99.4548C74.4548 99.4547 74.4549 99.4546 74.455 99.4546C74.455 99.4545 74.4551 99.4544 74.4551 99.4544M80.8191 97.333L76.5696 97.3399L76.3851 97.5244L74.4551 99.4544M80.8191 97.333C81.854 96.2977 82.4967 94.8633 82.4967 93.2817C82.4967 92.675 82.1313 92.1281 81.5708 91.8959C81.0103 91.6637 80.3651 91.7921 79.9361 92.2211L75.6934 96.4637C75.4121 96.745 75.2541 97.1266 75.2541 97.5244C75.2541 98.2784 74.9504 98.9587 74.4551 99.4544M80.8191 97.333L74.4551 99.4544" fill="black" stroke="black" stroke-width="3" stroke-linejoin="round"/>
<path d="M76.7661 96.0122C76.3683 96.0122 75.9867 96.1702 75.7054 96.4515L71.4628 100.694C71.0338 101.123 70.9054 101.768 71.1376 102.329C71.3698 102.889 71.9167 103.255 72.5234 103.255C74.1058 103.255 75.5408 102.612 76.5762 101.576C76.5763 101.576 76.5763 101.576 76.5764 101.576L80.8167 97.3352C80.8169 97.335 80.8171 97.3348 80.8174 97.3346L80.8176 97.3344C81.4033 96.7486 81.4034 95.799 80.8177 95.2132C80.232 94.6274 79.2823 94.6272 78.6965 95.2128C78.6964 95.2129 78.6963 95.213 78.6963 95.2131C78.6962 95.2131 78.6961 95.2132 78.6961 95.2132C78.2004 95.7085 77.5201 96.0122 76.7661 96.0122Z" fill="black" stroke="black" stroke-width="3" stroke-linejoin="round"/>
<path d="M74.0356 91.98C74.0356 91.3733 73.6701 90.8263 73.1096 90.5942C72.5491 90.362 71.9039 90.4903 71.4749 90.9193L67.2323 95.162C66.951 95.4433 66.793 95.8248 66.793 96.2226V97.5245C66.793 98.1312 67.1584 98.6782 67.7189 98.9104C68.2795 99.1425 68.9246 99.0142 69.3536 98.5852L73.5963 94.3426C73.8776 94.0613 74.0356 93.6797 74.0356 93.2819V91.98Z" fill="black" stroke="black" stroke-width="3" stroke-linejoin="round"/>
<path d="M74.0356 93.2817C74.0356 92.675 73.6701 92.1281 73.1096 91.8959C72.5491 91.6637 71.9039 91.7921 71.4749 92.2211L67.2323 96.4637C66.951 96.745 66.793 97.1266 66.793 97.5244C66.793 100.689 69.3586 103.255 72.5235 103.255C72.9214 103.255 73.3029 103.097 73.5842 102.816L77.8268 98.573C78.2558 98.144 78.3842 97.4988 78.152 96.9383C77.9198 96.3778 77.3729 96.0123 76.7662 96.0123C75.2581 96.0123 74.0356 94.7898 74.0356 93.2817Z" fill="black" stroke="black" stroke-width="3" stroke-linejoin="round"/>
<path d="M62.351 84.1857C62.78 83.7567 62.9083 83.1115 62.6762 82.551C62.444 81.9905 61.897 81.625 61.2903 81.625H60.559C60.1612 81.625 59.7797 81.783 59.4984 82.0643L55.2557 86.307C54.8267 86.736 54.6984 87.3812 54.9306 87.9417C55.1628 88.5022 55.7097 88.8676 56.3164 88.8676H57.0477C57.4455 88.8676 57.827 88.7096 58.1084 88.4283L62.351 84.1857Z" fill="black" stroke="black" stroke-width="3" stroke-linejoin="round"/>
<path d="M61.6183 84.1857C62.0473 83.7567 62.1756 83.1115 61.9434 82.551C61.7112 81.9905 61.1643 81.625 60.5576 81.625C58.9208 81.625 57.4366 82.2904 56.3656 83.3618C56.3655 83.3619 56.3654 83.3619 56.3654 83.362L52.1245 87.6029L52.1242 87.6031C51.5385 88.1888 51.5385 89.1385 52.1241 89.7243C52.7098 90.3101 53.6595 90.3103 54.2453 89.7246C54.2454 89.7246 54.2455 89.7245 54.2456 89.7244C54.7769 89.1934 55.5065 88.8676 56.315 88.8676C56.7128 88.8676 57.0943 88.7096 57.3756 88.4283L61.6183 84.1857Z" fill="black" stroke="black" stroke-width="3" stroke-linejoin="round"/>
<path d="M73.5973 93.0408C74.0262 92.6118 74.1546 91.9667 73.9224 91.4061C73.6903 90.8456 73.1433 90.4802 72.5366 90.4802L60.5591 90.48C60.1612 90.48 59.7797 90.638 59.4984 90.9193L55.2557 95.162C54.8268 95.591 54.6984 96.2361 54.9306 96.7966C55.1627 97.3571 55.7097 97.7226 56.3164 97.7226L68.2939 97.7228C68.6918 97.7228 69.0733 97.5648 69.3546 97.2835L73.5973 93.0408Z" fill="black" stroke="black" stroke-width="3" stroke-linejoin="round"/>
<path d="M58.4883 85.4828C59.0739 84.8969 59.0738 83.9473 58.488 83.3616C57.9022 82.7759 56.9525 82.776 56.3668 83.3617L56.3666 83.3619L52.1241 87.6043L52.1239 87.6046C51.0534 88.6755 50.3887 90.1591 50.3887 91.7951C50.3887 92.4017 50.7541 92.9487 51.3146 93.1809C51.8752 93.413 52.5203 93.2847 52.9493 92.8557L57.192 88.6131C57.4733 88.3318 57.6313 87.9502 57.6313 87.5524C57.6313 86.7439 57.9571 86.0144 58.4881 85.483C58.4882 85.4829 58.4882 85.4829 58.4883 85.4828Z" fill="black" stroke="black" stroke-width="3" stroke-linejoin="round"/>
<path d="M57.6313 87.5522C57.6313 86.9456 57.2658 86.3986 56.7053 86.1664C56.1448 85.9343 55.4996 86.0626 55.0707 86.4916L50.828 90.7342C50.5467 91.0155 50.3887 91.3971 50.3887 91.7949C50.3887 95.0685 53.0425 97.7224 56.3162 97.7224C56.714 97.7224 57.0955 97.5643 57.3768 97.283L61.6195 93.0404C62.0485 92.6114 62.1768 91.9662 61.9446 91.4057C61.7125 90.8452 61.1655 90.4797 60.5588 90.4797C58.942 90.4797 57.6313 89.1691 57.6313 87.5522Z" fill="black" stroke="black" stroke-width="3" stroke-linejoin="round"/>
<path d="M76.7667 44.7788C73.5995 44.7788 71.0319 47.3464 71.0319 50.5136C71.0319 50.7863 71.051 51.0549 71.0881 51.3181C64.5051 53.6544 59.7896 59.9359 59.7896 67.322V81.6742C56.8791 82.0511 54.6309 84.5391 54.6309 87.5523C54.6309 90.8259 57.2847 93.4798 60.5583 93.4798L71.0393 93.4799C71.1436 96.5531 73.6679 99.0124 76.7665 99.0124C79.8651 99.0124 82.3893 96.5531 82.4937 93.4799L92.9748 93.4798C96.2485 93.4798 98.9023 90.8259 98.9023 87.5523C98.9023 84.5395 96.6546 82.0517 93.7446 81.6743V67.322C93.7446 59.9356 89.0288 53.6539 82.4454 51.3178C82.4824 51.0547 82.5016 50.7862 82.5016 50.5136C82.5016 47.3464 79.934 44.7788 76.7667 44.7788ZM76.3535 50.3495C76.4188 50.1852 76.5792 50.0691 76.7667 50.0691C76.9543 50.0691 77.1147 50.1852 77.18 50.3495C77.0427 50.3462 76.9051 50.3445 76.7671 50.3445C76.6289 50.3445 76.491 50.3462 76.3535 50.3495Z" fill="white" stroke="black" stroke-width="3" stroke-linejoin="round"/>
</svg>
