<svg width="24" height="24" viewBox="0 0 24 24" fill="none" xmlns="http://www.w3.org/2000/svg">
<g id="Frame">
<g id="Subtract">
<path d="M15.1568 4.49582C15.1568 4.49581 15.1568 4.49583 15.1568 4.49582L19.7852 9.12417L20.8212 8.08818C21.6732 7.23612 21.6732 5.85467 20.8212 5.00263L19.2784 3.45984C18.4263 2.60779 17.0449 2.60779 16.1928 3.45984L15.1568 4.49582Z" fill="white"/>
<path d="M18.6281 10.2813L13.9998 5.65292L4.08845 15.5642C3.7262 15.9265 3.50296 16.4046 3.45789 16.9149L3.19379 19.9046C3.13404 20.5809 3.70008 21.147 4.37647 21.0872L7.366 20.8231C7.87634 20.7781 8.35453 20.5547 8.71679 20.1926L18.6281 10.2813Z" fill="white"/>
</g>
</g>
</svg>
