<svg viewBox="0 0 16 16" fill="none" xmlns="http://www.w3.org/2000/svg">
<path d="M7.03439 1.58632C7.30005 0.59964 8.69995 0.599643 8.96561 1.58632L9.97164 5.32274C10.0643 5.66689 10.3331 5.9357 10.6773 6.02836L14.4137 7.03439C15.4004 7.30005 15.4004 8.69995 14.4137 8.96561L10.6773 9.97164C10.3331 10.0643 10.0643 10.3331 9.97164 10.6773L8.96561 14.4137C8.69995 15.4004 7.30005 15.4004 7.03439 14.4137L6.02836 10.6773C5.9357 10.3331 5.66689 10.0643 5.32274 9.97164L1.58632 8.96561C0.59964 8.69995 0.599643 7.30005 1.58632 7.03439L5.32274 6.02836C5.66689 5.9357 5.9357 5.66689 6.02836 5.32274L7.03439 1.58632Z" fill="white"/>
</svg>
