<svg width="20" height="20" viewBox="0 0 20 20" fill="none" xmlns="http://www.w3.org/2000/svg">
<path d="M10 12.5C11.3807 12.5 12.5 11.3807 12.5 10C12.5 8.61925 11.3807 7.5 10 7.5C8.61925 7.5 7.5 8.61925 7.5 10C7.5 11.3807 8.61925 12.5 10 12.5Z" stroke="#777777" stroke-width="1.25" stroke-linecap="round" stroke-linejoin="round"/>
<path d="M16.3533 8.66413L15.4385 6.4553L16.668 5.0013L15.0013 3.33464L13.5552 4.57043L11.2995 3.64275L10.7807 1.66797H9.15213L8.62555 3.66891L6.42164 4.59794L5.0013 3.33464L3.33464 5.0013L4.54578 6.49201L3.64505 8.70655L1.66797 9.16797V10.8346L3.66889 11.3809L4.59776 13.5844L3.33464 15.0013L5.0013 16.668L6.49393 15.4516L8.66547 16.3449L9.16797 18.3346H10.8346L11.3384 16.3456L13.5472 15.4309C13.9154 15.694 15.0013 16.668 15.0013 16.668L16.668 15.0013L15.4312 13.5425L16.3462 11.333L18.3345 10.8156L18.3346 9.16797L16.3533 8.66413Z" stroke="#777777" stroke-width="1.25" stroke-linecap="round" stroke-linejoin="round"/>
</svg>
