<svg width="16" height="16" viewBox="0 0 16 16" fill="none" xmlns="http://www.w3.org/2000/svg">
<path d="M5.9779 11.9585C6.32308 11.9585 6.6029 11.6787 6.6029 11.3335C6.6029 10.9883 6.32308 10.7085 5.9779 10.7085V11.9585ZM2 10.7085C1.65482 10.7085 1.375 10.9883 1.375 11.3335C1.375 11.6787 1.65482 11.9585 2 11.9585L2 10.7085ZM5.9779 10.7085L2 10.7085L2 11.9585L5.9779 11.9585V10.7085Z" fill="#color"/>
<path d="M14 5.29175C14.3452 5.29175 14.625 5.01193 14.625 4.66675C14.625 4.32157 14.3452 4.04175 14 4.04175V5.29175ZM10 4.04175C9.65482 4.04175 9.375 4.32157 9.375 4.66675C9.375 5.01193 9.65482 5.29175 10 5.29175V4.04175ZM14 4.04175H10V5.29175H14V4.04175Z" fill="#color"/>
<path d="M2.00625 5.29175C2.35143 5.29175 2.63125 5.01193 2.63125 4.66675C2.63125 4.32157 2.35143 4.04175 2.00625 4.04175L2.00625 5.29175ZM2 4.04175C1.65482 4.04175 1.375 4.32157 1.375 4.66675C1.375 5.01193 1.65482 5.29175 2 5.29175L2 4.04175ZM2.00625 4.04175H2L2 5.29175H2.00625L2.00625 4.04175Z" fill="#color"/>
<path d="M14.0063 11.9585C14.3514 11.9585 14.6313 11.6787 14.6313 11.3335C14.6313 10.9883 14.3514 10.7085 14.0063 10.7085L14.0063 11.9585ZM14 10.7085C13.6548 10.7085 13.375 10.9883 13.375 11.3335C13.375 11.6787 13.6548 11.9585 14 11.9585L14 10.7085ZM14.0063 10.7085H14L14 11.9585H14.0063L14.0063 10.7085Z" fill="#color"/>
<path d="M9.9577 9.3335C11.0562 9.3335 11.9467 10.2289 11.9467 11.3335C11.9467 12.4381 11.0562 13.3335 9.9577 13.3335C8.85923 13.3335 7.96875 12.4381 7.96875 11.3335C7.96875 10.2289 8.85923 9.3335 9.9577 9.3335Z" stroke="#color" stroke-width="1.25"/>
<path d="M5.98114 2.66675C7.0796 2.66675 7.97009 3.56218 7.97009 4.66675C7.97009 5.77132 7.0796 6.66675 5.98114 6.66675C4.88267 6.66675 3.99219 5.77132 3.99219 4.66675C3.99219 3.56218 4.88267 2.66675 5.98114 2.66675Z" stroke="#color" stroke-width="1.25"/>
</svg>
