<svg width="48" height="48" viewBox="0 0 48 48" fill="none" xmlns="http://www.w3.org/2000/svg">
<g clip-path="url(#clip0_13432_230128)">
<g filter="url(#filter0_f_13432_230128)">
<mask id="path-1-inside-1_13432_230128" fill="white">
<path d="M10 24.0002C10 31.7324 16.2678 38.0002 24 38.0002C31.7322 38.0002 38 31.7324 38 24.0002C38 16.268 31.7322 10.0002 24 10.0002C16.2678 10.0002 10 16.268 10 24.0002Z"/>
<path d="M25.4 10.0702C25.4 10.0702 29.6 15.6002 29.6 24.0002C29.6 32.4002 25.4 37.9302 25.4 37.9302M22.6 37.9302C22.6 37.9302 18.4 32.4002 18.4 24.0002C18.4 15.6002 22.6 10.0702 22.6 10.0702M10.882 28.9002H37.118H10.882ZM10.882 19.1002H37.118H10.882Z"/>
</mask>
<path d="M3 24.0002C3 35.5984 12.4018 45.0002 24 45.0002V31.0002C20.1338 31.0002 17 27.8664 17 24.0002H3ZM24 45.0002C35.5982 45.0002 45 35.5984 45 24.0002H31C31 27.8664 27.8662 31.0002 24 31.0002V45.0002ZM45 24.0002C45 12.402 35.5982 3.00018 24 3.00018V17.0002C27.8662 17.0002 31 20.134 31 24.0002H45ZM24 3.00018C12.4018 3.00018 3 12.402 3 24.0002H17C17 20.134 20.1338 17.0002 24 17.0002V3.00018ZM25.4 10.0702C19.8255 14.304 19.824 14.302 19.8225 14.3001C19.8221 14.2994 19.8206 14.2975 19.8196 14.2962C19.8177 14.2937 19.8159 14.2913 19.8141 14.289C19.8106 14.2843 19.8073 14.2799 19.8042 14.2758C19.7981 14.2677 19.793 14.2607 19.7887 14.255C19.7803 14.2436 19.7755 14.2371 19.7742 14.2353C19.7716 14.2317 19.7828 14.2471 19.8059 14.2807C19.8521 14.3482 19.945 14.4876 20.0699 14.6936C20.321 15.108 20.6921 15.7766 21.0732 16.6593C21.8405 18.437 22.6 20.9689 22.6 24.0002H36.6C36.6 18.6315 35.2595 14.1983 33.9268 11.111C33.2579 9.56131 32.579 8.32234 32.0426 7.43738C31.7738 6.99373 31.5385 6.63541 31.3551 6.36771C31.2633 6.23373 31.1842 6.12208 31.1201 6.03341C31.0881 5.98906 31.0597 5.95042 31.0354 5.91757C31.0232 5.90114 31.012 5.88615 31.0018 5.87262C30.9968 5.86586 30.9919 5.85945 30.9874 5.85341C30.9851 5.8504 30.9829 5.84747 30.9807 5.84463C30.9797 5.84321 30.9781 5.84115 30.9776 5.84044C30.976 5.8384 30.9745 5.83639 25.4 10.0702ZM22.6 24.0002C22.6 27.0315 21.8405 29.5633 21.0732 31.341C20.6921 32.2238 20.321 32.8923 20.0699 33.3068C19.945 33.5128 19.8521 33.6521 19.8059 33.7197C19.7828 33.7533 19.7716 33.7687 19.7742 33.7651C19.7755 33.7633 19.7803 33.7567 19.7887 33.7453C19.793 33.7396 19.7981 33.7327 19.8042 33.7245C19.8073 33.7205 19.8106 33.7161 19.8141 33.7114C19.8159 33.7091 19.8177 33.7066 19.8196 33.7041C19.8206 33.7029 19.8221 33.7009 19.8225 33.7003C19.824 33.6984 19.8255 33.6964 25.4 37.9302C30.9745 42.164 30.976 42.162 30.9776 42.1599C30.9781 42.1592 30.9797 42.1572 30.9807 42.1557C30.9829 42.1529 30.9851 42.15 30.9874 42.147C30.9919 42.1409 30.9968 42.1345 31.0018 42.1277C31.012 42.1142 31.0232 42.0992 31.0354 42.0828C31.0597 42.0499 31.0881 42.0113 31.1201 41.967C31.1842 41.8783 31.2633 41.7666 31.3551 41.6327C31.5385 41.365 31.7738 41.0066 32.0426 40.563C32.579 39.678 33.2579 38.4391 33.9268 36.8894C35.2595 33.802 36.6 29.3689 36.6 24.0002H22.6ZM22.6 37.9302C28.1745 33.6964 28.176 33.6984 28.1775 33.7003C28.1779 33.7009 28.1794 33.7029 28.1804 33.7041C28.1823 33.7066 28.1841 33.7091 28.1859 33.7114C28.1894 33.7161 28.1927 33.7205 28.1958 33.7245C28.2019 33.7327 28.207 33.7396 28.2113 33.7453C28.2197 33.7567 28.2245 33.7633 28.2258 33.7651C28.2284 33.7687 28.2172 33.7533 28.1941 33.7197C28.1479 33.6521 28.055 33.5128 27.9301 33.3068C27.679 32.8923 27.3079 32.2238 26.9268 31.341C26.1595 29.5633 25.4 27.0315 25.4 24.0002H11.4C11.4 29.3689 12.7405 33.802 14.0732 36.8894C14.7421 38.4391 15.421 39.678 15.9574 40.563C16.2262 41.0066 16.4615 41.365 16.6449 41.6327C16.7367 41.7666 16.8158 41.8783 16.8799 41.967C16.9119 42.0113 16.9403 42.0499 16.9646 42.0828C16.9768 42.0992 16.988 42.1142 16.9982 42.1277C17.0032 42.1345 17.0081 42.1409 17.0126 42.147C17.0149 42.15 17.0171 42.1529 17.0193 42.1557C17.0203 42.1572 17.0219 42.1592 17.0224 42.1599C17.024 42.162 17.0255 42.164 22.6 37.9302ZM25.4 24.0002C25.4 20.9689 26.1595 18.437 26.9268 16.6593C27.3079 15.7766 27.679 15.108 27.9301 14.6936C28.055 14.4876 28.1479 14.3482 28.1941 14.2807C28.2172 14.2471 28.2284 14.2317 28.2258 14.2353C28.2245 14.2371 28.2197 14.2436 28.2113 14.255C28.207 14.2607 28.2019 14.2677 28.1958 14.2758C28.1927 14.2799 28.1894 14.2843 28.1859 14.289C28.1841 14.2913 28.1823 14.2937 28.1804 14.2962C28.1794 14.2975 28.1779 14.2994 28.1775 14.3001C28.176 14.302 28.1745 14.304 22.6 10.0702C17.0255 5.83639 17.024 5.8384 17.0224 5.84044C17.0219 5.84115 17.0203 5.84321 17.0193 5.84463C17.0171 5.84747 17.0149 5.8504 17.0126 5.85341C17.0081 5.85945 17.0032 5.86586 16.9982 5.87262C16.988 5.88615 16.9768 5.90114 16.9646 5.91757C16.9403 5.95042 16.9119 5.98906 16.8799 6.03341C16.8158 6.12208 16.7367 6.23373 16.6449 6.36771C16.4615 6.63541 16.2262 6.99373 15.9574 7.43738C15.421 8.32234 14.7421 9.56131 14.0732 11.111C12.7405 14.1983 11.4 18.6315 11.4 24.0002H25.4ZM10.882 35.9002H37.118V21.9002H10.882V35.9002ZM10.882 26.1002H37.118V12.1002H10.882V26.1002Z" fill="url(#paint0_radial_13432_230128)" mask="url(#path-1-inside-1_13432_230128)"/>
</g>
<g filter="url(#filter1_f_13432_230128)">
<path d="M10 24.0002C10 31.7324 16.2678 38.0002 24 38.0002C31.7322 38.0002 38 31.7324 38 24.0002C38 16.268 31.7322 10.0002 24 10.0002C16.2678 10.0002 10 16.268 10 24.0002Z" fill="black"/>
<path d="M25.4 10.0702C25.4 10.0702 29.6 15.6002 29.6 24.0002C29.6 32.4002 25.4 37.9302 25.4 37.9302M22.6 37.9302C22.6 37.9302 18.4 32.4002 18.4 24.0002C18.4 15.6002 22.6 10.0702 22.6 10.0702M10.882 28.9002H37.118H10.882ZM10.882 19.1002H37.118H10.882Z" fill="black"/>
</g>
<path d="M25.4 10.0702C25.4 10.0702 29.6 15.6002 29.6 24.0002C29.6 32.4002 25.4 37.9302 25.4 37.9302M22.6 37.9302C22.6 37.9302 18.4 32.4002 18.4 24.0002C18.4 15.6002 22.6 10.0702 22.6 10.0702M10.882 28.9002H37.118M10.882 19.1002H37.118M10 24.0002C10 31.7324 16.2678 38.0002 24 38.0002C31.7322 38.0002 38 31.7324 38 24.0002C38 16.268 31.7322 10.0002 24 10.0002C16.2678 10.0002 10 16.268 10 24.0002Z" stroke="url(#paint1_radial_13432_230128)" stroke-width="1.37"/>
<path d="M25.4 10.0702C25.4 10.0702 29.6 15.6002 29.6 24.0002C29.6 32.4002 25.4 37.9302 25.4 37.9302M22.6 37.9302C22.6 37.9302 18.4 32.4002 18.4 24.0002C18.4 15.6002 22.6 10.0702 22.6 10.0702M10.882 28.9002H37.118M10.882 19.1002H37.118M10 24.0002C10 31.7324 16.2678 38.0002 24 38.0002C31.7322 38.0002 38 31.7324 38 24.0002C38 16.268 31.7322 10.0002 24 10.0002C16.2678 10.0002 10 16.268 10 24.0002Z" stroke="url(#paint2_radial_13432_230128)" stroke-width="1.37"/>
</g>
<defs>
<filter id="filter0_f_13432_230128" x="-10" y="-9.99982" width="68" height="68" filterUnits="userSpaceOnUse" color-interpolation-filters="sRGB">
<feFlood flood-opacity="0" result="BackgroundImageFix"/>
<feBlend mode="normal" in="SourceGraphic" in2="BackgroundImageFix" result="shape"/>
<feGaussianBlur stdDeviation="10" result="effect1_foregroundBlur_13432_230128"/>
</filter>
<filter id="filter1_f_13432_230128" x="-88" y="-87.9998" width="224" height="224" filterUnits="userSpaceOnUse" color-interpolation-filters="sRGB">
<feFlood flood-opacity="0" result="BackgroundImageFix"/>
<feBlend mode="normal" in="SourceGraphic" in2="BackgroundImageFix" result="shape"/>
<feGaussianBlur stdDeviation="49" result="effect1_foregroundBlur_13432_230128"/>
</filter>
<radialGradient id="paint0_radial_13432_230128" cx="0" cy="0" r="1" gradientUnits="userSpaceOnUse" gradientTransform="translate(24 10.0002) rotate(90) scale(28)">
<stop offset="0.0859675" stop-color="white"/>
<stop offset="0.270032" stop-color="#646464"/>
<stop offset="0.894562" stop-opacity="0"/>
</radialGradient>
<radialGradient id="paint1_radial_13432_230128" cx="0" cy="0" r="1" gradientUnits="userSpaceOnUse" gradientTransform="translate(24 10.0002) rotate(90) scale(28)">
<stop stop-color="#FBFBFB"/>
<stop offset="0.484375" stop-color="#A0A0A0" stop-opacity="0.43"/>
<stop offset="0.604167" stop-color="#464646" stop-opacity="0.304422"/>
<stop offset="0.894562" stop-color="#282828" stop-opacity="0"/>
</radialGradient>
<radialGradient id="paint2_radial_13432_230128" cx="0" cy="0" r="1" gradientUnits="userSpaceOnUse" gradientTransform="translate(24 10.0002) rotate(90) scale(28)">
<stop offset="0.484375" stop-color="#ACACAC" stop-opacity="0"/>
<stop offset="1" stop-color="#656565"/>
</radialGradient>
<clipPath id="clip0_13432_230128">
<rect width="48" height="48" fill="white"/>
</clipPath>
</defs>
</svg>
