<svg viewBox="0 0 14 13" fill="none" xmlns="http://www.w3.org/2000/svg">
<path d="M6.66372 1.09359C6.80128 0.814873 7.19872 0.814871 7.33628 1.09359L8.55801 3.56909C8.79471 4.0487 9.25226 4.38113 9.78153 4.45804L12.5134 4.855C12.821 4.8997 12.9438 5.27768 12.7212 5.49464L10.7444 7.42155C10.3614 7.79487 10.1867 8.33275 10.2771 8.85989L10.7438 11.5807C10.7963 11.8871 10.4748 12.1207 10.1996 11.976L7.75618 10.6914C7.28278 10.4426 6.71722 10.4426 6.24382 10.6914L3.80035 11.976C3.52524 12.1207 3.2037 11.8871 3.25625 11.5807L3.72291 8.85989C3.81332 8.33274 3.63855 7.79487 3.25556 7.42155L1.27875 5.49464C1.05619 5.27769 1.179 4.8997 1.48658 4.855L4.21847 4.45804C4.74775 4.38113 5.20529 4.0487 5.44199 3.56909L6.66372 1.09359Z" stroke="#color" stroke-width="1.25"/>
</svg>
