<svg width="20" height="20" viewBox="0 0 20 20" fill="none" xmlns="http://www.w3.org/2000/svg">
<path d="M13.7241 2.91797H3.41406C3.28145 2.91797 3.15428 2.97065 3.06051 3.06442C2.96674 3.15818 2.91406 3.28536 2.91406 3.41797V11.5846C2.91406 11.7172 2.96674 11.8444 3.06051 11.9382C3.15428 12.032 3.28145 12.0846 3.41406 12.0846H5.72073C6.00854 12.0846 6.29145 12.1592 6.5419 12.301C6.79235 12.4428 7.00182 12.647 7.1499 12.8938L9.40823 16.658C9.57855 16.9423 9.84687 17.1545 10.1627 17.2548C10.4786 17.3552 10.8202 17.3366 11.1234 17.2027C11.4265 17.0688 11.6703 16.8287 11.8088 16.5277C11.9474 16.2266 11.9712 15.8853 11.8757 15.568L11.0241 12.728C11.0017 12.6534 10.9972 12.5746 11.0107 12.4979C11.0242 12.4212 11.0554 12.3488 11.1018 12.2863C11.1483 12.2238 11.2087 12.1731 11.2782 12.138C11.3478 12.103 11.4245 12.0847 11.5024 12.0846H15.3149C15.5712 12.0847 15.824 12.0256 16.0538 11.9121C16.2835 11.7985 16.484 11.6335 16.6396 11.4298C16.7952 11.2262 16.9017 10.9894 16.9509 10.7379C17.0001 10.4864 16.9906 10.2269 16.9232 9.97964L15.3316 4.1463C15.2355 3.79374 15.0261 3.48253 14.7358 3.26059C14.4455 3.03864 14.0903 2.91826 13.7249 2.91797H13.7241Z" stroke="#color" stroke-width="1.37333" stroke-linecap="round"/>
<path d="M5.83594 12.0846V2.91797" stroke="#color" stroke-width="1.37333" stroke-linecap="round" stroke-linejoin="round"/>
</svg>
