<svg viewBox="0 0 141 10" fill="none" xmlns="http://www.w3.org/2000/svg">
<path d="M139 5.00001L139.53 5.53034L140.061 5.00002L139.53 4.46968L139 5.00001ZM139 4.25001L7 4.25V5.75L139 5.75001V4.25001ZM139.53 4.46968L135.53 0.469671L134.47 1.53033L138.47 5.53034L139.53 4.46968ZM138.47 4.46968L134.47 8.46967L135.53 9.53033L139.53 5.53034L138.47 4.46968ZM4 7.25C2.75736 7.25 1.75 6.24264 1.75 5H0.25C0.25 7.07107 1.92893 8.75 4 8.75V7.25ZM6.25 5C6.25 6.24264 5.24264 7.25 4 7.25V8.75C6.07107 8.75 7.75 7.07107 7.75 5H6.25ZM4 2.75C5.24264 2.75 6.25 3.75736 6.25 5H7.75C7.75 2.92893 6.07107 1.25 4 1.25V2.75ZM4 1.25C1.92893 1.25 0.25 2.92893 0.25 5H1.75C1.75 3.75736 2.75736 2.75 4 2.75V1.25Z" fill="url(#paint0_linear_12831_213580)"/>
<defs>
<linearGradient id="paint0_linear_12831_213580" x1="1" y1="5" x2="139" y2="5" gradientUnits="userSpaceOnUse">
<stop stop-color="#5433FF"/>
<stop offset="0.5" stop-color="#20BDFF"/>
<stop offset="1" stop-color="#A5FECB"/>
</linearGradient>
</defs>
</svg>
