<svg viewBox="0 0 28 28" fill="none" xmlns="http://www.w3.org/2000/svg">
<path d="M13.9977 18.6668C16.575 18.6668 18.6644 16.5774 18.6644 14.0002C18.6644 11.4228 16.575 9.3335 13.9977 9.3335C11.4204 9.3335 9.33105 11.4228 9.33105 14.0002C9.33105 16.5774 11.4204 18.6668 13.9977 18.6668Z" stroke="#color" stroke-width="1.5" stroke-linecap="round" stroke-linejoin="round"/>
<path d="M24.5 8.57901V19.422C24.5 19.6762 24.3622 19.9103 24.14 20.0339L14.34 25.4782C14.1286 25.5957 13.8715 25.5957 13.6601 25.4782L3.86007 20.0339C3.63785 19.9103 3.50002 19.6762 3.50002 19.422L3.5 8.57901C3.5 8.32479 3.63783 8.09056 3.86006 7.9671L13.6601 2.52266C13.8715 2.40521 14.1286 2.40521 14.34 2.52266L24.14 7.9671C24.3621 8.09056 24.5 8.32479 24.5 8.57901Z" stroke="#color" stroke-width="1.5" stroke-linecap="round" stroke-linejoin="round"/>
<path d="M23.9154 8.49121L18.1987 11.6672M4.11523 8.50964L9.79874 11.6672L4.11523 8.50964Z" stroke="#color" stroke-width="1.5" stroke-linecap="round" stroke-linejoin="round"/>
<path d="M14 24.4998V18.6665" stroke="#color" stroke-width="1.5" stroke-linecap="round" stroke-linejoin="round"/>
</svg>
