<svg enable-background="new 0 0 683.1 680.74" viewBox="0 0 683.1 680.74" xmlns="http://www.w3.org/2000/svg"><g fill="#fff"><path d="m428.65 207.87c-.73-2.13-1.56-4.16-2.53-6.08 1.28 2.18 2.11 4.22 2.53 6.08z"/><path d="m340.78 11.76c-182.23.83-329.29 149.21-328.48 331.46.83 182.23 149.23 329.29 331.46 328.48 182.23-.83 329.29-149.21 328.48-331.44-.83-182.25-149.21-329.3-331.46-328.5zm-41.77 313.79c-32.6 0-59.02-26.4-59.02-58.99 0-32.57 26.42-58.99 59.02-58.99 32.57 0 58.99 26.42 58.99 58.99 0 32.6-26.42 58.99-58.99 58.99zm47.04 63.77.31-.38.33-.38c16.84 10.86 36.05 14.69 55.26 15.26 19.23.5 38.82-.95 58.09-4.83 19.25-4 38.18-9.91 56.46-17.46 10.27-4.23 20.46-8.85 30.18-14.29.07-.05.12-.07.19-.12 6.06-3.64 11.97-7.47 17.76-11.42 1.25-.9 2.48-1.84 3.69-2.81l.14.17.5.59c-14.83 13.51-32.5 23.54-50.48 32.38-18.17 8.56-37.11 15.56-56.67 20.63-19.49 5.04-39.86 8.85-60.46 6.98-20.26-1.8-41.65-8.89-55.3-24.32zm151.41-63.77c-.02-7.07 5.68-12.8 12.73-12.84 7.07-.02 12.8 5.65 12.84 12.73.02 7.05-5.68 12.82-12.73 12.84-7.04.02-12.79-5.68-12.84-12.73zm-101.07 316.49c-12.75-89.29 65.24-176.74 109.21-221.5 9.98-10.15 25.4-24.13 39.76-38.98 57.08-53.36 68.43-117.13-48.37-149.02-22.14-6.41-45.08-15.49-68.34-24.67-.73-2.13-1.56-4.16-2.53-6.08-2.67-4.59-7.33-9.89-14.41-15.9-15.19-13.18-43.71-12.82-68.34-7-27.23-6.41-54.1-8.68-79.9-2.51-112.97 31.13-131.14 86.24-135.54 152.62-5.98 71.74-9.49 125.2-36.64 186.3-33.9-48.89-53.88-108.19-54.14-172.2-.75-168.51 135.24-305.72 303.75-306.48s305.73 135.23 306.48 303.74c.69 150.51-107.77 276.09-250.99 301.68z"/><path d="m340.5 267.1c0 22.92-18.59 41.49-41.49 41.49-22.92 0-41.51-18.57-41.51-41.49s18.59-41.49 41.51-41.49c22.89.01 41.49 18.57 41.49 41.49z"/></g></svg>