<svg width="28" height="28" viewBox="0 0 28 28" fill="none" xmlns="http://www.w3.org/2000/svg">
<path d="M9.18005 5.42985H10.4488V22.4569H9.18005C7.15005 22.4569 5.54297 20.8393 5.54297 18.7961V9.09066C5.54297 7.04742 7.15005 5.42985 9.18005 5.42985Z" fill="url(#paint0_linear_15272_281410)"/>
<path fill-rule="evenodd" clip-rule="evenodd" d="M22.4609 18.881V9.0905C22.4609 7.04726 20.8538 5.42969 18.8238 5.42969H12.0572V22.5419H18.8238C20.8538 22.5419 22.4609 20.8392 22.4609 18.881ZM14.6776 14.7948H19.4989C20.0064 14.7948 20.3447 14.4543 20.3447 13.9434C20.3447 13.4326 20.0064 13.0921 19.4989 13.0921H14.6776C14.1701 13.0921 13.8318 13.4326 13.8318 13.9434C13.8318 14.4543 14.1701 14.7948 14.6776 14.7948ZM19.4989 19.6476H14.6776C14.1701 19.6476 13.8318 19.3071 13.8318 18.7963C13.8318 18.2855 14.1701 17.9449 14.6776 17.9449H19.4989C20.0064 17.9449 20.3447 18.2855 20.3447 18.7963C20.3447 19.3071 20.0064 19.6476 19.4989 19.6476ZM14.6776 9.94197H19.4989C20.0064 9.94197 20.3447 9.60143 20.3447 9.09061C20.3447 8.5798 20.0064 8.23926 19.4989 8.23926H14.6776C14.1701 8.23926 13.8318 8.5798 13.8318 9.09061C13.8318 9.60143 14.1701 9.94197 14.6776 9.94197Z" fill="url(#paint1_linear_15272_281410)"/>
<defs>
<linearGradient id="paint0_linear_15272_281410" x1="5.54297" y1="13.9858" x2="22.4609" y2="13.9858" gradientUnits="userSpaceOnUse">
<stop stop-color="#5433FF"/>
<stop offset="0.5" stop-color="#20BDFF"/>
<stop offset="1" stop-color="#A5FECB"/>
</linearGradient>
<linearGradient id="paint1_linear_15272_281410" x1="5.54297" y1="13.9858" x2="22.4609" y2="13.9858" gradientUnits="userSpaceOnUse">
<stop stop-color="#5433FF"/>
<stop offset="0.5" stop-color="#20BDFF"/>
<stop offset="1" stop-color="#A5FECB"/>
</linearGradient>
</defs>
</svg>
