<svg viewBox="0 0 28 28" fill="none" xmlns="http://www.w3.org/2000/svg">
<path d="M13.125 10.8889C13.125 8.81481 11.4625 7 9.275 7C9.275 7 9.275 7 9.1875 7H6.825C5.5125 7 4.375 8.03704 4.375 9.41972V18.5803C4.375 19.8766 5.5125 21 6.825 21H13.125V10.8889Z" fill="url(#paint0_linear_10215_169825)"/>
<path d="M21.2351 7H18.8501C18.8501 7 18.8501 7 18.7617 7C16.5534 7 14.875 8.82608 14.875 10.9131V21H21.1468C22.5602 21 23.6202 19.9565 23.6202 18.5652V9.43477C23.7085 8.04348 22.5602 7 21.2351 7Z" fill="url(#paint1_linear_10215_169825)"/>
<defs>
<linearGradient id="paint0_linear_10215_169825" x1="4.375" y1="14" x2="23.625" y2="14" gradientUnits="userSpaceOnUse">
<stop stop-color="#5433FF"/>
<stop offset="0.5" stop-color="#20BDFF"/>
<stop offset="1" stop-color="#A5FECB"/>
</linearGradient>
<linearGradient id="paint1_linear_10215_169825" x1="4.375" y1="14" x2="23.625" y2="14" gradientUnits="userSpaceOnUse">
<stop stop-color="#5433FF"/>
<stop offset="0.5" stop-color="#20BDFF"/>
<stop offset="1" stop-color="#A5FECB"/>
</linearGradient>
</defs>
</svg>
