<svg width="20" height="20" viewBox="0 0 20 20" fill="none" xmlns="http://www.w3.org/2000/svg">
<path d="M4.16406 12.4997L3.66406 17.4997M7.4974 6.24967L13.3307 9.58301M4.16406 12.4997L4.95573 3.78801C4.96697 3.66363 5.02434 3.54797 5.11657 3.46377C5.20879 3.37956 5.32918 3.33292 5.45406 3.33301H16.9499C17.0194 3.33296 17.0881 3.34739 17.1517 3.37539C17.2153 3.40338 17.2724 3.44433 17.3193 3.49561C17.3661 3.54689 17.4018 3.60738 17.424 3.67322C17.4462 3.73906 17.4545 3.8088 17.4482 3.87801L16.7057 12.0447C16.6945 12.169 16.6371 12.2847 16.5449 12.3689C16.4527 12.4531 16.3323 12.4998 16.2074 12.4997H4.16406Z" stroke="#color" stroke-width="1.25" stroke-linecap="round" stroke-linejoin="round"/>
</svg>
