<svg width="48" height="48" viewBox="0 0 48 48" fill="none" xmlns="http://www.w3.org/2000/svg">
<g clip-path="url(#clip0_13432_233233)">
<g filter="url(#filter0_f_13432_233233)">
<path d="M22 31V30.125C22 29.755 22.1426 29.4434 22.3292 29.2481C22.5084 29.0605 22.7016 29 22.8521 29H22.8612H22.8703H22.8793H22.8883H22.8973H22.9063H22.9153H22.9243H22.9332H22.9421H22.951H22.9599H22.9687H22.9776H22.9864H22.9952H23.004H23.0127H23.0215H23.0302H23.0389H23.0476H23.0563H23.065H23.0736H23.0822H23.0908H23.0994H23.108H23.1165H23.1251H23.1336H23.1421H23.1506H23.1591H23.1675H23.1759H23.1844H23.1928H23.2012H23.2095H23.2179H23.2262H23.2345H23.2428H23.2511H23.2594H23.2677H23.2759H23.2841H23.2923H23.3005H23.3087H23.3169H23.325H23.3331H23.3413H23.3494H23.3574H23.3655H23.3736H23.3816H23.3896H23.3976H23.4056H23.4136H23.4216H23.4295H23.4375H23.4454H23.4533H23.4612H23.4691H23.477H23.4848H23.4927H23.5005H23.5083H23.5161H23.5239H23.5316H23.5394H23.5471H23.5549H23.5626H23.5703H23.578H23.5857H23.5933H23.601H23.6086H23.6163H23.6239H23.6315H23.6391H23.6466H23.6542H23.6618H23.6693H23.6768H23.6844H23.6919H23.6993H23.7068H23.7143H23.7218H23.7292H23.7366H23.7441H23.7515H23.7589H23.7663H23.7736H23.781H23.7884H23.7957H23.803H23.8104H23.8177H23.825H23.8323H23.8396H23.8468H23.8541H23.8613H23.8686H23.8758H23.883H23.8902H23.8974H23.9046H23.9118H23.919H23.9261H23.9333H23.9404H23.9476H23.9547H23.9618H23.9689H23.976H23.9831H23.9902H23.9972H24.0043H24.0113H24.0184H24.0254H24.0324H24.0395H24.0465H24.0535H24.0605H24.0674H24.0744H24.0814H24.0883H24.0953H24.1022H24.1092H24.1161H24.123H24.1299H24.1368H24.1437H24.1506H24.1575H24.1644H24.1713H24.1781H24.185H24.1918H24.1987H24.2055H24.2123H24.2192H24.226H24.2328H24.2396H24.2464H24.2532H24.26H24.2668H24.2735H24.2803H24.2871H24.2938H24.3006H24.3073H24.314H24.3208H24.3275H24.3342H24.341H24.3477H24.3544H24.3611H24.3678H24.3745H24.3812H24.3878H24.3945H24.4012H24.4079H24.4145H24.4212H24.4278H24.4345H24.4412H24.4478H24.4544H24.4611H24.4677H24.4743H24.481H24.4876H24.4942H24.5008H24.5074H24.514H24.5206H24.5272H24.5338H24.5404H24.547H24.5536H24.5602H24.5668H24.5734H24.58H24.5865H24.5931H24.5997H24.6063H24.6128H24.6194H24.626H24.6325H24.6391H24.6456H24.6522H24.6587H24.6653H24.6719H24.6784H24.6849H24.6915H24.698H24.7046H24.7111H24.7177H24.7242H24.7308H24.7373H24.7438H24.7504H24.7569H24.7635H24.77H24.7765H24.7831H24.7896H24.7961H24.8027H24.8092H24.8157H24.8223H24.8288H24.8354H24.8419H24.8484H24.855H24.8615H24.8681H24.8746H24.8811H24.8877H24.8942H24.9008H24.9073H24.9139H24.9204H24.927H24.9335H24.9401H24.9466H24.9532H24.9597H24.9663H24.9728H24.9794H24.986H24.9925H24.9991H25.0057H25.0122H25.0188H25.0254H25.032H25.0386H25.0452H25.0517H25.0583H25.0649H25.0715H25.0781H25.0847H25.0913H25.0979H25.1046H25.1112H25.1178H25.1244H25.131H25.1377H25.1443H25.1509H25.1576H25.1642H25.1709H25.1775H25.1842H25.1909H25.1975H25.2042H25.2109H25.2176H25.2242H25.2309H25.2376H25.2443H25.251H25.2577H25.2645H25.2712H25.2779H25.2846H25.2914H25.2981H25.3049H25.3116H25.3184H25.3251H25.3319H25.3387H25.3455H25.3522H25.359H25.3658H25.3726H25.3795H25.3863H25.3931H25.3999H25.4068H25.4136H25.4205H25.4273H25.4342H25.4411H25.4479H25.4548H25.4617H25.4686H25.4755H25.4825H25.4894H25.4963H25.5033H25.5102H25.5172H25.5241H25.5311H25.5381H25.545H25.552H25.559H25.5661H25.5731H25.5801H25.5871H25.5942H25.6012H25.6083H25.6154H25.6225H25.6295H25.6366H25.6438H25.6509H25.658H25.6651H25.6723H25.6794H25.6866H25.6938H25.7009H25.7081H25.7153H25.7226H25.7298H25.737H25.7443H25.7515H25.7588H25.766H25.7733H25.7806H25.7879H25.7952H25.8026H25.8099H25.8173H25.8246H25.832H25.8394H25.8468H25.8542H25.8616H25.869H25.8764H25.8839H25.8914H25.8988H25.9063H25.9138H25.9213H25.9288H25.9364H25.9439H25.9515H25.9591H25.9666H25.9742H25.9818H25.9895H25.9971H26.0047H26.0124H26.0201H26.0277H26.0354H26.0431H26.0509H26.0586H26.0664H26.0741H26.0819H26.0897H26.0975H26.1053H26.1131H26.121H26.1288H26.1367H26.1446H26.1525H26.1604H26.1683H26.1763H26.1842H26.1922H26.2002H26.2082H26.2162H26.2242H26.2323H26.2404H26.2484H26.2565H26.2646H26.2727H26.2809H26.289H26.2972H26.3054H26.3136H26.3218H26.33H26.3383H26.3465H26.3548H26.3631H26.3714H26.3797H26.3881H26.3964H26.4048H26.4132H26.4216H26.43H26.4385H26.4469H26.4554H26.4639H26.4724H26.4809H26.4895H26.498H26.5066H26.5152H26.5238H26.5325H26.5411H26.5498H26.5584H26.5671H26.5759H26.5846H26.5934H26.6021H26.6109C26.6409 29 26.6761 29.0003 26.7161 29.0006C27.4978 29.0073 30.1309 29.0299 32.4406 27.131C31.169 30.5582 27.8698 33.0002 24 33.0002C21.8564 33.0002 19.888 32.251 18.3422 31H22Z" stroke="url(#paint0_radial_13432_233233)" stroke-width="10"/>
</g>
<g filter="url(#filter1_f_13432_233233)">
<path d="M22.8521 24C23.739 24 24.5896 23.6313 25.2167 22.9749C25.8439 22.3185 26.1962 21.4283 26.1962 20.5C26.1962 19.5717 25.8439 18.6815 25.2167 18.0251C24.5896 17.3687 23.739 17 22.8521 17C21.9652 17 21.1146 17.3687 20.4875 18.0251C19.8604 18.6815 19.508 19.5717 19.508 20.5C19.508 21.4283 19.8604 22.3185 20.4875 22.9749C21.1146 23.6313 21.9652 24 22.8521 24Z" fill="black"/>
<path d="M24 38.0002C31.7322 38.0002 38 31.7324 38 24.0002C38 16.268 31.7322 10.0002 24 10.0002C16.2678 10.0002 10 16.268 10 24.0002C10 31.7324 16.2678 38.0002 24 38.0002Z" fill="black"/>
</g>
<path d="M17 31V30.125C17 28.5005 17.6166 26.9426 18.714 25.794C19.8115 24.6453 21.3 24 22.8521 24M22.8521 24C24.4042 24 25.1091 24 26.6109 24C28.1127 24 31 24 31 17.4371M22.8521 24C23.739 24 24.5896 23.6313 25.2167 22.9749C25.8439 22.3185 26.1962 21.4283 26.1962 20.5C26.1962 19.5717 25.8439 18.6815 25.2167 18.0251C24.5896 17.3687 23.739 17 22.8521 17C21.9652 17 21.1146 17.3687 20.4875 18.0251C19.8604 18.6815 19.508 19.5717 19.508 20.5C19.508 21.4283 19.8604 22.3185 20.4875 22.9749C21.1146 23.6313 21.9652 24 22.8521 24ZM24 38.0002C31.7322 38.0002 38 31.7324 38 24.0002C38 16.268 31.7322 10.0002 24 10.0002C16.2678 10.0002 10 16.268 10 24.0002C10 31.7324 16.2678 38.0002 24 38.0002Z" stroke="url(#paint1_radial_13432_233233)" stroke-width="1.37"/>
<path d="M17 31V30.125C17 28.5005 17.6166 26.9426 18.714 25.794C19.8115 24.6453 21.3 24 22.8521 24M22.8521 24C24.4042 24 25.1091 24 26.6109 24C28.1127 24 31 24 31 17.4371M22.8521 24C23.739 24 24.5896 23.6313 25.2167 22.9749C25.8439 22.3185 26.1962 21.4283 26.1962 20.5C26.1962 19.5717 25.8439 18.6815 25.2167 18.0251C24.5896 17.3687 23.739 17 22.8521 17C21.9652 17 21.1146 17.3687 20.4875 18.0251C19.8604 18.6815 19.508 19.5717 19.508 20.5C19.508 21.4283 19.8604 22.3185 20.4875 22.9749C21.1146 23.6313 21.9652 24 22.8521 24ZM24 38.0002C31.7322 38.0002 38 31.7324 38 24.0002C38 16.268 31.7322 10.0002 24 10.0002C16.2678 10.0002 10 16.268 10 24.0002C10 31.7324 16.2678 38.0002 24 38.0002Z" stroke="url(#paint2_radial_13432_233233)" stroke-width="1.37"/>
</g>
<defs>
<filter id="filter0_f_13432_233233" x="-10" y="-9.99976" width="68" height="68" filterUnits="userSpaceOnUse" color-interpolation-filters="sRGB">
<feFlood flood-opacity="0" result="BackgroundImageFix"/>
<feBlend mode="normal" in="SourceGraphic" in2="BackgroundImageFix" result="shape"/>
<feGaussianBlur stdDeviation="10" result="effect1_foregroundBlur_13432_233233"/>
</filter>
<filter id="filter1_f_13432_233233" x="-88" y="-87.9998" width="224" height="224" filterUnits="userSpaceOnUse" color-interpolation-filters="sRGB">
<feFlood flood-opacity="0" result="BackgroundImageFix"/>
<feBlend mode="normal" in="SourceGraphic" in2="BackgroundImageFix" result="shape"/>
<feGaussianBlur stdDeviation="49" result="effect1_foregroundBlur_13432_233233"/>
</filter>
<radialGradient id="paint0_radial_13432_233233" cx="0" cy="0" r="1" gradientUnits="userSpaceOnUse" gradientTransform="translate(24 10.0002) rotate(90) scale(28)">
<stop offset="0.0859675" stop-color="#3B76FF"/>
<stop offset="0.270032" stop-color="#338BFF"/>
<stop offset="0.894562" stop-color="#5436FF" stop-opacity="0"/>
</radialGradient>
<radialGradient id="paint1_radial_13432_233233" cx="0" cy="0" r="1" gradientUnits="userSpaceOnUse" gradientTransform="translate(24 10.0002) rotate(90) scale(28)">
<stop stop-color="#2BC3FB"/>
<stop offset="0.484375" stop-color="#9EFBCE" stop-opacity="0.43"/>
<stop offset="0.894562" stop-color="#5338FF" stop-opacity="0"/>
</radialGradient>
<radialGradient id="paint2_radial_13432_233233" cx="0" cy="0" r="1" gradientUnits="userSpaceOnUse" gradientTransform="translate(24 10.0002) rotate(90) scale(28)">
<stop offset="0.484375" stop-color="#5338FF" stop-opacity="0"/>
<stop offset="1" stop-color="#465AFF"/>
</radialGradient>
<clipPath id="clip0_13432_233233">
<rect width="48" height="48" fill="white"/>
</clipPath>
</defs>
</svg>
