<svg  viewBox="0 0 46 46" fill="none" xmlns="http://www.w3.org/2000/svg">
<g filter="url(#filter0_f_10803_178349)">
<circle cx="23" cy="23" r="18.45" stroke="url(#paint0_linear_10803_178349)" stroke-width="0.9" style="mix-blend-mode:overlay"/>
</g>
<circle cx="23" cy="23" r="18.45" fill="black" fill-opacity="0.2"/>
<circle cx="23" cy="23" r="18.45" stroke="url(#paint1_linear_10803_178349)" stroke-width="0.9" style="mix-blend-mode:overlay"/>
<g filter="url(#filter1_f_10803_178349)">
<circle cx="23" cy="23" r="18.45" stroke="url(#paint2_linear_10803_178349)" stroke-width="0.9" style="mix-blend-mode:overlay"/>
</g>
<circle cx="23" cy="23" r="18.45" fill="black" fill-opacity="0.2"/>
<circle cx="23" cy="23" r="18.45" stroke="url(#paint3_linear_10803_178349)" stroke-width="0.9" style="mix-blend-mode:overlay"/>
<g filter="url(#filter2_f_10803_178349)">
<circle cx="23" cy="23" r="18.45" stroke="url(#paint4_linear_10803_178349)" stroke-width="0.9" style="mix-blend-mode:overlay"/>
</g>
<circle cx="23" cy="23" r="18.45" fill="black" fill-opacity="0.2"/>
<circle cx="23" cy="23" r="18.45" stroke="url(#paint5_linear_10803_178349)" stroke-width="0.9" style="mix-blend-mode:overlay"/>
<g filter="url(#filter3_f_10803_178349)">
<circle cx="23" cy="23" r="18.45" stroke="url(#paint6_linear_10803_178349)" stroke-width="0.9" style="mix-blend-mode:overlay"/>
</g>
<circle cx="23" cy="23" r="18.45" fill="url(#paint7_linear_10803_178349)"/>
<circle cx="23" cy="23" r="18.45" stroke="url(#paint8_linear_10803_178349)" stroke-width="0.9" style="mix-blend-mode:overlay"/>
<path d="M32.7061 15.4937C32.2437 15.9793 31.6025 16.2541 30.9321 16.2541C30.2616 16.2541 29.6204 15.9793 29.158 15.4937C28.5099 16.0246 28.1338 16.8181 28.1328 17.656V18.7057C28.1328 18.7985 28.1697 18.8876 28.2353 18.9532C28.3009 19.0188 28.3899 19.0557 28.4827 19.0557H33.3814C33.4742 19.0557 33.5632 19.0188 33.6288 18.9532C33.6944 18.8876 33.7313 18.7985 33.7313 18.7057V17.656C33.7304 16.8181 33.3542 16.0246 32.7061 15.4937Z" fill="url(#paint9_linear_10803_178349)"/>
<path d="M32.7061 15.4937C32.2437 15.9793 31.6025 16.2541 30.9321 16.2541C30.2616 16.2541 29.6204 15.9793 29.158 15.4937C28.5099 16.0246 28.1338 16.8181 28.1328 17.656V18.7057C28.1328 18.7985 28.1697 18.8876 28.2353 18.9532C28.3009 19.0188 28.3899 19.0557 28.4827 19.0557H33.3814C33.4742 19.0557 33.5632 19.0188 33.6288 18.9532C33.6944 18.8876 33.7313 18.7985 33.7313 18.7057V17.656C33.7304 16.8181 33.3542 16.0246 32.7061 15.4937Z" fill="black" fill-opacity="0.2"/>
<path d="M28.4767 19.7553C28.1983 19.7553 27.9312 19.6447 27.7344 19.4478C27.5376 19.251 27.427 18.9839 27.427 18.7056V17.6558C27.4273 16.608 27.8973 15.6155 28.7075 14.9511L28.746 14.9195H28.7461C28.5685 14.5756 28.476 14.1939 28.4767 13.8069C28.4778 13.6968 28.4859 13.5869 28.5012 13.4779C27.0027 12.605 25.3113 12.1169 23.5781 12.0574V22.411L30.8878 29.7206C32.1173 28.4097 32.9886 26.8042 33.4175 25.0587C33.8466 23.3133 33.8188 21.4868 33.3371 19.7553L28.4767 19.7553Z" fill="url(#paint10_linear_10803_178349)"/>
<path d="M28.4767 19.7553C28.1983 19.7553 27.9312 19.6447 27.7344 19.4478C27.5376 19.251 27.427 18.9839 27.427 18.7056V17.6558C27.4273 16.608 27.8973 15.6155 28.7075 14.9511L28.746 14.9195H28.7461C28.5685 14.5756 28.476 14.1939 28.4767 13.8069C28.4778 13.6968 28.4859 13.5869 28.5012 13.4779C27.0027 12.605 25.3113 12.1169 23.5781 12.0574V22.411L30.8878 29.7206C32.1173 28.4097 32.9886 26.8042 33.4175 25.0587C33.8466 23.3133 33.8188 21.4868 33.3371 19.7553L28.4767 19.7553Z" fill="black" fill-opacity="0.2"/>
<path d="M32.6787 13.8069C32.6787 14.7732 31.8955 15.5564 30.9292 15.5564C29.9629 15.5564 29.1797 14.7732 29.1797 13.8069C29.1797 12.8406 29.9629 12.0574 30.9292 12.0574C31.8955 12.0574 32.6787 12.8406 32.6787 13.8069Z" fill="url(#paint11_linear_10803_178349)"/>
<path d="M32.6787 13.8069C32.6787 14.7732 31.8955 15.5564 30.9292 15.5564C29.9629 15.5564 29.1797 14.7732 29.1797 13.8069C29.1797 12.8406 29.9629 12.0574 30.9292 12.0574C31.8955 12.0574 32.6787 12.8406 32.6787 13.8069Z" fill="black" fill-opacity="0.2"/>
<path d="M17.3077 29.4897C16.8453 29.9754 16.204 30.2502 15.5336 30.2502C14.8632 30.2502 14.2219 29.9754 13.7596 29.4897C13.1115 30.0207 12.7353 30.8142 12.7344 31.6521V32.7018C12.7344 32.7946 12.7712 32.8837 12.8368 32.9493C12.9025 33.0149 12.9915 33.0517 13.0843 33.0517H17.983C18.0757 33.0517 18.1648 33.0149 18.2304 32.9493C18.296 32.8837 18.3329 32.7946 18.3329 32.7018V31.6521C18.3319 30.8142 17.9558 30.0207 17.3077 29.4897Z" fill="url(#paint12_linear_10803_178349)"/>
<path d="M17.3077 29.4897C16.8453 29.9754 16.204 30.2502 15.5336 30.2502C14.8632 30.2502 14.2219 29.9754 13.7596 29.4897C13.1115 30.0207 12.7353 30.8142 12.7344 31.6521V32.7018C12.7344 32.7946 12.7712 32.8837 12.8368 32.9493C12.9025 33.0149 12.9915 33.0517 13.0843 33.0517H17.983C18.0757 33.0517 18.1648 33.0149 18.2304 32.9493C18.296 32.8837 18.3329 32.7946 18.3329 32.7018V31.6521C18.3319 30.8142 17.9558 30.0207 17.3077 29.4897Z" fill="black" fill-opacity="0.2"/>
<path d="M17.2803 27.8032C17.2803 28.7695 16.4971 29.5528 15.5308 29.5528C14.5645 29.5528 13.7812 28.7695 13.7812 27.8032C13.7812 26.8369 14.5645 26.0537 15.5308 26.0537C16.4971 26.0537 17.2803 26.8369 17.2803 27.8032Z" fill="url(#paint13_linear_10803_178349)"/>
<path d="M17.2803 27.8032C17.2803 28.7695 16.4971 29.5528 15.5308 29.5528C14.5645 29.5528 13.7812 28.7695 13.7812 27.8032C13.7812 26.8369 14.5645 26.0537 15.5308 26.0537C16.4971 26.0537 17.2803 26.8369 17.2803 27.8032Z" fill="black" fill-opacity="0.2"/>
<path d="M22.8803 22.5545V12.0574C20.6243 12.133 18.453 12.9337 16.6879 14.3407C14.9229 15.7478 13.6586 17.6863 13.0823 19.8688C12.5059 22.0512 12.6485 24.3612 13.4886 26.4562C13.8782 25.8668 14.503 25.4743 15.2032 25.3795C15.9031 25.2846 16.61 25.4965 17.1423 25.9609C17.6747 26.4253 17.9805 27.097 17.9815 27.8033C17.9821 28.1904 17.8896 28.572 17.712 28.916L17.7504 28.9475H17.7506C18.5608 29.6119 19.0309 30.6045 19.0312 31.6523V32.1771C20.9103 32.995 22.9877 33.2451 25.0075 32.8963C27.0272 32.5475 28.9004 31.6151 30.3961 30.2142L22.9817 22.803C22.9161 22.7371 22.8797 22.6476 22.8801 22.5547L22.8803 22.5545Z" fill="url(#paint14_linear_10803_178349)"/>
<path d="M22.8803 22.5545V12.0574C20.6243 12.133 18.453 12.9337 16.6879 14.3407C14.9229 15.7478 13.6586 17.6863 13.0823 19.8688C12.5059 22.0512 12.6485 24.3612 13.4886 26.4562C13.8782 25.8668 14.503 25.4743 15.2032 25.3795C15.9031 25.2846 16.61 25.4965 17.1423 25.9609C17.6747 26.4253 17.9805 27.097 17.9815 27.8033C17.9821 28.1904 17.8896 28.572 17.712 28.916L17.7504 28.9475H17.7506C18.5608 29.6119 19.0309 30.6045 19.0312 31.6523V32.1771C20.9103 32.995 22.9877 33.2451 25.0075 32.8963C27.0272 32.5475 28.9004 31.6151 30.3961 30.2142L22.9817 22.803C22.9161 22.7371 22.8797 22.6476 22.8801 22.5547L22.8803 22.5545Z" fill="black" fill-opacity="0.2"/>
<defs>
<filter id="filter0_f_10803_178349" x="0.501562" y="0.500098" width="44.9969" height="44.9998" filterUnits="userSpaceOnUse" color-interpolation-filters="sRGB">
<feFlood flood-opacity="0" result="BackgroundImageFix"/>
<feBlend mode="normal" in="SourceGraphic" in2="BackgroundImageFix" result="shape"/>
<feGaussianBlur stdDeviation="1.8" result="effect1_foregroundBlur_10803_178349"/>
</filter>
<filter id="filter1_f_10803_178349" x="0.501562" y="0.500098" width="44.9969" height="44.9998" filterUnits="userSpaceOnUse" color-interpolation-filters="sRGB">
<feFlood flood-opacity="0" result="BackgroundImageFix"/>
<feBlend mode="normal" in="SourceGraphic" in2="BackgroundImageFix" result="shape"/>
<feGaussianBlur stdDeviation="1.8" result="effect1_foregroundBlur_10803_178349"/>
</filter>
<filter id="filter2_f_10803_178349" x="0.501562" y="0.500098" width="44.9969" height="44.9998" filterUnits="userSpaceOnUse" color-interpolation-filters="sRGB">
<feFlood flood-opacity="0" result="BackgroundImageFix"/>
<feBlend mode="normal" in="SourceGraphic" in2="BackgroundImageFix" result="shape"/>
<feGaussianBlur stdDeviation="1.8" result="effect1_foregroundBlur_10803_178349"/>
</filter>
<filter id="filter3_f_10803_178349" x="0.501562" y="0.500098" width="44.9969" height="44.9998" filterUnits="userSpaceOnUse" color-interpolation-filters="sRGB">
<feFlood flood-opacity="0" result="BackgroundImageFix"/>
<feBlend mode="normal" in="SourceGraphic" in2="BackgroundImageFix" result="shape"/>
<feGaussianBlur stdDeviation="1.8" result="effect1_foregroundBlur_10803_178349"/>
</filter>
<linearGradient id="paint0_linear_10803_178349" x1="5.9" y1="9.05" x2="43.25" y2="37.85" gradientUnits="userSpaceOnUse">
<stop stop-color="#4B4DFF"/>
<stop offset="1" stop-color="#00BAE1"/>
</linearGradient>
<linearGradient id="paint1_linear_10803_178349" x1="5.9" y1="9.05" x2="43.25" y2="37.85" gradientUnits="userSpaceOnUse">
<stop stop-color="white"/>
<stop offset="1" stop-color="#53E1FF"/>
</linearGradient>
<linearGradient id="paint2_linear_10803_178349" x1="5.9" y1="9.05" x2="43.25" y2="37.85" gradientUnits="userSpaceOnUse">
<stop stop-color="#4B4DFF"/>
<stop offset="1" stop-color="#00BAE1"/>
</linearGradient>
<linearGradient id="paint3_linear_10803_178349" x1="5.9" y1="9.05" x2="43.25" y2="37.85" gradientUnits="userSpaceOnUse">
<stop stop-color="white"/>
<stop offset="1" stop-color="#53E1FF"/>
</linearGradient>
<linearGradient id="paint4_linear_10803_178349" x1="5.9" y1="9.05" x2="43.25" y2="37.85" gradientUnits="userSpaceOnUse">
<stop stop-color="#4B4DFF"/>
<stop offset="1" stop-color="#00BAE1"/>
</linearGradient>
<linearGradient id="paint5_linear_10803_178349" x1="5.9" y1="9.05" x2="43.25" y2="37.85" gradientUnits="userSpaceOnUse">
<stop stop-color="white"/>
<stop offset="1" stop-color="#53E1FF"/>
</linearGradient>
<linearGradient id="paint6_linear_10803_178349" x1="5.9" y1="9.05" x2="43.25" y2="37.85" gradientUnits="userSpaceOnUse">
<stop stop-color="#4B4DFF"/>
<stop offset="1" stop-color="#00BAE1"/>
</linearGradient>
<linearGradient id="paint7_linear_10803_178349" x1="23" y1="5" x2="22.8936" y2="46.5961" gradientUnits="userSpaceOnUse">
<stop/>
<stop offset="1" stop-opacity="0"/>
</linearGradient>
<linearGradient id="paint8_linear_10803_178349" x1="5.9" y1="9.05" x2="43.25" y2="37.85" gradientUnits="userSpaceOnUse">
<stop stop-color="white"/>
<stop offset="1" stop-color="#53E1FF"/>
</linearGradient>
<linearGradient id="paint9_linear_10803_178349" x1="28.1328" y1="17.2747" x2="33.7313" y2="17.2747" gradientUnits="userSpaceOnUse">
<stop stop-color="#5433FF"/>
<stop offset="0.5" stop-color="#20BDFF"/>
<stop offset="1" stop-color="#A5FECB"/>
</linearGradient>
<linearGradient id="paint10_linear_10803_178349" x1="23.5781" y1="20.889" x2="33.7201" y2="20.889" gradientUnits="userSpaceOnUse">
<stop stop-color="#5433FF"/>
<stop offset="0.5" stop-color="#20BDFF"/>
<stop offset="1" stop-color="#A5FECB"/>
</linearGradient>
<linearGradient id="paint11_linear_10803_178349" x1="29.1797" y1="13.8069" x2="32.6787" y2="13.8069" gradientUnits="userSpaceOnUse">
<stop stop-color="#5433FF"/>
<stop offset="0.5" stop-color="#20BDFF"/>
<stop offset="1" stop-color="#A5FECB"/>
</linearGradient>
<linearGradient id="paint12_linear_10803_178349" x1="12.7344" y1="31.2707" x2="18.3329" y2="31.2707" gradientUnits="userSpaceOnUse">
<stop stop-color="#5433FF"/>
<stop offset="0.5" stop-color="#20BDFF"/>
<stop offset="1" stop-color="#A5FECB"/>
</linearGradient>
<linearGradient id="paint13_linear_10803_178349" x1="13.7812" y1="27.8032" x2="17.2803" y2="27.8032" gradientUnits="userSpaceOnUse">
<stop stop-color="#5433FF"/>
<stop offset="0.5" stop-color="#20BDFF"/>
<stop offset="1" stop-color="#A5FECB"/>
</linearGradient>
<linearGradient id="paint14_linear_10803_178349" x1="12.7344" y1="22.5534" x2="30.3961" y2="22.5534" gradientUnits="userSpaceOnUse">
<stop stop-color="#5433FF"/>
<stop offset="0.5" stop-color="#20BDFF"/>
<stop offset="1" stop-color="#A5FECB"/>
</linearGradient>
</defs>
</svg>
