<svg viewBox="0 0 28 28" fill="none" xmlns="http://www.w3.org/2000/svg">
<path d="M3.5 23.8002V17.0335C3.5 16.6469 3.8134 16.3335 4.2 16.3335H10.9667C11.3533 16.3335 11.6667 16.6469 11.6667 17.0335V23.8002C11.6667 24.1868 11.3533 24.5002 10.9667 24.5002H4.2C3.8134 24.5002 3.5 24.1868 3.5 23.8002Z" stroke="#color" stroke-width="1.5"/>
<path d="M16.3311 10.9667V4.2C16.3311 3.8134 16.6444 3.5 17.0311 3.5H23.7977C24.1844 3.5 24.4977 3.8134 24.4977 4.2V10.9667C24.4977 11.3533 24.1844 11.6667 23.7977 11.6667H17.0311C16.6444 11.6667 16.3311 11.3533 16.3311 10.9667Z" stroke="#color" stroke-width="1.5"/>
<path d="M3.5 10.9667V4.2C3.5 3.8134 3.8134 3.5 4.2 3.5H10.9667C11.3533 3.5 11.6667 3.8134 11.6667 4.2V10.9667C11.6667 11.3533 11.3533 11.6667 10.9667 11.6667H4.2C3.8134 11.6667 3.5 11.3533 3.5 10.9667Z" stroke="#color" stroke-width="1.5"/>
<circle cx="20.3438" cy="20.3438" r="3.84375" stroke="#color" stroke-width="1.5"/>
</svg>
