<svg width="20" height="20" viewBox="0 0 20 20" fill="none" xmlns="http://www.w3.org/2000/svg">
<path d="M8.0006 7.24969C8.0006 6.14512 8.896 5.24969 10.0006 5.24969C11.1052 5.24969 12.0006 6.14512 12.0006 7.24969C12.0006 8.35431 11.1052 9.24969 10.0006 9.24969C8.89599 9.24969 8.0006 8.35431 8.0006 7.24969Z" fill="#999999"/>
<path fill-rule="evenodd" clip-rule="evenodd" d="M0.833984 9.99967C0.833984 4.93706 4.93804 0.833008 10.0007 0.833008C15.0632 0.833008 19.1673 4.93706 19.1673 9.99967C19.1673 11.9328 18.5689 13.7262 17.5472 15.2047C17.5447 15.2019 17.5421 15.1991 17.5395 15.1963C17.4594 15.1093 17.3438 14.9913 17.1907 14.8528C16.8846 14.5759 16.4282 14.2168 15.8059 13.8612C14.5565 13.1471 12.6577 12.458 10.0006 12.458C7.34355 12.458 5.44468 13.1471 4.19536 13.8612C3.5731 14.2168 3.11671 14.5759 2.81057 14.8528C2.65751 14.9913 2.5419 15.1093 2.46175 15.1963C2.45915 15.1991 2.45659 15.2019 2.45406 15.2047C1.43239 13.7262 0.833984 11.9328 0.833984 9.99967ZM10.0006 3.74969C8.06755 3.74969 6.5006 5.31671 6.5006 7.24969C6.5006 9.18273 8.06756 10.7497 10.0006 10.7497C11.9336 10.7497 13.5006 9.18273 13.5006 7.24969C13.5006 5.31671 11.9336 3.74969 10.0006 3.74969Z" fill="#999999"/>
<path d="M3.41522 16.3762C5.08158 18.0968 7.41621 19.1663 10.0007 19.1663C12.5851 19.1663 14.9197 18.0968 16.5861 16.3762C16.5546 16.3481 16.5252 16.3169 16.4981 16.2827L16.4893 16.2723C16.4796 16.2608 16.462 16.2405 16.4364 16.2127C16.3851 16.157 16.3017 16.0713 16.1844 15.9652C15.9499 15.753 15.5803 15.46 15.0616 15.1635C14.0288 14.5732 12.3852 13.958 10.0006 13.958C7.616 13.958 5.97241 14.5732 4.93968 15.1635C4.42092 15.46 4.0514 15.753 3.81686 15.9652C3.6996 16.0713 3.61619 16.157 3.5649 16.2127C3.53927 16.2405 3.52169 16.2608 3.51196 16.2723L3.50323 16.2827C3.47614 16.3169 3.44666 16.3481 3.41522 16.3762Z" fill="#999999"/>
</svg>
