<svg width="16" height="16" viewBox="0 0 16 16" fill="none" xmlns="http://www.w3.org/2000/svg">
<path d="M12.332 11.2668C11.8654 11.4001 11.332 11.4668 10.7987 11.4668H5.1987C4.66537 11.4668 4.13203 11.4001 3.66536 11.2668C3.3987 11.2001 3.1987 11.1334 2.9987 11.0001C2.73203 10.8668 2.53203 10.8001 2.33203 10.6001V12.3334C2.33203 13.6001 3.3987 14.6668 4.66537 14.6668H11.332C12.5987 14.6668 13.6654 13.6001 13.6654 12.3334V10.6001C13.4654 10.7334 13.1987 10.8668 12.9987 11.0001C12.7987 11.0668 12.532 11.2001 12.332 11.2668Z" fill="#color"/>
<path fill-rule="evenodd" clip-rule="evenodd" d="M3.53203 1.3335H12.4654C13.6654 1.3335 14.6654 2.3335 14.5987 3.5335V6.26683C14.5987 7.3335 14.132 8.3335 13.3987 9.06683C13.1987 9.26683 12.9987 9.46683 12.732 9.60016C12.132 9.9335 11.4654 10.1335 10.732 10.1335H5.1987C4.46537 10.1335 3.7987 9.9335 3.1987 9.60016C3.14304 9.55842 3.09029 9.51958 3.03983 9.48243C2.84855 9.3416 2.69029 9.22509 2.53203 9.06683C1.7987 8.40016 1.33203 7.40016 1.33203 6.26683V3.5335C1.33203 2.3335 2.33203 1.3335 3.53203 1.3335ZM6.33171 8.06673H9.66504C10.065 8.06673 10.3317 7.80007 10.3317 7.40007C10.3317 7.00007 10.065 6.7334 9.66504 6.7334H6.33171C5.99837 6.7334 5.66504 7.00007 5.66504 7.40007C5.66504 7.80007 5.93171 8.06673 6.33171 8.06673Z" fill="#color"/>
</svg>
