<svg viewBox="0 0 28 28" fill="none" xmlns="http://www.w3.org/2000/svg">
<path fill-rule="evenodd" clip-rule="evenodd" d="M17.7601 5.25C19.7726 5.25 21.3476 6.7375 21.5226 8.6625L22.8351 18.6375C22.9226 19.6875 22.5726 20.7375 21.8726 21.525C21.0851 22.3125 20.1226 22.75 19.0726 22.75H9.01009C7.96009 22.75 6.91009 22.3125 6.21009 21.525C5.51009 20.7375 5.16009 19.6875 5.24759 18.6375L6.47259 8.6625C6.64759 6.7375 8.22259 5.25 10.1476 5.25H17.7601ZM9.53555 9.0125C9.53555 11.4625 11.548 13.475 13.998 13.475C16.448 13.475 18.4605 11.4625 18.4605 9.0125C18.4605 8.4875 18.1105 8.1375 17.5855 8.1375C17.0605 8.1375 16.7105 8.4875 16.7105 9.0125C16.7105 10.5 15.4855 11.725 13.998 11.725C12.5105 11.725 11.2855 10.5 11.2855 9.0125C11.2855 8.4875 10.9355 8.1375 10.4105 8.1375C9.88555 8.1375 9.53555 8.4875 9.53555 9.0125Z" fill="url(#paint0_linear_10215_169840)"/>
<defs>
<linearGradient id="paint0_linear_10215_169840" x1="5.23438" y1="14" x2="22.8483" y2="14" gradientUnits="userSpaceOnUse">
<stop stop-color="#5433FF"/>
<stop offset="0.5" stop-color="#20BDFF"/>
<stop offset="1" stop-color="#A5FECB"/>
</linearGradient>
</defs>
</svg>
