<svg viewBox="0 0 28 28" fill="none" xmlns="http://www.w3.org/2000/svg">
<path d="M20.6498 10.0625V14C20.6498 16.5375 18.6373 18.55 16.0998 18.55H10.5873C10.3248 18.55 10.1498 18.55 9.97477 18.6375C10.1498 19.95 11.3748 21 12.7748 21H17.8498C18.3748 21 18.9873 21.175 19.4248 21.525L22.4873 23.7125C22.5748 23.8 22.7498 23.8 22.9248 23.8C23.0123 23.8 23.0998 23.8 23.2748 23.7125C23.5373 23.625 23.6248 23.3625 23.6248 23.1V13.0375C23.6248 11.375 22.3123 10.0625 20.6498 10.0625Z" fill="url(#paint0_linear_10215_169828)"/>
<path d="M10.5875 17.0625H16.1875C17.9375 17.0625 19.3375 15.6625 19.3375 13.9125V8.4C19.3375 6.65 17.9375 5.25 16.1875 5.25H7.525C5.775 5.25 4.375 6.65 4.375 8.4V19.5125C4.375 19.775 4.55 20.0375 4.725 20.125C4.8125 20.125 4.9875 20.125 5.075 20.125C5.25 20.125 5.3375 20.125 5.5125 20.0375L8.8375 17.675C9.1875 17.4125 9.5375 17.325 9.8875 17.15C10.0625 17.15 10.325 17.0625 10.5875 17.0625Z" fill="url(#paint1_linear_10215_169828)"/>
<defs>
<linearGradient id="paint0_linear_10215_169828" x1="4.375" y1="14.525" x2="23.6248" y2="14.525" gradientUnits="userSpaceOnUse">
<stop stop-color="#5433FF"/>
<stop offset="0.5" stop-color="#20BDFF"/>
<stop offset="1" stop-color="#A5FECB"/>
</linearGradient>
<linearGradient id="paint1_linear_10215_169828" x1="4.375" y1="14.525" x2="23.6248" y2="14.525" gradientUnits="userSpaceOnUse">
<stop stop-color="#5433FF"/>
<stop offset="0.5" stop-color="#20BDFF"/>
<stop offset="1" stop-color="#A5FECB"/>
</linearGradient>
</defs>
</svg>
