<svg width="16" height="16" viewBox="0 0 16 16" fill="none" xmlns="http://www.w3.org/2000/svg">
<path d="M11 6C11 5.20435 10.6839 4.44129 10.1213 3.87868C9.55871 3.31607 8.79565 3 8 3C7.20435 3 6.44129 3.31607 5.87868 3.87868C5.31607 4.44129 5 5.20435 5 6C5 9.5 3.5 10.5 3.5 10.5H12.5C12.5 10.5 11 9.5 11 6Z" stroke="#color" stroke-width="1.25" stroke-linecap="round" stroke-linejoin="round"/>
<path d="M8.86501 12.5C8.7771 12.6515 8.65093 12.7773 8.49912 12.8648C8.34731 12.9522 8.1752 12.9982 8.00001 12.9982C7.82482 12.9982 7.6527 12.9522 7.5009 12.8648C7.34909 12.7773 7.22291 12.6515 7.13501 12.5" stroke="#color" stroke-width="1.25" stroke-linecap="round" stroke-linejoin="round"/>
</svg>
