<svg viewBox="0 0 16 16" fill="none" xmlns="http://www.w3.org/2000/svg">
<path d="M2.125 12V11.3333H0.875V12H2.125ZM2.125 11.3333C2.125 9.86596 3.3831 8.625 5 8.625V7.375C2.75091 7.375 0.875 9.11884 0.875 11.3333H2.125ZM5 8.625C6.61689 8.625 7.875 9.86596 7.875 11.3333H9.125C9.125 9.11884 7.24907 7.375 5 7.375V8.625ZM7.875 11.3333V12H9.125V11.3333H7.875ZM5 8.625C6.43558 8.625 7.56944 7.43306 7.56944 6H6.31944C6.31944 6.77614 5.71226 7.375 5 7.375V8.625ZM7.56944 6C7.56944 4.56694 6.43558 3.375 5 3.375V4.625C5.71226 4.625 6.31944 5.22386 6.31944 6H7.56944ZM5 3.375C3.56443 3.375 2.43056 4.56694 2.43056 6H3.68056C3.68056 5.22386 4.28774 4.625 5 4.625V3.375ZM2.43056 6C2.43056 7.43306 3.56443 8.625 5 8.625V7.375C4.28774 7.375 3.68056 6.77614 3.68056 6H2.43056Z" fill="#A3A3A3"/>
<path d="M10.6429 8.98864C12.4631 8.98864 13.875 10.3711 13.875 12H15.125C15.125 9.61234 13.083 7.73864 10.6429 7.73864V8.98864ZM10.6429 8.98864C12.1821 8.98864 13.4107 7.72135 13.4107 6.18182H12.1607C12.1607 7.05232 11.4706 7.73864 10.6429 7.73864V8.98864ZM13.4107 6.18182C13.4107 4.64229 12.1821 3.375 10.6429 3.375V4.625C11.4706 4.625 12.1607 5.31131 12.1607 6.18182H13.4107ZM10.6429 3.375C9.10361 3.375 7.875 4.64229 7.875 6.18182H9.125C9.125 5.31131 9.8151 4.625 10.6429 4.625V3.375ZM7.875 6.18182C7.875 7.72135 9.10361 8.98864 10.6429 8.98864V7.73864C9.8151 7.73864 9.125 7.05232 9.125 6.18182H7.875Z" fill="#A3A3A3"/>
</svg>
