<svg viewBox="0 0 28 28" fill="none" xmlns="http://www.w3.org/2000/svg">
<path d="M21.6329 10.6381H20.7729C20.5356 8.97693 19.691 7.51197 18.4705 6.4797C18.4843 6.5137 18.492 6.55233 18.492 6.59251C18.492 6.75477 18.361 6.88612 18.1992 6.88612C18.0374 6.88612 17.9049 6.75477 17.9049 6.59251C17.9049 6.43025 18.0359 6.2989 18.1992 6.2989C18.2177 6.2989 18.2362 6.30199 18.2532 6.30353C17.1235 5.42425 15.7041 4.90039 14.163 4.90039C12.6218 4.90039 11.204 5.42425 10.0743 6.30353C10.0913 6.30044 10.1098 6.2989 10.1283 6.2989C10.2901 6.2989 10.4211 6.43025 10.4211 6.59251C10.4211 6.75477 10.2901 6.88612 10.1283 6.88612C9.96644 6.88612 9.8339 6.75477 9.8339 6.59251C9.8339 6.55233 9.84161 6.5137 9.85548 6.4797C9.61198 6.68523 9.38389 6.9093 9.17275 7.14728C9.06025 7.27399 8.95391 7.4038 8.85065 7.53978C8.1818 8.41752 7.72562 9.46834 7.55764 10.6119C7.55764 10.6134 7.55764 10.6134 7.55764 10.615C7.55609 10.6227 7.55455 10.6304 7.55455 10.6397H6.7809C6.51891 10.6397 6.30469 10.8545 6.30469 11.1187C6.30469 11.3814 6.51891 11.5962 6.7809 11.5962H7.58075V16.8967C7.58075 16.9183 7.58075 16.9399 7.58229 16.9616C7.58229 16.9662 7.58229 16.9693 7.58229 16.9739C7.58229 16.9956 7.58384 17.0156 7.58538 17.0373C7.58538 17.0419 7.58538 17.045 7.58538 17.0496C7.58692 17.0697 7.58846 17.0898 7.59 17.1099C7.59 17.1115 7.59 17.113 7.59 17.1161C7.59154 17.1377 7.59462 17.1578 7.59771 17.1794C7.59771 17.1841 7.59925 17.1887 7.59925 17.1934C7.60233 17.2134 7.60541 17.2335 7.60849 17.2536C7.60849 17.2583 7.61003 17.2613 7.61003 17.266C7.61312 17.2845 7.6162 17.3031 7.61928 17.3201C7.61928 17.3232 7.62082 17.3278 7.62082 17.3309C7.62545 17.351 7.62853 17.3695 7.63315 17.3896C7.63469 17.3958 7.63623 17.4004 7.63623 17.4066C7.64086 17.4252 7.64548 17.4452 7.65165 17.4638C7.65319 17.4684 7.65473 17.4731 7.65473 17.4761C7.65935 17.4931 7.66397 17.5086 7.6686 17.5241C7.67014 17.5302 7.67168 17.5349 7.67322 17.5395C7.67939 17.558 7.68555 17.575 7.69017 17.5936C7.69172 17.5998 7.6948 17.606 7.69634 17.6121C7.7025 17.6291 7.70867 17.6446 7.71483 17.6616C7.71791 17.6678 7.71946 17.6739 7.72254 17.6801C7.72716 17.694 7.73333 17.7079 7.73949 17.7219C7.74257 17.728 7.74565 17.7358 7.7472 17.7419C7.75336 17.7574 7.76107 17.7744 7.76877 17.7898C7.77185 17.7976 7.77494 17.8053 7.77956 17.8115C7.78572 17.8238 7.79035 17.8347 7.79651 17.847C7.80114 17.8578 7.80576 17.8671 7.81192 17.8779C7.81809 17.8887 7.82271 17.8996 7.82888 17.9104C7.8335 17.9181 7.83812 17.9274 7.84121 17.9351C7.84891 17.949 7.85662 17.9629 7.86432 17.9768C7.86895 17.9861 7.87511 17.9938 7.87973 18.0031C7.88436 18.0108 7.88898 18.0186 7.89515 18.0278C7.90439 18.0417 7.9121 18.0556 7.92134 18.0695C7.92597 18.0773 7.93059 18.0835 7.93522 18.0912C7.94138 18.1005 7.94754 18.1097 7.95371 18.1205C7.95833 18.1267 7.96141 18.1314 7.96604 18.1375C7.97683 18.1545 7.98916 18.17 8.00148 18.1854C8.00303 18.187 8.00457 18.1901 8.00611 18.1932C8.18334 18.4311 8.40835 18.6336 8.67496 18.7835L10.8742 20.0336V21.4229C10.8742 21.7968 11.0637 22.1353 11.3627 22.3315C11.3658 22.3331 11.3689 22.3362 11.372 22.3377C11.3781 22.3423 11.3858 22.347 11.392 22.3501L11.4074 22.3593C11.4136 22.3624 11.4197 22.3671 11.4259 22.3702C11.4321 22.3732 11.4382 22.3779 11.4444 22.381C11.449 22.3841 11.4552 22.3872 11.4598 22.3887C11.4721 22.3949 11.4829 22.4011 11.4953 22.4057C11.4983 22.4072 11.5014 22.4088 11.5045 22.4103C11.5137 22.415 11.523 22.4196 11.5322 22.4227C11.5369 22.4242 11.5415 22.4258 11.5446 22.4289C11.5538 22.432 11.5615 22.4351 11.5708 22.4397C11.5754 22.4412 11.58 22.4428 11.5846 22.4443C11.5939 22.4474 11.6031 22.4505 11.6124 22.4536C11.617 22.4551 11.6201 22.4567 11.6247 22.4582C11.6386 22.4629 11.6509 22.466 11.6648 22.4706C11.6709 22.4737 11.6786 22.4737 11.6848 22.4768L11.8235 22.5123L12.5062 21.5001L12.4477 22.6761L13.8347 23.0393L14.1476 21.854L14.4943 23.0408L15.8983 22.6746L15.8413 21.5264L16.5086 22.5154L16.6581 22.4768C17.1343 22.3532 17.4687 21.9205 17.4687 21.4244V20.0352L19.6679 18.785C20.346 18.3987 20.7668 17.6755 20.7668 16.8936V11.5931H21.6267C21.8718 11.5931 22.0738 11.3923 22.0738 11.145V11.0847C22.0798 10.8406 21.8795 10.6381 21.6329 10.6381ZM18.7879 7.2539C18.9498 7.2539 19.0823 7.38525 19.0823 7.54751C19.0823 7.70977 18.9513 7.84267 18.7879 7.84267C18.6261 7.84267 18.4951 7.71131 18.4951 7.54751C18.4936 7.38525 18.6261 7.2539 18.7879 7.2539ZM18.2008 8.28463C18.3626 8.28463 18.4936 8.41598 18.4936 8.57823C18.4936 8.67559 18.4458 8.76213 18.3734 8.81621L17.911 8.61841C17.9095 8.60451 17.9079 8.59214 17.9079 8.57823C17.9079 8.41598 18.0389 8.28463 18.2008 8.28463ZM17.6136 7.2539C17.7754 7.2539 17.9064 7.38525 17.9064 7.54751C17.9064 7.70977 17.7754 7.84112 17.6136 7.84112C17.4518 7.84112 17.3208 7.70977 17.3208 7.54597C17.3208 7.46252 17.3547 7.38834 17.4102 7.33426C17.4626 7.28635 17.535 7.2539 17.6136 7.2539ZM17.0264 6.29735C17.1882 6.29735 17.3208 6.4287 17.3208 6.59096C17.3208 6.75322 17.1898 6.88457 17.0264 6.88457C16.8646 6.88457 16.7336 6.75322 16.7336 6.59096C16.7336 6.4287 16.8646 6.29735 17.0264 6.29735ZM16.4408 5.48915C16.6026 5.48915 16.7336 5.62051 16.7336 5.78276C16.7336 5.94502 16.6026 6.07637 16.4408 6.07637C16.279 6.07637 16.1464 5.94502 16.1464 5.78276C16.1464 5.62051 16.2774 5.48915 16.4408 5.48915ZM16.7336 7.54751C16.7336 7.70977 16.6026 7.84267 16.4408 7.84267C16.279 7.84267 16.1464 7.71131 16.1464 7.54751C16.1464 7.38525 16.2774 7.2539 16.4408 7.2539C16.6026 7.2539 16.7336 7.38525 16.7336 7.54751ZM15.8536 6.29735C16.0154 6.29735 16.1464 6.4287 16.1464 6.59096C16.1464 6.68677 16.1017 6.77176 16.0308 6.82431C15.9815 6.86294 15.9199 6.88457 15.8536 6.88457C15.7411 6.88457 15.6425 6.82121 15.5947 6.72695C15.5731 6.68677 15.5608 6.63887 15.5608 6.58942C15.5592 6.43025 15.6902 6.29735 15.8536 6.29735ZM15.3389 5.48915C15.5007 5.48915 15.6332 5.62051 15.6332 5.78276C15.6332 5.94502 15.5022 6.07637 15.3389 6.07637C15.1755 6.07637 15.0445 5.94502 15.0445 5.78276C15.0445 5.62051 15.177 5.48915 15.3389 5.48915ZM14.1645 5.48915C14.3263 5.48915 14.4573 5.62051 14.4573 5.78276C14.4573 5.94502 14.3263 6.07637 14.1645 6.07637C14.0027 6.07637 13.8717 5.94502 13.8717 5.78276C13.8717 5.62051 14.0027 5.48915 14.1645 5.48915ZM12.9177 5.48915C13.0795 5.48915 13.2105 5.62051 13.2105 5.78276C13.2105 5.94502 13.0795 6.07637 12.9177 6.07637C12.7559 6.07637 12.6249 5.94502 12.6249 5.78276C12.6249 5.62051 12.7559 5.48915 12.9177 5.48915ZM12.3306 6.29735C12.4924 6.29735 12.6249 6.4287 12.6249 6.59096C12.6249 6.65587 12.6033 6.71613 12.5679 6.76404C12.5139 6.83667 12.4292 6.88457 12.3321 6.88457C12.2859 6.88457 12.2412 6.87376 12.2026 6.85367C12.1055 6.80576 12.0393 6.70532 12.0393 6.59096C12.0377 6.43025 12.1687 6.29735 12.3306 6.29735ZM11.7449 5.48915C11.9067 5.48915 12.0377 5.62051 12.0377 5.78276C12.0377 5.94502 11.9067 6.07637 11.7449 6.07637C11.5831 6.07637 11.4521 5.94502 11.4521 5.78276C11.4521 5.62051 11.5816 5.48915 11.7449 5.48915ZM12.0377 7.54751C12.0377 7.70977 11.9067 7.84267 11.7449 7.84267C11.5831 7.84267 11.4521 7.71131 11.4521 7.54751C11.4521 7.38525 11.5831 7.2539 11.7449 7.2539C11.9067 7.2539 12.0377 7.38525 12.0377 7.54751ZM11.2302 6.29735C11.392 6.29735 11.523 6.4287 11.523 6.59096C11.523 6.75322 11.392 6.88457 11.2302 6.88457C11.0684 6.88457 10.9374 6.75322 10.9374 6.59096C10.9374 6.4287 11.0684 6.29735 11.2302 6.29735ZM11.2333 8.2939C11.2286 8.29235 11.2225 8.29081 11.2178 8.29081L10.9096 8.42216C10.962 8.34026 11.0529 8.28463 11.1577 8.28463C11.1778 8.28463 11.1978 8.28617 11.2178 8.29081C11.2225 8.29235 11.2286 8.29235 11.2333 8.2939ZM10.643 7.2539C10.7355 7.2539 10.8171 7.29717 10.8711 7.36207C10.9127 7.41307 10.9374 7.47797 10.9374 7.54751C10.9374 7.70977 10.8064 7.84267 10.6445 7.84267C10.4935 7.84267 10.3702 7.72986 10.3533 7.5846C10.3517 7.57224 10.3502 7.55987 10.3502 7.54751C10.3502 7.38525 10.4812 7.2539 10.643 7.2539ZM9.96798 8.82394C9.97877 8.83012 9.97877 8.83012 9.96798 8.82394C9.88938 8.7714 9.83698 8.68177 9.83698 8.57978C9.83698 8.41752 9.96798 8.28617 10.1313 8.28617C10.2932 8.28617 10.4242 8.41752 10.4242 8.57978C10.4242 8.59678 10.4134 8.66014 10.4195 8.63232L9.96798 8.82394ZM9.47019 7.2539C9.63201 7.2539 9.76301 7.38525 9.76301 7.54751C9.76301 7.70977 9.63201 7.84267 9.47019 7.84267C9.30837 7.84267 9.17738 7.71131 9.17738 7.54751C9.17583 7.38525 9.30837 7.2539 9.47019 7.2539ZM12.9809 16.909C12.9655 17.541 12.554 18.1947 10.7832 17.9212C7.24941 17.3757 8.85373 13.9652 9.46403 13.6175C9.48714 13.6051 9.50718 13.5959 9.52722 13.5928C9.53646 13.5912 9.54417 13.5897 9.55341 13.5866C9.5565 13.5866 9.55958 13.585 9.56266 13.585C9.56883 13.5835 9.57499 13.5835 9.58115 13.582C9.58424 13.582 9.58886 13.5804 9.59194 13.5804C9.59811 13.5804 9.60273 13.5789 9.60889 13.5789C9.61352 13.5789 9.6166 13.5789 9.62122 13.5773C9.62585 13.5773 9.63201 13.5758 9.63664 13.5758C9.64126 13.5758 9.64434 13.5758 9.64896 13.5758C9.65359 13.5758 9.65975 13.5758 9.66438 13.5742C9.669 13.5742 9.67362 13.5742 9.67671 13.5742C9.68133 13.5742 9.68749 13.5742 9.69212 13.5742C9.69674 13.5742 9.70136 13.5742 9.70599 13.5742C9.71061 13.5742 9.71677 13.5742 9.7214 13.5742C9.72602 13.5742 9.73065 13.5742 9.73527 13.5742C9.73989 13.5742 9.74606 13.5742 9.75068 13.5742C9.7553 13.5742 9.75993 13.5742 9.76455 13.5758C9.76917 13.5758 9.77534 13.5758 9.77996 13.5773C9.78458 13.5773 9.78921 13.5789 9.79383 13.5789C9.79846 13.5789 9.80462 13.5804 9.80924 13.5804C9.81387 13.5804 9.81849 13.582 9.82311 13.582C9.82774 13.582 9.8339 13.5835 9.83852 13.5835C9.84315 13.5835 9.84777 13.585 9.8524 13.585C9.85702 13.585 9.86318 13.5866 9.86781 13.5881C9.87243 13.5897 9.87705 13.5897 9.88168 13.5912C9.8863 13.5928 9.89247 13.5928 9.89709 13.5943C9.90171 13.5959 9.90633 13.5959 9.91096 13.5974C9.91712 13.599 9.92175 13.599 9.92637 13.6005C9.93099 13.602 9.93562 13.602 9.94024 13.6036C9.94641 13.6051 9.95103 13.6067 9.95565 13.6067C9.96028 13.6082 9.9649 13.6098 9.97106 13.6098C9.97569 13.6113 9.98185 13.6129 9.98647 13.6144C9.9911 13.616 9.99572 13.6175 10.0019 13.619C10.0065 13.6206 10.0127 13.6221 10.0188 13.6237C10.0235 13.6252 10.0281 13.6268 10.0343 13.6283C10.0404 13.6299 10.045 13.6314 10.0497 13.633C10.0543 13.6345 10.0604 13.636 10.0651 13.6376C10.0697 13.6391 10.0759 13.6407 10.082 13.6422C10.0866 13.6438 10.0913 13.6453 10.0974 13.6469C10.1036 13.6484 10.1082 13.65 10.1144 13.653C10.119 13.6546 10.1252 13.6561 10.1298 13.6577C10.136 13.6592 10.1406 13.6623 10.1468 13.6639C10.1514 13.6654 10.1575 13.667 10.1622 13.67C10.1683 13.6716 10.173 13.6747 10.1791 13.6762C10.1837 13.6778 10.1899 13.6793 10.1945 13.6824C10.2007 13.6839 10.2053 13.687 10.2115 13.6901C10.2161 13.6917 10.2207 13.6948 10.2269 13.6963C10.2331 13.6994 10.2392 13.7009 10.2438 13.704C10.2485 13.7056 10.2531 13.7087 10.2593 13.7102C10.2654 13.7133 10.2716 13.7149 10.2778 13.7179L10.2916 13.7241C10.2978 13.7272 10.304 13.7303 10.3101 13.7334C10.3147 13.7349 10.3194 13.738 10.324 13.7396C10.3301 13.7427 10.3363 13.7458 10.3425 13.7489C10.3471 13.7504 10.3517 13.7535 10.3563 13.755C10.3625 13.7581 10.3687 13.7612 10.3764 13.7643C10.381 13.7659 10.3856 13.7689 10.3887 13.7705C10.3964 13.7751 10.4041 13.7782 10.4118 13.7828C10.4149 13.7844 10.418 13.7859 10.4211 13.7875C10.4319 13.7937 10.4427 13.7998 10.4534 13.8045C10.4565 13.806 10.4596 13.8076 10.4627 13.8091C10.4704 13.8138 10.4781 13.8168 10.4858 13.8215C10.4904 13.8246 10.4951 13.8261 10.4997 13.8292C10.5058 13.8323 10.512 13.8369 10.5197 13.84C10.5243 13.8431 10.529 13.8462 10.5336 13.8478C10.5397 13.8508 10.5459 13.8555 10.5521 13.8586C10.5567 13.8617 10.5613 13.8647 10.5675 13.8678C10.5736 13.8709 10.5798 13.8756 10.586 13.8787C10.5906 13.8817 10.5968 13.8848 10.6014 13.8879C10.6076 13.891 10.6137 13.8957 10.6199 13.8987C10.6245 13.9018 10.6307 13.9049 10.6353 13.908C10.6415 13.9111 10.6476 13.9157 10.6522 13.9188C10.6569 13.9219 10.663 13.925 10.6677 13.9297C10.6738 13.9327 10.68 13.9374 10.6846 13.9405C10.6892 13.9436 10.6954 13.9467 10.7 13.9513C10.7062 13.9544 10.7124 13.959 10.717 13.9621C10.7216 13.9652 10.7278 13.9698 10.7324 13.9729C10.7386 13.976 10.7447 13.9806 10.7493 13.9837C10.754 13.9868 10.7601 13.9915 10.7648 13.9946C10.7709 13.9992 10.7755 14.0023 10.7817 14.0069C10.7863 14.01 10.7925 14.0146 10.7971 14.0177C10.8033 14.0224 10.8094 14.0255 10.8141 14.0301C10.8187 14.0332 10.8249 14.0378 10.8295 14.0409C10.8356 14.0456 10.8418 14.0486 10.8464 14.0533C10.8511 14.0564 10.8572 14.061 10.8618 14.0641C10.868 14.0687 10.8742 14.0718 10.8788 14.0765C10.8834 14.0795 10.8896 14.0842 10.8942 14.0873C10.9004 14.0919 10.9065 14.095 10.9112 14.0996C10.9173 14.1027 10.9219 14.1074 10.9266 14.112C10.9327 14.1166 10.9374 14.1213 10.9435 14.1244C10.9497 14.129 10.9543 14.1321 10.9589 14.1367C10.9651 14.1414 10.9697 14.146 10.9759 14.1491C10.9805 14.1537 10.9867 14.1568 10.9913 14.1615C10.9975 14.1661 11.0036 14.1707 11.0083 14.1754C11.0129 14.18 11.019 14.1831 11.0237 14.1877C11.0298 14.1924 11.036 14.197 11.0406 14.2016C11.0452 14.2063 11.0514 14.2094 11.056 14.214C11.0622 14.2186 11.0684 14.2233 11.073 14.2279C11.0776 14.2325 11.0838 14.2356 11.0884 14.2403C11.0946 14.2449 11.1007 14.2495 11.1053 14.2542C11.11 14.2588 11.1161 14.2619 11.1208 14.2665C11.1269 14.2712 11.1331 14.2758 11.1377 14.2804C11.1423 14.2851 11.147 14.2882 11.1531 14.2928C11.1593 14.2974 11.1654 14.3021 11.1716 14.3067C11.1762 14.3113 11.1809 14.3144 11.187 14.3191C11.1932 14.3237 11.1994 14.3283 11.204 14.333C11.2086 14.3376 11.2132 14.3407 11.2194 14.3453C11.2256 14.35 11.2317 14.3546 11.2363 14.3593C11.241 14.3639 11.2456 14.367 11.2518 14.3716C11.2579 14.3762 11.2641 14.3809 11.2702 14.3871C11.2749 14.3917 11.2795 14.3948 11.2841 14.3994C11.2903 14.4041 11.2964 14.4102 11.3026 14.4149C11.3072 14.418 11.3119 14.4226 11.3165 14.4257C11.3226 14.4319 11.3304 14.4365 11.3365 14.4427C11.3411 14.4458 11.3442 14.4489 11.3488 14.4535C11.3566 14.4597 11.3627 14.4659 11.3704 14.4721C11.3735 14.4751 11.3766 14.4782 11.3797 14.4813C11.4012 14.4999 11.4213 14.5184 11.4429 14.537C11.4459 14.5401 11.449 14.5416 11.4506 14.5447C11.4583 14.5509 11.466 14.5586 11.4737 14.5648C11.4768 14.5679 11.4814 14.571 11.4845 14.5756C11.4906 14.5818 11.4983 14.588 11.5045 14.5941C11.5091 14.5972 11.5122 14.6019 11.5168 14.605C11.523 14.6111 11.5292 14.6158 11.5353 14.622C11.5399 14.6266 11.5446 14.6297 11.5492 14.6343C11.5554 14.639 11.5615 14.6451 11.5661 14.6498C11.5708 14.6544 11.5754 14.659 11.58 14.6621C11.5862 14.6668 11.5908 14.6729 11.597 14.6776C11.6016 14.6822 11.6062 14.6869 11.6108 14.6899C11.617 14.6946 11.6216 14.7008 11.6278 14.7054C11.6324 14.71 11.637 14.7131 11.6417 14.7178C11.6478 14.7224 11.6524 14.7286 11.6586 14.7332C11.6632 14.7379 11.6679 14.7425 11.6725 14.7456C11.6786 14.7502 11.6833 14.7564 11.6894 14.761C11.6941 14.7657 11.6987 14.7703 11.7033 14.7734C11.7079 14.778 11.7141 14.7842 11.7187 14.7888C11.7233 14.7935 11.728 14.7966 11.7326 14.8012C11.7372 14.8058 11.7434 14.812 11.748 14.8167C11.7526 14.8213 11.7572 14.8259 11.7619 14.829C11.7665 14.8337 11.7727 14.8398 11.7773 14.8445C11.7819 14.8491 11.7865 14.8538 11.7896 14.8568C11.7942 14.8615 11.8004 14.8677 11.805 14.8723C11.8096 14.8769 11.8143 14.8816 11.8189 14.8862C11.8235 14.8908 11.8297 14.8955 11.8343 14.9017C11.8389 14.9063 11.8436 14.9094 11.8466 14.914C11.8513 14.9187 11.8574 14.9248 11.862 14.9295C11.8667 14.9341 11.8697 14.9372 11.8744 14.9418C11.879 14.9465 11.8852 14.9527 11.8898 14.9573C11.8944 14.9619 11.8975 14.965 11.9021 14.9696C11.9067 14.9743 11.9129 14.9805 11.9175 14.9851C11.9221 14.9897 11.9252 14.9928 11.9299 14.9975C11.9345 15.0021 11.9406 15.0083 11.9453 15.0129C11.9483 15.016 11.953 15.0206 11.9576 15.0253C11.9622 15.0299 11.9684 15.0361 11.973 15.0407C11.9761 15.0438 11.9807 15.0485 11.9838 15.0515C11.9884 15.0577 11.9946 15.0624 11.9992 15.067C12.0023 15.0701 12.0069 15.0747 12.01 15.0778C12.0146 15.0825 12.0208 15.0886 12.0254 15.0933C12.0285 15.0964 12.0331 15.101 12.0362 15.1041C12.0408 15.1087 12.0454 15.1149 12.0516 15.1195C12.0547 15.1226 12.0593 15.1273 12.0624 15.1304C12.067 15.135 12.0732 15.1412 12.0778 15.1458C12.0809 15.1489 12.084 15.1535 12.0886 15.1566C12.0932 15.1613 12.0994 15.1674 12.104 15.1721C12.1071 15.1752 12.1117 15.1798 12.1148 15.1829C12.1194 15.1891 12.1256 15.1937 12.1302 15.1999C12.1333 15.203 12.1364 15.2061 12.1395 15.2092C12.1456 15.2154 12.1502 15.22 12.1549 15.2262C12.1579 15.2293 12.161 15.2324 12.1641 15.2354C12.1703 15.2416 12.1764 15.2478 12.1826 15.254C12.1841 15.2555 12.1872 15.2586 12.1888 15.2602C12.1965 15.2679 12.2026 15.2756 12.2103 15.2833C12.2119 15.2833 12.2119 15.2849 12.2134 15.2864C12.2288 15.3034 12.2442 15.3204 12.2597 15.3374C12.2597 15.3374 12.2612 15.3374 12.2612 15.339C12.2689 15.3467 12.2751 15.3544 12.2828 15.3622C12.2843 15.3637 12.2859 15.3652 12.2874 15.3668C12.2936 15.373 12.2997 15.3792 12.3044 15.3853C12.3059 15.3869 12.309 15.39 12.3105 15.3931C12.3151 15.3992 12.3213 15.4039 12.3259 15.4101C12.3275 15.4116 12.3306 15.4147 12.3321 15.4162C12.3367 15.4224 12.3429 15.4271 12.3475 15.4332C12.349 15.4363 12.3521 15.4379 12.3537 15.441C12.3583 15.4472 12.3629 15.4518 12.3675 15.4564C12.3706 15.4595 12.3722 15.4611 12.3752 15.4641C12.3799 15.4688 12.3845 15.4734 12.3891 15.4781C12.3922 15.4811 12.3937 15.4827 12.3968 15.4858C12.4014 15.4904 12.4061 15.4951 12.4107 15.5012C12.4122 15.5043 12.4153 15.5059 12.4169 15.509C12.4215 15.5136 12.4261 15.5182 12.4292 15.5229C12.4323 15.526 12.4338 15.5275 12.4353 15.5306C12.44 15.5352 12.4431 15.5399 12.4477 15.5445C12.4492 15.5476 12.4523 15.5491 12.4538 15.5522C12.4585 15.5569 12.4615 15.5615 12.4662 15.5661C12.4677 15.5692 12.4708 15.5708 12.4723 15.5739C12.477 15.5785 12.48 15.5831 12.4847 15.5878C12.4862 15.5893 12.4877 15.5924 12.4908 15.594C12.4955 15.5986 12.4985 15.6032 12.5032 15.6079C12.5047 15.6094 12.5062 15.6125 12.5093 15.614C12.5124 15.6187 12.517 15.6218 12.5201 15.6264C12.5217 15.6295 12.5247 15.631 12.5263 15.6341C12.5294 15.6388 12.5324 15.6419 12.5371 15.6465C12.5386 15.6496 12.5401 15.6511 12.5432 15.6527C12.5463 15.6573 12.5494 15.6604 12.554 15.665C12.5556 15.6666 12.5571 15.6697 12.5602 15.6712C12.5633 15.6759 12.5679 15.6789 12.571 15.6836C12.5725 15.6851 12.5741 15.6867 12.5756 15.6882C12.5787 15.6929 12.5833 15.6959 12.5864 15.7006C12.5879 15.7021 12.5895 15.7037 12.591 15.7052C12.5941 15.7083 12.5972 15.7129 12.6003 15.7176C12.6018 15.7191 12.6033 15.7207 12.6049 15.7222C12.608 15.7253 12.611 15.7299 12.6141 15.733C12.6157 15.7346 12.6172 15.7361 12.6172 15.7377C12.6203 15.7408 12.6234 15.7454 12.6265 15.7485C12.628 15.75 12.628 15.7516 12.6295 15.7531C12.6326 15.7578 12.6357 15.7608 12.6403 15.7655L12.6419 15.767C12.6449 15.7717 12.6496 15.7748 12.6526 15.7794L12.6542 15.7809C12.7035 15.8397 12.7374 15.8798 12.7497 15.8968C12.7544 15.903 12.7574 15.9077 12.7605 15.9154C12.7605 15.9154 12.7605 15.9169 12.7621 15.9169C12.7621 15.9169 12.7621 15.9185 12.7636 15.92C12.7652 15.9216 12.7652 15.9247 12.7667 15.9262C12.7667 15.9277 12.7682 15.9293 12.7682 15.9293C12.7698 15.9308 12.7698 15.9339 12.7713 15.937C12.7713 15.9386 12.7729 15.9401 12.7729 15.9417C12.7744 15.9447 12.7759 15.9478 12.7759 15.9509C12.7775 15.9525 12.7775 15.954 12.779 15.9571C12.7806 15.9602 12.7821 15.9633 12.7836 15.9679C12.7852 15.9695 12.7852 15.9726 12.7867 15.9741C12.7883 15.9787 12.7898 15.9818 12.7914 15.9865C12.7929 15.988 12.7929 15.9911 12.7944 15.9926C12.796 15.9973 12.7991 16.0019 12.8006 16.0081C12.8021 16.0096 12.8021 16.0112 12.8021 16.0127C12.8052 16.0205 12.8083 16.0282 12.8114 16.0359C12.8145 16.0436 12.8176 16.0514 12.8206 16.0606C12.8222 16.0637 12.8222 16.0653 12.8237 16.0684C12.8253 16.0745 12.8283 16.0807 12.8299 16.0869C12.8314 16.09 12.833 16.0946 12.833 16.0977C12.8345 16.1039 12.8376 16.1085 12.8391 16.1147C12.8407 16.1178 12.8422 16.1225 12.8438 16.1271C12.8453 16.1333 12.8484 16.1395 12.8499 16.1456C12.8515 16.1503 12.853 16.1534 12.8545 16.158C12.8561 16.1642 12.8592 16.1704 12.8607 16.1765C12.8622 16.1812 12.8638 16.1858 12.8653 16.1904C12.8669 16.1966 12.87 16.2028 12.8715 16.209C12.873 16.2136 12.8746 16.2183 12.8761 16.2229C12.8777 16.2291 12.8807 16.2353 12.8823 16.243C12.8838 16.2476 12.8854 16.2523 12.8869 16.2584C12.8884 16.2646 12.8915 16.2723 12.8931 16.2801C12.8946 16.2847 12.8961 16.2893 12.8977 16.2955C12.8992 16.3033 12.9023 16.311 12.9039 16.3187C12.9054 16.3233 12.9069 16.328 12.9069 16.3326C12.9085 16.3419 12.9116 16.3496 12.9131 16.3589C12.9146 16.3635 12.9146 16.3666 12.9162 16.3712C12.9193 16.3836 12.9223 16.3975 12.9254 16.4099V16.4114C12.9285 16.4238 12.9316 16.4362 12.9331 16.4501C12.9347 16.4547 12.9347 16.4593 12.9362 16.464C12.9378 16.4732 12.9393 16.4825 12.9424 16.4918C12.9439 16.4964 12.9439 16.5026 12.9455 16.5072C12.947 16.5165 12.9485 16.5242 12.9501 16.5335C12.9516 16.5397 12.9516 16.5459 12.9532 16.5505C12.9547 16.5582 12.9563 16.5675 12.9578 16.5752C12.9593 16.5814 12.9593 16.5876 12.9609 16.5938C12.9624 16.6015 12.964 16.6108 12.964 16.6185C12.964 16.6247 12.9655 16.6309 12.967 16.637C12.9686 16.6448 12.9686 16.654 12.9701 16.6618C12.9701 16.6679 12.9717 16.6741 12.9717 16.6803C12.9717 16.6896 12.9732 16.6973 12.9732 16.705C12.9732 16.7112 12.9747 16.7174 12.9747 16.7236C12.9747 16.7329 12.9763 16.7406 12.9763 16.7498C12.9763 16.756 12.9778 16.7622 12.9778 16.7684C12.9778 16.7777 12.9794 16.7869 12.9794 16.7962C12.9794 16.8024 12.9794 16.8086 12.9794 16.8148C12.9794 16.824 12.9794 16.8348 12.9794 16.8441C12.9794 16.8487 12.9794 16.8549 12.9794 16.8596C12.9825 16.8781 12.9825 16.8936 12.9809 16.909ZM13.1242 7.75922C13.1181 7.7654 13.1119 7.77158 13.1042 7.77622C13.1104 7.77004 13.1165 7.7654 13.1242 7.75922C13.0965 7.76386 13.0688 7.76849 13.041 7.77313L12.7975 7.8164C12.6958 7.77004 12.6265 7.66805 12.6265 7.54906C12.6265 7.3868 12.7574 7.25545 12.9193 7.25545C13.0811 7.25545 13.2121 7.3868 13.2121 7.54906C13.2121 7.63096 13.1782 7.70513 13.1242 7.75922ZM13.2167 6.64659C13.2136 6.6296 13.2121 6.61105 13.2121 6.59251C13.2121 6.43025 13.3431 6.2989 13.5049 6.2989C13.6652 6.2989 13.7946 6.42716 13.7993 6.58633V6.59405C13.7993 6.75631 13.6683 6.88766 13.5049 6.88766C13.3616 6.88612 13.2429 6.78413 13.2167 6.64659ZM13.5542 19.0895C13.2506 18.9566 13.9102 17.6152 13.9102 17.6152C13.9102 17.6152 14.2416 19.3908 13.5542 19.0895ZM13.9025 7.67732C13.884 7.63868 13.8717 7.59387 13.8717 7.54751C13.8717 7.38525 14.0027 7.2539 14.1645 7.2539C14.3263 7.2539 14.4573 7.38525 14.4573 7.54751C14.4573 7.59387 14.4465 7.63714 14.428 7.67577C14.2539 7.66959 14.0782 7.67114 13.9025 7.67732ZM14.875 19.0895C14.1876 19.3908 14.519 17.6152 14.519 17.6152C14.519 17.6152 15.1786 18.9581 14.875 19.0895ZM14.9705 6.62496C14.9551 6.77176 14.8303 6.88612 14.6793 6.88612C14.5174 6.88612 14.3864 6.75477 14.3864 6.59251C14.3864 6.58787 14.3864 6.58324 14.388 6.57705C14.3957 6.42098 14.5236 6.29735 14.6808 6.29735C14.8426 6.29735 14.9752 6.4287 14.9752 6.59096C14.9721 6.60333 14.9721 6.61414 14.9705 6.62496ZM15.1169 7.74068C15.0722 7.68968 15.0445 7.62169 15.0445 7.54751C15.0445 7.38525 15.1755 7.2539 15.3389 7.2539C15.5022 7.2539 15.6332 7.38525 15.6332 7.54751C15.6332 7.65723 15.5731 7.75149 15.4868 7.80249L15.3173 7.77158C15.2495 7.76076 15.1832 7.74995 15.1169 7.74068ZM19.7589 16.1657C19.7465 16.2414 19.7296 16.3172 19.7095 16.3913C19.7018 16.4161 19.6957 16.4408 19.6864 16.4655C19.6741 16.5026 19.6618 16.5397 19.6464 16.5752C19.6325 16.6108 19.6171 16.6479 19.6001 16.6834C19.483 16.9322 19.3042 17.1624 19.0468 17.3587C18.7063 17.6183 18.227 17.8192 17.572 17.9197C14.3926 18.4126 15.5962 15.9138 15.5962 15.9138C15.5962 15.9138 17.5997 13.4212 18.7679 13.5789C18.7756 13.5804 18.7833 13.5804 18.791 13.582C18.8033 13.5835 18.8157 13.5866 18.828 13.5897C18.8419 13.5928 18.8573 13.5974 18.8727 13.6051C19.1825 13.7566 19.7835 14.7672 19.7866 15.7809C19.7881 15.9107 19.7789 16.039 19.7589 16.1657Z" fill="url(#paint0_linear_10215_169849)"/>
<defs>
<linearGradient id="paint0_linear_10215_169849" x1="6.30469" y1="13.9706" x2="22.0739" y2="13.9706" gradientUnits="userSpaceOnUse">
<stop stop-color="#5433FF"/>
<stop offset="0.5" stop-color="#20BDFF"/>
<stop offset="1" stop-color="#A5FECB"/>
</linearGradient>
</defs>
</svg>
