<svg viewBox="0 0 24 24" fill="none" xmlns="http://www.w3.org/2000/svg">
<path d="M16.6667 18H7.33333C6.59695 18 6 17.4031 6 16.6667V7.33333C6 6.59695 6.59695 6 7.33333 6H16.6667C17.4031 6 18 6.59695 18 7.33333V16.6667C18 17.4031 17.4031 18 16.6667 18Z" stroke="white" stroke-width="1.25"/>
<path d="M6 14H10.2667C10.4876 14 10.6702 14.1855 10.7669 14.3841C10.9043 14.6661 11.2295 15 12 15C12.7705 15 13.0957 14.6661 13.2331 14.3841C13.3298 14.1855 13.5124 14 13.7333 14H18" stroke="white" stroke-width="1.25"/>
<path d="M6 8.66602H18" stroke="white" stroke-width="1.25"/>
<path d="M6 11.334H18" stroke="white" stroke-width="1.25"/>
</svg>
