<svg width="20" height="20" viewBox="0 0 20 20" fill="none" xmlns="http://www.w3.org/2000/svg">
<path d="M13.7241 16.6663H3.41406C3.28145 16.6663 3.15428 16.6136 3.06051 16.5198C2.96674 16.4261 2.91406 16.2989 2.91406 16.1663V7.9996C2.91406 7.86699 2.96674 7.73981 3.06051 7.64605C3.15428 7.55228 3.28145 7.4996 3.41406 7.4996H5.72073C6.00854 7.4996 6.29145 7.42507 6.5419 7.28327C6.79235 7.14147 7.00182 6.93723 7.1499 6.69043L9.40823 2.92627C9.57855 2.64198 9.84687 2.42971 10.1627 2.32939C10.4786 2.22907 10.8202 2.24761 11.1234 2.38153C11.4265 2.51544 11.6703 2.7555 11.8088 3.05655C11.9474 3.3576 11.9712 3.6989 11.8757 4.01627L11.0241 6.85627C11.0017 6.93086 10.9972 7.00963 11.0107 7.08631C11.0242 7.16299 11.0554 7.23545 11.1018 7.29793C11.1483 7.36041 11.2087 7.41118 11.2782 7.44619C11.3478 7.48121 11.4245 7.49949 11.5024 7.4996H15.3149C15.5712 7.49955 15.824 7.5586 16.0538 7.67216C16.2835 7.78573 16.484 7.95075 16.6396 8.15439C16.7952 8.35804 16.9017 8.59482 16.9509 8.84634C17.0001 9.09786 16.9906 9.35734 16.9232 9.6046L15.3316 15.4379C15.2355 15.7905 15.0261 16.1017 14.7358 16.3236C14.4455 16.5456 14.0903 16.666 13.7249 16.6663H13.7241Z" stroke="#color" stroke-width="1.37333" stroke-linecap="round"/>
<path d="M5.83594 16.6667V7.5" stroke="#color" stroke-width="1.37333" stroke-linecap="round" stroke-linejoin="round"/>
</svg>
