<svg viewBox="0 0 28 28" fill="none" xmlns="http://www.w3.org/2000/svg">
<path fill-rule="evenodd" clip-rule="evenodd" d="M5.25 14C5.25 9.1875 9.1875 5.25 14 5.25C18.8125 5.25 22.75 9.1875 22.75 14C22.75 18.8125 18.8125 22.75 14 22.75C9.1875 22.75 5.25 18.8125 5.25 14ZM16.6238 10.3251C16.8863 10.1501 17.2363 10.2376 17.4988 10.5001C17.6738 10.7626 17.7613 11.1126 17.6738 11.3751L16.6238 14.5251C16.2738 15.4876 15.4863 16.2751 14.5238 16.6251L11.3738 17.6751C11.2863 17.7626 11.1988 17.7626 11.1113 17.7626C10.8488 17.7626 10.6738 17.6751 10.4988 17.5001C10.3238 17.2376 10.2363 16.9751 10.3238 16.6251L11.3738 13.4751C11.7238 12.4251 12.4238 11.7251 13.4738 11.3751L16.6238 10.3251Z" fill="url(#paint0_linear_10215_169852)"/>
<defs>
<linearGradient id="paint0_linear_10215_169852" x1="5.25" y1="14" x2="22.75" y2="14" gradientUnits="userSpaceOnUse">
<stop stop-color="#5433FF"/>
<stop offset="0.5" stop-color="#20BDFF"/>
<stop offset="1" stop-color="#A5FECB"/>
</linearGradient>
</defs>
</svg>
