<svg width="24" height="24" viewBox="0 0 24 24" fill="none" xmlns="http://www.w3.org/2000/svg">
<rect width="24" height="24" rx="12" fill="#F46F76" fill-opacity="0.1"/>
<path d="M16.5 9.00069H14V8.16569C13.9883 7.8456 13.8501 7.54322 13.6158 7.32484C13.3815 7.10645 13.0701 6.98989 12.75 7.00069H11.25C10.9299 6.98989 10.6185 7.10645 10.3842 7.32484C10.1499 7.54322 10.0117 7.8456 10 8.16569V9.00069H7.5C7.36739 9.00069 7.24021 9.05337 7.14645 9.14714C7.05268 9.2409 7 9.36808 7 9.50069C7 9.6333 7.05268 9.76047 7.14645 9.85424C7.24021 9.94801 7.36739 10.0007 7.5 10.0007H8V15.5007C8 15.8985 8.15804 16.28 8.43934 16.5613C8.72064 16.8427 9.10218 17.0007 9.5 17.0007H14.5C14.8978 17.0007 15.2794 16.8427 15.5607 16.5613C15.842 16.28 16 15.8985 16 15.5007V10.0007H16.5C16.6326 10.0007 16.7598 9.94801 16.8536 9.85424C16.9473 9.76047 17 9.6333 17 9.50069C17 9.36808 16.9473 9.2409 16.8536 9.14714C16.7598 9.05337 16.6326 9.00069 16.5 9.00069ZM11 8.16569C11 8.08569 11.105 8.00069 11.25 8.00069H12.75C12.895 8.00069 13 8.08569 13 8.16569V9.00069H11V8.16569ZM15 15.5007C15 15.6333 14.9473 15.7605 14.8536 15.8542C14.7598 15.948 14.6326 16.0007 14.5 16.0007H9.5C9.36739 16.0007 9.24021 15.948 9.14645 15.8542C9.05268 15.7605 9 15.6333 9 15.5007V10.0007H15V15.5007Z" fill="#F46F76"/>
<path d="M10.5 14.5C10.6326 14.5 10.7598 14.4473 10.8536 14.3536C10.9473 14.2598 11 14.1326 11 14V12C11 11.8674 10.9473 11.7402 10.8536 11.6464C10.7598 11.5527 10.6326 11.5 10.5 11.5C10.3674 11.5 10.2402 11.5527 10.1464 11.6464C10.0527 11.7402 10 11.8674 10 12V14C10 14.1326 10.0527 14.2598 10.1464 14.3536C10.2402 14.4473 10.3674 14.5 10.5 14.5Z" fill="#F46F76"/>
<path d="M13.5 14.5C13.6326 14.5 13.7598 14.4473 13.8536 14.3536C13.9473 14.2598 14 14.1326 14 14V12C14 11.8674 13.9473 11.7402 13.8536 11.6464C13.7598 11.5527 13.6326 11.5 13.5 11.5C13.3674 11.5 13.2402 11.5527 13.1464 11.6464C13.0527 11.7402 13 11.8674 13 12V14C13 14.1326 13.0527 14.2598 13.1464 14.3536C13.2402 14.4473 13.3674 14.5 13.5 14.5Z" fill="#F46F76"/>
</svg>
