<svg width="28" height="28" viewBox="0 0 28 28" fill="none" xmlns="http://www.w3.org/2000/svg">
<path fill-rule="evenodd" clip-rule="evenodd" d="M22.6094 12.7034L19.375 14.6519V13.75C19.375 13.6067 19.3509 13.4652 19.3044 13.3284C19.2194 13.0783 19.0594 12.8438 18.8344 12.6427C18.7839 12.5976 18.7302 12.5541 18.6733 12.5126C18.224 12.1844 17.6146 12 16.9792 12H16.5C16.662 12 16.8218 11.9907 16.9792 11.9725C17.9747 11.8577 18.8681 11.3893 19.5415 10.6902C20.3265 9.87525 20.8125 8.74684 20.8125 7.5C20.8125 5.01472 18.8817 3 16.5 3C15.0944 3 13.8458 3.70172 13.0585 4.78776C12.5118 5.54194 12.1875 6.48145 12.1875 7.5C12.1875 7.75553 12.2079 8.00609 12.2471 8.25C12.3499 8.88907 12.5817 9.48247 12.9137 10C13.108 10.3029 13.3367 10.5799 13.5938 10.8248C14.3604 11.5548 15.3804 12 16.5 12H8.59375C9.58223 12 10.4775 11.5836 11.1272 10.9097C11.384 10.6434 11.6023 10.3369 11.773 10C12.0376 9.47757 12.1875 8.88205 12.1875 8.25C12.1875 7.99315 12.1628 7.74233 12.1156 7.5C11.9262 6.52643 11.3754 5.68982 10.6156 5.14933C10.0396 4.73956 9.34348 4.5 8.59375 4.5C6.60898 4.5 5 6.17893 5 8.25C5 9.01565 5.2199 9.72771 5.59739 10.3212C6.02491 10.9933 6.65456 11.5132 7.39583 11.7866C7.77052 11.9248 8.17372 12 8.59375 12H7.39583C6.76042 12 6.15103 12.1844 5.70172 12.5126C5.54247 12.6289 5.40795 12.7599 5.30064 12.9013C5.10519 13.1587 5 13.4504 5 13.75V20.75C5 21.2141 5.25242 21.6592 5.70172 21.9874C6.15103 22.3156 6.76042 22.5 7.39583 22.5H16.9792C17.6146 22.5 18.224 22.3156 18.6733 21.9874C18.7302 21.9459 18.7839 21.9024 18.8344 21.8573C19.1825 21.5462 19.375 21.1553 19.375 20.75V19.8481L22.6094 21.7966C23.5677 22.374 24.7656 21.6523 24.7656 20.4976V14.0024C24.7656 12.8477 23.5677 12.126 22.6094 12.7034ZM18.8125 7.5C18.8125 8.96179 17.6978 10 16.5 10C15.3022 10 14.1875 8.96179 14.1875 7.5C14.1875 6.03821 15.3022 5 16.5 5C17.6978 5 18.8125 6.03821 18.8125 7.5ZM10.1875 8.25C10.1875 9.29757 9.39459 10 8.59375 10C7.79291 10 7 9.29757 7 8.25C7 7.20243 7.79291 6.5 8.59375 6.5C9.39459 6.5 10.1875 7.20243 10.1875 8.25Z" fill="url(#paint0_linear_19969_158433)"/>
<defs>
<linearGradient id="paint0_linear_19969_158433" x1="5" y1="12.75" x2="24.7656" y2="12.75" gradientUnits="userSpaceOnUse">
<stop stop-color="#5433FF"/>
<stop offset="0.5" stop-color="#20BDFF"/>
<stop offset="1" stop-color="#A5FECB"/>
</linearGradient>
</defs>
</svg>
