<svg viewBox="0 0 20 20" fill="none" xmlns="http://www.w3.org/2000/svg">
<path d="M14.8611 16.25H5.13889C4.37183 16.25 3.75 15.6282 3.75 14.8611V5.13889C3.75 4.37183 4.37183 3.75 5.13889 3.75H14.8611C15.6282 3.75 16.25 4.37183 16.25 5.13889V14.8611C16.25 15.6282 15.6282 16.25 14.8611 16.25Z" stroke="#777777" stroke-width="1.25" stroke-linecap="round" stroke-linejoin="round"/>
<path d="M3.75 12.083H8.19444C8.42456 12.083 8.61479 12.2763 8.71556 12.4831C8.85861 12.7768 9.19736 13.1247 10 13.1247C10.8026 13.1247 11.1414 12.7768 11.2844 12.4831C11.3852 12.2763 11.5754 12.083 11.8056 12.083H16.25" stroke="#777777" stroke-width="1.25" stroke-linecap="round" stroke-linejoin="round"/>
<path d="M3.75 6.52832H16.25" stroke="#777777" stroke-width="1.25" stroke-linecap="round" stroke-linejoin="round"/>
<path d="M3.75 9.30566H16.25" stroke="#777777" stroke-width="1.25" stroke-linecap="round" stroke-linejoin="round"/>
</svg>
