<svg viewBox="0 0 40 40" fill="none" xmlns="http://www.w3.org/2000/svg">
<path fill-rule="evenodd" clip-rule="evenodd" d="M9.89405 11.2273H17.8803V12.4916H9.89405C9.20143 12.4916 8.63104 13.0628 8.63104 13.7558V14.3868C8.63104 15.0795 9.20142 15.651 9.89405 15.651H32.6328V21.1856H27.7673C26.2699 21.1856 25.049 22.407 25.049 23.9044V24.3818C25.049 25.8792 26.2699 27.1006 27.7673 27.1006H32.6328V30.1092C32.6328 31.4986 31.4956 32.6358 30.1063 32.6358H9.89377C8.50441 32.6358 7.36719 31.4997 7.36719 30.1092V13.7565C7.36719 12.3661 8.50441 11.228 9.89377 11.228L9.89405 11.2273ZM27.7678 21.9443H32.6334V26.3414H27.7678C26.6894 26.3414 25.8084 25.4598 25.8084 24.3817V23.9043C25.8084 22.8258 26.6894 21.9445 27.7678 21.9445V21.9443ZM21.3782 7.36328H22.5356V14.8918H20.5702V8.1715C20.5702 7.72689 20.9333 7.36349 21.3782 7.36349V7.36328ZM27.994 8.36792H28.6552V9.02909H27.994V8.36792ZM27.994 12.335H28.6552V12.9961H27.994V12.335ZM27.994 11.3432H28.6552V12.0044H27.994V11.3432ZM27.994 10.3514H28.6552V11.0126H27.994V10.3514ZM27.994 9.35968H28.6552V10.0209H27.994V9.35968ZM24.3428 7.36328H31.8258C32.2704 7.36328 32.6338 7.72668 32.6338 8.17129V14.8916H24.343L24.3428 7.36328ZM31.6823 11.7785V8.86912C31.6823 8.59268 31.4565 8.36819 31.1808 8.36819H29.817C29.5419 8.36819 29.3166 8.59322 29.3166 8.86912V11.7785C29.3166 12.0544 29.5416 12.2794 29.817 12.2794H31.1808C31.4567 12.2794 31.6823 12.0549 31.6823 11.7785ZM18.6399 9.29591H19.8121V14.8918H18.6399V9.29591ZM16.7083 13.1596V14.8915H17.8817V13.1596H16.7083Z" fill="url(#paint0_linear_4535_32487)"/>
<defs>
<linearGradient id="paint0_linear_4535_32487" x1="7.36719" y1="19.9995" x2="32.6338" y2="19.9995" gradientUnits="userSpaceOnUse">
<stop stop-color="#5433FF"/>
<stop offset="0.5" stop-color="#20BDFF"/>
<stop offset="1" stop-color="#A5FECB"/>
</linearGradient>
</defs>
</svg>
