<svg viewBox="0 0 28 28" fill="none" xmlns="http://www.w3.org/2000/svg">
<path d="M18.725 17.675C16.7125 17.675 15.05 16.0125 15.05 14C15.05 11.9875 16.7125 10.325 18.725 10.325H21.2625C21.0875 8.4875 19.5125 7 17.5875 7H8.8375C6.9125 7 5.25 8.575 5.25 10.5875V17.4125C5.25 19.425 6.9125 21 8.925 21H17.675C19.6 21 21.175 19.5125 21.35 17.675H18.725Z" fill="#FFFFFF"/>
<path d="M21.5255 12.0751H18.7255C17.6755 12.0751 16.8005 12.9501 16.8005 14.0001C16.8005 15.0501 17.6755 15.9251 18.7255 15.9251H21.5255C22.2255 15.9251 22.7505 15.4001 22.7505 14.7001V13.3001C22.7505 12.6001 22.2255 12.0751 21.5255 12.0751Z" fill="#FFFFFF"/>
</svg>
