<svg width="16" height="16" viewBox="0 0 16 16" fill="none" xmlns="http://www.w3.org/2000/svg">
<path d="M10.981 2.33398H2.73301C2.62692 2.33398 2.52518 2.37613 2.45017 2.45114C2.37515 2.52616 2.33301 2.6279 2.33301 2.73398V9.26732C2.33301 9.3734 2.37515 9.47515 2.45017 9.55016C2.52518 9.62517 2.62692 9.66732 2.73301 9.66732H4.57834C4.80859 9.66731 5.03491 9.72694 5.23528 9.84038C5.43564 9.95382 5.60321 10.1172 5.72167 10.3146L7.52834 13.326C7.6646 13.5534 7.87926 13.7232 8.13194 13.8035C8.38463 13.8837 8.65793 13.8689 8.90045 13.7618C9.14297 13.6546 9.33799 13.4626 9.44883 13.2218C9.55967 12.9809 9.5787 12.7079 9.50234 12.454L8.82101 10.182C8.80315 10.1223 8.79948 10.0593 8.81028 9.99795C8.82108 9.93661 8.84606 9.87863 8.88322 9.82865C8.92039 9.77866 8.96871 9.73805 9.02435 9.71004C9.07998 9.68203 9.14139 9.6674 9.20367 9.66732H12.2537C12.4587 9.66736 12.661 9.62012 12.8448 9.52926C13.0286 9.43841 13.1889 9.3064 13.3134 9.14348C13.4379 8.98056 13.5231 8.79114 13.5625 8.58992C13.6018 8.38871 13.5943 8.18113 13.5403 7.98332L12.267 3.31665C12.1901 3.0346 12.0227 2.78564 11.7904 2.60808C11.5582 2.43052 11.274 2.33422 10.9817 2.33398H10.981Z" stroke="#A3A3A3" stroke-width="1.25" stroke-linecap="round"/>
<path d="M4.66699 9.66732V2.33398" stroke="#A3A3A3" stroke-width="1.25" stroke-linecap="round" stroke-linejoin="round"/>
</svg>
