<svg width="20" height="20" viewBox="0 0 20 20" fill="none" xmlns="http://www.w3.org/2000/svg">
<path fill-rule="evenodd" clip-rule="evenodd" d="M16.6615 9.9987C16.6615 13.6807 13.6768 16.6654 9.99479 16.6654C6.31279 16.6654 3.32812 13.6807 3.32812 9.9987C3.32812 6.3167 6.31279 3.33203 9.99479 3.33203C13.6768 3.33203 16.6615 6.3167 16.6615 9.9987ZM10.6198 9.3737H10H9.36979H7.32812C6.98296 9.3737 6.70313 9.65352 6.70313 9.9987C6.70313 10.3439 6.98296 10.6237 7.32812 10.6237H9.36979H10H10.6198H12.6615C13.0066 10.6237 13.2865 10.3439 13.2865 9.9987C13.2865 9.65352 13.0066 9.3737 12.6615 9.3737H10.6198Z" fill="#16BBFF"/>
</svg>
