<svg width="24" height="24" viewBox="0 0 24 24" fill="none" xmlns="http://www.w3.org/2000/svg">
<path d="M14.9141 14.916L17.8307 17.8327M6.16406 11.166C6.16406 11.8226 6.29339 12.4728 6.54466 13.0794C6.79594 13.6861 7.16424 14.2373 7.62853 14.7016C8.09282 15.1658 8.64402 15.5341 9.25065 15.7854C9.85727 16.0367 10.5075 16.166 11.1641 16.166C11.8207 16.166 12.4709 16.0367 13.0775 15.7854C13.6841 15.5341 14.2353 15.1658 14.6996 14.7016C15.1639 14.2373 15.5322 13.6861 15.7835 13.0794C16.0347 12.4728 16.1641 11.8226 16.1641 11.166C16.1641 9.83993 15.6373 8.56816 14.6996 7.63048C13.7619 6.6928 12.4901 6.16602 11.1641 6.16602C9.83798 6.16602 8.56621 6.6928 7.62853 7.63048C6.69085 8.56816 6.16406 9.83993 6.16406 11.166V11.166Z" stroke="#A3A3A3" stroke-width="1.37333" stroke-linecap="round" stroke-linejoin="round"/>
</svg>
