<svg width="16" height="16" viewBox="0 0 16 16" fill="none" xmlns="http://www.w3.org/2000/svg">
<rect width="16" height="16" rx="8" fill="#333333"/>
<path fill-rule="evenodd" clip-rule="evenodd" d="M11.1378 5.16121L10.839 4.86245L7.99991 7.70155L5.16089 4.86254L4.86213 5.1613L7.70114 8.00032L4.86377 10.8377L5.16253 11.1365L7.99991 8.29908L10.8374 11.1365L11.1361 10.8378L8.29867 8.00032L11.1378 5.16121Z" fill="white"/>
<path d="M10.839 4.86245L11.1926 4.5089L10.839 4.15534L10.4855 4.5089L10.839 4.86245ZM11.1378 5.16121L11.4913 5.51476L11.8449 5.16121L11.4913 4.80766L11.1378 5.16121ZM7.99991 7.70155L7.64635 8.05511L7.99991 8.40866L8.35346 8.05511L7.99991 7.70155ZM5.16089 4.86254L5.51445 4.50899L5.16089 4.15544L4.80734 4.50899L5.16089 4.86254ZM4.86213 5.1613L4.50858 4.80775L4.15503 5.1613L4.50858 5.51486L4.86213 5.1613ZM7.70114 8.00032L8.0547 8.35387L8.40825 8.00032L8.0547 7.64676L7.70114 8.00032ZM4.86377 10.8377L4.51022 10.4841L4.15666 10.8377L4.51022 11.1912L4.86377 10.8377ZM5.16253 11.1365L4.80898 11.49L5.16253 11.8436L5.51609 11.49L5.16253 11.1365ZM7.99991 8.29908L8.35346 7.94553L7.99991 7.59197L7.64635 7.94553L7.99991 8.29908ZM10.8374 11.1365L10.4838 11.4901L10.8374 11.8437L11.1909 11.4901L10.8374 11.1365ZM11.1361 10.8378L11.4897 11.1913L11.8432 10.8378L11.4897 10.4842L11.1361 10.8378ZM8.29867 8.00032L7.94511 7.64676L7.59156 8.00032L7.94511 8.35387L8.29867 8.00032ZM10.4855 5.216L10.7842 5.51476L11.4913 4.80766L11.1926 4.5089L10.4855 5.216ZM8.35346 8.05511L11.1926 5.216L10.4855 4.5089L7.64635 7.348L8.35346 8.05511ZM4.80734 5.2161L7.64635 8.05511L8.35346 7.348L5.51445 4.50899L4.80734 5.2161ZM5.21569 5.51486L5.51445 5.2161L4.80734 4.50899L4.50858 4.80775L5.21569 5.51486ZM8.0547 7.64676L5.21569 4.80775L4.50858 5.51486L7.34759 8.35387L8.0547 7.64676ZM5.21732 11.1912L8.0547 8.35387L7.34759 7.64676L4.51022 10.4841L5.21732 11.1912ZM5.51609 10.7829L5.21732 10.4841L4.51022 11.1912L4.80898 11.49L5.51609 10.7829ZM7.64635 7.94553L4.80898 10.7829L5.51609 11.49L8.35346 8.65263L7.64635 7.94553ZM11.1909 10.783L8.35346 7.94553L7.64635 8.65263L10.4838 11.4901L11.1909 10.783ZM10.7826 10.4842L10.4838 10.783L11.1909 11.4901L11.4897 11.1913L10.7826 10.4842ZM7.94511 8.35387L10.7826 11.1913L11.4897 10.4842L8.65222 7.64676L7.94511 8.35387ZM10.7842 4.80766L7.94511 7.64676L8.65222 8.35387L11.4913 5.51476L10.7842 4.80766Z" fill="white"/>
</svg>
