<svg width="14" height="14" viewBox="0 0 14 14" fill="none" xmlns="http://www.w3.org/2000/svg">
<path d="M6.67159 0.888935C6.73563 0.520619 7.26437 0.520617 7.32841 0.888933L7.88957 4.11664C7.93145 4.35755 8.20986 4.47287 8.40982 4.33213L11.089 2.44661C11.3947 2.23145 11.7686 2.60532 11.5534 2.91104L9.66787 5.59018C9.52713 5.79014 9.64245 6.06854 9.88336 6.11043L13.1111 6.67159C13.4794 6.73563 13.4794 7.26437 13.1111 7.32841L9.88336 7.88957C9.64245 7.93145 9.52713 8.20986 9.66787 8.40982L11.5534 11.089C11.7686 11.3947 11.3947 11.7686 11.089 11.5534L8.40982 9.66787C8.20986 9.52713 7.93145 9.64245 7.88957 9.88336L7.32841 13.1111C7.26437 13.4794 6.73563 13.4794 6.67159 13.1111L6.11043 9.88336C6.06854 9.64245 5.79014 9.52713 5.59018 9.66787L2.91104 11.5534C2.60533 11.7686 2.23145 11.3947 2.4466 11.089L4.33213 8.40982C4.47287 8.20986 4.35755 7.93145 4.11664 7.88957L0.888935 7.32841C0.520619 7.26437 0.520617 6.73563 0.888933 6.67159L4.11664 6.11043C4.35755 6.06854 4.47287 5.79014 4.33213 5.59018L2.44661 2.91104C2.23145 2.60532 2.60532 2.23145 2.91104 2.4466L5.59018 4.33213C5.79014 4.47287 6.06854 4.35755 6.11043 4.11664L6.67159 0.888935Z" fill="white"/>
</svg>
