<svg width="80" height="80" viewBox="0 0 80 80" fill="none" xmlns="http://www.w3.org/2000/svg">
<g clip-path="url(#clip0_12161_203886)">
<g filter="url(#filter0_f_12161_203886)">
<mask id="path-1-inside-1_12161_203886" fill="white">
<path d="M16.6641 40.0003C16.6641 52.8873 27.1104 63.3337 39.9974 63.3337C52.8844 63.3337 63.3307 52.8873 63.3307 40.0003C63.3307 27.1133 52.8844 16.667 39.9974 16.667C27.1104 16.667 16.6641 27.1133 16.6641 40.0003Z"/>
<path d="M42.3307 16.7837C42.3307 16.7837 49.3307 26.0003 49.3307 40.0003C49.3307 54.0003 42.3307 63.217 42.3307 63.217M37.6641 63.217C37.6641 63.217 30.6641 54.0003 30.6641 40.0003C30.6641 26.0003 37.6641 16.7837 37.6641 16.7837M18.1341 48.167H61.8607H18.1341ZM18.1341 31.8337H61.8607H18.1341Z"/>
</mask>
<path d="M13.6641 40.0003C13.6641 54.5442 25.4535 66.3337 39.9974 66.3337V60.3337C28.7673 60.3337 19.6641 51.2305 19.6641 40.0003H13.6641ZM39.9974 66.3337C54.5412 66.3337 66.3307 54.5442 66.3307 40.0003H60.3307C60.3307 51.2305 51.2275 60.3337 39.9974 60.3337V66.3337ZM66.3307 40.0003C66.3307 25.4565 54.5412 13.667 39.9974 13.667V19.667C51.2275 19.667 60.3307 28.7702 60.3307 40.0003H66.3307ZM39.9974 13.667C25.4535 13.667 13.6641 25.4565 13.6641 40.0003H19.6641C19.6641 28.7702 28.7673 19.667 39.9974 19.667V13.667ZM42.3307 16.7837C39.9417 18.5981 39.941 18.5973 39.9404 18.5965C39.9403 18.5963 39.9397 18.5956 39.9394 18.5951C39.9387 18.5943 39.9382 18.5936 39.9377 18.593C39.9369 18.5918 39.9364 18.5912 39.9363 18.5911C39.9362 18.5909 39.9377 18.5929 39.9408 18.5971C39.947 18.6055 39.9596 18.6226 39.9781 18.6481C40.0151 18.6993 40.0757 18.7845 40.1567 18.9027C40.3187 19.1391 40.5616 19.5069 40.8589 19.9974C41.454 20.9794 42.2631 22.4467 43.0764 24.3309C44.7052 28.1045 46.3307 33.5012 46.3307 40.0003H52.3307C52.3307 32.4995 50.4562 26.2879 48.5851 21.9531C47.6484 19.7831 46.7074 18.0712 45.9901 16.8876C45.6311 16.2953 45.3271 15.8336 45.1063 15.5114C44.9959 15.3502 44.9062 15.2237 44.8406 15.133C44.8078 15.0877 44.7811 15.0513 44.7608 15.0239C44.7507 15.0102 44.7421 14.9988 44.7353 14.9897C44.7319 14.9851 44.7289 14.9811 44.7263 14.9777C44.725 14.976 44.7238 14.9744 44.7227 14.973C44.7222 14.9723 44.7214 14.9713 44.7212 14.971C44.7205 14.9701 44.7198 14.9692 42.3307 16.7837ZM46.3307 40.0003C46.3307 46.4995 44.7052 51.8962 43.0764 55.6697C42.2631 57.5539 41.454 59.0213 40.8589 60.0032C40.5616 60.4937 40.3187 60.8615 40.1567 61.098C40.0757 61.2162 40.0151 61.3014 39.9781 61.3525C39.9596 61.3781 39.947 61.3951 39.9408 61.4035C39.9377 61.4077 39.9362 61.4097 39.9363 61.4096C39.9364 61.4095 39.9369 61.4089 39.9377 61.4077C39.9382 61.4071 39.9387 61.4064 39.9394 61.4055C39.9397 61.4051 39.9403 61.4043 39.9404 61.4041C39.941 61.4033 39.9417 61.4025 42.3307 63.217C44.7198 65.0315 44.7205 65.0306 44.7212 65.0297C44.7214 65.0293 44.7222 65.0284 44.7227 65.0276C44.7238 65.0262 44.725 65.0246 44.7263 65.0229C44.7289 65.0195 44.7319 65.0155 44.7353 65.011C44.7421 65.0018 44.7507 64.9904 44.7608 64.9767C44.7811 64.9494 44.8078 64.913 44.8406 64.8676C44.9062 64.7769 44.9959 64.6504 45.1063 64.4893C45.3271 64.167 45.6311 63.7054 45.9901 63.113C46.7074 61.9294 47.6484 60.2176 48.5851 58.0476C50.4562 53.7128 52.3307 47.5012 52.3307 40.0003H46.3307ZM37.6641 63.217C40.0531 61.4025 40.0538 61.4033 40.0543 61.4041C40.0545 61.4043 40.0551 61.4051 40.0554 61.4055C40.0561 61.4064 40.0566 61.4071 40.0571 61.4077C40.0579 61.4089 40.0584 61.4095 40.0585 61.4096C40.0586 61.4097 40.0571 61.4077 40.054 61.4035C40.0478 61.3951 40.0352 61.3781 40.0167 61.3525C39.9797 61.3014 39.9191 61.2162 39.8381 61.098C39.6761 60.8615 39.4332 60.4937 39.1359 60.0032C38.5408 59.0213 37.7317 57.5539 36.9184 55.6697C35.2896 51.8962 33.6641 46.4995 33.6641 40.0003H27.6641C27.6641 47.5012 29.5386 53.7128 31.4097 58.0476C32.3464 60.2176 33.2874 61.9294 34.0047 63.113C34.3637 63.7054 34.6677 64.167 34.8884 64.4893C34.9989 64.6504 35.0886 64.7769 35.1542 64.8676C35.187 64.913 35.2137 64.9494 35.234 64.9767C35.2441 64.9904 35.2527 65.0018 35.2595 65.011C35.2629 65.0155 35.2659 65.0195 35.2685 65.0229C35.2698 65.0246 35.271 65.0262 35.2721 65.0276C35.2726 65.0284 35.2733 65.0293 35.2736 65.0297C35.2743 65.0306 35.275 65.0315 37.6641 63.217ZM33.6641 40.0003C33.6641 33.5012 35.2896 28.1045 36.9184 24.3309C37.7317 22.4467 38.5408 20.9794 39.1359 19.9974C39.4332 19.5069 39.6761 19.1391 39.8381 18.9027C39.9191 18.7845 39.9797 18.6993 40.0167 18.6481C40.0352 18.6226 40.0478 18.6055 40.054 18.5971C40.0571 18.5929 40.0586 18.5909 40.0585 18.5911C40.0584 18.5912 40.0579 18.5918 40.0571 18.593C40.0566 18.5936 40.0561 18.5943 40.0554 18.5951C40.0551 18.5956 40.0545 18.5963 40.0543 18.5965C40.0538 18.5973 40.0531 18.5981 37.6641 16.7837C35.275 14.9692 35.2743 14.9701 35.2736 14.971C35.2733 14.9713 35.2726 14.9723 35.2721 14.973C35.271 14.9744 35.2698 14.976 35.2685 14.9777C35.2659 14.9811 35.2629 14.9851 35.2595 14.9897C35.2527 14.9988 35.2441 15.0102 35.234 15.0239C35.2137 15.0513 35.187 15.0877 35.1542 15.133C35.0886 15.2237 34.9989 15.3502 34.8884 15.5114C34.6677 15.8336 34.3637 16.2953 34.0047 16.8876C33.2874 18.0712 32.3464 19.7831 31.4097 21.9531C29.5386 26.2879 27.6641 32.4995 27.6641 40.0003H33.6641ZM18.1341 51.167H61.8607V45.167H18.1341V51.167ZM18.1341 34.8337H61.8607V28.8337H18.1341V34.8337Z" fill="url(#paint0_radial_12161_203886)" mask="url(#path-1-inside-1_12161_203886)"/>
</g>
<g filter="url(#filter1_f_12161_203886)">
<path d="M16.6641 40.0003C16.6641 52.8873 27.1104 63.3337 39.9974 63.3337C52.8844 63.3337 63.3307 52.8873 63.3307 40.0003C63.3307 27.1133 52.8844 16.667 39.9974 16.667C27.1104 16.667 16.6641 27.1133 16.6641 40.0003Z" fill="black"/>
<path d="M42.3307 16.7837C42.3307 16.7837 49.3307 26.0003 49.3307 40.0003C49.3307 54.0003 42.3307 63.217 42.3307 63.217M37.6641 63.217C37.6641 63.217 30.6641 54.0003 30.6641 40.0003C30.6641 26.0003 37.6641 16.7837 37.6641 16.7837M18.1341 48.167H61.8607H18.1341ZM18.1341 31.8337H61.8607H18.1341Z" fill="black"/>
</g>
<path d="M42.3307 16.7837C42.3307 16.7837 49.3307 26.0003 49.3307 40.0003C49.3307 54.0003 42.3307 63.217 42.3307 63.217M37.6641 63.217C37.6641 63.217 30.6641 54.0003 30.6641 40.0003C30.6641 26.0003 37.6641 16.7837 37.6641 16.7837M18.1341 48.167H61.8607M18.1341 31.8337H61.8607M16.6641 40.0003C16.6641 52.8873 27.1104 63.3337 39.9974 63.3337C52.8844 63.3337 63.3307 52.8873 63.3307 40.0003C63.3307 27.1133 52.8844 16.667 39.9974 16.667C27.1104 16.667 16.6641 27.1133 16.6641 40.0003Z" stroke="url(#paint1_radial_12161_203886)" stroke-width="1.37"/>
<path d="M42.3307 16.7837C42.3307 16.7837 49.3307 26.0003 49.3307 40.0003C49.3307 54.0003 42.3307 63.217 42.3307 63.217M37.6641 63.217C37.6641 63.217 30.6641 54.0003 30.6641 40.0003C30.6641 26.0003 37.6641 16.7837 37.6641 16.7837M18.1341 48.167H61.8607M18.1341 31.8337H61.8607M16.6641 40.0003C16.6641 52.8873 27.1104 63.3337 39.9974 63.3337C52.8844 63.3337 63.3307 52.8873 63.3307 40.0003C63.3307 27.1133 52.8844 16.667 39.9974 16.667C27.1104 16.667 16.6641 27.1133 16.6641 40.0003Z" stroke="url(#paint2_radial_12161_203886)" stroke-width="1.37"/>
</g>
<defs>
<filter id="filter0_f_12161_203886" x="-3.33594" y="-3.33301" width="86.6641" height="86.667" filterUnits="userSpaceOnUse" color-interpolation-filters="sRGB">
<feFlood flood-opacity="0" result="BackgroundImageFix"/>
<feBlend mode="normal" in="SourceGraphic" in2="BackgroundImageFix" result="shape"/>
<feGaussianBlur stdDeviation="10" result="effect1_foregroundBlur_12161_203886"/>
</filter>
<filter id="filter1_f_12161_203886" x="-81.3359" y="-81.333" width="242.664" height="242.667" filterUnits="userSpaceOnUse" color-interpolation-filters="sRGB">
<feFlood flood-opacity="0" result="BackgroundImageFix"/>
<feBlend mode="normal" in="SourceGraphic" in2="BackgroundImageFix" result="shape"/>
<feGaussianBlur stdDeviation="49" result="effect1_foregroundBlur_12161_203886"/>
</filter>
<radialGradient id="paint0_radial_12161_203886" cx="0" cy="0" r="1" gradientUnits="userSpaceOnUse" gradientTransform="translate(39.9974 16.667) rotate(90) scale(46.6667)">
<stop offset="0.0859675" stop-color="#3B76FF"/>
<stop offset="0.270032" stop-color="#338BFF"/>
<stop offset="0.894562" stop-color="#5436FF" stop-opacity="0"/>
</radialGradient>
<radialGradient id="paint1_radial_12161_203886" cx="0" cy="0" r="1" gradientUnits="userSpaceOnUse" gradientTransform="translate(39.9974 16.667) rotate(90) scale(46.6667)">
<stop stop-color="#2BC3FB"/>
<stop offset="0.484375" stop-color="#9EFBCE" stop-opacity="0.43"/>
<stop offset="0.894562" stop-color="#5338FF" stop-opacity="0"/>
</radialGradient>
<radialGradient id="paint2_radial_12161_203886" cx="0" cy="0" r="1" gradientUnits="userSpaceOnUse" gradientTransform="translate(39.9974 16.667) rotate(90) scale(46.6667)">
<stop offset="0.484375" stop-color="#5338FF" stop-opacity="0"/>
<stop offset="1" stop-color="#465AFF"/>
</radialGradient>
<clipPath id="clip0_12161_203886">
<rect width="80" height="80" fill="white"/>
</clipPath>
</defs>
</svg>
