<svg width="41" height="41" viewBox="0 0 41 41" fill="none" xmlns="http://www.w3.org/2000/svg">
<rect x="0.341187" width="40.6588" height="40.6588" rx="20.3294" fill="#3396FF" fill-opacity="0.2"/>
<path d="M12.6842 15.2815C17.095 10.9648 24.2463 10.9648 28.6572 15.2815L29.1881 15.801C29.4086 16.0168 29.4086 16.3667 29.1881 16.5826L27.3721 18.3598C27.2618 18.4677 27.0831 18.4677 26.9728 18.3598L26.2422 17.6449C23.1652 14.6334 18.1762 14.6334 15.0991 17.6449L14.3168 18.4105C14.2065 18.5184 14.0277 18.5184 13.9174 18.4105L12.1015 16.6333C11.881 16.4174 11.881 16.0675 12.1015 15.8517L12.6842 15.2815ZM32.4127 18.9569L34.0289 20.5385C34.2495 20.7544 34.2495 21.1043 34.0289 21.3201L26.7414 28.4522C26.5209 28.668 26.1633 28.668 25.9427 28.4522L20.7705 23.3904C20.7154 23.3364 20.626 23.3364 20.5709 23.3904L15.3988 28.4522C15.1783 28.668 14.8207 28.668 14.6002 28.4522L7.31244 21.3201C7.0919 21.1042 7.0919 20.7543 7.31244 20.5384L8.92863 18.9568C9.14916 18.7409 9.50674 18.7409 9.72728 18.9568L14.8996 24.0186C14.9547 24.0726 15.0441 24.0726 15.0992 24.0186L20.2713 18.9568C20.4918 18.7409 20.8494 18.7409 21.0699 18.9567L26.2422 24.0186C26.2974 24.0726 26.3867 24.0726 26.4418 24.0186L31.6141 18.9569C31.8346 18.741 32.1922 18.741 32.4127 18.9569Z" fill="#3396FF"/>
</svg>
