<svg viewBox="0 0 24 24" fill="none" xmlns="http://www.w3.org/2000/svg">
<path d="M24 12C24 5.37258 18.6274 0 12 0C5.37258 0 0 5.37258 0 12C0 18.6274 5.37258 24 12 24C18.6274 24 24 18.6274 24 12Z" fill="#F97E1B" fill-opacity="0.16"/>
<path d="M11.956 19.9121C16.35 19.9121 19.9121 16.35 19.9121 11.956C19.9121 7.56204 16.35 4 11.956 4C7.56204 4 4 7.56204 4 11.956C4 16.35 7.56204 19.9121 11.956 19.9121Z" fill="#ED4E33"/>
<path d="M10.5218 8.26086C8.35137 9.0954 8.15255 11.2327 7.5302 12.2308C6.90048 13.2408 5.45781 13.7981 5.65509 14.3128C5.85236 14.8275 7.29675 14.2747 8.43947 14.6031C9.56865 14.9276 11.1441 16.3828 13.3146 15.5482C14.4203 15.1231 15.2209 14.2481 15.5891 13.2116C15.6287 13.1004 15.5546 12.9814 15.4372 12.9704C15.3641 12.9635 15.2941 13.0018 15.2612 13.0674C14.9281 13.7318 14.3569 14.279 13.6092 14.5664C12.375 15.0409 11.0245 14.6683 10.1951 13.7339C10.0067 13.5217 9.84563 13.2801 9.71845 13.0131C9.68348 12.9397 9.65023 12.865 9.62075 12.7877C9.5911 12.7105 9.5659 12.6327 9.54276 12.5546C10.1951 12.25 10.9479 11.9274 11.8013 11.5994C12.6381 11.2776 13.3996 11.0167 14.0776 10.8079C14.5364 10.6668 14.9568 10.5494 15.3364 10.4534C15.3638 10.4465 15.3909 10.4397 15.4178 10.433C15.4752 10.4187 15.5342 10.4494 15.5554 10.5047L15.5558 10.5058C15.5684 10.5385 15.5791 10.5715 15.5907 10.6045C15.6658 10.8172 15.7221 11.0321 15.7592 11.2476C15.7755 11.3418 15.8784 11.3932 15.9627 11.3479C16.2743 11.1803 16.5593 11.0169 16.814 10.8596C17.7631 10.2742 18.2893 9.77766 18.1813 9.49628C18.0735 9.21472 17.3508 9.19858 16.2544 9.39945C15.906 9.46331 15.5196 9.54915 15.1033 9.65542C15.0313 9.67379 14.9585 9.69285 14.8848 9.71242C14.5344 9.80548 14.1649 9.91208 13.7801 10.0314C13.0645 10.2534 12.2968 10.5193 11.5043 10.8241C10.7628 11.1092 10.06 11.4049 9.41558 11.6995C9.40771 10.4491 10.1624 9.26708 11.3966 8.79255C12.1441 8.50516 12.9342 8.52869 13.6257 8.79942C13.6939 8.8262 13.7715 8.80766 13.8214 8.75359C13.9013 8.66688 13.8768 8.52885 13.7731 8.47254C12.8071 7.94943 11.6275 7.83578 10.5218 8.26086Z" fill="white"/>
</svg>
