<svg width="16" height="16" viewBox="0 0 16 16" fill="none" xmlns="http://www.w3.org/2000/svg">
<g clip-path="url(#clip0_201_5)">
<path d="M7.95603 15.9121C12.35 15.9121 15.9121 12.35 15.9121 7.95603C15.9121 3.56204 12.35 0 7.95603 0C3.56204 0 0 3.56204 0 7.95603C0 12.35 3.56204 15.9121 7.95603 15.9121Z" fill="#ED4E33"/>
<path d="M6.5218 4.26086C4.35137 5.0954 4.15255 7.23266 3.5302 8.2308C2.90048 9.2408 1.45781 9.79808 1.65509 10.3128C1.85236 10.8275 3.29675 10.2747 4.43947 10.6031C5.56865 10.9276 7.14415 12.3828 9.31458 11.5482C10.4203 11.1231 11.2209 10.2481 11.5891 9.21162C11.6287 9.10037 11.5546 8.98139 11.4372 8.9704C11.3641 8.96354 11.2941 9.00183 11.2612 9.0674C10.9281 9.7318 10.3569 10.279 9.60922 10.5664C8.37497 11.0409 7.02452 10.6683 6.19511 9.73387C6.00674 9.52167 5.84563 9.28011 5.71845 9.01315C5.68348 8.93967 5.65023 8.86499 5.62075 8.78773C5.5911 8.71048 5.5659 8.63271 5.54276 8.55459C6.19511 8.25003 6.94789 7.92745 7.8013 7.59936C8.63807 7.27763 9.39959 7.01668 10.0776 6.80792C10.5364 6.66679 10.9568 6.54936 11.3364 6.45339C11.3638 6.44652 11.3909 6.43966 11.4178 6.43296C11.4752 6.41872 11.5342 6.44945 11.5554 6.50473L11.5558 6.50575C11.5684 6.53854 11.5791 6.57151 11.5907 6.60447C11.6658 6.81719 11.7221 7.03213 11.7592 7.24759C11.7755 7.34185 11.8784 7.39318 11.9627 7.34786C12.2743 7.18029 12.5593 7.01685 12.814 6.85959C13.7631 6.27416 14.2893 5.77766 14.1813 5.49628C14.0735 5.21472 13.3508 5.19858 12.2544 5.39945C11.906 5.46331 11.5196 5.54915 11.1033 5.65542C11.0313 5.67379 10.9585 5.69285 10.8848 5.71242C10.5344 5.80548 10.1649 5.91208 9.7801 6.0314C9.06451 6.25338 8.2968 6.51932 7.50426 6.82405C6.76278 7.10921 6.06005 7.40485 5.41558 7.69946C5.40771 6.44911 6.16237 5.26708 7.39662 4.79255C8.1441 4.50516 8.93424 4.52869 9.62567 4.79942C9.69388 4.8262 9.77153 4.80766 9.82141 4.75359C9.90128 4.66688 9.87676 4.52885 9.77307 4.47254C8.80706 3.94943 7.62749 3.83578 6.5218 4.26086Z" fill="white"/>
</g>
<defs>
<clipPath id="clip0_201_5">
<rect width="16" height="16" fill="white"/>
</clipPath>
</defs>
</svg>
