<svg viewBox="0 0 18 18" fill="none" xmlns="http://www.w3.org/2000/svg" class="svg-icon"><path d="M7.366 12.792a.745.745 0 0 0-.72.167l-.021.02a4.825 4.825 0 0 0 5.36-.996 4.827 4.827 0 0 0 .997-5.358l-.02.022a.743.743 0 0 0-.167.718 4.393 4.393 0 0 1-1.114 4.313 4.394 4.394 0 0 1-4.315 1.114Z" fill="white"></path><path d="M13.994 7.567a5.267 5.267 0 0 1-1.355 5.065 5.26 5.26 0 0 1-5.08 1.35 2.09 2.09 0 0 0-1.864.375 6.293 6.293 0 0 0 7.71-.96 6.294 6.294 0 0 0 .96-7.706 2.122 2.122 0 0 0-.371 1.876ZM12.45 6.003C14.064 4.313 16.48 1.767 18.001 0c-.354.34-.962.836-1.596 1.33-1.186.922-3.204 1.491-4.543.81C9.148.756 5.735 1.2 3.468 3.466 1.2 5.734.757 9.147 2.139 11.861c.682 1.338.113 3.357-.81 4.543C.838 17.037.343 17.646 0 18l.981-.903.567-.508c3.679-3.298 7.47-7.03 10.901-10.585l.001-.001ZM6.024 3.357c1.932-.998 4.245-.731 5.967.533a.901.901 0 0 1 0 1.274l-.005.005a4.825 4.825 0 0 0-6.815 0 4.825 4.825 0 0 0 0 6.816l-.03.03A.899.899 0 0 1 3.903 12C1.891 9.257 2.598 5.13 6.025 3.358v-.001Zm.194 8.326a.522.522 0 0 1-.74.001l-.003-.004a4.395 4.395 0 0 1 0-6.207 4.395 4.395 0 0 1 6.207 0l.004.003a.53.53 0 0 1-.01.749 1231.07 1231.07 0 0 0-5.458 5.458Z" fill="white"></path></svg>
