<svg viewBox="0 0 16 16" fill="none" xmlns="http://www.w3.org/2000/svg">
<g clip-path="url(#clip0_9637_169924)">
<path d="M7.97126 15.8356C12.2183 15.8356 15.6613 12.3991 15.6613 8.16C15.6613 3.92087 12.2183 0.484375 7.97126 0.484375C3.72418 0.484375 0.28125 3.92087 0.28125 8.16C0.28125 12.3991 3.72418 15.8356 7.97126 15.8356Z" fill="white"/>
<path d="M7.97126 15.6657C12.2183 15.6657 15.6613 12.2292 15.6613 7.99008C15.6613 3.75095 12.2183 0.314453 7.97126 0.314453C3.72418 0.314453 0.28125 3.75095 0.28125 7.99008C0.28125 12.2292 3.72418 15.6657 7.97126 15.6657Z" fill="black" stroke="white" stroke-width="0.566101"/>
<path fill-rule="evenodd" clip-rule="evenodd" d="M8.25559 5.3022C8.25559 5.15472 8.14507 5.03516 8.00873 5.03516C8.00873 5.03516 8.00858 5.03516 8.00844 5.03516C7.87224 5.03516 7.76172 5.15472 7.76172 5.3022C7.76172 6.37829 7.76172 10.3915 7.76172 11.4678C7.76172 11.6153 7.87224 11.7349 8.00844 11.7349C8.00858 11.7349 8.00873 11.7349 8.00873 11.7349C8.14507 11.7349 8.25559 11.6153 8.25559 11.4678C8.25559 10.3915 8.25559 6.37829 8.25559 5.3022Z" fill="white"/>
<path fill-rule="evenodd" clip-rule="evenodd" d="M7.25892 10.384C7.12265 10.3838 7.01204 10.5033 7.01192 10.6508C7.01192 10.6508 7.01192 10.6509 7.01192 10.6511C7.01181 10.7984 7.12224 10.9181 7.25851 10.9182C7.63765 10.9185 8.3592 10.9192 8.73834 10.9195C8.87466 10.9196 8.98527 10.8002 8.98539 10.6529C8.98539 10.6527 8.98539 10.6526 8.98539 10.6526C8.9855 10.5051 8.87507 10.3854 8.73875 10.3853C8.35961 10.385 7.63806 10.3843 7.25892 10.384Z" fill="white"/>
<path fill-rule="evenodd" clip-rule="evenodd" d="M6.03629 6.88988C5.8999 6.88976 5.78938 7.00919 5.78927 7.15667C5.78927 7.15667 5.78927 7.15682 5.78927 7.15698C5.78915 7.30429 5.89949 7.42393 6.03587 7.42405C6.81073 7.42475 9.18905 7.42688 9.9639 7.42758C10.1002 7.4277 10.2108 7.30827 10.2109 7.16095C10.2109 7.1608 10.2109 7.16064 10.2109 7.16064C10.211 7.01317 10.1006 6.89353 9.96431 6.89341C9.18946 6.89271 6.81114 6.89058 6.03629 6.88988Z" fill="white"/>
<path fill-rule="evenodd" clip-rule="evenodd" d="M6.85558 5.54091C6.75908 5.43674 6.6028 5.43693 6.5065 5.54133C6.5065 5.54133 6.50639 5.54144 6.50629 5.54155C6.41009 5.64584 6.41026 5.81491 6.50676 5.91908C7.03826 6.49281 8.63184 8.213 9.16334 8.78673C9.25984 8.8909 9.41613 8.89071 9.51233 8.78642C9.51243 8.78631 9.51253 8.7862 9.51253 8.7862C9.60883 8.6818 9.60867 8.51273 9.51217 8.40856C8.98066 7.83483 7.38709 6.11464 6.85558 5.54091Z" fill="white"/>
<path fill-rule="evenodd" clip-rule="evenodd" d="M6.50407 8.41223C6.40784 8.51669 6.40813 8.68577 6.50471 8.78989C6.50471 8.78989 6.50481 8.79 6.50492 8.79011C6.6014 8.89412 6.75769 8.89384 6.85392 8.78938C7.38392 8.21403 8.97297 6.48901 9.50297 5.91366C9.5992 5.8092 9.59892 5.64013 9.50243 5.53612C9.50233 5.53601 9.50223 5.5359 9.50223 5.5359C9.40564 5.43178 9.24935 5.43206 9.15312 5.53652C8.62312 6.11186 7.03407 7.83688 6.50407 8.41223Z" fill="white"/>
<path d="M7.97485 14.8052C11.7169 14.8052 14.7505 11.7773 14.7505 8.04226C14.7505 4.30718 11.7169 1.2793 7.97485 1.2793C4.23277 1.2793 1.19922 4.30718 1.19922 8.04226C1.19922 11.7773 4.23277 14.8052 7.97485 14.8052Z" stroke="#F0827D" stroke-width="0.325207"/>
</g>
<defs>
<clipPath id="clip0_9637_169924">
<rect width="16" height="16" fill="white"/>
</clipPath>
</defs>
</svg>
