<svg viewBox="0 0 16 16" fill="none" xmlns="http://www.w3.org/2000/svg">
<g clip-path="url(#clip0_9637_169931)">
<path d="M15.1357 3.02313C14.9762 2.41943 14.4637 1.81573 13.541 1.14368C12.8006 0.608327 12.0147 0.300781 11.3882 0.300781C11.2629 0.300781 11.149 0.312171 11.0351 0.334952C10.7503 0.391905 10.4997 0.596936 10.3403 0.904482C10.1466 1.26898 10.1011 1.75878 10.2264 2.05493C10.2719 2.14606 10.3289 2.25996 10.3972 2.36248C9.79353 2.72697 9.45181 2.82949 9.40625 2.84088C10.9782 3.36485 12.2881 4.45834 13.1082 5.88216L13.1196 5.74548C13.1538 5.36959 13.2677 4.93675 13.4271 4.49251C13.5866 4.53808 13.7461 4.56086 13.9055 4.56086C14.327 4.56086 14.6915 4.39 14.9193 4.08245C15.1471 3.77491 15.2382 3.36485 15.1357 3.02313Z" fill="#5E12A0"/>
<path d="M13.4937 4.16423C14.5303 4.449 14.9517 3.65165 14.815 3.1163C14.667 2.58094 14.1885 2.03419 13.3456 1.4191C12.5027 0.804008 11.6484 0.553416 11.1017 0.667322C10.555 0.781227 10.3955 1.61274 10.5322 1.93168C10.5891 2.05697 10.7144 2.23922 10.8853 2.44425C10.6689 2.59233 10.4638 2.70624 10.293 2.80875C11.3409 3.27576 12.2521 4.00476 12.9356 4.91601C13.0153 4.60846 13.1292 4.33509 13.2317 4.09589C13.3115 4.10728 13.4026 4.13006 13.4937 4.16423Z" fill="url(#paint0_radial_9637_169931)"/>
<path d="M7.55874 15.3265C11.0753 15.3265 13.9261 12.4757 13.9261 8.95913C13.9261 5.44255 11.0753 2.5918 7.55874 2.5918C4.04216 2.5918 1.19141 5.44255 1.19141 8.95913C1.19141 12.4757 4.04216 15.3265 7.55874 15.3265Z" fill="url(#paint1_radial_9637_169931)"/>
<path opacity="0.6" d="M14.2894 2.59004C13.4237 1.67879 12.6947 1.43959 11.8176 1.24595C11.1342 1.08648 11.3164 0.699202 12.148 0.778937C11.7493 0.64225 11.3734 0.608078 11.1 0.665031C10.5533 0.778937 10.3938 1.61045 10.5305 1.92939C10.5875 2.05468 10.7127 2.23693 10.8836 2.44196C10.5761 2.64699 10.3141 2.79507 10.0977 2.90898C10.2002 2.95454 10.3255 3.01149 10.4735 3.09122C10.8608 3.29625 11.2823 3.63797 11.2823 3.63797C10.6444 3.09122 10.7811 2.84063 11.6582 2.22554C11.9315 2.0319 12.4327 2.05468 12.8997 2.29388C13.3668 2.53309 13.9135 3.13679 13.9135 3.13679L13.3895 4.13916C13.4237 4.15055 13.4579 4.16194 13.492 4.17333C13.8224 4.26445 14.0844 4.24167 14.2894 4.16194C14.5286 4.01386 15.1551 3.51268 14.2894 2.59004Z" fill="#A98698"/>
<path d="M11.801 1.79261C12.0288 1.88373 12.325 2.0432 12.6895 2.2824C13.1223 2.56717 13.4982 2.8861 13.7374 3.1367C13.3387 3.66066 13.0767 4.37827 12.9173 4.87945C12.997 4.99336 13.0881 5.10727 13.1679 5.22117C13.2476 4.93641 13.3843 4.51496 13.5665 4.0935C13.6121 4.10489 13.669 4.1049 13.726 4.1049C13.8627 4.1049 14.0222 4.08211 14.1475 3.9796C14.2386 3.91125 14.3411 3.78596 14.3297 3.55815C14.3297 3.34173 14.1588 3.06835 13.8057 2.73803C13.5551 2.49882 13.2134 2.23684 12.8717 1.99764C11.8921 1.34837 11.2087 1.16612 10.9011 1.47367C10.6961 1.6787 10.7189 1.92929 10.7872 2.11154C10.4227 2.35075 10.1152 2.5216 9.91016 2.63551C10.0468 2.68107 10.1721 2.73803 10.3088 2.79498C10.6733 2.60134 11.1973 2.27101 11.801 1.79261ZM13.9538 3.42146C13.988 3.47841 13.9994 3.53537 13.9994 3.56954C13.9994 3.67205 13.9652 3.70622 13.9424 3.72901C13.8969 3.76318 13.8057 3.78596 13.726 3.78596C13.7943 3.64927 13.8741 3.53537 13.9538 3.42146ZM11.1403 1.72426C11.1745 1.69009 11.2656 1.66731 11.4137 1.69009C11.2998 1.78122 11.1859 1.86095 11.072 1.94068C11.0606 1.86095 11.072 1.78122 11.1403 1.72426Z" fill="#5E12A0"/>
<path d="M7.56354 2.21484C3.83882 2.21484 0.820312 5.23335 0.820312 8.95807C0.820312 12.6828 3.83882 15.7013 7.56354 15.7013C11.2883 15.7013 14.3068 12.6828 14.3068 8.95807C14.3068 5.23335 11.2769 2.21484 7.56354 2.21484ZM7.56354 15.3254C4.04385 15.3254 1.1962 12.4778 1.1962 8.95807C1.1962 5.43838 4.04385 2.59073 7.56354 2.59073C11.0832 2.59073 13.9309 5.43838 13.9309 8.95807C13.9309 12.4778 11.0718 15.3254 7.56354 15.3254Z" fill="#5E12A0"/>
<path opacity="0.6" d="M7.56265 15.3245C11.0792 15.3245 13.93 12.4738 13.93 8.95718C13.93 5.4406 11.0792 2.58984 7.56265 2.58984C4.04606 2.58984 1.19531 5.4406 1.19531 8.95718C1.19531 12.4738 4.04606 15.3245 7.56265 15.3245Z" fill="url(#paint2_linear_9637_169931)"/>
<path opacity="0.6" d="M7.50742 14.5495C4.03329 13.9914 1.67544 10.7223 2.24497 7.24814C2.49556 5.71041 3.27012 4.4005 4.36362 3.45508C2.76894 4.37772 1.58432 5.98379 1.26538 7.94297C0.707242 11.4171 3.06509 14.6862 6.52783 15.2443C8.46423 15.5633 10.3323 14.9596 11.7105 13.7749C10.4918 14.4812 9.01098 14.7887 7.50742 14.5495Z" fill="#A98698"/>
<path opacity="0.6" d="M8.5742 2.68157C6.96812 2.41959 5.40762 2.78409 4.13187 3.59282C4.10909 3.6156 4.08631 3.63838 4.08631 3.63838C4.5761 3.34222 5.29371 3.08024 5.29371 3.08024C3.44843 4.15096 2.87891 5.36975 2.87891 5.36975C3.59651 3.9801 5.70377 3.00051 7.3554 2.93216C9.00704 2.86382 10.0891 3.35361 11.4105 4.41294C12.7318 5.48365 13.5291 7.67065 13.4494 9.40201C13.381 11.1334 12.4698 12.5344 12.4698 12.5344C13.0963 11.7257 13.4721 11.1334 13.7113 10.5297C13.7569 10.3474 13.8025 10.1652 13.8253 9.97154C14.3948 6.50881 12.0483 3.23971 8.5742 2.68157Z" fill="url(#paint3_linear_9637_169931)"/>
<path d="M13.6043 8.90039C13.6043 12.2378 10.8933 14.9488 7.55588 14.9488C4.21844 14.9488 1.49609 12.2378 1.49609 8.90039H13.6043Z" fill="url(#paint4_linear_9637_169931)"/>
<g opacity="0.6">
<path opacity="0.6" d="M13.1295 8.90039C13.1295 12.1581 10.5552 14.8235 7.32031 14.9488C7.40005 14.9488 7.47978 14.9488 7.55951 14.9488C10.897 14.9488 13.6079 12.2378 13.6079 8.90039H13.1295Z" fill="url(#paint5_linear_9637_169931)"/>
</g>
<g opacity="0.7">
<path opacity="0.7" d="M2.35039 8.90039H1.49609C1.49609 12.2378 4.20705 14.9488 7.54449 14.9488C7.69257 14.9488 7.82926 14.9488 7.96594 14.9374C4.83353 14.7096 2.35039 12.0898 2.35039 8.90039Z" fill="url(#paint6_linear_9637_169931)"/>
</g>
<path d="M13.5929 8.95689C13.5929 8.26206 12.3855 7.8634 10.7794 7.72671C9.61758 7.63558 8.44435 7.74949 7.10026 8.15955C5.93842 8.50127 4.89049 8.44431 4.12732 8.35319C2.43012 8.15955 1.49609 8.13677 1.49609 8.95689C1.49609 10.1415 3.9109 11.6223 7.5331 11.1097C9.36699 10.8477 10.3124 10.3124 11.3945 9.94787C12.5677 9.56059 13.5929 9.57198 13.5929 8.95689Z" fill="url(#paint7_linear_9637_169931)"/>
<path d="M9.54078 6.08741C10.107 6.08741 10.5659 5.62844 10.5659 5.06226C10.5659 4.49609 10.107 4.03711 9.54078 4.03711C8.9746 4.03711 8.51562 4.49609 8.51562 5.06226C8.51562 5.62844 8.9746 6.08741 9.54078 6.08741Z" fill="white" fill-opacity="0.87"/>
<path d="M11.218 6.85006C11.4571 6.85006 11.6508 6.65627 11.6508 6.41722C11.6508 6.17817 11.4571 5.98438 11.218 5.98438C10.9789 5.98438 10.7852 6.17817 10.7852 6.41722C10.7852 6.65627 10.9789 6.85006 11.218 6.85006Z" fill="white" fill-opacity="0.87"/>
<g opacity="0.6">
<path opacity="0.6" d="M12.7716 4.24189C12.7602 4.24189 12.7488 4.24189 12.7488 4.24189C12.6804 4.2305 12.6349 4.16216 12.6463 4.08243C12.7488 3.55846 13.1816 3.05727 13.2044 3.03449C13.25 2.97754 13.3411 2.97754 13.3867 3.0231C13.4436 3.06866 13.4436 3.15979 13.3981 3.20535C13.3867 3.21674 12.988 3.68376 12.8969 4.13938C12.8855 4.20772 12.8285 4.24189 12.7716 4.24189Z" fill="url(#paint8_linear_9637_169931)"/>
</g>
<path opacity="0.2" d="M7.13925 13.7062C7.31539 13.7062 7.45819 13.5634 7.45819 13.3873C7.45819 13.2112 7.31539 13.0684 7.13925 13.0684C6.96311 13.0684 6.82031 13.2112 6.82031 13.3873C6.82031 13.5634 6.96311 13.7062 7.13925 13.7062Z" fill="white" fill-opacity="0.87"/>
<g opacity="0.4">
<path opacity="0.6" d="M6.96375 13.5927C6.83846 13.4674 6.83846 13.2623 6.96375 13.137C6.98653 13.1142 7.00932 13.1029 7.0321 13.0801C6.98653 13.0915 6.95236 13.1142 6.91819 13.1484C6.79289 13.2737 6.79289 13.4787 6.91819 13.604C7.02071 13.7066 7.18017 13.7293 7.30547 13.661C7.19156 13.7066 7.05488 13.6838 6.96375 13.5927Z" fill="url(#paint9_linear_9637_169931)"/>
</g>
<path opacity="0.3" d="M7.25194 13.2949C7.28968 13.2949 7.32028 13.2643 7.32028 13.2265C7.32028 13.1888 7.28968 13.1582 7.25194 13.1582C7.21419 13.1582 7.18359 13.1888 7.18359 13.2265C7.18359 13.2643 7.21419 13.2949 7.25194 13.2949Z" fill="white" fill-opacity="0.87"/>
<path opacity="0.2" d="M8.80331 13.548C8.97946 13.548 9.12225 13.4052 9.12225 13.2291C9.12225 13.0529 8.97946 12.9102 8.80331 12.9102C8.62717 12.9102 8.48438 13.0529 8.48438 13.2291C8.48438 13.4052 8.62717 13.548 8.80331 13.548Z" fill="white" fill-opacity="0.87"/>
<g opacity="0.4">
<path opacity="0.6" d="M8.62782 13.4345C8.50252 13.3092 8.50252 13.1041 8.62782 12.9788C8.6506 12.956 8.67338 12.9447 8.69616 12.9219C8.6506 12.9333 8.61643 12.956 8.58225 12.9902C8.45696 13.1155 8.45696 13.3205 8.58225 13.4458C8.68477 13.5484 8.84424 13.5711 8.96953 13.5028C8.85563 13.5484 8.71894 13.5256 8.62782 13.4345Z" fill="url(#paint10_linear_9637_169931)"/>
</g>
<path opacity="0.3" d="M8.916 13.1367C8.95375 13.1367 8.98434 13.1061 8.98434 13.0683C8.98434 13.0306 8.95375 13 8.916 13C8.87826 13 8.84766 13.0306 8.84766 13.0683C8.84766 13.1061 8.87826 13.1367 8.916 13.1367Z" fill="white" fill-opacity="0.87"/>
<path opacity="0.2" d="M7.96967 14.289C8.10178 14.289 8.20887 14.1819 8.20887 14.0497C8.20887 13.9176 8.10178 13.8105 7.96967 13.8105C7.83756 13.8105 7.73047 13.9176 7.73047 14.0497C7.73047 14.1819 7.83756 14.289 7.96967 14.289Z" fill="white" fill-opacity="0.87"/>
<g opacity="0.4">
<path opacity="0.6" d="M7.83298 14.1962C7.74186 14.1051 7.74186 13.9456 7.83298 13.8545C7.84437 13.8431 7.86716 13.8317 7.87855 13.8203C7.84438 13.8317 7.82159 13.8545 7.79881 13.8773C7.70769 13.9684 7.70769 14.1279 7.79881 14.219C7.87855 14.2987 7.99245 14.3101 8.09497 14.2532C8.00384 14.2873 7.90133 14.2645 7.83298 14.1962Z" fill="url(#paint11_linear_9637_169931)"/>
</g>
<path opacity="0.3" d="M8.05338 13.97C8.07854 13.97 8.09894 13.9496 8.09894 13.9245C8.09894 13.8993 8.07854 13.8789 8.05338 13.8789C8.02821 13.8789 8.00781 13.8993 8.00781 13.9245C8.00781 13.9496 8.02821 13.97 8.05338 13.97Z" fill="white" fill-opacity="0.87"/>
<path opacity="0.2" d="M9.45014 14.1171C9.58225 14.1171 9.68934 14.01 9.68934 13.8779C9.68934 13.7458 9.58225 13.6387 9.45014 13.6387C9.31803 13.6387 9.21094 13.7458 9.21094 13.8779C9.21094 14.01 9.31803 14.1171 9.45014 14.1171Z" fill="white" fill-opacity="0.87"/>
<g opacity="0.4">
<path opacity="0.6" d="M9.31736 14.0263C9.22623 13.9352 9.22623 13.7757 9.31736 13.6846C9.32875 13.6732 9.35153 13.6618 9.36292 13.6504C9.32875 13.6618 9.30597 13.6846 9.28319 13.7073C9.19206 13.7985 9.19206 13.9579 9.28319 14.0491C9.36292 14.1288 9.47683 14.1402 9.57934 14.0832C9.48822 14.1174 9.3857 14.0946 9.31736 14.0263Z" fill="url(#paint12_linear_9637_169931)"/>
</g>
<path opacity="0.3" d="M9.52994 13.7982C9.5551 13.7982 9.5755 13.7778 9.5755 13.7526C9.5755 13.7274 9.5551 13.707 9.52994 13.707C9.50477 13.707 9.48438 13.7274 9.48438 13.7526C9.48438 13.7778 9.50477 13.7982 9.52994 13.7982Z" fill="white" fill-opacity="0.87"/>
<path opacity="0.2" d="M5.78178 13.5948C6.07116 13.5948 6.30575 13.3602 6.30575 13.0708C6.30575 12.7815 6.07116 12.5469 5.78178 12.5469C5.4924 12.5469 5.25781 12.7815 5.25781 13.0708C5.25781 13.3602 5.4924 13.5948 5.78178 13.5948Z" fill="white" fill-opacity="0.87"/>
<g opacity="0.4">
<path opacity="0.6" d="M5.48384 13.4022C5.27881 13.1971 5.27881 12.8668 5.48384 12.6618C5.51801 12.6276 5.55218 12.6048 5.59774 12.582C5.5294 12.6048 5.47244 12.6504 5.41549 12.6959C5.21046 12.901 5.21046 13.2313 5.41549 13.4363C5.58635 13.6072 5.84833 13.6414 6.05336 13.5161C5.85972 13.5958 5.63191 13.5616 5.48384 13.4022Z" fill="url(#paint13_linear_9637_169931)"/>
</g>
<path opacity="0.3" d="M5.96156 12.9114C6.02447 12.9114 6.07547 12.8604 6.07547 12.7975C6.07547 12.7346 6.02447 12.6836 5.96156 12.6836C5.89865 12.6836 5.84766 12.7346 5.84766 12.7975C5.84766 12.8604 5.89865 12.9114 5.96156 12.9114Z" fill="white" fill-opacity="0.87"/>
<path opacity="0.2" d="M10.4615 12.3057C10.7508 12.3057 10.9854 12.0712 10.9854 11.7818C10.9854 11.4924 10.7508 11.2578 10.4615 11.2578C10.1721 11.2578 9.9375 11.4924 9.9375 11.7818C9.9375 12.0712 10.1721 12.3057 10.4615 12.3057Z" fill="white" fill-opacity="0.87"/>
<g opacity="0.4">
<path opacity="0.6" d="M10.1557 12.1111C9.95068 11.9061 9.95068 11.5758 10.1557 11.3708C10.1899 11.3366 10.2241 11.3138 10.2696 11.291C10.2013 11.3138 10.1443 11.3594 10.0874 11.4049C9.88234 11.61 9.88234 11.9403 10.0874 12.1453C10.2582 12.3162 10.5202 12.3503 10.7252 12.225C10.5316 12.3048 10.3152 12.2706 10.1557 12.1111Z" fill="url(#paint14_linear_9637_169931)"/>
</g>
<path opacity="0.3" d="M10.6491 11.6223C10.712 11.6223 10.763 11.5713 10.763 11.5084C10.763 11.4455 10.712 11.3945 10.6491 11.3945C10.5862 11.3945 10.5352 11.4455 10.5352 11.5084C10.5352 11.5713 10.5862 11.6223 10.6491 11.6223Z" fill="white" fill-opacity="0.87"/>
</g>
<defs>
<radialGradient id="paint0_radial_9637_169931" cx="0" cy="0" r="1" gradientUnits="userSpaceOnUse" gradientTransform="translate(14.6073 2.39868) scale(5.09095)">
<stop stop-color="#FFEAFF" stop-opacity="0.6"/>
<stop offset="0.6807" stop-color="#A087C9"/>
<stop offset="1" stop-color="#10002F"/>
</radialGradient>
<radialGradient id="paint1_radial_9637_169931" cx="0" cy="0" r="1" gradientUnits="userSpaceOnUse" gradientTransform="translate(11.7745 4.56936) scale(12.4557)">
<stop stop-color="#FFEAFF" stop-opacity="0.6"/>
<stop offset="0.6807" stop-color="#A087C9"/>
<stop offset="1" stop-color="#10002F"/>
</radialGradient>
<linearGradient id="paint2_linear_9637_169931" x1="6.54128" y1="15.2342" x2="8.57788" y2="2.66961" gradientUnits="userSpaceOnUse">
<stop stop-color="#81FFFF"/>
<stop offset="0.6202" stop-color="white" stop-opacity="0"/>
</linearGradient>
<linearGradient id="paint3_linear_9637_169931" x1="12.0478" y1="4.63353" x2="6.78257" y2="9.46449" gradientUnits="userSpaceOnUse">
<stop offset="0.2888" stop-color="white"/>
<stop offset="0.7796" stop-color="white" stop-opacity="0"/>
</linearGradient>
<linearGradient id="paint4_linear_9637_169931" x1="1.50122" y1="11.9211" x2="13.6013" y2="11.9211" gradientUnits="userSpaceOnUse">
<stop stop-color="#0002E9"/>
<stop offset="0.9952" stop-color="#FF00C7"/>
</linearGradient>
<linearGradient id="paint5_linear_9637_169931" x1="14.1778" y1="9.43113" x2="7.59172" y2="15.6553" gradientUnits="userSpaceOnUse">
<stop offset="0.2888" stop-color="white"/>
<stop offset="0.7796" stop-color="white" stop-opacity="0"/>
</linearGradient>
<linearGradient id="paint6_linear_9637_169931" x1="1.50122" y1="11.921" x2="7.97473" y2="11.921" gradientUnits="userSpaceOnUse">
<stop stop-color="#000292"/>
<stop offset="0.9952" stop-color="#7D00C7"/>
</linearGradient>
<linearGradient id="paint7_linear_9637_169931" x1="1.50934" y1="9.45936" x2="13.5932" y2="9.45936" gradientUnits="userSpaceOnUse">
<stop stop-color="#000292"/>
<stop offset="0.9952" stop-color="#BE00C7"/>
</linearGradient>
<linearGradient id="paint8_linear_9637_169931" x1="13.4051" y1="2.97902" x2="12.5367" y2="4.39031" gradientUnits="userSpaceOnUse">
<stop offset="0.2888" stop-color="white"/>
<stop offset="0.7796" stop-color="white" stop-opacity="0"/>
</linearGradient>
<linearGradient id="paint9_linear_9637_169931" x1="6.8239" y1="13.3974" x2="7.30582" y2="13.3974" gradientUnits="userSpaceOnUse">
<stop offset="0.2888" stop-color="white"/>
<stop offset="0.7796" stop-color="white" stop-opacity="0"/>
</linearGradient>
<linearGradient id="paint10_linear_9637_169931" x1="8.4868" y1="13.237" x2="8.96872" y2="13.237" gradientUnits="userSpaceOnUse">
<stop offset="0.2888" stop-color="white"/>
<stop offset="0.7796" stop-color="white" stop-opacity="0"/>
</linearGradient>
<linearGradient id="paint11_linear_9637_169931" x1="7.72898" y1="14.0508" x2="8.09078" y2="14.0508" gradientUnits="userSpaceOnUse">
<stop offset="0.2888" stop-color="white"/>
<stop offset="0.7796" stop-color="white" stop-opacity="0"/>
</linearGradient>
<linearGradient id="paint12_linear_9637_169931" x1="9.20843" y1="13.8805" x2="9.57023" y2="13.8805" gradientUnits="userSpaceOnUse">
<stop offset="0.2888" stop-color="white"/>
<stop offset="0.7796" stop-color="white" stop-opacity="0"/>
</linearGradient>
<linearGradient id="paint13_linear_9637_169931" x1="5.25649" y1="13.0852" x2="6.04351" y2="13.0852" gradientUnits="userSpaceOnUse">
<stop offset="0.2888" stop-color="white"/>
<stop offset="0.7796" stop-color="white" stop-opacity="0"/>
</linearGradient>
<linearGradient id="paint14_linear_9637_169931" x1="9.93273" y1="11.7938" x2="10.7197" y2="11.7938" gradientUnits="userSpaceOnUse">
<stop offset="0.2888" stop-color="white"/>
<stop offset="0.7796" stop-color="white" stop-opacity="0"/>
</linearGradient>
<clipPath id="clip0_9637_169931">
<rect width="16" height="16" fill="white"/>
</clipPath>
</defs>
</svg>
