<svg viewBox="0 0 46 46" fill="none" xmlns="http://www.w3.org/2000/svg">
<rect width="46" height="46" rx="23" fill="url(#paint0_linear_11243_191375)" fill-opacity="0.2"/>
<path d="M33.8954 15.4002C33.6518 14.4781 32.8689 13.556 31.4598 12.5296C30.3289 11.7119 29.1285 11.2422 28.1717 11.2422C27.9803 11.2422 27.8063 11.2596 27.6324 11.2944C27.1974 11.3814 26.8147 11.6945 26.5711 12.1642C26.2754 12.721 26.2058 13.469 26.3971 13.9214C26.4667 14.0606 26.5537 14.2345 26.6581 14.3911C25.736 14.9478 25.2141 15.1044 25.1445 15.1218C27.5454 15.9221 29.5461 17.5922 30.7987 19.7669L30.8161 19.5581C30.8683 18.984 31.0422 18.3229 31.2858 17.6444C31.5294 17.714 31.7729 17.7488 32.0165 17.7488C32.6602 17.7488 33.2169 17.4878 33.5648 17.0181C33.9128 16.5484 34.052 15.9221 33.8954 15.4002Z" fill="#5E12A0"/>
<path d="M31.3808 17.1435C32.964 17.5784 33.6077 16.3606 33.3989 15.5429C33.1728 14.7252 32.4421 13.8902 31.1547 12.9507C29.8673 12.0113 28.5625 11.6285 27.7274 11.8025C26.8923 11.9765 26.6488 13.2465 26.8575 13.7336C26.9445 13.925 27.1359 14.2033 27.3968 14.5165C27.0663 14.7426 26.7531 14.9166 26.4922 15.0732C28.0927 15.7865 29.4845 16.8999 30.5284 18.2917C30.6501 17.822 30.8241 17.4044 30.9807 17.0391C31.1025 17.0565 31.2417 17.0913 31.3808 17.1435Z" fill="url(#paint1_radial_11243_191375)"/>
<path d="M22.3228 34.1885C27.6938 34.1885 32.0479 29.8344 32.0479 24.4634C32.0479 19.0924 27.6938 14.7383 22.3228 14.7383C16.9517 14.7383 12.5977 19.0924 12.5977 24.4634C12.5977 29.8344 16.9517 34.1885 22.3228 34.1885Z" fill="url(#paint2_radial_11243_191375)"/>
<path opacity="0.6" d="M32.6053 14.7382C31.2831 13.3464 30.1697 12.9811 28.8301 12.6853C27.7863 12.4418 28.0646 11.8503 29.3346 11.972C28.7257 11.7633 28.1516 11.7111 27.7341 11.7981C26.899 11.972 26.6555 13.242 26.8642 13.7292C26.9512 13.9205 27.1426 14.1989 27.4035 14.5121C26.9338 14.8252 26.5337 15.0514 26.2031 15.2253C26.3597 15.2949 26.5511 15.3819 26.7772 15.5037C27.3687 15.8169 28.0124 16.3388 28.0124 16.3388C27.0382 15.5037 27.247 15.121 28.5866 14.1815C29.0041 13.8858 29.7696 13.9205 30.4829 14.2859C31.1962 14.6512 32.0312 15.5733 32.0312 15.5733L31.231 17.1043C31.2831 17.1217 31.3353 17.1391 31.3875 17.1564C31.8921 17.2956 32.2922 17.2608 32.6053 17.1391C32.9707 16.9129 33.9275 16.1474 32.6053 14.7382Z" fill="#A98698"/>
<path d="M28.802 13.518C29.15 13.6572 29.6023 13.9008 30.159 14.2661C30.8201 14.701 31.3942 15.1882 31.7596 15.5709C31.1507 16.3712 30.7505 17.4672 30.507 18.2327C30.6287 18.4067 30.7679 18.5806 30.8897 18.7546C31.0115 18.3197 31.2203 17.676 31.4986 17.0323C31.5682 17.0497 31.6552 17.0497 31.7422 17.0497C31.9509 17.0497 32.1945 17.0149 32.3859 16.8583C32.5251 16.7539 32.6816 16.5626 32.6642 16.2146C32.6642 15.8841 32.4033 15.4665 31.864 14.962C31.4812 14.5967 30.9593 14.1965 30.4374 13.8312C28.9412 12.8395 27.8974 12.5612 27.4276 13.0309C27.1145 13.344 27.1493 13.7268 27.2537 14.0051C26.6969 14.3705 26.2272 14.6314 25.9141 14.8054C26.1228 14.875 26.3142 14.962 26.523 15.049C27.0797 14.7532 27.88 14.2487 28.802 13.518ZM32.0901 16.0058C32.1423 16.0928 32.1597 16.1798 32.1597 16.232C32.1597 16.3886 32.1075 16.4408 32.0727 16.4756C32.0031 16.5278 31.864 16.5626 31.7422 16.5626C31.8466 16.3538 31.9683 16.1798 32.0901 16.0058ZM27.793 13.4136C27.8452 13.3614 27.9843 13.3266 28.2105 13.3614C28.0365 13.5006 27.8626 13.6224 27.6886 13.7442C27.6712 13.6224 27.6886 13.5006 27.793 13.4136Z" fill="#5E12A0"/>
<path d="M22.3305 14.1641C16.6415 14.1641 12.0312 18.7744 12.0312 24.4633C12.0312 30.1522 16.6415 34.7625 22.3305 34.7625C28.0194 34.7625 32.6297 30.1522 32.6297 24.4633C32.6297 18.7744 28.002 14.1641 22.3305 14.1641ZM22.3305 34.1884C16.9547 34.1884 12.6054 29.8391 12.6054 24.4633C12.6054 19.0875 16.9547 14.7382 22.3305 14.7382C27.7062 14.7382 32.0556 19.0875 32.0556 24.4633C32.0556 29.8391 27.6888 34.1884 22.3305 34.1884Z" fill="#5E12A0"/>
<path opacity="0.6" d="M22.3306 34.1885C27.7016 34.1885 32.0557 29.8344 32.0557 24.4634C32.0557 19.0924 27.7016 14.7383 22.3306 14.7383C16.9595 14.7383 12.6055 19.0924 12.6055 24.4634C12.6055 29.8344 16.9595 34.1885 22.3306 34.1885Z" fill="url(#paint3_linear_11243_191375)"/>
<path opacity="0.6" d="M22.2485 33.0036C16.9423 32.1511 13.3411 27.1581 14.2109 21.8519C14.5937 19.5033 15.7767 17.5026 17.4468 16.0586C15.0112 17.4678 13.2019 19.9208 12.7148 22.9131C11.8623 28.2193 15.4635 33.2124 20.7523 34.0648C23.7099 34.552 26.563 33.6299 28.6681 31.8206C26.8066 32.8992 24.5449 33.3689 22.2485 33.0036Z" fill="#A98698"/>
<path opacity="0.6" d="M23.8744 14.8743C21.4214 14.4741 19.038 15.0308 17.0895 16.266C17.0547 16.3008 17.0199 16.3356 17.0199 16.3356C17.768 15.8833 18.864 15.4832 18.864 15.4832C16.0456 17.1185 15.1758 18.98 15.1758 18.98C16.2718 16.8576 19.4903 15.3614 22.0129 15.257C24.5355 15.1526 26.1883 15.9007 28.2064 17.5187C30.2245 19.154 31.4423 22.4943 31.3205 25.1387C31.2161 27.7831 29.8243 29.923 29.8243 29.923C30.7812 28.6877 31.3553 27.7831 31.7206 26.861C31.7902 26.5827 31.8598 26.3043 31.8946 26.0086C32.7645 20.7198 29.1806 15.7267 23.8744 14.8743Z" fill="url(#paint4_linear_11243_191375)"/>
<path d="M31.5598 24.375C31.5598 29.4724 27.4192 33.613 22.3218 33.613C17.2244 33.613 13.0664 29.4724 13.0664 24.375H31.5598Z" fill="url(#paint5_linear_11243_191375)"/>
<g opacity="0.6">
<path opacity="0.6" d="M30.8336 24.3789C30.8336 29.3545 26.9018 33.4255 21.9609 33.6169C22.0827 33.6169 22.2045 33.6169 22.3263 33.6169C27.4237 33.6169 31.5643 29.4763 31.5643 24.3789H30.8336Z" fill="url(#paint6_linear_11243_191375)"/>
</g>
<g opacity="0.7">
<path opacity="0.7" d="M14.3712 24.3789H13.0664C13.0664 29.4763 17.207 33.6169 22.3044 33.6169C22.5306 33.6169 22.7393 33.6169 22.9481 33.5995C18.1638 33.2515 14.3712 29.2502 14.3712 24.3789Z" fill="url(#paint7_linear_11243_191375)"/>
</g>
<path d="M31.5424 24.4629C31.5424 23.4017 29.6983 22.7928 27.2452 22.584C25.4707 22.4449 23.6788 22.6188 21.6259 23.2451C19.8514 23.767 18.2508 23.6801 17.0852 23.5409C14.493 23.2451 13.0664 23.2103 13.0664 24.4629C13.0664 26.2723 16.7546 28.5339 22.287 27.751C25.088 27.3509 26.5319 26.5332 28.1847 25.9765C29.9766 25.385 31.5424 25.4024 31.5424 24.4629Z" fill="url(#paint8_linear_11243_191375)"/>
<path d="M25.3548 20.0768C26.2196 20.0768 26.9206 19.3758 26.9206 18.5111C26.9206 17.6463 26.2196 16.9453 25.3548 16.9453C24.4901 16.9453 23.7891 17.6463 23.7891 18.5111C23.7891 19.3758 24.4901 20.0768 25.3548 20.0768Z" fill="white" fill-opacity="0.87"/>
<path d="M27.9111 21.2441C28.2762 21.2441 28.5722 20.9481 28.5722 20.583C28.5722 20.2179 28.2762 19.9219 27.9111 19.9219C27.546 19.9219 27.25 20.2179 27.25 20.583C27.25 20.9481 27.546 21.2441 27.9111 21.2441Z" fill="white" fill-opacity="0.87"/>
<g opacity="0.6">
<path opacity="0.6" d="M30.2839 17.2594C30.2665 17.2594 30.2491 17.2594 30.2491 17.2594C30.1447 17.242 30.0751 17.1376 30.0925 17.0158C30.2491 16.2155 30.9102 15.45 30.945 15.4153C31.0146 15.3283 31.1537 15.3283 31.2233 15.3979C31.3103 15.4674 31.3103 15.6066 31.2407 15.6762C31.2233 15.6936 30.6144 16.4069 30.4752 17.1028C30.4579 17.2072 30.3709 17.2594 30.2839 17.2594Z" fill="url(#paint9_linear_11243_191375)"/>
</g>
<path opacity="0.2" d="M21.6824 31.7164C21.9515 31.7164 22.1696 31.4983 22.1696 31.2293C22.1696 30.9603 21.9515 30.7422 21.6824 30.7422C21.4134 30.7422 21.1953 30.9603 21.1953 31.2293C21.1953 31.4983 21.4134 31.7164 21.6824 31.7164Z" fill="white" fill-opacity="0.87"/>
<g opacity="0.4">
<path opacity="0.6" d="M21.4123 31.5407C21.221 31.3493 21.221 31.0362 21.4123 30.8448C21.4471 30.81 21.4819 30.7926 21.5167 30.7578C21.4471 30.7752 21.3949 30.81 21.3427 30.8622C21.1514 31.0536 21.1514 31.3667 21.3427 31.5581C21.4993 31.7147 21.7429 31.7495 21.9343 31.6451C21.7603 31.7147 21.5515 31.6799 21.4123 31.5407Z" fill="url(#paint10_linear_11243_191375)"/>
</g>
<path opacity="0.3" d="M21.8544 31.0877C21.912 31.0877 21.9588 31.0409 21.9588 30.9833C21.9588 30.9256 21.912 30.8789 21.8544 30.8789C21.7967 30.8789 21.75 30.9256 21.75 30.9833C21.75 31.0409 21.7967 31.0877 21.8544 31.0877Z" fill="white" fill-opacity="0.87"/>
<path opacity="0.2" d="M24.2254 31.4743C24.4944 31.4743 24.7125 31.2562 24.7125 30.9871C24.7125 30.7181 24.4944 30.5 24.2254 30.5C23.9564 30.5 23.7383 30.7181 23.7383 30.9871C23.7383 31.2562 23.9564 31.4743 24.2254 31.4743Z" fill="white" fill-opacity="0.87"/>
<g opacity="0.4">
<path opacity="0.6" d="M23.9514 31.3024C23.76 31.111 23.76 30.7979 23.9514 30.6065C23.9862 30.5717 24.021 30.5543 24.0558 30.5195C23.9862 30.5369 23.934 30.5717 23.8818 30.6239C23.6904 30.8153 23.6904 31.1284 23.8818 31.3198C24.0384 31.4764 24.2819 31.5112 24.4733 31.4068C24.2993 31.4764 24.0906 31.4416 23.9514 31.3024Z" fill="url(#paint11_linear_11243_191375)"/>
</g>
<path opacity="0.3" d="M24.3974 30.8455C24.455 30.8455 24.5017 30.7988 24.5017 30.7411C24.5017 30.6835 24.455 30.6367 24.3974 30.6367C24.3397 30.6367 24.293 30.6835 24.293 30.7411C24.293 30.7988 24.3397 30.8455 24.3974 30.8455Z" fill="white" fill-opacity="0.87"/>
<path opacity="0.2" d="M22.9591 32.6057C23.1609 32.6057 23.3244 32.4421 23.3244 32.2403C23.3244 32.0386 23.1609 31.875 22.9591 31.875C22.7573 31.875 22.5938 32.0386 22.5938 32.2403C22.5938 32.4421 22.7573 32.6057 22.9591 32.6057Z" fill="white" fill-opacity="0.87"/>
<g opacity="0.4">
<path opacity="0.6" d="M22.7464 32.4647C22.6072 32.3256 22.6072 32.082 22.7464 31.9428C22.7638 31.9254 22.7986 31.908 22.816 31.8906C22.7638 31.908 22.729 31.9428 22.6942 31.9776C22.555 32.1168 22.555 32.3604 22.6942 32.4995C22.816 32.6213 22.99 32.6387 23.1466 32.5517C23.0074 32.6039 22.8508 32.5691 22.7464 32.4647Z" fill="url(#paint12_linear_11243_191375)"/>
</g>
<path opacity="0.3" d="M23.0813 32.1196C23.1197 32.1196 23.1509 32.0885 23.1509 32.0501C23.1509 32.0116 23.1197 31.9805 23.0813 31.9805C23.0429 31.9805 23.0117 32.0116 23.0117 32.0501C23.0117 32.0885 23.0429 32.1196 23.0813 32.1196Z" fill="white" fill-opacity="0.87"/>
<path opacity="0.2" d="M25.213 32.344C25.4148 32.344 25.5783 32.1804 25.5783 31.9786C25.5783 31.7769 25.4148 31.6133 25.213 31.6133C25.0112 31.6133 24.8477 31.7769 24.8477 31.9786C24.8477 32.1804 25.0112 32.344 25.213 32.344Z" fill="white" fill-opacity="0.87"/>
<g opacity="0.4">
<path opacity="0.6" d="M25.0042 32.2069C24.8651 32.0677 24.8651 31.8242 25.0042 31.685C25.0216 31.6676 25.0564 31.6502 25.0738 31.6328C25.0216 31.6502 24.9868 31.685 24.952 31.7198C24.8129 31.859 24.8129 32.1025 24.952 32.2417C25.0738 32.3635 25.2478 32.3809 25.4044 32.2939C25.2652 32.3461 25.1086 32.3113 25.0042 32.2069Z" fill="url(#paint13_linear_11243_191375)"/>
</g>
<path opacity="0.3" d="M25.3352 31.8579C25.3736 31.8579 25.4048 31.8268 25.4048 31.7883C25.4048 31.7499 25.3736 31.7188 25.3352 31.7188C25.2968 31.7188 25.2656 31.7499 25.2656 31.7883C25.2656 31.8268 25.2968 31.8579 25.3352 31.8579Z" fill="white" fill-opacity="0.87"/>
<path opacity="0.2" d="M19.6167 31.542C20.0587 31.542 20.417 31.1837 20.417 30.7417C20.417 30.2997 20.0587 29.9414 19.6167 29.9414C19.1747 29.9414 18.8164 30.2997 18.8164 30.7417C18.8164 31.1837 19.1747 31.542 19.6167 31.542Z" fill="white" fill-opacity="0.87"/>
<g opacity="0.4">
<path opacity="0.6" d="M19.1596 31.2487C18.8464 30.9355 18.8464 30.431 19.1596 30.1179C19.2118 30.0657 19.2639 30.0309 19.3335 29.9961C19.2292 30.0309 19.1422 30.1005 19.0552 30.1701C18.742 30.4832 18.742 30.9877 19.0552 31.3009C19.3161 31.5619 19.7163 31.614 20.0294 31.4227C19.7337 31.5445 19.3857 31.4923 19.1596 31.2487Z" fill="url(#paint14_linear_11243_191375)"/>
</g>
<path opacity="0.3" d="M19.8888 30.5003C19.9849 30.5003 20.0628 30.4224 20.0628 30.3263C20.0628 30.2302 19.9849 30.1523 19.8888 30.1523C19.7927 30.1523 19.7148 30.2302 19.7148 30.3263C19.7148 30.4224 19.7927 30.5003 19.8888 30.5003Z" fill="white" fill-opacity="0.87"/>
<path opacity="0.2" d="M26.7573 29.5771C27.1993 29.5771 27.5576 29.2188 27.5576 28.7768C27.5576 28.3349 27.1993 27.9766 26.7573 27.9766C26.3153 27.9766 25.957 28.3349 25.957 28.7768C25.957 29.2188 26.3153 29.5771 26.7573 29.5771Z" fill="white" fill-opacity="0.87"/>
<g opacity="0.4">
<path opacity="0.6" d="M26.2924 29.276C25.9792 28.9629 25.9792 28.4584 26.2924 28.1452C26.3446 28.093 26.3968 28.0582 26.4663 28.0234C26.362 28.0582 26.275 28.1278 26.188 28.1974C25.8748 28.5106 25.8748 29.0151 26.188 29.3282C26.4489 29.5892 26.8491 29.6414 27.1622 29.45C26.8665 29.5718 26.5359 29.5196 26.2924 29.276Z" fill="url(#paint15_linear_11243_191375)"/>
</g>
<path opacity="0.3" d="M27.0451 28.5354C27.1412 28.5354 27.219 28.4576 27.219 28.3615C27.219 28.2654 27.1412 28.1875 27.0451 28.1875C26.949 28.1875 26.8711 28.2654 26.8711 28.3615C26.8711 28.4576 26.949 28.5354 27.0451 28.5354Z" fill="white" fill-opacity="0.87"/>
<defs>
<linearGradient id="paint0_linear_11243_191375" x1="46" y1="-1.37091e-06" x2="-4.11272e-06" y2="46" gradientUnits="userSpaceOnUse">
<stop stop-color="#9E01BF"/>
<stop offset="1" stop-color="#1D02E6"/>
</linearGradient>
<radialGradient id="paint1_radial_11243_191375" cx="0" cy="0" r="1" gradientUnits="userSpaceOnUse" gradientTransform="translate(33.0816 14.4469) scale(7.77563)">
<stop stop-color="#FFEAFF" stop-opacity="0.6"/>
<stop offset="0.6807" stop-color="#A087C9"/>
<stop offset="1" stop-color="#10002F"/>
</radialGradient>
<radialGradient id="paint2_radial_11243_191375" cx="0" cy="0" r="1" gradientUnits="userSpaceOnUse" gradientTransform="translate(28.7616 17.7587) scale(19.0242 19.0242)">
<stop stop-color="#FFEAFF" stop-opacity="0.6"/>
<stop offset="0.6807" stop-color="#A087C9"/>
<stop offset="1" stop-color="#10002F"/>
</radialGradient>
<linearGradient id="paint3_linear_11243_191375" x1="20.7706" y1="34.0505" x2="23.8812" y2="14.8601" gradientUnits="userSpaceOnUse">
<stop stop-color="#81FFFF"/>
<stop offset="0.6202" stop-color="white" stop-opacity="0"/>
</linearGradient>
<linearGradient id="paint4_linear_11243_191375" x1="29.1798" y1="17.8556" x2="21.138" y2="25.2341" gradientUnits="userSpaceOnUse">
<stop offset="0.2888" stop-color="white"/>
<stop offset="0.7796" stop-color="white" stop-opacity="0"/>
</linearGradient>
<linearGradient id="paint5_linear_11243_191375" x1="13.0742" y1="28.9886" x2="31.5553" y2="28.9886" gradientUnits="userSpaceOnUse">
<stop stop-color="#0002E9"/>
<stop offset="0.9952" stop-color="#FF00C7"/>
</linearGradient>
<linearGradient id="paint6_linear_11243_191375" x1="32.4346" y1="25.1895" x2="22.3755" y2="34.696" gradientUnits="userSpaceOnUse">
<stop offset="0.2888" stop-color="white"/>
<stop offset="0.7796" stop-color="white" stop-opacity="0"/>
</linearGradient>
<linearGradient id="paint7_linear_11243_191375" x1="13.0742" y1="28.9925" x2="22.9615" y2="28.9925" gradientUnits="userSpaceOnUse">
<stop stop-color="#000292"/>
<stop offset="0.9952" stop-color="#7D00C7"/>
</linearGradient>
<linearGradient id="paint8_linear_11243_191375" x1="13.0866" y1="25.2304" x2="31.5429" y2="25.2304" gradientUnits="userSpaceOnUse">
<stop stop-color="#000292"/>
<stop offset="0.9952" stop-color="#BE00C7"/>
</linearGradient>
<linearGradient id="paint9_linear_11243_191375" x1="31.2516" y1="15.3305" x2="29.9251" y2="17.4861" gradientUnits="userSpaceOnUse">
<stop offset="0.2888" stop-color="white"/>
<stop offset="0.7796" stop-color="white" stop-opacity="0"/>
</linearGradient>
<linearGradient id="paint10_linear_11243_191375" x1="21.1987" y1="31.2424" x2="21.9348" y2="31.2424" gradientUnits="userSpaceOnUse">
<stop offset="0.2888" stop-color="white"/>
<stop offset="0.7796" stop-color="white" stop-opacity="0"/>
</linearGradient>
<linearGradient id="paint11_linear_11243_191375" x1="23.736" y1="31.0009" x2="24.4721" y2="31.0009" gradientUnits="userSpaceOnUse">
<stop offset="0.2888" stop-color="white"/>
<stop offset="0.7796" stop-color="white" stop-opacity="0"/>
</linearGradient>
<linearGradient id="paint12_linear_11243_191375" x1="22.5876" y1="32.2427" x2="23.1402" y2="32.2427" gradientUnits="userSpaceOnUse">
<stop offset="0.2888" stop-color="white"/>
<stop offset="0.7796" stop-color="white" stop-opacity="0"/>
</linearGradient>
<linearGradient id="paint13_linear_11243_191375" x1="24.8379" y1="31.9842" x2="25.3905" y2="31.9842" gradientUnits="userSpaceOnUse">
<stop offset="0.2888" stop-color="white"/>
<stop offset="0.7796" stop-color="white" stop-opacity="0"/>
</linearGradient>
<linearGradient id="paint14_linear_11243_191375" x1="18.8123" y1="30.7646" x2="20.0144" y2="30.7646" gradientUnits="userSpaceOnUse">
<stop offset="0.2888" stop-color="white"/>
<stop offset="0.7796" stop-color="white" stop-opacity="0"/>
</linearGradient>
<linearGradient id="paint15_linear_11243_191375" x1="25.9518" y1="28.7913" x2="27.1539" y2="28.7913" gradientUnits="userSpaceOnUse">
<stop offset="0.2888" stop-color="white"/>
<stop offset="0.7796" stop-color="white" stop-opacity="0"/>
</linearGradient>
</defs>
</svg>
