<svg width="16" height="16" viewBox="0 0 16 16" fill="none" xmlns="http://www.w3.org/2000/svg">
<g clip-path="url(#clip0_8761_127793)">
<path d="M10.6693 14.6852V12.7718C10.6943 12.454 10.6513 12.1344 10.5433 11.8344C10.4352 11.5344 10.2646 11.2608 10.0426 11.0318C12.1359 10.7985 14.3359 10.0052 14.3359 6.36518C14.3358 5.4344 13.9777 4.53931 13.3359 3.86518C13.6398 3.05085 13.6184 2.15075 13.2759 1.35185C13.2759 1.35185 12.4893 1.11851 10.6693 2.33851C9.14128 1.92439 7.5306 1.92439 6.0026 2.33851C4.1826 1.11851 3.39594 1.35185 3.39594 1.35185C3.05352 2.15075 3.03203 3.05085 3.33594 3.86518C2.68936 4.54431 2.33095 5.44749 2.33594 6.38518C2.33594 9.99851 4.53594 10.7918 6.62927 11.0518C6.40994 11.2785 6.24078 11.5488 6.13281 11.8451C6.02484 12.1415 5.98048 12.4572 6.0026 12.7718V14.6852M6.0026 13.3518C4.0026 14.0005 2.33594 13.3518 1.33594 11.3518" stroke="#777777" stroke-width="1.5" stroke-linecap="round" stroke-linejoin="round"/>
</g>
<defs>
<clipPath id="clip0_8761_127793">
<rect width="16" height="16" fill="white"/>
</clipPath>
</defs>
</svg>
