<svg width="16" height="16" viewBox="0 0 16 16" fill="none" xmlns="http://www.w3.org/2000/svg">
<g clip-path="url(#clip0_8761_127779)">
<path d="M15.3307 2.0067C15.3307 2.0067 13.9854 2.80137 13.2374 3.0267C12.8359 2.56504 12.3023 2.23783 11.7088 2.08932C11.1152 1.94081 10.4904 1.97817 9.91878 2.19634C9.34717 2.41451 8.85636 2.80297 8.51272 3.30918C8.16908 3.81539 7.98919 4.41493 7.9974 5.0267V5.69337C6.82582 5.72375 5.66491 5.46391 4.61807 4.937C3.57122 4.41009 2.67094 3.63246 1.9974 2.67337C1.9974 2.67337 -0.669271 8.67337 5.33073 11.34C3.95775 12.272 2.32217 12.7393 0.664062 12.6734C6.66406 16.0067 13.9974 12.6734 13.9974 5.0067C13.9974 4.82137 13.9787 4.63604 13.9441 4.45337C14.6241 3.7827 15.3307 2.0067 15.3307 2.0067Z" stroke="#777777" stroke-width="1.5" stroke-linecap="round" stroke-linejoin="round"/>
</g>
<defs>
<clipPath id="clip0_8761_127779">
<rect width="16" height="16" fill="white"/>
</clipPath>
</defs>
</svg>
