<svg width="16" height="16" viewBox="0 0 16 16" fill="none" xmlns="http://www.w3.org/2000/svg">
<path d="M9.33333 7.99935L7 9.33268V6.66602L9.33333 7.99935Z" fill="#777777" stroke="#777777" stroke-width="1.5" stroke-linecap="round" stroke-linejoin="round"/>
<path d="M1.33594 8.47224V7.52891C1.33594 5.59891 1.33594 4.63358 1.93927 4.01291C2.54327 3.39158 3.49394 3.36491 5.3946 3.31091C6.2946 3.28558 7.2146 3.26758 8.0026 3.26758C8.78994 3.26758 9.70994 3.28558 10.6106 3.31091C12.5113 3.36491 13.4619 3.39158 14.0653 4.01291C14.6693 4.63358 14.6693 5.59958 14.6693 7.52891V8.47224C14.6693 10.4029 14.6693 11.3676 14.0659 11.9889C13.4619 12.6096 12.5119 12.6369 10.6106 12.6902C9.7106 12.7162 8.7906 12.7342 8.0026 12.7342C7.21527 12.7342 6.29527 12.7162 5.3946 12.6902C3.49394 12.6369 2.54327 12.6102 1.93927 11.9889C1.33594 11.3676 1.33594 10.4022 1.33594 8.47291V8.47224Z" stroke="#777777" stroke-width="1.5"/>
</svg>
