<svg width="18" height="18" viewBox="0 0 18 18" fill="none" xmlns="http://www.w3.org/2000/svg">
<path fill-rule="evenodd" clip-rule="evenodd" d="M17.3346 9.00033C17.3346 13.6027 13.6036 17.3337 9.0013 17.3337C7.48347 17.3337 6.06036 16.9278 4.83464 16.2188L1.08464 16.917L1.78282 13.167C1.07378 11.9412 0.667969 10.5182 0.667969 9.00033C0.667969 4.39795 4.39893 0.666992 9.0013 0.666992C13.6036 0.666992 17.3346 4.39795 17.3346 9.00033ZM5.66797 6.7085C5.32279 6.7085 5.04297 6.98832 5.04297 7.3335C5.04297 7.67867 5.32279 7.9585 5.66797 7.9585H12.3346C12.6798 7.9585 12.9596 7.67867 12.9596 7.3335C12.9596 6.98832 12.6798 6.7085 12.3346 6.7085H5.66797ZM5.66797 10.0418C5.32279 10.0418 5.04297 10.3217 5.04297 10.6668C5.04297 11.012 5.32279 11.2918 5.66797 11.2918H9.0013C9.34648 11.2918 9.6263 11.012 9.6263 10.6668C9.6263 10.3217 9.34648 10.0418 9.0013 10.0418H5.66797Z" fill="#999999"/>
</svg>
