<svg width="20" height="20" viewBox="0 0 20 20" fill="none" xmlns="http://www.w3.org/2000/svg">
<path d="M10.0052 18.3332C5.40271 18.3332 1.67188 14.6023 1.67188 9.99984C1.67188 5.39734 5.40271 1.6665 10.0052 1.6665C14.6077 1.6665 18.3385 5.39734 18.3385 9.99984C18.3385 14.6023 14.6077 18.3332 10.0052 18.3332Z" fill="#999999"/>
<path d="M8.94097 8.00379C8.51736 7.61354 7.77234 7.34189 7.08767 7.32495M5.23438 11.7104C5.63257 12.2002 6.37283 12.4798 7.08767 12.5036M7.08767 7.32442C6.27275 7.3043 5.54308 7.64425 5.54308 8.57407C5.54308 10.2844 8.94097 9.42924 8.94097 11.1401C8.94097 12.1155 8.03656 12.5348 7.08767 12.5036M7.08767 7.32442V6.29346M7.08767 12.5041V13.7067M10.5295 10.0001H14.7656M14.7656 10.0001L12.7323 7.882M14.7656 10.0001L12.7323 12.1181" stroke="black" stroke-width="1.25" stroke-linecap="round" stroke-linejoin="round"/>
</svg>
