<svg xmlns="http://www.w3.org/2000/svg" width="25" height="24" viewBox="0 0 25 24" fill="white">
    <path d="M16.55 15.15C14.825 15.15 13.4 13.725 13.4 12C13.4 10.275 14.825 8.85 16.55 8.85H18.725C18.575 7.275 17.225 6 15.575 6H8.075C6.425 6 5 7.35 5 9.075V14.925C5 16.65 6.425 18 8.15 18H15.65C17.3 18 18.65 16.725 18.8 15.15H16.55Z" />
    <path d="M18.9504 10.3501H16.5504C15.6504 10.3501 14.9004 11.1001 14.9004 12.0001C14.9004 12.9001 15.6504 13.6501 16.5504 13.6501H18.9504C19.5504 13.6501 20.0004 13.2001 20.0004 12.6001V11.4001C20.0004 10.8001 19.5504 10.3501 18.9504 10.3501Z" />
</svg>