<svg viewBox="0 0 24 24" fill="none" xmlns="http://www.w3.org/2000/svg">
<rect width="24" height="24" rx="12" fill="url(#paint0_linear_4594_37165)" fill-opacity="0.1"/>
<g opacity="0.25">
<path d="M10.0876 16.8555C10.0338 16.808 10.0001 16.7418 9.99337 16.6704L9.45866 10.9818H11.3616V17.3548C11.3616 17.5978 11.0748 17.7272 10.8926 17.5663L10.0876 16.8555Z" fill="black"/>
<path d="M11.3616 10.869V10.0749L9.35713 9.90168L9.44805 10.869H11.3616Z" fill="black"/>
<path d="M11.3616 9.96157L9.34639 9.78745L9.03141 6.43654C9.01585 6.27098 9.14609 6.12793 9.31238 6.12793H11.0794C11.2353 6.12793 11.3616 6.25428 11.3616 6.41013V9.96157Z" fill="black"/>
<path d="M15.081 10.8689H16.5316C16.6095 10.8689 16.6727 10.8058 16.6727 10.7278V9.89569C16.6727 9.81234 16.6008 9.74715 16.5178 9.75525L15.1708 9.88679L15.081 10.8689Z" fill="black"/>
<path d="M15.0565 9.89795L13.0492 10.094V10.8689H14.9676L15.0565 9.89795Z" fill="black"/>
<path d="M12.9363 10.105V10.8689H7.59141C7.51348 10.8689 7.45031 10.8058 7.45031 10.7278V9.89382C7.45031 9.81115 7.52106 9.74619 7.60343 9.75323L12.3537 10.1595C12.3622 10.1602 12.3709 10.1602 12.3794 10.1594L12.9363 10.105Z" fill="black"/>
<path d="M13.5323 17.5472C13.3551 17.7268 13.0492 17.6013 13.0492 17.349V8.59441H15.1784L14.4377 16.5385C14.4317 16.6034 14.4034 16.6641 14.3576 16.7105L13.5323 17.5472Z" fill="black"/>
<path d="M15.189 8.48153H13.0492V7.26482L15.3156 7.12344L15.189 8.48153Z" fill="black"/>
<path d="M13.0492 6.41017V7.15172L15.3262 7.00967L15.3796 6.43637C15.3951 6.27089 15.2649 6.12797 15.0987 6.12797H13.3314C13.1755 6.12797 13.0492 6.25432 13.0492 6.41017Z" fill="black"/>
<path d="M11.3616 8.48154V7.26836L9.09804 7.15696L9.22188 8.48154H11.3616Z" fill="black"/>
<path d="M11.4745 8.48154H17.1806C17.243 8.48154 17.2935 8.431 17.2935 8.36866V7.11461C17.2935 7.04946 17.2385 6.99783 17.1735 7.00196L12.2731 7.31322L11.4745 7.27392V8.48154Z" fill="black"/>
<path d="M8.97484 7.1509L9.11005 8.48154H6.82382C6.76148 8.48154 6.71094 8.431 6.71094 8.36866V7.15806C6.71094 7.09354 6.76492 7.04214 6.82937 7.04531L8.97484 7.1509Z" fill="black"/>
</g>
<path d="M10.0641 16.8301C10.0103 16.7826 9.97665 16.7164 9.96993 16.645L9.43522 10.9565H11.3382V17.3294C11.3382 17.5724 11.0514 17.7018 10.8692 17.5409L10.0641 16.8301Z" fill="url(#paint1_linear_4594_37165)"/>
<path d="M11.3382 10.8436V10.0495L9.33369 9.87629L9.42461 10.8436H11.3382Z" fill="url(#paint2_linear_4594_37165)"/>
<path d="M11.3382 9.93617L9.32295 9.76206L9.00798 6.41115C8.99241 6.24559 9.12265 6.10254 9.28894 6.10254H11.056C11.2118 6.10254 11.3382 6.22889 11.3382 6.38474V9.93617Z" fill="url(#paint3_linear_4594_37165)"/>
<path d="M15.0575 10.8436H16.5081C16.5861 10.8436 16.6492 10.7804 16.6492 10.7025V9.8703C16.6492 9.78695 16.5774 9.72176 16.4944 9.72986L15.1474 9.8614L15.0575 10.8436Z" fill="url(#paint4_linear_4594_37165)"/>
<path d="M15.033 9.87256L13.0258 10.0686V10.8436H14.9442L15.033 9.87256Z" fill="url(#paint5_linear_4594_37165)"/>
<path d="M12.9129 10.0796V10.8436H7.56797C7.49004 10.8436 7.42687 10.7804 7.42687 10.7025V9.86843C7.42687 9.78576 7.49762 9.7208 7.57999 9.72784L12.3302 10.1341C12.3388 10.1349 12.3474 10.1348 12.356 10.134L12.9129 10.0796Z" fill="url(#paint6_linear_4594_37165)"/>
<path d="M13.5089 17.5218C13.3316 17.7014 13.0258 17.5759 13.0258 17.3236V8.56902H15.155L14.4143 16.5131C14.4082 16.578 14.3799 16.6387 14.3342 16.6851L13.5089 17.5218Z" fill="url(#paint7_linear_4594_37165)"/>
<path d="M15.1655 8.45614H13.0258V7.23943L15.2921 7.09804L15.1655 8.45614Z" fill="url(#paint8_linear_4594_37165)"/>
<path d="M13.0258 6.38478V7.12633L15.3027 6.98428L15.3562 6.41098C15.3716 6.24549 15.2414 6.10258 15.0752 6.10258H13.308C13.1521 6.10258 13.0258 6.22893 13.0258 6.38478Z" fill="url(#paint9_linear_4594_37165)"/>
<path d="M11.3382 8.45615V7.24297L9.0746 7.13157L9.19845 8.45615H11.3382Z" fill="url(#paint10_linear_4594_37165)"/>
<path d="M11.4511 8.45615H17.1572C17.2195 8.45615 17.2701 8.40561 17.2701 8.34327V7.08922C17.2701 7.02406 17.2151 6.97244 17.15 6.97657L12.2497 7.28783L11.4511 7.24853V8.45615Z" fill="url(#paint11_linear_4594_37165)"/>
<path d="M8.9514 7.12551L9.08661 8.45615H6.80038C6.73804 8.45615 6.6875 8.40561 6.6875 8.34327V7.13267C6.6875 7.06815 6.74149 7.01675 6.80593 7.01992L8.9514 7.12551Z" fill="url(#paint12_linear_4594_37165)"/>
<path d="M9.42633 9.77099L9.32295 9.76206L9.2002 8.45615H9.19845L9.0746 7.13157L9.0757 7.13163L9.00798 6.41115C8.99241 6.24559 9.12265 6.10254 9.28894 6.10254H11.056C11.163 6.10254 11.2561 6.1621 11.3039 6.24989C11.2639 6.22807 11.218 6.21568 11.1691 6.21568H9.40211C9.23583 6.21568 9.10559 6.35874 9.12115 6.52429L9.18887 7.24477L9.18778 7.24471L9.31162 8.56929H9.31338L9.42633 9.77099Z" fill="white"/>
<path d="M11.4514 8.45615H11.5642V7.36167L12.3629 7.40097L17.2632 7.08971C17.2655 7.08956 17.2678 7.08949 17.2701 7.08948V7.08922C17.2701 7.02406 17.2151 6.97244 17.15 6.97657L15.4169 7.08665L15.4159 7.09742L13.1389 7.23947V7.23135L12.2497 7.28783L11.4514 7.24854L11.4514 8.45615Z" fill="white"/>
<path d="M15.3231 6.24988C15.2832 6.22813 15.2374 6.21572 15.1884 6.21572H13.4211C13.2653 6.21572 13.1389 6.34207 13.1389 6.49792V7.11927L13.0258 7.12633V6.38478C13.0258 6.22893 13.1521 6.10258 13.308 6.10258H15.0752C15.1829 6.10258 15.2755 6.16259 15.3231 6.24988Z" fill="white"/>
<path d="M13.0258 8.56929H15.155L15.1444 8.68216H13.1389V17.4367C13.1389 17.4869 13.151 17.5321 13.1718 17.5708C13.0876 17.5249 13.0258 17.4371 13.0258 17.3236V10.9567H13.026V10.1927L13.0258 10.1928V8.56929Z" fill="white"/>
<path d="M12.9129 10.2038V10.0796L12.356 10.134C12.3474 10.1348 12.3388 10.1349 12.3302 10.1341L9.33369 9.87629L9.33384 9.87785L7.57999 9.72784C7.49762 9.7208 7.42687 9.78576 7.42687 9.86843V10.7025C7.42687 10.7716 7.47666 10.8292 7.54237 10.8412C7.54084 10.8329 7.54004 10.8243 7.54004 10.8156V9.98157C7.54004 9.8989 7.6108 9.83394 7.69317 9.84098L9.44701 9.99099L9.44687 9.98943L12.4434 10.2473C12.452 10.248 12.4606 10.2479 12.4691 10.2471L12.9129 10.2038Z" fill="white"/>
<path d="M9.43525 10.9567L9.96993 16.645C9.97665 16.7164 10.0103 16.7826 10.0641 16.8301L10.1283 16.8868C10.1031 16.8486 10.0875 16.8044 10.0831 16.7581L9.5484 11.0696H11.3382V10.9567L9.43525 10.9567Z" fill="white"/>
<path d="M15.0677 10.8436H15.1811L15.2606 9.97454L16.6076 9.843C16.6211 9.84169 16.6343 9.84231 16.6469 9.84463C16.634 9.77403 16.5686 9.72262 16.4944 9.72986L15.1583 9.86033L15.1236 10.2326L15.0677 10.8436Z" fill="white"/>
<path d="M8.96239 7.23362L8.9514 7.12551L6.80593 7.01992C6.74149 7.01675 6.6875 7.06815 6.6875 7.13267V8.34327C6.6875 8.40561 6.73804 8.45615 6.80038 8.45615H6.80067V7.24581C6.80067 7.18129 6.85466 7.12989 6.9191 7.13307L8.96239 7.23362Z" fill="white"/>
<defs>
<linearGradient id="paint0_linear_4594_37165" x1="24" y1="-7.15256e-07" x2="-2.14577e-06" y2="24" gradientUnits="userSpaceOnUse">
<stop stop-color="#0CF3A8"/>
<stop offset="1" stop-color="#D02BFA"/>
</linearGradient>
<linearGradient id="paint1_linear_4594_37165" x1="6.6875" y1="11.8573" x2="17.2701" y2="11.8573" gradientUnits="userSpaceOnUse">
<stop stop-color="#5433FF"/>
<stop offset="0.5" stop-color="#20BDFF"/>
<stop offset="1" stop-color="#A5FECB"/>
</linearGradient>
<linearGradient id="paint2_linear_4594_37165" x1="6.6875" y1="11.8573" x2="17.2701" y2="11.8573" gradientUnits="userSpaceOnUse">
<stop stop-color="#5433FF"/>
<stop offset="0.5" stop-color="#20BDFF"/>
<stop offset="1" stop-color="#A5FECB"/>
</linearGradient>
<linearGradient id="paint3_linear_4594_37165" x1="6.6875" y1="11.8573" x2="17.2701" y2="11.8573" gradientUnits="userSpaceOnUse">
<stop stop-color="#5433FF"/>
<stop offset="0.5" stop-color="#20BDFF"/>
<stop offset="1" stop-color="#A5FECB"/>
</linearGradient>
<linearGradient id="paint4_linear_4594_37165" x1="6.6875" y1="11.8573" x2="17.2701" y2="11.8573" gradientUnits="userSpaceOnUse">
<stop stop-color="#5433FF"/>
<stop offset="0.5" stop-color="#20BDFF"/>
<stop offset="1" stop-color="#A5FECB"/>
</linearGradient>
<linearGradient id="paint5_linear_4594_37165" x1="6.6875" y1="11.8573" x2="17.2701" y2="11.8573" gradientUnits="userSpaceOnUse">
<stop stop-color="#5433FF"/>
<stop offset="0.5" stop-color="#20BDFF"/>
<stop offset="1" stop-color="#A5FECB"/>
</linearGradient>
<linearGradient id="paint6_linear_4594_37165" x1="6.6875" y1="11.8573" x2="17.2701" y2="11.8573" gradientUnits="userSpaceOnUse">
<stop stop-color="#5433FF"/>
<stop offset="0.5" stop-color="#20BDFF"/>
<stop offset="1" stop-color="#A5FECB"/>
</linearGradient>
<linearGradient id="paint7_linear_4594_37165" x1="6.6875" y1="11.8573" x2="17.2701" y2="11.8573" gradientUnits="userSpaceOnUse">
<stop stop-color="#5433FF"/>
<stop offset="0.5" stop-color="#20BDFF"/>
<stop offset="1" stop-color="#A5FECB"/>
</linearGradient>
<linearGradient id="paint8_linear_4594_37165" x1="6.6875" y1="11.8573" x2="17.2701" y2="11.8573" gradientUnits="userSpaceOnUse">
<stop stop-color="#5433FF"/>
<stop offset="0.5" stop-color="#20BDFF"/>
<stop offset="1" stop-color="#A5FECB"/>
</linearGradient>
<linearGradient id="paint9_linear_4594_37165" x1="6.6875" y1="11.8573" x2="17.2701" y2="11.8573" gradientUnits="userSpaceOnUse">
<stop stop-color="#5433FF"/>
<stop offset="0.5" stop-color="#20BDFF"/>
<stop offset="1" stop-color="#A5FECB"/>
</linearGradient>
<linearGradient id="paint10_linear_4594_37165" x1="6.6875" y1="11.8573" x2="17.2701" y2="11.8573" gradientUnits="userSpaceOnUse">
<stop stop-color="#5433FF"/>
<stop offset="0.5" stop-color="#20BDFF"/>
<stop offset="1" stop-color="#A5FECB"/>
</linearGradient>
<linearGradient id="paint11_linear_4594_37165" x1="6.6875" y1="11.8573" x2="17.2701" y2="11.8573" gradientUnits="userSpaceOnUse">
<stop stop-color="#5433FF"/>
<stop offset="0.5" stop-color="#20BDFF"/>
<stop offset="1" stop-color="#A5FECB"/>
</linearGradient>
<linearGradient id="paint12_linear_4594_37165" x1="6.6875" y1="11.8573" x2="17.2701" y2="11.8573" gradientUnits="userSpaceOnUse">
<stop stop-color="#5433FF"/>
<stop offset="0.5" stop-color="#20BDFF"/>
<stop offset="1" stop-color="#A5FECB"/>
</linearGradient>
</defs>
</svg>
