<svg width="16" height="16" viewBox="0 0 16 16" fill="none" xmlns="http://www.w3.org/2000/svg">
<g clip-path="url(#clip0_9809_192319)">
<path d="M6.00008 8.00011H8.00008M10.0001 8.00011H8.00008M8.00008 8.00011V6.00011M8.00008 8.00011V10.0001M7.80008 0.782105C7.86089 0.746998 7.92987 0.728516 8.00008 0.728516C8.0703 0.728516 8.13927 0.746998 8.20008 0.782105L14.1507 4.21811C14.2116 4.25323 14.2621 4.30377 14.2972 4.36463C14.3323 4.42548 14.3508 4.49451 14.3507 4.56477V11.4361C14.3508 11.5064 14.3323 11.5754 14.2972 11.6363C14.2621 11.6971 14.2116 11.7476 14.1507 11.7828L8.20008 15.2174C8.13927 15.2525 8.0703 15.271 8.00008 15.271C7.92987 15.271 7.86089 15.2525 7.80008 15.2174L1.84941 11.7814C1.78857 11.7463 1.73805 11.6958 1.70294 11.6349C1.66783 11.5741 1.64937 11.505 1.64941 11.4348V4.56477C1.64937 4.49451 1.66783 4.42548 1.70294 4.36463C1.73805 4.30377 1.78857 4.25323 1.84941 4.21811L7.80008 0.782772V0.782105Z" stroke="#16BBFF" stroke-width="1.5" stroke-linecap="round" stroke-linejoin="round"/>
</g>
<defs>
<clipPath id="clip0_9809_192319">
<rect width="16" height="16" fill="white"/>
</clipPath>
</defs>
</svg>
