<svg width="48" height="48" viewBox="0 0 48 48" fill="none" xmlns="http://www.w3.org/2000/svg">
<g clip-path="url(#clip0_16201_299223)">
<path opacity="0.0714286" d="M43.4156 15.8156L41.7675 37.4408C41.6261 39.2968 40.2332 40.8152 38.3967 41.1152L18.6976 44.3336C17.018 44.608 15.3473 43.7979 14.5225 42.3091L3.49926 22.4128C2.6744 20.924 2.87304 19.0771 3.99567 17.7975L17.1626 2.78887C18.3901 1.38968 20.4153 1.01246 22.0635 1.876L41.2669 11.9372C42.6932 12.6845 43.538 14.2093 43.4156 15.8156Z" stroke="url(#paint0_linear_16201_299223)" stroke-width="0.424436"/>
<path opacity="0.142857" d="M45.0263 23.8488L35.0636 43.1109C34.2085 44.7643 32.3328 45.6175 30.5248 45.1757L11.1356 40.4376C9.48234 40.0336 8.26088 38.635 8.08307 36.9424L5.70627 14.3174C5.52845 12.6247 6.43257 11.0026 7.96575 10.2635L25.9466 1.59572C27.6233 0.787436 29.6353 1.23188 30.8154 2.67123L44.5631 19.44C45.584 20.6852 45.7661 22.4185 45.0263 23.8488Z" stroke="url(#paint1_linear_16201_299223)" stroke-width="0.424436"/>
<path opacity="0.214286" d="M43.3711 31.8731L26.678 45.7092C25.2452 46.8968 23.1856 46.949 21.6939 45.8356L5.69623 33.8942C4.33219 32.876 3.75407 31.111 4.25146 29.4833L10.8994 7.72813C11.3968 6.10043 12.8625 4.96062 14.5625 4.87966L34.4993 3.93007C36.3583 3.84153 38.0366 5.03711 38.5607 6.82329L44.6667 27.6333C45.1202 29.1787 44.6108 30.8456 43.3711 31.8731Z" stroke="url(#paint2_linear_16201_299223)" stroke-width="0.424436"/>
<path opacity="0.285714" d="M38.7059 38.6097L17.9367 44.82C16.1542 45.353 14.2386 44.5963 13.3007 42.9888L3.23758 25.7417C2.37964 24.2712 2.53699 22.4203 3.63079 21.1161L18.2454 3.6904C19.3392 2.38622 21.1338 1.90976 22.7301 2.49975L41.4542 9.41995C43.1994 10.065 44.2769 11.821 44.0618 13.6698L41.5554 35.2121C41.3692 36.8125 40.2488 38.1483 38.7059 38.6097Z" stroke="url(#paint3_linear_16201_299223)" stroke-width="0.424436"/>
<path opacity="0.357143" d="M31.7837 42.9877L10.2407 40.5852C8.39205 40.379 6.92472 38.9344 6.68923 37.0887L4.16157 17.2772C3.94609 15.5883 4.81416 13.9458 6.33079 13.1727L26.5873 2.84633C28.1039 2.07318 29.9423 2.336 31.1813 3.5031L45.7154 17.194C47.0695 18.4694 47.3751 20.5062 46.4553 22.1237L35.7353 40.9733C34.9386 42.3742 33.3848 43.1663 31.7837 42.9877Z" stroke="url(#paint4_linear_16201_299223)" stroke-width="0.424436"/>
<path opacity="0.428571" d="M23.6969 44.3103L4.80498 33.6771C3.18398 32.7648 2.39756 30.8618 2.90151 29.0712L8.31212 9.84566C8.77332 8.20687 10.2141 7.03424 11.9123 6.91543L34.5903 5.32884C36.2886 5.21002 37.8784 6.17063 38.5631 7.72925L46.5954 26.0143C47.3435 27.7173 46.8295 29.7113 45.3512 30.8405L28.1222 44.0007C26.8415 44.979 25.1013 45.1007 23.6969 44.3103Z" stroke="url(#paint5_linear_16201_299223)" stroke-width="0.424436"/>
<path opacity="0.5" d="M15.7378 42.3703L2.50027 25.197C1.36439 23.7234 1.38371 21.6641 2.54703 20.2126L15.0355 4.63093C16.1001 3.3027 17.8842 2.78648 19.4937 3.34096L40.989 10.7461C42.5985 11.3006 43.6867 12.8063 43.7083 14.5087L43.9611 34.4797C43.9846 36.3401 42.7326 37.9747 40.9308 38.4363L19.9317 43.8151C18.3709 44.2149 16.7218 43.6468 15.7378 42.3703Z" stroke="url(#paint6_linear_16201_299223)" stroke-width="0.424436"/>
<path opacity="0.571429" d="M9.17896 37.4759L3.7004 16.4924C3.23025 14.6916 4.05274 12.8029 5.69099 11.9213L23.2707 2.461C24.7694 1.65449 26.613 1.87651 27.8777 3.01582L44.7735 18.2365C46.0382 19.3758 46.4516 21.187 45.8066 22.7625L38.2404 41.2435C37.5353 42.9657 35.7438 43.9816 33.9047 43.702L12.4739 40.4441C10.8816 40.202 9.58602 39.0349 9.17896 37.4759Z" stroke="url(#paint7_linear_16201_299223)" stroke-width="0.424436"/>
<path opacity="0.642857" d="M5.04524 30.4037L8.19708 8.94616C8.46761 7.10446 9.96308 5.68694 11.8161 5.51579L31.6914 3.68005C33.386 3.52353 34.9961 4.44824 35.7151 5.99094L45.3244 26.6083C46.0434 28.151 45.7165 29.9795 44.5074 31.1776L30.3262 45.2306C29.0041 46.5408 26.9574 46.7758 25.3734 45.7993L6.91818 34.4223C5.54751 33.5773 4.81115 31.9974 5.04524 30.4037Z" stroke="url(#paint8_linear_16201_299223)" stroke-width="0.424436"/>
<path opacity="0.714286" d="M4.00076 22.2775L15.2821 3.7576C16.2505 2.16795 18.1811 1.44766 19.954 2.01461L38.9655 8.09434C40.5866 8.61274 41.7075 10.0932 41.7669 11.7941L42.5604 34.5299C42.6198 36.2308 41.6048 37.7859 40.0238 38.4162L21.4825 45.8079C19.7535 46.4972 17.7773 45.9134 16.7005 44.3952L4.15539 26.7078C3.22384 25.3944 3.16305 23.6527 4.00076 22.2775Z" stroke="url(#paint9_linear_16201_299223)" stroke-width="0.424436"/>
<path opacity="0.785714" d="M6.22297 14.3895L23.8401 1.75215C25.3522 0.667465 27.4103 0.759095 28.8207 1.97388L43.9469 15.0027C45.2366 16.1136 45.6903 17.9147 45.0806 19.5038L36.9321 40.7418C36.3224 42.3309 34.7808 43.3657 33.0793 43.3278L13.1247 42.8837C11.2641 42.8423 9.67338 41.5325 9.2751 39.7141L4.63486 18.5287C4.29024 16.9554 4.91461 15.328 6.22297 14.3895Z" stroke="url(#paint10_linear_16201_299223)" stroke-width="0.424436"/>
<path opacity="0.857143" d="M11.3382 7.9944L32.4897 3.24875C34.3049 2.84147 36.163 3.72989 36.9865 5.39885L45.8227 23.3065C46.576 24.8332 46.29 26.6688 45.1078 27.8935L29.3141 44.2565C28.132 45.4812 26.3085 45.8313 24.7572 45.1314L6.56095 36.9212C4.8651 36.156 3.91282 34.3291 4.25629 32.4999L8.25851 11.1851C8.55586 9.60152 9.76675 8.34698 11.3382 7.9944Z" stroke="url(#paint11_linear_16201_299223)" stroke-width="0.424436"/>
<path opacity="0.928571" d="M18.5501 4.11019L39.8731 8.01039C41.7028 8.34506 43.0657 9.88846 43.1719 11.746L44.3122 31.6859C44.4094 33.3856 43.4289 34.9636 41.8619 35.629L20.9351 44.5164C19.3682 45.1818 17.5525 44.7914 16.3979 43.5407L2.85361 28.8686C1.59187 27.5018 1.42899 25.4488 2.45938 23.8995L14.4674 5.84406C15.3599 4.50211 16.9653 3.82031 18.5501 4.11019Z" stroke="url(#paint12_linear_16201_299223)" stroke-width="0.424436"/>
<path d="M26.7015 3.35386L44.8061 15.2796C46.3595 16.3029 47.0113 18.256 46.3838 20.0072L39.6459 38.8082C39.0716 40.4109 37.5526 41.4801 35.8501 41.4801H13.1168C11.4144 41.4801 9.89538 40.4109 9.32104 38.8082L2.58317 20.0072C1.95561 18.256 2.60743 16.3029 4.16086 15.2796L22.2654 3.35386C23.6112 2.46734 25.3557 2.46734 26.7015 3.35386Z" stroke="url(#paint13_linear_16201_299223)" stroke-width="0.424436"/>
<g opacity="0.25">
<path d="M20.9224 32.0499C20.8355 31.9732 20.7811 31.8662 20.7702 31.7508L19.9066 22.5632H22.9801V32.8562C22.9801 33.2488 22.5169 33.4577 22.2226 33.1979L20.9224 32.0499Z" fill="black"/>
<path d="M22.9801 22.3809V21.0984L19.7426 20.8186L19.8895 22.3809H22.9801Z" fill="black"/>
<path d="M22.9801 20.9154L19.7253 20.6342L19.2166 15.2221C19.1914 14.9547 19.4018 14.7236 19.6704 14.7236H22.5243C22.776 14.7236 22.9801 14.9277 22.9801 15.1794V20.9154Z" fill="black"/>
<path d="M28.9872 22.3809H31.3301C31.456 22.3809 31.558 22.2789 31.558 22.153V20.809C31.558 20.6744 31.4419 20.5691 31.308 20.5822L29.1324 20.7946L28.9872 22.3809Z" fill="black"/>
<path d="M28.9477 20.8126L25.7057 21.1292V22.3809H28.8042L28.9477 20.8126Z" fill="black"/>
<path d="M25.5234 21.147V22.3809H16.8908C16.7649 22.3809 16.6629 22.2789 16.6629 22.153V20.806C16.6629 20.6724 16.7772 20.5675 16.9102 20.5789L24.5824 21.2351C24.5962 21.2363 24.6101 21.2362 24.6239 21.2348L25.5234 21.147Z" fill="black"/>
<path d="M26.486 33.1669C26.1998 33.4571 25.7057 33.2544 25.7057 32.8468V18.7073H29.1447L27.9483 31.5378C27.9386 31.6426 27.8929 31.7407 27.819 31.8156L26.486 33.1669Z" fill="black"/>
<path d="M29.1617 18.525H25.7057V16.5598L29.3662 16.3315L29.1617 18.525Z" fill="black"/>
<path d="M25.7057 15.1795V16.3772L29.3833 16.1477L29.4696 15.2218C29.4946 14.9545 29.2843 14.7237 29.0158 14.7237H26.1615C25.9098 14.7237 25.7057 14.9278 25.7057 15.1795Z" fill="black"/>
<path d="M22.9801 18.525V16.5656L19.3242 16.3856L19.5242 18.525H22.9801Z" fill="black"/>
<path d="M23.1624 18.525H32.3784C32.4791 18.525 32.5607 18.4433 32.5607 18.3426V16.3172C32.5607 16.212 32.4719 16.1286 32.3669 16.1353L24.4523 16.638L23.1624 16.5745V18.525Z" fill="black"/>
<path d="M19.1252 16.3758L19.3436 18.525H15.6511C15.5504 18.525 15.4688 18.4433 15.4688 18.3426V16.3874C15.4688 16.2832 15.5559 16.2002 15.66 16.2053L19.1252 16.3758Z" fill="black"/>
</g>
<path d="M20.8833 32.0137C20.7964 31.937 20.742 31.8301 20.7312 31.7147L19.8676 22.5271H22.941V32.8201C22.941 33.2126 22.4778 33.4216 22.1836 33.1618L20.8833 32.0137Z" fill="url(#paint14_linear_16201_299223)"/>
<path d="M22.941 22.3448V21.0622L19.7036 20.7825L19.8504 22.3448H22.941Z" fill="url(#paint15_linear_16201_299223)"/>
<path d="M22.941 20.8792L19.6862 20.598L19.1775 15.1859C19.1524 14.9185 19.3627 14.6875 19.6313 14.6875H22.4852C22.737 14.6875 22.941 14.8916 22.941 15.1433V20.8792Z" fill="url(#paint16_linear_16201_299223)"/>
<path d="M28.9482 22.3447H31.2911C31.4169 22.3447 31.5189 22.2427 31.5189 22.1169V20.7728C31.5189 20.6382 31.4029 20.5329 31.2689 20.546L29.0933 20.7585L28.9482 22.3447Z" fill="url(#paint17_linear_16201_299223)"/>
<path d="M28.9086 20.7765L25.6667 21.0931V22.3447H28.7651L28.9086 20.7765Z" fill="url(#paint18_linear_16201_299223)"/>
<path d="M25.4843 21.1109V22.3447H16.8517C16.7259 22.3447 16.6238 22.2427 16.6238 22.1169V20.7698C16.6238 20.6363 16.7381 20.5314 16.8712 20.5428L24.5433 21.1989C24.5572 21.2001 24.5711 21.2 24.5849 21.1987L25.4843 21.1109Z" fill="url(#paint19_linear_16201_299223)"/>
<path d="M26.4469 33.1308C26.1607 33.4209 25.6667 33.2183 25.6667 32.8107V18.6711H29.1056L27.9093 31.5017C27.8995 31.6064 27.8538 31.7046 27.7799 31.7795L26.4469 33.1308Z" fill="url(#paint20_linear_16201_299223)"/>
<path d="M29.1226 18.4888H25.6667V16.5237L29.3271 16.2953L29.1226 18.4888Z" fill="url(#paint21_linear_16201_299223)"/>
<path d="M25.6667 15.1434V16.341L29.3442 16.1116L29.4306 15.1857C29.4555 14.9184 29.2452 14.6876 28.9768 14.6876H26.1224C25.8707 14.6876 25.6667 14.8916 25.6667 15.1434Z" fill="url(#paint22_linear_16201_299223)"/>
<path d="M22.941 18.4888V16.5294L19.2851 16.3495L19.4851 18.4888H22.941Z" fill="url(#paint23_linear_16201_299223)"/>
<path d="M23.1234 18.4888H32.3394C32.4401 18.4888 32.5217 18.4072 32.5217 18.3065V16.2811C32.5217 16.1759 32.4328 16.0925 32.3278 16.0992L24.4132 16.6019L23.1234 16.5384V18.4888Z" fill="url(#paint24_linear_16201_299223)"/>
<path d="M19.0861 16.3397L19.3045 18.4888H15.612C15.5113 18.4888 15.4297 18.4072 15.4297 18.3065V16.3513C15.4297 16.2471 15.5169 16.1641 15.621 16.1692L19.0861 16.3397Z" fill="url(#paint25_linear_16201_299223)"/>
<path d="M19.8532 20.6124L19.6862 20.598L19.488 18.4888H19.4851L19.2851 16.3495L19.2869 16.3496L19.1775 15.1859C19.1524 14.9185 19.3627 14.6875 19.6313 14.6875H22.4852C22.6581 14.6875 22.8084 14.7837 22.8857 14.9255C22.821 14.8903 22.7469 14.8702 22.668 14.8702H19.8141C19.5455 14.8702 19.3352 15.1013 19.3603 15.3687L19.4697 16.5323L19.4679 16.5322L19.6679 18.6716H19.6708L19.8532 20.6124Z" fill="white"/>
<path d="M23.1238 18.4888H23.3062V16.7211L24.596 16.7846L32.5106 16.2819C32.5143 16.2817 32.518 16.2815 32.5217 16.2815V16.2811C32.5217 16.1759 32.4328 16.0925 32.3278 16.0992L29.5287 16.2769L29.527 16.2943L25.8494 16.5238V16.5106L24.4132 16.6019L23.1238 16.5384L23.1238 18.4888Z" fill="white"/>
<path d="M29.3772 14.9255C29.3127 14.8903 29.2387 14.8703 29.1596 14.8703H26.3052C26.0535 14.8703 25.8494 15.0744 25.8494 15.3261V16.3296L25.6667 16.341V15.1434C25.6667 14.8916 25.8707 14.6876 26.1224 14.6876H28.9768C29.1507 14.6876 29.3003 14.7845 29.3772 14.9255Z" fill="white"/>
<path d="M25.6667 18.6716H29.1056L29.0886 18.8539H25.8494V32.9934C25.8494 33.0745 25.869 33.1475 25.9026 33.21C25.7666 33.1358 25.6667 32.994 25.6667 32.8107V22.5275H25.6671V21.2936L25.6667 21.2936V18.6716Z" fill="white"/>
<path d="M25.4843 21.3115V21.1109L24.5849 21.1987C24.5711 21.2 24.5572 21.2001 24.5433 21.1989L19.7036 20.7825L19.7038 20.785L16.8712 20.5428C16.7381 20.5314 16.6238 20.6363 16.6238 20.7698V22.1169C16.6238 22.2286 16.7043 22.3216 16.8104 22.341C16.8079 22.3276 16.8066 22.3137 16.8066 22.2996V20.9526C16.8066 20.819 16.9209 20.7141 17.054 20.7255L19.8866 20.9678L19.8864 20.9652L24.7261 21.3817C24.7399 21.3829 24.7539 21.3828 24.7677 21.3814L25.4843 21.3115Z" fill="white"/>
<path d="M19.8676 22.5275L20.7312 31.7147C20.742 31.8301 20.7964 31.937 20.8833 32.0137L20.9869 32.1052C20.9463 32.0435 20.921 31.9722 20.914 31.8974L20.0503 22.7098H22.941V22.5275L19.8676 22.5275Z" fill="white"/>
<path d="M28.9646 22.3447H29.1477L29.2761 20.9412L31.4517 20.7288C31.4735 20.7266 31.4948 20.7276 31.5152 20.7314C31.4943 20.6174 31.3888 20.5343 31.2689 20.546L29.111 20.7567L29.0549 21.358L28.9646 22.3447Z" fill="white"/>
<path d="M19.1039 16.5143L19.0861 16.3397L15.621 16.1692C15.5169 16.1641 15.4297 16.2471 15.4297 16.3513V18.3065C15.4297 18.4072 15.5113 18.4888 15.612 18.4888H15.6125V16.534C15.6125 16.4298 15.6997 16.3468 15.8038 16.3519L19.1039 16.5143Z" fill="white"/>
<rect x="26.7276" y="5.72763" width="20.5447" height="8.54475" rx="4.27237" fill="black"/>
<path d="M30.1067 11.5L31.2367 7.79H32.3167L33.4467 11.5H32.5517L32.3617 10.825H31.1817L30.9967 11.5H30.1067ZM31.3817 10.05H32.1617L31.7717 8.53L31.3817 10.05ZM34.6452 11.515C34.4452 11.515 34.2785 11.4833 34.1452 11.42C34.0118 11.3533 33.9135 11.255 33.8502 11.125C33.7868 10.995 33.7552 10.83 33.7552 10.63V7.685H34.6202V10.495C34.6202 10.5783 34.6285 10.645 34.6452 10.695C34.6618 10.745 34.6885 10.7833 34.7252 10.81C34.7618 10.8333 34.8085 10.85 34.8652 10.86L35.0452 10.885V11.515H34.6452ZM35.4067 12.685V8.81H36.1317L36.2717 9.06C36.3351 9.00667 36.4017 8.95833 36.4717 8.915C36.5417 8.86833 36.6167 8.83167 36.6967 8.805C36.7801 8.77833 36.8717 8.765 36.9717 8.765C37.1317 8.765 37.2717 8.795 37.3917 8.855C37.5151 8.915 37.6151 9.005 37.6917 9.125C37.7684 9.24167 37.8251 9.38667 37.8617 9.56C37.9017 9.73333 37.9217 9.93333 37.9217 10.16C37.9217 10.4433 37.8934 10.6883 37.8367 10.895C37.7834 11.1017 37.6884 11.2617 37.5517 11.375C37.4151 11.485 37.2217 11.54 36.9717 11.54C36.8517 11.54 36.7301 11.5267 36.6067 11.5C36.4834 11.4767 36.3717 11.44 36.2717 11.39V12.685H35.4067ZM36.6817 10.83C36.7417 10.83 36.8001 10.8133 36.8567 10.78C36.9167 10.7433 36.9651 10.6767 37.0017 10.58C37.0384 10.4833 37.0567 10.3433 37.0567 10.16C37.0567 9.97667 37.0417 9.835 37.0117 9.735C36.9817 9.63167 36.9384 9.56 36.8817 9.52C36.8284 9.48 36.7634 9.46 36.6867 9.46C36.6001 9.46 36.5201 9.47333 36.4467 9.5C36.3734 9.52667 36.3151 9.55333 36.2717 9.58V10.73C36.3184 10.76 36.3784 10.785 36.4517 10.805C36.5284 10.8217 36.6051 10.83 36.6817 10.83ZM38.3962 11.5V7.69H39.2612V9.075C39.3445 8.99833 39.4612 8.92833 39.6112 8.865C39.7612 8.79833 39.9129 8.765 40.0662 8.765C40.2762 8.765 40.4412 8.805 40.5612 8.885C40.6812 8.965 40.7662 9.07833 40.8162 9.225C40.8695 9.37167 40.8962 9.54167 40.8962 9.735V11.5H40.0312V9.85C40.0312 9.77667 40.0162 9.71667 39.9862 9.67C39.9595 9.62333 39.9212 9.59 39.8712 9.57C39.8245 9.55 39.7729 9.54 39.7162 9.54C39.6595 9.54 39.6029 9.54833 39.5462 9.565C39.4929 9.58167 39.4412 9.60333 39.3912 9.63C39.3412 9.65333 39.2979 9.68167 39.2612 9.715V11.5H38.3962ZM42.0245 11.53C41.8178 11.53 41.6511 11.47 41.5245 11.35C41.3978 11.2267 41.3345 11.06 41.3345 10.85V10.59C41.3345 10.3867 41.4061 10.2183 41.5495 10.085C41.6961 9.95167 41.9245 9.885 42.2345 9.885H42.8445V9.755C42.8445 9.68167 42.8311 9.62167 42.8045 9.575C42.7778 9.52833 42.7261 9.495 42.6495 9.475C42.5728 9.455 42.4545 9.445 42.2945 9.445H41.5045V8.95C41.6378 8.9 41.7928 8.86 41.9695 8.83C42.1495 8.79667 42.3661 8.77833 42.6195 8.775C42.8428 8.775 43.0361 8.80167 43.1995 8.855C43.3628 8.90833 43.4878 9.00167 43.5745 9.135C43.6645 9.265 43.7095 9.45167 43.7095 9.695V11.5H43.0245L42.8895 11.225C42.8595 11.2517 42.8178 11.2833 42.7645 11.32C42.7145 11.3533 42.6511 11.3867 42.5745 11.42C42.5011 11.4533 42.4178 11.48 42.3245 11.5C42.2311 11.52 42.1311 11.53 42.0245 11.53ZM42.4695 10.935C42.4928 10.9383 42.5195 10.9367 42.5495 10.93C42.5828 10.9233 42.6145 10.9167 42.6445 10.91C42.6745 10.9 42.7028 10.8917 42.7295 10.885C42.7595 10.875 42.7828 10.8667 42.7995 10.86C42.8195 10.85 42.8345 10.8433 42.8445 10.84V10.29L42.5245 10.32C42.4145 10.3333 42.3311 10.3633 42.2745 10.41C42.2211 10.4533 42.1945 10.5167 42.1945 10.6V10.705C42.1945 10.7617 42.2061 10.8083 42.2295 10.845C42.2528 10.8783 42.2845 10.9017 42.3245 10.915C42.3678 10.9283 42.4161 10.935 42.4695 10.935Z" fill="url(#paint26_linear_16201_299223)"/>
<rect x="26.7276" y="5.72763" width="20.5447" height="8.54475" rx="4.27237" stroke="url(#paint27_linear_16201_299223)" stroke-width="0.544747"/>
</g>
<defs>
<linearGradient id="paint0_linear_16201_299223" x1="17.5358" y1="11.3329" x2="31.6296" y2="36.7461" gradientUnits="userSpaceOnUse">
<stop offset="0.166667" stop-color="#876CF5" stop-opacity="0"/>
<stop offset="0.520833" stop-color="#1FDBFA" stop-opacity="0.6"/>
<stop offset="1" stop-color="#876CF5" stop-opacity="0.36"/>
</linearGradient>
<linearGradient id="paint1_linear_16201_299223" x1="22.9541" y1="9.60609" x2="25.9935" y2="38.5096" gradientUnits="userSpaceOnUse">
<stop offset="0.166667" stop-color="#876CF5" stop-opacity="0"/>
<stop offset="0.520833" stop-color="#1FDBFA" stop-opacity="0.6"/>
<stop offset="1" stop-color="#876CF5" stop-opacity="0.36"/>
</linearGradient>
<linearGradient id="paint2_linear_16201_299223" x1="28.6161" y1="10.1338" x2="20.1154" y2="37.9246" gradientUnits="userSpaceOnUse">
<stop offset="0.166667" stop-color="#876CF5" stop-opacity="0"/>
<stop offset="0.520833" stop-color="#1FDBFA" stop-opacity="0.6"/>
<stop offset="1" stop-color="#876CF5" stop-opacity="0.36"/>
</linearGradient>
<linearGradient id="paint3_linear_16201_299223" x1="33.6147" y1="12.8302" x2="14.9318" y2="35.0846" gradientUnits="userSpaceOnUse">
<stop offset="0.166667" stop-color="#876CF5" stop-opacity="0"/>
<stop offset="0.520833" stop-color="#1FDBFA" stop-opacity="0.6"/>
<stop offset="1" stop-color="#876CF5" stop-opacity="0.36"/>
</linearGradient>
<linearGradient id="paint4_linear_16201_299223" x1="37.1663" y1="17.2674" x2="11.2785" y2="30.4513" gradientUnits="userSpaceOnUse">
<stop offset="0.166667" stop-color="#876CF5" stop-opacity="0"/>
<stop offset="0.520833" stop-color="#1FDBFA" stop-opacity="0.6"/>
<stop offset="1" stop-color="#876CF5" stop-opacity="0.36"/>
</linearGradient>
<linearGradient id="paint5_linear_16201_299223" x1="38.6969" y1="22.7391" x2="9.71894" y2="24.7644" gradientUnits="userSpaceOnUse">
<stop offset="0.166667" stop-color="#876CF5" stop-opacity="0"/>
<stop offset="0.520833" stop-color="#1FDBFA" stop-opacity="0.6"/>
<stop offset="1" stop-color="#876CF5" stop-opacity="0.36"/>
</linearGradient>
<linearGradient id="paint6_linear_16201_299223" x1="37.9695" y1="28.3776" x2="10.5007" y2="18.924" gradientUnits="userSpaceOnUse">
<stop offset="0.166667" stop-color="#876CF5" stop-opacity="0"/>
<stop offset="0.520833" stop-color="#1FDBFA" stop-opacity="0.6"/>
<stop offset="1" stop-color="#876CF5" stop-opacity="0.36"/>
</linearGradient>
<linearGradient id="paint7_linear_16201_299223" x1="35.1077" y1="33.2854" x2="13.5108" y2="13.8491" gradientUnits="userSpaceOnUse">
<stop offset="0.166667" stop-color="#876CF5" stop-opacity="0"/>
<stop offset="0.520833" stop-color="#1FDBFA" stop-opacity="0.6"/>
<stop offset="1" stop-color="#876CF5" stop-opacity="0.36"/>
</linearGradient>
<linearGradient id="paint8_linear_16201_299223" x1="30.5495" y1="36.6815" x2="18.263" y2="10.3461" gradientUnits="userSpaceOnUse">
<stop offset="0.166667" stop-color="#876CF5" stop-opacity="0"/>
<stop offset="0.520833" stop-color="#1FDBFA" stop-opacity="0.6"/>
<stop offset="1" stop-color="#876CF5" stop-opacity="0.36"/>
</linearGradient>
<linearGradient id="paint9_linear_16201_299223" x1="25.0261" y1="38.0259" x2="24.0114" y2="8.98062" gradientUnits="userSpaceOnUse">
<stop offset="0.166667" stop-color="#876CF5" stop-opacity="0"/>
<stop offset="0.520833" stop-color="#1FDBFA" stop-opacity="0.6"/>
<stop offset="1" stop-color="#876CF5" stop-opacity="0.36"/>
</linearGradient>
<linearGradient id="paint10_linear_16201_299223" x1="19.4263" y1="37.1056" x2="29.8454" y2="9.9764" gradientUnits="userSpaceOnUse">
<stop offset="0.166667" stop-color="#876CF5" stop-opacity="0"/>
<stop offset="0.520833" stop-color="#1FDBFA" stop-opacity="0.6"/>
<stop offset="1" stop-color="#876CF5" stop-opacity="0.36"/>
</linearGradient>
<linearGradient id="paint11_linear_16201_299223" x1="14.6193" y1="34.0665" x2="34.8086" y2="13.1703" gradientUnits="userSpaceOnUse">
<stop offset="0.166667" stop-color="#876CF5" stop-opacity="0"/>
<stop offset="0.520833" stop-color="#1FDBFA" stop-opacity="0.6"/>
<stop offset="1" stop-color="#876CF5" stop-opacity="0.36"/>
</linearGradient>
<linearGradient id="paint12_linear_16201_299223" x1="11.3872" y1="29.3922" x2="38.1306" y2="18.0459" gradientUnits="userSpaceOnUse">
<stop offset="0.166667" stop-color="#876CF5" stop-opacity="0"/>
<stop offset="0.520833" stop-color="#1FDBFA" stop-opacity="0.6"/>
<stop offset="1" stop-color="#876CF5" stop-opacity="0.36"/>
</linearGradient>
<linearGradient id="paint13_linear_16201_299223" x1="10.2341" y1="23.8256" x2="39.2827" y2="23.8256" gradientUnits="userSpaceOnUse">
<stop offset="0.166667" stop-color="#876CF5" stop-opacity="0"/>
<stop offset="0.520833" stop-color="#1FDBFA" stop-opacity="0.6"/>
<stop offset="1" stop-color="#876CF5" stop-opacity="0.36"/>
</linearGradient>
<linearGradient id="paint14_linear_16201_299223" x1="15.4297" y1="23.9821" x2="32.5217" y2="23.9821" gradientUnits="userSpaceOnUse">
<stop stop-color="#5433FF"/>
<stop offset="0.5" stop-color="#20BDFF"/>
<stop offset="1" stop-color="#A5FECB"/>
</linearGradient>
<linearGradient id="paint15_linear_16201_299223" x1="15.4297" y1="23.9821" x2="32.5217" y2="23.9821" gradientUnits="userSpaceOnUse">
<stop stop-color="#5433FF"/>
<stop offset="0.5" stop-color="#20BDFF"/>
<stop offset="1" stop-color="#A5FECB"/>
</linearGradient>
<linearGradient id="paint16_linear_16201_299223" x1="15.4297" y1="23.9821" x2="32.5217" y2="23.9821" gradientUnits="userSpaceOnUse">
<stop stop-color="#5433FF"/>
<stop offset="0.5" stop-color="#20BDFF"/>
<stop offset="1" stop-color="#A5FECB"/>
</linearGradient>
<linearGradient id="paint17_linear_16201_299223" x1="15.4297" y1="23.9821" x2="32.5217" y2="23.9821" gradientUnits="userSpaceOnUse">
<stop stop-color="#5433FF"/>
<stop offset="0.5" stop-color="#20BDFF"/>
<stop offset="1" stop-color="#A5FECB"/>
</linearGradient>
<linearGradient id="paint18_linear_16201_299223" x1="15.4297" y1="23.9821" x2="32.5217" y2="23.9821" gradientUnits="userSpaceOnUse">
<stop stop-color="#5433FF"/>
<stop offset="0.5" stop-color="#20BDFF"/>
<stop offset="1" stop-color="#A5FECB"/>
</linearGradient>
<linearGradient id="paint19_linear_16201_299223" x1="15.4297" y1="23.9821" x2="32.5217" y2="23.9821" gradientUnits="userSpaceOnUse">
<stop stop-color="#5433FF"/>
<stop offset="0.5" stop-color="#20BDFF"/>
<stop offset="1" stop-color="#A5FECB"/>
</linearGradient>
<linearGradient id="paint20_linear_16201_299223" x1="15.4297" y1="23.9821" x2="32.5217" y2="23.9821" gradientUnits="userSpaceOnUse">
<stop stop-color="#5433FF"/>
<stop offset="0.5" stop-color="#20BDFF"/>
<stop offset="1" stop-color="#A5FECB"/>
</linearGradient>
<linearGradient id="paint21_linear_16201_299223" x1="15.4297" y1="23.9821" x2="32.5217" y2="23.9821" gradientUnits="userSpaceOnUse">
<stop stop-color="#5433FF"/>
<stop offset="0.5" stop-color="#20BDFF"/>
<stop offset="1" stop-color="#A5FECB"/>
</linearGradient>
<linearGradient id="paint22_linear_16201_299223" x1="15.4297" y1="23.9821" x2="32.5217" y2="23.9821" gradientUnits="userSpaceOnUse">
<stop stop-color="#5433FF"/>
<stop offset="0.5" stop-color="#20BDFF"/>
<stop offset="1" stop-color="#A5FECB"/>
</linearGradient>
<linearGradient id="paint23_linear_16201_299223" x1="15.4297" y1="23.9821" x2="32.5217" y2="23.9821" gradientUnits="userSpaceOnUse">
<stop stop-color="#5433FF"/>
<stop offset="0.5" stop-color="#20BDFF"/>
<stop offset="1" stop-color="#A5FECB"/>
</linearGradient>
<linearGradient id="paint24_linear_16201_299223" x1="15.4297" y1="23.9821" x2="32.5217" y2="23.9821" gradientUnits="userSpaceOnUse">
<stop stop-color="#5433FF"/>
<stop offset="0.5" stop-color="#20BDFF"/>
<stop offset="1" stop-color="#A5FECB"/>
</linearGradient>
<linearGradient id="paint25_linear_16201_299223" x1="15.4297" y1="23.9821" x2="32.5217" y2="23.9821" gradientUnits="userSpaceOnUse">
<stop stop-color="#5433FF"/>
<stop offset="0.5" stop-color="#20BDFF"/>
<stop offset="1" stop-color="#A5FECB"/>
</linearGradient>
<linearGradient id="paint26_linear_16201_299223" x1="32.7661" y1="7.00806" x2="35.9699" y2="15.2632" gradientUnits="userSpaceOnUse">
<stop stop-color="#A73EE7"/>
<stop offset="1" stop-color="#00EBFF"/>
</linearGradient>
<linearGradient id="paint27_linear_16201_299223" x1="30.9516" y1="6.58065" x2="34.0256" y2="16.4817" gradientUnits="userSpaceOnUse">
<stop stop-color="#A73EE7"/>
<stop offset="1" stop-color="#00EBFF"/>
</linearGradient>
<clipPath id="clip0_16201_299223">
<rect width="48" height="48" fill="white"/>
</clipPath>
</defs>
</svg>
