<svg fill="none" xmlns="http://www.w3.org/2000/svg" viewBox="1 0 37.05 36"> <path fill-rule="evenodd" clip-rule="evenodd" d="M21.2379 10.4211L23.5366 0.273403C23.5793 0.0816236 23.772 -0.0351874 23.962 0.0118857C32.0473 2.00116 38.0447 9.29923 38.0447 17.999C38.0447 26.6988 32.0473 33.9969 23.962 35.9862C23.772 36.0324 23.5802 35.9156 23.5366 35.7247L21.2379 25.5769C21.1586 25.2274 21.3565 24.8717 21.6973 24.7619C24.5557 23.8431 26.6252 21.1634 26.6252 17.999C26.6252 14.8347 24.5557 12.155 21.6973 11.2362C21.3565 11.1272 21.1586 10.7707 21.2379 10.4211ZM17.3434 24.7623C17.6843 24.8712 17.8822 25.2278 17.8028 25.5773L15.5032 35.7251C15.4605 35.9169 15.2679 36.0337 15.0778 35.9866C6.99258 33.9973 0.995117 26.6992 0.995117 17.9994C0.995117 9.29964 6.99258 2.00156 15.0778 0.0122894C15.2679 -0.033912 15.4596 0.082899 15.5032 0.273807L17.802 10.4215C17.8813 10.7711 17.6834 11.1268 17.3426 11.2366C14.4842 12.1554 12.4147 14.8351 12.4147 17.9994C12.4147 21.1638 14.4842 23.8435 17.3434 24.7623Z" fill="url(#paint0_radial_720_3014)"></path> <defs> <radialGradient id="paint0_radial_720_3014" cx="0" cy="0" r="1" gradientUnits="userSpaceOnUse" gradientTransform="translate(19.5199 17.9991) scale(18.4199 18.3406)"> <stop offset="0.256717" stop-color="#FF4B94"></stop> <stop offset="1" stop-color="#FF2E79"></stop> </radialGradient> </defs> </svg>
