<svg width="40" height="40" viewBox="0 0 40 40" fill="none" xmlns="http://www.w3.org/2000/svg">
<path d="M25 8.33398H15M25 31.6673H15V14.334C15 14.0688 15.1054 13.8144 15.2929 13.6269C15.4804 13.4393 15.7348 13.334 16 13.334H24C24.2652 13.334 24.5196 13.4393 24.7071 13.6269C24.8946 13.8144 25 14.0688 25 14.334V31.6673V31.6673ZM34 31.6673H25V25.1673C25 24.9021 25.1054 24.6477 25.2929 24.4602C25.4804 24.2727 25.7348 24.1673 26 24.1673H34C34.2652 24.1673 34.5196 24.2727 34.7071 24.4602C34.8946 24.6477 35 24.9021 35 25.1673V30.6673C35 30.9325 34.8946 31.1869 34.7071 31.3744C34.5196 31.562 34.2652 31.6673 34 31.6673V31.6673ZM15 31.6673V21.834C15 21.5688 14.8946 21.3144 14.7071 21.1269C14.5196 20.9393 14.2652 20.834 14 20.834H6C5.73478 20.834 5.48043 20.9393 5.29289 21.1269C5.10536 21.3144 5 21.5688 5 21.834V30.6673C5 30.9325 5.10536 31.1869 5.29289 31.3744C5.48043 31.562 5.73478 31.6673 6 31.6673H15Z" stroke="#777777" stroke-width="1.5" stroke-linecap="round" stroke-linejoin="round"/>
</svg>
