<svg width="163" height="104" viewBox="0 0 163 104" fill="none" xmlns="http://www.w3.org/2000/svg">
<path d="M6.54455 97V79.444H0.608545V76.336H15.9245V79.444H10.0165V97H6.54455ZM21.8969 97.14C20.7209 97.14 19.7035 97.0187 18.8449 96.776C17.9862 96.5333 17.2862 96.1227 16.7449 95.544C16.2035 94.9653 15.8022 94.1813 15.5409 93.192C15.2795 92.2027 15.1489 90.9613 15.1489 89.468C15.1489 87.9187 15.2795 86.6493 15.5409 85.66C15.8022 84.652 16.2035 83.868 16.7449 83.308C17.3049 82.7293 18.0142 82.3373 18.8729 82.132C19.7315 81.908 20.7395 81.796 21.8969 81.796C23.0915 81.796 24.1182 81.9173 24.9769 82.16C25.8355 82.384 26.5355 82.776 27.0769 83.336C27.6182 83.896 28.0195 84.68 28.2809 85.688C28.5422 86.6773 28.6729 87.9373 28.6729 89.468C28.6729 90.98 28.5422 92.24 28.2809 93.248C28.0382 94.2373 27.6462 95.0213 27.1049 95.6C26.5635 96.16 25.8635 96.5613 25.0049 96.804C24.1462 97.028 23.1102 97.14 21.8969 97.14ZM21.8969 94.368C22.4755 94.368 22.9702 94.3213 23.3809 94.228C23.7915 94.116 24.1275 93.9013 24.3889 93.584C24.6689 93.248 24.8742 92.7533 25.0049 92.1C25.1355 91.428 25.2009 90.5413 25.2009 89.44C25.2009 88.3573 25.1355 87.4893 25.0049 86.836C24.8742 86.1827 24.6689 85.6973 24.3889 85.38C24.1275 85.044 23.7915 84.8293 23.3809 84.736C22.9702 84.624 22.4755 84.568 21.8969 84.568C21.3369 84.568 20.8515 84.624 20.4409 84.736C20.0302 84.8293 19.6942 85.044 19.4329 85.38C19.1715 85.6973 18.9662 86.1827 18.8169 86.836C18.6862 87.4893 18.6209 88.3573 18.6209 89.44C18.6209 90.5413 18.6862 91.428 18.8169 92.1C18.9662 92.7533 19.1715 93.248 19.4329 93.584C19.6942 93.9013 20.0302 94.116 20.4409 94.228C20.8515 94.3213 21.3369 94.368 21.8969 94.368ZM34.9777 97.168C33.5963 97.168 32.523 96.7853 31.7577 96.02C30.9923 95.236 30.6097 94.0973 30.6097 92.604V81.992H34.0817V91.596C34.0817 92.5853 34.3057 93.248 34.7537 93.584C35.2203 93.92 35.8457 94.088 36.6297 94.088C37.283 94.088 37.9177 93.9853 38.5337 93.78C39.1497 93.5747 39.7283 93.276 40.2697 92.884V81.992H43.7417V97H40.9137L40.2697 95.432C39.5603 95.88 38.7483 96.2813 37.8337 96.636C36.9377 96.9907 35.9857 97.168 34.9777 97.168ZM46.1153 97V81.992H48.8033L49.5873 84.4C50.1847 83.672 50.8473 83.056 51.5753 82.552C52.3033 82.048 53.1713 81.796 54.1793 81.796C54.3847 81.796 54.5993 81.8147 54.8233 81.852C55.0473 81.8707 55.2527 81.908 55.4393 81.964V85.492C55.178 85.4547 54.898 85.4267 54.5993 85.408C54.3007 85.3893 54.0113 85.38 53.7313 85.38C53.1527 85.38 52.6207 85.4453 52.1353 85.576C51.6687 85.7067 51.23 85.912 50.8193 86.192C50.4087 86.4533 49.998 86.7893 49.5873 87.2V97H46.1153ZM56.7258 97V81.992H59.5538L60.1978 83.56C60.8138 83.0933 61.5605 82.6733 62.4378 82.3C63.3338 81.9267 64.2578 81.74 65.2098 81.74C66.3858 81.74 67.3098 81.9827 67.9818 82.468C68.6538 82.9347 69.1298 83.5693 69.4098 84.372C69.7085 85.1747 69.8578 86.052 69.8578 87.004V97H66.3858V87.424C66.3858 86.8827 66.2831 86.4253 66.0778 86.052C65.8725 85.6787 65.5831 85.3893 65.2098 85.184C64.8551 84.9787 64.4165 84.876 63.8938 84.876C63.4085 84.876 62.9511 84.9227 62.5218 85.016C62.1111 85.1093 61.7191 85.2493 61.3458 85.436C60.9725 85.6227 60.5898 85.8467 60.1978 86.108V97H56.7258ZM75.3115 97.168C74.1915 97.168 73.2768 96.832 72.5675 96.16C71.8581 95.488 71.5035 94.564 71.5035 93.388V92.128C71.5035 90.9707 71.8955 90.028 72.6795 89.3C73.4821 88.572 74.7048 88.208 76.3475 88.208H80.6315V86.892C80.6315 86.3693 80.5381 85.9307 80.3515 85.576C80.1648 85.2213 79.8288 84.96 79.3435 84.792C78.8581 84.6053 78.1208 84.512 77.1315 84.512H72.5955V82.496C73.2861 82.3093 74.0981 82.1507 75.0315 82.02C75.9648 81.8707 77.0755 81.796 78.3635 81.796C79.5955 81.7773 80.6408 81.9267 81.4995 82.244C82.3581 82.5427 83.0021 83.0467 83.4315 83.756C83.8795 84.4653 84.1035 85.436 84.1035 86.668V97H81.3875L80.7995 95.376C80.6688 95.488 80.4355 95.6373 80.0995 95.824C79.7635 96.0107 79.3435 96.216 78.8395 96.44C78.3355 96.6453 77.7755 96.8227 77.1595 96.972C76.5621 97.1027 75.9461 97.168 75.3115 97.168ZM76.9915 94.732C77.2341 94.732 77.5048 94.704 77.8035 94.648C78.1208 94.5733 78.4381 94.4987 78.7555 94.424C79.0728 94.3307 79.3621 94.2467 79.6235 94.172C79.9035 94.0787 80.1275 93.9947 80.2955 93.92C80.4821 93.8453 80.5941 93.7987 80.6315 93.78V89.86L77.3835 90.028C76.5248 90.1027 75.8995 90.3267 75.5075 90.7C75.1341 91.0733 74.9475 91.568 74.9475 92.184V92.8C74.9475 93.2667 75.0408 93.6493 75.2275 93.948C75.4328 94.228 75.6848 94.424 75.9835 94.536C76.3008 94.648 76.6368 94.7133 76.9915 94.732ZM86.4233 97V81.992H89.2513L89.8953 83.56C90.586 83.0747 91.342 82.6547 92.1633 82.3C93.0033 81.9267 93.9926 81.74 95.1313 81.74C96.0646 81.74 96.8486 81.9453 97.4833 82.356C98.1366 82.748 98.622 83.2613 98.9393 83.896C99.3686 83.56 99.882 83.2333 100.479 82.916C101.095 82.58 101.749 82.3 102.439 82.076C103.13 81.852 103.811 81.74 104.483 81.74C105.641 81.74 106.565 81.9733 107.255 82.44C107.965 82.888 108.469 83.5227 108.767 84.344C109.066 85.1467 109.215 86.08 109.215 87.144V97H105.743V87.424C105.743 86.8827 105.641 86.4253 105.435 86.052C105.23 85.6787 104.941 85.3893 104.567 85.184C104.213 84.9787 103.774 84.876 103.251 84.876C102.579 84.876 101.898 85.0067 101.207 85.268C100.535 85.5293 99.9193 85.8467 99.3593 86.22C99.434 86.4067 99.4806 86.612 99.4993 86.836C99.5366 87.06 99.5553 87.284 99.5553 87.508V97H96.0833V87.424C96.0833 86.8827 95.9806 86.4253 95.7753 86.052C95.57 85.6787 95.2806 85.3893 94.9073 85.184C94.5526 84.9787 94.114 84.876 93.5913 84.876C93.106 84.876 92.6486 84.9227 92.2193 85.016C91.8086 85.1093 91.4166 85.2493 91.0433 85.436C90.67 85.6227 90.2873 85.8467 89.8953 86.108V97H86.4233ZM117.658 97.14C116.034 97.14 114.737 96.916 113.766 96.468C112.814 96.02 112.123 95.2453 111.694 94.144C111.265 93.024 111.05 91.4747 111.05 89.496C111.05 87.48 111.255 85.9213 111.666 84.82C112.077 83.7 112.758 82.916 113.71 82.468C114.662 82.02 115.95 81.796 117.574 81.796C119.011 81.796 120.159 81.9453 121.018 82.244C121.895 82.524 122.53 83.0373 122.922 83.784C123.333 84.512 123.538 85.548 123.538 86.892C123.538 87.844 123.351 88.6093 122.978 89.188C122.605 89.748 122.063 90.1493 121.354 90.392C120.663 90.6347 119.842 90.756 118.89 90.756H114.494C114.531 91.6893 114.653 92.436 114.858 92.996C115.082 93.5373 115.474 93.9293 116.034 94.172C116.613 94.4147 117.453 94.536 118.554 94.536H123.09V96.58C122.325 96.7293 121.513 96.86 120.654 96.972C119.814 97.084 118.815 97.14 117.658 97.14ZM114.466 88.656H118.554C119.207 88.656 119.683 88.5347 119.982 88.292C120.299 88.0307 120.458 87.564 120.458 86.892C120.458 86.2387 120.365 85.7253 120.178 85.352C119.991 84.9787 119.683 84.7173 119.254 84.568C118.825 84.4 118.265 84.316 117.574 84.316C116.79 84.316 116.174 84.4373 115.726 84.68C115.278 84.9227 114.951 85.3613 114.746 85.996C114.559 86.612 114.466 87.4987 114.466 88.656ZM125.5 97V81.992H128.328L128.972 83.56C129.588 83.0933 130.334 82.6733 131.212 82.3C132.108 81.9267 133.032 81.74 133.984 81.74C135.16 81.74 136.084 81.9827 136.756 82.468C137.428 82.9347 137.904 83.5693 138.184 84.372C138.482 85.1747 138.632 86.052 138.632 87.004V97H135.16V87.424C135.16 86.8827 135.057 86.4253 134.852 86.052C134.646 85.6787 134.357 85.3893 133.984 85.184C133.629 84.9787 133.19 84.876 132.668 84.876C132.182 84.876 131.725 84.9227 131.296 85.016C130.885 85.1093 130.493 85.2493 130.12 85.436C129.746 85.6227 129.364 85.8467 128.972 86.108V97H125.5ZM146.437 97C145.355 97 144.468 96.8413 143.777 96.524C143.087 96.188 142.583 95.6373 142.265 94.872C141.967 94.1067 141.827 93.0987 141.845 91.848L141.957 84.792H139.605V82.552L142.069 81.992L142.573 77.792H145.289V81.992H149.097V84.792H145.289V91.82C145.289 92.3053 145.336 92.7067 145.429 93.024C145.523 93.3227 145.653 93.5653 145.821 93.752C146.008 93.92 146.204 94.0413 146.409 94.116C146.615 94.1907 146.829 94.2373 147.053 94.256L148.929 94.452V97H146.437ZM155.897 97.168C155.468 97.168 154.973 97.1493 154.413 97.112C153.872 97.0933 153.321 97.056 152.761 97C152.22 96.9627 151.716 96.9067 151.249 96.832C150.783 96.7573 150.4 96.6733 150.101 96.58V94.536H156.569C157.036 94.536 157.428 94.4987 157.745 94.424C158.081 94.3493 158.333 94.2 158.501 93.976C158.669 93.752 158.753 93.416 158.753 92.968V92.436C158.753 91.9693 158.595 91.6053 158.277 91.344C157.979 91.064 157.447 90.924 156.681 90.924H154.413C153.536 90.924 152.752 90.8027 152.061 90.56C151.389 90.3173 150.857 89.9067 150.465 89.328C150.073 88.7493 149.877 87.9653 149.877 86.976V86.136C149.877 85.184 150.055 84.4 150.409 83.784C150.783 83.1493 151.389 82.6733 152.229 82.356C153.088 82.02 154.227 81.852 155.645 81.852C156.243 81.852 156.887 81.88 157.577 81.936C158.268 81.992 158.931 82.0667 159.565 82.16C160.2 82.2347 160.704 82.328 161.077 82.44V84.484H154.973C154.283 84.484 153.751 84.6053 153.377 84.848C153.023 85.072 152.845 85.5013 152.845 86.136V86.668C152.845 87.0787 152.929 87.3867 153.097 87.592C153.265 87.7973 153.517 87.9373 153.853 88.012C154.189 88.0867 154.591 88.124 155.057 88.124H157.381C158.856 88.124 159.948 88.46 160.657 89.132C161.367 89.804 161.721 90.756 161.721 91.988V93.22C161.721 94.228 161.488 95.0213 161.021 95.6C160.555 96.1787 159.883 96.5893 159.005 96.832C158.147 97.056 157.111 97.168 155.897 97.168Z" fill="white"/>
<g filter="url(#filter0_b_9954_166391)">
<rect x="49" width="64" height="56" rx="12" fill="black" fill-opacity="0.6"/>
</g>
<path d="M86 16.334H76M86 39.6673H76V22.334C76 22.0688 76.1054 21.8144 76.2929 21.6269C76.4804 21.4393 76.7348 21.334 77 21.334H85C85.2652 21.334 85.5196 21.4393 85.7071 21.6269C85.8946 21.8144 86 22.0688 86 22.334V39.6673V39.6673ZM95 39.6673H86V33.1673C86 32.9021 86.1054 32.6477 86.2929 32.4602C86.4804 32.2727 86.7348 32.1673 87 32.1673H95C95.2652 32.1673 95.5196 32.2727 95.7071 32.4602C95.8946 32.6477 96 32.9021 96 33.1673V38.6673C96 38.9325 95.8946 39.1869 95.7071 39.3744C95.5196 39.562 95.2652 39.6673 95 39.6673V39.6673ZM76 39.6673V29.834C76 29.5688 75.8946 29.3144 75.7071 29.1269C75.5196 28.9393 75.2652 28.834 75 28.834H67C66.7348 28.834 66.4804 28.9393 66.2929 29.1269C66.1054 29.3144 66 29.5688 66 29.834V38.6673C66 38.9325 66.1054 39.1869 66.2929 39.3744C66.4804 39.562 66.7348 39.6673 67 39.6673H76Z" stroke="white" stroke-width="1.5" stroke-linecap="round" stroke-linejoin="round"/>
<defs>
<filter id="filter0_b_9954_166391" x="-47" y="-96" width="256" height="248" filterUnits="userSpaceOnUse" color-interpolation-filters="sRGB">
<feFlood flood-opacity="0" result="BackgroundImageFix"/>
<feGaussianBlur in="BackgroundImageFix" stdDeviation="48"/>
<feComposite in2="SourceAlpha" operator="in" result="effect1_backgroundBlur_9954_166391"/>
<feBlend mode="normal" in="SourceGraphic" in2="effect1_backgroundBlur_9954_166391" result="shape"/>
</filter>
</defs>
</svg>
