<svg width="24" height="24" viewBox="0 0 24 24" fill="none" xmlns="http://www.w3.org/2000/svg">
<g filter="url(#filter0_di_22136_173395)">
<path d="M12 2C6.52174 2 2 6.52174 2 12C2 17.4783 6.52174 22 12 22C17.4783 22 22 17.4783 22 12C22 6.52174 17.4783 2 12 2ZM16.1739 9.21739V13.5652V13.913V14.9565C16.1739 15.6522 15.6522 16.1739 14.9565 16.1739H14.4348C13.7391 16.1739 13.2174 15.6522 13.2174 14.9565V14.4348C13.2174 13.7391 13.7391 13.2174 14.4348 13.2174H15.3913V9.73913L10.8696 11.1304V14.8696V15.5652V16.2609C10.8696 16.9565 10.3478 17.4783 9.65217 17.4783H9.04348C8.34783 17.4783 7.82609 16.9565 7.82609 16.2609V15.7391C7.82609 15.0435 8.34783 14.5217 9.04348 14.5217H10V10.9565V8.6087C10 8.43478 10.087 8.26087 10.2609 8.17391L15.6522 6.52174C15.7391 6.52174 15.913 6.52174 16 6.6087C16.087 6.69565 16.1739 6.78261 16.1739 6.95652V9.21739Z" fill="url(#paint0_linear_22136_173395)"/>
</g>
<defs>
<filter id="filter0_di_22136_173395" x="1" y="2" width="22" height="22" filterUnits="userSpaceOnUse" color-interpolation-filters="sRGB">
<feFlood flood-opacity="0" result="BackgroundImageFix"/>
<feColorMatrix in="SourceAlpha" type="matrix" values="0 0 0 0 0 0 0 0 0 0 0 0 0 0 0 0 0 0 127 0" result="hardAlpha"/>
<feOffset dy="1"/>
<feGaussianBlur stdDeviation="0.5"/>
<feComposite in2="hardAlpha" operator="out"/>
<feColorMatrix type="matrix" values="0 0 0 0 0 0 0 0 0 0 0 0 0 0 0 0 0 0 0.25 0"/>
<feBlend mode="normal" in2="BackgroundImageFix" result="effect1_dropShadow_22136_173395"/>
<feBlend mode="normal" in="SourceGraphic" in2="effect1_dropShadow_22136_173395" result="shape"/>
<feColorMatrix in="SourceAlpha" type="matrix" values="0 0 0 0 0 0 0 0 0 0 0 0 0 0 0 0 0 0 127 0" result="hardAlpha"/>
<feOffset dy="1"/>
<feGaussianBlur stdDeviation="0.5"/>
<feComposite in2="hardAlpha" operator="arithmetic" k2="-1" k3="1"/>
<feColorMatrix type="matrix" values="0 0 0 0 1 0 0 0 0 1 0 0 0 0 1 0 0 0 0.25 0"/>
<feBlend mode="normal" in2="shape" result="effect2_innerShadow_22136_173395"/>
</filter>
<linearGradient id="paint0_linear_22136_173395" x1="12" y1="2" x2="12" y2="22" gradientUnits="userSpaceOnUse">
<stop offset="0.317708" stop-color="#FF9393"/>
<stop offset="1" stop-color="#FF5C5C"/>
</linearGradient>
</defs>
</svg>
