<svg width="20" height="20" viewBox="0 0 20 20" fill="none" xmlns="http://www.w3.org/2000/svg">
<path d="M1.66406 11.6674V8.33409C1.66406 8.11307 1.75186 7.90111 1.90814 7.74483C2.06442 7.58855 2.27638 7.50075 2.4974 7.50075H4.7449C4.90951 7.50079 5.07044 7.45207 5.2074 7.36075L8.70156 5.03075C8.82718 4.94694 8.97321 4.89884 9.12405 4.89159C9.27488 4.88434 9.42486 4.91821 9.55794 4.98958C9.69101 5.06096 9.8022 5.16715 9.8796 5.29682C9.957 5.42648 9.99772 5.57474 9.9974 5.72575V14.2758C9.99742 14.4266 9.95648 14.5747 9.87896 14.7041C9.80143 14.8335 9.69022 14.9395 9.5572 15.0106C9.42417 15.0818 9.27432 15.1155 9.12363 15.1082C8.97294 15.1009 8.82706 15.0528 8.70156 14.9691L5.2074 12.6399C5.07035 12.5489 4.90942 12.5005 4.7449 12.5008H2.4974C2.27638 12.5008 2.06442 12.413 1.90814 12.2567C1.75186 12.1004 1.66406 11.8884 1.66406 11.6674V11.6674Z" stroke="#color" stroke-width="1.37333"/>
<path d="M13.75 6.25C13.75 6.25 15 7.5 15 9.58333C15 11.6667 13.75 12.9167 13.75 12.9167M16.25 3.75C16.25 3.75 18.3333 5.83333 18.3333 9.58333C18.3333 13.3333 16.25 15.4167 16.25 15.4167" stroke="#color" stroke-width="1.37333" stroke-linecap="round" stroke-linejoin="round"/>
</svg>
