<svg xmlns="http://www.w3.org/2000/svg" width="48" height="48" viewBox="0 0 400 400"><path d="M185 19.5c-.8.2-5.5.9-10.5 1.5C86.6 32.5 19.1 109.9 19 199.2c0 44.6 16.6 88.8 45.7 120.9 19.6 21.6 41.7 37.2 67.3 47.5 68.7 27.6 146.2 11.2 197.6-41.8 4.9-5.1 11.1-12 13.6-15.3 34.2-45.2 45.8-102 31.8-156-8.2-31.6-23.4-58-47-81.6-28.6-28.7-59.3-44.7-99-51.6-7.8-1.3-40.4-2.7-44-1.8zm132 114.2c0 .3-3.6 6.8-8.1 14.5l-8.1 13.8h-50.9c-28 0-50.9-.3-50.9-.6 0-1.6 11.3-19.3 13.9-21.8 1.6-1.6 5.4-3.7 8.3-4.7 4.8-1.7 9.3-1.8 50.6-1.9 24.8 0 45.2.3 45.2.7zm-119 28.8c0 1.6-10.5 18.7-13.2 21.4-6.3 6.5-6.8 6.6-34 6.9-13.7.2-24.8 0-24.8-.4 0-.7 13.7-25.1 15.3-27.2.7-.9 7.7-1.2 28.8-1.2 15.4 0 27.9.2 27.9.5zm84 33.7c-1.7 2.9-5.4 9.5-8.3 14.5l-5.2 9.3H166.2l-6.1 10.5c-6.6 11.2-11.1 15.6-18.2 17.5-2.2.6-13.2.9-26.3.8l-22.5-.3 8.2-14.2 8.1-14.3 28.4-.2 28.4-.3 5.4-9.5c3-5.2 7.1-11 9.2-12.8 6.8-5.9 8-6.1 58.5-6.1l45.7-.1-3 5.2zm-82 53.3c0 .3-3.3 6.1-7.2 13l-7.3 12.5h-25.2c-13.9 0-25.3-.3-25.3-.6 0-1.8 8.9-15.5 12.1-18.5 6.2-6 9.7-6.7 32.7-6.8 11.1-.1 20.2.1 20.2.4z" style="
    fill: darkorange;
"></path></svg>
