<?xml version="1.0" encoding="utf-8"?>
<svg viewBox="0 0 960 960" xmlns="http://www.w3.org/2000/svg">
  <defs>
    <style>.cls-1{fill:#5a636a;}.cls-2{fill:#77bec5;}.cls-3{fill:#cc5943;}</style>
  </defs>
  <polygon class="cls-2" points="274.715 418.617 274.971 418.475 487.362 296.151 426.939 260.97 221.277 379.404 221.305 379.375 205.915 388.235 205.745 516.351 271.223 623.938 271.365 508.145 271.45 420.462 274.715 418.617" style="fill: rgb(94, 216, 192);"/>
  <polygon class="cls-2" points="478.134 194.271 654.209 296.179 654.152 311.143 654.038 396.214 654.038 396.214 654.067 399.564 653.896 545.37 714.576 510.615 714.831 273.293 714.86 273.322 714.888 255.575 604.007 191.375 478.134 194.271" style="fill: rgb(94, 216, 192);"/>
  <polygon class="cls-3" points="430.46 249.896 513.599 298.025 516.41 299.615 642.595 372.674 642.823 302.739 422.112 174.963 311.089 238.908 250.637 349.391 426.939 247.88 430.46 249.896" style="fill: rgb(255, 137, 137);"/>
  <polygon class="cls-3" points="726.161 313.727 725.905 517.174 722.412 519.219 509.993 641.514 558.377 669.682 570.473 676.667 776.135 558.261 776.135 558.261 791.468 549.431 791.61 421.314 726.161 313.727" style="fill: rgb(255, 137, 137);"/>
  <polygon class="cls-3" points="519.278 743.365 343.231 641.457 343.231 638.362 343.231 637.397 343.345 541.196 343.317 538.101 343.487 392.295 282.808 427.05 282.524 682.09 393.405 746.262 519.278 743.365" style="fill: rgb(255, 137, 137);"/>
  <polygon class="cls-2" points="566.981 687.769 354.817 564.962 354.589 634.927 575.329 762.674 686.351 698.758 746.775 588.274 570.473 689.785 566.981 687.769" style="fill: rgb(94, 216, 192);"/>
</svg>