<svg width="68" height="74" viewBox="0 0 68 74" fill="none" xmlns="http://www.w3.org/2000/svg">
<path d="M21.8811 68.2179C21.5426 67.919 21.3307 67.5025 21.2884 67.0529L17.924 31.2595H29.8977V71.3593C29.8977 72.8887 28.0932 73.7026 26.9468 72.6904L21.8811 68.2179Z" fill="white"/>
<path d="M29.8977 30.5493V25.5527L17.2851 24.4629L17.8572 30.5493H29.8977Z" fill="white"/>
<path d="M29.8977 24.8397L17.2175 23.7442L15.2357 2.65962C15.1377 1.6179 15.9572 0.717773 17.0035 0.717773H28.122C29.1027 0.717773 29.8977 1.51277 29.8977 2.49344V24.8397Z" fill="white"/>
<path d="M53.3006 30.5491H62.428C62.9183 30.5491 63.3158 30.1516 63.3158 29.6613V24.4252C63.3158 23.9008 62.8637 23.4906 62.3417 23.5416L53.866 24.3692L53.3006 30.5491Z" fill="white"/>
<path d="M53.1463 24.4395L40.5163 25.6728V30.5491H52.5873L53.1463 24.4395Z" fill="white"/>
<path d="M39.806 25.7421V30.5491H6.17485C5.68451 30.5491 5.28702 30.1516 5.28702 29.6613V24.4135C5.28702 23.8933 5.73221 23.4845 6.25051 23.5289L36.1399 26.0853C36.1938 26.0899 36.248 26.0896 36.3019 26.0843L39.806 25.7421Z" fill="white"/>
<path d="M43.556 72.5697C42.441 73.7001 40.5163 72.9105 40.5163 71.3227V16.2374H53.9138L49.2531 66.2231C49.2151 66.6312 49.037 67.0135 48.7492 67.3053L43.556 72.5697Z" fill="white"/>
<path d="M53.98 15.5271H40.5163V7.87129L54.7768 6.98169L53.98 15.5271Z" fill="white"/>
<path d="M40.5163 2.4937V7.15964L54.8436 6.26588L55.1799 2.65854C55.277 1.61728 54.4577 0.718029 53.4119 0.718029H42.2919C41.3113 0.718029 40.5163 1.51302 40.5163 2.4937Z" fill="white"/>
<path d="M29.8978 15.5271V7.8936L15.6549 7.19266L16.4341 15.5271H29.8978Z" fill="white"/>
<path d="M30.608 15.5271H66.512C66.9043 15.5271 67.2223 15.2091 67.2223 14.8169V6.92617C67.2223 6.51619 66.8762 6.19134 66.467 6.21733L35.6332 8.17586L30.608 7.92856V15.5271Z" fill="white"/>
<path d="M14.8797 7.15451L15.7304 15.5271H1.34503C0.952763 15.5271 0.634766 15.2091 0.634766 14.8169V7.19955C0.634766 6.79357 0.974456 6.47018 1.37995 6.49014L14.8797 7.15451Z" fill="white"/>
</svg>
