<svg width="68" height="68" viewBox="0 0 68 68" fill="none" xmlns="http://www.w3.org/2000/svg">
<g clip-path="url(#clip0_11909_201514)">
<path opacity="0.0714286" d="M61.6847 21.2508L59.1557 54.4348C59.0142 56.2908 57.6213 57.8092 55.7849 58.1092L25.277 63.0936C23.5974 63.368 21.9268 62.5579 21.1019 61.069L4.27944 30.7054C3.45458 29.2166 3.65322 27.3698 4.77585 26.0901L25.1674 2.8464C26.3949 1.44721 28.42 1.06999 30.0682 1.93352L59.536 17.3725C60.9623 18.1198 61.8071 19.6446 61.6847 21.2508Z" stroke="url(#paint0_linear_11909_201514)" stroke-width="0.424436"/>
<path opacity="0.142857" d="M64.3946 32.7919L49.1069 62.3495C48.2518 64.0028 46.3761 64.8561 44.5681 64.4143L14.5398 57.0763C12.8865 56.6723 11.6651 55.2737 11.4872 53.581L7.86009 19.0538C7.68227 17.3611 8.58639 15.739 10.1196 14.9999L37.9668 1.57595C39.6435 0.767662 41.6555 1.21211 42.8356 2.65146L63.9314 28.3831C64.9523 29.6283 65.1344 31.3615 64.3946 32.7919Z" stroke="url(#paint1_linear_11909_201514)" stroke-width="0.424436"/>
<path opacity="0.214286" d="M62.3883 44.4798L36.7727 65.7113C35.3399 66.8989 33.2803 66.9511 31.7886 65.8377L7.01292 47.344C5.64889 46.3258 5.07076 44.5608 5.56815 42.9331L15.7134 9.733C16.2108 8.10531 17.6766 6.96549 19.3765 6.88453L50.2528 5.41389C52.1118 5.32535 53.7901 6.52094 54.3142 8.30711L63.6839 40.24C64.1374 41.7854 63.628 43.4523 62.3883 44.4798Z" stroke="url(#paint2_linear_11909_201514)" stroke-width="0.424436"/>
<path opacity="0.285714" d="M55.9739 54.4484L24.1033 63.9782C22.3209 64.5112 20.4052 63.7545 19.4673 62.147L3.88291 35.4369C3.02497 33.9664 3.18232 32.1155 4.27612 30.8113L26.5797 4.21769C27.6735 2.9135 29.4681 2.43705 31.0644 3.02704L60.0619 13.7441C61.8071 14.3892 62.8845 16.1452 62.6694 17.994L58.8233 51.0508C58.6371 52.6512 57.5168 53.9871 55.9739 54.4484Z" stroke="url(#paint3_linear_11909_201514)" stroke-width="0.424436"/>
<path opacity="0.357143" d="M46.1705 61.1174L13.1122 57.4306C11.2636 57.2245 9.79631 55.7798 9.56082 53.9341L5.6464 23.2535C5.43093 21.5646 6.29899 19.9221 7.81562 19.1489L38.7302 3.38931C40.2469 2.61617 42.0853 2.87899 43.3242 4.04608L65.8322 25.2481C67.1863 26.5236 67.4919 28.5604 66.5721 30.1779L50.1221 59.1029C49.3254 60.5038 47.7715 61.2959 46.1705 61.1174Z" stroke="url(#paint4_linear_11909_201514)" stroke-width="0.424436"/>
<path opacity="0.428571" d="M34.5424 63.4208L5.55219 47.104C3.93119 46.1916 3.14478 44.2887 3.64872 42.498L12.0276 12.7253C12.4888 11.0865 13.9296 9.91384 15.6278 9.79503L50.2386 7.3736C51.9369 7.25479 53.5267 8.21539 54.2114 9.77402L66.6502 38.0903C67.3984 39.7934 66.8843 41.7873 65.406 42.9165L38.9677 63.1112C37.6869 64.0895 35.9467 64.2112 34.5424 63.4208Z" stroke="url(#paint5_linear_11909_201514)" stroke-width="0.424436"/>
<path opacity="0.5" d="M22.941 61.0022L2.62765 34.6493C1.49177 33.1757 1.51109 31.1164 2.67441 29.6649L22.0143 5.53484C23.0789 4.2066 24.8629 3.69038 26.4725 4.24487L59.278 15.5463C60.8875 16.1008 61.9757 17.6065 61.9973 19.3089L62.3887 50.2365C62.4123 52.0968 61.1603 53.7315 59.3584 54.193L27.1349 62.447C25.5741 62.8468 23.9249 62.2786 22.941 61.0022Z" stroke="url(#paint6_linear_11909_201514)" stroke-width="0.424436"/>
<path opacity="0.571429" d="M13.2109 54.2409L4.804 22.0415C4.33384 20.2408 5.15633 18.3521 6.79458 17.4704L34.0195 2.8197C35.5182 2.01319 37.3618 2.23521 38.6265 3.37452L64.4118 26.6032C65.6765 27.7426 66.0899 29.5537 65.4448 31.1293L53.7274 59.75C53.0223 61.4722 51.2308 62.488 49.3917 62.2084L16.5058 57.2092C14.9135 56.9671 13.618 55.8 13.2109 54.2409Z" stroke="url(#paint7_linear_11909_201514)" stroke-width="0.424436"/>
<path opacity="0.642857" d="M6.88946 44.2103L11.726 11.2836C11.9965 9.44193 13.492 8.02441 15.345 7.85326L46.1258 5.01025C47.8204 4.85373 49.4305 5.77844 50.1495 7.32114L64.8141 38.7851C65.5331 40.3278 65.2062 42.1562 63.9971 43.3544L42.0348 65.1182C40.7126 66.4284 38.666 66.6634 37.082 65.6869L8.7624 48.2289C7.39173 47.3839 6.65537 45.804 6.88946 44.2103Z" stroke="url(#paint8_linear_11909_201514)" stroke-width="0.424436"/>
<path opacity="0.714286" d="M4.98939 32.5075L22.3006 4.08885C23.269 2.4992 25.1996 1.77892 26.9724 2.34586L56.4159 11.7616C58.037 12.28 59.158 13.7605 59.2173 15.4614L60.4284 50.1578C60.4877 51.8587 59.4727 53.4138 57.8917 54.044L29.1764 65.4918C27.4474 66.1811 25.4713 65.5973 24.3945 64.0791L5.14402 36.9378C4.21247 35.6245 4.15168 33.8827 4.98939 32.5075Z" stroke="url(#paint9_linear_11909_201514)" stroke-width="0.424436"/>
<path opacity="0.785714" d="M7.81482 20.9917L34.8483 1.59966C36.3604 0.514975 38.4185 0.606598 39.8289 1.82138L63.2549 21.9992C64.5446 23.1101 64.9983 24.9112 64.3886 26.5003L51.9534 58.9113C51.3437 60.5004 49.802 61.5351 48.1006 61.4973L17.1968 60.8094C15.3362 60.768 13.7454 59.4582 13.3472 57.6399L6.22671 25.1309C5.8821 23.5575 6.50646 21.9302 7.81482 20.9917Z" stroke="url(#paint10_linear_11909_201514)" stroke-width="0.424436"/>
<path opacity="0.857143" d="M14.9066 11.4934L47.3639 4.21119C49.1791 3.80392 51.0372 4.69233 51.8607 6.36129L65.545 34.0942C66.2983 35.6209 66.0122 37.4565 64.8301 38.6812L40.7269 63.6532C39.5448 64.8779 37.7213 65.228 36.17 64.5281L7.99014 51.8132C6.29429 51.048 5.34202 49.2212 5.68549 47.3919L11.8269 14.6841C12.1243 13.1006 13.3352 11.846 14.9066 11.4934Z" stroke="url(#paint11_linear_11909_201514)" stroke-width="0.424436"/>
<path opacity="0.928571" d="M25.1471 5.52689L57.8676 11.5118C59.6973 11.8465 61.0603 13.3899 61.1665 15.2474L62.9323 46.1268C63.0295 47.8265 62.049 49.4045 60.4821 50.07L28.5442 63.6335C26.9773 64.299 25.1617 63.9085 24.0071 62.6578L3.03204 39.9363C1.77029 38.5696 1.60741 36.5165 2.6378 34.9672L21.0644 7.26077C21.9568 5.91882 23.5623 5.23701 25.1471 5.52689Z" stroke="url(#paint12_linear_11909_201514)" stroke-width="0.424436"/>
<path d="M36.9082 4.0355L64.6901 22.3359C66.2436 23.3591 66.8954 25.3123 66.2678 27.0634L55.8335 56.1789C55.2592 57.7815 53.7402 58.8507 52.0378 58.8507H17.3425C15.6401 58.8507 14.1211 57.7815 13.5467 56.1789L3.11244 27.0634C2.48488 25.3123 3.1367 23.3591 4.69013 22.3359L32.4721 4.0355C33.8179 3.14898 35.5624 3.14898 36.9082 4.0355Z" stroke="url(#paint13_linear_11909_201514)" stroke-width="0.424436"/>
<path d="M51.7667 17.6802L39.25 10.4537C36.0013 8.57809 31.9987 8.57809 28.75 10.4537L16.2333 17.6802C12.9846 19.5559 10.9833 23.0222 10.9833 26.7735V41.2265C10.9833 44.9778 12.9846 48.4441 16.2333 50.3198L28.75 57.5463C31.9987 59.4219 36.0013 59.4219 39.25 57.5463L51.7667 50.3198C55.0154 48.4441 57.0167 44.9778 57.0167 41.2265V26.7735C57.0167 23.0222 55.0154 19.5559 51.7667 17.6802Z" fill="black" stroke="url(#paint14_linear_11909_201514)"/>
<g opacity="0.25">
<path d="M29.6439 45.4029C29.5208 45.2942 29.4438 45.1428 29.4284 44.9793L28.205 31.9635H32.559V46.5453C32.559 47.1014 31.9029 47.3974 31.486 47.0293L29.6439 45.4029Z" fill="black"/>
<path d="M32.559 31.7052V29.8883L27.9726 29.492L28.1807 31.7052H32.559Z" fill="black"/>
<path d="M32.559 29.629L27.9481 29.2307L27.2274 21.5635C27.1918 21.1847 27.4898 20.8574 27.8702 20.8574H31.9133C32.27 20.8574 32.559 21.1465 32.559 21.5031V29.629Z" fill="black"/>
<path d="M41.0692 31.7052H44.3882C44.5665 31.7052 44.7111 31.5606 44.7111 31.3823V29.4783C44.7111 29.2876 44.5467 29.1385 44.3569 29.157L41.2748 29.4579L41.0692 31.7052Z" fill="black"/>
<path d="M41.0131 29.4835L36.4203 29.932V31.7052H40.8098L41.0131 29.4835Z" fill="black"/>
<path d="M36.1621 29.9572V31.7052H23.9325C23.7542 31.7052 23.6097 31.5606 23.6097 31.3823V29.474C23.6097 29.2849 23.7716 29.1362 23.9601 29.1524L34.8289 30.082C34.8485 30.0836 34.8683 30.0835 34.8878 30.0816L36.1621 29.9572Z" fill="black"/>
<path d="M37.5257 46.9854C37.1202 47.3964 36.4203 47.1093 36.4203 46.5319V26.5009H41.2922L39.5974 44.6775C39.5835 44.8259 39.5188 44.965 39.4141 45.0711L37.5257 46.9854Z" fill="black"/>
<path d="M41.3163 26.2426H36.4203V23.4587L41.606 23.1352L41.3163 26.2426Z" fill="black"/>
<path d="M36.4203 21.5032V23.1999L41.6303 22.8749L41.7526 21.5632C41.7879 21.1845 41.4899 20.8575 41.1097 20.8575H37.066C36.7094 20.8575 36.4203 21.1466 36.4203 21.5032Z" fill="black"/>
<path d="M32.5591 26.2426V23.4668L27.3798 23.2119L27.6632 26.2426H32.5591Z" fill="black"/>
<path d="M32.8173 26.2426H45.8733C46.016 26.2426 46.1316 26.127 46.1316 25.9844V23.115C46.1316 22.9659 46.0058 22.8478 45.857 22.8573L34.6447 23.5695L32.8173 23.4795V26.2426Z" fill="black"/>
<path d="M27.0979 23.1981L27.4073 26.2426H22.1762C22.0336 26.2426 21.918 26.127 21.918 25.9844V23.2144C21.918 23.0668 22.0415 22.9492 22.1889 22.9565L27.0979 23.1981Z" fill="black"/>
</g>
<path d="M29.5931 45.3521C29.47 45.2435 29.393 45.092 29.3776 44.9285L28.1542 31.9127H32.5083V46.4945C32.5083 47.0506 31.8521 47.3466 31.4352 46.9785L29.5931 45.3521Z" fill="url(#paint15_linear_11909_201514)"/>
<path d="M32.5083 31.6545V29.8375L27.9219 29.4412L28.1299 31.6545H32.5083Z" fill="url(#paint16_linear_11909_201514)"/>
<path d="M32.5083 29.5783L27.8973 29.1799L27.1766 21.5128C27.141 21.134 27.439 20.8066 27.8195 20.8066H31.8626C32.2192 20.8066 32.5083 21.0957 32.5083 21.4523V29.5783Z" fill="url(#paint17_linear_11909_201514)"/>
<path d="M41.0184 31.6544H44.3375C44.5158 31.6544 44.6603 31.5099 44.6603 31.3316V29.4275C44.6603 29.2368 44.4959 29.0877 44.3061 29.1062L41.224 29.4072L41.0184 31.6544Z" fill="url(#paint18_linear_11909_201514)"/>
<path d="M40.9623 29.4327L36.3696 29.8812V31.6544H40.759L40.9623 29.4327Z" fill="url(#paint19_linear_11909_201514)"/>
<path d="M36.1113 29.9064V31.6544H23.8818C23.7035 31.6544 23.5589 31.5099 23.5589 31.3316V29.4233C23.5589 29.2341 23.7208 29.0855 23.9093 29.1016L34.7782 30.0312C34.7978 30.0329 34.8175 30.0327 34.837 30.0308L36.1113 29.9064Z" fill="url(#paint20_linear_11909_201514)"/>
<path d="M37.4749 46.9346C37.0695 47.3457 36.3696 47.0585 36.3696 46.4812V26.4501H41.2414L39.5466 44.6268C39.5328 44.7752 39.468 44.9142 39.3634 45.0203L37.4749 46.9346Z" fill="url(#paint21_linear_11909_201514)"/>
<path d="M41.2655 26.1918H36.3696V23.4079L41.5552 23.0844L41.2655 26.1918Z" fill="url(#paint22_linear_11909_201514)"/>
<path d="M36.3696 21.4524V23.1491L41.5795 22.8241L41.7018 21.5124C41.7371 21.1337 41.4392 20.8067 41.0589 20.8067H37.0152C36.6586 20.8067 36.3696 21.0958 36.3696 21.4524Z" fill="url(#paint23_linear_11909_201514)"/>
<path d="M32.5083 26.1919V23.416L27.329 23.1611L27.6124 26.1919H32.5083Z" fill="url(#paint24_linear_11909_201514)"/>
<path d="M32.7666 26.1919H45.8226C45.9652 26.1919 46.0808 26.0762 46.0808 25.9336V23.0642C46.0808 22.9152 45.955 22.797 45.8062 22.8065L34.5939 23.5187L32.7666 23.4287V26.1919Z" fill="url(#paint25_linear_11909_201514)"/>
<path d="M27.0472 23.1473L27.3565 26.1919H22.1255C21.9828 26.1919 21.8672 26.0762 21.8672 25.9336V23.1636C21.8672 23.016 21.9907 22.8984 22.1382 22.9057L27.0472 23.1473Z" fill="url(#paint26_linear_11909_201514)"/>
<path d="M28.1338 29.2003L27.8973 29.1799L27.6164 26.1919H27.6124L27.329 23.1611L27.3316 23.1613L27.1766 21.5128C27.141 21.134 27.439 20.8066 27.8195 20.8066H31.8626C32.1074 20.8066 32.3204 20.9429 32.4299 21.1438C32.3383 21.0939 32.2332 21.0655 32.1215 21.0655H28.0784C27.6979 21.0655 27.3999 21.3928 27.4356 21.7716L27.5905 23.4201L27.588 23.42L27.8714 26.4507H27.8754L28.1338 29.2003Z" fill="white"/>
<path d="M32.7672 26.1919H33.0255V23.6876L34.8528 23.7775L46.0651 23.0654C46.0704 23.065 46.0756 23.0648 46.0808 23.0648V23.0642C46.0808 22.9152 45.955 22.797 45.8062 22.8065L41.8407 23.0584L41.8384 23.083L36.6285 23.408V23.3894L34.5939 23.5187L32.7672 23.4288L32.7672 26.1919Z" fill="white"/>
<path d="M41.6262 21.1438C41.5348 21.094 41.4299 21.0656 41.3178 21.0656H37.2742C36.9176 21.0656 36.6285 21.3547 36.6285 21.7113V23.133L36.3696 23.1491V21.4524C36.3696 21.0958 36.6586 20.8067 37.0153 20.8067H41.0589C41.3053 20.8067 41.5172 20.9441 41.6262 21.1438Z" fill="white"/>
<path d="M36.3696 26.4507H41.2413L41.2173 26.709H36.6285V46.74C36.6285 46.8549 36.6562 46.9582 36.7038 47.0469C36.5111 46.9418 36.3696 46.7408 36.3696 46.4812V31.9133H36.3702V30.1653L36.3696 30.1654V26.4507Z" fill="white"/>
<path d="M36.1113 30.1906V29.9064L34.837 30.0308C34.8175 30.0327 34.7978 30.0329 34.7782 30.0312L27.9219 29.4412L27.9222 29.4448L23.9093 29.1016C23.7208 29.0855 23.5589 29.2341 23.5589 29.4233V31.3316C23.5589 31.4899 23.6728 31.6216 23.8232 31.6491C23.8197 31.6301 23.8179 31.6105 23.8179 31.5904V29.6821C23.8179 29.493 23.9798 29.3443 24.1682 29.3605L28.1811 29.7037L28.1808 29.7001L35.0371 30.2901C35.0567 30.2917 35.0764 30.2916 35.096 30.2897L36.1113 30.1906Z" fill="white"/>
<path d="M28.1542 31.9133L29.3776 44.9285C29.393 45.092 29.47 45.2435 29.5931 45.3521L29.7399 45.4818C29.6824 45.3943 29.6465 45.2933 29.6366 45.1874L28.4131 32.1716H32.5083V31.9133L28.1542 31.9133Z" fill="white"/>
<path d="M41.0417 31.6544H41.301L41.483 29.666L44.565 29.3651C44.5959 29.3621 44.6261 29.3635 44.655 29.3688C44.6254 29.2073 44.4759 29.0896 44.3061 29.1062L41.249 29.4047L41.1696 30.2566L41.0417 31.6544Z" fill="white"/>
<path d="M27.0723 23.3946L27.0472 23.1473L22.1382 22.9057C21.9907 22.8984 21.8672 23.016 21.8672 23.1636V25.9336C21.8672 26.0762 21.9828 26.1919 22.1255 26.1919H22.1261V23.4225C22.1261 23.2749 22.2497 23.1573 22.3971 23.1646L27.0723 23.3946Z" fill="white"/>
</g>
<rect x="35.7276" y="7.72763" width="28.5447" height="12.5447" rx="6.27237" fill="black"/>
<path d="M40.3144 16L41.8964 10.806H43.4084L44.9904 16H43.7374L43.4714 15.055H41.8194L41.5604 16H40.3144ZM42.0994 13.97H43.1914L42.6454 11.842L42.0994 13.97ZM46.6682 16.021C46.3882 16.021 46.1549 15.9767 45.9682 15.888C45.7816 15.7947 45.6439 15.657 45.5552 15.475C45.4666 15.293 45.4222 15.062 45.4222 14.782V10.659H46.6332V14.593C46.6332 14.7097 46.6449 14.803 46.6682 14.873C46.6916 14.943 46.7289 14.9967 46.7802 15.034C46.8316 15.0667 46.8969 15.09 46.9762 15.104L47.2282 15.139V16.021H46.6682ZM47.7344 17.659V12.234H48.7494L48.9454 12.584C49.0341 12.5093 49.1274 12.4417 49.2254 12.381C49.3234 12.3157 49.4284 12.2643 49.5404 12.227C49.6571 12.1897 49.7854 12.171 49.9254 12.171C50.1494 12.171 50.3454 12.213 50.5134 12.297C50.6861 12.381 50.8261 12.507 50.9334 12.675C51.0408 12.8383 51.1201 13.0413 51.1714 13.284C51.2274 13.5267 51.2554 13.8067 51.2554 14.124C51.2554 14.5207 51.2158 14.8637 51.1364 15.153C51.0618 15.4423 50.9288 15.6663 50.7374 15.825C50.5461 15.979 50.2754 16.056 49.9254 16.056C49.7574 16.056 49.5871 16.0373 49.4144 16C49.2418 15.9673 49.0854 15.916 48.9454 15.846V17.659H47.7344ZM49.5194 15.062C49.6034 15.062 49.6851 15.0387 49.7644 14.992C49.8484 14.9407 49.9161 14.8473 49.9674 14.712C50.0188 14.5767 50.0444 14.3807 50.0444 14.124C50.0444 13.8673 50.0234 13.669 49.9814 13.529C49.9394 13.3843 49.8788 13.284 49.7994 13.228C49.7248 13.172 49.6338 13.144 49.5264 13.144C49.4051 13.144 49.2931 13.1627 49.1904 13.2C49.0878 13.2373 49.0061 13.2747 48.9454 13.312V14.922C49.0108 14.964 49.0948 14.999 49.1974 15.027C49.3048 15.0503 49.4121 15.062 49.5194 15.062ZM51.9197 16V10.666H53.1307V12.605C53.2473 12.4977 53.4107 12.3997 53.6207 12.311C53.8307 12.2177 54.043 12.171 54.2577 12.171C54.5517 12.171 54.7827 12.227 54.9507 12.339C55.1187 12.451 55.2377 12.6097 55.3077 12.815C55.3823 13.0203 55.4197 13.2583 55.4197 13.529V16H54.2087V13.69C54.2087 13.5873 54.1877 13.5033 54.1457 13.438C54.1083 13.3727 54.0547 13.326 53.9847 13.298C53.9193 13.27 53.847 13.256 53.7677 13.256C53.6883 13.256 53.609 13.2677 53.5297 13.291C53.455 13.3143 53.3827 13.3447 53.3127 13.382C53.2427 13.4147 53.182 13.4543 53.1307 13.501V16H51.9197ZM56.9993 16.042C56.7099 16.042 56.4766 15.958 56.2993 15.79C56.1219 15.6173 56.0333 15.384 56.0333 15.09V14.726C56.0333 14.4413 56.1336 14.2057 56.3343 14.019C56.5396 13.8323 56.8593 13.739 57.2933 13.739H58.1473V13.557C58.1473 13.4543 58.1286 13.3703 58.0913 13.305C58.0539 13.2397 57.9816 13.193 57.8743 13.165C57.7669 13.137 57.6013 13.123 57.3773 13.123H56.2713V12.43C56.4579 12.36 56.6749 12.304 56.9223 12.262C57.1743 12.2153 57.4776 12.1897 57.8323 12.185C58.1449 12.185 58.4156 12.2223 58.6443 12.297C58.8729 12.3717 59.0479 12.5023 59.1693 12.689C59.2953 12.871 59.3583 13.1323 59.3583 13.473V16H58.3993L58.2103 15.615C58.1683 15.6523 58.1099 15.6967 58.0353 15.748C57.9653 15.7947 57.8766 15.8413 57.7693 15.888C57.6666 15.9347 57.5499 15.972 57.4193 16C57.2886 16.028 57.1486 16.042 56.9993 16.042ZM57.6223 15.209C57.6549 15.2137 57.6923 15.2113 57.7343 15.202C57.7809 15.1927 57.8253 15.1833 57.8673 15.174C57.9093 15.16 57.9489 15.1483 57.9863 15.139C58.0283 15.125 58.0609 15.1133 58.0843 15.104C58.1123 15.09 58.1333 15.0807 58.1473 15.076V14.306L57.6993 14.348C57.5453 14.3667 57.4286 14.4087 57.3493 14.474C57.2746 14.5347 57.2373 14.6233 57.2373 14.74V14.887C57.2373 14.9663 57.2536 15.0317 57.2863 15.083C57.3189 15.1297 57.3633 15.1623 57.4193 15.181C57.4799 15.1997 57.5476 15.209 57.6223 15.209Z" fill="url(#paint27_linear_11909_201514)"/>
<rect x="35.7276" y="7.72763" width="28.5447" height="12.5447" rx="6.27237" stroke="url(#paint28_linear_11909_201514)" stroke-width="0.544747"/>
<defs>
<linearGradient id="paint0_linear_11909_201514" x1="24.845" y1="16.0547" x2="44.8112" y2="52.0566" gradientUnits="userSpaceOnUse">
<stop offset="0.166667" stop-color="#876CF5" stop-opacity="0"/>
<stop offset="0.520833" stop-color="#1FDBFA" stop-opacity="0.6"/>
<stop offset="1" stop-color="#876CF5" stop-opacity="0.36"/>
</linearGradient>
<linearGradient id="paint1_linear_11909_201514" x1="32.5125" y1="13.6078" x2="36.8183" y2="54.5545" gradientUnits="userSpaceOnUse">
<stop offset="0.166667" stop-color="#876CF5" stop-opacity="0"/>
<stop offset="0.520833" stop-color="#1FDBFA" stop-opacity="0.6"/>
<stop offset="1" stop-color="#876CF5" stop-opacity="0.36"/>
</linearGradient>
<linearGradient id="paint2_linear_11909_201514" x1="40.5329" y1="14.3571" x2="28.4902" y2="53.7273" gradientUnits="userSpaceOnUse">
<stop offset="0.166667" stop-color="#876CF5" stop-opacity="0"/>
<stop offset="0.520833" stop-color="#1FDBFA" stop-opacity="0.6"/>
<stop offset="1" stop-color="#876CF5" stop-opacity="0.36"/>
</linearGradient>
<linearGradient id="paint3_linear_11909_201514" x1="47.6209" y1="18.1762" x2="21.1533" y2="49.7033" gradientUnits="userSpaceOnUse">
<stop offset="0.166667" stop-color="#876CF5" stop-opacity="0"/>
<stop offset="0.520833" stop-color="#1FDBFA" stop-opacity="0.6"/>
<stop offset="1" stop-color="#876CF5" stop-opacity="0.36"/>
</linearGradient>
<linearGradient id="paint4_linear_11909_201514" x1="52.6483" y1="24.4633" x2="15.974" y2="43.1405" gradientUnits="userSpaceOnUse">
<stop offset="0.166667" stop-color="#876CF5" stop-opacity="0"/>
<stop offset="0.520833" stop-color="#1FDBFA" stop-opacity="0.6"/>
<stop offset="1" stop-color="#876CF5" stop-opacity="0.36"/>
</linearGradient>
<linearGradient id="paint5_linear_11909_201514" x1="54.8206" y1="32.2132" x2="13.7685" y2="35.0825" gradientUnits="userSpaceOnUse">
<stop offset="0.166667" stop-color="#876CF5" stop-opacity="0"/>
<stop offset="0.520833" stop-color="#1FDBFA" stop-opacity="0.6"/>
<stop offset="1" stop-color="#876CF5" stop-opacity="0.36"/>
</linearGradient>
<linearGradient id="paint6_linear_11909_201514" x1="53.7947" y1="40.2025" x2="14.8805" y2="26.8099" gradientUnits="userSpaceOnUse">
<stop offset="0.166667" stop-color="#876CF5" stop-opacity="0"/>
<stop offset="0.520833" stop-color="#1FDBFA" stop-opacity="0.6"/>
<stop offset="1" stop-color="#876CF5" stop-opacity="0.36"/>
</linearGradient>
<linearGradient id="paint7_linear_11909_201514" x1="49.7346" y1="47.1552" x2="19.139" y2="19.6205" gradientUnits="userSpaceOnUse">
<stop offset="0.166667" stop-color="#876CF5" stop-opacity="0"/>
<stop offset="0.520833" stop-color="#1FDBFA" stop-opacity="0.6"/>
<stop offset="1" stop-color="#876CF5" stop-opacity="0.36"/>
</linearGradient>
<linearGradient id="paint8_linear_11909_201514" x1="43.2771" y1="51.9648" x2="25.8712" y2="14.6563" gradientUnits="userSpaceOnUse">
<stop offset="0.166667" stop-color="#876CF5" stop-opacity="0"/>
<stop offset="0.520833" stop-color="#1FDBFA" stop-opacity="0.6"/>
<stop offset="1" stop-color="#876CF5" stop-opacity="0.36"/>
</linearGradient>
<linearGradient id="paint9_linear_11909_201514" x1="35.4563" y1="53.8699" x2="34.0187" y2="12.7224" gradientUnits="userSpaceOnUse">
<stop offset="0.166667" stop-color="#876CF5" stop-opacity="0"/>
<stop offset="0.520833" stop-color="#1FDBFA" stop-opacity="0.6"/>
<stop offset="1" stop-color="#876CF5" stop-opacity="0.36"/>
</linearGradient>
<linearGradient id="paint10_linear_11909_201514" x1="27.5167" y1="52.5664" x2="42.2771" y2="14.1333" gradientUnits="userSpaceOnUse">
<stop offset="0.166667" stop-color="#876CF5" stop-opacity="0"/>
<stop offset="0.520833" stop-color="#1FDBFA" stop-opacity="0.6"/>
<stop offset="1" stop-color="#876CF5" stop-opacity="0.36"/>
</linearGradient>
<linearGradient id="paint11_linear_11909_201514" x1="20.7101" y1="48.2604" x2="49.3115" y2="18.6575" gradientUnits="userSpaceOnUse">
<stop offset="0.166667" stop-color="#876CF5" stop-opacity="0"/>
<stop offset="0.520833" stop-color="#1FDBFA" stop-opacity="0.6"/>
<stop offset="1" stop-color="#876CF5" stop-opacity="0.36"/>
</linearGradient>
<linearGradient id="paint12_linear_11909_201514" x1="16.1292" y1="41.6395" x2="54.0158" y2="25.5657" gradientUnits="userSpaceOnUse">
<stop offset="0.166667" stop-color="#876CF5" stop-opacity="0"/>
<stop offset="0.520833" stop-color="#1FDBFA" stop-opacity="0.6"/>
<stop offset="1" stop-color="#876CF5" stop-opacity="0.36"/>
</linearGradient>
<linearGradient id="paint13_linear_11909_201514" x1="14.5035" y1="33.7518" x2="55.6557" y2="33.7518" gradientUnits="userSpaceOnUse">
<stop offset="0.166667" stop-color="#876CF5" stop-opacity="0"/>
<stop offset="0.520833" stop-color="#1FDBFA" stop-opacity="0.6"/>
<stop offset="1" stop-color="#876CF5" stop-opacity="0.36"/>
</linearGradient>
<linearGradient id="paint14_linear_11909_201514" x1="18.2742" y1="11.7742" x2="52.4516" y2="55.8064" gradientUnits="userSpaceOnUse">
<stop stop-color="#A73EE7"/>
<stop offset="1" stop-color="#00EBFF"/>
</linearGradient>
<linearGradient id="paint15_linear_11909_201514" x1="21.8672" y1="33.974" x2="46.0808" y2="33.974" gradientUnits="userSpaceOnUse">
<stop stop-color="#5433FF"/>
<stop offset="0.5" stop-color="#20BDFF"/>
<stop offset="1" stop-color="#A5FECB"/>
</linearGradient>
<linearGradient id="paint16_linear_11909_201514" x1="21.8672" y1="33.974" x2="46.0808" y2="33.974" gradientUnits="userSpaceOnUse">
<stop stop-color="#5433FF"/>
<stop offset="0.5" stop-color="#20BDFF"/>
<stop offset="1" stop-color="#A5FECB"/>
</linearGradient>
<linearGradient id="paint17_linear_11909_201514" x1="21.8672" y1="33.974" x2="46.0808" y2="33.974" gradientUnits="userSpaceOnUse">
<stop stop-color="#5433FF"/>
<stop offset="0.5" stop-color="#20BDFF"/>
<stop offset="1" stop-color="#A5FECB"/>
</linearGradient>
<linearGradient id="paint18_linear_11909_201514" x1="21.8672" y1="33.974" x2="46.0808" y2="33.974" gradientUnits="userSpaceOnUse">
<stop stop-color="#5433FF"/>
<stop offset="0.5" stop-color="#20BDFF"/>
<stop offset="1" stop-color="#A5FECB"/>
</linearGradient>
<linearGradient id="paint19_linear_11909_201514" x1="21.8672" y1="33.974" x2="46.0808" y2="33.974" gradientUnits="userSpaceOnUse">
<stop stop-color="#5433FF"/>
<stop offset="0.5" stop-color="#20BDFF"/>
<stop offset="1" stop-color="#A5FECB"/>
</linearGradient>
<linearGradient id="paint20_linear_11909_201514" x1="21.8672" y1="33.974" x2="46.0808" y2="33.974" gradientUnits="userSpaceOnUse">
<stop stop-color="#5433FF"/>
<stop offset="0.5" stop-color="#20BDFF"/>
<stop offset="1" stop-color="#A5FECB"/>
</linearGradient>
<linearGradient id="paint21_linear_11909_201514" x1="21.8672" y1="33.974" x2="46.0808" y2="33.974" gradientUnits="userSpaceOnUse">
<stop stop-color="#5433FF"/>
<stop offset="0.5" stop-color="#20BDFF"/>
<stop offset="1" stop-color="#A5FECB"/>
</linearGradient>
<linearGradient id="paint22_linear_11909_201514" x1="21.8672" y1="33.974" x2="46.0808" y2="33.974" gradientUnits="userSpaceOnUse">
<stop stop-color="#5433FF"/>
<stop offset="0.5" stop-color="#20BDFF"/>
<stop offset="1" stop-color="#A5FECB"/>
</linearGradient>
<linearGradient id="paint23_linear_11909_201514" x1="21.8672" y1="33.974" x2="46.0808" y2="33.974" gradientUnits="userSpaceOnUse">
<stop stop-color="#5433FF"/>
<stop offset="0.5" stop-color="#20BDFF"/>
<stop offset="1" stop-color="#A5FECB"/>
</linearGradient>
<linearGradient id="paint24_linear_11909_201514" x1="21.8672" y1="33.974" x2="46.0808" y2="33.974" gradientUnits="userSpaceOnUse">
<stop stop-color="#5433FF"/>
<stop offset="0.5" stop-color="#20BDFF"/>
<stop offset="1" stop-color="#A5FECB"/>
</linearGradient>
<linearGradient id="paint25_linear_11909_201514" x1="21.8672" y1="33.974" x2="46.0808" y2="33.974" gradientUnits="userSpaceOnUse">
<stop stop-color="#5433FF"/>
<stop offset="0.5" stop-color="#20BDFF"/>
<stop offset="1" stop-color="#A5FECB"/>
</linearGradient>
<linearGradient id="paint26_linear_11909_201514" x1="21.8672" y1="33.974" x2="46.0808" y2="33.974" gradientUnits="userSpaceOnUse">
<stop stop-color="#5433FF"/>
<stop offset="0.5" stop-color="#20BDFF"/>
<stop offset="1" stop-color="#A5FECB"/>
</linearGradient>
<linearGradient id="paint27_linear_11909_201514" x1="43.9516" y1="10.5806" x2="47.0256" y2="20.4817" gradientUnits="userSpaceOnUse">
<stop stop-color="#A73EE7"/>
<stop offset="1" stop-color="#00EBFF"/>
</linearGradient>
<linearGradient id="paint28_linear_11909_201514" x1="41.5323" y1="8.87097" x2="46.4092" y2="23.5318" gradientUnits="userSpaceOnUse">
<stop stop-color="#A73EE7"/>
<stop offset="1" stop-color="#00EBFF"/>
</linearGradient>
<clipPath id="clip0_11909_201514">
<rect width="68" height="68" fill="white"/>
</clipPath>
</defs>
</svg>
