<svg viewBox="0 0 475 475" fill="none" xmlns="http://www.w3.org/2000/svg">
<path d="M229.209 28.3263C235.918 28.3263 241.357 22.7719 241.357 15.9201C241.357 9.0684 235.918 3.51398 229.209 3.51398C222.5 3.51398 217.061 9.0684 217.061 15.9201C217.061 22.7719 222.5 28.3263 229.209 28.3263Z" fill="#CDC366"/>
<path d="M280.253 78.4665C287.747 78.4665 293.822 72.2177 293.822 64.5095C293.822 56.8013 287.747 50.5526 280.253 50.5526C272.759 50.5526 266.684 56.8013 266.684 64.5095C266.684 72.2177 272.759 78.4665 280.253 78.4665Z" fill="#CEB866"/>
<path d="M306.994 143.729C315.344 143.729 322.114 136.786 322.114 128.221C322.114 119.656 315.344 112.713 306.994 112.713C298.643 112.713 291.874 119.656 291.874 128.221C291.874 136.786 298.643 143.729 306.994 143.729Z" fill="#D0AC67"/>
<path d="M293.172 214.289C302.379 214.289 309.843 206.652 309.843 197.231C309.843 187.81 302.379 180.172 293.172 180.172C283.965 180.172 276.501 187.81 276.501 197.231C276.501 206.652 283.965 214.289 293.172 214.289Z" fill="#D1A167"/>
<path d="M171.054 282.135C181.903 282.135 190.697 273.167 190.697 262.104C190.697 251.042 181.903 242.073 171.054 242.073C160.206 242.073 151.411 251.042 151.411 262.104C151.411 273.167 160.206 282.135 171.054 282.135Z" fill="#D38B68"/>
<path d="M154.508 349.852C166.213 349.852 175.701 340.19 175.701 328.271C175.701 316.352 166.213 306.689 154.508 306.689C142.803 306.689 133.314 316.352 133.314 328.271C133.314 340.19 142.803 349.852 154.508 349.852Z" fill="#D48068"/>
<path d="M178.153 417.957C190.643 417.957 200.769 407.6 200.769 394.825C200.769 382.049 190.643 371.692 178.153 371.692C165.663 371.692 155.538 382.049 155.538 394.825C155.538 407.6 165.663 417.957 178.153 417.957Z" fill="#D67469"/>
<path d="M229.203 468.357C242.55 468.357 253.369 457.306 253.369 443.674C253.369 430.042 242.55 418.991 229.203 418.991C215.856 418.991 205.037 430.042 205.037 443.674C205.037 457.306 215.856 468.357 229.203 468.357Z" fill="#D76969"/>
<path d="M396.425 92.3895C405.95 82.6371 405.931 67.1716 396.383 57.8463C386.835 48.521 371.373 48.8673 361.849 58.6197C352.324 68.3721 352.343 83.8376 361.891 93.1628C371.439 102.488 386.901 102.142 396.425 92.3895Z" fill="#5CA97B"/>
<path d="M398.089 161.93C407.115 152.688 407.106 138.041 398.068 129.214C389.031 120.388 374.387 120.724 365.361 129.966C356.335 139.208 356.344 153.855 365.382 162.682C374.419 171.508 389.063 171.172 398.089 161.93Z" fill="#6BA779"/>
<path d="M371.813 225.355C380.34 216.624 380.34 202.795 371.813 194.467C363.286 186.139 349.461 186.466 340.934 195.197C332.406 203.928 332.406 217.757 340.933 226.085C349.46 234.413 363.285 234.086 371.813 225.355Z" fill="#7BA677"/>
<path d="M312.735 264.136C320.714 255.967 320.684 242.997 312.667 235.168C304.651 227.339 291.684 227.615 283.705 235.784C275.726 243.954 275.757 256.923 283.773 264.753C291.79 272.582 304.756 272.306 312.735 264.136Z" fill="#8AA474"/>
<path d="M178.303 223.425C185.285 216.276 185.274 204.943 178.279 198.111C171.283 191.279 159.953 191.536 152.972 198.684C145.99 205.833 146.001 217.166 152.996 223.998C159.992 230.83 171.322 230.573 178.303 223.425Z" fill="#A9A270"/>
<path d="M119.238 258.329C125.671 251.742 125.629 241.269 119.145 234.935C112.66 228.602 102.188 228.808 95.7554 235.394C89.3225 241.981 89.3643 252.455 95.8489 258.788C102.333 265.121 112.805 264.916 119.238 258.329Z" fill="#B8A06E"/>
<path d="M88.747 321.369C94.6812 315.293 94.649 305.637 88.6751 299.803C82.7011 293.968 73.0475 294.164 67.1133 300.24C61.179 306.316 61.2112 315.972 67.1852 321.806C73.1592 327.641 82.8127 327.445 88.747 321.369Z" fill="#C89F6B"/>
<path d="M90 391.116C95.4356 385.55 95.4544 376.753 90.0421 371.467C84.6298 366.181 75.8358 366.408 70.4002 371.973C64.9646 377.539 64.9458 386.336 70.3581 391.622C75.7704 396.908 84.5644 396.681 90 391.116Z" fill="#D79D69"/>
<path d="M445.324 246.963C458.952 246.64 469.743 235.562 469.427 222.219C469.11 208.877 457.806 198.322 444.178 198.645C430.55 198.968 419.759 210.047 420.075 223.389C420.391 236.732 431.696 247.286 445.324 246.963Z" fill="#CDC366"/>
<path d="M397.998 297.751C410.841 297.446 421.011 287.02 420.713 274.462C420.416 261.904 409.763 251.971 396.92 252.275C384.077 252.58 373.907 263.007 374.204 275.564C374.502 288.122 385.155 298.055 397.998 297.751Z" fill="#CEB866"/>
<path d="M334.904 324.761C346.962 324.475 356.51 314.641 356.229 302.797C355.948 290.953 345.945 281.583 333.887 281.869C321.829 282.155 312.281 291.988 312.562 303.832C312.843 315.676 322.846 325.046 334.904 324.761Z" fill="#D0AC67"/>
<path d="M265.473 311.195C276.817 310.926 285.802 301.742 285.539 290.683C285.277 279.623 275.868 270.876 264.523 271.145C253.178 271.414 244.194 280.597 244.456 291.657C244.719 302.716 254.128 311.463 265.473 311.195Z" fill="#D1A167"/>
<path d="M197.822 187.911C207.597 187.68 215.337 179.741 215.111 170.18C214.884 160.619 206.776 153.056 197.001 153.288C187.226 153.52 179.485 161.458 179.712 171.019C179.939 180.58 188.047 188.143 197.822 187.911Z" fill="#D38B68"/>
<path d="M131.101 171.504C140.092 171.29 147.211 164.003 147.003 155.227C146.795 146.451 139.338 139.509 130.348 139.722C121.358 139.935 114.238 147.223 114.446 155.999C114.654 164.775 122.111 171.717 131.101 171.504Z" fill="#D48068"/>
<path d="M65.1649 195.413C73.3702 195.218 79.867 188.525 79.6759 180.462C79.4847 172.399 72.678 166.021 64.4727 166.215C56.2673 166.41 49.7706 173.104 49.9617 181.166C50.1528 189.229 56.9595 195.607 65.1649 195.413Z" fill="#D67469"/>
<path d="M17.4496 246.2C24.87 246.024 30.7457 239.982 30.5731 232.704C30.4006 225.426 24.2452 219.669 16.8248 219.845C9.40428 220.021 3.52866 226.063 3.7012 233.341C3.87373 240.619 10.0291 246.376 17.4496 246.2Z" fill="#D76969"/>
<path d="M406.866 391.02C415.963 381.253 415.251 365.802 405.275 356.511C395.299 347.219 379.837 347.605 370.74 357.372C361.643 367.139 362.355 382.589 372.331 391.88C382.307 401.172 397.769 400.787 406.866 391.02Z" fill="#D79D69"/>
<path d="M335.403 394.2C343.917 385.06 343.239 370.591 333.89 361.883C324.54 353.175 310.06 353.526 301.547 362.666C293.034 371.806 293.711 386.275 303.06 394.983C312.41 403.691 326.89 403.34 335.403 394.2Z" fill="#C89F6B"/>
<path d="M269.329 369.38C277.258 360.867 276.615 347.379 267.893 339.255C259.171 331.131 245.671 331.447 237.742 339.96C229.812 348.474 230.455 361.961 239.178 370.085C247.9 378.209 261.399 377.894 269.329 369.38Z" fill="#B8A06E"/>
<path d="M227.147 311.034C234.493 303.147 233.885 290.641 225.79 283.101C217.694 275.561 205.176 275.841 197.83 283.728C190.485 291.615 191.093 304.121 199.188 311.661C207.284 319.202 219.802 318.921 227.147 311.034Z" fill="#A9A270"/>
<path d="M260.56 175.49C266.787 168.805 266.33 158.258 259.54 151.934C252.751 145.61 242.198 145.903 235.972 152.588C229.745 159.274 230.201 169.82 236.991 176.144C243.781 182.469 254.333 182.176 260.56 175.49Z" fill="#8AA474"/>
<path d="M222.225 117.045C227.868 110.986 227.446 101.421 221.283 95.681C215.12 89.9406 205.549 90.1987 199.906 96.2574C194.263 102.316 194.685 111.881 200.848 117.621C207.011 123.362 216.582 123.104 222.225 117.045Z" fill="#7BA677"/>
<path d="M156.416 88.0365C161.475 82.6045 161.088 74.0208 155.552 68.8642C150.015 63.7076 141.426 63.9308 136.367 69.3627C131.307 74.7947 131.694 83.3784 137.23 88.535C142.767 93.6916 151.356 93.4684 156.416 88.0365Z" fill="#6BA779"/>
<path d="M84.6622 90.8879C89.1378 86.0827 88.7859 78.4803 83.8763 73.9075C78.9666 69.3346 71.3584 69.523 66.8829 74.3281C62.4073 79.1333 62.7592 86.7357 67.6689 91.3086C72.5785 95.8814 80.1867 95.6931 84.6622 90.8879Z" fill="#5CA97B"/>
<path d="M231.525 249.828C242.016 249.828 250.521 241.323 250.521 230.831C250.521 220.339 242.016 211.834 231.525 211.834C221.033 211.834 212.528 220.339 212.528 230.831C212.528 241.323 221.033 249.828 231.525 249.828Z" fill="#CDC366"/>
</svg>
