<svg width="16" height="16" viewBox="0 0 16 16" fill="none" xmlns="http://www.w3.org/2000/svg">
<g clip-path="url(#clip0_9809_192330)">
<path d="M11.3337 6.66797H13.3337M15.3337 6.66797H13.3337M13.3337 6.66797V4.66797M13.3337 6.66797V8.66797M0.666992 13.3346V12.668C0.666992 11.4303 1.15866 10.2433 2.03383 9.36814C2.909 8.49297 4.09598 8.0013 5.33366 8.0013V8.0013C6.57134 8.0013 7.75832 8.49297 8.63349 9.36814C9.50866 10.2433 10.0003 11.4303 10.0003 12.668V13.3346M5.33366 8.0013C6.0409 8.0013 6.71918 7.72035 7.21928 7.22025C7.71937 6.72016 8.00033 6.04188 8.00033 5.33464C8.00033 4.62739 7.71937 3.94911 7.21928 3.44902C6.71918 2.94892 6.0409 2.66797 5.33366 2.66797C4.62641 2.66797 3.94814 2.94892 3.44804 3.44902C2.94794 3.94911 2.66699 4.62739 2.66699 5.33464C2.66699 6.04188 2.94794 6.72016 3.44804 7.22025C3.94814 7.72035 4.62641 8.0013 5.33366 8.0013V8.0013Z" stroke="#16BBFF" stroke-width="1.5" stroke-linecap="round" stroke-linejoin="round"/>
</g>
<defs>
<clipPath id="clip0_9809_192330">
<rect width="16" height="16" fill="white"/>
</clipPath>
</defs>
</svg>
