<svg width="16" height="16" viewBox="0 0 16 16" fill="none" xmlns="http://www.w3.org/2000/svg">
<path d="M2 11.6V4.4C2 4.29391 2.04214 4.19217 2.11716 4.11716C2.19217 4.04214 2.29391 4 2.4 4H11.1193C11.2527 4 11.378 4.06667 11.4527 4.178L13.8527 7.778C13.8965 7.84373 13.9199 7.92098 13.9199 8C13.9199 8.07902 13.8965 8.15627 13.8527 8.222L11.4527 11.822C11.4161 11.8768 11.3665 11.9218 11.3083 11.9528C11.2502 11.9839 11.1853 12.0001 11.1193 12H2.4C2.34747 12 2.29546 11.9897 2.24693 11.9696C2.1984 11.9495 2.1543 11.92 2.11716 11.8828C2.08001 11.8457 2.05055 11.8016 2.03045 11.7531C2.01035 11.7045 2 11.6525 2 11.6V11.6Z" stroke="#16BBFF" stroke-width="1.5" stroke-linecap="round" stroke-linejoin="round"/>
</svg>
