<svg width="16" height="16" viewBox="0 0 16 16" fill="none" xmlns="http://www.w3.org/2000/svg">
<path d="M5.61713 8.67067C5.57913 8.67067 5.57913 8.67067 5.54047 8.66667C5.11847 8.62 4.81047 8.20133 4.85247 7.732L5.25913 2.76867C5.2998 2.33333 5.6298 2 6.02447 2H8.9998C9.08513 2 9.16913 2.01533 9.2498 2.04667C9.65113 2.2 9.86447 2.68533 9.72647 3.13133L8.73313 5.868H10.5651C10.7005 5.868 10.8331 5.908 10.9505 5.98333C11.3171 6.22067 11.4425 6.74333 11.2291 7.15C10.9531 7.694 8.1758 12.3607 7.27847 13.8667C7.20713 13.9867 7.02447 13.928 7.0318 13.7887L7.33313 8.66667L5.6178 8.67067H5.61713Z" stroke="#16BBFF" stroke-width="1.5" stroke-linecap="round" stroke-linejoin="round"/>
</svg>
