<svg width="24" height="24" viewBox="0 0 24 24" fill="none" xmlns="http://www.w3.org/2000/svg">
<rect width="24" height="24" rx="12" fill="#222222"/>
<path fill-rule="evenodd" clip-rule="evenodd" d="M12.2249 7.5H11.7749V11.775H7.5V12.225H11.7749V16.5H12.2249V12.225H16.5V11.775H12.2249V7.5Z" fill="white"/>
<path d="M11.7749 7.5V7H11.2749V7.5H11.7749ZM12.2249 7.5H12.7249V7H12.2249V7.5ZM11.7749 11.775V12.275H12.2749V11.775H11.7749ZM7.5 11.775V11.275H7V11.775H7.5ZM7.5 12.225H7V12.725H7.5V12.225ZM11.7749 12.225H12.2749V11.725H11.7749V12.225ZM11.7749 16.5H11.2749V17H11.7749V16.5ZM12.2249 16.5V17H12.7249V16.5H12.2249ZM12.2249 12.225V11.725H11.7249V12.225H12.2249ZM16.5 12.225V12.725H17V12.225H16.5ZM16.5 11.775H17V11.275H16.5V11.775ZM12.2249 11.775H11.7249V12.275H12.2249V11.775ZM11.7749 8H12.2249V7H11.7749V8ZM12.2749 11.775V7.5H11.2749V11.775H12.2749ZM7.5 12.275H11.7749V11.275H7.5V12.275ZM8 12.225V11.775H7V12.225H8ZM11.7749 11.725H7.5V12.725H11.7749V11.725ZM12.2749 16.5V12.225H11.2749V16.5H12.2749ZM12.2249 16H11.7749V17H12.2249V16ZM11.7249 12.225V16.5H12.7249V12.225H11.7249ZM16.5 11.725H12.2249V12.725H16.5V11.725ZM16 11.775V12.225H17V11.775H16ZM12.2249 12.275H16.5V11.275H12.2249V12.275ZM11.7249 7.5V11.775H12.7249V7.5H11.7249Z" fill="white"/>
</svg>
