<svg width="80" height="80" viewBox="0 0 80 80" fill="none" xmlns="http://www.w3.org/2000/svg">
<g clip-path="url(#clip0_12161_203849)">
<g filter="url(#filter0_f_12161_203849)">
<mask id="path-1-inside-1_12161_203849" fill="white">
<path d="M23.6641 58.6663V56.333C23.6641 52.0011 25.3849 47.8467 28.448 44.7836C31.5111 41.7205 35.6655 39.9997 39.9974 39.9997C44.3293 39.9997 48.4837 41.7205 51.5468 44.7836C54.6099 47.8467 56.3307 52.0011 56.3307 56.333V58.6663M39.9974 39.9997C42.4728 39.9997 44.8467 39.0163 46.5971 37.266C48.3474 35.5157 49.3307 33.1417 49.3307 30.6663C49.3307 28.191 48.3474 25.817 46.5971 24.0667C44.8467 22.3163 42.4728 21.333 39.9974 21.333C37.522 21.333 35.1481 22.3163 33.3977 24.0667C31.6474 25.817 30.6641 28.191 30.6641 30.6663C30.6641 33.1417 31.6474 35.5157 33.3977 37.266C35.1481 39.0163 37.522 39.9997 39.9974 39.9997Z"/>
</mask>
<path d="M49.3307 30.6663H59.3307H49.3307ZM39.9974 21.333V11.333V21.333ZM30.6641 30.6663H20.6641H30.6641ZM33.6641 58.6663V56.333H13.6641V58.6663H33.6641ZM33.6641 56.333C33.6641 54.6533 34.3313 53.0424 35.5191 51.8547L21.3769 37.7125C16.4385 42.651 13.6641 49.349 13.6641 56.333H33.6641ZM35.5191 51.8547C36.7068 50.6669 38.3177 49.9997 39.9974 49.9997V29.9997C33.0134 29.9997 26.3154 32.7741 21.3769 37.7125L35.5191 51.8547ZM39.9974 49.9997C41.6771 49.9997 43.288 50.6669 44.4757 51.8547L58.6179 37.7125C53.6794 32.7741 46.9814 29.9997 39.9974 29.9997V49.9997ZM44.4757 51.8547C45.6635 53.0424 46.3307 54.6533 46.3307 56.333H66.3307C66.3307 49.349 63.5563 42.651 58.6179 37.7125L44.4757 51.8547ZM46.3307 56.333V58.6663H66.3307V56.333H46.3307ZM39.9974 49.9997C45.1249 49.9997 50.0424 47.9628 53.6681 44.3371L39.526 30.1949C39.651 30.0699 39.8206 29.9997 39.9974 29.9997V49.9997ZM53.6681 44.3371C57.2938 40.7114 59.3307 35.7939 59.3307 30.6663H39.3307C39.3307 30.4895 39.401 30.32 39.526 30.1949L53.6681 44.3371ZM59.3307 30.6663C59.3307 25.5388 57.2938 20.6213 53.6681 16.9956L39.526 31.1377C39.401 31.0127 39.3307 30.8432 39.3307 30.6663H59.3307ZM53.6681 16.9956C50.0424 13.3699 45.1249 11.333 39.9974 11.333V31.333C39.8206 31.333 39.651 31.2628 39.526 31.1377L53.6681 16.9956ZM39.9974 11.333C34.8699 11.333 29.9524 13.3699 26.3267 16.9956L40.4688 31.1377C40.3438 31.2628 40.1742 31.333 39.9974 31.333V11.333ZM26.3267 16.9956C22.701 20.6213 20.6641 25.5388 20.6641 30.6663H40.6641C40.6641 30.8432 40.5938 31.0127 40.4688 31.1377L26.3267 16.9956ZM20.6641 30.6663C20.6641 35.7939 22.701 40.7114 26.3267 44.3371L40.4688 30.1949C40.5938 30.32 40.6641 30.4895 40.6641 30.6663H20.6641ZM26.3267 44.3371C29.9524 47.9628 34.8699 49.9997 39.9974 49.9997V29.9997C40.1742 29.9997 40.3438 30.0699 40.4688 30.1949L26.3267 44.3371Z" fill="url(#paint0_radial_12161_203849)" mask="url(#path-1-inside-1_12161_203849)"/>
</g>
<g filter="url(#filter1_f_12161_203849)">
<path d="M23.6641 58.6663V56.333C23.6641 52.0011 25.3849 47.8467 28.448 44.7836C31.5111 41.7205 35.6655 39.9997 39.9974 39.9997C44.3293 39.9997 48.4837 41.7205 51.5468 44.7836C54.6099 47.8467 56.3307 52.0011 56.3307 56.333V58.6663M39.9974 39.9997C42.4728 39.9997 44.8467 39.0163 46.5971 37.266C48.3474 35.5157 49.3307 33.1417 49.3307 30.6663C49.3307 28.191 48.3474 25.817 46.5971 24.0667C44.8467 22.3163 42.4728 21.333 39.9974 21.333C37.522 21.333 35.1481 22.3163 33.3977 24.0667C31.6474 25.817 30.6641 28.191 30.6641 30.6663C30.6641 33.1417 31.6474 35.5157 33.3977 37.266C35.1481 39.0163 37.522 39.9997 39.9974 39.9997Z" fill="black"/>
</g>
<path d="M23.6641 58.6663V56.333C23.6641 52.0011 25.3849 47.8467 28.448 44.7836C31.5111 41.7205 35.6655 39.9997 39.9974 39.9997V39.9997C44.3293 39.9997 48.4837 41.7205 51.5468 44.7836C54.6099 47.8467 56.3307 52.0011 56.3307 56.333V58.6663M39.9974 39.9997C42.4728 39.9997 44.8467 39.0163 46.5971 37.266C48.3474 35.5157 49.3307 33.1417 49.3307 30.6663C49.3307 28.191 48.3474 25.817 46.5971 24.0667C44.8467 22.3163 42.4728 21.333 39.9974 21.333C37.522 21.333 35.1481 22.3163 33.3977 24.0667C31.6474 25.817 30.6641 28.191 30.6641 30.6663C30.6641 33.1417 31.6474 35.5157 33.3977 37.266C35.1481 39.0163 37.522 39.9997 39.9974 39.9997V39.9997Z" stroke="url(#paint1_radial_12161_203849)" stroke-width="1.37"/>
<path d="M23.6641 58.6663V56.333C23.6641 52.0011 25.3849 47.8467 28.448 44.7836C31.5111 41.7205 35.6655 39.9997 39.9974 39.9997V39.9997C44.3293 39.9997 48.4837 41.7205 51.5468 44.7836C54.6099 47.8467 56.3307 52.0011 56.3307 56.333V58.6663M39.9974 39.9997C42.4728 39.9997 44.8467 39.0163 46.5971 37.266C48.3474 35.5157 49.3307 33.1417 49.3307 30.6663C49.3307 28.191 48.3474 25.817 46.5971 24.0667C44.8467 22.3163 42.4728 21.333 39.9974 21.333C37.522 21.333 35.1481 22.3163 33.3977 24.0667C31.6474 25.817 30.6641 28.191 30.6641 30.6663C30.6641 33.1417 31.6474 35.5157 33.3977 37.266C35.1481 39.0163 37.522 39.9997 39.9974 39.9997V39.9997Z" stroke="url(#paint2_radial_12161_203849)" stroke-width="1.37"/>
</g>
<defs>
<filter id="filter0_f_12161_203849" x="3.66406" y="1.33301" width="72.6641" height="77.333" filterUnits="userSpaceOnUse" color-interpolation-filters="sRGB">
<feFlood flood-opacity="0" result="BackgroundImageFix"/>
<feBlend mode="normal" in="SourceGraphic" in2="BackgroundImageFix" result="shape"/>
<feGaussianBlur stdDeviation="10" result="effect1_foregroundBlur_12161_203849"/>
</filter>
<filter id="filter1_f_12161_203849" x="-74.3359" y="-76.667" width="228.664" height="233.333" filterUnits="userSpaceOnUse" color-interpolation-filters="sRGB">
<feFlood flood-opacity="0" result="BackgroundImageFix"/>
<feBlend mode="normal" in="SourceGraphic" in2="BackgroundImageFix" result="shape"/>
<feGaussianBlur stdDeviation="49" result="effect1_foregroundBlur_12161_203849"/>
</filter>
<radialGradient id="paint0_radial_12161_203849" cx="0" cy="0" r="1" gradientUnits="userSpaceOnUse" gradientTransform="translate(39.9974 21.333) rotate(90) scale(37.3333 32.6667)">
<stop offset="0.0859675" stop-color="#3B76FF"/>
<stop offset="0.270032" stop-color="#338BFF"/>
<stop offset="0.894562" stop-color="#5436FF" stop-opacity="0"/>
</radialGradient>
<radialGradient id="paint1_radial_12161_203849" cx="0" cy="0" r="1" gradientUnits="userSpaceOnUse" gradientTransform="translate(39.9974 21.333) rotate(90) scale(37.3333 32.6667)">
<stop stop-color="#2BC3FB"/>
<stop offset="0.484375" stop-color="#9EFBCE" stop-opacity="0.43"/>
<stop offset="0.894562" stop-color="#5338FF" stop-opacity="0"/>
</radialGradient>
<radialGradient id="paint2_radial_12161_203849" cx="0" cy="0" r="1" gradientUnits="userSpaceOnUse" gradientTransform="translate(39.9974 21.333) rotate(90) scale(37.3333 32.6667)">
<stop offset="0.484375" stop-color="#5338FF" stop-opacity="0"/>
<stop offset="1" stop-color="#465AFF"/>
</radialGradient>
<clipPath id="clip0_12161_203849">
<rect width="80" height="80" fill="white"/>
</clipPath>
</defs>
</svg>
