<svg width="80" height="80" viewBox="0 0 80 80" fill="none" xmlns="http://www.w3.org/2000/svg">
<g clip-path="url(#clip0_12161_203857)">
<g filter="url(#filter0_f_12161_203857)">
<mask id="path-1-inside-1_12161_203857" fill="white">
<path d="M49.4776 36.2757L44.6686 51.6664H35.3352L30.5262 36.2757C29.8501 34.1136 29.7088 31.8197 30.1144 29.5909C30.52 27.3621 31.4604 25.265 32.8549 23.4797L38.8982 15.7447C39.0291 15.5769 39.1966 15.4412 39.3878 15.3479C39.5791 15.2546 39.7891 15.2061 40.0019 15.2061C40.2147 15.2061 40.4247 15.2546 40.6159 15.3479C40.8072 15.4412 40.9746 15.5769 41.1056 15.7447L47.1489 23.4797C48.5434 25.265 49.4838 27.3621 49.8894 29.5909C50.295 31.8197 50.1536 34.1136 49.4776 36.2757ZM35.3352 58.6664C35.3352 63.333 40.0019 65.6664 40.0019 65.6664C40.0019 65.6664 44.6686 63.333 44.6686 58.6664M31.8352 41.1664C23.6686 46.9997 28.3352 56.333 28.3352 56.333L35.3352 51.6664M49.1742 41.1664C57.3409 46.9997 52.6742 56.333 52.6742 56.333L45.6742 51.6664"/>
<path d="M40.0019 37.6664C38.7642 37.6664 37.5772 37.1747 36.7021 36.2995C35.8269 35.4244 35.3352 34.2374 35.3352 32.9997C35.3352 31.762 35.8269 30.575 36.7021 29.6999C37.5772 28.8247 38.7642 28.333 40.0019 28.333C41.2396 28.333 42.4265 28.8247 43.3017 29.6999C44.1769 30.575 44.6686 31.762 44.6686 32.9997C44.6686 34.2374 44.1769 35.4244 43.3017 36.2995C42.4265 37.1747 41.2396 37.6664 40.0019 37.6664Z"/>
</mask>
<path d="M49.4776 36.2757L45.6598 35.0819L45.6596 35.0827L49.4776 36.2757ZM44.6686 51.6664V55.6664H47.6094L48.4865 52.8593L44.6686 51.6664ZM30.5262 36.2757L34.3442 35.0827L34.3439 35.0819L30.5262 36.2757ZM32.8549 23.4797L29.7029 21.017L29.7025 21.0175L32.8549 23.4797ZM38.8982 15.7447L42.0502 18.2074L42.0516 18.2057L38.8982 15.7447ZM41.1056 15.7447L37.9522 18.2057L37.9535 18.2074L41.1056 15.7447ZM47.1489 23.4797L50.3013 21.0175L50.3009 21.017L47.1489 23.4797ZM40.0019 65.6664L38.213 69.2441L40.0019 70.1385L41.7907 69.2441L40.0019 65.6664ZM28.3352 56.333L24.7575 58.1219L26.7839 62.1747L30.554 59.6612L28.3352 56.333ZM52.6742 56.333L50.4554 59.6612L54.2255 62.1747L56.2519 58.1219L52.6742 56.333ZM40.0019 28.333V24.333V28.333ZM45.6596 35.0827L40.8506 50.4734L48.4865 52.8593L53.2955 37.4687L45.6596 35.0827ZM44.6686 47.6664H35.3352V55.6664H44.6686V47.6664ZM39.1532 50.4734L34.3442 35.0827L26.7083 37.4687L31.5173 52.8593L39.1532 50.4734ZM34.3439 35.0819C33.861 33.5375 33.7601 31.899 34.0498 30.3071L26.1791 28.8747C25.6576 31.7403 25.8393 34.6896 26.7085 37.4695L34.3439 35.0819ZM34.0498 30.3071C34.3395 28.7151 35.0112 27.2172 36.0073 25.9419L29.7025 21.0175C27.9096 23.3129 26.7005 26.0091 26.1791 28.8747L34.0498 30.3071ZM36.0069 25.9424L42.0502 18.2074L35.7462 13.282L29.7029 21.017L36.0069 25.9424ZM42.0516 18.2057C41.8084 18.5173 41.4974 18.7693 41.1423 18.9426L37.6334 11.7532C36.8958 12.1132 36.2499 12.6366 35.7449 13.2837L42.0516 18.2057ZM41.1423 18.9426C40.7871 19.116 40.3971 19.2061 40.0019 19.2061V11.2061C39.1811 11.2061 38.3711 11.3932 37.6334 11.7532L41.1423 18.9426ZM40.0019 19.2061C39.6067 19.2061 39.2167 19.116 38.8615 18.9426L42.3704 11.7532C41.6327 11.3932 40.8227 11.2061 40.0019 11.2061V19.2061ZM38.8615 18.9426C38.5063 18.7693 38.1954 18.5173 37.9522 18.2057L44.2589 13.2837C43.7539 12.6366 43.108 12.1132 42.3704 11.7532L38.8615 18.9426ZM37.9535 18.2074L43.9969 25.9424L50.3009 21.017L44.2576 13.282L37.9535 18.2074ZM43.9965 25.9419C44.9926 27.2172 45.6643 28.7151 45.954 30.3071L53.8247 28.8747C53.3032 26.0091 52.0941 23.3129 50.3013 21.0175L43.9965 25.9419ZM45.954 30.3071C46.2437 31.899 46.1428 33.5375 45.6598 35.0819L53.2953 37.4695C54.1645 34.6896 54.3462 31.7403 53.8247 28.8747L45.954 30.3071ZM31.3352 58.6664C31.3352 62.4347 33.2375 65.1421 34.8401 66.7448C35.6523 67.557 36.4538 68.157 37.0539 68.5571C37.3574 68.7594 37.6186 68.9167 37.8168 69.03C37.9162 69.0868 38.0004 69.1329 38.0671 69.1684C38.1005 69.1862 38.1295 69.2014 38.1539 69.214C38.1661 69.2203 38.1772 69.226 38.187 69.231C38.192 69.2335 38.1966 69.2358 38.2009 69.238C38.2031 69.2391 38.2052 69.2402 38.2072 69.2412C38.2082 69.2417 38.2097 69.2424 38.2102 69.2427C38.2116 69.2434 38.213 69.2441 40.0019 65.6664C41.7907 62.0887 41.7921 62.0894 41.7935 62.09C41.7939 62.0903 41.7953 62.0909 41.7961 62.0914C41.7979 62.0922 41.7995 62.0931 41.8011 62.0939C41.8043 62.0955 41.8073 62.097 41.81 62.0984C41.8153 62.1011 41.8197 62.1033 41.8231 62.1051C41.8298 62.1085 41.8326 62.1101 41.8318 62.1096C41.8302 62.1087 41.8142 62.1002 41.7859 62.084C41.7289 62.0514 41.6256 61.9901 41.4915 61.9007C41.2166 61.7174 40.8515 61.4424 40.497 61.088C39.7663 60.3573 39.3352 59.5647 39.3352 58.6664H31.3352ZM40.0019 65.6664C41.7907 69.2441 41.7922 69.2434 41.7936 69.2427C41.7941 69.2424 41.7956 69.2417 41.7966 69.2412C41.7986 69.2402 41.8007 69.2391 41.8028 69.238C41.8072 69.2358 41.8118 69.2335 41.8167 69.231C41.8266 69.226 41.8376 69.2203 41.8498 69.214C41.8742 69.2014 41.9033 69.1862 41.9367 69.1684C42.0033 69.1329 42.0876 69.0868 42.187 69.03C42.3851 68.9167 42.6464 68.7594 42.9499 68.5571C43.55 68.157 44.3515 67.557 45.1636 66.7448C46.7663 65.1421 48.6686 62.4347 48.6686 58.6664H40.6686C40.6686 59.5647 40.2375 60.3573 39.5068 61.088C39.1523 61.4424 38.7871 61.7174 38.5123 61.9007C38.3782 61.9901 38.2749 62.0514 38.2179 62.084C38.1896 62.1002 38.1736 62.1087 38.1719 62.1096C38.1711 62.1101 38.174 62.1085 38.1807 62.1051C38.1841 62.1033 38.1884 62.1011 38.1938 62.0984C38.1965 62.097 38.1994 62.0955 38.2026 62.0939C38.2042 62.0931 38.2059 62.0922 38.2076 62.0914C38.2085 62.0909 38.2099 62.0903 38.2103 62.09C38.2116 62.0894 38.213 62.0887 40.0019 65.6664ZM29.5103 37.9114C24.0656 41.8005 22.8333 47.0537 23.0272 51.1275C23.1212 53.1013 23.5401 54.8059 23.9248 56.0053C24.1193 56.6117 24.3111 57.1074 24.4611 57.4658C24.5364 57.6454 24.6017 57.792 24.6525 57.9021C24.6779 57.9572 24.6998 58.0033 24.7175 58.0401C24.7263 58.0584 24.7341 58.0745 24.7408 58.0881C24.7441 58.0949 24.7472 58.1012 24.75 58.1068C24.7514 58.1096 24.7527 58.1123 24.754 58.1148C24.7546 58.1161 24.7555 58.1178 24.7558 58.1185C24.7567 58.1202 24.7575 58.1219 28.3352 56.333C31.9129 54.5442 31.9137 54.5458 31.9145 54.5474C31.9148 54.5479 31.9156 54.5495 31.916 54.5504C31.917 54.5524 31.9179 54.5542 31.9187 54.5559C31.9204 54.5592 31.9218 54.5621 31.9229 54.5644C31.9252 54.569 31.9265 54.5716 31.9267 54.5721C31.9272 54.5732 31.9238 54.5662 31.9171 54.5515C31.9035 54.5221 31.8766 54.4624 31.8402 54.3754C31.7669 54.2006 31.6579 53.9216 31.5425 53.5619C31.3074 52.829 31.07 51.8357 31.0182 50.7469C30.9205 48.6957 31.4382 46.3656 34.1602 44.4213L29.5103 37.9114ZM30.554 59.6612L37.554 54.9946L33.1164 48.3382L26.1164 53.0048L30.554 59.6612ZM46.8493 44.4213C49.5713 46.3656 50.0889 48.6957 49.9912 50.7469C49.9394 51.8357 49.702 52.829 49.4669 53.5619C49.3515 53.9216 49.2425 54.2006 49.1693 54.3754C49.1329 54.4624 49.1059 54.5221 49.0924 54.5515C49.0856 54.5662 49.0822 54.5732 49.0827 54.5721C49.083 54.5716 49.0842 54.569 49.0865 54.5644C49.0876 54.5621 49.089 54.5592 49.0907 54.5559C49.0915 54.5542 49.0924 54.5524 49.0934 54.5504C49.0939 54.5495 49.0947 54.5479 49.0949 54.5474C49.0957 54.5458 49.0965 54.5442 52.6742 56.333C56.2519 58.1219 56.2528 58.1202 56.2536 58.1185C56.254 58.1178 56.2548 58.1161 56.2555 58.1148C56.2567 58.1123 56.258 58.1096 56.2594 58.1068C56.2622 58.1012 56.2653 58.0949 56.2687 58.0881C56.2753 58.0745 56.2832 58.0584 56.292 58.0401C56.3097 58.0033 56.3315 57.9572 56.3569 57.9021C56.4077 57.792 56.4731 57.6454 56.5483 57.4658C56.6984 57.1074 56.8901 56.6117 57.0846 56.0053C57.4694 54.8059 57.8882 53.1013 57.9822 51.1275C58.1762 47.0537 56.9439 41.8005 51.4992 37.9114L46.8493 44.4213ZM54.893 53.0048L47.893 48.3382L43.4554 54.9946L50.4554 59.6612L54.893 53.0048ZM40.0019 33.6664C39.8251 33.6664 39.6555 33.5961 39.5305 33.4711L33.8736 39.128C35.4989 40.7533 37.7033 41.6664 40.0019 41.6664V33.6664ZM39.5305 33.4711C39.4055 33.3461 39.3352 33.1765 39.3352 32.9997H31.3352C31.3352 35.2983 32.2483 37.5027 33.8736 39.128L39.5305 33.4711ZM39.3352 32.9997C39.3352 32.8229 39.4055 32.6533 39.5305 32.5283L33.8736 26.8714C32.2483 28.4968 31.3352 30.7012 31.3352 32.9997H39.3352ZM39.5305 32.5283C39.6555 32.4033 39.8251 32.333 40.0019 32.333V24.333C37.7033 24.333 35.4989 25.2461 33.8736 26.8714L39.5305 32.5283ZM40.0019 32.333C40.1787 32.333 40.3483 32.4033 40.4733 32.5283L46.1301 26.8714C44.5048 25.2461 42.3004 24.333 40.0019 24.333V32.333ZM40.4733 32.5283C40.5983 32.6533 40.6686 32.8229 40.6686 32.9997H48.6686C48.6686 30.7012 47.7555 28.4968 46.1301 26.8714L40.4733 32.5283ZM40.6686 32.9997C40.6686 33.1765 40.5983 33.3461 40.4733 33.4711L46.1301 39.128C47.7555 37.5027 48.6686 35.2983 48.6686 32.9997H40.6686ZM40.4733 33.4711C40.3483 33.5961 40.1787 33.6664 40.0019 33.6664V41.6664C42.3004 41.6664 44.5048 40.7533 46.1301 39.128L40.4733 33.4711Z" fill="url(#paint0_radial_12161_203857)" mask="url(#path-1-inside-1_12161_203857)"/>
</g>
<g filter="url(#filter1_f_12161_203857)">
<path d="M49.4776 36.2757L44.6686 51.6664H35.3352L30.5262 36.2757C29.8501 34.1136 29.7088 31.8197 30.1144 29.5909C30.52 27.3621 31.4604 25.265 32.8549 23.4797L38.8982 15.7447C39.0291 15.5769 39.1966 15.4412 39.3878 15.3479C39.5791 15.2546 39.7891 15.2061 40.0019 15.2061C40.2147 15.2061 40.4247 15.2546 40.6159 15.3479C40.8072 15.4412 40.9746 15.5769 41.1056 15.7447L47.1489 23.4797C48.5434 25.265 49.4838 27.3621 49.8894 29.5909C50.295 31.8197 50.1536 34.1136 49.4776 36.2757ZM35.3352 58.6664C35.3352 63.333 40.0019 65.6664 40.0019 65.6664C40.0019 65.6664 44.6686 63.333 44.6686 58.6664M31.8352 41.1664C23.6686 46.9997 28.3352 56.333 28.3352 56.333L35.3352 51.6664M49.1742 41.1664C57.3409 46.9997 52.6742 56.333 52.6742 56.333L45.6742 51.6664" fill="black"/>
<path d="M40.0019 37.6664C38.7642 37.6664 37.5772 37.1747 36.7021 36.2995C35.8269 35.4244 35.3352 34.2374 35.3352 32.9997C35.3352 31.762 35.8269 30.575 36.7021 29.6999C37.5772 28.8247 38.7642 28.333 40.0019 28.333C41.2396 28.333 42.4265 28.8247 43.3017 29.6999C44.1769 30.575 44.6686 31.762 44.6686 32.9997C44.6686 34.2374 44.1769 35.4244 43.3017 36.2995C42.4265 37.1747 41.2396 37.6664 40.0019 37.6664Z" fill="black"/>
</g>
<path d="M35.3352 51.6664H44.6686L49.4776 36.2757C50.1536 34.1136 50.295 31.8197 49.8894 29.5909C49.4838 27.3621 48.5434 25.265 47.1489 23.4797L41.1056 15.7447C40.9746 15.5769 40.8072 15.4412 40.6159 15.3479C40.4247 15.2546 40.2147 15.2061 40.0019 15.2061C39.7891 15.2061 39.5791 15.2546 39.3878 15.3479C39.1966 15.4412 39.0291 15.5769 38.8982 15.7447L32.8549 23.4797C31.4604 25.265 30.52 27.3621 30.1144 29.5909C29.7088 31.8197 29.8501 34.1136 30.5262 36.2757L35.3352 51.6664ZM35.3352 51.6664L28.3352 56.333C28.3352 56.333 23.6686 46.9997 31.8352 41.1664M35.3352 58.6664C35.3352 63.333 40.0019 65.6664 40.0019 65.6664C40.0019 65.6664 44.6686 63.333 44.6686 58.6664M49.1742 41.1664C57.3409 46.9997 52.6742 56.333 52.6742 56.333L45.6742 51.6664M40.0019 37.6664C38.7642 37.6664 37.5772 37.1747 36.7021 36.2995C35.8269 35.4244 35.3352 34.2374 35.3352 32.9997C35.3352 31.762 35.8269 30.575 36.7021 29.6999C37.5772 28.8247 38.7642 28.333 40.0019 28.333C41.2396 28.333 42.4265 28.8247 43.3017 29.6999C44.1769 30.575 44.6686 31.762 44.6686 32.9997C44.6686 34.2374 44.1769 35.4244 43.3017 36.2995C42.4265 37.1747 41.2396 37.6664 40.0019 37.6664Z" stroke="url(#paint1_radial_12161_203857)" stroke-width="1.37"/>
<path d="M35.3352 51.6664H44.6686L49.4776 36.2757C50.1536 34.1136 50.295 31.8197 49.8894 29.5909C49.4838 27.3621 48.5434 25.265 47.1489 23.4797L41.1056 15.7447C40.9746 15.5769 40.8072 15.4412 40.6159 15.3479C40.4247 15.2546 40.2147 15.2061 40.0019 15.2061C39.7891 15.2061 39.5791 15.2546 39.3878 15.3479C39.1966 15.4412 39.0291 15.5769 38.8982 15.7447L32.8549 23.4797C31.4604 25.265 30.52 27.3621 30.1144 29.5909C29.7088 31.8197 29.8501 34.1136 30.5262 36.2757L35.3352 51.6664ZM35.3352 51.6664L28.3352 56.333C28.3352 56.333 23.6686 46.9997 31.8352 41.1664M35.3352 58.6664C35.3352 63.333 40.0019 65.6664 40.0019 65.6664C40.0019 65.6664 44.6686 63.333 44.6686 58.6664M49.1742 41.1664C57.3409 46.9997 52.6742 56.333 52.6742 56.333L45.6742 51.6664M40.0019 37.6664C38.7642 37.6664 37.5772 37.1747 36.7021 36.2995C35.8269 35.4244 35.3352 34.2374 35.3352 32.9997C35.3352 31.762 35.8269 30.575 36.7021 29.6999C37.5772 28.8247 38.7642 28.333 40.0019 28.333C41.2396 28.333 42.4265 28.8247 43.3017 29.6999C44.1769 30.575 44.6686 31.762 44.6686 32.9997C44.6686 34.2374 44.1769 35.4244 43.3017 36.2995C42.4265 37.1747 41.2396 37.6664 40.0019 37.6664Z" stroke="url(#paint2_radial_12161_203857)" stroke-width="1.37"/>
</g>
<defs>
<filter id="filter0_f_12161_203857" x="7.00781" y="-4.79395" width="66.9922" height="90.46" filterUnits="userSpaceOnUse" color-interpolation-filters="sRGB">
<feFlood flood-opacity="0" result="BackgroundImageFix"/>
<feBlend mode="normal" in="SourceGraphic" in2="BackgroundImageFix" result="shape"/>
<feGaussianBlur stdDeviation="10" result="effect1_foregroundBlur_12161_203857"/>
</filter>
<filter id="filter1_f_12161_203857" x="-70.9922" y="-82.7939" width="222.992" height="246.46" filterUnits="userSpaceOnUse" color-interpolation-filters="sRGB">
<feFlood flood-opacity="0" result="BackgroundImageFix"/>
<feBlend mode="normal" in="SourceGraphic" in2="BackgroundImageFix" result="shape"/>
<feGaussianBlur stdDeviation="49" result="effect1_foregroundBlur_12161_203857"/>
</filter>
<radialGradient id="paint0_radial_12161_203857" cx="0" cy="0" r="1" gradientUnits="userSpaceOnUse" gradientTransform="translate(40.5047 15.2061) rotate(90) scale(50.4603 26.9938)">
<stop offset="0.0859675" stop-color="#3B76FF"/>
<stop offset="0.270032" stop-color="#338BFF"/>
<stop offset="0.894562" stop-color="#5436FF" stop-opacity="0"/>
</radialGradient>
<radialGradient id="paint1_radial_12161_203857" cx="0" cy="0" r="1" gradientUnits="userSpaceOnUse" gradientTransform="translate(40.5047 15.2061) rotate(90) scale(50.4603 26.9938)">
<stop stop-color="#2BC3FB"/>
<stop offset="0.484375" stop-color="#9EFBCE" stop-opacity="0.43"/>
<stop offset="0.894562" stop-color="#5338FF" stop-opacity="0"/>
</radialGradient>
<radialGradient id="paint2_radial_12161_203857" cx="0" cy="0" r="1" gradientUnits="userSpaceOnUse" gradientTransform="translate(40.5047 15.2061) rotate(90) scale(50.4603 26.9938)">
<stop offset="0.484375" stop-color="#5338FF" stop-opacity="0"/>
<stop offset="1" stop-color="#465AFF"/>
</radialGradient>
<clipPath id="clip0_12161_203857">
<rect width="80" height="80" fill="white"/>
</clipPath>
</defs>
</svg>
