<svg width="80" height="80" viewBox="0 0 80 80" fill="none" xmlns="http://www.w3.org/2000/svg">
<g clip-path="url(#clip0_12161_203875)">
<g filter="url(#filter0_f_12161_203875)">
<mask id="path-1-inside-1_12161_203875" fill="white">
<path d="M28.3307 56.333V37.6663C28.3307 36.4287 28.8224 35.2417 29.6976 34.3665C30.5727 33.4913 31.7597 32.9997 32.9974 32.9997H58.6641C59.9017 32.9997 61.0887 33.4913 61.9639 34.3665C62.8391 35.2417 63.3307 36.4287 63.3307 37.6663V56.333C63.3307 57.5707 62.8391 58.7577 61.9639 59.6328C61.0887 60.508 59.9017 60.9997 58.6641 60.9997H32.9974C31.7597 60.9997 30.5727 60.508 29.6976 59.6328C28.8224 58.7577 28.3307 57.5707 28.3307 56.333Z"/>
<path d="M27.1641 49.333H21.3307C20.0931 49.333 18.9061 48.8413 18.0309 47.9662C17.1557 47.091 16.6641 45.904 16.6641 44.6663V25.9997C16.6641 24.762 17.1557 23.575 18.0309 22.6998C18.9061 21.8247 20.0931 21.333 21.3307 21.333H46.9974C48.2351 21.333 49.4221 21.8247 50.2972 22.6998C51.1724 23.575 51.6641 24.762 51.6641 25.9997V32.9997"/>
<path d="M35.3307 39.9997H37.6641H35.3307ZM23.6641 28.333H25.9974H23.6641Z"/>
</mask>
<path d="M28.3307 56.333H23.3307H28.3307ZM32.9974 32.9997V37.9997V32.9997ZM16.6641 44.6663H11.6641H16.6641ZM21.3307 21.333V16.333V21.333ZM46.9974 21.333V16.333V21.333ZM33.3307 56.333V37.6663H23.3307V56.333H33.3307ZM33.3307 37.6663C33.3307 37.7547 33.2956 37.8395 33.2331 37.902L26.162 30.831C24.3492 32.6438 23.3307 35.1026 23.3307 37.6663H33.3307ZM33.2331 37.902C33.1706 37.9646 33.0858 37.9997 32.9974 37.9997V27.9997C30.4336 27.9997 27.9749 29.0181 26.162 30.831L33.2331 37.902ZM32.9974 37.9997H58.6641V27.9997H32.9974V37.9997ZM58.6641 37.9997C58.5757 37.9997 58.4909 37.9646 58.4284 37.902L65.4994 30.831C63.6866 29.0181 61.2278 27.9997 58.6641 27.9997V37.9997ZM58.4284 37.902C58.3659 37.8395 58.3307 37.7548 58.3307 37.6663H68.3307C68.3307 35.1026 67.3123 32.6438 65.4994 30.831L58.4284 37.902ZM58.3307 37.6663V56.333H68.3307V37.6663H58.3307ZM58.3307 56.333C58.3307 56.2446 58.3659 56.1598 58.4284 56.0973L65.4994 63.1684C67.3123 61.3555 68.3307 58.8968 68.3307 56.333H58.3307ZM58.4284 56.0973C58.4909 56.0348 58.5757 55.9997 58.6641 55.9997V65.9997C61.2278 65.9997 63.6866 64.9812 65.4994 63.1684L58.4284 56.0973ZM58.6641 55.9997H32.9974V65.9997H58.6641V55.9997ZM32.9974 55.9997C33.0858 55.9997 33.1706 56.0348 33.2331 56.0973L26.162 63.1684C27.9749 64.9812 30.4336 65.9997 32.9974 65.9997V55.9997ZM33.2331 56.0973C33.2956 56.1598 33.3307 56.2446 33.3307 56.333H23.3307C23.3307 58.8968 24.3492 61.3555 26.162 63.1684L33.2331 56.0973ZM27.1641 44.333H21.3307V54.333H27.1641V44.333ZM21.3307 44.333C21.4191 44.333 21.5039 44.3681 21.5664 44.4306L14.4954 51.5017C16.3082 53.3146 18.767 54.333 21.3307 54.333V44.333ZM21.5664 44.4306C21.6289 44.4932 21.6641 44.5779 21.6641 44.6663H11.6641C11.6641 47.2301 12.6825 49.6889 14.4954 51.5017L21.5664 44.4306ZM21.6641 44.6663V25.9997H11.6641V44.6663H21.6641ZM21.6641 25.9997C21.6641 26.0881 21.6289 26.1729 21.5664 26.2354L14.4954 19.1643C12.6825 20.9772 11.6641 23.4359 11.6641 25.9997H21.6641ZM21.5664 26.2354C21.5039 26.2979 21.4191 26.333 21.3307 26.333V16.333C18.767 16.333 16.3082 17.3515 14.4954 19.1643L21.5664 26.2354ZM21.3307 26.333H46.9974V16.333H21.3307V26.333ZM46.9974 26.333C46.909 26.333 46.8242 26.2979 46.7617 26.2354L53.8328 19.1643C52.0199 17.3515 49.5612 16.333 46.9974 16.333V26.333ZM46.7617 26.2354C46.6992 26.1729 46.6641 26.0881 46.6641 25.9997H56.6641C56.6641 23.4359 55.6456 20.9772 53.8328 19.1643L46.7617 26.2354ZM46.6641 25.9997V32.9997H56.6641V25.9997H46.6641ZM35.3307 44.9997H37.6641V34.9997H35.3307V44.9997ZM23.6641 33.333H25.9974V23.333H23.6641V33.333Z" fill="url(#paint0_radial_12161_203875)" mask="url(#path-1-inside-1_12161_203875)"/>
</g>
<g filter="url(#filter1_f_12161_203875)">
<path d="M28.3307 56.333V37.6663C28.3307 36.4287 28.8224 35.2417 29.6976 34.3665C30.5727 33.4913 31.7597 32.9997 32.9974 32.9997H58.6641C59.9017 32.9997 61.0887 33.4913 61.9639 34.3665C62.8391 35.2417 63.3307 36.4287 63.3307 37.6663V56.333C63.3307 57.5707 62.8391 58.7577 61.9639 59.6328C61.0887 60.508 59.9017 60.9997 58.6641 60.9997H32.9974C31.7597 60.9997 30.5727 60.508 29.6976 59.6328C28.8224 58.7577 28.3307 57.5707 28.3307 56.333Z" fill="black"/>
<path d="M27.1641 49.333H21.3307C20.0931 49.333 18.9061 48.8413 18.0309 47.9662C17.1557 47.091 16.6641 45.904 16.6641 44.6663V25.9997C16.6641 24.762 17.1557 23.575 18.0309 22.6998C18.9061 21.8247 20.0931 21.333 21.3307 21.333H46.9974C48.2351 21.333 49.4221 21.8247 50.2972 22.6998C51.1724 23.575 51.6641 24.762 51.6641 25.9997V32.9997" fill="black"/>
<path d="M35.3307 39.9997H37.6641H35.3307ZM23.6641 28.333H25.9974H23.6641Z" fill="black"/>
</g>
<path d="M27.1641 49.333H21.3307C20.0931 49.333 18.9061 48.8413 18.0309 47.9662C17.1557 47.091 16.6641 45.904 16.6641 44.6663V25.9997C16.6641 24.762 17.1557 23.575 18.0309 22.6998C18.9061 21.8247 20.0931 21.333 21.3307 21.333H46.9974C48.2351 21.333 49.4221 21.8247 50.2972 22.6998C51.1724 23.575 51.6641 24.762 51.6641 25.9997V32.9997M35.3307 39.9997H37.6641M23.6641 28.333H25.9974M28.3307 56.333V37.6663C28.3307 36.4287 28.8224 35.2417 29.6976 34.3665C30.5727 33.4913 31.7597 32.9997 32.9974 32.9997H58.6641C59.9017 32.9997 61.0887 33.4913 61.9639 34.3665C62.8391 35.2417 63.3307 36.4287 63.3307 37.6663V56.333C63.3307 57.5707 62.8391 58.7577 61.9639 59.6328C61.0887 60.508 59.9017 60.9997 58.6641 60.9997H32.9974C31.7597 60.9997 30.5727 60.508 29.6976 59.6328C28.8224 58.7577 28.3307 57.5707 28.3307 56.333Z" stroke="url(#paint1_radial_12161_203875)" stroke-width="1.37"/>
<path d="M27.1641 49.333H21.3307C20.0931 49.333 18.9061 48.8413 18.0309 47.9662C17.1557 47.091 16.6641 45.904 16.6641 44.6663V25.9997C16.6641 24.762 17.1557 23.575 18.0309 22.6998C18.9061 21.8247 20.0931 21.333 21.3307 21.333H46.9974C48.2351 21.333 49.4221 21.8247 50.2972 22.6998C51.1724 23.575 51.6641 24.762 51.6641 25.9997V32.9997M35.3307 39.9997H37.6641M23.6641 28.333H25.9974M28.3307 56.333V37.6663C28.3307 36.4287 28.8224 35.2417 29.6976 34.3665C30.5727 33.4913 31.7597 32.9997 32.9974 32.9997H58.6641C59.9017 32.9997 61.0887 33.4913 61.9639 34.3665C62.8391 35.2417 63.3307 36.4287 63.3307 37.6663V56.333C63.3307 57.5707 62.8391 58.7577 61.9639 59.6328C61.0887 60.508 59.9017 60.9997 58.6641 60.9997H32.9974C31.7597 60.9997 30.5727 60.508 29.6976 59.6328C28.8224 58.7577 28.3307 57.5707 28.3307 56.333Z" stroke="url(#paint2_radial_12161_203875)" stroke-width="1.37"/>
</g>
<defs>
<filter id="filter0_f_12161_203875" x="-3.33594" y="1.33301" width="86.6641" height="79.667" filterUnits="userSpaceOnUse" color-interpolation-filters="sRGB">
<feFlood flood-opacity="0" result="BackgroundImageFix"/>
<feBlend mode="normal" in="SourceGraphic" in2="BackgroundImageFix" result="shape"/>
<feGaussianBlur stdDeviation="10" result="effect1_foregroundBlur_12161_203875"/>
</filter>
<filter id="filter1_f_12161_203875" x="-81.3359" y="-76.667" width="242.664" height="235.667" filterUnits="userSpaceOnUse" color-interpolation-filters="sRGB">
<feFlood flood-opacity="0" result="BackgroundImageFix"/>
<feBlend mode="normal" in="SourceGraphic" in2="BackgroundImageFix" result="shape"/>
<feGaussianBlur stdDeviation="49" result="effect1_foregroundBlur_12161_203875"/>
</filter>
<radialGradient id="paint0_radial_12161_203875" cx="0" cy="0" r="1" gradientUnits="userSpaceOnUse" gradientTransform="translate(39.9974 21.333) rotate(90) scale(39.6667 46.6667)">
<stop offset="0.0859675" stop-color="#3B76FF"/>
<stop offset="0.270032" stop-color="#338BFF"/>
<stop offset="0.894562" stop-color="#5436FF" stop-opacity="0"/>
</radialGradient>
<radialGradient id="paint1_radial_12161_203875" cx="0" cy="0" r="1" gradientUnits="userSpaceOnUse" gradientTransform="translate(39.9974 21.333) rotate(90) scale(39.6667 46.6667)">
<stop stop-color="#2BC3FB"/>
<stop offset="0.484375" stop-color="#9EFBCE" stop-opacity="0.43"/>
<stop offset="0.894562" stop-color="#5338FF" stop-opacity="0"/>
</radialGradient>
<radialGradient id="paint2_radial_12161_203875" cx="0" cy="0" r="1" gradientUnits="userSpaceOnUse" gradientTransform="translate(39.9974 21.333) rotate(90) scale(39.6667 46.6667)">
<stop offset="0.484375" stop-color="#5338FF" stop-opacity="0"/>
<stop offset="1" stop-color="#465AFF"/>
</radialGradient>
<clipPath id="clip0_12161_203875">
<rect width="80" height="80" fill="white"/>
</clipPath>
</defs>
</svg>
