<svg width="24" height="24" viewBox="0 0 24 24" fill="none" xmlns="http://www.w3.org/2000/svg">
<path d="M9.78875 12.8945C9.92342 12.6251 9.99942 12.3212 9.99942 11.9999C9.99942 11.6785 9.92342 11.3746 9.78875 11.1052V12.8945ZM9.78875 12.8945C9.58722 13.2974 9.25555 13.6204 8.84748 13.8113C8.43941 14.0022 7.97883 14.0497 7.54037 13.9462C7.10191 13.8427 6.71125 13.5941 6.43168 13.2409C6.15211 12.8876 6 12.4503 6 11.9999C6 11.5494 6.15211 11.1121 6.43168 10.7588C6.71125 10.4056 7.10191 10.157 7.54037 10.0535C7.97883 9.94998 8.43941 9.99751 8.84748 10.1884C9.25555 10.3793 9.58722 10.7023 9.78875 11.1052V12.8945ZM9.78875 12.8945L14.2101 15.105L9.78875 12.8945ZM9.78875 11.1052L14.2101 8.89472L9.78875 11.1052ZM14.2101 8.89472C14.3276 9.12964 14.4902 9.33912 14.6887 9.5112C14.8871 9.68328 15.1175 9.81458 15.3667 9.89763C15.6159 9.98067 15.8791 10.0138 16.1411 9.99518C16.4031 9.97654 16.6589 9.90648 16.8938 9.78899C17.1287 9.67151 17.3382 9.50891 17.5103 9.31047C17.6824 9.11203 17.8137 8.88164 17.8968 8.63246C17.9798 8.38327 18.013 8.12017 17.9943 7.85818C17.9757 7.59618 17.9056 7.34042 17.7881 7.1055C17.5508 6.63106 17.1348 6.2703 16.6315 6.10259C16.1282 5.93488 15.5789 5.97396 15.1044 6.21123C14.63 6.44849 14.2692 6.86451 14.1015 7.36776C13.9338 7.87101 13.9728 8.42028 14.2101 8.89472V8.89472ZM14.2101 15.105C13.9728 15.5795 13.9338 16.1289 14.1016 16.6322C14.2694 17.1355 14.6302 17.5515 15.1048 17.7888C15.5793 18.0261 16.1287 18.0651 16.6321 17.8973C17.1354 17.7296 17.5515 17.3687 17.7888 16.8942C18.0261 16.4197 18.0651 15.8703 17.8973 15.367C17.7296 14.8637 17.3687 14.4476 16.8941 14.2104C16.6591 14.0929 16.4033 14.0228 16.1413 14.0042C15.8792 13.9856 15.6161 14.0188 15.3668 14.1018C14.8635 14.2696 14.4474 14.6305 14.2101 15.105V15.105Z" stroke="white" stroke-width="1.25" stroke-linecap="round" stroke-linejoin="round"/>
</svg>
