<svg width="24" height="24" viewBox="0 0 24 24" fill="none" xmlns="http://www.w3.org/2000/svg">
<path d="M22.9961 3.01006C22.9961 3.01006 20.9781 4.20206 19.8561 4.54006C19.2538 3.84757 18.4534 3.35675 17.5631 3.13398C16.6728 2.91122 15.7356 2.96725 14.8782 3.29451C14.0208 3.62177 13.2845 4.20446 12.7691 4.96377C12.2536 5.72309 11.9838 6.62239 11.9961 7.54006V8.54006C10.2387 8.58562 8.49737 8.19587 6.9271 7.4055C5.35684 6.61513 4.00641 5.44869 2.99609 4.01006C2.99609 4.01006 -1.00391 13.0101 7.99609 17.0101C5.93662 18.408 3.48325 19.109 0.996094 19.0101C9.99609 24.0101 20.9961 19.0101 20.9961 7.51006C20.9961 7.23206 20.9681 6.95406 20.9161 6.68006C21.9361 5.67406 22.9961 3.01006 22.9961 3.01006Z" stroke="white" stroke-width="1.5" stroke-linecap="round" stroke-linejoin="round"/>
</svg>
