<svg viewBox="0 0 20 20" fill="none" xmlns="http://www.w3.org/2000/svg">
<path d="M6.16512 6.01227L7.54043 2.80322L8.45957 3.19714L6.8297 7.00018H6.5C6.04871 7.00018 5.37865 7.09305 4.84137 7.35094C4.31571 7.60326 4 7.96283 4 8.50018C4 9.10162 4.30561 9.55245 4.74403 9.89267C5.19148 10.2399 5.74055 10.4384 6.09806 10.5099C7.96046 10.8824 9.08599 12.3858 10.0167 13.629L10.0717 13.7024C10.5629 14.3581 11.0005 14.9369 11.4832 15.3589C11.9526 15.7692 12.4307 16.0002 13 16.0002H15.5C15.5867 16.0002 15.7278 15.9701 15.8328 15.8944C15.9124 15.8371 16 15.7372 16 15.5002C16 15.2631 15.9124 15.1633 15.8328 15.1059C15.7278 15.0303 15.5867 15.0002 15.5 15.0002H15.4384L13.0607 14.4057L11.9864 7.95988L12.5257 6.34207L13.4743 6.6583L13.0136 8.04048L13.9393 13.5946L15.5684 14.0019C15.8102 14.0139 16.1333 14.09 16.4172 14.2944C16.7542 14.5371 17 14.9372 17 15.5002C17 16.0631 16.7542 16.4633 16.4172 16.7059C16.1056 16.9303 15.7467 17.0002 15.5 17.0002H13C12.1179 17.0002 11.4153 16.6277 10.8251 16.1118C10.2515 15.6104 9.75297 14.9449 9.27947 14.3128L9.27133 14.302C8.27853 12.9767 7.36284 11.7827 5.90194 11.4905C5.42611 11.3953 4.72519 11.1438 4.13097 10.6827C3.52773 10.2146 3 9.49874 3 8.50018C3 7.43754 3.68429 6.7971 4.40863 6.44942C4.98801 6.17132 5.64486 6.04849 6.16512 6.01227Z" fill="#777777"/>
<path d="M7.5 8.00018V7.50018H8.5V8.00018C8.5 8.27632 8.72386 8.50018 9 8.50018H9.5V9.50018H9C8.17157 9.50018 7.5 8.82861 7.5 8.00018Z" fill="#777777"/>
<path d="M13.7743 5.65836L14.2743 4.15836L13.3257 3.84213L12.8257 5.34213L13.7743 5.65836Z" fill="#777777"/>
</svg>
