<svg viewBox="0 0 20 20" fill="none" xmlns="http://www.w3.org/2000/svg">
<path d="M4.65597 7.00725L5 5.72952L5.34403 7.00725C5.42922 7.32364 5.67636 7.57078 5.99275 7.65597L7.27048 8L5.99275 8.34403C5.67636 8.42922 5.42922 8.67636 5.34403 8.99275L5 10.2705L4.65597 8.99275C4.57078 8.67636 4.32364 8.42922 4.00725 8.34403L2.72952 8L4.00725 7.65597C4.32364 7.57078 4.57078 7.32364 4.65597 7.00725Z" stroke="#777777"/>
<path d="M13.0571 3.54377L13.6196 5.633C13.7178 5.9975 14.0025 6.28222 14.367 6.38036L16.4562 6.94288C16.4713 6.94694 16.4789 6.95154 16.4821 6.95375C16.4854 6.95606 16.4877 6.95838 16.4896 6.96111C16.4941 6.96732 16.5 6.98066 16.5 7C16.5 7.01934 16.4941 7.03268 16.4896 7.03889C16.4877 7.04162 16.4854 7.04394 16.4821 7.04625C16.4789 7.04847 16.4713 7.05306 16.4562 7.05712L14.367 7.61964C14.0025 7.71778 13.7178 8.0025 13.6196 8.367L13.0571 10.4562C13.0531 10.4713 13.0485 10.4789 13.0463 10.4821C13.0439 10.4854 13.0416 10.4877 13.0389 10.4896C13.0327 10.4941 13.0193 10.5 13 10.5C12.9807 10.5 12.9673 10.4941 12.9611 10.4896C12.9584 10.4877 12.9561 10.4854 12.9537 10.4821C12.9515 10.4789 12.9469 10.4713 12.9429 10.4562L12.3804 8.367C12.2822 8.0025 11.9975 7.71778 11.633 7.61964L9.54377 7.05712C9.52869 7.05306 9.52109 7.04846 9.5179 7.04625C9.51457 7.04394 9.51232 7.04162 9.51038 7.03889C9.50594 7.03268 9.5 7.01934 9.5 7C9.5 6.98066 9.50594 6.96732 9.51038 6.96111C9.51232 6.95838 9.51457 6.95606 9.5179 6.95375C9.52109 6.95153 9.52869 6.94694 9.54377 6.94288L11.633 6.38036C11.9975 6.28222 12.2822 5.9975 12.3804 5.633L12.9429 3.54377C12.9469 3.52869 12.9515 3.52109 12.9537 3.5179C12.9561 3.51457 12.9584 3.51232 12.9611 3.51038C12.9673 3.50594 12.9807 3.5 13 3.5C13.0193 3.5 13.0327 3.50594 13.0389 3.51038C13.0416 3.51232 13.0439 3.51457 13.0463 3.5179C13.0485 3.52109 13.0531 3.52869 13.0571 3.54377Z" stroke="#777777"/>
<path d="M8.65597 13.0072L9 11.7295L9.34403 13.0072C9.42922 13.3236 9.67636 13.5708 9.99275 13.656L11.2705 14L9.99275 14.344C9.67636 14.4292 9.42922 14.6764 9.34403 14.9928L9 16.2705L8.65597 14.9928C8.57078 14.6764 8.32364 14.4292 8.00725 14.344L6.72952 14L8.00725 13.656C8.32364 13.5708 8.57078 13.3236 8.65597 13.0072Z" stroke="#777777"/>
</svg>
