<svg viewBox="0 0 20 20" fill="none" xmlns="http://www.w3.org/2000/svg">
<path d="M6.00069 6V5H5.00069V6H4.00069V7H5.00069V6H6.00069Z" fill="#777777"/>
<path d="M6.00069 7H7.00069V9H4.00069V8H6.00069V7Z" fill="#777777"/>
<path d="M7.00069 11V10H5.00069V11H7.00069Z" fill="#777777"/>
<path d="M7.00069 14H6.00069V15H7.00069V14Z" fill="#777777"/>
<path fill-rule="evenodd" clip-rule="evenodd" d="M3.20098 4.12658C3.73355 3.49428 4.49081 3 5.50069 3C6.70525 3 7.48002 3.61873 7.92944 4.36775C8.36318 5.09066 8.50069 5.93626 8.50069 6.5V14.5C8.50069 15.2834 8.37468 15.9267 8.01613 16.3748C7.63388 16.8527 7.08052 17 6.50069 17C5.47534 17 4.8841 16.2989 4.55682 15.6677C4.30732 15.1865 4.15378 14.6203 4.07398 14.3261C4.05326 14.2497 4.03752 14.1916 4.02635 14.1581C4.02406 14.1512 4.02192 14.1443 4.01993 14.1374C3.8616 13.5832 3.5967 12.9071 3.31183 12.1991L3.2085 11.9428C2.96012 11.3274 2.70728 10.7009 2.52635 10.1581C2.24017 9.29956 2.10153 8.40296 2.0413 7.75536C1.99296 7.23572 2.02078 6.69637 2.16881 6.17072C2.35102 5.52372 2.67642 4.74935 3.20098 4.12658ZM3.96582 4.7708C3.56371 5.2482 3.29044 5.87696 3.13137 6.44179C3.02287 6.82709 2.99768 7.24007 3.037 7.66274C3.09292 8.26398 3.22091 9.07953 3.47503 9.84189C3.64538 10.3529 3.88522 10.9474 4.13548 11.5677L4.23955 11.8259L4.30946 12H7.50069V6.5C7.50069 6.06374 7.3882 5.40934 7.07195 4.88225C6.77136 4.38127 6.29613 4 5.50069 4C4.85731 4 4.3599 4.30293 3.96582 4.7708ZM4.97858 13.8526C4.90194 13.5856 4.80457 13.2977 4.69583 13H7.50069V14.5C7.50069 15.2166 7.3767 15.5733 7.23526 15.7502C7.11751 15.8973 6.92086 16 6.50069 16C6.02605 16 5.70062 15.7011 5.44457 15.2073C5.25236 14.8367 5.15256 14.471 5.07023 14.1693C5.03852 14.0531 5.0094 13.9465 4.97858 13.8526Z" fill="#777777"/>
<path d="M13.5007 6V5H14.5007V6H13.5007Z" fill="#777777"/>
<path d="M14.5007 6H15.5007V7H14.5007V6Z" fill="#777777"/>
<path d="M13.5007 7H12.5007V9H15.5007V8H13.5007V7Z" fill="#777777"/>
<path d="M12.5007 11V10H14.5007V11H12.5007Z" fill="#777777"/>
<path d="M12.5007 14H13.5007V15H12.5007V14Z" fill="#777777"/>
<path fill-rule="evenodd" clip-rule="evenodd" d="M16.3004 4.12658C15.7678 3.49428 15.0106 3 14.0007 3C12.7961 3 12.0214 3.61873 11.5719 4.36775C11.1382 5.09066 11.0007 5.93626 11.0007 6.5V14.5C11.0007 15.2834 11.1267 15.9267 11.4853 16.3748C11.8675 16.8527 12.4209 17 13.0007 17C14.026 17 14.6173 16.2989 14.9446 15.6677C15.1941 15.1865 15.3476 14.6203 15.4274 14.3261C15.4481 14.2497 15.4639 14.1916 15.475 14.1581C15.4773 14.1512 15.4795 14.1443 15.4815 14.1374C15.6398 13.5832 15.9047 12.9071 16.1896 12.1991L16.2929 11.9428C16.5413 11.3274 16.7941 10.7009 16.975 10.1581C17.2612 9.29956 17.3999 8.40296 17.4601 7.75536C17.5084 7.23572 17.4806 6.69637 17.3326 6.17072C17.1504 5.52372 16.825 4.74935 16.3004 4.12658ZM15.5356 4.7708C15.9377 5.2482 16.2109 5.87696 16.37 6.44179C16.4785 6.82709 16.5037 7.24007 16.4644 7.66274C16.4085 8.26398 16.2805 9.07953 16.0264 9.84189C15.856 10.3529 15.6162 10.9474 15.3659 11.5676L15.2618 11.8259L15.1919 12H12.0007V6.5C12.0007 6.06374 12.1132 5.40934 12.4294 4.88225C12.73 4.38127 13.2053 4 14.0007 4C14.6441 4 15.1415 4.30293 15.5356 4.7708ZM14.5228 13.8526C14.5994 13.5856 14.6968 13.2977 14.8056 13H12.0007V14.5C12.0007 15.2166 12.1247 15.5733 12.2661 15.7502C12.3839 15.8973 12.5805 16 13.0007 16C13.4753 16 13.8008 15.7011 14.0568 15.2073C14.249 14.8367 14.3488 14.471 14.4312 14.1693C14.4629 14.0531 14.492 13.9465 14.5228 13.8526Z" fill="#777777"/>
</svg>
