<svg width="16" height="16" viewBox="0 0 16 16" fill="none" xmlns="http://www.w3.org/2000/svg">
<path fill-rule="evenodd" clip-rule="evenodd" d="M5.26602 3.33325H10.7327C13.266 3.33325 15.3327 5.39992 15.3327 7.93325V8.06659C15.3327 10.5999 13.266 12.6666 10.7327 12.6666H5.26602C2.73268 12.6666 0.666016 10.5999 0.666016 8.06659V7.93325C0.666016 5.39992 2.73268 3.33325 5.26602 3.33325ZM5.86615 7.33312H6.33281C6.73285 7.33312 7.06618 7.59979 7.06618 7.99979C7.06618 8.39979 6.79951 8.66645 6.39948 8.66645H5.93281V9.13312C5.93281 9.53312 5.66615 9.79979 5.26615 9.79979C4.86615 9.79979 4.59948 9.53312 4.59948 9.13312V8.66645H4.13281C3.73281 8.66645 3.46615 8.39979 3.46615 7.99979C3.46615 7.59979 3.73281 7.33312 4.13281 7.33312H4.53281V6.86645C4.53281 6.46645 4.79948 6.19979 5.19948 6.19979C5.59948 6.19979 5.86615 6.46645 5.86615 6.86645V7.33312ZM9.93307 8.06659C10.4117 8.06659 10.7997 7.67859 10.7997 7.19992C10.7997 6.72125 10.4117 6.33325 9.93307 6.33325C9.45441 6.33325 9.06641 6.72125 9.06641 7.19992C9.06641 7.67859 9.45441 8.06659 9.93307 8.06659ZM12.4664 8.86659C12.4664 9.34525 12.0784 9.73325 11.5997 9.73325C11.1211 9.73325 10.7331 9.34525 10.7331 8.86659C10.7331 8.38792 11.1211 7.99992 11.5997 7.99992C12.0784 7.99992 12.4664 8.38792 12.4664 8.86659Z" fill="#FFE768"/>
</svg>
