<svg width="580" height="580" viewBox="0 0 580 580" fill="none" xmlns="http://www.w3.org/2000/svg">
<path d="M579.435 271.755C579.759 276.975 579.945 282.232 579.99 287.523L579.49 287.527C579.497 288.351 579.5 289.175 579.5 290C579.5 290.825 579.497 291.649 579.49 292.473L579.99 292.477C579.945 297.768 579.759 303.025 579.435 308.245L578.936 308.214C578.834 309.856 578.719 311.495 578.59 313.129L579.088 313.169C578.672 318.438 578.114 323.667 577.42 328.853L576.924 328.787C576.707 330.411 576.476 332.031 576.231 333.647L576.726 333.722C575.936 338.945 575.007 344.123 573.942 349.251L573.453 349.15C573.118 350.761 572.77 352.368 572.409 353.969L572.897 354.079C571.735 359.228 570.437 364.326 569.006 369.367L568.525 369.23C568.076 370.809 567.615 372.381 567.141 373.949L567.62 374.093C566.093 379.142 564.432 384.132 562.641 389.059L562.171 388.888C561.61 390.433 561.035 391.972 560.448 393.505L560.915 393.683C559.03 398.607 557.014 403.466 554.872 408.256L554.416 408.052C553.746 409.55 553.064 411.042 552.369 412.526L552.822 412.738C550.59 417.51 548.231 422.212 545.751 426.838L545.31 426.602C544.534 428.049 543.746 429.488 542.947 430.921L543.383 431.164C540.816 435.763 538.127 440.284 535.32 444.725L534.898 444.457C534.021 445.845 533.133 447.224 532.233 448.595L532.651 448.87C529.764 453.271 526.76 457.589 523.643 461.819L523.241 461.523C522.267 462.844 521.283 464.157 520.288 465.461L520.686 465.764C517.493 469.948 514.19 474.042 510.779 478.042L510.399 477.718C509.334 478.966 508.259 480.206 507.174 481.436L507.549 481.767C504.069 485.712 500.483 489.561 496.797 493.31L496.44 492.96C495.29 494.13 494.13 495.29 492.96 496.44L493.311 496.797C489.561 500.483 485.712 504.069 481.767 507.549L481.436 507.174C480.206 508.259 478.966 509.334 477.718 510.399L478.042 510.779C474.042 514.19 469.948 517.493 465.764 520.686L465.461 520.288C464.157 521.283 462.844 522.267 461.523 523.241L461.819 523.643C457.589 526.76 453.271 529.764 448.87 532.651L448.595 532.233C447.224 533.133 445.845 534.021 444.457 534.898L444.725 535.32C440.284 538.127 435.763 540.816 431.164 543.383L430.921 542.947C429.488 543.746 428.049 544.534 426.602 545.31L426.838 545.751C422.212 548.231 417.51 550.59 412.738 552.822L412.526 552.369C411.042 553.064 409.55 553.746 408.052 554.416L408.256 554.872C403.466 557.014 398.607 559.03 393.683 560.915L393.505 560.448C391.972 561.035 390.433 561.61 388.888 562.171L389.059 562.641C384.131 564.432 379.141 566.093 374.093 567.62L373.949 567.141C372.381 567.615 370.809 568.076 369.23 568.525L369.367 569.006C364.326 570.437 359.228 571.735 354.079 572.897L353.969 572.409C352.368 572.77 350.761 573.118 349.15 573.453L349.251 573.942C344.123 575.007 338.945 575.936 333.722 576.726L333.647 576.231C332.031 576.476 330.411 576.707 328.787 576.924L328.853 577.42C323.667 578.114 318.438 578.672 313.169 579.088L313.129 578.59C311.495 578.719 309.856 578.834 308.214 578.936L308.245 579.435C303.025 579.759 297.768 579.945 292.477 579.99L292.473 579.49C291.649 579.497 290.825 579.5 290 579.5C289.175 579.5 288.351 579.497 287.527 579.49L287.523 579.99C282.232 579.945 276.975 579.759 271.755 579.435L271.786 578.936C270.144 578.834 268.505 578.719 266.871 578.59L266.831 579.088C261.562 578.672 256.333 578.114 251.147 577.42L251.213 576.924C249.589 576.707 247.969 576.476 246.353 576.231L246.278 576.726C241.055 575.936 235.877 575.007 230.749 573.942L230.85 573.453C229.239 573.118 227.632 572.77 226.031 572.409L225.921 572.897C220.772 571.735 215.674 570.437 210.633 569.006L210.77 568.525C209.191 568.076 207.619 567.615 206.051 567.141L205.907 567.62C200.858 566.093 195.868 564.432 190.941 562.641L191.112 562.171C189.567 561.61 188.028 561.035 186.495 560.448L186.317 560.915C181.393 559.03 176.534 557.014 171.744 554.872L171.948 554.416C170.45 553.746 168.958 553.064 167.474 552.369L167.262 552.822C162.49 550.59 157.788 548.231 153.162 545.751L153.398 545.31C151.951 544.534 150.512 543.746 149.079 542.947L148.836 543.383C144.237 540.816 139.716 538.127 135.275 535.32L135.543 534.898C134.155 534.021 132.776 533.133 131.405 532.233L131.131 532.651C126.729 529.764 122.411 526.76 118.181 523.643L118.477 523.241C117.156 522.267 115.843 521.283 114.539 520.288L114.236 520.686C110.052 517.493 105.958 514.19 101.958 510.779L102.282 510.399C101.034 509.334 99.7942 508.259 98.5639 507.174L98.2331 507.549C94.2884 504.069 90.4391 500.483 86.6895 496.797L87.0401 496.44C85.8702 495.29 84.7101 494.13 83.5598 492.96L83.2033 493.311C79.5166 489.561 75.931 485.712 72.4511 481.767L72.8261 481.436C71.7408 480.206 70.6658 478.966 69.6013 477.718L69.2208 478.042C65.8104 474.042 62.5068 469.948 59.3144 465.764L59.7119 465.461C58.7168 464.157 57.7326 462.844 56.7593 461.523L56.3567 461.819C53.2405 457.589 50.2364 453.271 47.3488 448.87L47.7669 448.595C46.8673 447.224 45.979 445.845 45.1022 444.457L44.6796 444.725C41.8733 440.284 39.1843 435.763 36.6168 431.164L37.0534 430.921C36.2538 429.488 35.466 428.049 34.6901 426.602L34.2495 426.838C31.769 422.212 29.4104 417.51 27.178 412.738L27.6309 412.526C26.9364 411.042 26.2541 409.55 25.5842 408.052L25.1277 408.256C22.9858 403.466 20.97 398.607 19.0846 393.683L19.5515 393.505C18.9647 391.972 18.3904 390.433 17.829 388.888L17.3591 389.059C15.5683 384.131 13.9073 379.141 12.3802 374.093L12.8588 373.949C12.3847 372.381 11.9235 370.809 11.4755 369.23L10.9945 369.367C9.56317 364.326 8.26483 359.228 7.10347 354.079L7.59122 353.969C7.22999 352.368 6.88203 350.761 6.54748 349.15L6.05792 349.251C4.99327 344.123 4.06406 338.945 3.27418 333.722L3.76856 333.647C3.52426 332.031 3.29331 330.411 3.07583 328.787L2.58025 328.853C1.88585 323.667 1.32851 318.438 0.912007 313.169L1.41045 313.129C1.28124 311.495 1.16561 309.856 1.06367 308.214L0.564627 308.245C0.240585 303.025 0.054626 297.768 0.0103587 292.477L0.510341 292.473C0.503452 291.649 0.5 290.825 0.5 290C0.5 289.175 0.503452 288.351 0.510342 287.527L0.0103591 287.523C0.0546273 282.232 0.240588 276.975 0.564631 271.755L1.06367 271.786C1.16561 270.144 1.28125 268.505 1.41046 266.871L0.912012 266.831C1.32852 261.562 1.88585 256.333 2.58026 251.147L3.07584 251.213C3.29332 249.589 3.52427 247.969 3.76857 246.353L3.27419 246.278C4.06407 241.055 4.99328 235.877 6.05792 230.749L6.54748 230.85C6.88204 229.239 7.23 227.632 7.59123 226.031L7.10348 225.921C8.26484 220.772 9.56318 215.674 10.9945 210.633L11.4755 210.77C11.9236 209.191 12.3847 207.619 12.8588 206.051L12.3802 205.907C13.9073 200.858 15.5683 195.868 17.3591 190.941L17.829 191.112C18.3905 189.567 18.9647 188.028 19.5515 186.495L19.0846 186.317C20.97 181.393 22.9858 176.534 25.1277 171.744L25.5842 171.948C26.2541 170.45 26.9364 168.958 27.6309 167.474L27.178 167.262C29.4105 162.49 31.769 157.788 34.2494 153.162L34.6901 153.398C35.466 151.951 36.2538 150.512 37.0534 149.079L36.6168 148.836C39.1843 144.237 41.8733 139.716 44.6796 135.275L45.1022 135.543C45.979 134.155 46.8673 132.776 47.7669 131.405L47.3488 131.131C50.2364 126.729 53.2405 122.411 56.3567 118.181L56.7592 118.477C57.7326 117.156 58.7168 115.843 59.7119 114.539L59.3144 114.236C62.5068 110.052 65.8104 105.958 69.2207 101.958L69.6012 102.282C70.6658 101.034 71.7408 99.7942 72.8261 98.5639L72.4511 98.2331C75.931 94.2884 79.5165 90.4391 83.2033 86.6895L83.5598 87.0401C84.7101 85.8702 85.8702 84.7101 87.04 83.5598L86.6895 83.2033C90.439 79.5166 94.2884 75.931 98.2331 72.4511L98.5639 72.8261C99.7941 71.7408 101.034 70.6658 102.282 69.6013L101.958 69.2208C105.958 65.8104 110.052 62.5068 114.236 59.3144L114.539 59.7119C115.843 58.7168 117.156 57.7326 118.477 56.7593L118.181 56.3567C122.411 53.2405 126.729 50.2364 131.13 47.3488L131.405 47.7669C132.776 46.8673 134.155 45.979 135.543 45.1022L135.275 44.6796C139.716 41.8733 144.237 39.1843 148.836 36.6168L149.079 37.0534C150.512 36.2538 151.951 35.466 153.398 34.6901L153.162 34.2495C157.788 31.769 162.49 29.4104 167.262 27.178L167.474 27.6309C168.958 26.9364 170.45 26.2541 171.948 25.5842L171.744 25.1277C176.534 22.9858 181.393 20.97 186.317 19.0846L186.495 19.5515C188.028 18.9647 189.567 18.3904 191.112 17.829L190.941 17.3591C195.869 15.5683 200.859 13.9073 205.907 12.3802L206.051 12.8588C207.619 12.3847 209.191 11.9235 210.77 11.4755L210.633 10.9945C215.674 9.56317 220.772 8.26483 225.921 7.10347L226.031 7.59122C227.632 7.22999 229.239 6.88203 230.85 6.54748L230.749 6.05791C235.877 4.99327 241.055 4.06406 246.278 3.27418L246.353 3.76856C247.969 3.52426 249.589 3.29331 251.213 3.07583L251.147 2.58026C256.333 1.88585 261.562 1.32851 266.831 0.912008L266.871 1.41045C268.505 1.28124 270.144 1.16561 271.786 1.06367L271.755 0.564627C276.975 0.240585 282.232 0.054626 287.523 0.0103587L287.527 0.510341C288.351 0.503452 289.175 0.5 290 0.5C290.825 0.5 291.649 0.503452 292.473 0.510342L292.477 0.0103591C297.768 0.0546273 303.025 0.240588 308.245 0.564631L308.214 1.06367C309.856 1.16561 311.495 1.28125 313.129 1.41046L313.169 0.912013C318.438 1.32852 323.667 1.88586 328.853 2.58026L328.787 3.07584C330.411 3.29332 332.031 3.52427 333.647 3.76857L333.722 3.27419C338.945 4.06406 344.123 4.99328 349.251 6.05792L349.15 6.54748C350.761 6.88204 352.368 7.23 353.969 7.59123L354.079 7.10348C359.228 8.26484 364.326 9.56318 369.367 10.9945L369.23 11.4755C370.809 11.9236 372.381 12.3847 373.949 12.8588L374.093 12.3802C379.142 13.9073 384.132 15.5683 389.059 17.3591L388.888 17.829C390.433 18.3905 391.972 18.9647 393.505 19.5515L393.683 19.0846C398.607 20.97 403.466 22.9858 408.256 25.1277L408.052 25.5842C409.55 26.2541 411.042 26.9364 412.526 27.6309L412.738 27.178C417.51 29.4105 422.212 31.769 426.838 34.2494L426.602 34.6901C428.049 35.466 429.488 36.2538 430.921 37.0534L431.164 36.6168C435.763 39.1843 440.284 41.8733 444.725 44.6796L444.457 45.1022C445.845 45.979 447.224 46.8673 448.595 47.7669L448.87 47.3488C453.271 50.2364 457.589 53.2405 461.819 56.3567L461.523 56.7592C462.844 57.7326 464.157 58.7168 465.461 59.7119L465.764 59.3144C469.948 62.5068 474.042 65.8104 478.042 69.2207L477.718 69.6012C478.966 70.6658 480.206 71.7408 481.436 72.8261L481.767 72.4511C485.712 75.931 489.561 79.5165 493.31 83.2033L492.96 83.5598C494.13 84.7101 495.29 85.8702 496.44 87.04L496.797 86.6895C500.483 90.439 504.069 94.2884 507.549 98.2331L507.174 98.5639C508.259 99.7941 509.334 101.034 510.399 102.282L510.779 101.958C514.19 105.958 517.493 110.052 520.686 114.236L520.288 114.539C521.283 115.843 522.267 117.156 523.241 118.477L523.643 118.181C526.76 122.411 529.764 126.729 532.651 131.13L532.233 131.405C533.133 132.776 534.021 134.155 534.898 135.543L535.32 135.275C538.127 139.716 540.816 144.237 543.383 148.836L542.947 149.079C543.746 150.512 544.534 151.951 545.31 153.398L545.751 153.162C548.231 157.788 550.59 162.49 552.822 167.262L552.369 167.474C553.064 168.958 553.746 170.45 554.416 171.948L554.872 171.744C557.014 176.534 559.03 181.393 560.915 186.317L560.448 186.495C561.035 188.028 561.61 189.567 562.171 191.112L562.641 190.941C564.432 195.869 566.093 200.859 567.62 205.907L567.141 206.051C567.615 207.619 568.076 209.191 568.525 210.77L569.006 210.633C570.437 215.674 571.735 220.772 572.897 225.921L572.409 226.031C572.77 227.632 573.118 229.239 573.453 230.85L573.942 230.749C575.007 235.877 575.936 241.055 576.726 246.278L576.231 246.353C576.476 247.969 576.707 249.589 576.924 251.213L577.42 251.147C578.114 256.333 578.672 261.562 579.088 266.831L578.59 266.871C578.719 268.505 578.834 270.144 578.936 271.786L579.435 271.755Z" stroke="#EAA54B" stroke-dasharray="5 16"/>
</svg>
