<svg width="40" height="40" viewBox="0 0 40 40" fill="none" xmlns="http://www.w3.org/2000/svg">
<path fill-rule="evenodd" clip-rule="evenodd" d="M34.0013 18.3334H36.668C37.668 18.3334 38.3346 19.0001 38.3346 20.0001C38.3346 21.0001 37.668 21.6667 36.668 21.6667H34.0013C33.3346 28.1667 28.168 33.1667 21.668 34.0001V36.6667C21.668 37.6667 21.0013 38.3334 20.0013 38.3334C19.0013 38.3334 18.3346 37.6667 18.3346 36.6667V34.0001C11.8346 33.3334 6.83464 28.1667 6.0013 21.6667H3.33464C2.33464 21.6667 1.66797 21.0001 1.66797 20.0001C1.66797 19.0001 2.33464 18.3334 3.33464 18.3334H6.0013C6.66797 11.8334 11.8346 6.66675 18.3346 6.00008V3.33341C18.3346 2.33341 19.0013 1.66675 20.0013 1.66675C21.0013 1.66675 21.668 2.33341 21.668 3.33341V6.00008C28.168 6.66675 33.3346 11.8334 34.0013 18.3334ZM25.5013 20.0004C25.5013 23.0379 23.0388 25.5004 20.0013 25.5004C16.9636 25.5004 14.5012 23.0379 14.5012 20.0004C14.5012 16.9629 16.9636 14.5004 20.0013 14.5004C23.0388 14.5004 25.5013 16.9629 25.5013 20.0004Z" fill="#555555"/>
</svg>
