<svg width="17" height="16" viewBox="0 0 17 16" fill="none" xmlns="http://www.w3.org/2000/svg">
<path d="M14.5 2.4V13.6C14.5 13.7061 14.4579 13.8078 14.3828 13.8828C14.3078 13.9579 14.2061 14 14.1 14H2.9C2.79391 14 2.69217 13.9579 2.61716 13.8828C2.54214 13.8078 2.5 13.7061 2.5 13.6V2.4C2.5 2.29391 2.54214 2.19217 2.61716 2.11716C2.69217 2.04214 2.79391 2 2.9 2H14.1C14.2061 2 14.3078 2.04214 14.3828 2.11716C14.4579 2.19217 14.5 2.29391 14.5 2.4V2.4Z" stroke="white" stroke-width="1.37333" stroke-linecap="round" stroke-linejoin="round"/>
<path d="M2.5 10.6667L7.16667 8.66667L14.5 12M11.1667 6.66667C10.813 6.66667 10.4739 6.52619 10.2239 6.27614C9.97381 6.02609 9.83333 5.68696 9.83333 5.33333C9.83333 4.97971 9.97381 4.64057 10.2239 4.39052C10.4739 4.14048 10.813 4 11.1667 4C11.5203 4 11.8594 4.14048 12.1095 4.39052C12.3595 4.64057 12.5 4.97971 12.5 5.33333C12.5 5.68696 12.3595 6.02609 12.1095 6.27614C11.8594 6.52619 11.5203 6.66667 11.1667 6.66667V6.66667Z" stroke="white" stroke-width="1.37333" stroke-linecap="round" stroke-linejoin="round"/>
</svg>
