<svg width="20" height="20" viewBox="0 0 20 20" fill="none" xmlns="http://www.w3.org/2000/svg">
<path d="M15.0026 10.4173C15.1131 10.4173 15.2191 10.3734 15.2972 10.2953C15.3754 10.2171 15.4193 10.1112 15.4193 10.0007C15.4193 9.89014 15.3754 9.78416 15.2972 9.70602C15.2191 9.62788 15.1131 9.58398 15.0026 9.58398C14.8921 9.58398 14.7861 9.62788 14.708 9.70602C14.6298 9.78416 14.5859 9.89014 14.5859 10.0007C14.5859 10.1112 14.6298 10.2171 14.708 10.2953C14.7861 10.3734 14.8921 10.4173 15.0026 10.4173ZM10.0026 10.4173C10.1131 10.4173 10.2191 10.3734 10.2972 10.2953C10.3754 10.2171 10.4193 10.1112 10.4193 10.0007C10.4193 9.89014 10.3754 9.78416 10.2972 9.70602C10.2191 9.62788 10.1131 9.58398 10.0026 9.58398C9.8921 9.58398 9.78612 9.62788 9.70798 9.70602C9.62984 9.78416 9.58594 9.89014 9.58594 10.0007C9.58594 10.1112 9.62984 10.2171 9.70798 10.2953C9.78612 10.3734 9.8921 10.4173 10.0026 10.4173ZM5.0026 10.4173C5.11311 10.4173 5.21909 10.3734 5.29723 10.2953C5.37537 10.2171 5.41927 10.1112 5.41927 10.0007C5.41927 9.89014 5.37537 9.78416 5.29723 9.70602C5.21909 9.62788 5.11311 9.58398 5.0026 9.58398C4.8921 9.58398 4.78612 9.62788 4.70798 9.70602C4.62984 9.78416 4.58594 9.89014 4.58594 10.0007C4.58594 10.1112 4.62984 10.2171 4.70798 10.2953C4.78612 10.3734 4.8921 10.4173 5.0026 10.4173Z" fill="#16BBFF" stroke="#16BBFF" stroke-width="1.37333" stroke-linecap="round" stroke-linejoin="round"/>
</svg>
