<!DOCTYPE svg PUBLIC "-//W3C//DTD SVG 1.1//EN" "http://www.w3.org/Graphics/SVG/1.1/DTD/svg11.dtd">

<!-- Uploaded to: SVG Repo, www.svgrepo.com, Transformed by: SVG Repo Mixer Tools -->
<svg fill="#ffffff" height="28px" width="28px" version="1.1" id="Capa_1" xmlns="http://www.w3.org/2000/svg" xmlns:xlink="http://www.w3.org/1999/xlink" viewBox="-51.2 -51.2 614.40 614.40" xml:space="preserve" stroke="#ffffff" transform="matrix(1, 0, 0, 1, 0, 0)rotate(0)">
<g id="SVGRepo_bgCarrier" stroke-width="0"/>
<g id="SVGRepo_tracerCarrier" stroke-linecap="round" stroke-linejoin="round" stroke="#CCCCCC" stroke-width="6.144"/>
<g id="SVGRepo_iconCarrier"> <path d="M256,0C114.617,0,0,114.615,0,256s114.617,256,256,256s256-114.615,256-256S397.383,0,256,0z M224,320 c0,8.836-7.164,16-16,16h-32c-8.836,0-16-7.164-16-16V192c0-8.836,7.164-16,16-16h32c8.836,0,16,7.164,16,16V320z M352,320 c0,8.836-7.164,16-16,16h-32c-8.836,0-16-7.164-16-16V192c0-8.836,7.164-16,16-16h32c8.836,0,16,7.164,16,16V320z"/> </g>
</svg>