<svg width="20" height="20" viewBox="0 0 20 20" fill="none" xmlns="http://www.w3.org/2000/svg">
<path d="M6.755 3.78085C6.67909 3.73584 6.59262 3.71173 6.50437 3.71096C6.41612 3.71019 6.32924 3.73279 6.25255 3.77646C6.17586 3.82014 6.1121 3.88333 6.06775 3.95963C6.02339 4.03592 6.00002 4.1226 6 4.21085V15.7892C6.00002 15.8774 6.02339 15.9641 6.06775 16.0404C6.1121 16.1167 6.17586 16.1799 6.25255 16.2236C6.32924 16.2672 6.41612 16.2898 6.50437 16.2891C6.59262 16.2883 6.67909 16.2642 6.755 16.2192L16.5242 10.43C16.5988 10.3857 16.6606 10.3228 16.7035 10.2474C16.7464 10.172 16.769 10.0868 16.769 10C16.769 9.91326 16.7464 9.828 16.7035 9.7526C16.6606 9.67721 16.5988 9.61429 16.5242 9.57002L6.755 3.78085Z" fill="#2B0945"/>
</svg>
