<svg width="17" height="18" viewBox="0 0 17 18" fill="none" xmlns="http://www.w3.org/2000/svg">
<path fill-rule="evenodd" clip-rule="evenodd" d="M0.171875 8.99984C0.171875 13.6023 3.90271 17.3332 8.50521 17.3332C13.1077 17.3332 16.8385 13.6023 16.8385 8.99984C16.8385 4.39734 13.1077 0.666504 8.50521 0.666504C3.90271 0.666504 0.171875 4.39734 0.171875 8.99984ZM5.58864 5.0166C5.30574 5.0166 5.03443 5.12898 4.83439 5.32902C4.63435 5.52906 4.52197 5.80037 4.52197 6.08327C4.52197 6.36616 4.63435 6.63748 4.83439 6.83752C5.03443 7.03756 5.30574 7.14993 5.58864 7.14993C5.87154 7.14993 6.14285 7.03756 6.34289 6.83752C6.54293 6.63748 6.65531 6.36616 6.65531 6.08327C6.65531 5.80037 6.54293 5.52906 6.34289 5.32902C6.14285 5.12898 5.87154 5.0166 5.58864 5.0166ZM11.422 5.0166C11.1391 5.0166 10.8678 5.12898 10.6677 5.32902C10.4677 5.52906 10.3553 5.80037 10.3553 6.08327C10.3553 6.36616 10.4677 6.63748 10.6677 6.83752C10.8678 7.03756 11.1391 7.14993 11.422 7.14993C11.7049 7.14993 11.9762 7.03756 12.1762 6.83752C12.3763 6.63748 12.4886 6.36616 12.4886 6.08327C12.4886 5.80037 12.3763 5.52906 12.1762 5.32902C11.9762 5.12898 11.7049 5.0166 11.422 5.0166ZM4.302 10.4835C4.63202 10.236 5.09964 10.3016 5.34894 10.6295L5.3523 10.6337C5.35699 10.6396 5.36624 10.651 5.38003 10.6671C5.40766 10.6993 5.45325 10.7502 5.5167 10.8136C5.64397 10.9409 5.84056 11.1162 6.10552 11.2928C6.63255 11.6442 7.42773 12.0002 8.502 12.0002C9.57627 12.0002 10.3714 11.6442 10.8985 11.2928C11.1634 11.1162 11.36 10.9409 11.4873 10.8136C11.5507 10.7502 11.5963 10.6993 11.624 10.6671C11.6378 10.651 11.647 10.6396 11.6517 10.6337L11.655 10.6295C11.9044 10.3016 12.372 10.236 12.702 10.4835C13.0334 10.7321 13.1005 11.2022 12.852 11.5335L12.2802 11.1047C12.852 11.5335 12.8513 11.5345 12.8511 11.5347L12.8501 11.5361L12.8477 11.5393L12.8414 11.5475L12.823 11.5708C12.8082 11.5893 12.7881 11.6138 12.7628 11.6432C12.7123 11.7022 12.6408 11.7815 12.548 11.8743C12.3627 12.0595 12.0906 12.3009 11.7305 12.5409C11.0075 13.0229 9.92773 13.5002 8.502 13.5002C7.07627 13.5002 5.99645 13.0229 5.27347 12.5409C4.91343 12.3009 4.64127 12.0595 4.45604 11.8743C4.36324 11.7815 4.29164 11.7022 4.24115 11.6432C4.21588 11.6138 4.19583 11.5893 4.18099 11.5708L4.16262 11.5475L4.15634 11.5393L4.15393 11.5361L4.1529 11.5347L4.152 11.5335L4.75158 11.0839L4.22684 11.4772C4.15305 11.5325 4.15191 11.5334 4.152 11.5335C3.90347 11.2022 3.97063 10.7321 4.302 10.4835Z" fill="#999999"/>
</svg>
