<svg width="149" height="148" viewBox="0 0 149 148" fill="none" xmlns="http://www.w3.org/2000/svg">
<path d="M111.053 24H37.9467C30.5203 24 24.5 30.0203 24.5 37.4467V110.553C24.5 117.98 30.5203 124 37.9467 124H111.053C118.48 124 124.5 117.98 124.5 110.553V37.4467C124.5 30.0203 118.48 24 111.053 24Z" fill="black"/>
<path d="M111.053 16H37.9467C26.102 16 16.5 25.602 16.5 37.4467V110.553C16.5 122.398 26.102 132 37.9467 132H111.053C122.898 132 132.5 122.398 132.5 110.553V37.4467C132.5 25.602 122.898 16 111.053 16Z" stroke="white" stroke-opacity="0.2" stroke-width="16"/>
<path d="M76.2148 65.286V63.5385C76.2148 62.1455 75.6615 60.8095 74.6764 59.8245C73.6914 58.8395 72.3555 58.2861 70.9625 58.2861H49.9672C48.5742 58.2861 47.2382 58.8395 46.2532 59.8245C45.2682 60.8095 44.7148 62.1455 44.7148 63.5385V77.5338C44.7148 78.2236 44.8507 78.9066 45.1147 79.5438C45.3786 80.181 45.7655 80.7601 46.2532 81.2478C46.7409 81.7355 47.32 82.1224 47.9572 82.3863C48.5944 82.6503 49.2774 82.7861 49.9672 82.7861H56.9648V89.7861C56.9648 89.7861 58.7148 88.0361 60.4648 86.2861C62.2148 84.5361 63.9648 82.7861 63.9648 82.7861H65.7151V74.0385C65.7177 71.7181 66.6406 69.4934 68.2814 67.8526C69.9221 66.2118 72.1468 65.2887 74.4672 65.286L76.2148 65.286Z" fill="white" stroke="white" stroke-width="3" stroke-linejoin="round"/>
<path d="M81.7468 52.7539C82.7319 53.7389 83.2852 55.0749 83.2852 56.4679L76.2142 63.5389C76.2142 62.1459 75.6608 60.81 74.6758 59.825L81.7468 52.7539Z" fill="white" stroke="white" stroke-width="3" stroke-linejoin="round"/>
<path d="M78.034 51.2148C79.427 51.2148 80.7629 51.7682 81.7479 52.7532L74.6769 59.8243C73.6919 58.8393 72.3559 58.2859 70.9629 58.2859L78.034 51.2148Z" fill="white" stroke="white" stroke-width="3" stroke-linejoin="round"/>
<path d="M83.2859 56.4668V58.2143L76.2148 65.2854V63.5379L83.2859 56.4668Z" fill="white" stroke="white" stroke-width="3" stroke-linejoin="round"/>
<path d="M83.2855 58.2148L81.5379 58.2149L74.4668 65.286L76.2144 65.2859L83.2855 58.2148Z" fill="white" stroke="white" stroke-width="3" stroke-linejoin="round"/>
<path d="M81.5381 58.2148C79.2177 58.2176 76.9931 59.1406 75.3523 60.7814L68.2815 67.8522C69.9222 66.2116 72.1468 65.2886 74.4671 65.2859L81.5381 58.2148Z" fill="white" stroke="white" stroke-width="3" stroke-linejoin="round"/>
<path d="M57.0379 51.2148H78.0332L70.9621 58.2859H49.9668L57.0379 51.2148Z" fill="white" stroke="white" stroke-width="3" stroke-linejoin="round"/>
<path d="M75.3522 60.7812C73.7115 62.4221 72.7885 64.6467 72.7859 66.9672L65.7148 74.0382C65.7175 71.7178 66.6404 69.4932 68.2812 67.8523L75.3522 60.7812Z" fill="white" stroke="white" stroke-width="3" stroke-linejoin="round"/>
<path d="M53.325 52.7532C54.31 51.7682 55.6459 51.2149 57.0389 51.2148L49.9679 58.2859C48.5749 58.2859 47.2389 58.8393 46.2539 59.8243L53.325 52.7532Z" fill="white" stroke="white" stroke-width="3" stroke-linejoin="round"/>
<path d="M72.7859 66.9668V75.7144L65.7148 82.7855V74.0379L72.7859 66.9668Z" fill="white" stroke="white" stroke-width="3" stroke-linejoin="round"/>
<path d="M51.7859 56.4679C51.7859 55.0749 52.3393 53.7389 53.3243 52.7539L46.2532 59.825C45.2682 60.81 44.7148 62.1459 44.7148 63.5389L51.7859 56.4679Z" fill="white" stroke="white" stroke-width="3" stroke-linejoin="round"/>
<path d="M72.7861 75.7148H71.0359L63.9648 82.7859H65.7151L72.7861 75.7148Z" fill="white" stroke="white" stroke-width="3" stroke-linejoin="round"/>
<path d="M67.5359 79.2148C69.2859 77.4648 71.0359 75.7148 71.0359 75.7148L63.9648 82.7859C63.9648 82.7859 62.2148 84.5359 60.4648 86.2859L67.5359 79.2148Z" stroke="white" stroke-width="3" stroke-linejoin="round"/>
<path d="M51.7859 70.4621V56.4668L44.7148 63.5379V77.5332L51.7859 70.4621Z" fill="white" stroke="white" stroke-width="3" stroke-linejoin="round"/>
<path d="M64.0355 75.7148H57.0379L49.9668 82.7859H56.9645L64.0355 75.7148Z" fill="white" stroke="white" stroke-width="3" stroke-linejoin="round"/>
<path d="M64.0359 82.7148V75.7148L56.9648 82.7859V89.7859L64.0359 82.7148Z" fill="white" stroke="white" stroke-width="3" stroke-linejoin="round"/>
<path d="M64.0359 82.7148C64.0359 82.7148 65.7859 80.9648 67.5359 79.2148L60.4648 86.2859C58.7148 88.0359 56.9648 89.7859 56.9648 89.7859L64.0359 82.7148Z" stroke="white" stroke-width="3" stroke-linejoin="round"/>
<path d="M57.0381 75.7143C56.3483 75.7143 55.6653 75.5784 55.0281 75.3145L47.957 82.3855C48.5943 82.6495 49.2773 82.7853 49.967 82.7853L57.0381 75.7143Z" fill="white" stroke="white" stroke-width="3" stroke-linejoin="round"/>
<path d="M52.1857 72.4729C51.9218 71.8356 51.7859 71.1526 51.7859 70.4629L44.7148 77.534C44.7148 78.2237 44.8507 78.9067 45.1147 79.5439L52.1857 72.4729Z" fill="white" stroke="white" stroke-width="3" stroke-linejoin="round"/>
<path d="M55.0289 75.3143C54.3917 75.0504 53.8127 74.6635 53.325 74.1758L46.2539 81.2468C46.7416 81.7346 47.3206 82.1215 47.9579 82.3854L55.0289 75.3143Z" fill="white" stroke="white" stroke-width="3" stroke-linejoin="round"/>
<path d="M53.3249 74.1766C52.8371 73.6889 52.4503 73.1099 52.1863 72.4727L45.1152 79.5437C45.3792 80.181 45.7661 80.76 46.2538 81.2477L53.3249 74.1766Z" fill="white" stroke="white" stroke-width="3" stroke-linejoin="round"/>
<path d="M83.2852 58.2147V56.4672C83.2852 55.0742 82.7318 53.7382 81.7468 52.7532C80.7618 51.7682 79.4258 51.2148 78.0328 51.2148H57.0375C55.6445 51.2149 54.3085 51.7682 53.3235 52.7532C52.3385 53.7382 51.7852 55.0742 51.7852 56.4672V70.4625C51.7852 71.1523 51.921 71.8353 52.185 72.4725C52.4489 73.1098 52.8358 73.6888 53.3235 74.1765C53.8113 74.6642 54.3903 75.0511 55.0275 75.315C55.6647 75.579 56.3477 75.7148 57.0375 75.7148H64.0352V82.7148L71.0352 75.7148H72.7854V66.9672C72.788 64.6468 73.7109 62.4221 75.3517 60.7813C76.9924 59.1405 79.2171 58.2175 81.5375 58.2147L83.2852 58.2147Z" fill="black" stroke="white" stroke-width="3" stroke-linejoin="round"/>
<path d="M91.9626 65.2861H70.9672C70.2775 65.2861 69.5945 65.422 68.9572 65.6859C68.32 65.9499 67.741 66.3368 67.2532 66.8245C66.7655 67.3122 66.3786 67.8912 66.1147 68.5285C65.8507 69.1657 65.7148 69.8487 65.7148 70.5385V84.5338C65.7148 85.2236 65.8507 85.9066 66.1147 86.5438C66.3786 87.1811 66.7655 87.7601 67.2532 88.2478C67.741 88.7355 68.32 89.1224 68.9572 89.3863C69.5945 89.6503 70.2775 89.7861 70.9672 89.7861H77.9648L84.9648 96.7861V89.7861H91.9625C93.3555 89.7861 94.6915 89.2328 95.6765 88.2478C96.6615 87.2628 97.2148 85.9268 97.2148 84.5338V70.5385C97.2148 69.1455 96.6615 67.8095 95.6765 66.8245C94.6915 65.8395 93.3556 65.2862 91.9626 65.2861Z" fill="white" stroke="white" stroke-width="3" stroke-linejoin="round"/>
<path d="M99.034 58.2148C100.427 58.2149 101.763 58.7682 102.748 59.7532L95.6768 66.8243C94.6918 65.8393 93.3559 65.2859 91.9629 65.2859L99.034 58.2148Z" fill="white" stroke="white" stroke-width="3" stroke-linejoin="round"/>
<path d="M102.747 59.7539C103.732 60.7389 104.285 62.0749 104.285 63.4679L97.2141 70.5389C97.2141 69.1459 96.6608 67.81 95.6758 66.825L102.747 59.7539Z" fill="white" stroke="white" stroke-width="3" stroke-linejoin="round"/>
<path d="M104.286 63.4668V77.4621L97.2148 84.5332V70.5379L104.286 63.4668Z" fill="white" stroke="white" stroke-width="3" stroke-linejoin="round"/>
<path d="M78.0379 58.2148H99.0332L91.9621 65.2859H70.9668L78.0379 58.2148Z" fill="white" stroke="white" stroke-width="3" stroke-linejoin="round"/>
<path d="M104.285 77.4629C104.285 78.8559 103.732 80.1918 102.747 81.1768L95.6758 88.2479C96.6608 87.2629 97.2141 85.927 97.2141 84.534L104.285 77.4629Z" fill="white" stroke="white" stroke-width="3" stroke-linejoin="round"/>
<path d="M102.748 81.1758C101.763 82.1608 100.427 82.7141 99.034 82.7141L91.9629 89.7852C93.3559 89.7852 94.6918 89.2318 95.6768 88.2468L102.748 81.1758Z" fill="white" stroke="white" stroke-width="3" stroke-linejoin="round"/>
<path d="M76.0281 58.6147C76.6653 58.3507 77.3483 58.2148 78.0381 58.2148L70.967 65.2859C70.2773 65.2859 69.5943 65.4218 68.957 65.6857L76.0281 58.6147Z" fill="white" stroke="white" stroke-width="3" stroke-linejoin="round"/>
<path d="M74.325 59.7538C74.8127 59.2661 75.3917 58.8792 76.029 58.6152L68.9579 65.6863C68.3207 65.9503 67.7416 66.3371 67.2539 66.8249L74.325 59.7538Z" fill="white" stroke="white" stroke-width="3" stroke-linejoin="round"/>
<path d="M73.1863 61.4579C73.4503 60.8206 73.8371 60.2416 74.3249 59.7539L67.2538 66.825C66.7661 67.3127 66.3792 67.8917 66.1152 68.529L73.1863 61.4579Z" fill="white" stroke="white" stroke-width="3" stroke-linejoin="round"/>
<path d="M99.0336 82.7148H92.0359L84.9648 89.7859H91.9625L99.0336 82.7148Z" fill="white" stroke="white" stroke-width="3" stroke-linejoin="round"/>
<path d="M72.7859 63.467C72.7859 62.7773 72.9218 62.0943 73.1857 61.457L66.1147 68.5281C65.8507 69.1653 65.7148 69.8483 65.7148 70.5381L72.7859 63.467Z" fill="white" stroke="white" stroke-width="3" stroke-linejoin="round"/>
<path d="M92.0359 82.7148V89.7148L84.9648 96.7859V89.7859L92.0359 82.7148Z" fill="white" stroke="white" stroke-width="3" stroke-linejoin="round"/>
<path d="M92.0359 89.7148L85.0359 82.7148L77.9648 89.7859L84.9648 96.7859L92.0359 89.7148Z" fill="white" stroke="white" stroke-width="3" stroke-linejoin="round"/>
<path d="M72.7859 77.4621V63.4668L65.7148 70.5379V84.5332L72.7859 77.4621Z" fill="white" stroke="white" stroke-width="3" stroke-linejoin="round"/>
<path d="M85.0355 82.7148H78.0379L70.9668 89.7859H77.9644L85.0355 82.7148Z" fill="white" stroke="white" stroke-width="3" stroke-linejoin="round"/>
<path d="M78.0381 82.7142C77.3483 82.7142 76.6653 82.5784 76.0281 82.3145L68.957 89.3855C69.5943 89.6495 70.2773 89.7853 70.967 89.7853L78.0381 82.7142Z" fill="white" stroke="white" stroke-width="3" stroke-linejoin="round"/>
<path d="M73.1857 79.4729C72.9218 78.8356 72.7859 78.1526 72.7859 77.4629L65.7148 84.534C65.7148 85.2237 65.8507 85.9067 66.1147 86.5439L73.1857 79.4729Z" fill="white" stroke="white" stroke-width="3" stroke-linejoin="round"/>
<path d="M76.029 82.3143C75.3917 82.0504 74.8127 81.6635 74.325 81.1758L67.2539 88.2468C67.7416 88.7346 68.3207 89.1215 68.9579 89.3854L76.029 82.3143Z" fill="white" stroke="white" stroke-width="3" stroke-linejoin="round"/>
<path d="M74.3249 81.1766C73.8371 80.6889 73.4503 80.1099 73.1863 79.4727L66.1152 86.5437C66.3792 87.181 66.7661 87.76 67.2538 88.2477L74.3249 81.1766Z" fill="white" stroke="white" stroke-width="3" stroke-linejoin="round"/>
<path d="M99.0329 58.2148H78.0375C77.3478 58.2148 76.6648 58.3507 76.0275 58.6147C75.3903 58.8786 74.8113 59.2655 74.3235 59.7532C73.8358 60.2409 73.4489 60.82 73.185 61.4572C72.921 62.0944 72.7852 62.7774 72.7852 63.4672V77.4625C72.7852 78.1523 72.921 78.8353 73.185 79.4725C73.4489 80.1098 73.8358 80.6888 74.3235 81.1765C74.8113 81.6642 75.3903 82.0511 76.0275 82.3151C76.6648 82.579 77.3478 82.7149 78.0375 82.7148H85.0352L92.0352 89.7148V82.7148H99.0329C100.426 82.7148 101.762 82.1615 102.747 81.1765C103.732 80.1915 104.285 78.8555 104.285 77.4625V63.4672C104.285 62.0742 103.732 60.7383 102.747 59.7532C101.762 58.7682 100.426 58.2149 99.0329 58.2148Z" fill="black" stroke="white" stroke-width="3" stroke-linejoin="round"/>
</svg>
