<svg width="155" height="169" viewBox="0 0 155 169" fill="none" xmlns="http://www.w3.org/2000/svg">
  <g id="Logo-Teritori">
    <g id="Vector" opacity="0.25">
      <path d="M49.5702 156.767C48.7858 156.075 48.2946 155.109 48.1967 154.067L40.3992 71.1132H68.1494V164.048C68.1494 167.592 63.9674 169.479 61.3104 167.133L49.5702 156.767Z" fill="black"/>
      <path d="M68.1494 69.4671V57.887L38.9186 55.3615L40.2445 69.4671H68.1494Z" fill="black"/>
      <path d="M68.1494 56.2348L38.762 53.6957L34.1688 4.83048C33.9419 2.4162 35.8411 0.330078 38.266 0.330078H64.0341C66.3069 0.330078 68.1494 2.17254 68.1494 4.44534V56.2348Z" fill="black"/>
      <path d="M122.387 69.4668H143.541C144.677 69.4668 145.599 68.5455 145.599 67.4091V55.2741C145.599 54.0586 144.551 53.1081 143.341 53.2262L123.698 55.1443L122.387 69.4668Z" fill="black"/>
      <path d="M122.03 55.3071L92.7588 58.1654V69.4668H120.734L122.03 55.3071Z" fill="black"/>
      <path d="M91.1127 58.3262V69.4668H13.1697C12.0333 69.4668 11.1121 68.5455 11.1121 67.4091V55.2469C11.1121 54.0413 12.1438 53.094 13.345 53.1967L82.6163 59.1214C82.7412 59.1321 82.8668 59.1313 82.9916 59.1192L91.1127 58.3262Z" fill="black"/>
      <path d="M99.8037 166.853C97.2195 169.473 92.7588 167.643 92.7588 163.963V36.298H123.809L113.007 152.144C112.919 153.09 112.506 153.976 111.839 154.652L99.8037 166.853Z" fill="black"/>
      <path d="M123.962 34.6519H92.7588V16.909L125.809 14.8472L123.962 34.6519Z" fill="black"/>
      <path d="M92.7588 4.44593V15.2597L125.963 13.1883L126.743 4.82798C126.968 2.41475 125.069 0.330671 122.646 0.330671H96.874C94.6012 0.330671 92.7588 2.17313 92.7588 4.44593Z" fill="black"/>
      <path d="M68.1495 34.652V16.9607L35.1404 15.3362L36.9464 34.652H68.1495Z" fill="black"/>
      <path d="M69.7956 34.652H153.006C153.915 34.652 154.652 33.915 154.652 33.0059V14.7186C154.652 13.7684 153.85 13.0155 152.902 13.0758L81.4418 17.6148L69.7956 17.0417V34.652Z" fill="black"/>
      <path d="M33.3438 15.2477L35.3155 34.652H1.97618C1.06706 34.652 0.330078 33.915 0.330078 33.0059V15.3521C0.330078 14.4112 1.11734 13.6618 2.05709 13.708L33.3438 15.2477Z" fill="black"/>
    </g>
    <g id="Vector_2">
      <path d="M49.2401 156.437C48.4557 155.745 47.9646 154.779 47.8666 153.737L40.0692 70.7831H67.8193V163.718C67.8193 167.262 63.6373 169.148 60.9803 166.803L49.2401 156.437Z" fill="url(#paint0_linear_4474_32019)"/>
      <path d="M67.8193 69.137V57.5569L38.5885 55.0314L39.9144 69.137H67.8193Z" fill="url(#paint1_linear_4474_32019)"/>
      <path d="M67.8193 55.9047L38.432 53.3656L33.8388 4.5004C33.6118 2.08612 35.511 0 37.936 0H63.7041C65.9768 0 67.8193 1.84246 67.8193 4.11526V55.9047Z" fill="url(#paint2_linear_4474_32019)"/>
      <path d="M122.057 69.1367H143.211C144.347 69.1367 145.269 68.2155 145.269 67.0791V54.944C145.269 53.7286 144.221 52.778 143.011 52.8961L123.368 54.8142L122.057 69.1367Z" fill="url(#paint3_linear_4474_32019)"/>
      <path d="M121.7 54.9771L92.4287 57.8353V69.1367H120.404L121.7 54.9771Z" fill="url(#paint4_linear_4474_32019)"/>
      <path d="M90.7826 57.9961V69.1367H12.8396C11.7032 69.1367 10.782 68.2155 10.782 67.0791V54.9168C10.782 53.7112 11.8138 52.7639 13.015 52.8666L82.2862 58.7913C82.4111 58.802 82.5368 58.8013 82.6615 58.7891L90.7826 57.9961Z" fill="url(#paint5_linear_4474_32019)"/>
      <path d="M99.4737 166.523C96.8894 169.143 92.4287 167.313 92.4287 163.633V35.9679H123.479L112.677 151.814C112.589 152.76 112.176 153.646 111.509 154.322L99.4737 166.523Z" fill="url(#paint6_linear_4474_32019)"/>
      <path d="M123.632 34.3218H92.4287V16.5789L125.479 14.5171L123.632 34.3218Z" fill="url(#paint7_linear_4474_32019)"/>
      <path d="M92.4287 4.11585V14.9296L125.633 12.8582L126.413 4.4979C126.638 2.08468 124.739 0.000592774 122.315 0.000592774H96.544C94.2712 0.000592774 92.4287 1.84306 92.4287 4.11585Z" fill="url(#paint8_linear_4474_32019)"/>
      <path d="M67.8195 34.3219V16.6306L34.8103 15.0061L36.6163 34.3219H67.8195Z" fill="url(#paint9_linear_4474_32019)"/>
      <path d="M69.4656 34.3219H152.676C153.585 34.3219 154.322 33.5849 154.322 32.6758V14.3885C154.322 13.4383 153.52 12.6855 152.572 12.7457L81.1117 17.2847L69.4656 16.7116V34.3219Z" fill="url(#paint10_linear_4474_32019)"/>
      <path d="M33.0138 14.9177L34.9854 34.3219H1.6461C0.736986 34.3219 0 33.5849 0 32.6758V15.022C0 14.0812 0.787261 13.3317 1.72702 13.3779L33.0138 14.9177Z" fill="url(#paint11_linear_4474_32019)"/>
    </g>
    <g id="Subtract">
      <path d="M39.9395 53.4959L38.432 53.3656L36.6419 34.3219H36.6163L34.8103 15.0061L34.8264 15.0069L33.8388 4.5004C33.6118 2.08612 35.511 0 37.936 0H63.7041C65.2646 0 66.6222 0.868608 67.3199 2.14872C66.7359 1.83064 66.0663 1.6499 65.3544 1.6499H39.5864C37.1614 1.6499 35.2622 3.73603 35.4892 6.1503L36.4767 16.6568L36.4607 16.656L38.2667 35.9718H38.2923L39.9395 53.4959Z" fill="white"/>
      <path d="M69.4698 34.3219H71.116V18.3615L82.7621 18.9346L154.222 14.3956C154.256 14.3935 154.289 14.3923 154.322 14.3922V14.3885C154.322 13.4383 153.52 12.6855 152.572 12.7457L127.298 14.351L127.284 14.5081L94.0791 16.5795V16.4611L81.1117 17.2847L69.4697 16.7118L69.4698 34.3219Z" fill="white"/>
      <path d="M125.931 2.14856C125.349 1.83149 124.68 1.6505 123.966 1.6505H98.1944C95.9216 1.6505 94.0791 3.49296 94.0791 5.76575V14.8266L92.4287 14.9296V4.11585C92.4287 1.84306 94.2712 0.000592774 96.544 0.000592774H122.315C123.886 0.000592774 125.236 0.87577 125.931 2.14856Z" fill="white"/>
      <path d="M92.4287 35.9718H123.478L123.325 37.6179H94.0791V165.283C94.0791 166.015 94.2556 166.673 94.5587 167.239C93.3308 166.568 92.4287 165.288 92.4287 163.633V70.7866H92.433V59.646L92.4287 59.6464V35.9718Z" fill="white"/>
      <path d="M90.7826 59.8071V57.9961L82.6615 58.7891C82.5368 58.8013 82.4111 58.802 82.2862 58.7913L38.5885 55.0314L38.5907 55.0541L13.015 52.8666C11.8138 52.7639 10.782 53.7112 10.782 54.9168V67.0791C10.782 68.088 11.5081 68.9273 12.4663 69.1029C12.444 68.9816 12.4324 68.8567 12.4324 68.729V56.5667C12.4324 55.3611 13.4642 54.4138 14.6653 54.5165L40.2411 56.704L40.2389 56.6813L83.9366 60.4412C84.0615 60.4519 84.1871 60.4512 84.3119 60.439L90.7826 59.8071Z" fill="white"/>
      <path d="M40.0695 70.7866L47.8666 153.737C47.9646 154.779 48.4557 155.745 49.2401 156.437L50.1758 157.263C49.8092 156.706 49.5805 156.063 49.517 155.387L41.7196 72.433H67.8193V70.7869L40.0695 70.7866Z" fill="white"/>
      <path d="M122.206 69.1367H123.859L125.018 56.4641L144.661 54.546C144.858 54.5268 145.05 54.5358 145.235 54.5697C145.046 53.5402 144.093 52.7904 143.011 52.8961L123.527 54.7987L123.021 60.2277L122.206 69.1367Z" fill="white"/>
      <path d="M33.174 16.4942L33.0138 14.9177L1.72702 13.3779C0.787261 13.3317 0 14.0812 0 15.022V32.6758C0 33.5849 0.736986 34.3219 1.6461 34.3219H1.65039V16.672C1.65039 15.7311 2.43765 14.9816 3.37741 15.0278L33.174 16.4942Z" fill="white"/>
    </g>
  </g>
  <defs>
    <linearGradient id="paint0_linear_4474_32019" x1="0" y1="83.9205" x2="154.322" y2="83.9205" gradientUnits="userSpaceOnUse">
      <stop stop-color="#5433FF"/>
      <stop offset="0.5" stop-color="#20BDFF"/>
      <stop offset="1" stop-color="#A5FECB"/>
    </linearGradient>
    <linearGradient id="paint1_linear_4474_32019" x1="0" y1="83.9205" x2="154.322" y2="83.9205" gradientUnits="userSpaceOnUse">
      <stop stop-color="#5433FF"/>
      <stop offset="0.5" stop-color="#20BDFF"/>
      <stop offset="1" stop-color="#A5FECB"/>
    </linearGradient>
    <linearGradient id="paint2_linear_4474_32019" x1="0" y1="83.9205" x2="154.322" y2="83.9205" gradientUnits="userSpaceOnUse">
      <stop stop-color="#5433FF"/>
      <stop offset="0.5" stop-color="#20BDFF"/>
      <stop offset="1" stop-color="#A5FECB"/>
    </linearGradient>
    <linearGradient id="paint3_linear_4474_32019" x1="0" y1="83.9205" x2="154.322" y2="83.9205" gradientUnits="userSpaceOnUse">
      <stop stop-color="#5433FF"/>
      <stop offset="0.5" stop-color="#20BDFF"/>
      <stop offset="1" stop-color="#A5FECB"/>
    </linearGradient>
    <linearGradient id="paint4_linear_4474_32019" x1="0" y1="83.9205" x2="154.322" y2="83.9205" gradientUnits="userSpaceOnUse">
      <stop stop-color="#5433FF"/>
      <stop offset="0.5" stop-color="#20BDFF"/>
      <stop offset="1" stop-color="#A5FECB"/>
    </linearGradient>
    <linearGradient id="paint5_linear_4474_32019" x1="0" y1="83.9205" x2="154.322" y2="83.9205" gradientUnits="userSpaceOnUse">
      <stop stop-color="#5433FF"/>
      <stop offset="0.5" stop-color="#20BDFF"/>
      <stop offset="1" stop-color="#A5FECB"/>
    </linearGradient>
    <linearGradient id="paint6_linear_4474_32019" x1="0" y1="83.9205" x2="154.322" y2="83.9205" gradientUnits="userSpaceOnUse">
      <stop stop-color="#5433FF"/>
      <stop offset="0.5" stop-color="#20BDFF"/>
      <stop offset="1" stop-color="#A5FECB"/>
    </linearGradient>
    <linearGradient id="paint7_linear_4474_32019" x1="0" y1="83.9205" x2="154.322" y2="83.9205" gradientUnits="userSpaceOnUse">
      <stop stop-color="#5433FF"/>
      <stop offset="0.5" stop-color="#20BDFF"/>
      <stop offset="1" stop-color="#A5FECB"/>
    </linearGradient>
    <linearGradient id="paint8_linear_4474_32019" x1="0" y1="83.9205" x2="154.322" y2="83.9205" gradientUnits="userSpaceOnUse">
      <stop stop-color="#5433FF"/>
      <stop offset="0.5" stop-color="#20BDFF"/>
      <stop offset="1" stop-color="#A5FECB"/>
    </linearGradient>
    <linearGradient id="paint9_linear_4474_32019" x1="0" y1="83.9205" x2="154.322" y2="83.9205" gradientUnits="userSpaceOnUse">
      <stop stop-color="#5433FF"/>
      <stop offset="0.5" stop-color="#20BDFF"/>
      <stop offset="1" stop-color="#A5FECB"/>
    </linearGradient>
    <linearGradient id="paint10_linear_4474_32019" x1="0" y1="83.9205" x2="154.322" y2="83.9205" gradientUnits="userSpaceOnUse">
      <stop stop-color="#5433FF"/>
      <stop offset="0.5" stop-color="#20BDFF"/>
      <stop offset="1" stop-color="#A5FECB"/>
    </linearGradient>
    <linearGradient id="paint11_linear_4474_32019" x1="0" y1="83.9205" x2="154.322" y2="83.9205" gradientUnits="userSpaceOnUse">
      <stop stop-color="#5433FF"/>
      <stop offset="0.5" stop-color="#20BDFF"/>
      <stop offset="1" stop-color="#A5FECB"/>
    </linearGradient>
  </defs>
</svg>