<svg viewBox="0 0 100 100" fill="none" xmlns="http://www.w3.org/2000/svg">
<rect width="100" height="100" fill="black"/>
<path fill-rule="evenodd" clip-rule="evenodd" d="M72.5226 21H27.1861C25.5445 20.9955 23.9681 21.6453 22.8071 22.8064C21.6461 23.9675 20.9962 25.5439 21.0007 27.1854V34.0384C20.9885 35.5659 21.5559 37.0416 22.5879 38.1679H77.1211C78.1531 37.0417 78.7205 35.5659 78.7082 34.0384V27.1854C78.7128 25.5439 78.0629 23.9675 76.9018 22.8064C75.7407 21.6454 74.1644 20.9955 72.5228 21H72.5226ZM31.2981 31.2973C30.7538 31.2924 30.2339 31.0723 29.8517 30.6846C29.4699 30.297 29.2571 29.7739 29.2602 29.2296C29.2634 28.6853 29.4821 28.1645 29.8689 27.7814C30.2551 27.3983 30.7777 27.1841 31.322 27.1859C31.8664 27.1873 32.3876 27.4046 32.7716 27.79C33.1561 28.1754 33.3716 28.6971 33.3716 29.2414C33.3671 29.7885 33.1466 30.3111 32.758 30.6965C32.3695 31.0814 31.8451 31.2974 31.298 31.2974L31.2981 31.2973ZM39.5576 31.2973C39.0119 31.2973 38.4894 31.0809 38.1035 30.695C37.7181 30.3097 37.5017 29.7866 37.5017 29.2414C37.5017 28.6962 37.7181 28.1731 38.1035 27.7878C38.4893 27.4024 39.0119 27.1855 39.5576 27.1855C40.1028 27.1855 40.6254 27.4024 41.0113 27.7878C41.3966 28.1731 41.6131 28.6962 41.6131 29.2414C41.6086 29.7853 41.3903 30.3056 41.0058 30.6901C40.6213 31.0745 40.101 31.2928 39.5576 31.2973H39.5576ZM68.4113 31.2973H60.1513C59.4172 31.2973 58.7384 30.9056 58.3712 30.2694C58.004 29.6331 58.004 28.8497 58.3712 28.2135C58.7385 27.5777 59.4173 27.1855 60.1513 27.1855H68.4108C69.1453 27.1855 69.8241 27.5777 70.1914 28.2135C70.5586 28.8497 70.5586 29.6331 70.1914 30.2694C69.8241 30.9056 69.1453 31.2973 68.4108 31.2973H68.4113Z" fill="white"/>
<path fill-rule="evenodd" clip-rule="evenodd" d="M77.1205 42.2974H22.5873C21.5562 43.4173 20.9893 44.8872 21.0002 46.4093V53.298C20.9893 54.8201 21.5563 56.29 22.5873 57.4099H77.1205C78.1517 56.29 78.7186 54.8201 78.7077 53.298V46.4093C78.7186 44.8872 78.1516 43.4172 77.1205 42.2974V42.2974ZM31.2971 51.9095C30.7528 51.9046 30.2329 51.6845 29.8507 51.2968C29.4689 50.9092 29.2561 50.3857 29.2592 49.8418C29.2624 49.2975 29.4811 48.7767 29.8679 48.3936C30.2541 48.0105 30.7767 47.7963 31.321 47.7977C31.8654 47.7995 32.3866 48.0168 32.7706 48.4022C33.1551 48.7876 33.3707 49.3093 33.3707 49.8536C33.3661 50.4007 33.1456 50.9233 32.757 51.3087C32.3685 51.6936 31.8441 51.9096 31.297 51.9096L31.2971 51.9095ZM39.5566 51.9095C39.0109 51.9095 38.4884 51.6926 38.1025 51.3072C37.7172 50.9219 37.5007 50.3988 37.5007 49.8536C37.5007 49.3084 37.7172 48.7853 38.1025 48.4C38.4883 48.0146 39.0109 47.7977 39.5566 47.7977C40.1019 47.7977 40.6244 48.0146 41.0103 48.4C41.3956 48.7853 41.6121 49.3084 41.6121 49.8536C41.6076 50.3975 41.3893 50.9174 41.0048 51.3023C40.6204 51.6867 40.1 51.9045 39.5566 51.9095H39.5566ZM68.4103 51.9095H60.1503C59.4163 51.9095 58.7374 51.5174 58.3702 50.8816C58.003 50.2453 58.003 49.4619 58.3702 48.8257C58.7375 48.1899 59.4163 47.7977 60.1503 47.7977H68.4098C69.1443 47.7977 69.8231 48.1899 70.1904 48.8257C70.5577 49.4619 70.5577 50.2453 70.1904 50.8816C69.8231 51.5174 69.1443 51.9095 68.4098 51.9095H68.4103Z" fill="white"/>
<path fill-rule="evenodd" clip-rule="evenodd" d="M77.1206 61.5396H22.5874C21.5553 62.6658 20.9879 64.1416 21.0002 65.6691V72.522C20.9957 74.1636 21.6455 75.74 22.8066 76.901C23.9677 78.062 25.544 78.7119 27.1856 78.7074H72.5221C74.1637 78.7119 75.7401 78.0621 76.9011 76.901C78.0622 75.7399 78.7121 74.1636 78.7075 72.522V65.6691C78.7198 64.1416 78.1523 62.6658 77.1203 61.5396H77.1206ZM31.2972 72.522C30.7528 72.517 30.233 72.2965 29.8507 71.9093C29.469 71.5217 29.2561 70.9982 29.2593 70.4538C29.2625 69.9099 29.4812 69.3892 29.8679 69.0061C30.2542 68.623 30.7768 68.4088 31.3211 68.4101C31.8654 68.4119 32.3866 68.6293 32.7707 69.0142C33.1551 69.3996 33.3707 69.9217 33.3707 70.466C33.3662 71.0126 33.1456 71.5356 32.7571 71.9206C32.3685 72.306 31.8441 72.522 31.2971 72.522L31.2972 72.522ZM39.5567 72.522C39.011 72.522 38.4884 72.3051 38.1026 71.9197C37.7172 71.5343 37.5007 71.0113 37.5007 70.4661C37.5007 69.9209 37.7172 69.3978 38.1026 69.0124C38.4884 68.6266 39.011 68.4102 39.5567 68.4102C40.1019 68.4102 40.6245 68.6266 41.0103 69.0124C41.3957 69.3978 41.6121 69.9209 41.6121 70.4661C41.6076 71.01 41.3893 71.5298 41.0049 71.9143C40.6204 72.2992 40.1001 72.517 39.5567 72.522L39.5567 72.522ZM68.4103 72.522H60.1504C59.4163 72.522 58.7374 72.1298 58.3703 71.494C58.003 70.8578 58.003 70.0744 58.3703 69.4381C58.7375 68.8019 59.4164 68.4102 60.1504 68.4102H68.4099C69.1444 68.4102 69.8232 68.8019 70.1904 69.4381C70.5577 70.0744 70.5577 70.8578 70.1904 71.494C69.8232 72.1298 69.1444 72.522 68.4099 72.522H68.4103Z" fill="white"/>
</svg>
