<svg width="16" height="16" viewBox="0 0 16 16" fill="none" xmlns="http://www.w3.org/2000/svg">
<path d="M14.6672 5.908C14.6694 6.93383 14.2742 7.92067 13.5645 8.66133C11.9372 10.3487 10.3585 12.108 8.67115 13.7333C8.28382 14.1 7.66982 14.0867 7.29982 13.7033L2.43648 8.662C0.966484 7.138 0.966484 4.678 2.43648 3.15467C2.78391 2.79 3.20178 2.49968 3.66474 2.30132C4.12771 2.10295 4.62614 2.00067 5.12982 2.00067C5.63349 2.00067 6.13192 2.10295 6.59489 2.30132C7.05786 2.49968 7.47572 2.79 7.82315 3.15467L8.00048 3.33733L8.17715 3.15467C8.52528 2.79086 8.94327 2.50108 9.40607 2.30267C9.86886 2.10426 10.367 2.00132 10.8705 2C11.8838 2 12.8525 2.416 13.5638 3.15467C14.2738 3.89523 14.6693 4.88207 14.6672 5.908V5.908Z" stroke="#16BBFF" stroke-width="1.5" stroke-linecap="round" stroke-linejoin="round"/>
</svg>
