<svg width="40" height="40" viewBox="0 0 40 40" fill="none" xmlns="http://www.w3.org/2000/svg">
<path d="M6.66797 25.8333C11.668 24.1667 15.8346 25 20.0013 33.3333C20.8346 28.3333 23.3346 20.8333 25.8346 16.6667M31.668 11.6667C30.7839 11.6667 29.9361 11.3155 29.3109 10.6904C28.6858 10.0652 28.3346 9.21739 28.3346 8.33333C28.3346 7.44928 28.6858 6.60143 29.3109 5.97631C29.9361 5.35119 30.7839 5 31.668 5C32.552 5 33.3999 5.35119 34.025 5.97631C34.6501 6.60143 35.0013 7.44928 35.0013 8.33333C35.0013 9.21739 34.6501 10.0652 34.025 10.6904C33.3999 11.3155 32.552 11.6667 31.668 11.6667Z" stroke="#777777" stroke-width="1.5" stroke-linecap="round" stroke-linejoin="round"/>
</svg>
