<svg width="40" height="40" viewBox="0 0 40 40" fill="none" xmlns="http://www.w3.org/2000/svg">
<path d="M3.33203 25.833V4.33301C3.33203 4.06779 3.43739 3.81344 3.62492 3.6259C3.81246 3.43836 4.06681 3.33301 4.33203 3.33301H35.6654C35.9306 3.33301 36.1849 3.43836 36.3725 3.6259C36.56 3.81344 36.6654 4.06779 36.6654 4.33301V25.833M3.33203 25.833V28.9997C3.33203 29.2649 3.43739 29.5193 3.62492 29.7068C3.81246 29.8943 4.06681 29.9997 4.33203 29.9997H35.6654C35.9306 29.9997 36.1849 29.8943 36.3725 29.7068C36.56 29.5193 36.6654 29.2649 36.6654 28.9997V25.833M3.33203 25.833H36.6654M14.9987 36.6664H17.4987M17.4987 36.6664V29.9997M17.4987 36.6664H22.4987M22.4987 36.6664H24.9987M22.4987 36.6664V29.9997" stroke="#777777" stroke-width="1.5" stroke-linecap="round" stroke-linejoin="round"/>
</svg>
