<svg width="40" height="40" viewBox="0 0 40 40" fill="none" xmlns="http://www.w3.org/2000/svg">
<path d="M36.6667 23.3333V10C36.6667 8.67392 36.1399 7.40215 35.2022 6.46447C34.2645 5.52678 32.9927 5 31.6667 5H15C13.6739 5 12.4021 5.52678 11.4645 6.46447C10.5268 7.40215 10 8.67392 10 10V21.6667" stroke="#777777" stroke-width="1.5" stroke-linecap="round" stroke-linejoin="round"/>
<path d="M19.9987 35.0003H9.9987C8.23059 35.0003 6.5349 34.2979 5.28465 33.0477C4.03441 31.7975 3.33203 30.1018 3.33203 28.3337C3.33203 26.5655 4.03441 24.8699 5.28465 23.6196C6.5349 22.3694 8.23059 21.667 9.9987 21.667H29.9987C28.6802 21.667 27.3912 22.058 26.2949 22.7905C25.1986 23.5231 24.3441 24.5643 23.8395 25.7824C23.3349 27.0006 23.2029 28.3411 23.4601 29.6343C23.7174 30.9275 24.3523 32.1154 25.2847 33.0477C26.217 33.9801 27.4049 34.615 28.6981 34.8722C29.9913 35.1295 31.3318 34.9974 32.5499 34.4929C33.7681 33.9883 34.8093 33.1338 35.5418 32.0375C36.2744 30.9411 36.6654 29.6522 36.6654 28.3337V23.3337" stroke="#777777" stroke-width="1.5" stroke-linecap="round" stroke-linejoin="round"/>
</svg>
