<svg width="24" height="24" viewBox="0 0 24 24" fill="none" xmlns="http://www.w3.org/2000/svg">
<path d="M20 13V5.749C20.0001 5.67007 19.9845 5.59189 19.9543 5.51896C19.9241 5.44603 19.8798 5.37978 19.824 5.324L16.676 2.176C16.5636 2.06345 16.4111 2.00014 16.252 2H4.6C4.44087 2 4.28826 2.06321 4.17574 2.17574C4.06321 2.28826 4 2.44087 4 2.6V21.4C4 21.5591 4.06321 21.7117 4.17574 21.8243C4.28826 21.9368 4.44087 22 4.6 22H14" stroke="white" stroke-width="1.37333" stroke-linecap="round" stroke-linejoin="round"/>
<path d="M16 2V5.4C16 5.55913 16.0632 5.71174 16.1757 5.82426C16.2883 5.93679 16.4409 6 16.6 6H20M16 19H22M22 19L19 16M22 19L19 22" stroke="white" stroke-width="1.37333" stroke-linecap="round" stroke-linejoin="round"/>
</svg>