<svg width="40" height="40" viewBox="0 0 40 40" fill="none" xmlns="http://www.w3.org/2000/svg">
<path d="M19.2945 2.37351C19.482 2.18624 19.7362 2.08105 20.0012 2.08105C20.2662 2.08105 20.5203 2.18624 20.7078 2.37351L37.6278 19.2935C37.8151 19.481 37.9203 19.7352 37.9203 20.0002C37.9203 20.2652 37.8151 20.5193 37.6278 20.7068L20.7078 37.6268C20.5203 37.8141 20.2662 37.9193 20.0012 37.9193C19.7362 37.9193 19.482 37.8141 19.2945 37.6268L2.37448 20.7068C2.18722 20.5193 2.08203 20.2652 2.08203 20.0002C2.08203 19.7352 2.18722 19.481 2.37448 19.2935L19.2945 2.37351Z" stroke="#777777" stroke-width="1.5" stroke-linecap="round" stroke-linejoin="round"/>
</svg>
