<svg width="40" height="40" viewBox="0 0 40 40" fill="none" xmlns="http://www.w3.org/2000/svg">
<path d="M5.49413 34.3371L16.1008 23.7305M16.1008 23.7305C15.8686 23.4984 15.6843 23.2228 15.5586 22.9195C15.4329 22.6162 15.3682 22.2911 15.3681 21.9627C15.368 21.6344 15.4326 21.3093 15.5582 21.0059C15.6838 20.7025 15.8679 20.4269 16.1 20.1946C16.3321 19.9624 16.6077 19.7782 16.911 19.6525C17.2143 19.5267 17.5394 19.462 17.8677 19.4619C18.196 19.4618 18.5212 19.5264 18.8245 19.652C19.1279 19.7776 19.4036 19.9617 19.6358 20.1938C20.1048 20.6626 20.3684 21.2984 20.3685 21.9615C20.3687 22.6246 20.1054 23.2606 19.6366 23.7296C19.1679 24.1986 18.532 24.4622 17.8689 24.4623C17.2058 24.4625 16.5698 24.1992 16.1008 23.7305ZM29.6541 18.4271L34.3675 13.7121C34.9924 13.087 35.3434 12.2394 35.3434 11.3555C35.3434 10.4716 34.9924 9.6239 34.3675 8.99881L30.8341 5.46214C30.5246 5.15247 30.1571 4.90682 29.7525 4.73922C29.348 4.57162 28.9145 4.48535 28.4766 4.48535C28.0388 4.48535 27.6052 4.57162 27.2007 4.73922C26.7962 4.90682 26.4287 5.15247 26.1191 5.46214L21.4058 10.1771M29.4575 19.0138L26.2825 28.5388C26.2318 28.6915 26.145 28.8297 26.0296 28.9417C25.9141 29.0537 25.7733 29.1362 25.6191 29.1821L6.1558 34.9671C5.98045 35.0192 5.79417 35.0222 5.61725 34.9758C5.44032 34.9293 5.27952 34.8353 5.15234 34.7038C5.02516 34.5723 4.93648 34.4085 4.89595 34.2301C4.85542 34.0517 4.86459 33.8657 4.92246 33.6921L11.2425 14.7355C11.2878 14.5994 11.3618 14.4746 11.4596 14.3696C11.5574 14.2647 11.6766 14.182 11.8091 14.1271L20.7875 10.4305C20.97 10.3551 21.1708 10.3354 21.3644 10.374C21.5581 10.4126 21.7361 10.5076 21.8758 10.6471L29.2158 17.9888C29.3474 18.1203 29.4398 18.2858 29.4825 18.4669C29.5252 18.648 29.5165 18.8374 29.4575 19.0138Z" stroke="#777777" stroke-width="1.5" stroke-linecap="round" stroke-linejoin="round"/>
</svg>
