<svg width="24" height="24" viewBox="0 0 24 24" fill="none" xmlns="http://www.w3.org/2000/svg">
<path d="M20 12V5.749C20.0001 5.67007 19.9845 5.59189 19.9543 5.51896C19.9241 5.44603 19.8798 5.37978 19.824 5.324L16.676 2.176C16.5636 2.06345 16.4111 2.00014 16.252 2H4.6C4.44087 2 4.28826 2.06321 4.17574 2.17574C4.06321 2.28826 4 2.44087 4 2.6V21.4C4 21.5591 4.06321 21.7117 4.17574 21.8243C4.28826 21.9368 4.44087 22 4.6 22H11M8 10H16M8 6H12M8 14H11" stroke="white" stroke-width="1.37333" stroke-linecap="round" stroke-linejoin="round"/>
<path d="M16 2V5.4C16 5.55913 16.0633 5.71174 16.1758 5.82426C16.2883 5.93679 16.4409 6 16.6 6H20M16.306 17.113L17.215 15.186C17.2396 15.1309 17.2796 15.0841 17.3301 15.0513C17.3807 15.0184 17.4397 15.001 17.5 15.001C17.5604 15.001 17.6194 15.0184 17.6699 15.0513C17.7205 15.0841 17.7605 15.1309 17.785 15.186L18.695 17.113L20.727 17.424C20.988 17.464 21.092 17.8 20.904 17.992L19.433 19.492L19.78 21.61C19.824 21.882 19.551 22.09 19.318 21.961L17.5 20.961L15.682 21.961C15.448 22.09 15.176 21.882 15.22 21.61L15.567 19.492L14.097 17.992C13.907 17.8 14.012 17.464 14.273 17.424L16.306 17.113Z" stroke="white" stroke-width="1.37333" stroke-linecap="round" stroke-linejoin="round"/>
</svg>
