<svg width="64" height="56" viewBox="0 0 64 56" fill="none" xmlns="http://www.w3.org/2000/svg">
<rect x="0.5" y="0.5" width="63" height="55" rx="11.5" fill="black" stroke="#3D3D3D"/>
<path d="M17.4941 42.3371L28.1008 31.7305M28.1008 31.7305C27.8686 31.4984 27.6843 31.2228 27.5586 30.9195C27.4329 30.6162 27.3682 30.2911 27.3681 29.9627C27.368 29.6344 27.4326 29.3093 27.5582 29.0059C27.6838 28.7025 27.8679 28.4269 28.1 28.1946C28.3321 27.9624 28.6077 27.7782 28.911 27.6525C29.2143 27.5267 29.5394 27.462 29.8677 27.4619C30.196 27.4618 30.5212 27.5264 30.8245 27.652C31.1279 27.7776 31.4036 27.9617 31.6358 28.1938C32.1048 28.6626 32.3684 29.2984 32.3685 29.9615C32.3687 30.6246 32.1054 31.2606 31.6366 31.7296C31.1679 32.1986 30.532 32.4622 29.8689 32.4623C29.2058 32.4625 28.5698 32.1992 28.1008 31.7305ZM41.6541 26.4271L46.3675 21.7121C46.9924 21.087 47.3434 20.2394 47.3434 19.3555C47.3434 18.4716 46.9924 17.6239 46.3675 16.9988L42.8341 13.4621C42.5246 13.1525 42.1571 12.9068 41.7525 12.7392C41.348 12.5716 40.9145 12.4854 40.4766 12.4854C40.0388 12.4854 39.6052 12.5716 39.2007 12.7392C38.7962 12.9068 38.4287 13.1525 38.1191 13.4621L33.4058 18.1771M41.4575 27.0138L38.2825 36.5388C38.2318 36.6915 38.145 36.8297 38.0296 36.9417C37.9141 37.0537 37.7733 37.1362 37.6191 37.1821L18.1558 42.9671C17.9804 43.0192 17.7942 43.0222 17.6172 42.9758C17.4403 42.9293 17.2795 42.8353 17.1523 42.7038C17.0252 42.5723 16.9365 42.4085 16.896 42.2301C16.8554 42.0517 16.8646 41.8657 16.9225 41.6921L23.2425 22.7355C23.2878 22.5994 23.3618 22.4746 23.4596 22.3696C23.5574 22.2647 23.6766 22.182 23.8091 22.1271L32.7875 18.4305C32.97 18.3551 33.1708 18.3354 33.3644 18.374C33.5581 18.4126 33.7361 18.5076 33.8758 18.6471L41.2158 25.9888C41.3474 26.1203 41.4398 26.2858 41.4825 26.4669C41.5252 26.648 41.5165 26.8374 41.4575 27.0138Z" stroke="#777777" stroke-width="1.5" stroke-linecap="round" stroke-linejoin="round"/>
</svg>
