<svg width="64" height="56" viewBox="0 0 64 56" fill="none" xmlns="http://www.w3.org/2000/svg">
<rect x="0.5" y="0.5" width="63" height="55" rx="11.5" fill="black" stroke="#3D3D3D"/>
<path d="M31.2945 10.3735C31.482 10.1862 31.7362 10.0811 32.0012 10.0811C32.2662 10.0811 32.5203 10.1862 32.7078 10.3735L49.6278 27.2935C49.8151 27.481 49.9203 27.7352 49.9203 28.0002C49.9203 28.2652 49.8151 28.5193 49.6278 28.7068L32.7078 45.6268C32.5203 45.8141 32.2662 45.9193 32.0012 45.9193C31.7362 45.9193 31.482 45.8141 31.2945 45.6268L14.3745 28.7068C14.1872 28.5193 14.082 28.2652 14.082 28.0002C14.082 27.7352 14.1872 27.481 14.3745 27.2935L31.2945 10.3735Z" stroke="#777777" stroke-width="1.5" stroke-linecap="round" stroke-linejoin="round"/>
</svg>
