<svg width="40" height="40" viewBox="0 0 40 40" fill="none" xmlns="http://www.w3.org/2000/svg">
<path d="M33.3346 23.3333V5L15.0013 8.33333V26.6667M33.3346 23.3333L33.3346 28.3333C33.3346 29.2174 32.9834 30.0652 32.3583 30.6904C31.7332 31.3155 30.8854 31.6667 30.0013 31.6667H28.3346C27.4506 31.6667 26.6027 31.3155 25.9776 30.6904C25.3525 30.0652 25.0013 29.2174 25.0013 28.3333V26.6667C25.0013 25.7826 25.3525 24.9348 25.9776 24.3096C26.6027 23.6845 27.4506 23.3333 28.3346 23.3333L33.3346 23.3333ZM15.0013 26.6667L15.0013 31.6667C15.0013 32.5507 14.6501 33.3986 14.025 34.0237C13.3999 34.6488 12.552 35 11.668 35H10.0013C9.11725 35 8.2694 34.6488 7.64428 34.0237C7.01916 33.3986 6.66797 32.5507 6.66797 31.6667V30C6.66797 29.1159 7.01916 28.2681 7.64428 27.643C8.2694 27.0179 9.11725 26.6667 10.0013 26.6667L15.0013 26.6667Z" stroke="#777777" stroke-width="1.5" stroke-linecap="round" stroke-linejoin="round"/>
</svg>
