<svg width="40" height="40" viewBox="0 0 40 40" fill="none" xmlns="http://www.w3.org/2000/svg">
<path d="M13.332 35.2797V23.333M13.332 23.333L19.9987 11.6663L26.6654 23.333M13.332 23.333C13.332 23.333 15.2104 24.9997 16.6654 24.9997C18.1204 24.9997 19.9987 23.333 19.9987 23.333C19.9987 23.333 21.877 24.9997 23.332 24.9997C24.787 24.9997 26.6654 23.333 26.6654 23.333M26.6654 23.333V35.2797M19.9987 3.33301C10.7937 3.33301 3.33203 10.7947 3.33203 19.9997C3.33203 29.2047 10.7937 36.6664 19.9987 36.6664C29.2037 36.6664 36.6654 29.2047 36.6654 19.9997C36.6654 10.7947 29.2037 3.33301 19.9987 3.33301Z" stroke="#777777" stroke-width="1.5" stroke-linecap="round" stroke-linejoin="round"/>
</svg>
