<svg width="40" height="40" viewBox="0 0 40 40" fill="none" xmlns="http://www.w3.org/2000/svg">
<path d="M13.332 11.6667H6.66537C5.78131 11.6667 4.93346 12.0179 4.30834 12.643C3.68322 13.2681 3.33203 14.1159 3.33203 15V31.6667C3.33203 32.5507 3.68322 33.3986 4.30834 34.0237C4.93346 34.6488 5.78131 35 6.66537 35H33.332C34.2161 35 35.0639 34.6488 35.6891 34.0237C36.3142 33.3986 36.6654 32.5507 36.6654 31.6667V15C36.6654 14.1159 36.3142 13.2681 35.6891 12.643C35.0639 12.0179 34.2161 11.6667 33.332 11.6667H26.6654M13.332 11.6667V6C13.332 5.73478 13.4374 5.48043 13.6249 5.29289C13.8125 5.10536 14.0668 5 14.332 5H25.6654C25.9306 5 26.1849 5.10536 26.3725 5.29289C26.56 5.48043 26.6654 5.73478 26.6654 6V11.6667M13.332 11.6667H26.6654" stroke="#777777" stroke-width="1.5"/>
</svg>
