<svg viewBox="0 0 132 62" fill="none" xmlns="http://www.w3.org/2000/svg">
<mask id="path-1-inside-1_7048_106873" fill="white">
<path fill-rule="evenodd" clip-rule="evenodd" d="M0 54V12.1417L11.4924 0H124C128.418 0 132 3.58172 132 8V49.8561L120.506 62H8C3.58172 62 0 58.4183 0 54Z"/>
</mask>
<path fill-rule="evenodd" clip-rule="evenodd" d="M0 54V12.1417L11.4924 0H124C128.418 0 132 3.58172 132 8V49.8561L120.506 62H8C3.58172 62 0 58.4183 0 54Z" fill="black"/>
<path d="M0 12.1417L-0.726259 11.4543L-1 11.7435V12.1417H0ZM11.4924 0V-1H11.062L10.7661 -0.687421L11.4924 0ZM132 49.8561L132.726 50.5436L133 50.2544V49.8561H132ZM120.506 62V63H120.936L121.232 62.6874L120.506 62ZM-1 12.1417V54H1V12.1417H-1ZM10.7661 -0.687421L-0.726259 11.4543L0.726259 12.8291L12.2187 0.687421L10.7661 -0.687421ZM124 -1H11.4924V1H124V-1ZM133 8C133 3.02944 128.971 -1 124 -1V1C127.866 1 131 4.13401 131 8H133ZM133 49.8561V8H131V49.8561H133ZM121.232 62.6874L132.726 50.5436L131.274 49.1687L119.779 61.3126L121.232 62.6874ZM8 63H120.506V61H8V63ZM-1 54C-1 58.9706 3.02944 63 8 63V61C4.13401 61 1 57.866 1 54H-1Z" fill="#333333" mask="url(#path-1-inside-1_7048_106873)"/>
</svg>
