<svg viewBox="0 0 748 80" fill="none" xmlns="http://www.w3.org/2000/svg">
<mask id="path-1-inside-1_5124_49503" fill="white">
<path fill-rule="evenodd" clip-rule="evenodd" d="M0 72V12.1417L11.4924 0H740C744.418 0 748 3.58172 748 8V67.8572L736.507 80H7.99998C3.5817 80 0 76.4183 0 72Z"/>
</mask>
<path fill-rule="evenodd" clip-rule="evenodd" d="M0 72V12.1417L11.4924 0H740C744.418 0 748 3.58172 748 8V67.8572L736.507 80H7.99998C3.5817 80 0 76.4183 0 72Z" fill="black"/>
<path d="M0 12.1417L-0.726259 11.4543L-1 11.7435V12.1417H0ZM11.4924 0V-1H11.062L10.7661 -0.687421L11.4924 0ZM748 67.8572L748.726 68.5446L749 68.2554V67.8572H748ZM736.507 80V81H736.937L737.233 80.6874L736.507 80ZM-1 12.1417V72H1V12.1417H-1ZM10.7661 -0.687421L-0.726259 11.4543L0.726259 12.8291L12.2187 0.687421L10.7661 -0.687421ZM740 -1H11.4924V1H740V-1ZM749 8C749 3.02944 744.971 -1 740 -1V1C743.866 1 747 4.13401 747 8H749ZM749 67.8572V8H747V67.8572H749ZM737.233 80.6874L748.726 68.5446L747.274 67.1698L735.78 79.3126L737.233 80.6874ZM7.99998 81H736.507V79H7.99998V81ZM-1 72C-1 76.9706 3.02941 81 7.99998 81V79C4.13399 79 1 75.866 1 72H-1Z" fill="url(#paint0_linear_5124_49503)" mask="url(#path-1-inside-1_5124_49503)"/>
<defs>
<linearGradient id="paint0_linear_5124_49503" x1="8.18124" y1="-6.05263" x2="136.682" y2="330.858" gradientUnits="userSpaceOnUse">
<stop stop-color="#01B7C5"/>
<stop offset="1" stop-color="#782C96"/>
</linearGradient>
</defs>
</svg>
