<svg viewBox="0 0 68 68" fill="none" xmlns="http://www.w3.org/2000/svg">
<g clip-path="url(#clip0_12060_209148)">
<path opacity="0.0714286" d="M61.6847 21.2518L59.1557 54.4358C59.0142 56.2918 57.6213 57.8102 55.7849 58.1102L25.277 63.0946C23.5974 63.369 21.9268 62.5588 21.1019 61.07L4.27944 30.7064C3.45458 29.2176 3.65322 27.3707 4.77585 26.0911L25.1674 2.84738C26.3949 1.44818 28.42 1.07096 30.0682 1.9345L59.536 17.3735C60.9623 18.1208 61.8071 19.6456 61.6847 21.2518Z" stroke="url(#paint0_linear_12060_209148)" stroke-width="0.424436"/>
<path opacity="0.142857" d="M64.3946 32.7929L49.1069 62.3504C48.2518 64.0038 46.3761 64.8571 44.5681 64.4152L14.5398 57.0773C12.8865 56.6733 11.6651 55.2747 11.4872 53.582L7.86009 19.0547C7.68227 17.3621 8.58639 15.74 10.1196 15.0009L37.9668 1.57692C39.6435 0.768639 41.6555 1.21309 42.8356 2.65244L63.9314 28.3841C64.9523 29.6292 65.1344 31.3625 64.3946 32.7929Z" stroke="url(#paint1_linear_12060_209148)" stroke-width="0.424436"/>
<path opacity="0.214286" d="M62.3883 44.4798L36.7727 65.7113C35.3399 66.8989 33.2803 66.9511 31.7886 65.8377L7.01292 47.344C5.64889 46.3258 5.07076 44.5608 5.56815 42.9331L15.7134 9.733C16.2108 8.10531 17.6766 6.96549 19.3765 6.88453L50.2528 5.41389C52.1118 5.32535 53.7901 6.52094 54.3142 8.30711L63.6839 40.24C64.1374 41.7854 63.628 43.4523 62.3883 44.4798Z" stroke="url(#paint2_linear_12060_209148)" stroke-width="0.424436"/>
<path opacity="0.285714" d="M55.9778 54.4484L24.1072 63.9782C22.3248 64.5112 20.4091 63.7545 19.4712 62.147L3.88681 35.4369C3.02887 33.9664 3.18622 32.1155 4.28002 30.8113L26.5836 4.21769C27.6774 2.9135 29.472 2.43705 31.0684 3.02704L60.0658 13.7441C61.811 14.3892 62.8884 16.1452 62.6733 17.994L58.8272 51.0508C58.6411 52.6512 57.5207 53.9871 55.9778 54.4484Z" stroke="url(#paint3_linear_12060_209148)" stroke-width="0.424436"/>
<path opacity="0.357143" d="M46.1705 61.1174L13.1122 57.4306C11.2636 57.2245 9.79631 55.7798 9.56082 53.9341L5.6464 23.2535C5.43093 21.5646 6.29899 19.9221 7.81562 19.1489L38.7302 3.38931C40.2469 2.61617 42.0853 2.87899 43.3242 4.04608L65.8322 25.2481C67.1863 26.5236 67.4919 28.5604 66.5721 30.1779L50.1221 59.1029C49.3254 60.5038 47.7715 61.2959 46.1705 61.1174Z" stroke="url(#paint4_linear_12060_209148)" stroke-width="0.424436"/>
<path opacity="0.428571" d="M34.5463 63.4218L5.5561 47.1049C3.9351 46.1926 3.14869 44.2896 3.65263 42.499L12.0315 12.7262C12.4927 11.0874 13.9335 9.91482 15.6317 9.796L50.2425 7.37458C51.9408 7.25577 53.5306 8.21637 54.2153 9.775L66.6541 38.0913C67.4023 39.7944 66.8882 41.7883 65.4099 42.9175L38.9716 63.1122C37.6908 64.0905 35.9507 64.2122 34.5463 63.4218Z" stroke="url(#paint5_linear_12060_209148)" stroke-width="0.424436"/>
<path opacity="0.5" d="M22.9371 61.0022L2.62374 34.6493C1.48786 33.1757 1.50718 31.1164 2.6705 29.6649L22.0104 5.53484C23.075 4.2066 24.859 3.69038 26.4686 4.24487L59.2741 15.5463C60.8836 16.1008 61.9718 17.6065 61.9934 19.3089L62.3848 50.2365C62.4084 52.0968 61.1564 53.7315 59.3545 54.193L27.131 62.447C25.5702 62.8468 23.921 62.2786 22.9371 61.0022Z" stroke="url(#paint6_linear_12060_209148)" stroke-width="0.424436"/>
<path opacity="0.571429" d="M13.2109 54.24L4.804 22.0406C4.33384 20.2398 5.15633 18.3511 6.79458 17.4695L34.0195 2.81873C35.5182 2.01221 37.3618 2.23423 38.6265 3.37355L64.4118 26.6023C65.6765 27.7416 66.0899 29.5527 65.4448 31.1283L53.7274 59.749C53.0223 61.4712 51.2308 62.4871 49.3917 62.2075L16.5058 57.2082C14.9135 56.9661 13.618 55.799 13.2109 54.24Z" stroke="url(#paint7_linear_12060_209148)" stroke-width="0.424436"/>
<path opacity="0.642857" d="M6.88555 44.2103L11.7221 11.2836C11.9926 9.44193 13.4881 8.02441 15.3411 7.85326L46.1219 5.01025C47.8165 4.85373 49.4266 5.77844 50.1456 7.32114L64.8102 38.7851C65.5292 40.3278 65.2023 42.1562 63.9932 43.3544L42.0309 65.1182C40.7087 66.4284 38.6621 66.6634 37.0781 65.6869L8.75849 48.2289C7.38782 47.3839 6.65146 45.804 6.88555 44.2103Z" stroke="url(#paint8_linear_12060_209148)" stroke-width="0.424436"/>
<path opacity="0.714286" d="M4.98939 32.5075L22.3006 4.08885C23.269 2.4992 25.1996 1.77892 26.9724 2.34586L56.4159 11.7616C58.037 12.28 59.158 13.7605 59.2173 15.4614L60.4284 50.1578C60.4877 51.8587 59.4727 53.4138 57.8917 54.044L29.1764 65.4918C27.4474 66.1811 25.4713 65.5973 24.3945 64.0791L5.14402 36.9378C4.21247 35.6245 4.15168 33.8827 4.98939 32.5075Z" stroke="url(#paint9_linear_12060_209148)" stroke-width="0.424436"/>
<path opacity="0.785714" d="M7.81482 20.9917L34.8483 1.59966C36.3604 0.514975 38.4185 0.606598 39.8289 1.82138L63.2549 21.9992C64.5446 23.1101 64.9983 24.9112 64.3886 26.5003L51.9534 58.9113C51.3437 60.5004 49.802 61.5351 48.1006 61.4973L17.1968 60.8094C15.3362 60.768 13.7454 59.4582 13.3472 57.6399L6.22671 25.1309C5.8821 23.5575 6.50646 21.9302 7.81482 20.9917Z" stroke="url(#paint10_linear_12060_209148)" stroke-width="0.424436"/>
<path opacity="0.857143" d="M14.9066 11.4944L47.3639 4.21217C49.1791 3.8049 51.0372 4.69331 51.8607 6.36226L65.545 34.0952C66.2983 35.6219 66.0122 37.4575 64.8301 38.6822L40.7269 63.6542C39.5448 64.8789 37.7213 65.229 36.17 64.529L7.99014 51.8142C6.29429 51.049 5.34202 49.2221 5.68549 47.3929L11.8269 14.6851C12.1243 13.1015 13.3352 11.847 14.9066 11.4944Z" stroke="url(#paint11_linear_12060_209148)" stroke-width="0.424436"/>
<path opacity="0.928571" d="M25.151 5.52689L57.8715 11.5118C59.7012 11.8465 61.0642 13.3899 61.1704 15.2474L62.9362 46.1268C63.0334 47.8265 62.0529 49.4045 60.486 50.07L28.5481 63.6335C26.9812 64.299 25.1656 63.9085 24.011 62.6578L3.03594 39.9363C1.7742 38.5696 1.61132 36.5165 2.64171 34.9672L21.0683 7.26077C21.9607 5.91882 23.5662 5.23701 25.151 5.52689Z" stroke="url(#paint12_linear_12060_209148)" stroke-width="0.424436"/>
<path d="M36.9082 4.03648L64.6901 22.3368C66.2436 23.3601 66.8954 25.3133 66.2678 27.0644L55.8335 56.1799C55.2592 57.7825 53.7402 58.8517 52.0378 58.8517H17.3425C15.6401 58.8517 14.1211 57.7825 13.5467 56.1799L3.11244 27.0644C2.48488 25.3133 3.1367 23.3601 4.69013 22.3368L32.4721 4.03648C33.8179 3.14996 35.5624 3.14996 36.9082 4.03648Z" stroke="url(#paint13_linear_12060_209148)" stroke-width="0.424436"/>
</g>
<defs>
<linearGradient id="paint0_linear_12060_209148" x1="24.845" y1="16.0556" x2="44.8112" y2="52.0576" gradientUnits="userSpaceOnUse">
<stop offset="0.166667" stop-color="#876CF5" stop-opacity="0"/>
<stop offset="0.520833" stop-color="#1FDBFA" stop-opacity="0.6"/>
<stop offset="1" stop-color="#876CF5" stop-opacity="0.36"/>
</linearGradient>
<linearGradient id="paint1_linear_12060_209148" x1="32.5125" y1="13.6088" x2="36.8183" y2="54.5555" gradientUnits="userSpaceOnUse">
<stop offset="0.166667" stop-color="#876CF5" stop-opacity="0"/>
<stop offset="0.520833" stop-color="#1FDBFA" stop-opacity="0.6"/>
<stop offset="1" stop-color="#876CF5" stop-opacity="0.36"/>
</linearGradient>
<linearGradient id="paint2_linear_12060_209148" x1="40.5329" y1="14.3571" x2="28.4902" y2="53.7273" gradientUnits="userSpaceOnUse">
<stop offset="0.166667" stop-color="#876CF5" stop-opacity="0"/>
<stop offset="0.520833" stop-color="#1FDBFA" stop-opacity="0.6"/>
<stop offset="1" stop-color="#876CF5" stop-opacity="0.36"/>
</linearGradient>
<linearGradient id="paint3_linear_12060_209148" x1="47.6248" y1="18.1762" x2="21.1572" y2="49.7033" gradientUnits="userSpaceOnUse">
<stop offset="0.166667" stop-color="#876CF5" stop-opacity="0"/>
<stop offset="0.520833" stop-color="#1FDBFA" stop-opacity="0.6"/>
<stop offset="1" stop-color="#876CF5" stop-opacity="0.36"/>
</linearGradient>
<linearGradient id="paint4_linear_12060_209148" x1="52.6483" y1="24.4633" x2="15.974" y2="43.1405" gradientUnits="userSpaceOnUse">
<stop offset="0.166667" stop-color="#876CF5" stop-opacity="0"/>
<stop offset="0.520833" stop-color="#1FDBFA" stop-opacity="0.6"/>
<stop offset="1" stop-color="#876CF5" stop-opacity="0.36"/>
</linearGradient>
<linearGradient id="paint5_linear_12060_209148" x1="54.8245" y1="32.2142" x2="13.7724" y2="35.0834" gradientUnits="userSpaceOnUse">
<stop offset="0.166667" stop-color="#876CF5" stop-opacity="0"/>
<stop offset="0.520833" stop-color="#1FDBFA" stop-opacity="0.6"/>
<stop offset="1" stop-color="#876CF5" stop-opacity="0.36"/>
</linearGradient>
<linearGradient id="paint6_linear_12060_209148" x1="53.7908" y1="40.2025" x2="14.8766" y2="26.8099" gradientUnits="userSpaceOnUse">
<stop offset="0.166667" stop-color="#876CF5" stop-opacity="0"/>
<stop offset="0.520833" stop-color="#1FDBFA" stop-opacity="0.6"/>
<stop offset="1" stop-color="#876CF5" stop-opacity="0.36"/>
</linearGradient>
<linearGradient id="paint7_linear_12060_209148" x1="49.7346" y1="47.1542" x2="19.139" y2="19.6195" gradientUnits="userSpaceOnUse">
<stop offset="0.166667" stop-color="#876CF5" stop-opacity="0"/>
<stop offset="0.520833" stop-color="#1FDBFA" stop-opacity="0.6"/>
<stop offset="1" stop-color="#876CF5" stop-opacity="0.36"/>
</linearGradient>
<linearGradient id="paint8_linear_12060_209148" x1="43.2732" y1="51.9648" x2="25.8673" y2="14.6563" gradientUnits="userSpaceOnUse">
<stop offset="0.166667" stop-color="#876CF5" stop-opacity="0"/>
<stop offset="0.520833" stop-color="#1FDBFA" stop-opacity="0.6"/>
<stop offset="1" stop-color="#876CF5" stop-opacity="0.36"/>
</linearGradient>
<linearGradient id="paint9_linear_12060_209148" x1="35.4563" y1="53.8699" x2="34.0187" y2="12.7224" gradientUnits="userSpaceOnUse">
<stop offset="0.166667" stop-color="#876CF5" stop-opacity="0"/>
<stop offset="0.520833" stop-color="#1FDBFA" stop-opacity="0.6"/>
<stop offset="1" stop-color="#876CF5" stop-opacity="0.36"/>
</linearGradient>
<linearGradient id="paint10_linear_12060_209148" x1="27.5167" y1="52.5664" x2="42.2771" y2="14.1333" gradientUnits="userSpaceOnUse">
<stop offset="0.166667" stop-color="#876CF5" stop-opacity="0"/>
<stop offset="0.520833" stop-color="#1FDBFA" stop-opacity="0.6"/>
<stop offset="1" stop-color="#876CF5" stop-opacity="0.36"/>
</linearGradient>
<linearGradient id="paint11_linear_12060_209148" x1="20.7101" y1="48.2613" x2="49.3115" y2="18.6584" gradientUnits="userSpaceOnUse">
<stop offset="0.166667" stop-color="#876CF5" stop-opacity="0"/>
<stop offset="0.520833" stop-color="#1FDBFA" stop-opacity="0.6"/>
<stop offset="1" stop-color="#876CF5" stop-opacity="0.36"/>
</linearGradient>
<linearGradient id="paint12_linear_12060_209148" x1="16.1331" y1="41.6395" x2="54.0197" y2="25.5657" gradientUnits="userSpaceOnUse">
<stop offset="0.166667" stop-color="#876CF5" stop-opacity="0"/>
<stop offset="0.520833" stop-color="#1FDBFA" stop-opacity="0.6"/>
<stop offset="1" stop-color="#876CF5" stop-opacity="0.36"/>
</linearGradient>
<linearGradient id="paint13_linear_12060_209148" x1="14.5035" y1="33.7528" x2="55.6557" y2="33.7528" gradientUnits="userSpaceOnUse">
<stop offset="0.166667" stop-color="#876CF5" stop-opacity="0"/>
<stop offset="0.520833" stop-color="#1FDBFA" stop-opacity="0.6"/>
<stop offset="1" stop-color="#876CF5" stop-opacity="0.36"/>
</linearGradient>
<clipPath id="clip0_12060_209148">
<rect width="68" height="68" fill="white"/>
</clipPath>
</defs>
</svg>
