<svg  viewBox="0 0 196 196" fill="none" xmlns="http://www.w3.org/2000/svg">
<path opacity="0.0714286" d="M174.453 63.8226L167.396 156.414C166.976 161.919 162.846 166.421 157.4 167.311L72.3666 181.204C67.3858 182.018 62.4312 179.615 59.9851 175.2L13.0157 90.4227C10.5696 86.0075 11.1586 80.5307 14.4878 76.7358L71.3243 11.9497C74.9645 7.80034 80.9701 6.68168 85.8579 9.24253L168.081 52.3214C172.31 54.5375 174.816 59.0594 174.453 63.8226Z" stroke="url(#paint0_linear_10669_178733)" stroke-width="1.25868"/>
<path opacity="0.142857" d="M181.939 96.2858L139.283 178.759C136.747 183.662 131.185 186.193 125.823 184.882L42.1263 164.43C37.2235 163.232 33.6012 159.084 33.0739 154.064L22.9466 57.6617C22.4193 52.6421 25.1005 47.8316 29.6472 45.6398L107.264 8.22392C112.237 5.82692 118.203 7.14495 121.703 11.4134L180.566 83.2113C183.593 86.904 184.133 92.0441 181.939 96.2858Z" stroke="url(#paint1_linear_10669_178733)" stroke-width="1.25868"/>
<path opacity="0.214286" d="M176.168 129.098L104.694 188.339C100.445 191.861 94.3374 192.016 89.9138 188.714L20.8577 137.167C16.8125 134.148 15.0981 128.914 16.5731 124.087L44.8993 31.3897C46.3744 26.5627 50.7212 23.1826 55.7623 22.9425L141.822 18.8434C147.335 18.5809 152.312 22.1264 153.867 27.4234L180.011 116.525C181.355 121.107 179.845 126.051 176.168 129.098Z" stroke="url(#paint2_linear_10669_178733)" stroke-width="1.25868"/>
<path opacity="0.285714" d="M158.02 157.035L69.0933 183.626C63.8074 185.206 58.1265 182.963 55.345 178.195L11.9073 103.747C9.36307 99.3868 9.82968 93.8976 13.0734 90.03L75.3463 15.7791C78.59 11.9115 83.912 10.4985 88.6461 12.2482L169.469 42.1195C174.645 44.0323 177.84 49.24 177.202 54.7227L166.471 146.96C165.918 151.706 162.596 155.667 158.02 157.035Z" stroke="url(#paint3_linear_10669_178733)" stroke-width="1.25868"/>
<path opacity="0.357143" d="M130.404 175.659L38.1629 165.372C32.6808 164.761 28.3293 160.477 27.631 155.003L16.7205 69.4878C16.0815 64.4795 18.6557 59.6085 23.1533 57.3157L109.469 13.314C113.966 11.0212 119.418 11.8007 123.092 15.2617L185.828 74.3575C189.843 78.14 190.75 84.1802 188.022 88.9769L142.122 169.685C139.76 173.839 135.152 176.189 130.404 175.659Z" stroke="url(#paint4_linear_10669_178733)" stroke-width="1.25868"/>
<path opacity="0.428571" d="M97.6991 182.001L16.8091 136.472C12.002 133.767 9.66985 128.123 11.1643 122.813L34.5186 39.8285C35.8863 34.9686 40.1589 31.4911 45.1951 31.1387L141.83 24.378C146.866 24.0257 151.581 26.8744 153.611 31.4965L188.282 110.422C190.501 115.472 188.976 121.385 184.592 124.734L110.822 181.082C107.024 183.984 101.864 184.345 97.6991 182.001Z" stroke="url(#paint5_linear_10669_178733)" stroke-width="1.25868"/>
<path opacity="0.5" d="M65.1299 175.065L8.45049 101.534C5.08201 97.1642 5.1393 91.0572 8.58916 86.7529L62.4947 19.4957C65.6517 15.5568 70.9424 14.0259 75.7155 15.6703L167.31 47.2245C172.083 48.8689 175.31 53.3341 175.374 58.3827L176.465 144.586C176.535 150.103 172.822 154.951 167.479 156.319L77.5671 179.35C72.9385 180.536 68.0478 178.851 65.1299 175.065Z" stroke="url(#paint6_linear_10669_178733)" stroke-width="1.25868"/>
<path opacity="0.571429" d="M37.8641 155.952L14.4067 66.1075C13.0124 60.7673 15.4515 55.1662 20.3098 52.5518L96.1929 11.7163C100.637 9.3246 106.104 9.98301 109.855 13.3617L181.849 78.2176C185.599 81.5963 186.825 86.9674 184.913 91.6397L152.253 171.413C150.162 176.52 144.849 179.533 139.395 178.704L47.6353 164.755C42.9132 164.037 39.0713 160.576 37.8641 155.952Z" stroke="url(#paint7_linear_10669_178733)" stroke-width="1.25868"/>
<path opacity="0.642857" d="M20.2241 127.697L33.7193 35.8233C34.5215 30.3616 38.9564 26.1579 44.4516 25.6504L130.246 17.7261C135.271 17.262 140.046 20.0042 142.178 24.5792L183.123 112.429C185.255 117.004 184.285 122.426 180.7 125.979L119.485 186.64C115.564 190.526 109.495 191.223 104.797 188.327L25.7784 139.614C21.7137 137.109 19.5299 132.423 20.2241 127.697Z" stroke="url(#paint8_linear_10669_178733)" stroke-width="1.25868"/>
<path opacity="0.714286" d="M15.0194 94.7937L63.3222 15.4982C66.1938 10.784 71.9191 8.64802 77.1766 10.3293L159.243 36.5735C164.05 38.1108 167.375 42.5011 167.551 47.5452L170.932 144.42C171.108 149.464 168.098 154.076 163.409 155.945L83.3728 187.853C78.2453 189.897 72.3851 188.165 69.1917 183.663L15.4779 107.932C12.7154 104.037 12.5351 98.8719 15.0194 94.7937Z" stroke="url(#paint9_linear_10669_178733)" stroke-width="1.25868"/>
<path opacity="0.785714" d="M23.089 62.4663L98.5194 8.35758C103.004 5.14092 109.107 5.41265 113.289 9.01515L178.584 65.2559C182.409 68.5503 183.754 73.8915 181.946 78.6039L147.226 169.098C145.418 173.81 140.846 176.879 135.8 176.766L49.6634 174.849C44.1459 174.726 39.4284 170.842 38.2473 165.45L18.3794 74.7413C17.3574 70.0755 19.209 65.2496 23.089 62.4663Z" stroke="url(#paint10_linear_10669_178733)" stroke-width="1.25868"/>
<path opacity="0.857143" d="M43.1362 35.8636L133.7 15.5443C139.083 14.3365 144.594 16.9711 147.036 21.9205L185.177 99.2194C187.411 103.747 186.563 109.19 183.057 112.822L115.76 182.546C112.254 186.178 106.847 187.216 102.246 185.14L23.7016 149.7C18.6725 147.431 15.8485 142.014 16.867 136.589L34.0033 45.3257C34.8851 40.6296 38.476 36.9092 43.1362 35.8636Z" stroke="url(#paint11_linear_10669_178733)" stroke-width="1.25868"/>
<path opacity="0.928571" d="M71.976 19.2134L163.275 35.9129C168.701 36.9053 172.743 41.4824 173.058 46.9909L177.979 133.06C178.268 138.101 175.36 142.78 170.713 144.754L81.541 182.624C76.8943 184.597 71.5099 183.439 68.086 179.73L9.62286 116.399C5.88111 112.346 5.39807 106.258 8.45373 101.663L59.8685 24.3553C62.5152 20.3756 67.2762 18.3537 71.976 19.2134Z" stroke="url(#paint12_linear_10669_178733)" stroke-width="1.25868"/>
<path d="M105.031 15.1646L182.549 66.2272C187.156 69.2618 189.089 75.054 187.228 80.247L158.145 161.4C156.442 166.152 151.937 169.323 146.888 169.323H50.0177C44.9691 169.323 40.4645 166.152 38.7612 161.4L9.67799 80.247C7.81694 75.054 9.74992 69.2618 14.3567 66.2272L91.8754 15.1646C95.8665 12.5356 101.04 12.5356 105.031 15.1646Z" stroke="url(#paint13_linear_10669_178733)" stroke-width="1.25868"/>
<rect x="30.7413" y="30.7413" width="134.517" height="134.517" rx="25.2587" fill="black" stroke="url(#paint14_linear_10669_178733)" stroke-width="2.51736"/>
<defs>
<linearGradient id="paint0_linear_10669_178733" x1="70.7182" y1="48.7722" x2="126.974" y2="150.209" gradientUnits="userSpaceOnUse">
<stop offset="0.166667" stop-color="#876CF5" stop-opacity="0"/>
<stop offset="0.520833" stop-color="#1FDBFA" stop-opacity="0.6"/>
<stop offset="1" stop-color="#876CF5" stop-opacity="0.36"/>
</linearGradient>
<linearGradient id="paint1_linear_10669_178733" x1="92.3282" y1="41.8812" x2="104.46" y2="157.25" gradientUnits="userSpaceOnUse">
<stop offset="0.166667" stop-color="#876CF5" stop-opacity="0"/>
<stop offset="0.520833" stop-color="#1FDBFA" stop-opacity="0.6"/>
<stop offset="1" stop-color="#876CF5" stop-opacity="0.36"/>
</linearGradient>
<linearGradient id="paint2_linear_10669_178733" x1="114.928" y1="43.9863" x2="80.9977" y2="154.913" gradientUnits="userSpaceOnUse">
<stop offset="0.166667" stop-color="#876CF5" stop-opacity="0"/>
<stop offset="0.520833" stop-color="#1FDBFA" stop-opacity="0.6"/>
<stop offset="1" stop-color="#876CF5" stop-opacity="0.36"/>
</linearGradient>
<linearGradient id="paint3_linear_10669_178733" x1="134.891" y1="54.7487" x2="60.3174" y2="143.577" gradientUnits="userSpaceOnUse">
<stop offset="0.166667" stop-color="#876CF5" stop-opacity="0"/>
<stop offset="0.520833" stop-color="#1FDBFA" stop-opacity="0.6"/>
<stop offset="1" stop-color="#876CF5" stop-opacity="0.36"/>
</linearGradient>
<linearGradient id="paint4_linear_10669_178733" x1="149.063" y1="72.462" x2="45.7316" y2="125.086" gradientUnits="userSpaceOnUse">
<stop offset="0.166667" stop-color="#876CF5" stop-opacity="0"/>
<stop offset="0.520833" stop-color="#1FDBFA" stop-opacity="0.6"/>
<stop offset="1" stop-color="#876CF5" stop-opacity="0.36"/>
</linearGradient>
<linearGradient id="paint5_linear_10669_178733" x1="155.179" y1="94.3024" x2="39.5131" y2="102.387" gradientUnits="userSpaceOnUse">
<stop offset="0.166667" stop-color="#876CF5" stop-opacity="0"/>
<stop offset="0.520833" stop-color="#1FDBFA" stop-opacity="0.6"/>
<stop offset="1" stop-color="#876CF5" stop-opacity="0.36"/>
</linearGradient>
<linearGradient id="paint6_linear_10669_178733" x1="152.289" y1="116.808" x2="42.6469" y2="79.0744" gradientUnits="userSpaceOnUse">
<stop offset="0.166667" stop-color="#876CF5" stop-opacity="0"/>
<stop offset="0.520833" stop-color="#1FDBFA" stop-opacity="0.6"/>
<stop offset="1" stop-color="#876CF5" stop-opacity="0.36"/>
</linearGradient>
<linearGradient id="paint7_linear_10669_178733" x1="140.845" y1="136.396" x2="54.6408" y2="58.816" gradientUnits="userSpaceOnUse">
<stop offset="0.166667" stop-color="#876CF5" stop-opacity="0"/>
<stop offset="0.520833" stop-color="#1FDBFA" stop-opacity="0.6"/>
<stop offset="1" stop-color="#876CF5" stop-opacity="0.36"/>
</linearGradient>
<linearGradient id="paint8_linear_10669_178733" x1="122.657" y1="149.95" x2="73.6149" y2="44.8323" gradientUnits="userSpaceOnUse">
<stop offset="0.166667" stop-color="#876CF5" stop-opacity="0"/>
<stop offset="0.520833" stop-color="#1FDBFA" stop-opacity="0.6"/>
<stop offset="1" stop-color="#876CF5" stop-opacity="0.36"/>
</linearGradient>
<linearGradient id="paint9_linear_10669_178733" x1="100.619" y1="155.32" x2="96.5686" y2="39.3851" gradientUnits="userSpaceOnUse">
<stop offset="0.166667" stop-color="#876CF5" stop-opacity="0"/>
<stop offset="0.520833" stop-color="#1FDBFA" stop-opacity="0.6"/>
<stop offset="1" stop-color="#876CF5" stop-opacity="0.36"/>
</linearGradient>
<linearGradient id="paint10_linear_10669_178733" x1="78.2454" y1="151.645" x2="119.833" y2="43.3581" gradientUnits="userSpaceOnUse">
<stop offset="0.166667" stop-color="#876CF5" stop-opacity="0"/>
<stop offset="0.520833" stop-color="#1FDBFA" stop-opacity="0.6"/>
<stop offset="1" stop-color="#876CF5" stop-opacity="0.36"/>
</linearGradient>
<linearGradient id="paint11_linear_10669_178733" x1="59.0773" y1="139.516" x2="139.663" y2="56.1084" gradientUnits="userSpaceOnUse">
<stop offset="0.166667" stop-color="#876CF5" stop-opacity="0"/>
<stop offset="0.520833" stop-color="#1FDBFA" stop-opacity="0.6"/>
<stop offset="1" stop-color="#876CF5" stop-opacity="0.36"/>
</linearGradient>
<linearGradient id="paint12_linear_10669_178733" x1="46.1666" y1="120.857" x2="152.913" y2="75.568" gradientUnits="userSpaceOnUse">
<stop offset="0.166667" stop-color="#876CF5" stop-opacity="0"/>
<stop offset="0.520833" stop-color="#1FDBFA" stop-opacity="0.6"/>
<stop offset="1" stop-color="#876CF5" stop-opacity="0.36"/>
</linearGradient>
<linearGradient id="paint13_linear_10669_178733" x1="41.5765" y1="98.6375" x2="157.524" y2="98.6375" gradientUnits="userSpaceOnUse">
<stop offset="0.166667" stop-color="#876CF5" stop-opacity="0"/>
<stop offset="0.520833" stop-color="#1FDBFA" stop-opacity="0.6"/>
<stop offset="1" stop-color="#876CF5" stop-opacity="0.36"/>
</linearGradient>
<linearGradient id="paint14_linear_10669_178733" x1="51.9049" y1="41.5806" x2="134.834" y2="164.95" gradientUnits="userSpaceOnUse">
<stop stop-color="#A73EE7"/>
<stop offset="1" stop-color="#00EBFF"/>
</linearGradient>
</defs>
</svg>
