<svg viewBox="0 0 20 20" fill="none" xmlns="http://www.w3.org/2000/svg">
<path d="M16.2583 2.5625L2.5625 16.2583C2.6375 16.5458 2.78333 16.8042 2.9875 17.0083L2.99167 17.0125C3.19583 17.2167 3.45417 17.3625 3.74167 17.4375L17.4375 3.74167C17.2833 3.16667 16.8333 2.71667 16.2583 2.5625ZM9.9 2.5L2.5 9.9V12.2583L12.2583 2.5H9.9ZM4.16667 2.5C3.25 2.5 2.5 3.25 2.5 4.16667V5.8375L5.8375 2.5H4.16667ZM15.8333 17.5C16.2917 17.5 16.7083 17.3125 17.0083 17.0125C17.3125 16.7083 17.5 16.2917 17.5 15.8333V14.1625L14.1625 17.5H15.8333ZM7.74167 17.5H10.1L17.5 10.1V7.74167L7.74167 17.5Z" fill="#777777"/>
</svg>
