<svg viewBox="0 0 20 20" fill="none" xmlns="http://www.w3.org/2000/svg">
<path d="M13 15H14V7C14 4.79086 12.2091 3 10 3C7.79086 3 6 4.79086 6 7V15H7V7C7 5.34315 8.34315 4 10 4C11.6569 4 13 5.34315 13 7V15Z" fill="#777777"/>
<path d="M7 16H6V17H7V16Z" fill="#777777"/>
<path d="M13 16H14V17H13V16Z" fill="#777777"/>
<path d="M12 14V13H8V14H12Z" fill="#777777"/>
<path d="M12 11V12H8V11H12Z" fill="#777777"/>
<path fill-rule="evenodd" clip-rule="evenodd" d="M8 7C8 5.89543 8.89543 5 10 5C11.1046 5 12 5.89543 12 7V10H8V7ZM11 7V9H9V7C9 6.44772 9.44772 6 10 6C10.5523 6 11 6.44772 11 7Z" fill="#777777"/>
</svg>
