<svg width="20" height="20" viewBox="0 0 20 20" fill="none" xmlns="http://www.w3.org/2000/svg">
<path fill-rule="evenodd" clip-rule="evenodd" d="M14.4546 5.97024L14.0303 5.54597L10.0001 9.57624L5.96973 5.5459L5.54546 5.97016L9.57581 10.0005L5.54507 14.0313L5.96933 14.4555L10.0001 10.4248L14.0307 14.4554L14.455 14.0312L10.4243 10.0005L14.4546 5.97024Z" fill="white"/>
<path d="M14.0303 5.54597L14.3839 5.19242L14.0303 4.83886L13.6768 5.19242L14.0303 5.54597ZM14.4546 5.97024L14.8082 6.32379L15.1617 5.97024L14.8082 5.61668L14.4546 5.97024ZM10.0001 9.57624L9.64652 9.9298L10.0001 10.2834L10.3536 9.9298L10.0001 9.57624ZM5.96973 5.5459L6.32328 5.19234L5.96973 4.83879L5.61617 5.19234L5.96973 5.5459ZM5.54546 5.97016L5.19191 5.61661L4.83836 5.97016L5.19191 6.32372L5.54546 5.97016ZM9.57581 10.0005L9.92936 10.3541L10.2829 10.0005L9.92936 9.64695L9.57581 10.0005ZM5.54507 14.0313L5.19151 13.6777L4.83796 14.0313L5.19151 14.3848L5.54507 14.0313ZM5.96933 14.4555L5.61578 14.8091L5.96933 15.1626L6.32288 14.8091L5.96933 14.4555ZM10.0001 10.4248L10.3536 10.0712L10.0001 9.71767L9.64652 10.0712L10.0001 10.4248ZM14.0307 14.4554L13.6772 14.809L14.0307 15.1626L14.3843 14.809L14.0307 14.4554ZM14.455 14.0312L14.8086 14.3847L15.1621 14.0312L14.8086 13.6776L14.455 14.0312ZM10.4243 10.0005L10.0708 9.64695L9.71723 10.0005L10.0708 10.3541L10.4243 10.0005ZM13.6768 5.89952L14.1011 6.32379L14.8082 5.61668L14.3839 5.19242L13.6768 5.89952ZM10.3536 9.9298L14.3839 5.89952L13.6768 5.19242L9.64652 9.22269L10.3536 9.9298ZM5.61617 5.89945L9.64652 9.9298L10.3536 9.22269L6.32328 5.19234L5.61617 5.89945ZM5.89902 6.32372L6.32328 5.89945L5.61617 5.19234L5.19191 5.61661L5.89902 6.32372ZM9.92936 9.64695L5.89902 5.61661L5.19191 6.32372L9.22226 10.3541L9.92936 9.64695ZM5.89862 14.3848L9.92936 10.3541L9.22226 9.64695L5.19151 13.6777L5.89862 14.3848ZM6.32288 14.102L5.89862 13.6777L5.19151 14.3848L5.61578 14.8091L6.32288 14.102ZM9.64652 10.0712L5.61578 14.102L6.32288 14.8091L10.3536 10.7783L9.64652 10.0712ZM14.3843 14.1019L10.3536 10.0712L9.64652 10.7783L13.6772 14.809L14.3843 14.1019ZM14.1015 13.6776L13.6772 14.1019L14.3843 14.809L14.8086 14.3847L14.1015 13.6776ZM10.0708 10.3541L14.1015 14.3847L14.8086 13.6776L10.7779 9.64695L10.0708 10.3541ZM14.1011 5.61668L10.0708 9.64695L10.7779 10.3541L14.8082 6.32379L14.1011 5.61668Z" fill="white"/>
</svg>
