<svg width="16" height="16" viewBox="0 0 16 16" fill="none" xmlns="http://www.w3.org/2000/svg">
<path d="M3.25444 9.77404C2.41815 8.93775 2 8.51961 2 8C2 7.48039 2.41815 7.06225 3.25444 6.22596L6.22596 3.25444C7.06225 2.41815 7.48039 2 8 2C8.51961 2 8.93775 2.41815 9.77404 3.25444L12.7456 6.22596C13.5819 7.06225 14 7.48039 14 8C14 8.51961 13.5819 8.93775 12.7456 9.77404L9.77404 12.7456C8.93775 13.5819 8.51961 14 8 14C7.48039 14 7.06225 13.5819 6.22596 12.7456L3.25444 9.77404Z" fill="white"/>
</svg>
