<svg width="18" height="18" viewBox="0 0 20 20" fill="none" xmlns="http://www.w3.org/2000/svg">
<path d="M13 17.5201V15.3676C13.0281 15.01 12.9798 14.6504 12.8583 14.3129C12.7367 13.9754 12.5447 13.6677 12.295 13.4101C14.65 13.1476 17.125 12.2551 17.125 8.16009C17.1248 7.11296 16.722 6.10599 16 5.34759C16.3419 4.43147 16.3177 3.41886 15.9325 2.52009C15.9325 2.52009 15.0475 2.25759 13 3.63009C11.281 3.16421 9.46899 3.16421 7.75 3.63009C5.7025 2.25759 4.8175 2.52009 4.8175 2.52009C4.43228 3.41886 4.40811 4.43147 4.75 5.34759C4.0226 6.11162 3.61939 7.12769 3.625 8.18259C3.625 12.2476 6.1 13.1401 8.455 13.4326C8.20825 13.6876 8.01795 13.9916 7.89648 14.325C7.77502 14.6584 7.72511 15.0136 7.75 15.3676V17.5201M7.75 16.0201C5.5 16.7498 3.625 16.0201 2.5 13.7701" stroke="black"/>
</svg>
