<svg width="24" height="24" viewBox="0 0 24 24" fill="none" xmlns="http://www.w3.org/2000/svg">
<path d="M21 9.21075C21.0031 10.5785 20.4695 11.8943 19.5114 12.8819C17.3144 15.1317 15.1832 17.4775 12.9053 19.6447C12.3824 20.1336 11.5535 20.1158 11.054 19.6047L4.48839 12.8828C2.50387 10.8508 2.50387 7.57072 4.48839 5.53958C4.95743 5.05335 5.52155 4.66625 6.14656 4.40176C6.77158 4.13727 7.44446 4.00089 8.12443 4.00089C8.8044 4.00089 9.47729 4.13727 10.1023 4.40176C10.7273 4.66625 11.2914 5.05335 11.7605 5.53958L11.9999 5.78314L12.2384 5.53958C12.7084 5.0545 13.2727 4.66811 13.8974 4.40356C14.5222 4.13902 15.1946 4.00175 15.8744 4C17.2424 4 18.5502 4.55467 19.5105 5.53958C20.469 6.52701 21.0028 7.84282 21 9.21075V9.21075Z" stroke="white" stroke-width="1.5" stroke-linecap="round" stroke-linejoin="round"/>
</svg>
