
<svg width="72" height="72" viewBox="0 0 72 72" fill="none" xmlns="http://www.w3.org/2000/svg">
<rect x="0.5" y="0.5" width="71" height="71" rx="35.5" fill="black"/>
<path d="M31.906 28.537C31.8149 28.483 31.7111 28.4541 31.6052 28.4531C31.4993 28.4522 31.3951 28.4793 31.3031 28.5318C31.211 28.5842 31.1345 28.66 31.0813 28.7516C31.0281 28.8431 31 28.9471 31 29.053V42.947C31 43.0529 31.0281 43.1569 31.0813 43.2485C31.1345 43.34 31.211 43.4159 31.3031 43.4683C31.3951 43.5207 31.4993 43.5478 31.6052 43.5469C31.7111 43.546 31.8149 43.517 31.906 43.463L43.629 36.516C43.7185 36.4629 43.7927 36.3874 43.8442 36.2969C43.8957 36.2064 43.9228 36.1041 43.9228 36C43.9228 35.8959 43.8957 35.7936 43.8442 35.7031C43.7927 35.6127 43.7185 35.5371 43.629 35.484L31.906 28.537Z" fill="white"/>
<rect x="0.5" y="0.5" width="71" height="71" rx="35.5" stroke="#333333"/>
</svg>
