<svg width="16" height="16" viewBox="0 0 16 16" fill="none" xmlns="http://www.w3.org/2000/svg">
<g clip-path="url(#clip0_9746_164396)">
<path d="M7.3507 2.78849C7.51074 2.10118 8.48926 2.10118 8.6493 2.78849L9.27976 5.49607C9.35491 5.81883 9.65573 6.03738 9.98591 6.00912L12.7558 5.77204C13.4589 5.71185 13.7613 6.64248 13.1571 7.00707L10.7768 8.44337C10.4931 8.61458 10.3782 8.96821 10.5071 9.2735L11.5885 11.8346C11.8631 12.4847 11.0714 13.0598 10.538 12.5978L8.43643 10.7779C8.18591 10.561 7.81409 10.561 7.56357 10.7779L5.46204 12.5978C4.92858 13.0598 4.13694 12.4847 4.41146 11.8346L5.49288 9.2735C5.62179 8.96821 5.50689 8.61458 5.22316 8.44337L2.84291 7.00707C2.2387 6.64248 2.54108 5.71185 3.2442 5.77204L6.01409 6.00912C6.34427 6.03738 6.64509 5.81883 6.72024 5.49607L7.3507 2.78849Z" fill="white"/>
</g>
<defs>
<clipPath id="clip0_9746_164396">
<rect width="16" height="16" fill="white"/>
</clipPath>
</defs>
</svg>
