<svg width="900" height="80" viewBox="0 0 900 80" fill="none" xmlns="http://www.w3.org/2000/svg">
<g clip-path="url(#clip0_15461_285134)">
<mask id="path-1-inside-1_15461_285134" fill="white">
<path fill-rule="evenodd" clip-rule="evenodd" d="M0 68V12.1417L12.1417 0H888C894.627 0 900 5.37258 900 12V67.8579L887.858 80H12C5.37257 80 0 74.6274 0 68Z"/>
</mask>
<path fill-rule="evenodd" clip-rule="evenodd" d="M0 68V12.1417L12.1417 0H888C894.627 0 900 5.37258 900 12V67.8579L887.858 80H12C5.37257 80 0 74.6274 0 68Z" fill="black"/>
<path d="M0 12.1417L-0.353553 11.7881L-0.5 11.9346V12.1417H0ZM12.1417 0V-0.5H11.9346L11.7881 -0.353553L12.1417 0ZM900 67.8579L900.354 68.2115L900.5 68.065V67.8579H900ZM887.858 80V80.5H888.065L888.211 80.3536L887.858 80ZM-0.5 12.1417V14.9346H0.5V12.1417H-0.5ZM-0.5 20.5204V26.1063H0.5V20.5204H-0.5ZM-0.5 31.6921V37.2779H0.5V31.6921H-0.5ZM-0.5 42.8638V48.4496H0.5V42.8638H-0.5ZM-0.5 54.0354V59.6213H0.5V54.0354H-0.5ZM-0.5 65.2071V68H0.5V65.2071H-0.5ZM-0.5 68C-0.5 68.8342 -0.418219 69.6497 -0.262086 70.439L0.718902 70.2449C0.575345 69.5193 0.5 68.7687 0.5 68H-0.5ZM1.60573 74.9455C2.51818 76.3085 3.69152 77.4818 5.05445 78.3943L5.61077 77.5633C4.35646 76.7236 3.27643 75.6435 2.4367 74.3892L1.60573 74.9455ZM9.56101 80.2621C10.3502 80.4182 11.1658 80.5 12 80.5V79.5C11.2313 79.5 10.4807 79.4247 9.75508 79.2811L9.56101 80.2621ZM12 80.5H14.9995V79.5H12V80.5ZM20.9985 80.5H26.9976V79.5H20.9985V80.5ZM32.9966 80.5H38.9956V79.5H32.9966V80.5ZM44.9946 80.5H50.9937V79.5H44.9946V80.5ZM56.9927 80.5H62.9917V79.5H56.9927V80.5ZM68.9907 80.5H74.9898V79.5H68.9907V80.5ZM80.9888 80.5H86.9878V79.5H80.9888V80.5ZM92.9868 80.5H98.9859V79.5H92.9868V80.5ZM104.985 80.5H110.984V79.5H104.985V80.5ZM116.983 80.5H122.982V79.5H116.983V80.5ZM128.981 80.5H134.98V79.5H128.981V80.5ZM140.979 80.5H146.978V79.5H140.979V80.5ZM152.977 80.5H158.976V79.5H152.977V80.5ZM164.975 80.5H170.974V79.5H164.975V80.5ZM176.973 80.5H182.972V79.5H176.973V80.5ZM188.971 80.5H194.97V79.5H188.971V80.5ZM200.969 80.5H206.968V79.5H200.969V80.5ZM212.967 80.5H218.966V79.5H212.967V80.5ZM224.965 80.5H230.964V79.5H224.965V80.5ZM236.963 80.5H242.962V79.5H236.963V80.5ZM248.961 80.5H254.96V79.5H248.961V80.5ZM260.96 80.5H266.959V79.5H260.96V80.5ZM272.958 80.5H278.957V79.5H272.958V80.5ZM284.956 80.5H290.955V79.5H284.956V80.5ZM296.954 80.5H302.953V79.5H296.954V80.5ZM308.952 80.5H314.951V79.5H308.952V80.5ZM320.95 80.5H326.949V79.5H320.95V80.5ZM332.948 80.5H338.947V79.5H332.948V80.5ZM344.946 80.5H350.945V79.5H344.946V80.5ZM356.944 80.5H362.943V79.5H356.944V80.5ZM368.942 80.5H374.941V79.5H368.942V80.5ZM380.94 80.5H386.939V79.5H380.94V80.5ZM392.938 80.5H398.937V79.5H392.938V80.5ZM404.936 80.5H410.935V79.5H404.936V80.5ZM416.934 80.5H422.933V79.5H416.934V80.5ZM428.932 80.5H434.931V79.5H428.932V80.5ZM440.93 80.5H446.929V79.5H440.93V80.5ZM452.928 80.5H458.927V79.5H452.928V80.5ZM464.926 80.5H470.925V79.5H464.926V80.5ZM476.924 80.5H482.923V79.5H476.924V80.5ZM488.922 80.5H494.921V79.5H488.922V80.5ZM500.92 80.5H506.919V79.5H500.92V80.5ZM512.918 80.5H518.918V79.5H512.918V80.5ZM524.917 80.5H530.916V79.5H524.917V80.5ZM536.915 80.5H542.914V79.5H536.915V80.5ZM548.913 80.5H554.912V79.5H548.913V80.5ZM560.911 80.5H566.91V79.5H560.911V80.5ZM572.909 80.5H578.908V79.5H572.909V80.5ZM584.907 80.5H590.906V79.5H584.907V80.5ZM596.905 80.5H602.904V79.5H596.905V80.5ZM608.903 80.5H614.902V79.5H608.903V80.5ZM620.901 80.5H626.9V79.5H620.901V80.5ZM632.899 80.5H638.898V79.5H632.899V80.5ZM644.897 80.5H650.896V79.5H644.897V80.5ZM656.895 80.5H662.894V79.5H656.895V80.5ZM668.893 80.5H674.892V79.5H668.893V80.5ZM680.891 80.5H686.89V79.5H680.891V80.5ZM692.889 80.5H698.888V79.5H692.889V80.5ZM704.887 80.5H710.886V79.5H704.887V80.5ZM716.885 80.5H722.884V79.5H716.885V80.5ZM728.883 80.5H734.882V79.5H728.883V80.5ZM740.881 80.5H746.88V79.5H740.881V80.5ZM752.879 80.5H758.878V79.5H752.879V80.5ZM764.877 80.5H770.877V79.5H764.877V80.5ZM776.876 80.5H782.875V79.5H776.876V80.5ZM788.874 80.5H794.873V79.5H788.874V80.5ZM800.872 80.5H806.871V79.5H800.872V80.5ZM812.87 80.5H818.869V79.5H812.87V80.5ZM824.868 80.5H830.867V79.5H824.868V80.5ZM836.866 80.5H842.865V79.5H836.866V80.5ZM848.864 80.5H854.863V79.5H848.864V80.5ZM860.862 80.5H866.861V79.5H860.862V80.5ZM872.86 80.5H878.859V79.5H872.86V80.5ZM884.858 80.5H887.858V79.5H884.858V80.5ZM888.211 80.3536L891.247 77.318L890.54 76.6109L887.504 79.6464L888.211 80.3536ZM897.318 71.247L900.354 68.2115L899.646 67.5044L896.611 70.5399L897.318 71.247ZM900.5 67.8579V65.065H899.5V67.8579H900.5ZM900.5 59.4792V53.8934H899.5V59.4792H900.5ZM900.5 48.3076V42.7219H899.5V48.3076H900.5ZM900.5 37.1361V31.5503H899.5V37.1361H900.5ZM900.5 25.9645V20.3787H899.5V25.9645H900.5ZM900.5 14.7929V12H899.5V14.7929H900.5ZM900.5 12C900.5 11.1658 900.418 10.3503 900.262 9.56102L899.281 9.75509C899.425 10.4807 899.5 11.2313 899.5 12H900.5ZM898.394 5.05445C897.482 3.69152 896.308 2.51818 894.946 1.60573L894.389 2.43669C895.644 3.27643 896.724 4.35646 897.563 5.61077L898.394 5.05445ZM890.439 -0.262087C889.65 -0.418219 888.834 -0.5 888 -0.5V0.5C888.769 0.5 889.519 0.575345 890.245 0.718901L890.439 -0.262087ZM888 -0.5H885V0.5H888V-0.5ZM879.001 -0.5H873.002V0.5H879.001V-0.5ZM867.003 -0.5H861.004V0.5H867.003V-0.5ZM855.005 -0.5H849.006V0.5H855.005V-0.5ZM843.007 -0.5H837.008V0.5H843.007V-0.5ZM831.009 -0.5H825.01V0.5H831.009V-0.5ZM819.011 -0.5H813.012V0.5H819.011V-0.5ZM807.013 -0.5H801.014V0.5H807.013V-0.5ZM795.015 -0.5H789.016V0.5H795.015V-0.5ZM783.017 -0.5H777.018V0.5H783.017V-0.5ZM771.019 -0.5H765.02V0.5H771.019V-0.5ZM759.021 -0.5H753.022V0.5H759.021V-0.5ZM747.023 -0.5H741.024V0.5H747.023V-0.5ZM735.025 -0.5H729.026V0.5H735.025V-0.5ZM723.027 -0.5H717.028V0.5H723.027V-0.5ZM711.029 -0.5H705.03V0.5H711.029V-0.5ZM699.031 -0.5H693.032V0.5H699.031V-0.5ZM687.033 -0.5H681.034V0.5H687.033V-0.5ZM675.035 -0.5H669.035V0.5H675.035V-0.5ZM663.036 -0.5H657.037V0.5H663.036V-0.5ZM651.038 -0.5H645.039V0.5H651.038V-0.5ZM639.04 -0.5H633.041V0.5H639.04V-0.5ZM627.042 -0.5H621.043V0.5H627.042V-0.5ZM615.044 -0.5H609.045V0.5H615.044V-0.5ZM603.046 -0.5H597.047V0.5H603.046V-0.5ZM591.048 -0.5H585.049V0.5H591.048V-0.5ZM579.05 -0.5H573.051V0.5H579.05V-0.5ZM567.052 -0.5H561.053V0.5H567.052V-0.5ZM555.054 -0.5H549.055V0.5H555.054V-0.5ZM543.056 -0.5H537.057V0.5H543.056V-0.5ZM531.058 -0.5H525.059V0.5H531.058V-0.5ZM519.06 -0.5H513.061V0.5H519.06V-0.5ZM507.062 -0.5H501.063V0.5H507.062V-0.5ZM495.064 -0.5H489.065V0.5H495.064V-0.5ZM483.066 -0.5H477.067V0.5H483.066V-0.5ZM471.068 -0.5H465.069V0.5H471.068V-0.5ZM459.07 -0.5H453.071V0.5H459.07V-0.5ZM447.072 -0.5H441.073V0.5H447.072V-0.5ZM435.074 -0.5H429.075V0.5H435.074V-0.5ZM423.076 -0.5H417.076V0.5H423.076V-0.5ZM411.077 -0.5H405.078V0.5H411.077V-0.5ZM399.079 -0.5H393.08V0.5H399.079V-0.5ZM387.081 -0.5H381.082V0.5H387.081V-0.5ZM375.083 -0.5H369.084V0.5H375.083V-0.5ZM363.085 -0.5H357.086V0.5H363.085V-0.5ZM351.087 -0.5H345.088V0.5H351.087V-0.5ZM339.089 -0.5H333.09V0.5H339.089V-0.5ZM327.091 -0.5H321.092V0.5H327.091V-0.5ZM315.093 -0.5H309.094V0.5H315.093V-0.5ZM303.095 -0.5H297.096V0.5H303.095V-0.5ZM291.097 -0.5H285.098V0.5H291.097V-0.5ZM279.099 -0.5H273.1V0.5H279.099V-0.5ZM267.101 -0.5H261.102V0.5H267.101V-0.5ZM255.103 -0.5H249.104V0.5H255.103V-0.5ZM243.105 -0.5H237.106V0.5H243.105V-0.5ZM231.107 -0.5H225.108V0.5H231.107V-0.5ZM219.109 -0.5H213.11V0.5H219.109V-0.5ZM207.111 -0.5H201.112V0.5H207.111V-0.5ZM195.113 -0.5H189.114V0.5H195.113V-0.5ZM183.115 -0.5H177.116V0.5H183.115V-0.5ZM171.117 -0.5H165.117V0.5H171.117V-0.5ZM159.118 -0.5H153.119V0.5H159.118V-0.5ZM147.12 -0.5H141.121V0.5H147.12V-0.5ZM135.122 -0.5H129.123V0.5H135.122V-0.5ZM123.124 -0.5H117.125V0.5H123.124V-0.5ZM111.126 -0.5H105.127V0.5H111.126V-0.5ZM99.1282 -0.5H93.1292V0.5H99.1282V-0.5ZM87.1302 -0.5H81.1312V0.5H87.1302V-0.5ZM75.1321 -0.5H69.1331V0.5H75.1321V-0.5ZM63.1341 -0.5H57.135V0.5H63.1341V-0.5ZM51.136 -0.5H45.137V0.5H51.136V-0.5ZM39.138 -0.5H33.1389V0.5H39.138V-0.5ZM27.1399 -0.5H21.1409V0.5H27.1399V-0.5ZM15.1419 -0.5H12.1417V0.5H15.1419V-0.5ZM11.7881 -0.353553L8.75272 2.68187L9.45982 3.38898L12.4952 0.353553L11.7881 -0.353553ZM2.68187 8.75272L-0.353553 11.7881L0.353553 12.4952L3.38898 9.45982L2.68187 8.75272ZM0 12.1417L-0.707107 11.4346L-1 11.7275V12.1417H0ZM12.1417 0V-1H11.7275L11.4346 -0.707107L12.1417 0ZM900 67.8579L900.707 68.565L901 68.2721V67.8579H900ZM887.858 80V81H888.272L888.565 80.7071L887.858 80ZM-1 12.1417V14.9346H1V12.1417H-1ZM-1 20.5204V26.1063H1V20.5204H-1ZM-1 31.6921V37.2779H1V31.6921H-1ZM-1 42.8638V48.4496H1V42.8638H-1ZM-1 54.0354V59.6213H1V54.0354H-1ZM-1 65.2071V68H1V65.2071H-1ZM-1 68C-1 68.8669 -0.915001 69.715 -0.75258 70.536L1.2094 70.1479C1.07213 69.454 1 68.7359 1 68H-1ZM1.19024 75.2237C2.13906 76.6409 3.35905 77.8609 4.77629 78.8098L5.88893 77.1478C4.68893 76.3444 3.65556 75.3111 2.85218 74.1111L1.19024 75.2237ZM9.46398 80.7526C10.285 80.915 11.1331 81 12 81V79C11.2641 79 10.546 78.9279 9.85212 78.7906L9.46398 80.7526ZM12 81H14.9995V79H12V81ZM20.9985 81H26.9976V79H20.9985V81ZM32.9966 81H38.9956V79H32.9966V81ZM44.9946 81H50.9937V79H44.9946V81ZM56.9927 81H62.9917V79H56.9927V81ZM68.9907 81H74.9898V79H68.9907V81ZM80.9888 81H86.9878V79H80.9888V81ZM92.9868 81H98.9859V79H92.9868V81ZM104.985 81H110.984V79H104.985V81ZM116.983 81H122.982V79H116.983V81ZM128.981 81H134.98V79H128.981V81ZM140.979 81H146.978V79H140.979V81ZM152.977 81H158.976V79H152.977V81ZM164.975 81H170.974V79H164.975V81ZM176.973 81H182.972V79H176.973V81ZM188.971 81H194.97V79H188.971V81ZM200.969 81H206.968V79H200.969V81ZM212.967 81H218.966V79H212.967V81ZM224.965 81H230.964V79H224.965V81ZM236.963 81H242.962V79H236.963V81ZM248.961 81H254.96V79H248.961V81ZM260.96 81H266.959V79H260.96V81ZM272.958 81H278.957V79H272.958V81ZM284.956 81H290.955V79H284.956V81ZM296.954 81H302.953V79H296.954V81ZM308.952 81H314.951V79H308.952V81ZM320.95 81H326.949V79H320.95V81ZM332.948 81H338.947V79H332.948V81ZM344.946 81H350.945V79H344.946V81ZM356.944 81H362.943V79H356.944V81ZM368.942 81H374.941V79H368.942V81ZM380.94 81H386.939V79H380.94V81ZM392.938 81H398.937V79H392.938V81ZM404.936 81H410.935V79H404.936V81ZM416.934 81H422.933V79H416.934V81ZM428.932 81H434.931V79H428.932V81ZM440.93 81H446.929V79H440.93V81ZM452.928 81H458.927V79H452.928V81ZM464.926 81H470.925V79H464.926V81ZM476.924 81H482.923V79H476.924V81ZM488.922 81H494.921V79H488.922V81ZM500.92 81H506.919V79H500.92V81ZM512.918 81H518.918V79H512.918V81ZM524.917 81H530.916V79H524.917V81ZM536.915 81H542.914V79H536.915V81ZM548.913 81H554.912V79H548.913V81ZM560.911 81H566.91V79H560.911V81ZM572.909 81H578.908V79H572.909V81ZM584.907 81H590.906V79H584.907V81ZM596.905 81H602.904V79H596.905V81ZM608.903 81H614.902V79H608.903V81ZM620.901 81H626.9V79H620.901V81ZM632.899 81H638.898V79H632.899V81ZM644.897 81H650.896V79H644.897V81ZM656.895 81H662.894V79H656.895V81ZM668.893 81H674.892V79H668.893V81ZM680.891 81H686.89V79H680.891V81ZM692.889 81H698.888V79H692.889V81ZM704.887 81H710.886V79H704.887V81ZM716.885 81H722.884V79H716.885V81ZM728.883 81H734.882V79H728.883V81ZM740.881 81H746.88V79H740.881V81ZM752.879 81H758.878V79H752.879V81ZM764.877 81H770.877V79H764.877V81ZM776.876 81H782.875V79H776.876V81ZM788.874 81H794.873V79H788.874V81ZM800.872 81H806.871V79H800.872V81ZM812.87 81H818.869V79H812.87V81ZM824.868 81H830.867V79H824.868V81ZM836.866 81H842.865V79H836.866V81ZM848.864 81H854.863V79H848.864V81ZM860.862 81H866.861V79H860.862V81ZM872.86 81H878.859V79H872.86V81ZM884.858 81H887.858V79H884.858V81ZM888.565 80.7071L891.601 77.6716L890.186 76.2574L887.151 79.2929L888.565 80.7071ZM897.672 71.6005L900.707 68.565L899.293 67.1508L896.257 70.1863L897.672 71.6005ZM901 67.8579V65.065H899V67.8579H901ZM901 59.4792V53.8934H899V59.4792H901ZM901 48.3076V42.7219H899V48.3076H901ZM901 37.1361V31.5503H899V37.1361H901ZM901 25.9645V20.3787H899V25.9645H901ZM901 14.7929V12H899V14.7929H901ZM901 12C901 11.1331 900.915 10.285 900.753 9.46399L898.791 9.85212C898.928 10.546 899 11.2641 899 12H901ZM898.81 4.77629C897.861 3.35905 896.641 2.13906 895.224 1.19024L894.111 2.85218C895.311 3.65556 896.344 4.68893 897.148 5.88893L898.81 4.77629ZM890.536 -0.752581C889.715 -0.915001 888.867 -1 888 -1V1C888.736 1 889.454 1.07213 890.148 1.2094L890.536 -0.752581ZM888 -1H885V1H888V-1ZM879.001 -1H873.002V1H879.001V-1ZM867.003 -1H861.004V1H867.003V-1ZM855.005 -1H849.006V1H855.005V-1ZM843.007 -1H837.008V1H843.007V-1ZM831.009 -1H825.01V1H831.009V-1ZM819.011 -1H813.012V1H819.011V-1ZM807.013 -1H801.014V1H807.013V-1ZM795.015 -1H789.016V1H795.015V-1ZM783.017 -1H777.018V1H783.017V-1ZM771.019 -1H765.02V1H771.019V-1ZM759.021 -1H753.022V1H759.021V-1ZM747.023 -1H741.024V1H747.023V-1ZM735.025 -1H729.026V1H735.025V-1ZM723.027 -1H717.028V1H723.027V-1ZM711.029 -1H705.03V1H711.029V-1ZM699.031 -1H693.032V1H699.031V-1ZM687.033 -1H681.034V1H687.033V-1ZM675.035 -1H669.035V1H675.035V-1ZM663.036 -1H657.037V1H663.036V-1ZM651.038 -1H645.039V1H651.038V-1ZM639.04 -1H633.041V1H639.04V-1ZM627.042 -1H621.043V1H627.042V-1ZM615.044 -1H609.045V1H615.044V-1ZM603.046 -1H597.047V1H603.046V-1ZM591.048 -1H585.049V1H591.048V-1ZM579.05 -1H573.051V1H579.05V-1ZM567.052 -1H561.053V1H567.052V-1ZM555.054 -1H549.055V1H555.054V-1ZM543.056 -1H537.057V1H543.056V-1ZM531.058 -1H525.059V1H531.058V-1ZM519.06 -1H513.061V1H519.06V-1ZM507.062 -1H501.063V1H507.062V-1ZM495.064 -1H489.065V1H495.064V-1ZM483.066 -1H477.067V1H483.066V-1ZM471.068 -1H465.069V1H471.068V-1ZM459.07 -1H453.071V1H459.07V-1ZM447.072 -1H441.073V1H447.072V-1ZM435.074 -1H429.075V1H435.074V-1ZM423.076 -1H417.076V1H423.076V-1ZM411.077 -1H405.078V1H411.077V-1ZM399.079 -1H393.08V1H399.079V-1ZM387.081 -1H381.082V1H387.081V-1ZM375.083 -1H369.084V1H375.083V-1ZM363.085 -1H357.086V1H363.085V-1ZM351.087 -1H345.088V1H351.087V-1ZM339.089 -1H333.09V1H339.089V-1ZM327.091 -1H321.092V1H327.091V-1ZM315.093 -1H309.094V1H315.093V-1ZM303.095 -1H297.096V1H303.095V-1ZM291.097 -1H285.098V1H291.097V-1ZM279.099 -1H273.1V1H279.099V-1ZM267.101 -1H261.102V1H267.101V-1ZM255.103 -1H249.104V1H255.103V-1ZM243.105 -1H237.106V1H243.105V-1ZM231.107 -1H225.108V1H231.107V-1ZM219.109 -1H213.11V1H219.109V-1ZM207.111 -1H201.112V1H207.111V-1ZM195.113 -1H189.114V1H195.113V-1ZM183.115 -1H177.116V1H183.115V-1ZM171.117 -1H165.117V1H171.117V-1ZM159.118 -1H153.119V1H159.118V-1ZM147.12 -1H141.121V1H147.12V-1ZM135.122 -1H129.123V1H135.122V-1ZM123.124 -1H117.125V1H123.124V-1ZM111.126 -1H105.127V1H111.126V-1ZM99.1282 -1H93.1292V1H99.1282V-1ZM87.1302 -1H81.1312V1H87.1302V-1ZM75.1321 -1H69.1331V1H75.1321V-1ZM63.1341 -1H57.135V1H63.1341V-1ZM51.136 -1H45.137V1H51.136V-1ZM39.138 -1H33.1389V1H39.138V-1ZM27.1399 -1H21.1409V1H27.1399V-1ZM15.1419 -1H12.1417V1H15.1419V-1ZM11.4346 -0.707107L8.39916 2.32832L9.81338 3.74253L12.8488 0.707107L11.4346 -0.707107ZM2.32832 8.39916L-0.707107 11.4346L0.707107 12.8488L3.74253 9.81338L2.32832 8.39916Z" fill="url(#paint0_linear_15461_285134)" mask="url(#path-1-inside-1_15461_285134)"/>
</g>
<defs>
<linearGradient id="paint0_linear_15461_285134" x1="0" y1="40" x2="900" y2="40" gradientUnits="userSpaceOnUse">
<stop stop-color="#5433FF"/>
<stop offset="0.5" stop-color="#20BDFF"/>
<stop offset="1" stop-color="#A5FECB"/>
</linearGradient>
<clipPath id="clip0_15461_285134">
<rect width="900" height="80" fill="white"/>
</clipPath>
</defs>
</svg>
