<svg width="40" height="40" viewBox="0 0 40 40" fill="none" xmlns="http://www.w3.org/2000/svg">
<path d="M30.832 28.1664C29.6654 28.4998 28.332 28.6664 26.9987 28.6664H12.9987C11.6654 28.6664 10.332 28.4998 9.16537 28.1664C8.4987 27.9998 7.9987 27.8331 7.4987 27.4998C6.83203 27.1664 6.33203 26.9998 5.83203 26.4998V30.8331C5.83203 33.9998 8.4987 36.6664 11.6654 36.6664H28.332C31.4987 36.6664 34.1654 33.9998 34.1654 30.8331V26.4998C33.6654 26.8331 32.9987 27.1664 32.4987 27.4998C31.9987 27.6664 31.332 27.9998 30.832 28.1664Z" fill="#555555"/>
<path fill-rule="evenodd" clip-rule="evenodd" d="M8.83203 3.33325H31.1654C34.1654 3.33325 36.6654 5.83325 36.4987 8.83325V15.6666C36.4987 18.3333 35.332 20.8333 33.4987 22.6666C32.9987 23.1666 32.4987 23.6666 31.832 23.9999C30.332 24.8333 28.6654 25.3333 26.832 25.3333H12.9987C11.1654 25.3333 9.4987 24.8333 7.9987 23.9999C7.85956 23.8956 7.72767 23.7985 7.60153 23.7056C7.12332 23.3535 6.72767 23.0622 6.33203 22.6666C4.4987 20.9999 3.33203 18.4999 3.33203 15.6666V8.83325C3.33203 5.83325 5.83203 3.33325 8.83203 3.33325ZM15.832 20.1667H24.1653C25.1653 20.1667 25.832 19.5001 25.832 18.5001C25.832 17.5001 25.1653 16.8334 24.1653 16.8334H15.832C14.9986 16.8334 14.1653 17.5001 14.1653 18.5001C14.1653 19.5001 14.832 20.1667 15.832 20.1667Z" fill="#555555"/>
</svg>
