<svg width="16" height="16" viewBox="0 0 16 16" fill="none" xmlns="http://www.w3.org/2000/svg">
<g clip-path="url(#clip0_12463_206137)">
<path d="M5.86615 6.53356H10.0662C10.4662 6.53356 10.7328 6.26689 10.7328 5.86689C10.7328 4.33356 9.46618 3.06689 7.93284 3.06689C6.39948 3.06689 5.13281 4.33356 5.13281 5.86689C5.19948 6.20023 5.53281 6.53356 5.86615 6.53356Z" fill="#color"/>
<path d="M14.6651 10.3335C14.2651 10.3335 13.9984 10.6002 13.9984 11.0002V12.2002C13.9984 13.2002 13.1984 13.9335 12.2651 13.9335H11.0651C10.6651 13.9335 10.3984 14.2002 10.3984 14.6002C10.3984 15.0002 10.6651 15.2668 11.0651 15.2668H12.2651C13.9984 15.2668 15.3318 13.8668 15.3318 12.2002V11.0002C15.3318 10.6668 15.0651 10.3335 14.6651 10.3335Z" fill="#color"/>
<path d="M5.0013 13.9999H3.73464C2.8013 13.9999 2.0013 13.1999 2.0013 12.2666V11.0666C2.0013 10.6666 1.73464 10.3999 1.33464 10.3999C0.934635 10.3999 0.667969 10.6666 0.667969 11.0666V12.2666C0.667969 13.9332 2.06797 15.3332 3.73464 15.3332H4.93464C5.33464 15.3332 5.6013 15.0666 5.6013 14.6666C5.6013 14.2666 5.33464 13.9999 5.0013 13.9999Z" fill="#color"/>
<path d="M1.33464 5.6665C1.73464 5.6665 2.0013 5.39984 2.0013 4.99984V3.73317C2.0013 2.79984 2.8013 1.99984 3.73464 1.99984H4.93464C5.33464 1.99984 5.6013 1.73317 5.6013 1.33317C5.6013 0.933171 5.33464 0.666504 5.0013 0.666504H3.73464C2.06797 0.666504 0.667969 2.0665 0.667969 3.73317V4.93317C0.667969 5.33317 0.934635 5.6665 1.33464 5.6665Z" fill="#color"/>
<path d="M12.2651 0.666504H11.0651C10.6651 0.666504 10.3984 0.933171 10.3984 1.33317C10.3984 1.73317 10.6651 1.99984 11.0651 1.99984H12.2651C13.1984 1.99984 13.9984 2.79984 13.9984 3.73317V4.93317C13.9984 5.33317 14.2651 5.59984 14.6651 5.59984C15.0651 5.59984 15.3318 5.33317 15.3318 4.93317V3.73317C15.3318 2.0665 13.9318 0.666504 12.2651 0.666504Z" fill="#color"/>
<path d="M14.668 7.3335H1.33464C0.934635 7.3335 0.667969 7.60016 0.667969 8.00016C0.667969 8.40016 0.934635 8.66683 1.33464 8.66683H4.73463C4.33464 9.06683 4.0013 9.5335 3.8013 10.0668C3.6013 10.6002 3.66797 11.2002 3.93464 11.6668C4.26797 12.1335 4.8013 12.4668 5.4013 12.4668H10.468C11.068 12.4668 11.6013 12.2002 11.9346 11.6668C12.268 11.2002 12.3346 10.6002 12.068 10.0668C11.868 9.5335 11.5346 9.06683 11.1346 8.66683H14.668C15.068 8.66683 15.3346 8.40016 15.3346 8.00016C15.3346 7.60016 15.068 7.3335 14.668 7.3335Z" fill="#color"/>
</g>
<defs>
<clipPath id="clip0_12463_206137">
<rect width="16" height="16" fill="white"/>
</clipPath>
</defs>
</svg>
