<svg width="40" height="40" viewBox="0 0 40 40" fill="none" xmlns="http://www.w3.org/2000/svg">
<path d="M19.9987 34.6663C15.1654 34.6663 10.9987 33.1663 8.33203 30.6663C8.33203 30.8329 8.33203 30.8329 8.33203 30.9996C8.33203 35.1663 13.4987 38.3329 19.9987 38.3329C26.4987 38.3329 31.6654 35.1663 31.6654 30.9996C31.6654 30.8329 31.6654 30.8329 31.6654 30.6663C28.9987 33.1663 24.832 34.6663 19.9987 34.6663Z" fill="#555555"/>
<path d="M30.832 23.8329C30.4987 24.1663 29.9987 24.4996 29.4987 24.6663C28.9987 24.9996 28.4987 25.1663 27.832 25.4996C25.6654 26.4996 22.832 26.9996 19.9987 26.9996C17.1654 26.9996 14.332 26.4996 12.1654 25.4996C11.6654 25.3329 10.9987 24.9996 10.4987 24.6663C9.9987 24.3329 9.66536 24.1663 9.16536 23.8329C8.83203 23.6663 8.66536 23.4996 8.33203 23.1663C8.33203 23.4996 8.33203 23.9996 8.33203 24.3329C8.33203 24.3329 8.33203 24.4996 8.33203 24.6663C8.33203 25.3329 8.4987 25.8329 8.66536 26.3329C8.83203 26.8329 9.16536 27.3329 9.4987 27.6663C11.4987 29.9996 15.332 31.6663 19.9987 31.6663C24.6654 31.6663 28.4987 29.9996 30.4987 27.6663C30.832 27.1663 31.1654 26.8329 31.332 26.3329C31.6654 25.8329 31.6654 25.1663 31.6654 24.6663C31.6654 24.6663 31.6654 24.4996 31.6654 24.3329C31.6654 23.9996 31.6654 23.6663 31.4987 23.1663C31.332 23.3329 30.9987 23.6663 30.832 23.8329Z" fill="#555555"/>
<path d="M29.9987 16.6669C29.4987 17.0002 28.9987 17.3336 28.4987 17.5002C27.9987 17.8336 27.332 18.0002 26.6654 18.3336C24.6654 19.0002 22.332 19.5002 19.832 19.5002C17.332 19.5002 15.1654 19.0002 13.1654 18.3336C12.4987 18.0002 11.9987 17.8336 11.332 17.5002C10.832 17.3336 10.332 17.0002 9.9987 16.6669C9.33203 16.3336 8.83203 16.0002 8.4987 15.5002C8.33203 16.0002 8.33203 16.3336 8.33203 16.6669C8.33203 17.0002 8.33203 17.3336 8.4987 17.8336C8.66536 18.3336 8.83203 18.8336 9.16536 19.3336C9.33203 19.8336 9.66536 20.1669 9.9987 20.5002C10.6654 21.1669 11.332 21.6669 12.1654 22.1669C12.832 22.5002 13.332 22.8336 14.1654 23.0002C15.1654 23.3336 16.332 23.6669 17.4987 23.8336C18.332 24.0002 19.1654 24.0002 19.9987 24.0002C20.832 24.0002 21.6654 24.0002 22.4987 23.8336C23.6654 23.6669 24.832 23.3336 25.832 23.0002C26.4987 22.8336 27.1654 22.5002 27.832 22.1669C28.6654 21.6669 29.332 21.1669 29.9987 20.5002C30.332 20.1669 30.6654 19.6669 30.832 19.3336C31.1654 18.8336 31.332 18.3336 31.4987 17.8336C31.6654 17.3336 31.6654 17.0002 31.6654 16.6669C31.6654 16.3336 31.6654 16.0002 31.4987 15.5002C31.1654 16.0002 30.6654 16.3336 29.9987 16.6669Z" fill="#555555"/>
<path d="M8.9987 11.6667C9.33203 12.0001 9.66536 12.5001 9.9987 12.8334C10.832 13.6667 11.832 14.5001 13.1654 15.0001C13.9987 15.3334 14.832 15.6667 15.6654 15.8334C16.9987 16.1667 18.4987 16.3334 19.9987 16.3334C21.4987 16.3334 22.9987 16.1667 24.332 15.8334C25.1654 15.6667 26.1654 15.3334 26.832 15.0001C28.1654 14.5001 29.1654 13.6667 29.9987 12.8334C30.332 12.5001 30.6654 12.0001 30.832 11.6667C31.1654 11.1667 31.332 10.6667 31.4987 10.1667C31.6654 9.83342 31.6654 9.33342 31.6654 9.00008C31.6654 4.83342 26.4987 1.66675 19.9987 1.66675C13.4987 1.66675 8.33203 4.83342 8.33203 9.00008C8.33203 9.33342 8.33203 9.83342 8.4987 10.1667C8.66536 10.6667 8.83203 11.1667 8.9987 11.6667Z" fill="#555555"/>
</svg>
