<svg width="40" height="40" viewBox="0 0 40 40" fill="none" xmlns="http://www.w3.org/2000/svg">
<path d="M25.5414 29.5931C24.146 30.0656 22.5763 30.223 21.0065 30.223C19.4367 30.223 17.8669 30.0656 16.4716 29.5931C15.9484 29.4356 15.425 29.2781 14.9018 29.1207C14.2041 28.8057 13.8553 28.6483 13.332 28.3333V36.8371C13.332 37.3096 13.6809 37.782 14.0297 38.097C14.2041 38.2545 14.5529 38.2545 14.7274 38.2545C15.0763 38.2545 15.2506 38.2545 15.5995 38.097L20.832 35.2624L26.0646 38.097C26.5878 38.412 27.1111 38.412 27.6344 38.097C28.1576 37.782 28.332 37.4671 28.332 36.8371V28.3333C27.5283 28.817 26.4398 29.3227 25.5414 29.5931Z" fill="#555555"/>
<path d="M20.832 26.6667C27.7356 26.6667 33.332 21.0703 33.332 14.1667C33.332 7.26319 27.7356 1.66675 20.832 1.66675C13.9285 1.66675 8.33203 7.26319 8.33203 14.1667C8.33203 21.0703 13.9285 26.6667 20.832 26.6667Z" fill="#555555"/>
</svg>
