<svg width="34" height="38" viewBox="0 0 34 38" fill="none" xmlns="http://www.w3.org/2000/svg">
<path fill-rule="evenodd" clip-rule="evenodd" d="M20.1654 1.50025L30.1654 7.33358C32.332 8.50025 33.6654 11.0002 33.6654 13.5002V24.5002C33.6654 27.0002 32.332 29.5002 30.1654 30.6669L20.1654 36.5002C19.1654 37.0002 18.1654 37.3336 16.9987 37.3336C15.832 37.3336 14.832 37.0002 13.832 36.5002L3.83203 30.6669C1.66536 29.5002 0.332031 27.0002 0.332031 24.5002V13.5002C0.332031 11.0002 1.66536 8.50025 3.83203 7.33358L13.6654 1.50025C15.6654 0.333577 18.1654 0.333577 20.1654 1.50025ZM27.832 11.0002C28.6653 10.6668 29.6653 11.0002 30.1653 11.6668C30.4986 12.5002 30.332 13.5002 29.4986 14.0002L18.6653 19.8334V32.0001C18.6653 33.0001 17.9986 33.6668 16.9986 33.6668C15.9986 33.6668 15.332 33.0001 15.332 32.0001V19.8334L4.4987 14.0002C3.66536 13.5002 3.33203 12.3335 3.83203 11.6668C4.33203 11.0002 5.33203 10.6668 6.16536 11.0002L16.9986 17.0001L27.832 11.0002Z" fill="#555555"/>
</svg>
