<svg width="40" height="40" viewBox="0 0 40 40" fill="none" xmlns="http://www.w3.org/2000/svg">
<path d="M10.9645 38.3334C9.6123 38.3334 8.4291 37.8306 7.58395 36.9924L3.0202 32.4669C2.17505 31.6287 1.66797 30.2879 1.66797 29.1146C1.66797 27.9412 2.17505 26.6004 3.0202 25.7622L8.26007 20.2311C7.2459 15.873 8.26007 11.3474 10.7955 7.8275C15.0212 2.29621 22.1203 0.284831 28.5435 2.63145C29.0505 2.79906 29.5576 3.3019 29.5576 3.80475C29.5576 4.3076 29.5576 4.97805 29.0505 5.31328L23.9796 10.3417C23.1346 11.1798 22.6275 12.3531 22.6275 13.5264C22.6275 14.5321 23.1345 15.5378 23.8106 16.2082C24.4868 16.8787 25.501 17.2139 26.5151 17.2139C27.5293 17.2139 28.5435 16.8787 29.2196 16.0406L34.6285 10.677C34.9665 10.3417 35.6426 10.1741 36.1498 10.1741C36.6568 10.3417 37.164 10.677 37.333 11.1798C39.5303 16.7111 38.009 23.0804 33.7833 27.2709C30.0646 30.9584 24.6558 32.4669 19.416 31.2936L14.3451 36.8249C13.5 37.8306 12.3168 38.3334 10.9645 38.3334Z" fill="#555555"/>
</svg>
