<svg width="16" height="16" viewBox="0 0 16 16" fill="none" xmlns="http://www.w3.org/2000/svg">
<path d="M1.33301 7.33398H10.6663M1.33301 11.334H8.66634M1.33301 3.33398H13.333" stroke="#A3A3A3" stroke-width="1.25" stroke-linecap="round" stroke-linejoin="round"/>
<path d="M13.3335 12.3327V7.06602C13.3335 6.95993 13.3756 6.85819 13.4507 6.78317C13.5257 6.70816 13.6274 6.66602 13.7335 6.66602H14.6668M13.3335 12.3327C13.3335 12.5979 13.2281 12.8523 13.0406 13.0398C12.8531 13.2273 12.5987 13.3327 12.3335 13.3327C12.0683 13.3327 11.8139 13.2273 11.6264 13.0398C11.4389 12.8523 11.3335 12.5979 11.3335 12.3327C11.3335 12.0675 11.4389 11.8131 11.6264 11.6256C11.8139 11.438 12.0683 11.3327 12.3335 11.3327C12.5987 11.3327 12.8531 11.438 13.0406 11.6256C13.2281 11.8131 13.3335 12.0675 13.3335 12.3327Z" stroke="#A3A3A3" stroke-width="1.25" stroke-linecap="round" stroke-linejoin="round"/>
</svg>
