<svg width="20" height="20" viewBox="0 0 20 20" fill="none" xmlns="http://www.w3.org/2000/svg">
<path fill-rule="evenodd" clip-rule="evenodd" d="M16.6615 9.9987C16.6615 13.6807 13.6768 16.6654 9.99479 16.6654C6.31279 16.6654 3.32812 13.6807 3.32812 9.9987C3.32812 6.3167 6.31279 3.33203 9.99479 3.33203C13.6768 3.33203 16.6615 6.3167 16.6615 9.9987ZM10.6198 7.33203C10.6198 6.98685 10.34 6.70703 9.99479 6.70703C9.64961 6.70703 9.36979 6.98685 9.36979 7.33203V9.3737H7.32812C6.98295 9.3737 6.70312 9.65352 6.70312 9.9987C6.70312 10.3439 6.98295 10.6237 7.32812 10.6237H9.36979V12.6654C9.36979 13.0105 9.64961 13.2904 9.99479 13.2904C10.34 13.2904 10.6198 13.0105 10.6198 12.6654V10.6237H12.6615C13.0066 10.6237 13.2865 10.3439 13.2865 9.9987C13.2865 9.65352 13.0066 9.3737 12.6615 9.3737H10.6198V7.33203Z" fill="#16BBFF"/>
</svg>
