<svg width="16" height="16" viewBox="0 0 16 16" fill="none" xmlns="http://www.w3.org/2000/svg">
<path d="M3.13542 10.0822L2.71875 14.2489M5.91319 4.87392L10.7743 7.65169M3.13542 10.0822L3.79514 2.82253C3.8045 2.71888 3.85232 2.62249 3.92917 2.55232C4.00602 2.48215 4.10635 2.44328 4.21042 2.44336H13.7903C13.8482 2.44332 13.9055 2.45535 13.9585 2.47867C14.0115 2.502 14.059 2.53612 14.0981 2.57886C14.1372 2.62159 14.1669 2.672 14.1854 2.72687C14.2039 2.78173 14.2108 2.83986 14.2056 2.89753L13.5868 9.70308C13.5774 9.80673 13.5296 9.90311 13.4528 9.97328C13.3759 10.0435 13.2756 10.0823 13.1715 10.0822H3.13542Z" stroke="#A3A3A3" stroke-width="1.25" stroke-linecap="round" stroke-linejoin="round"/>
</svg>
