<svg width="28" height="28" viewBox="0 0 28 28" fill="none" xmlns="http://www.w3.org/2000/svg">
<rect width="28" height="28" rx="14" fill="white"/>
<path d="M19.0002 14.4173C19.1107 14.4173 19.2167 14.3734 19.2948 14.2953C19.3729 14.2171 19.4168 14.1112 19.4168 14.0007C19.4168 13.8901 19.3729 13.7842 19.2948 13.706C19.2167 13.6279 19.1107 13.584 19.0002 13.584C18.8897 13.584 18.7837 13.6279 18.7055 13.706C18.6274 13.7842 18.5835 13.8901 18.5835 14.0007C18.5835 14.1112 18.6274 14.2171 18.7055 14.2953C18.7837 14.3734 18.8897 14.4173 19.0002 14.4173ZM14.0002 14.4173C14.1107 14.4173 14.2167 14.3734 14.2948 14.2953C14.3729 14.2171 14.4168 14.1112 14.4168 14.0007C14.4168 13.8901 14.3729 13.7842 14.2948 13.706C14.2167 13.6279 14.1107 13.584 14.0002 13.584C13.8897 13.584 13.7837 13.6279 13.7055 13.706C13.6274 13.7842 13.5835 13.8901 13.5835 14.0007C13.5835 14.1112 13.6274 14.2171 13.7055 14.2953C13.7837 14.3734 13.8897 14.4173 14.0002 14.4173ZM9.00016 14.4173C9.11067 14.4173 9.21665 14.3734 9.29479 14.2953C9.37293 14.2171 9.41683 14.1112 9.41683 14.0007C9.41683 13.8901 9.37293 13.7842 9.29479 13.706C9.21665 13.6279 9.11067 13.584 9.00016 13.584C8.88966 13.584 8.78368 13.6279 8.70554 13.706C8.62739 13.7842 8.5835 13.8901 8.5835 14.0007C8.5835 14.1112 8.62739 14.2171 8.70554 14.2953C8.78368 14.3734 8.88966 14.4173 9.00016 14.4173V14.4173Z" fill="black" stroke="black" stroke-width="1.37333" stroke-linecap="round" stroke-linejoin="round"/>
</svg>
