<svg width="24" height="24" viewBox="0 0 24 24" fill="none" xmlns="http://www.w3.org/2000/svg">
<path d="M18.6667 13.6667V4.5L9.5 6.16667V15.3333" stroke="white" stroke-width="1.37333" stroke-linecap="round" stroke-linejoin="round"/>
<path d="M16.1693 17.8327H17.0026C17.4446 17.8327 17.8686 17.6571 18.1811 17.3445C18.4937 17.032 18.6693 16.608 18.6693 16.166V13.666H16.1693C15.7272 13.666 15.3033 13.8416 14.9908 14.1542C14.6782 14.4667 14.5026 14.8907 14.5026 15.3327V16.166C14.5026 16.608 14.6782 17.032 14.9908 17.3445C15.3033 17.6571 15.7272 17.8327 16.1693 17.8327ZM7.0026 19.4993H7.83594C8.27796 19.4993 8.70189 19.3238 9.01445 19.0112C9.32701 18.6986 9.5026 18.2747 9.5026 17.8327V15.3327H7.0026C6.56058 15.3327 6.13665 15.5083 5.82409 15.8208C5.51153 16.1334 5.33594 16.5573 5.33594 16.9993V17.8327C5.33594 18.2747 5.51153 18.6986 5.82409 19.0112C6.13665 19.3238 6.56058 19.4993 7.0026 19.4993Z" stroke="white" stroke-width="1.37333" stroke-linecap="round" stroke-linejoin="round"/>
</svg>
