<svg width="20" height="20" viewBox="0 0 20 20" fill="none" xmlns="http://www.w3.org/2000/svg">
<path d="M15 5.83312V14.1664V5.83312ZM5.81 4.38895C5.73629 4.3307 5.64766 4.2944 5.55427 4.2842C5.46088 4.27401 5.36651 4.29033 5.28197 4.33129C5.19742 4.37226 5.12613 4.43622 5.07626 4.51583C5.02639 4.59545 4.99996 4.6875 5 4.78145V15.2181C5.00012 15.312 5.02666 15.4039 5.07659 15.4834C5.12653 15.5629 5.19783 15.6268 5.28234 15.6676C5.36685 15.7085 5.46116 15.7247 5.55448 15.7145C5.64779 15.7043 5.73635 15.668 5.81 15.6098L12.4192 10.3923C12.4785 10.3455 12.5264 10.2859 12.5593 10.2179C12.5923 10.1499 12.6094 10.0753 12.6094 9.99978C12.6094 9.92424 12.5923 9.84967 12.5593 9.78169C12.5264 9.71371 12.4785 9.65408 12.4192 9.60728L5.81 4.38895Z" fill="#A3A3A3"/>
<path d="M15 5.83312V14.1664M5.81 4.38895C5.73629 4.3307 5.64766 4.2944 5.55427 4.2842C5.46088 4.27401 5.36651 4.29033 5.28197 4.33129C5.19742 4.37226 5.12613 4.43622 5.07626 4.51583C5.02639 4.59545 4.99996 4.6875 5 4.78145V15.2181C5.00012 15.312 5.02666 15.4039 5.07659 15.4834C5.12653 15.5629 5.19783 15.6268 5.28234 15.6676C5.36685 15.7085 5.46116 15.7247 5.55448 15.7145C5.64779 15.7043 5.73635 15.668 5.81 15.6098L12.4192 10.3923C12.4785 10.3455 12.5264 10.2859 12.5593 10.2179C12.5923 10.1499 12.6094 10.0753 12.6094 9.99978C12.6094 9.92424 12.5923 9.84967 12.5593 9.78169C12.5264 9.71371 12.4785 9.65408 12.4192 9.60728L5.81 4.38895Z" stroke="#A3A3A3" stroke-width="1.37333" stroke-linecap="round" stroke-linejoin="round"/>
</svg>
