<svg width="28" height="28" viewBox="0 0 28 28" fill="none" xmlns="http://www.w3.org/2000/svg">
<rect width="28" height="28" rx="14" fill="#16BBFF"/>
<path d="M10.755 7.78085C10.6791 7.73584 10.5926 7.71173 10.5044 7.71096C10.4161 7.71019 10.3292 7.73279 10.2526 7.77646C10.1759 7.82014 10.1121 7.88333 10.0677 7.95963C10.0234 8.03592 10 8.1226 10 8.21085V19.7892C10 19.8774 10.0234 19.9641 10.0677 20.0404C10.1121 20.1167 10.1759 20.1799 10.2526 20.2236C10.3292 20.2672 10.4161 20.2898 10.5044 20.2891C10.5926 20.2883 10.6791 20.2642 10.755 20.2192L20.5242 14.43C20.5988 14.3857 20.6606 14.3228 20.7035 14.2474C20.7464 14.172 20.769 14.0868 20.769 14C20.769 13.9133 20.7464 13.828 20.7035 13.7526C20.6606 13.6772 20.5988 13.6143 20.5242 13.57L10.755 7.78085Z" fill="#2B0945"/>
</svg>
