<svg width="20" height="20" viewBox="0 0 20 20" fill="none" xmlns="http://www.w3.org/2000/svg">
<path d="M5 5.83312V14.1664V5.83312ZM14.19 4.38895C14.2637 4.3307 14.3523 4.2944 14.4457 4.2842C14.5391 4.27401 14.6335 4.29033 14.718 4.33129C14.8026 4.37226 14.8739 4.43622 14.9237 4.51583C14.9736 4.59545 15 4.6875 15 4.78145V15.2181C14.9999 15.312 14.9733 15.4039 14.9234 15.4834C14.8735 15.5629 14.8022 15.6268 14.7177 15.6676C14.6331 15.7085 14.5388 15.7247 14.4455 15.7145C14.3522 15.7043 14.2637 15.668 14.19 15.6098L7.58083 10.3923C7.52153 10.3455 7.4736 10.2859 7.44065 10.2179C7.4077 10.1499 7.39058 10.0753 7.39058 9.99978C7.39058 9.92424 7.4077 9.84967 7.44065 9.78169C7.4736 9.71371 7.52153 9.65408 7.58083 9.60728L14.19 4.38895Z" fill="#A3A3A3"/>
<path d="M5 5.83312V14.1664M14.19 4.38895C14.2637 4.3307 14.3523 4.2944 14.4457 4.2842C14.5391 4.27401 14.6335 4.29033 14.718 4.33129C14.8026 4.37226 14.8739 4.43622 14.9237 4.51583C14.9736 4.59545 15 4.6875 15 4.78145V15.2181C14.9999 15.312 14.9733 15.4039 14.9234 15.4834C14.8735 15.5629 14.8022 15.6268 14.7177 15.6676C14.6331 15.7085 14.5388 15.7247 14.4455 15.7145C14.3522 15.7043 14.2637 15.668 14.19 15.6098L7.58083 10.3923C7.52153 10.3455 7.4736 10.2859 7.44065 10.2179C7.4077 10.1499 7.39058 10.0753 7.39058 9.99978C7.39058 9.92424 7.4077 9.84967 7.44065 9.78169C7.4736 9.71371 7.52153 9.65408 7.58083 9.60728L14.19 4.38895Z" stroke="#A3A3A3" stroke-width="1.37333" stroke-linecap="round" stroke-linejoin="round"/>
</svg>
