<svg width="16" height="16" viewBox="0 0 16 16" fill="none" xmlns="http://www.w3.org/2000/svg">
<path d="M7.15278 6.40342C6.81389 6.09122 6.21787 5.87391 5.67014 5.86035M4.1875 9.3687C4.50606 9.76054 5.09826 9.98421 5.67014 10.0033M5.67014 5.85993C5.0182 5.84383 4.43447 6.11579 4.43447 6.85965C4.43447 8.22791 7.15278 7.54378 7.15278 8.91247C7.15278 9.69276 6.42925 10.0283 5.67014 10.0033M5.67014 5.85993V5.03516M5.67014 10.0037V10.9657M8.42361 8.00043H11.8125M11.8125 8.00043L10.1858 6.30599M11.8125 8.00043L10.1858 9.69488" stroke="#A3A3A3" stroke-width="1.25" stroke-linecap="round" stroke-linejoin="round"/>
<rect x="0.5" y="0.5" width="15" height="15" rx="7.5" stroke="#A3A3A3"/>
</svg>
