<svg width="20" height="20" viewBox="0 0 20 20" fill="none" xmlns="http://www.w3.org/2000/svg">
<path d="M8.94097 8.0033C8.51736 7.61305 7.77234 7.34141 7.08767 7.32446M5.23438 11.7099C5.63257 12.1997 6.37283 12.4793 7.08767 12.5031M7.08767 7.32393C6.27275 7.30381 5.54308 7.64376 5.54308 8.57359C5.54308 10.2839 8.94097 9.42875 8.94097 11.1396C8.94097 12.115 8.03656 12.5344 7.08767 12.5031M7.08767 7.32393V6.29297M7.08767 12.5036V13.7062M10.5295 9.99957H14.7656M14.7656 9.99957L12.7323 7.88151M14.7656 9.99957L12.7323 12.1176" stroke="#16BBFF" stroke-width="1.25" stroke-linecap="round" stroke-linejoin="round"/>
<rect x="0.5" y="0.5" width="19" height="19" rx="9.5" stroke="#16BBFF"/>
</svg>
