<svg width="42" height="42" viewBox="0 0 42 42" fill="none" xmlns="http://www.w3.org/2000/svg">
<rect width="41.7882" height="41.7882" rx="20.8941" fill="white" fill-opacity="0.2"/>
<g clip-path="url(#clip0_21711_177825)">
<path d="M23.4236 11.6533C22.5591 10.1295 20.6447 9.60719 19.1477 10.4867C17.6507 11.3662 17.1379 13.3145 18.0024 14.8383L26.3231 29.504C27.1877 31.0277 29.1021 31.55 30.5991 30.6705C32.0961 29.791 32.6088 27.8427 31.7443 26.3189L23.4236 11.6533Z" fill="url(#paint0_linear_21711_177825)"/>
<path d="M26.4705 17.0794C23.6673 15.5837 21.7918 17.6377 20.9722 18.883C20.8413 19.0796 20.7203 19.2829 20.6097 19.492C20.5515 19.5986 20.52 19.6731 20.5083 19.6984C20.4967 19.7238 20.5083 19.6984 20.5083 19.7069L19.4243 21.612L14.9451 29.5049C14.5302 30.2362 13.8467 30.77 13.0451 30.9886C12.2434 31.2072 11.3893 31.0929 10.6705 30.6706C9.95173 30.2483 9.42724 29.5528 9.21241 28.7371C8.99758 27.9212 9.11 27.0521 9.52494 26.3206L17.2745 12.6618L17.8464 11.6466C18.1216 11.163 18.5171 10.7617 18.9932 10.483C19.4692 10.2044 20.009 10.0584 20.5582 10.0596H20.6796C21.2294 10.0592 21.7695 10.2064 22.2456 10.4862C22.7217 10.766 23.1169 11.1686 23.3913 11.6534L26.4705 17.0794Z" fill="white"/>
</g>
<defs>
<linearGradient id="paint0_linear_21711_177825" x1="31.0976" y1="31.7343" x2="16.8027" y2="26.5575" gradientUnits="userSpaceOnUse">
<stop stop-color="white"/>
<stop offset="1" stop-color="white" stop-opacity="0"/>
</linearGradient>
<clipPath id="clip0_21711_177825">
<rect width="23.5873" height="21.675" fill="white" transform="translate(9.10056 10.0562)"/>
</clipPath>
</defs>
</svg>
