<svg viewBox="0 0 16 16" fill="none" xmlns="http://www.w3.org/2000/svg">
<g clip-path="url(#clip0_9637_169917)">
<g clip-path="url(#clip1_9637_169917)">
<path d="M8 16C12.4183 16 16 12.4183 16 8C16 3.58172 12.4183 0 8 0C3.58172 0 0 3.58172 0 8C0 12.4183 3.58172 16 8 16Z" fill="#2E3148"/>
<path d="M8.00132 12.6413C10.565 12.6413 12.6433 10.563 12.6433 7.99937C12.6433 5.43569 10.565 3.35742 8.00132 3.35742C5.43764 3.35742 3.35938 5.43569 3.35938 7.99937C3.35938 10.563 5.43764 12.6413 8.00132 12.6413Z" fill="#1B1E36"/>
<path d="M8.0169 1.02148C7.15335 1.02148 6.45312 4.15365 6.45312 8.0174C6.45312 11.8811 7.15335 15.0133 8.0169 15.0133C8.88045 15.0133 9.58068 11.8811 9.58068 8.0174C9.58068 4.15365 8.88045 1.02148 8.0169 1.02148ZM8.12487 14.6185C8.02612 14.7502 7.92736 14.6514 7.92736 14.6514C7.52967 14.1906 7.33082 13.3345 7.33082 13.3345C6.63521 11.0959 6.80077 6.28927 6.80077 6.28927C7.12769 2.47333 7.72237 1.57189 7.92474 1.37176C7.94541 1.35133 7.97262 1.33885 8.00158 1.33651C8.03054 1.33417 8.0594 1.34212 8.08308 1.35896C8.37671 1.56702 8.62298 2.43717 8.62298 2.43717C9.35021 5.13675 9.28436 7.67173 9.28436 7.67173C9.35021 9.8775 8.91994 12.3466 8.91994 12.3466C8.58874 14.2231 8.12487 14.6185 8.12487 14.6185Z" fill="#6F7390"/>
<path d="M14.0854 4.53531C13.6555 3.78599 10.5905 4.73742 7.23742 6.66011C3.88438 8.58279 1.51919 10.749 1.94882 11.498C2.37846 12.247 5.44381 11.2959 8.79685 9.37319C12.1499 7.45051 14.5151 5.2843 14.0854 4.53531ZM2.3455 11.3952C2.18089 11.3745 2.21807 11.2392 2.21807 11.2392C2.41999 10.665 3.06256 10.0665 3.06256 10.0665C4.65891 8.349 8.91083 6.10075 8.91083 6.10075C12.3831 4.48526 13.4616 4.55342 13.7352 4.62875C13.7633 4.63658 13.7877 4.65411 13.8041 4.67822C13.8205 4.70232 13.8279 4.73146 13.8248 4.76046C13.7919 5.11886 13.1581 5.76526 13.1581 5.76526C11.1798 7.74023 8.94802 8.94484 8.94802 8.94484C7.0675 10.1 4.71165 10.955 4.71165 10.955C2.91907 11.601 2.34556 11.3952 2.34556 11.3952H2.3455Z" fill="#6F7390"/>
<path d="M14.0711 11.5219C14.5043 10.7746 12.1451 8.59851 8.80395 6.6614C5.46276 4.72429 2.39817 3.76112 1.96528 4.50971C1.53239 5.2583 3.8912 7.4331 7.23431 9.37021C10.5774 11.3073 13.6382 12.2706 14.0711 11.5219ZM2.25238 4.79847C2.18838 4.64673 2.32348 4.61018 2.32348 4.61018C2.92162 4.49723 3.7618 4.75463 3.7618 4.75463C6.04752 5.27513 10.1233 7.82816 10.1233 7.82816C13.2614 10.024 13.7426 10.9912 13.8147 11.2658C13.8221 11.2939 13.8192 11.3238 13.8067 11.3501C13.7942 11.3763 13.7728 11.3973 13.7463 11.4093C13.419 11.5592 12.5426 11.3359 12.5426 11.3359C9.84144 10.6117 7.68116 9.28464 7.68116 9.28464C5.74013 8.23775 3.8208 6.62691 3.8208 6.62691C2.3624 5.39897 2.25283 4.80013 2.25283 4.80013L2.25238 4.79847Z" fill="#6F7390"/>
<path d="M7.99882 8.82381C8.45337 8.82381 8.82186 8.45533 8.82186 8.00077C8.82186 7.54622 8.45337 7.17773 7.99882 7.17773C7.54427 7.17773 7.17578 7.54622 7.17578 8.00077C7.17578 8.45533 7.54427 8.82381 7.99882 8.82381Z" fill="#B7B9C8"/>
<path d="M11.3758 5.33335C11.6395 5.33335 11.8532 5.11226 11.8532 4.83953C11.8532 4.5668 11.6395 4.3457 11.3758 4.3457C11.1122 4.3457 10.8984 4.5668 10.8984 4.83953C10.8984 5.11226 11.1122 5.33335 11.3758 5.33335Z" fill="#B7B9C8"/>
<path d="M3.53988 7.01304C3.80352 7.01304 4.01725 6.79195 4.01725 6.51921C4.01725 6.24648 3.80352 6.02539 3.53988 6.02539C3.27623 6.02539 3.0625 6.24648 3.0625 6.51921C3.0625 6.79195 3.27623 7.01304 3.53988 7.01304Z" fill="#B7B9C8"/>
<path d="M7.0282 13.0697C7.29187 13.0697 7.50561 12.8486 7.50561 12.5759C7.50561 12.3031 7.29187 12.082 7.0282 12.082C6.76453 12.082 6.55078 12.3031 6.55078 12.5759C6.55078 12.8486 6.76453 13.0697 7.0282 13.0697Z" fill="#B7B9C8"/>
</g>
</g>
<defs>
<clipPath id="clip0_9637_169917">
<rect width="16" height="16" fill="white"/>
</clipPath>
<clipPath id="clip1_9637_169917">
<rect width="16" height="16" fill="white"/>
</clipPath>
</defs>
</svg>
