<svg viewBox="0 0 24 24" fill="none" xmlns="http://www.w3.org/2000/svg">
<rect width="24" height="24" rx="12" fill="#22232C"/>
<g clip-path="url(#clip0_6816_97514)">
<path d="M12 18C15.3137 18 18 15.3137 18 12C18 8.68629 15.3137 6 12 6C8.68629 6 6 8.68629 6 12C6 15.3137 8.68629 18 12 18Z" fill="#2E3148"/>
<path d="M12.001 15.4805C13.9237 15.4805 15.4824 13.9218 15.4824 11.999C15.4824 10.0763 13.9237 8.51758 12.001 8.51758C10.0782 8.51758 8.51953 10.0763 8.51953 11.999C8.51953 13.9218 10.0782 15.4805 12.001 15.4805Z" fill="#1B1E36"/>
<path d="M12.0127 6.76562C11.365 6.76562 10.8398 9.11475 10.8398 12.0126C10.8398 14.9104 11.365 17.2595 12.0127 17.2595C12.6603 17.2595 13.1855 14.9104 13.1855 12.0126C13.1855 9.11475 12.6603 6.76562 12.0127 6.76562ZM12.0937 16.9634C12.0196 17.0622 11.9455 16.9881 11.9455 16.9881C11.6473 16.6425 11.4981 16.0004 11.4981 16.0004C10.9764 14.3214 11.1006 10.7165 11.1006 10.7165C11.3458 7.85451 11.7918 7.17843 11.9436 7.02833C11.9591 7.01301 11.9795 7.00365 12.0012 7.00189C12.0229 7.00014 12.0445 7.0061 12.0623 7.01873C12.2825 7.17478 12.4672 7.82739 12.4672 7.82739C13.0127 9.85208 12.9633 11.7533 12.9633 11.7533C13.0127 13.4076 12.69 15.2595 12.69 15.2595C12.4416 16.6668 12.0937 16.9634 12.0937 16.9634Z" fill="#6F7390"/>
<path d="M16.5621 9.40099C16.2397 8.83901 13.9409 9.55257 11.4261 10.9946C8.91133 12.4366 7.13744 14.0613 7.45966 14.623C7.78189 15.1848 10.0809 14.4714 12.5957 13.0294C15.1105 11.5874 16.8844 9.96274 16.5621 9.40099ZM7.75717 14.5459C7.63371 14.5304 7.6616 14.4289 7.6616 14.4289C7.81304 13.9983 8.29496 13.5494 8.29496 13.5494C9.49223 12.2613 12.6812 10.5751 12.6812 10.5751C15.2854 9.36346 16.0943 9.41458 16.2995 9.47107C16.3205 9.47695 16.3388 9.49009 16.3511 9.50817C16.3634 9.52626 16.3689 9.54811 16.3667 9.56986C16.342 9.83866 15.8667 10.3235 15.8667 10.3235C14.3829 11.8047 12.7091 12.7081 12.7091 12.7081C11.2987 13.5745 9.53178 14.2158 9.53178 14.2158C8.18735 14.7002 7.75722 14.5459 7.75722 14.5459H7.75717Z" fill="#6F7390"/>
<path d="M16.5513 14.6409C16.8763 14.0805 15.1069 12.4484 12.601 10.9956C10.0951 9.54273 7.79667 8.82035 7.47201 9.38179C7.14734 9.94324 8.91645 11.5743 11.4238 13.0272C13.9311 14.48 16.2267 15.2024 16.5513 14.6409ZM7.68733 9.59836C7.63933 9.48456 7.74066 9.45715 7.74066 9.45715C8.18926 9.37243 8.81939 9.56548 8.81939 9.56548C10.5337 9.95586 13.5905 11.8706 13.5905 11.8706C15.9441 13.5175 16.305 14.2429 16.3591 14.4489C16.3646 14.47 16.3625 14.4924 16.3531 14.5121C16.3437 14.5318 16.3276 14.5475 16.3078 14.5565C16.0623 14.6689 15.405 14.5015 15.405 14.5015C13.3791 13.9583 11.7589 12.963 11.7589 12.963C10.3031 12.1778 8.86365 10.9697 8.86365 10.9697C7.76984 10.0487 7.68767 9.59961 7.68767 9.59961L7.68733 9.59836Z" fill="#6F7390"/>
<path d="M12.0001 12.6174C12.341 12.6174 12.6174 12.341 12.6174 12.0001C12.6174 11.6592 12.341 11.3828 12.0001 11.3828C11.6592 11.3828 11.3828 11.6592 11.3828 12.0001C11.3828 12.341 11.6592 12.6174 12.0001 12.6174Z" fill="#B7B9C8"/>
<path d="M14.5299 10.0005C14.7276 10.0005 14.8879 9.83468 14.8879 9.63013C14.8879 9.42558 14.7276 9.25977 14.5299 9.25977C14.3322 9.25977 14.1719 9.42558 14.1719 9.63013C14.1719 9.83468 14.3322 10.0005 14.5299 10.0005Z" fill="#B7B9C8"/>
<path d="M8.65491 11.2583C8.85264 11.2583 9.01294 11.0925 9.01294 10.8879C9.01294 10.6834 8.85264 10.5176 8.65491 10.5176C8.45717 10.5176 8.29688 10.6834 8.29688 10.8879C8.29688 11.0925 8.45717 11.2583 8.65491 11.2583Z" fill="#B7B9C8"/>
<path d="M11.2721 15.8032C11.4699 15.8032 11.6302 15.6374 11.6302 15.4329C11.6302 15.2283 11.4699 15.0625 11.2721 15.0625C11.0744 15.0625 10.9141 15.2283 10.9141 15.4329C10.9141 15.6374 11.0744 15.8032 11.2721 15.8032Z" fill="#B7B9C8"/>
</g>
<defs>
<clipPath id="clip0_6816_97514">
<rect width="12" height="12" fill="white" transform="translate(6 6)"/>
</clipPath>
</defs>
</svg>
