<svg width="45" height="45" viewBox="0 0 45 45" fill="none" xmlns="http://www.w3.org/2000/svg">
<rect width="45" height="45" rx="22.5" fill="#F6851B" fill-opacity="0.2"/>
<path d="M34.2584 9.82373L24.0713 17.3898L25.9551 12.9259L34.2584 9.82373Z" fill="#E2761B" stroke="#E2761B" stroke-width="0.102383" stroke-linecap="round" stroke-linejoin="round"/>
<path d="M10.7386 9.82373L20.8438 17.4615L19.0521 12.9259L10.7386 9.82373ZM30.5906 27.3619L27.8775 31.5186L33.6826 33.1158L35.3514 27.454L30.5906 27.3619ZM9.66357 27.454L11.3222 33.1158L17.1273 31.5186L14.4141 27.3619L9.66357 27.454Z" fill="#E4761B" stroke="#E4761B" stroke-width="0.102383" stroke-linecap="round" stroke-linejoin="round"/>
<path d="M16.7973 20.3403L15.1797 22.7872L20.9438 23.0432L20.7391 16.849L16.7973 20.3403ZM28.1925 20.3403L24.1996 16.7773L24.0665 23.0432L29.8204 22.7872L28.1925 20.3403ZM17.125 31.5205L20.5855 29.8311L17.5959 27.4968L17.125 31.5205ZM24.4044 29.8311L27.8752 31.5205L27.394 27.4968L24.4044 29.8311Z" fill="#E4761B" stroke="#E4761B" stroke-width="0.102383" stroke-linecap="round" stroke-linejoin="round"/>
<path d="M27.8791 31.5194L24.4083 29.8301L24.6848 32.0927L24.654 33.0449L27.8791 31.5194ZM17.1289 31.5194L20.354 33.0449L20.3335 32.0927L20.5894 29.8301L17.1289 31.5194Z" fill="#D7C1B3" stroke="#D7C1B3" stroke-width="0.102383" stroke-linecap="round" stroke-linejoin="round"/>
<path d="M20.4028 26.0002L17.5156 25.1504L19.553 24.2188L20.4028 26.0002ZM24.5903 26.0002L25.4401 24.2188L27.4877 25.1504L24.5903 26.0002Z" fill="#233447" stroke="#233447" stroke-width="0.102383" stroke-linecap="round" stroke-linejoin="round"/>
<path d="M17.1248 31.5194L17.6162 27.3626L14.4116 27.4548L17.1248 31.5194ZM27.3835 27.3626L27.875 31.5194L30.5881 27.4548L27.3835 27.3626ZM29.8202 22.7861L24.0663 23.0421L24.5987 26.001L25.4485 24.2195L27.4961 25.1512L29.8202 22.7861ZM17.5138 25.1512L19.5615 24.2195L20.401 26.001L20.9436 23.0421L15.1795 22.7861L17.5138 25.1512Z" fill="#CD6116" stroke="#CD6116" stroke-width="0.102383" stroke-linecap="round" stroke-linejoin="round"/>
<path d="M15.1797 22.7861L17.5959 27.4957L17.514 25.1512L15.1797 22.7861ZM27.4963 25.1512L27.394 27.4957L29.8204 22.7861L27.4963 25.1512ZM20.9438 23.0421L20.4012 26.001L21.0769 29.4922L21.2305 24.8952L20.9438 23.0421ZM24.0665 23.0421L23.7901 24.885L23.9129 29.4922L24.5989 26.001L24.0665 23.0421Z" fill="#E4751F" stroke="#E4751F" stroke-width="0.102383" stroke-linecap="round" stroke-linejoin="round"/>
<path d="M24.6005 26.0021L23.9145 29.4934L24.406 29.8312L27.3956 27.4969L27.4979 25.1523L24.6005 26.0021ZM17.5156 25.1523L17.5975 27.4969L20.5871 29.8312L21.0785 29.4934L20.4028 26.0021L17.5156 25.1523Z" fill="#F6851B" stroke="#F6851B" stroke-width="0.102383" stroke-linecap="round" stroke-linejoin="round"/>
<path d="M24.654 33.046L24.6848 32.0939L24.4288 31.8686H20.569L20.3335 32.0939L20.354 33.046L17.1289 31.5205L18.2551 32.442L20.5383 34.0289H24.4595L26.7529 32.442L27.8791 31.5205L24.654 33.046Z" fill="#C0AD9E" stroke="#C0AD9E" stroke-width="0.102383" stroke-linecap="round" stroke-linejoin="round"/>
<path d="M24.4054 29.83L23.914 29.4922H21.078L20.5865 29.83L20.3306 32.0927L20.566 31.8675H24.4259L24.6818 32.0927L24.4054 29.83Z" fill="#161616" stroke="#161616" stroke-width="0.102383" stroke-linecap="round" stroke-linejoin="round"/>
<path d="M34.6885 17.8813L35.5588 13.704L34.2585 9.82373L24.4093 17.1339L28.1975 20.3384L33.5521 21.9049L34.7397 20.5227L34.2278 20.1542L35.0469 19.4068L34.4121 18.9153L35.2312 18.2908L34.6885 17.8813ZM9.45117 13.704L10.3214 17.8813L9.76856 18.2908L10.5876 18.9153L9.96309 19.4068L10.7821 20.1542L10.2702 20.5227L11.4476 21.9049L16.8023 20.3384L20.5904 17.1339L10.7412 9.82373L9.45117 13.704Z" fill="#763D16" stroke="#763D16" stroke-width="0.102383" stroke-linecap="round" stroke-linejoin="round"/>
<path d="M33.5495 21.9067L28.1949 20.3402L29.8227 22.7872L27.3963 27.4968L30.5906 27.4558H35.3514L33.5495 21.9067ZM16.7997 20.3402L11.445 21.9067L9.66357 27.4558H14.4141L17.5982 27.4968L15.182 22.7872L16.7997 20.3402ZM24.0688 23.0432L24.4067 17.1357L25.9629 12.9277H19.0521L20.5878 17.1357L20.9462 23.0432L21.069 24.9065L21.0793 29.4933H23.9153L23.9357 24.9065L24.0688 23.0432Z" fill="#F6851B" stroke="#F6851B" stroke-width="0.102383" stroke-linecap="round" stroke-linejoin="round"/>
</svg>
