<svg viewBox="0 0 24 24" fill="none" xmlns="http://www.w3.org/2000/svg">
<rect width="24" height="24" rx="12" fill="#F0827D" fill-opacity="0.16"/>
<g clip-path="url(#clip0_10215_171850)">
<path d="M11.9713 19.8366C16.2183 19.8366 19.6613 16.4001 19.6613 12.161C19.6613 7.92185 16.2183 4.48535 11.9713 4.48535C7.72418 4.48535 4.28125 7.92185 4.28125 12.161C4.28125 16.4001 7.72418 19.8366 11.9713 19.8366Z" fill="white"/>
<path d="M11.9713 19.6647C16.2183 19.6647 19.6613 16.2282 19.6613 11.9891C19.6613 7.74997 16.2183 4.31348 11.9713 4.31348C7.72418 4.31348 4.28125 7.74997 4.28125 11.9891C4.28125 16.2282 7.72418 19.6647 11.9713 19.6647Z" fill="black" stroke="white" stroke-width="0.566101"/>
<path fill-rule="evenodd" clip-rule="evenodd" d="M12.2595 9.3022C12.2595 9.15472 12.149 9.03516 12.0126 9.03516C12.0126 9.03516 12.0125 9.03516 12.0123 9.03516C11.8761 9.03516 11.7656 9.15472 11.7656 9.3022C11.7656 10.3783 11.7656 14.3915 11.7656 15.4678C11.7656 15.6153 11.8761 15.7349 12.0123 15.7349C12.0125 15.7349 12.0126 15.7349 12.0126 15.7349C12.149 15.7349 12.2595 15.6153 12.2595 15.4678C12.2595 14.3915 12.2595 10.3783 12.2595 9.3022Z" fill="white"/>
<path fill-rule="evenodd" clip-rule="evenodd" d="M11.255 14.383C11.1187 14.3829 11.0081 14.5023 11.008 14.6498C11.008 14.6498 11.008 14.65 11.008 14.6501C11.0079 14.7974 11.1183 14.9171 11.2546 14.9172C11.6337 14.9176 12.3553 14.9182 12.7344 14.9185C12.8708 14.9187 12.9814 14.7992 12.9815 14.6519C12.9815 14.6517 12.9815 14.6516 12.9815 14.6516C12.9816 14.5041 12.8712 14.3844 12.7348 14.3843C12.3557 14.384 11.6342 14.3833 11.255 14.383Z" fill="white"/>
<path fill-rule="evenodd" clip-rule="evenodd" d="M10.0363 10.8899C9.8999 10.8898 9.78938 11.0092 9.78927 11.1567C9.78927 11.1567 9.78927 11.1568 9.78927 11.157C9.78915 11.3043 9.89949 11.4239 10.0359 11.424C10.8107 11.4247 13.189 11.4269 13.9639 11.4276C14.1002 11.4277 14.2108 11.3083 14.2109 11.161C14.2109 11.1608 14.2109 11.1606 14.2109 11.1606C14.211 11.0132 14.1006 10.8935 13.9643 10.8934C13.1895 10.8927 10.8111 10.8906 10.0363 10.8899Z" fill="white"/>
<path fill-rule="evenodd" clip-rule="evenodd" d="M10.8595 9.54091C10.763 9.43674 10.6067 9.43693 10.5104 9.54133C10.5104 9.54133 10.5103 9.54144 10.5102 9.54155C10.414 9.64584 10.4142 9.81491 10.5107 9.91908C11.0422 10.4928 12.6357 12.213 13.1672 12.7867C13.2638 12.8909 13.42 12.8907 13.5162 12.7864C13.5163 12.7863 13.5164 12.7862 13.5164 12.7862C13.6127 12.6818 13.6126 12.5127 13.5161 12.4086C12.9846 11.8348 11.391 10.1146 10.8595 9.54091Z" fill="white"/>
<path fill-rule="evenodd" clip-rule="evenodd" d="M10.5041 12.4122C10.4078 12.5167 10.4081 12.6858 10.5047 12.7899C10.5047 12.7899 10.5048 12.79 10.5049 12.7901C10.6014 12.8941 10.7577 12.8938 10.8539 12.7894C11.3839 12.214 12.973 10.489 13.503 9.91366C13.5992 9.8092 13.5989 9.64013 13.5024 9.53612C13.5023 9.53601 13.5022 9.5359 13.5022 9.5359C13.4056 9.43178 13.2494 9.43206 13.1531 9.53652C12.6231 10.1119 11.0341 11.8369 10.5041 12.4122Z" fill="white"/>
<path d="M11.9709 18.8052C15.713 18.8052 18.7466 15.7773 18.7466 12.0423C18.7466 8.30718 15.713 5.2793 11.9709 5.2793C8.22886 5.2793 5.19531 8.30718 5.19531 12.0423C5.19531 15.7773 8.22886 18.8052 11.9709 18.8052Z" stroke="#F0827D" stroke-width="0.325207"/>
</g>
<defs>
<clipPath id="clip0_10215_171850">
<rect width="16" height="16" fill="white" transform="translate(4 4)"/>
</clipPath>
</defs>
</svg>
