<svg width="46" height="46" viewBox="0 0 46 46" fill="none" xmlns="http://www.w3.org/2000/svg">
<path fill-rule="evenodd" clip-rule="evenodd" d="M29.5045 13.4759C28.9805 14.7388 28.4892 16.0207 28.0304 17.3214C28.0373 17.3818 28.0587 17.4352 28.0945 17.4816C28.4081 17.5648 28.7179 17.661 29.0238 17.7701C29.6456 16.4196 30.3186 15.095 31.0427 13.7964C31.8161 12.3703 32.8201 11.1206 34.055 10.047C34.4181 9.77983 34.8027 9.54487 35.2086 9.34203C36.1915 9.25832 36.48 9.67492 36.0739 10.5918C35.5133 12.1619 34.8296 13.6786 34.0229 15.1423C33.4072 16.4807 32.809 17.8266 32.2284 19.1801C32.3271 19.8724 32.3484 20.5775 32.2925 21.2951C32.1703 22.9229 32.0101 24.5465 31.8118 26.166C31.7223 26.5595 31.6582 26.9655 31.6195 27.3838C31.7049 27.3838 31.7904 27.3838 31.8759 27.3838C33.342 27.7176 34.1111 28.6363 34.1832 30.1397C34.1161 31.7241 33.3042 32.6854 31.7477 33.0238C32.5594 34.177 32.8906 35.4589 32.7411 36.8693C32.6017 37.4911 32.4521 38.1106 32.2925 38.728C31.9729 39.2299 31.5884 39.294 31.1388 38.9202C30.556 37.9898 30.0218 37.0285 29.5365 36.0361C29.4397 35.67 29.3329 35.3068 29.2161 34.9466C27.9913 37.3469 26.357 39.4299 24.3131 41.1955C23.8071 41.5441 23.2944 41.8753 22.7749 42.1889C22.4072 42.3454 22.0227 42.4095 21.6212 42.3812C20.9502 42.1738 20.3306 41.8641 19.7626 41.4519C17.526 39.6964 15.7741 37.5493 14.5071 35.0107C14.5032 34.9759 14.4819 34.9545 14.443 34.9466C14.3835 35.0228 14.3621 35.1082 14.3789 35.2029C14.2892 35.6963 14.129 36.1663 13.8982 36.6129C13.4389 37.4141 12.9796 38.2152 12.5203 39.0164C12.1074 39.2807 11.7763 39.2059 11.5268 38.7921C10.8091 37.1008 10.8091 35.413 11.5268 33.7288C11.6746 33.485 11.8348 33.2501 12.0075 33.0238C10.18 32.5945 9.35747 31.4409 9.54 29.5629C9.89129 28.261 10.7352 27.5132 12.0716 27.3197C11.6287 24.7323 11.4044 22.1259 11.3987 19.5005C11.44 19.4271 11.4934 19.363 11.5589 19.3082C10.4433 16.7351 9.25762 14.1928 8.00181 11.6814C7.76147 11.0993 7.57989 10.5012 7.45703 9.8868C7.50689 9.52699 7.70987 9.33472 8.0659 9.30998C8.60215 9.38048 9.08284 9.58339 9.50796 9.91885C10.8047 10.9906 11.8515 12.2618 12.6484 13.7323C13.4029 15.0218 14.0438 16.3677 14.5712 17.7701C14.9473 17.6304 15.3319 17.5022 15.7248 17.3855C15.3098 16.2145 14.8612 15.0608 14.3789 13.9246C14.3298 13.6907 14.2443 13.4771 14.1225 13.2837C13.1967 10.8009 12.2781 8.31208 11.3666 5.81699C11.3872 5.49782 11.5367 5.2628 11.8153 5.11199C12.224 5.03335 12.5337 5.17217 12.7446 5.52858C13.0257 6.07317 13.2821 6.62865 13.5137 7.19496C13.5715 7.27193 13.6463 7.32539 13.738 7.35519C13.9506 7.38711 14.1642 7.39781 14.3789 7.38724C14.2387 6.91341 14.0785 6.44342 13.8982 5.97722C13.8069 5.45507 14.0206 5.13461 14.5391 5.01585C14.8723 5.06488 15.15 5.21441 15.3723 5.46449C16.2018 7.35737 16.9389 9.28011 17.5835 11.2327C17.8338 11.1616 18.0902 11.1082 18.3526 11.0725C18.4217 11.0293 18.4644 10.9652 18.4808 10.8802C17.9628 8.76578 17.5569 6.62935 17.263 4.47107C17.3706 3.74607 17.7552 3.5538 18.4167 3.89425C19.0357 4.62938 19.5164 5.45186 19.8587 6.36177C19.9588 5.33932 20.3754 4.47409 21.1085 3.76607C21.847 3.38671 22.4987 3.50419 23.0633 4.11857C23.555 4.7607 23.8328 5.48705 23.8965 6.29768C24.1732 5.74419 24.4509 5.18877 24.7297 4.6313C24.9235 4.29604 25.1692 4.00763 25.4667 3.76607C25.8939 3.65397 26.2037 3.79286 26.3961 4.18266C26.4253 4.95862 26.3612 5.72771 26.2038 6.48995C25.8924 8.03424 25.5613 9.57243 25.2104 11.1045C25.5117 11.1338 25.8108 11.1766 26.1076 11.2327C26.7986 9.2314 27.5784 7.26591 28.447 5.33631C28.7605 5.06225 29.113 5.0088 29.5045 5.17608C29.7418 5.39373 29.8166 5.6608 29.7288 5.97722C29.5874 6.39074 29.4272 6.7967 29.2481 7.19496C29.5707 7.37634 29.8805 7.35493 30.1775 7.13087C30.4475 6.63346 30.6826 6.12072 30.8825 5.59267C31.3073 4.93394 31.7559 4.9126 32.2284 5.52858C32.2711 5.72086 32.2711 5.91313 32.2284 6.10541C31.3263 8.5662 30.4183 11.0231 29.5045 13.4759Z" fill="#040303"/>
<path fill-rule="evenodd" clip-rule="evenodd" d="M21.2365 4.5672C21.2792 7.36588 21.3219 10.1645 21.3647 12.9632C21.3647 14.2023 21.3647 15.4414 21.3647 16.6805C21.2578 16.6805 21.1511 16.6805 21.0442 16.6805C21.0442 16.6164 21.0442 16.5523 21.0442 16.4882C21.0548 16.2522 21.0442 16.0173 21.0122 15.7832C20.9973 15.7039 20.9653 15.6398 20.916 15.5909C20.7667 14.4398 20.6385 13.2861 20.5315 12.13C20.4772 10.5283 20.4559 8.92606 20.4674 7.32313C20.4612 6.47225 20.6214 5.66041 20.9481 4.88766C21.0153 4.75191 21.1114 4.64513 21.2365 4.5672Z" fill="#FDBF21"/>
<path fill-rule="evenodd" clip-rule="evenodd" d="M22.5825 4.6313C22.5397 6.42586 22.497 8.22042 22.4543 10.015C22.4329 8.17722 22.4543 6.33991 22.5184 4.50311C22.5695 4.5324 22.5909 4.57515 22.5825 4.6313Z" fill="#CE9834"/>
<path fill-rule="evenodd" clip-rule="evenodd" d="M23.2875 6.87447C23.2875 7.00266 23.2875 7.13084 23.2875 7.25902C23.2755 7.9118 23.2969 8.56335 23.3515 9.21381C23.2492 9.98894 23.1958 10.7687 23.1913 11.5532C23.17 11.4677 23.1486 11.3822 23.1272 11.2968C23.0499 12.1347 22.943 12.9678 22.8068 13.7964C22.764 13.8391 22.7213 13.8818 22.6786 13.9245C22.5783 11.3405 22.5569 8.7555 22.6145 6.16947C22.6817 6.27246 22.7779 6.31515 22.9029 6.29765C22.9348 6.48909 22.9669 6.68137 22.999 6.87447C23.0269 6.61503 23.0269 6.35867 22.999 6.10538C23.0256 6.13467 23.0576 6.15607 23.0952 6.16947C23.148 6.38001 23.18 6.59363 23.1913 6.81038C23.2159 6.84602 23.2479 6.86736 23.2875 6.87447Z" fill="#FEBE1E"/>
<path fill-rule="evenodd" clip-rule="evenodd" d="M21.3655 12.9632C21.3227 10.1645 21.2801 7.36586 21.2373 4.56718C21.2554 4.51661 21.2875 4.47386 21.3334 4.439C21.3655 7.2803 21.3762 10.1217 21.3655 12.9632Z" fill="#987226"/>
<path fill-rule="evenodd" clip-rule="evenodd" d="M15.4041 8.92541C15.3013 8.87497 15.2585 8.78953 15.2759 8.66904C15.1905 8.66904 15.105 8.66904 15.0195 8.66904C15.0854 8.58265 15.1708 8.5506 15.2759 8.5729C15.3377 8.68346 15.3804 8.80101 15.4041 8.92541Z" fill="#9D3D3C"/>
<path fill-rule="evenodd" clip-rule="evenodd" d="M28.3506 12.835C28.2516 13.0163 28.1021 13.1552 27.902 13.2516C27.9234 13.273 27.9448 13.2944 27.9661 13.3157C27.7601 13.8241 27.5999 14.3475 27.4854 14.8859C27.4588 15.0007 27.3947 15.0862 27.2931 15.1423C27.1832 15.7607 27.0016 16.3589 26.7484 16.9369C26.695 16.9582 26.6415 16.9796 26.5881 17.001C26.3352 16.9012 26.0682 16.8478 25.787 16.8407C25.7255 16.6017 25.7041 16.356 25.7229 16.1037C26.5892 13.6233 27.4757 11.1451 28.3827 8.66907C28.4187 8.63562 28.4614 8.61427 28.5109 8.60498C28.9212 8.83827 29.3485 8.85962 29.7927 8.66907C29.8248 8.69041 29.8568 8.71182 29.8888 8.73316C29.4118 10.1225 28.8991 11.4898 28.3506 12.835Z" fill="#F75652"/>
<path fill-rule="evenodd" clip-rule="evenodd" d="M20.4675 7.32315C20.456 8.92608 20.4773 10.5284 20.5316 12.13C20.4093 11.4182 20.3452 10.6918 20.3394 9.9509C20.3602 9.06375 20.4029 8.18781 20.4675 7.32315Z" fill="#E5AE33"/>
<path fill-rule="evenodd" clip-rule="evenodd" d="M15.7246 9.88678C15.9968 10.4894 16.2318 11.1089 16.4296 11.7454C16.3418 11.7226 16.2777 11.6692 16.2373 11.5852C16.1688 11.2838 16.0726 10.9954 15.9489 10.72C15.9276 10.8054 15.9062 10.8909 15.8848 10.9763C15.8716 10.6043 15.8182 10.2411 15.7246 9.88678Z" fill="#CC4F4A"/>
<path fill-rule="evenodd" clip-rule="evenodd" d="M15.0195 8.66907C15.1049 8.66907 15.1904 8.66907 15.2759 8.66907C15.2585 8.78956 15.3012 8.87499 15.404 8.92543C15.5014 9.25166 15.6082 9.57212 15.7245 9.88681C15.8181 10.2412 15.8715 10.6044 15.8847 10.9764C15.9061 10.8909 15.9275 10.8054 15.9488 10.72C16.0725 10.9955 16.1687 11.2839 16.2372 11.5852C16.2776 11.6692 16.3417 11.7226 16.4295 11.7455C17.0597 13.4215 17.6792 15.1092 18.2882 16.8087C17.8873 16.9147 17.4814 17.0001 17.0704 17.0651C16.9235 16.9438 16.806 16.7943 16.7179 16.6164C15.7792 13.9801 14.8071 11.363 13.8018 8.7652C14.2139 8.83167 14.6198 8.79962 15.0195 8.66907Z" fill="#F85653"/>
<path fill-rule="evenodd" clip-rule="evenodd" d="M22.5828 4.63129C22.8463 4.92303 23.0279 5.26483 23.1276 5.65675C23.2352 6.05598 23.2886 6.46187 23.2878 6.87449C23.2482 6.86737 23.2162 6.84603 23.1916 6.8104C23.1804 6.59364 23.1483 6.38002 23.0955 6.16948C23.0579 6.15609 23.0259 6.13468 22.9994 6.10539C23.0272 6.35868 23.0272 6.61505 22.9994 6.87449C22.9672 6.68138 22.9351 6.48911 22.9032 6.29766C22.7782 6.31516 22.6821 6.27248 22.6148 6.16948C22.5573 8.75551 22.5786 11.3405 22.6789 13.9245C22.7217 13.8818 22.7643 13.8391 22.8071 13.7964C22.9434 12.9679 23.0502 12.1347 23.1276 11.2968C23.1489 11.3822 23.1703 11.4677 23.1916 11.5532C23.1961 10.7687 23.2495 9.98895 23.3519 9.21383C23.2972 8.56336 23.2759 7.91181 23.2878 7.25904C23.4734 8.44056 23.5161 9.63696 23.416 10.8482C23.2124 12.7756 22.9774 14.6983 22.711 16.6164C22.6255 16.6164 22.54 16.6164 22.4546 16.6164C22.4546 15.9327 22.4546 15.2491 22.4546 14.5655C22.4546 13.0486 22.4546 11.5318 22.4546 10.015C22.4973 8.22041 22.54 6.42585 22.5828 4.63129Z" fill="#F5BB28"/>
<path fill-rule="evenodd" clip-rule="evenodd" d="M33.9265 12.0659C33.9827 12.0575 34.0254 12.0789 34.0547 12.13C32.9747 14.2259 31.9813 16.3623 31.0745 18.5392C31.0385 18.5726 30.9957 18.594 30.9463 18.6033C30.7162 18.5259 30.5133 18.4084 30.3374 18.2508C31.1053 16.4688 32.0133 14.7704 33.0613 13.1555C33.3405 12.7807 33.6289 12.4175 33.9265 12.0659Z" fill="#F5F5F5"/>
<path fill-rule="evenodd" clip-rule="evenodd" d="M9.63623 12.0018C10.2416 12.5968 10.765 13.2591 11.2065 13.9886C11.9942 15.286 12.6992 16.632 13.3215 18.0264C13.3642 18.1118 13.3642 18.1973 13.3215 18.2828C13.1152 18.4331 12.8909 18.54 12.6485 18.6032C12.3577 17.8289 12.0479 17.0598 11.7192 16.2959C11.0231 14.8612 10.3288 13.4298 9.63623 12.0018Z" fill="#F4F4F4"/>
<path fill-rule="evenodd" clip-rule="evenodd" d="M28.3514 12.835C27.8481 14.2726 27.3354 15.7039 26.8132 17.1291C26.3699 17.0303 25.9212 16.9662 25.4673 16.9369C25.4772 16.6299 25.5626 16.3522 25.7237 16.1037C25.7049 16.356 25.7262 16.6017 25.7877 16.8407C26.0689 16.8479 26.336 16.9012 26.5889 17.001C26.6423 16.9796 26.6957 16.9582 26.7491 16.9369C27.0023 16.3589 27.1839 15.7607 27.2939 15.1423C27.3955 15.0862 27.4596 15.0007 27.4862 14.8859C27.6006 14.3475 27.7609 13.8241 27.9669 13.3157C27.9455 13.2944 27.9241 13.273 27.9028 13.2516C28.1029 13.1552 28.2524 13.0163 28.3514 12.835Z" fill="#E95654"/>
<path fill-rule="evenodd" clip-rule="evenodd" d="M14.0584 13.54C14.1659 13.6708 14.2728 13.7989 14.3789 13.9246C14.8612 15.0608 15.3098 16.2145 15.7248 17.3855C15.3319 17.5022 14.9473 17.6304 14.5712 17.77C14.0438 16.3677 13.4029 15.0218 12.6484 13.7323C12.8028 13.3123 13.1019 13.1521 13.5457 13.2516C13.7097 13.3655 13.8807 13.4616 14.0584 13.54Z" fill="#FABC2A"/>
<path fill-rule="evenodd" clip-rule="evenodd" d="M31.0426 13.7964C30.3185 15.095 29.6455 16.4196 29.0237 17.7701C28.7178 17.661 28.408 17.5649 28.0944 17.4817C28.0585 17.4352 28.0372 17.3818 28.0303 17.3214C28.489 16.0207 28.9804 14.7389 29.5044 13.4759C29.6704 13.4357 29.8199 13.3609 29.953 13.2516C30.4847 13.1127 30.8479 13.2942 31.0426 13.7964Z" fill="#FBBC2B"/>
<path fill-rule="evenodd" clip-rule="evenodd" d="M14.1227 13.2837C14.2445 13.4771 14.3299 13.6907 14.3791 13.9246C14.2729 13.799 14.1661 13.6708 14.0586 13.54C14.1185 13.4716 14.1399 13.3861 14.1227 13.2837Z" fill="#DCD0B1"/>
<path fill-rule="evenodd" clip-rule="evenodd" d="M22.4547 14.5655C22.4547 15.2491 22.4547 15.9327 22.4547 16.6164C22.5402 16.6164 22.6257 16.6164 22.7111 16.6164C22.6201 16.6773 22.5134 16.6987 22.3906 16.6805C22.3696 15.964 22.391 15.259 22.4547 14.5655Z" fill="#9D7017"/>
<path fill-rule="evenodd" clip-rule="evenodd" d="M20.9165 15.5909C20.9657 15.6398 20.9978 15.7039 21.0126 15.7832C21.0446 16.0173 21.0553 16.2522 21.0447 16.4882C20.9714 16.2021 20.9287 15.9031 20.9165 15.5909Z" fill="#C08D29"/>
<path fill-rule="evenodd" clip-rule="evenodd" d="M18.2242 19.7569C17.9475 19.7302 17.6911 19.7729 17.4551 19.8851C16.9804 19.9159 16.5104 19.98 16.0451 20.0773C16.0563 19.9414 16.0349 19.8132 15.981 19.6928C15.8874 19.2677 15.802 18.8404 15.7246 18.411C16.6775 18.105 17.6603 17.9128 18.6728 17.8341C18.9676 17.8482 19.2453 17.8056 19.506 17.706C20.0391 17.6478 20.5732 17.6372 21.1083 17.6739C21.1671 18.0973 21.2633 18.5139 21.3967 18.9237C21.4286 19.1363 21.4393 19.3499 21.4287 19.5646C20.3569 19.5822 19.2888 19.6463 18.2242 19.7569Z" fill="#FBBC2A"/>
<path fill-rule="evenodd" clip-rule="evenodd" d="M28.0302 18.411C27.8859 18.9402 27.7577 19.4743 27.6457 20.0133C27.1632 19.8944 26.6719 19.8303 26.1716 19.821C25.2027 19.7154 24.2413 19.6299 23.2875 19.5646C22.9795 19.5014 22.659 19.48 22.3261 19.5005C22.2815 19.1476 22.399 19.0407 22.6786 19.1801C22.7244 18.9242 22.6924 18.6786 22.5824 18.443C22.6344 18.2 22.6558 17.9543 22.6465 17.706C24.468 17.6517 26.2625 17.8867 28.0302 18.411Z" fill="#FBBC2B"/>
<path fill-rule="evenodd" clip-rule="evenodd" d="M19.506 17.706C19.2454 17.8056 18.9677 17.8482 18.6729 17.8341C18.9335 17.7345 19.2112 17.6919 19.506 17.706Z" fill="#B78B31"/>
<path fill-rule="evenodd" clip-rule="evenodd" d="M22.6468 17.706C22.656 17.9543 22.6346 18.2 22.5827 18.443C22.6926 18.6786 22.7246 18.9242 22.6788 19.1801C22.3992 19.0407 22.2818 19.1476 22.3263 19.5005C22.6593 19.48 22.9797 19.5014 23.2877 19.5646C22.9459 19.5646 22.604 19.5646 22.2622 19.5646C22.3292 18.9258 22.4574 18.3062 22.6468 17.706Z" fill="#E4AC32"/>
<path fill-rule="evenodd" clip-rule="evenodd" d="M28.0305 18.411C29.1541 18.7698 30.2223 19.2505 31.2351 19.853C31.3053 20.3118 31.284 20.7711 31.171 21.231C30.0269 20.7428 28.8519 20.3583 27.646 20.0774C27.646 20.056 27.646 20.0346 27.646 20.0133C27.758 19.4743 27.8862 18.9402 28.0305 18.411Z" fill="#526D8E"/>
<path fill-rule="evenodd" clip-rule="evenodd" d="M15.6611 18.4109C15.6825 18.4109 15.7039 18.4109 15.7252 18.4109C15.8026 18.8404 15.888 19.2677 15.9816 19.6928C15.9202 19.6637 15.8667 19.6211 15.8214 19.5646C15.7748 19.1784 15.7214 18.7939 15.6611 18.4109Z" fill="#6A727B"/>
<path fill-rule="evenodd" clip-rule="evenodd" d="M18.2242 19.7569C17.9796 19.8198 17.7232 19.8626 17.4551 19.8851C17.6911 19.7729 17.9475 19.7302 18.2242 19.7569Z" fill="#4C3814"/>
<path fill-rule="evenodd" clip-rule="evenodd" d="M15.6608 18.411C15.721 18.7939 15.7744 19.1785 15.821 19.5646C15.8664 19.6211 15.9198 19.6638 15.9812 19.6928C16.0351 19.8132 16.0565 19.9414 16.0453 20.0774C14.7961 20.3585 13.5784 20.743 12.3921 21.231C12.372 20.7447 12.3933 20.2641 12.4562 19.7889C13.474 19.2112 14.5422 18.7518 15.6608 18.411Z" fill="#516C8D"/>
<path fill-rule="evenodd" clip-rule="evenodd" d="M26.1719 19.821C26.6722 19.8303 27.1635 19.8944 27.646 20.0132C27.646 20.0346 27.646 20.056 27.646 20.0773C27.1408 20.0252 26.6494 19.9398 26.1719 19.821Z" fill="#C49733"/>
<path fill-rule="evenodd" clip-rule="evenodd" d="M20.5957 20.3978C20.8822 20.3346 21.1813 20.3133 21.493 20.3337C21.5082 20.4164 21.4868 20.4805 21.4289 20.526C21.1807 20.4023 20.903 20.3595 20.5957 20.3978Z" fill="#441515"/>
<path fill-rule="evenodd" clip-rule="evenodd" d="M18.2243 20.5901C17.7908 20.7013 17.3422 20.7654 16.8784 20.7824C17.3111 20.6656 17.7597 20.6015 18.2243 20.5901Z" fill="#A4413E"/>
<path fill-rule="evenodd" clip-rule="evenodd" d="M31.1067 23.2819C31.0468 23.3504 31.0254 23.4358 31.0426 23.5383C30.9785 23.5383 30.9144 23.5383 30.8503 23.5383C30.3708 23.414 29.9008 23.2645 29.4403 23.0896C29.3112 22.9984 29.1617 22.9557 28.9917 22.9614C28.517 22.8748 28.0469 22.768 27.5817 22.641C27.0182 22.3874 26.4201 22.2807 25.7871 22.3205C25.5039 22.2262 25.2048 22.1835 24.8898 22.1924C24.3329 22.1877 23.7775 22.1556 23.2235 22.0962C22.9153 21.5545 22.6162 21.0097 22.3262 20.4619C25.3949 20.2995 28.3218 20.855 31.1067 22.1283C31.1584 22.511 31.1584 22.8956 31.1067 23.2819Z" fill="#FA5753"/>
<path fill-rule="evenodd" clip-rule="evenodd" d="M16.8144 20.7824C16.6852 20.8736 16.5357 20.9163 16.3657 20.9106C16.4949 20.8193 16.6444 20.7766 16.8144 20.7824Z" fill="#973E38"/>
<path fill-rule="evenodd" clip-rule="evenodd" d="M15.7249 21.0387C15.4525 21.1651 15.1533 21.2505 14.8276 21.2951C15.1036 21.1511 15.4026 21.0656 15.7249 21.0387Z" fill="#B34644"/>
<path fill-rule="evenodd" clip-rule="evenodd" d="M20.5956 20.3978C20.9028 20.3595 21.1805 20.4023 21.4287 20.526C21.1601 21.0328 20.9038 21.5455 20.6596 22.0642C20.2391 22.0537 19.8332 22.0965 19.4419 22.1924C18.3213 22.2683 17.2104 22.4179 16.1092 22.641C15.9392 22.6352 15.7897 22.6779 15.6605 22.7692C14.793 22.9647 13.9384 23.1997 13.0969 23.4742C12.9655 23.5037 12.8373 23.5465 12.7123 23.6024C12.669 23.5317 12.6263 23.4677 12.5841 23.4101C12.5585 22.9663 12.5585 22.5283 12.5841 22.0962C13.3072 21.7558 14.055 21.4888 14.8273 21.2951C15.153 21.2505 15.4522 21.165 15.7246 21.0387C15.9255 20.9411 16.1391 20.8984 16.3655 20.9105C16.5355 20.9163 16.685 20.8736 16.8142 20.7824C16.8355 20.7824 16.8569 20.7824 16.8782 20.7824C17.342 20.7654 17.7907 20.7013 18.2242 20.5901C19.0012 20.4788 19.7917 20.4147 20.5956 20.3978Z" fill="#FA5652"/>
<path fill-rule="evenodd" clip-rule="evenodd" d="M20.6601 22.0642C20.2681 22.1526 19.8622 22.1953 19.4424 22.1924C19.8337 22.0965 20.2396 22.0537 20.6601 22.0642Z" fill="#692523"/>
<path fill-rule="evenodd" clip-rule="evenodd" d="M24.8896 22.1924C25.2046 22.1835 25.5037 22.2262 25.7869 22.3205C25.472 22.3294 25.1729 22.2867 24.8896 22.1924Z" fill="#993C3A"/>
<path fill-rule="evenodd" clip-rule="evenodd" d="M25.7871 22.3206C26.4201 22.2807 27.0182 22.3875 27.5817 22.641C26.9725 22.5489 26.3743 22.4421 25.7871 22.3206Z" fill="#B54643"/>
<path fill-rule="evenodd" clip-rule="evenodd" d="M16.1098 22.641C15.9806 22.7323 15.8311 22.775 15.6611 22.7692C15.7903 22.6779 15.9398 22.6352 16.1098 22.641Z" fill="#531816"/>
<path fill-rule="evenodd" clip-rule="evenodd" d="M21.6212 22.8333C22.8636 22.8043 23.4298 23.4026 23.3196 24.6279C22.9946 25.4688 22.3858 25.8 21.493 25.6213C20.7518 25.2387 20.4633 24.6298 20.6278 23.7947C20.8269 23.3284 21.158 23.008 21.6212 22.8333Z" fill="#F8F8F8"/>
<path fill-rule="evenodd" clip-rule="evenodd" d="M28.9917 22.9615C29.1617 22.9557 29.3112 22.9984 29.4403 23.0897C29.2704 23.0954 29.1208 23.0527 28.9917 22.9615Z" fill="#9B413A"/>
<path fill-rule="evenodd" clip-rule="evenodd" d="M31.107 23.2819C31.107 23.3888 31.107 23.4955 31.107 23.6024C31.0045 23.6196 30.919 23.5981 30.8506 23.5383C30.9147 23.5383 30.9788 23.5383 31.0429 23.5383C31.0257 23.4358 31.0471 23.3504 31.107 23.2819Z" fill="#702826"/>
<path fill-rule="evenodd" clip-rule="evenodd" d="M12.5845 23.4101C12.6266 23.4676 12.6693 23.5317 12.7127 23.6024C12.8376 23.5465 12.9658 23.5037 13.0972 23.4742C12.9615 23.6123 12.7906 23.6764 12.5845 23.6665C12.5845 23.581 12.5845 23.4955 12.5845 23.4101Z" fill="#4E191A"/>
<path fill-rule="evenodd" clip-rule="evenodd" d="M21.7493 23.7947C22.2403 23.741 22.4646 23.9546 22.4223 24.4356C22.1296 24.861 21.8305 24.861 21.525 24.4356C21.4726 24.1772 21.5474 23.9636 21.7493 23.7947Z" fill="#0C0D0C"/>
<path fill-rule="evenodd" clip-rule="evenodd" d="M25.7875 25.2047C25.3184 25.1535 24.8483 25.1108 24.3774 25.0765C24.482 24.6571 24.5248 24.2298 24.5056 23.7946C26.7219 23.8987 28.8476 24.3901 30.8827 25.2688C30.9255 25.4397 30.9255 25.6106 30.8827 25.7815C30.8371 26.1111 30.773 26.4316 30.6905 26.7429C29.329 25.374 27.6946 24.8613 25.7875 25.2047Z" fill="#546E8F"/>
<path fill-rule="evenodd" clip-rule="evenodd" d="M19.5707 25.0765C19.031 25.0677 18.497 25.1104 17.9684 25.2047C16.021 24.8284 14.3759 25.3625 13.0333 26.8069C12.8689 26.2818 12.8261 25.7477 12.9052 25.2047C15.0017 24.3496 17.1808 23.8796 19.4425 23.7946C19.4233 24.2294 19.466 24.6566 19.5707 25.0765Z" fill="#536D8E"/>
<path fill-rule="evenodd" clip-rule="evenodd" d="M19.5705 25.0765C20.395 26.7412 21.6554 27.1792 23.3519 26.3903C23.8033 26.0355 24.1451 25.5975 24.3774 25.0765C24.8483 25.1108 25.3183 25.1534 25.7874 25.2047C24.126 25.9298 23.2287 27.2116 23.0956 29.0501C22.3265 29.0501 21.5574 29.0501 20.7883 29.0501C20.8035 28.9674 20.7821 28.9033 20.7242 28.8579C20.5051 27.102 19.5865 25.8843 17.9683 25.2047C18.4968 25.1104 19.0309 25.0677 19.5705 25.0765Z" fill="#F95753"/>
<path fill-rule="evenodd" clip-rule="evenodd" d="M13.2255 28.1529C13.1827 28.1101 13.14 28.0674 13.0973 28.0247C13.5909 27.0511 14.36 26.3782 15.4046 26.0058C17.7369 25.3611 19.2644 26.1836 19.9871 28.4733C20.2129 30.6187 19.2515 31.7724 17.103 31.9343C15.0796 31.9077 13.723 30.9463 13.0332 29.0501C13.3332 29.0389 13.6323 29.0924 13.9305 29.2104C14.3791 30.012 15.02 30.6102 15.8532 31.0049C16.7632 31.2989 17.6177 31.1921 18.4169 30.6845C19.0444 29.8252 19.1619 28.8959 18.7694 27.8965C18.5078 27.3143 18.0698 26.9404 17.4555 26.7749C17.0496 26.7321 16.6437 26.7321 16.2378 26.7749C15.3539 27.0608 14.6062 27.5522 13.9946 28.249C13.7381 28.2386 13.4818 28.2066 13.2255 28.1529Z" fill="#F7F7F8"/>
<path fill-rule="evenodd" clip-rule="evenodd" d="M26.2999 25.7815C27.5801 25.6852 28.7337 26.0164 29.7609 26.7749C30.1811 27.1362 30.4802 27.5741 30.6581 28.0888C30.3406 28.1631 30.0202 28.1952 29.6968 28.1849C29.097 27.4781 28.3493 27.0081 27.4536 26.7749C26.2625 26.5318 25.44 26.9697 24.986 28.0888C24.7269 28.8862 24.791 29.6553 25.1783 30.3961C25.7163 31.074 26.4107 31.3196 27.2613 31.1331C27.8341 31.0603 28.3468 30.8466 28.7995 30.4922C29.1776 30.1036 29.5195 29.687 29.8249 29.2424C30.0734 29.1375 30.3298 29.052 30.594 28.9861C30.6368 29.0074 30.6795 29.0288 30.7222 29.0502C30.0049 30.9857 28.6055 31.9471 26.5242 31.9343C25.2454 31.8825 24.3695 31.263 23.8965 30.0756C23.578 28.4811 24.0586 27.1886 25.3385 26.1981C25.6505 26.0203 25.9709 25.8814 26.2999 25.7815Z" fill="#F7F7F8"/>
<path fill-rule="evenodd" clip-rule="evenodd" d="M31.8114 26.166C31.8165 26.4033 31.7951 26.6383 31.7473 26.8711C31.7413 27.0256 31.8054 27.1431 31.9396 27.2236C31.8542 27.2449 31.7687 27.2663 31.6832 27.2876C31.7625 27.3025 31.8266 27.3346 31.8755 27.3838C31.7901 27.3838 31.7046 27.3838 31.6191 27.3838C31.6578 26.9655 31.7219 26.5595 31.8114 26.166Z" fill="#C7C8C7"/>
<path fill-rule="evenodd" clip-rule="evenodd" d="M16.3658 27.7042C17.6937 27.6202 18.2172 28.2398 17.9361 29.5629C17.6974 30.0244 17.3128 30.238 16.7824 30.2038C15.918 30.1077 15.2663 29.6804 14.8276 28.922C15.223 28.3619 15.7357 27.956 16.3658 27.7042Z" fill="#25928B"/>
<path fill-rule="evenodd" clip-rule="evenodd" d="M13.0973 28.0247C13.14 28.0674 13.1827 28.1101 13.2255 28.1529C13.1502 28.1669 13.0861 28.1456 13.0332 28.0888C13.0412 28.0499 13.0625 28.0285 13.0973 28.0247Z" fill="#7E7E7B"/>
<path fill-rule="evenodd" clip-rule="evenodd" d="M26.4925 27.7042C27.4861 27.6401 28.2872 28.0033 28.8959 28.7938C28.6866 29.3241 28.3128 29.7194 27.7743 29.9795C27.2992 30.2128 26.8078 30.2556 26.3002 30.1077C25.9286 29.8607 25.7577 29.5082 25.7875 29.0502C25.7713 28.4628 26.0063 28.0141 26.4925 27.7042Z" fill="#24948C"/>
<path fill-rule="evenodd" clip-rule="evenodd" d="M31.299 28.7297C32.408 28.8239 32.8887 29.4221 32.741 30.5243C32.5661 31.0567 32.2136 31.4092 31.6835 31.5818C31.3638 31.6138 31.0433 31.6245 30.7222 31.6138C30.9542 30.661 31.1465 29.6996 31.299 28.7297Z" fill="#F65551"/>
<path fill-rule="evenodd" clip-rule="evenodd" d="M20.7241 28.8578C20.7821 28.9033 20.8034 28.9674 20.7882 29.0501C21.5573 29.0501 22.3264 29.0501 23.0955 29.0501C22.3165 29.1139 21.526 29.1353 20.7241 29.1142C20.7241 29.0288 20.7241 28.9433 20.7241 28.8578Z" fill="#AF403D"/>
<path fill-rule="evenodd" clip-rule="evenodd" d="M12.6487 30.2679C12.6092 30.2608 12.5772 30.2394 12.5526 30.2038C12.5333 29.9758 12.4692 29.7622 12.3603 29.5629C12.3284 29.3074 12.3176 29.0511 12.3283 28.7938C12.1349 28.8069 11.9426 28.8282 11.7515 28.8579C11.9455 28.7216 12.1591 28.7003 12.3924 28.7938C12.4986 29.2817 12.5841 29.7731 12.6487 30.2679Z" fill="#D0514B"/>
<path fill-rule="evenodd" clip-rule="evenodd" d="M12.6485 30.2679C12.6428 30.4379 12.6855 30.5874 12.7767 30.7165C12.8192 30.9707 12.8405 31.2271 12.8408 31.4856C12.4782 31.5669 12.115 31.5669 11.7513 31.4856C11.1893 31.2068 10.9116 30.7475 10.9181 30.1077C10.9159 29.5028 11.1936 29.0862 11.7513 28.8579C11.9424 28.8282 12.1347 28.8069 12.3281 28.7938C12.3175 29.0511 12.3282 29.3074 12.3601 29.5629C12.469 29.7622 12.5331 29.9758 12.5524 30.2038C12.577 30.2394 12.609 30.2608 12.6485 30.2679Z" fill="#FA5852"/>
<path fill-rule="evenodd" clip-rule="evenodd" d="M23.2231 30.332C22.3712 30.459 21.4952 30.5018 20.5953 30.4602C20.5605 30.4563 20.5392 30.435 20.5312 30.3961C20.6239 30.2603 20.6667 30.1108 20.6594 29.9475C21.4937 29.9262 22.3269 29.9475 23.159 30.0115C23.2109 30.1122 23.2323 30.2191 23.2231 30.332Z" fill="#FA5754"/>
<path fill-rule="evenodd" clip-rule="evenodd" d="M23.2235 30.332C23.2814 30.3774 23.3027 30.4415 23.2875 30.5243C22.3789 30.5454 21.4816 30.524 20.5957 30.4602C21.4956 30.5018 22.3715 30.459 23.2235 30.332Z" fill="#481D17"/>
<path fill-rule="evenodd" clip-rule="evenodd" d="M12.6485 30.2679C12.7397 30.397 12.7824 30.5466 12.7766 30.7165C12.6854 30.5874 12.6427 30.4379 12.6485 30.2679Z" fill="#A4423F"/>
<path fill-rule="evenodd" clip-rule="evenodd" d="M21.4289 31.6779C21.4289 31.5711 21.4289 31.4643 21.4289 31.3575C21.1085 31.3575 20.788 31.3575 20.4675 31.3575C20.4655 31.6709 20.4227 31.97 20.3394 32.2547C20.3395 31.9325 20.3609 31.6121 20.4034 31.2934C20.7667 31.2934 21.1298 31.2934 21.493 31.2934C21.5119 31.4366 21.4905 31.5648 21.4289 31.6779Z" fill="#BE4642"/>
<path fill-rule="evenodd" clip-rule="evenodd" d="M21.4292 31.6779C21.4108 32.5362 21.3467 33.3908 21.2369 34.2416C20.8951 34.2416 20.5532 34.2416 20.2114 34.2416C20.2114 33.9639 20.2114 33.6861 20.2114 33.4084C20.2129 33.0102 20.2556 32.6257 20.3396 32.2547C20.423 31.97 20.4657 31.6709 20.4678 31.3575C20.7882 31.3575 21.1087 31.3575 21.4292 31.3575C21.4292 31.4643 21.4292 31.5711 21.4292 31.6779Z" fill="#F7554F"/>
<path fill-rule="evenodd" clip-rule="evenodd" d="M23.4155 31.6138C23.5256 32.1626 23.5897 32.7181 23.6077 33.2802C23.6103 33.581 23.6316 33.88 23.6718 34.1775C23.33 34.1775 22.9882 34.1775 22.6464 34.1775C22.6464 34.092 22.6464 34.0065 22.6464 33.9211C22.6401 33.6744 22.6187 33.4287 22.5823 33.1841C22.6876 32.7727 22.7197 32.3561 22.6784 31.9343C22.6356 31.7633 22.593 31.7633 22.5502 31.9343C22.4059 31.773 22.3526 31.5807 22.39 31.3575C22.7104 31.3575 23.0309 31.3575 23.3514 31.3575C23.3342 31.4599 23.3556 31.5454 23.4155 31.6138Z" fill="#F85550"/>
<path fill-rule="evenodd" clip-rule="evenodd" d="M12.7769 30.7166C12.8699 30.9629 12.9553 31.2192 13.0333 31.4857C13.0199 31.5232 12.9985 31.5553 12.9692 31.5818C12.6274 31.6245 12.2855 31.6245 11.9437 31.5818C11.8645 31.5669 11.8004 31.5349 11.7515 31.4857C12.1152 31.5669 12.4784 31.5669 12.841 31.4857C12.8407 31.2271 12.8194 30.9707 12.7769 30.7166Z" fill="#C34F4C"/>
<path fill-rule="evenodd" clip-rule="evenodd" d="M23.4157 31.6138C23.3559 31.5454 23.3345 31.4599 23.3516 31.3575C23.0312 31.3575 22.7107 31.3575 22.3903 31.3575C22.3528 31.5807 22.4062 31.773 22.5505 31.9343C22.5932 31.7633 22.6359 31.7633 22.6787 31.9343C22.7199 32.3561 22.6879 32.7727 22.5825 33.1841C22.619 33.4287 22.6404 33.6744 22.6466 33.9211C22.6253 33.9211 22.6039 33.9211 22.5825 33.9211C22.4794 33.0468 22.394 32.1709 22.3262 31.2934C22.6894 31.2934 23.0525 31.2934 23.4157 31.2934C23.4157 31.4002 23.4157 31.507 23.4157 31.6138Z" fill="#E95351"/>
<path fill-rule="evenodd" clip-rule="evenodd" d="M19.3785 34.4979C19.2003 34.4609 19.0294 34.4181 18.8657 34.3697C18.8763 34.1975 18.8656 34.0266 18.8337 33.857C18.814 33.8052 18.7819 33.7625 18.7376 33.7288C17.3831 33.3308 16.0158 32.9783 14.6357 32.6713C14.4352 32.4112 14.3177 32.1228 14.2832 31.8061C15.7073 32.7214 17.2135 32.8817 18.8017 32.2868C19.074 32.1346 19.341 31.9744 19.6028 31.8061C19.5282 32.7013 19.4534 33.5986 19.3785 34.4979Z" fill="#F55651"/>
<path fill-rule="evenodd" clip-rule="evenodd" d="M24.3772 31.9343C24.3152 32.0693 24.2938 32.2189 24.3131 32.3829C24.2402 32.2032 24.2295 32.0109 24.2811 31.8061C24.327 31.841 24.3591 31.8837 24.3772 31.9343Z" fill="#6E4F1F"/>
<path fill-rule="evenodd" clip-rule="evenodd" d="M14.9561 33.5366C15.8756 33.729 16.7943 33.932 17.712 34.1454C17.6692 34.1882 17.6266 34.2309 17.5838 34.2736C16.9574 34.4746 16.3486 34.7203 15.7572 35.0107C15.4559 34.5361 15.1888 34.0447 14.9561 33.5366Z" fill="#F75752"/>
<path fill-rule="evenodd" clip-rule="evenodd" d="M28.5435 33.4725C28.6076 33.4725 28.6717 33.4725 28.7358 33.4725C28.5251 34.0222 28.2473 34.5349 27.9026 35.0107C27.2735 34.7494 26.654 34.4717 26.0439 34.1775C26.8826 33.9307 27.7158 33.6957 28.5435 33.4725Z" fill="#F35552"/>
<path fill-rule="evenodd" clip-rule="evenodd" d="M23.6079 33.2802C23.7198 33.5973 23.7412 33.9178 23.672 34.2416C23.672 34.2202 23.672 34.1988 23.672 34.1775C23.6318 33.88 23.6105 33.581 23.6079 33.2802Z" fill="#602322"/>
<path fill-rule="evenodd" clip-rule="evenodd" d="M13.2253 33.4084C13.386 34.0109 13.3753 34.6305 13.1932 35.267C12.9317 35.8119 12.6219 36.3246 12.2639 36.8052C12.0978 35.8681 12.2153 34.9708 12.6164 34.1134C12.7909 33.8473 12.9938 33.6122 13.2253 33.4084Z" fill="#526C8C"/>
<path fill-rule="evenodd" clip-rule="evenodd" d="M22.5825 33.9211C22.6039 33.9211 22.6253 33.9211 22.6466 33.9211C22.6466 34.0065 22.6466 34.092 22.6466 34.1775C22.9884 34.1775 23.3303 34.1775 23.6721 34.1775C23.6721 34.1988 23.6721 34.2202 23.6721 34.2416C23.3089 34.2416 22.9457 34.2416 22.5825 34.2416C22.5825 34.1347 22.5825 34.028 22.5825 33.9211Z" fill="#AF4442"/>
<path fill-rule="evenodd" clip-rule="evenodd" d="M20.2112 33.4084C20.2112 33.6861 20.2112 33.9638 20.2112 34.2415C20.553 34.2415 20.8949 34.2415 21.2367 34.2415C20.8858 34.3049 20.5226 34.3263 20.1471 34.3056C20.1267 33.994 20.148 33.6948 20.2112 33.4084Z" fill="#A54541"/>
<path fill-rule="evenodd" clip-rule="evenodd" d="M30.3377 33.4084C30.9733 33.8014 31.3471 34.3782 31.4593 35.1388C31.5126 35.6955 31.5019 36.251 31.4273 36.8052C30.5888 35.828 30.2256 34.6957 30.3377 33.4084Z" fill="#56708E"/>
<path fill-rule="evenodd" clip-rule="evenodd" d="M18.8652 34.3697C19.0288 34.4181 19.1998 34.4609 19.3779 34.4979C19.4006 35.0031 19.6569 35.3129 20.147 35.4273C21.1492 35.5239 22.1533 35.5452 23.1593 35.4913C23.5856 35.4862 23.9594 35.3473 24.2809 35.0748C24.4205 34.8484 24.4952 34.6028 24.5052 34.3377C24.4499 33.6843 24.3858 33.0327 24.313 32.3829C24.2936 32.2189 24.315 32.0693 24.3771 31.9343C25.4393 32.6485 26.593 32.8301 27.838 32.479C28.383 32.3579 28.8958 32.1549 29.3762 31.8702C29.3975 31.8915 29.4189 31.9129 29.4403 31.9343C29.3411 32.1819 29.213 32.4062 29.0557 32.6072C27.814 32.9196 26.575 33.2401 25.3384 33.5686C24.7992 33.7529 24.6923 34.0733 25.018 34.53C25.833 34.9294 26.6555 35.3033 27.4855 35.6516C27.5282 35.7157 27.5282 35.7798 27.4855 35.8438C27.3039 36.1109 27.1223 36.3779 26.9407 36.645C26.3913 36.4762 25.8358 36.3053 25.2743 36.1323C23.0976 35.8492 20.9185 35.8492 18.737 36.1323C18.0721 36.2354 17.4419 36.4384 16.8463 36.7411C16.6032 36.4705 16.3895 36.1715 16.2054 35.8438C16.1627 35.7798 16.1627 35.7157 16.2054 35.6516C16.9377 35.3122 17.6748 34.981 18.4166 34.6582C18.5897 34.5933 18.7393 34.4972 18.8652 34.3697Z" fill="#FABB2A"/>
<path fill-rule="evenodd" clip-rule="evenodd" d="M14.5073 35.0107C14.4645 35.0747 14.4218 35.1388 14.3791 35.2029C14.3623 35.1082 14.3836 35.0228 14.4432 34.9466C14.4821 34.9545 14.5034 34.9759 14.5073 35.0107Z" fill="#848080"/>
<path fill-rule="evenodd" clip-rule="evenodd" d="M22.0064 36.6129C22.8409 36.6077 23.6741 36.6397 24.506 36.7091C24.9231 36.7604 25.329 36.8565 25.7237 36.9975C23.1643 38.3461 20.6007 38.3568 18.0327 37.0295C18.4053 36.8952 18.7899 36.8097 19.1864 36.7731C20.1358 36.7109 21.0758 36.6575 22.0064 36.6129Z" fill="#F7F7F8"/>
<path fill-rule="evenodd" clip-rule="evenodd" d="M21.0442 38.6639C21.1573 38.7255 21.2855 38.7469 21.4287 38.728C21.4498 39.5298 21.4284 40.3203 21.3647 41.0993C20.7079 40.7955 20.1097 40.4003 19.5701 39.9136C18.8063 39.2035 18.1012 38.4451 17.4551 37.6384C17.4764 37.6171 17.4978 37.5957 17.5192 37.5743C18.6219 38.1554 19.7969 38.5186 21.0442 38.6639Z" fill="#FBBD28"/>
<path fill-rule="evenodd" clip-rule="evenodd" d="M22.4545 41.0993C22.3276 40.3117 22.2849 39.4999 22.3263 38.6639C23.7091 38.5538 25.0122 38.1693 26.2359 37.5102C25.2414 38.9526 23.9809 40.149 22.4545 41.0993Z" fill="#FABB2A"/>
<path fill-rule="evenodd" clip-rule="evenodd" d="M22.3258 38.6638C22.2844 39.4999 22.3271 40.3117 22.454 41.0993C22.4086 41.1573 22.3445 41.1786 22.2618 41.1634C22.2407 40.3189 22.2621 39.4857 22.3258 38.6638Z" fill="#57410A"/>
<path fill-rule="evenodd" clip-rule="evenodd" d="M21.0444 38.6638C21.194 38.6638 21.3435 38.6638 21.4931 38.6638C21.5144 39.4981 21.493 40.3313 21.429 41.1634C21.3901 41.1555 21.3687 41.1341 21.3649 41.0993C21.4287 40.3203 21.4501 39.5298 21.429 38.7279C21.2857 38.7468 21.1576 38.7254 21.0444 38.6638Z" fill="#A0782C"/>
<path fill-rule="evenodd" clip-rule="evenodd" d="M22.7747 42.1889C22.6539 42.305 22.5043 42.3798 22.3261 42.4132C22.0788 42.4651 21.8439 42.4544 21.6211 42.3812C22.0225 42.4095 22.407 42.3454 22.7747 42.1889Z" fill="#BDC0C2"/>
</svg>
