<svg width="188" height="68" viewBox="0 0 188 68" fill="none" xmlns="http://www.w3.org/2000/svg">
  <g clip-path="url(#clip0_0_1)">
    <path opacity="0.0714286"
      d="M59.536 17.3735C60.9623 18.1208 61.8071 19.6456 61.6847 21.2518L59.1557 54.4358C59.0142 56.2918 57.6213 57.8102 55.7849 58.1102L25.277 63.0946C23.5974 63.369 21.9268 62.5588 21.1019 61.07L4.27944 30.7064C3.45458 29.2176 3.65322 27.3707 4.77585 26.0911L25.1674 2.84738C26.3949 1.44818 28.42 1.07096 30.0682 1.9345L59.536 17.3735Z"
      stroke="url(#paint0_linear_0_1)" stroke-width="0.424436" />
    <path opacity="0.142857"
      d="M63.9334 28.3841C64.9543 29.6292 65.1363 31.3625 64.3966 32.7929L49.1089 62.3504C48.2538 64.0038 46.3781 64.8571 44.57 64.4152L14.5417 57.0773C12.8885 56.6733 11.667 55.2747 11.4892 53.582L7.86204 19.0547C7.68422 17.3621 8.58834 15.74 10.1215 15.0009L37.9687 1.57692C39.6455 0.768638 41.6575 1.21309 42.8375 2.65244L63.9334 28.3841Z"
      stroke="url(#paint1_linear_0_1)" stroke-width="0.424436" />
    <path opacity="0.214286"
      d="M63.6859 40.2395C64.1393 41.7849 63.63 43.4518 62.3903 44.4793L36.7747 65.7108C35.3419 66.8984 33.2822 66.9506 31.7906 65.8372L7.01488 47.3435C5.65084 46.3253 5.07271 44.5603 5.5701 42.9326L15.7153 9.73251C16.2127 8.10482 17.6785 6.96501 19.3784 6.88404L50.2548 5.41341C52.1137 5.32486 53.7921 6.52045 54.3162 8.30663L63.6859 40.2395Z"
      stroke="url(#paint2_linear_0_1)" stroke-width="0.424436" />
    <path opacity="0.285714"
      d="M58.8233 51.0508C58.6371 52.6512 57.5168 53.9871 55.9739 54.4484L24.1033 63.9782C22.3208 64.5112 20.4052 63.7545 19.4673 62.147L3.88291 35.4369C3.02497 33.9664 3.18232 32.1155 4.27612 30.8113L26.5797 4.21769C27.6735 2.9135 29.4681 2.43705 31.0644 3.02704L60.0619 13.7441C61.8071 14.3892 62.8845 16.1452 62.6694 17.994L58.8233 51.0508Z"
      stroke="url(#paint3_linear_0_1)" stroke-width="0.424436" />
    <path opacity="0.357143"
      d="M50.124 59.1024C49.3273 60.5033 47.7735 61.2954 46.1724 61.1169L13.1142 57.4301C11.2656 57.224 9.79826 55.7793 9.56277 53.9336L5.64835 23.253C5.43288 21.5641 6.30094 19.9216 7.81757 19.1485L38.7322 3.38882C40.2488 2.61568 42.0872 2.8785 43.3262 4.04559L65.8342 25.2476C67.1882 26.5231 67.4939 28.5599 66.574 30.1774L50.124 59.1024Z"
      stroke="url(#paint4_linear_0_1)" stroke-width="0.424436" />
    <path opacity="0.428571"
      d="M38.9677 63.1122C37.6869 64.0905 35.9467 64.2122 34.5424 63.4218L5.55219 47.1049C3.93119 46.1926 3.14477 44.2896 3.64872 42.499L12.0276 12.7262C12.4888 11.0874 13.9296 9.91482 15.6278 9.796L50.2386 7.37458C51.9369 7.25577 53.5267 8.21637 54.2114 9.77499L66.6502 38.0913C67.3984 39.7944 66.8843 41.7883 65.406 42.9175L38.9677 63.1122Z"
      stroke="url(#paint5_linear_0_1)" stroke-width="0.424436" />
    <path opacity="0.5"
      d="M27.1349 62.4465C25.5741 62.8463 23.9249 62.2781 22.941 61.0017L2.62765 34.6488C1.49177 33.1752 1.51109 31.1159 2.67441 29.6644L22.0143 5.53435C23.0789 4.20611 24.8629 3.6899 26.4725 4.24438L59.278 15.5459C60.8875 16.1003 61.9757 17.606 61.9973 19.3084L62.3887 50.236C62.4123 52.0963 61.1603 53.731 59.3584 54.1925L27.1349 62.4465Z"
      stroke="url(#paint6_linear_0_1)" stroke-width="0.424436" />
    <path opacity="0.571429"
      d="M16.5039 57.2082C14.9116 56.9661 13.616 55.799 13.209 54.24L4.80204 22.0406C4.33188 20.2398 5.15437 18.3511 6.79263 17.4695L34.0176 2.81873C35.5163 2.01221 37.3598 2.23423 38.6245 3.37355L64.4098 26.6023C65.6745 27.7416 66.0879 29.5527 65.4429 31.1283L53.7254 59.749C53.0203 61.4712 51.2288 62.4871 49.3897 62.2075L16.5039 57.2082Z"
      stroke="url(#paint7_linear_0_1)" stroke-width="0.424436" />
    <path opacity="0.642857"
      d="M8.7624 48.2294C7.39173 47.3844 6.65537 45.8045 6.88946 44.2108L11.726 11.2841C11.9965 9.44242 13.492 8.0249 15.345 7.85375L46.1258 5.01073C47.8204 4.85421 49.4305 5.77892 50.1495 7.32163L64.8141 38.7856C65.5331 40.3283 65.2062 42.1567 63.9971 43.3549L42.0348 65.1187C40.7126 66.4289 38.666 66.6639 37.082 65.6874L8.7624 48.2294Z"
      stroke="url(#paint8_linear_0_1)" stroke-width="0.424436" />
    <path opacity="0.714286"
      d="M5.14402 36.9383C4.21247 35.6249 4.15168 33.8832 4.98939 32.508L22.3006 4.08934C23.269 2.49968 25.1996 1.77941 26.9724 2.34635L56.4159 11.7621C58.037 12.2805 59.158 13.761 59.2173 15.4619L60.4284 50.1583C60.4877 51.8592 59.4727 53.4143 57.8917 54.0445L29.1764 65.4923C27.4474 66.1816 25.4713 65.5978 24.3945 64.0796L5.14402 36.9383Z"
      stroke="url(#paint9_linear_0_1)" stroke-width="0.424436" />
    <path opacity="0.785714"
      d="M6.22671 25.1314C5.8821 23.558 6.50646 21.9307 7.81482 20.9921L34.8483 1.60014C36.3604 0.515457 38.4185 0.607086 39.8289 1.82188L63.2549 21.9997C64.5446 23.1106 64.9983 24.9117 64.3886 26.5008L51.9534 58.9118C51.3437 60.5008 49.802 61.5356 48.1006 61.4978L17.1968 60.8099C15.3362 60.7685 13.7454 59.4587 13.3472 57.6404L6.22671 25.1314Z"
      stroke="url(#paint10_linear_0_1)" stroke-width="0.424436" />
    <path opacity="0.857143"
      d="M11.8289 14.6851C12.1262 13.1015 13.3371 11.847 14.9086 11.4944L47.3658 4.21217C49.1811 3.80489 51.0391 4.69331 51.8626 6.36227L65.5469 34.0952C66.3002 35.6219 66.0142 37.4575 64.832 38.6822L40.7289 63.6542C39.5468 64.8789 37.7232 65.229 36.1719 64.529L7.9921 51.8142C6.29625 51.049 5.34397 49.2221 5.68744 47.3929L11.8289 14.6851Z"
      stroke="url(#paint11_linear_0_1)" stroke-width="0.424436" />
    <path opacity="0.928571"
      d="M21.0644 7.26077C21.9568 5.91882 23.5623 5.23701 25.1471 5.52689L57.8676 11.5118C59.6973 11.8465 61.0603 13.3899 61.1665 15.2474L62.9323 46.1268C63.0295 47.8265 62.049 49.4045 60.4821 50.07L28.5442 63.6335C26.9773 64.299 25.1617 63.9085 24.0071 62.6578L3.03204 39.9363C1.77029 38.5696 1.60741 36.5165 2.6378 34.9672L21.0644 7.26077Z"
      stroke="url(#paint12_linear_0_1)" stroke-width="0.424436" />
    <path
      d="M32.4701 4.03648C33.8159 3.14996 35.5604 3.14996 36.9062 4.03648L64.6882 22.3368C66.2416 23.3601 66.8934 25.3133 66.2659 27.0644L55.8316 56.1799C55.2572 57.7825 53.7382 58.8517 52.0358 58.8517H17.3405C15.6381 58.8517 14.1191 57.7825 13.5448 56.1799L3.11048 27.0644C2.48292 25.3133 3.13474 23.3601 4.68818 22.3368L32.4701 4.03648Z"
      stroke="url(#paint13_linear_0_1)" stroke-width="0.424436" />
  </g>
  <rect x="42.8383" y="4.71328" width="19.0734" height="7.69844" rx="3.84922" fill="black" />
  <rect x="42.8383" y="4.71328" width="19.0734" height="7.69844" rx="3.84922" stroke="url(#paint14_linear_0_1)"
    stroke-width="0.323444" />
  <path
    d="M45.5506 10.0625L46.4899 6.97856H47.3877L48.327 10.0625H47.583L47.4251 9.50141H46.4442L46.2904 10.0625H45.5506ZM46.6105 8.85719H47.2589L46.9347 7.59369L46.6105 8.85719ZM49.4303 10.0625C49.2557 10.0625 49.1117 10.0362 48.998 9.98353C48.8844 9.93089 48.7999 9.84776 48.7445 9.73416C48.6891 9.62055 48.6614 9.4737 48.6614 9.29359V6.97856H49.3804V9.17306C49.3804 9.23125 49.3887 9.27835 49.4054 9.31437C49.4248 9.3504 49.4525 9.37672 49.4885 9.39334C49.5273 9.40997 49.5716 9.41828 49.6215 9.41828H50.5566V10.0625H49.4303ZM50.9313 10.0625V6.97856H52.2613C52.3638 6.97856 52.4691 6.99103 52.5771 7.01597C52.6852 7.03814 52.7836 7.08524 52.8722 7.15728C52.9637 7.22932 53.0371 7.33877 53.0925 7.48562C53.1479 7.62971 53.1756 7.82228 53.1756 8.06334C53.1756 8.30441 53.1479 8.49975 53.0925 8.64937C53.0371 8.79623 52.965 8.90706 52.8764 8.98187C52.7905 9.05669 52.6963 9.10795 52.5938 9.13566C52.4912 9.16059 52.3915 9.17306 52.2945 9.17306C52.2446 9.17306 52.1892 9.17029 52.1283 9.16475C52.0673 9.15921 52.0063 9.15228 51.9454 9.14397C51.8844 9.13566 51.8276 9.12734 51.775 9.11903C51.7251 9.10795 51.6835 9.10102 51.6503 9.09825V10.0625H50.9313ZM51.6503 8.52884H52.1823C52.246 8.52884 52.2973 8.51222 52.3361 8.47897C52.3776 8.44572 52.4081 8.39584 52.4275 8.32934C52.4469 8.26284 52.4566 8.17556 52.4566 8.0675C52.4566 7.96498 52.4455 7.88185 52.4233 7.81812C52.404 7.75162 52.3749 7.70314 52.3361 7.67266C52.2973 7.63941 52.2474 7.62278 52.1864 7.62278H51.6503V8.52884ZM53.5827 10.0625V6.97856H54.3017V8.20881H55.3283V6.97856H56.0473V10.0625H55.3283V8.85303H54.3017V10.0625H53.5827ZM56.3754 10.0625L57.3147 6.97856H58.2125L59.1518 10.0625H58.4078L58.2499 9.50141H57.269L57.1152 10.0625H56.3754ZM57.4352 8.85719H58.0836L57.7594 7.59369L57.4352 8.85719Z"
    fill="url(#paint15_linear_0_1)" />
  <path
    d="M92.0184 27.4752C91.9709 27.2814 91.8959 27.1114 91.7935 26.9652C91.6911 26.8152 91.5632 26.6891 91.4096 26.5867C91.2597 26.4807 91.0842 26.4021 90.8831 26.3509C90.6856 26.296 90.4681 26.2686 90.2304 26.2686C89.7185 26.2686 89.2816 26.3911 88.9196 26.6361C88.5613 26.8811 88.2871 27.2339 88.0969 27.6946C87.9105 28.1553 87.8172 28.7111 87.8172 29.3619C87.8172 30.02 87.9068 30.5831 88.086 31.0511C88.2651 31.5191 88.5321 31.8775 88.8867 32.1261C89.2414 32.3747 89.682 32.4991 90.2085 32.4991C90.6728 32.4991 91.0586 32.4314 91.3657 32.2961C91.6765 32.1608 91.9087 31.9689 92.0623 31.7202C92.2158 31.4716 92.2926 31.1791 92.2926 30.8427L92.8191 30.8976H90.2524V28.7257H95.2323V30.2833C95.2323 31.3071 95.0148 32.1828 94.5797 32.9104C94.1482 33.6344 93.5522 34.1901 92.7917 34.5777C92.0348 34.9616 91.1665 35.1536 90.1866 35.1536C89.0933 35.1536 88.1335 34.9214 87.3072 34.457C86.4808 33.9927 85.8355 33.3309 85.3711 32.4716C84.9104 31.6124 84.6801 30.5904 84.6801 29.4058C84.6801 28.4771 84.8209 27.6544 85.1024 26.9377C85.3876 26.2211 85.7825 25.616 86.2871 25.1224C86.7916 24.6251 87.3748 24.2503 88.0366 23.998C88.6984 23.7421 89.4077 23.6141 90.1646 23.6141C90.8301 23.6141 91.448 23.7092 92.0184 23.8993C92.5924 24.0858 93.0988 24.3527 93.5376 24.7C93.98 25.0437 94.3365 25.4514 94.6071 25.9231C94.8777 26.3948 95.0422 26.9121 95.1007 27.4752H92.0184ZM106.373 23.7677V35H103.828L99.7694 29.0986H99.7036V35H96.6542V23.7677H99.2429L103.236 29.6471H103.323V23.7677H106.373ZM118.697 29.3838C118.697 30.6343 118.453 31.6892 117.967 32.5484C117.481 33.404 116.824 34.053 115.998 34.4954C115.172 34.9342 114.25 35.1536 113.234 35.1536C112.21 35.1536 111.285 34.9324 110.459 34.4899C109.636 34.0439 108.982 33.393 108.495 32.5374C108.013 31.6782 107.771 30.627 107.771 29.3838C107.771 28.1334 108.013 27.0803 108.495 26.2247C108.982 25.3655 109.636 24.7165 110.459 24.2777C111.285 23.8353 112.21 23.6141 113.234 23.6141C114.25 23.6141 115.172 23.8353 115.998 24.2777C116.824 24.7165 117.481 25.3655 117.967 26.2247C118.453 27.0803 118.697 28.1334 118.697 29.3838ZM115.559 29.3838C115.559 28.7111 115.47 28.1443 115.291 27.6836C115.115 27.2193 114.854 26.8683 114.506 26.6306C114.163 26.3893 113.739 26.2686 113.234 26.2686C112.729 26.2686 112.303 26.3893 111.956 26.6306C111.612 26.8683 111.351 27.2193 111.172 27.6836C110.996 28.1443 110.908 28.7111 110.908 29.3838C110.908 30.0566 110.996 30.6252 111.172 31.0895C111.351 31.5502 111.612 31.9012 111.956 32.1426C112.303 32.3802 112.729 32.4991 113.234 32.4991C113.739 32.4991 114.163 32.3802 114.506 32.1426C114.854 31.9012 115.115 31.5502 115.291 31.0895C115.47 30.6252 115.559 30.0566 115.559 29.3838ZM119.272 26.2247V23.7677H129.035V26.2247H125.656V35H122.651V26.2247H119.272ZM130.183 35V23.7677H135.031C135.864 23.7677 136.594 23.9194 137.219 24.2229C137.844 24.5264 138.331 24.9633 138.678 25.5337C139.025 26.1041 139.199 26.7878 139.199 27.5849C139.199 28.3893 139.02 29.0676 138.662 29.6197C138.307 30.1718 137.808 30.5886 137.164 30.8701C136.524 31.1517 135.777 31.2925 134.921 31.2925H132.025V28.9231H134.307C134.665 28.9231 134.971 28.8793 135.223 28.7915C135.479 28.7001 135.674 28.5557 135.81 28.3582C135.949 28.1608 136.018 27.903 136.018 27.5849C136.018 27.2632 135.949 27.0017 135.81 26.8006C135.674 26.5959 135.479 26.446 135.223 26.3509C134.971 26.2522 134.665 26.2028 134.307 26.2028H133.232V35H130.183ZM136.764 29.8445L139.572 35H136.259L133.517 29.8445H136.764ZM143.548 23.7677V35H140.499V23.7677H143.548ZM144.993 35V23.7677H149.864C150.719 23.7677 151.438 23.8829 152.019 24.1132C152.604 24.3436 153.045 24.669 153.341 25.0894C153.641 25.5099 153.791 26.0054 153.791 26.5758C153.791 26.9889 153.699 27.3655 153.516 27.7056C153.337 28.0456 153.085 28.3308 152.76 28.5612C152.434 28.7879 152.054 28.9451 151.619 29.0328V29.1425C152.101 29.1608 152.54 29.2833 152.935 29.51C153.33 29.733 153.644 30.042 153.878 30.4369C154.112 30.8281 154.229 31.2888 154.229 31.819C154.229 32.4332 154.069 32.9799 153.747 33.4588C153.429 33.9378 152.975 34.3144 152.387 34.5887C151.798 34.8629 151.096 35 150.281 35H144.993ZM148.043 32.5649H149.469C149.981 32.5649 150.365 32.4698 150.621 32.2797C150.877 32.0859 151.005 31.8007 151.005 31.4241C151.005 31.1608 150.944 30.9378 150.824 30.755C150.703 30.5722 150.531 30.4332 150.308 30.3381C150.089 30.2431 149.824 30.1955 149.513 30.1955H148.043V32.5649ZM148.043 28.3089H149.293C149.56 28.3089 149.796 28.2668 150.001 28.1827C150.206 28.0986 150.365 27.978 150.478 27.8207C150.595 27.6599 150.654 27.4643 150.654 27.2339C150.654 26.8865 150.529 26.6215 150.281 26.4386C150.032 26.2522 149.717 26.1589 149.337 26.1589H148.043V28.3089ZM155.31 35V23.7677H163.405V26.2247H158.359V28.1553H162.988V30.6124H158.359V32.5429H163.383V35H155.31Z"
    fill="#36414C" />
  <path fill-rule="evenodd" clip-rule="evenodd"
    d="M42.5045 22.4759C41.9805 23.7388 41.4892 25.0207 41.0304 26.3214C41.0373 26.3818 41.0587 26.4352 41.0945 26.4816C41.4081 26.5648 41.7179 26.661 42.0238 26.7701C42.6456 25.4196 43.3186 24.095 44.0427 22.7964C44.8161 21.3703 45.8201 20.1206 47.055 19.047C47.4181 18.7798 47.8027 18.5449 48.2086 18.342C49.1915 18.2583 49.48 18.6749 49.0739 19.5918C48.5133 21.1619 47.8296 22.6786 47.0229 24.1423C46.4072 25.4807 45.809 26.8266 45.2284 28.1801C45.3271 28.8724 45.3484 29.5775 45.2925 30.2951C45.1703 31.9229 45.0101 33.5465 44.8118 35.166C44.7223 35.5595 44.6582 35.9655 44.6195 36.3838C44.7049 36.3838 44.7904 36.3838 44.8759 36.3838C46.342 36.7176 47.1111 37.6363 47.1832 39.1397C47.1161 40.7241 46.3042 41.6854 44.7477 42.0238C45.5594 43.177 45.8906 44.4589 45.7411 45.8693C45.6017 46.4911 45.4521 47.1106 45.2925 47.728C44.9729 48.2299 44.5884 48.294 44.1388 47.9202C43.556 46.9898 43.0218 46.0285 42.5365 45.0361C42.4397 44.67 42.3329 44.3068 42.2161 43.9466C40.9913 46.3469 39.357 48.4299 37.3131 50.1955C36.8071 50.5441 36.2944 50.8753 35.7749 51.1889C35.4072 51.3454 35.0226 51.4095 34.6212 51.3812C33.9502 51.1738 33.3306 50.8641 32.7626 50.4519C30.526 48.6964 28.7741 46.5493 27.5071 44.0107C27.5032 43.9759 27.4819 43.9545 27.443 43.9466C27.3835 44.0228 27.3621 44.1082 27.3789 44.2029C27.2892 44.6963 27.129 45.1663 26.8982 45.6129C26.4389 46.4141 25.9796 47.2152 25.5203 48.0164C25.1074 48.2807 24.7763 48.2059 24.5268 47.7921C23.8091 46.1008 23.8091 44.413 24.5268 42.7288C24.6746 42.485 24.8348 42.2501 25.0075 42.0238C23.18 41.5945 22.3575 40.4409 22.54 38.5629C22.8913 37.261 23.7352 36.5132 25.0716 36.3197C24.6287 33.7323 24.4044 31.1259 24.3987 28.5005C24.44 28.4271 24.4934 28.363 24.5589 28.3082C23.4433 25.7351 22.2576 23.1928 21.0018 20.6814C20.7615 20.0993 20.5799 19.5012 20.457 18.8868C20.5069 18.527 20.7099 18.3347 21.0659 18.31C21.6022 18.3805 22.0828 18.5834 22.508 18.9188C23.8047 19.9906 24.8515 21.2618 25.6484 22.7323C26.4029 24.0218 27.0438 25.3677 27.5712 26.7701C27.9473 26.6304 28.3319 26.5022 28.7248 26.3855C28.3098 25.2145 27.8612 24.0608 27.3789 22.9246C27.3298 22.6907 27.2443 22.4771 27.1225 22.2837C26.1967 19.8009 25.2781 17.3121 24.3666 14.817C24.3872 14.4978 24.5367 14.2628 24.8153 14.112C25.224 14.0333 25.5337 14.1722 25.7446 14.5286C26.0257 15.0732 26.2821 15.6286 26.5137 16.195C26.5715 16.2719 26.6463 16.3254 26.738 16.3552C26.9506 16.3871 27.1642 16.3978 27.3789 16.3872C27.2387 15.9134 27.0785 15.4434 26.8982 14.9772C26.8069 14.4551 27.0206 14.1346 27.5391 14.0159C27.8723 14.0649 28.15 14.2144 28.3723 14.4645C29.2018 16.3574 29.9389 18.2801 30.5835 20.2327C30.8338 20.1616 31.0902 20.1082 31.3526 20.0725C31.4217 20.0293 31.4644 19.9652 31.4808 19.8802C30.9628 17.7658 30.5569 15.6294 30.263 13.4711C30.3706 12.7461 30.7552 12.5538 31.4167 12.8942C32.0357 13.6294 32.5164 14.4519 32.8587 15.3618C32.9588 14.3393 33.3754 13.4741 34.1085 12.7661C34.847 12.3867 35.4987 12.5042 36.0633 13.1186C36.555 13.7607 36.8328 14.4871 36.8965 15.2977C37.1732 14.7442 37.4509 14.1888 37.7297 13.6313C37.9235 13.296 38.1692 13.0076 38.4667 12.7661C38.8939 12.654 39.2037 12.7929 39.3961 13.1827C39.4253 13.9586 39.3612 14.7277 39.2038 15.49C38.8924 17.0342 38.5613 18.5724 38.2104 20.1045C38.5117 20.1338 38.8108 20.1766 39.1076 20.2327C39.7986 18.2314 40.5784 16.2659 41.447 14.3363C41.7605 14.0623 42.113 14.0088 42.5045 14.1761C42.7418 14.3937 42.8166 14.6608 42.7288 14.9772C42.5874 15.3907 42.4272 15.7967 42.2481 16.195C42.5707 16.3763 42.8805 16.3549 43.1775 16.1309C43.4475 15.6335 43.6826 15.1207 43.8825 14.5927C44.3073 13.9339 44.7559 13.9126 45.2284 14.5286C45.2711 14.7209 45.2711 14.9131 45.2284 15.1054C44.3263 17.5662 43.4183 20.0231 42.5045 22.4759Z"
    fill="#040303" />
  <path fill-rule="evenodd" clip-rule="evenodd"
    d="M34.2365 13.5672C34.2792 16.3659 34.3219 19.1645 34.3647 21.9632C34.3647 23.2023 34.3647 24.4414 34.3647 25.6805C34.2578 25.6805 34.1511 25.6805 34.0442 25.6805C34.0442 25.6164 34.0442 25.5523 34.0442 25.4882C34.0548 25.2522 34.0442 25.0173 34.0122 24.7832C33.9973 24.7039 33.9653 24.6398 33.916 24.5909C33.7667 23.4398 33.6385 22.2861 33.5315 21.13C33.4772 19.5283 33.4559 17.9261 33.4674 16.3231C33.4612 15.4723 33.6214 14.6604 33.9481 13.8877C34.0153 13.7519 34.1114 13.6451 34.2365 13.5672Z"
    fill="#FDBF21" />
  <path fill-rule="evenodd" clip-rule="evenodd"
    d="M35.5825 13.6313C35.5397 15.4259 35.497 17.2204 35.4543 19.015C35.4329 17.1772 35.4543 15.3399 35.5184 13.5031C35.5695 13.5324 35.5909 13.5752 35.5825 13.6313Z"
    fill="#CE9834" />
  <path fill-rule="evenodd" clip-rule="evenodd"
    d="M36.2875 15.8745C36.2875 16.0027 36.2875 16.1308 36.2875 16.259C36.2755 16.9118 36.2969 17.5633 36.3515 18.2138C36.2492 18.9889 36.1958 19.7687 36.1913 20.5532C36.17 20.4677 36.1486 20.3822 36.1272 20.2968C36.0499 21.1347 35.943 21.9678 35.8068 22.7964C35.764 22.8391 35.7213 22.8818 35.6786 22.9245C35.5783 20.3405 35.5569 17.7555 35.6145 15.1695C35.6817 15.2725 35.7779 15.3151 35.9029 15.2977C35.9348 15.4891 35.9669 15.6814 35.999 15.8745C36.0269 15.615 36.0269 15.3587 35.999 15.1054C36.0256 15.1347 36.0576 15.1561 36.0952 15.1695C36.148 15.38 36.18 15.5936 36.1913 15.8104C36.2159 15.846 36.2479 15.8674 36.2875 15.8745Z"
    fill="#FEBE1E" />
  <path fill-rule="evenodd" clip-rule="evenodd"
    d="M34.3655 21.9632C34.3227 19.1645 34.2801 16.3659 34.2373 13.5672C34.2554 13.5166 34.2875 13.4739 34.3334 13.439C34.3655 16.2803 34.3762 19.1217 34.3655 21.9632Z"
    fill="#987226" />
  <path fill-rule="evenodd" clip-rule="evenodd"
    d="M28.4041 17.9254C28.3013 17.875 28.2585 17.7895 28.2759 17.669C28.1905 17.669 28.105 17.669 28.0195 17.669C28.0854 17.5826 28.1708 17.5506 28.2759 17.5729C28.3377 17.6835 28.3804 17.801 28.4041 17.9254Z"
    fill="#9D3D3C" />
  <path fill-rule="evenodd" clip-rule="evenodd"
    d="M41.3506 21.835C41.2516 22.0163 41.1021 22.1552 40.902 22.2516C40.9234 22.273 40.9448 22.2944 40.9661 22.3157C40.7601 22.8241 40.5999 23.3475 40.4854 23.8859C40.4588 24.0007 40.3947 24.0862 40.2931 24.1423C40.1832 24.7607 40.0016 25.3589 39.7484 25.9369C39.695 25.9582 39.6415 25.9796 39.5881 26.001C39.3352 25.9012 39.0682 25.8478 38.787 25.8407C38.7255 25.6017 38.7041 25.356 38.7229 25.1037C39.5892 22.6233 40.4757 20.1451 41.3827 17.6691C41.4187 17.6356 41.4614 17.6143 41.5109 17.605C41.9212 17.8383 42.3485 17.8596 42.7927 17.6691C42.8248 17.6904 42.8568 17.7118 42.8888 17.7332C42.4118 19.1225 41.8991 20.4898 41.3506 21.835Z"
    fill="#F75652" />
  <path fill-rule="evenodd" clip-rule="evenodd"
    d="M33.4675 16.3232C33.456 17.9261 33.4773 19.5284 33.5316 21.13C33.4093 20.4182 33.3452 19.6918 33.3394 18.9509C33.3602 18.0637 33.4029 17.1878 33.4675 16.3232Z"
    fill="#E5AE33" />
  <path fill-rule="evenodd" clip-rule="evenodd"
    d="M28.7246 18.8868C28.9968 19.4894 29.2318 20.1089 29.4296 20.7454C29.3418 20.7226 29.2777 20.6692 29.2373 20.5852C29.1688 20.2838 29.0726 19.9954 28.9489 19.72C28.9276 19.8054 28.9062 19.8909 28.8848 19.9763C28.8716 19.6043 28.8182 19.2411 28.7246 18.8868Z"
    fill="#CC4F4A" />
  <path fill-rule="evenodd" clip-rule="evenodd"
    d="M28.0195 17.6691C28.1049 17.6691 28.1904 17.6691 28.2759 17.6691C28.2585 17.7896 28.3012 17.875 28.404 17.9254C28.5014 18.2517 28.6082 18.5721 28.7245 18.8868C28.8181 19.2412 28.8715 19.6044 28.8847 19.9764C28.9061 19.8909 28.9275 19.8054 28.9488 19.72C29.0725 19.9955 29.1687 20.2839 29.2372 20.5852C29.2776 20.6692 29.3417 20.7226 29.4295 20.7455C30.0597 22.4215 30.6792 24.1092 31.2882 25.8087C30.8873 25.9147 30.4814 26.0001 30.0704 26.0651C29.9235 25.9438 29.806 25.7943 29.7179 25.6164C28.7792 22.9801 27.8071 20.363 26.8018 17.7652C27.2139 17.8317 27.6198 17.7996 28.0195 17.6691Z"
    fill="#F85653" />
  <path fill-rule="evenodd" clip-rule="evenodd"
    d="M35.5828 13.6313C35.8463 13.923 36.0279 14.2648 36.1276 14.6568C36.2352 15.056 36.2886 15.4619 36.2878 15.8745C36.2482 15.8674 36.2162 15.846 36.1916 15.8104C36.1804 15.5936 36.1483 15.38 36.0955 15.1695C36.0579 15.1561 36.0259 15.1347 35.9994 15.1054C36.0272 15.3587 36.0272 15.615 35.9994 15.8745C35.9672 15.6814 35.9351 15.4891 35.9032 15.2977C35.7782 15.3152 35.6821 15.2725 35.6148 15.1695C35.5573 17.7555 35.5786 20.3405 35.6789 22.9245C35.7217 22.8818 35.7643 22.8391 35.8071 22.7964C35.9434 21.9679 36.0502 21.1347 36.1276 20.2968C36.1489 20.3822 36.1703 20.4677 36.1916 20.5532C36.1961 19.7687 36.2495 18.9889 36.3519 18.2138C36.2972 17.5634 36.2759 16.9118 36.2878 16.259C36.4734 17.4406 36.5161 18.637 36.416 19.8482C36.2124 21.7756 35.9774 23.6983 35.711 25.6164C35.6255 25.6164 35.54 25.6164 35.4546 25.6164C35.4546 24.9327 35.4546 24.2491 35.4546 23.5655C35.4546 22.0486 35.4546 20.5318 35.4546 19.015C35.4973 17.2204 35.54 15.4258 35.5828 13.6313Z"
    fill="#F5BB28" />
  <path fill-rule="evenodd" clip-rule="evenodd"
    d="M46.9265 21.0659C46.9827 21.0575 47.0254 21.0789 47.0547 21.13C45.9747 23.2259 44.9813 25.3623 44.0745 27.5392C44.0385 27.5726 43.9957 27.594 43.9463 27.6033C43.7162 27.5259 43.5133 27.4084 43.3374 27.2508C44.1053 25.4688 45.0133 23.7704 46.0613 22.1555C46.3405 21.7807 46.6289 21.4175 46.9265 21.0659Z"
    fill="#F5F5F5" />
  <path fill-rule="evenodd" clip-rule="evenodd"
    d="M22.6362 21.0018C23.2416 21.5968 23.765 22.2591 24.2065 22.9886C24.9942 24.286 25.6992 25.632 26.3215 27.0264C26.3642 27.1118 26.3642 27.1973 26.3215 27.2828C26.1152 27.4331 25.8909 27.54 25.6485 27.6032C25.3577 26.8289 25.0479 26.0598 24.7192 25.2959C24.0231 23.8612 23.3288 22.4298 22.6362 21.0018Z"
    fill="#F4F4F4" />
  <path fill-rule="evenodd" clip-rule="evenodd"
    d="M41.3514 21.835C40.8481 23.2726 40.3354 24.7039 39.8132 26.1291C39.3699 26.0303 38.9212 25.9662 38.4673 25.9369C38.4772 25.6299 38.5626 25.3522 38.7237 25.1037C38.7049 25.356 38.7262 25.6017 38.7877 25.8407C39.0689 25.8479 39.336 25.9012 39.5889 26.001C39.6423 25.9796 39.6957 25.9582 39.7491 25.9369C40.0023 25.3589 40.1839 24.7607 40.2939 24.1423C40.3955 24.0862 40.4596 24.0007 40.4862 23.8859C40.6006 23.3475 40.7609 22.8241 40.9669 22.3157C40.9455 22.2944 40.9241 22.273 40.9028 22.2516C41.1029 22.1552 41.2524 22.0163 41.3514 21.835Z"
    fill="#E95654" />
  <path fill-rule="evenodd" clip-rule="evenodd"
    d="M27.0584 22.54C27.1659 22.6708 27.2728 22.7989 27.3789 22.9246C27.8612 24.0608 28.3098 25.2145 28.7248 26.3855C28.3319 26.5022 27.9473 26.6304 27.5712 26.77C27.0438 25.3677 26.4029 24.0218 25.6484 22.7323C25.8028 22.3123 26.1019 22.1521 26.5457 22.2516C26.7097 22.3655 26.8807 22.4616 27.0584 22.54Z"
    fill="#FABC2A" />
  <path fill-rule="evenodd" clip-rule="evenodd"
    d="M44.0426 22.7964C43.3185 24.095 42.6455 25.4196 42.0237 26.7701C41.7178 26.661 41.408 26.5649 41.0944 26.4817C41.0585 26.4352 41.0372 26.3818 41.0303 26.3214C41.489 25.0207 41.9804 23.7389 42.5044 22.4759C42.6704 22.4357 42.8199 22.3609 42.953 22.2516C43.4847 22.1127 43.8479 22.2942 44.0426 22.7964Z"
    fill="#FBBC2B" />
  <path fill-rule="evenodd" clip-rule="evenodd"
    d="M27.1227 22.2837C27.2445 22.4771 27.3299 22.6907 27.3791 22.9246C27.2729 22.799 27.1661 22.6708 27.0586 22.54C27.1185 22.4716 27.1399 22.3861 27.1227 22.2837Z"
    fill="#DCD0B1" />
  <path fill-rule="evenodd" clip-rule="evenodd"
    d="M35.4547 23.5655C35.4547 24.2491 35.4547 24.9327 35.4547 25.6164C35.5402 25.6164 35.6257 25.6164 35.7111 25.6164C35.6201 25.6773 35.5134 25.6987 35.3906 25.6805C35.3696 24.964 35.391 24.259 35.4547 23.5655Z"
    fill="#9D7017" />
  <path fill-rule="evenodd" clip-rule="evenodd"
    d="M33.9165 24.5909C33.9657 24.6398 33.9978 24.7039 34.0126 24.7832C34.0446 25.0173 34.0553 25.2522 34.0447 25.4882C33.9714 25.2021 33.9287 24.9031 33.9165 24.5909Z"
    fill="#C08D29" />
  <path fill-rule="evenodd" clip-rule="evenodd"
    d="M31.2242 28.7569C30.9475 28.7302 30.6911 28.7729 30.4551 28.8851C29.9804 28.9159 29.5104 28.98 29.0451 29.0773C29.0563 28.9414 29.0349 28.8132 28.981 28.6928C28.8874 28.2677 28.802 27.8404 28.7246 27.411C29.6775 27.105 30.6603 26.9128 31.6728 26.8341C31.9676 26.8482 32.2453 26.8056 32.506 26.706C33.0391 26.6478 33.5732 26.6372 34.1083 26.6739C34.1671 27.0973 34.2633 27.5139 34.3967 27.9237C34.4286 28.1363 34.4393 28.3499 34.4288 28.5646C33.3569 28.5822 32.2888 28.6463 31.2242 28.7569Z"
    fill="#FBBC2A" />
  <path fill-rule="evenodd" clip-rule="evenodd"
    d="M41.0302 27.411C40.8859 27.9402 40.7577 28.4743 40.6457 29.0133C40.1632 28.8944 39.6719 28.8303 39.1716 28.821C38.2027 28.7154 37.2413 28.6299 36.2875 28.5646C35.9795 28.5014 35.659 28.48 35.3261 28.5005C35.2815 28.1476 35.399 28.0407 35.6786 28.1801C35.7244 27.9242 35.6924 27.6786 35.5824 27.443C35.6344 27.2 35.6558 26.9543 35.6465 26.706C37.468 26.6517 39.2625 26.8867 41.0302 27.411Z"
    fill="#FBBC2B" />
  <path fill-rule="evenodd" clip-rule="evenodd"
    d="M32.506 26.706C32.2454 26.8056 31.9677 26.8482 31.6729 26.8341C31.9335 26.7345 32.2112 26.6919 32.506 26.706Z"
    fill="#B78B31" />
  <path fill-rule="evenodd" clip-rule="evenodd"
    d="M35.6468 26.706C35.656 26.9543 35.6346 27.2 35.5827 27.443C35.6926 27.6786 35.7246 27.9242 35.6788 28.1801C35.3992 28.0407 35.2818 28.1476 35.3263 28.5005C35.6593 28.48 35.9797 28.5014 36.2877 28.5646C35.9459 28.5646 35.604 28.5646 35.2622 28.5646C35.3292 27.9258 35.4574 27.3062 35.6468 26.706Z"
    fill="#E4AC32" />
  <path fill-rule="evenodd" clip-rule="evenodd"
    d="M41.0305 27.411C42.1541 27.7698 43.2223 28.2505 44.2351 28.853C44.3053 29.3118 44.284 29.7711 44.171 30.231C43.0269 29.7428 41.8519 29.3583 40.646 29.0774C40.646 29.056 40.646 29.0346 40.646 29.0133C40.758 28.4743 40.8862 27.9402 41.0305 27.411Z"
    fill="#526D8E" />
  <path fill-rule="evenodd" clip-rule="evenodd"
    d="M28.6611 27.4109C28.6825 27.4109 28.7039 27.4109 28.7252 27.4109C28.8026 27.8404 28.888 28.2677 28.9816 28.6928C28.9202 28.6637 28.8667 28.6211 28.8214 28.5646C28.7748 28.1784 28.7214 27.7939 28.6611 27.4109Z"
    fill="#6A727B" />
  <path fill-rule="evenodd" clip-rule="evenodd"
    d="M31.2242 28.7569C30.9796 28.8198 30.7232 28.8626 30.4551 28.8851C30.6911 28.7729 30.9475 28.7302 31.2242 28.7569Z"
    fill="#4C3814" />
  <path fill-rule="evenodd" clip-rule="evenodd"
    d="M28.6608 27.411C28.721 27.7939 28.7744 28.1785 28.821 28.5646C28.8664 28.6211 28.9198 28.6638 28.9812 28.6928C29.0351 28.8132 29.0565 28.9414 29.0453 29.0774C27.7961 29.3585 26.5784 29.743 25.3921 30.231C25.372 29.7447 25.3933 29.2641 25.4562 28.7889C26.474 28.2112 27.5422 27.7518 28.6608 27.411Z"
    fill="#516C8D" />
  <path fill-rule="evenodd" clip-rule="evenodd"
    d="M39.1719 28.821C39.6722 28.8303 40.1635 28.8944 40.646 29.0132C40.646 29.0346 40.646 29.056 40.646 29.0773C40.1408 29.0252 39.6494 28.9398 39.1719 28.821Z"
    fill="#C49733" />
  <path fill-rule="evenodd" clip-rule="evenodd"
    d="M33.5957 29.3978C33.8822 29.3346 34.1813 29.3133 34.493 29.3337C34.5082 29.4164 34.4868 29.4805 34.4289 29.526C34.1807 29.4023 33.903 29.3595 33.5957 29.3978Z"
    fill="#441515" />
  <path fill-rule="evenodd" clip-rule="evenodd"
    d="M31.2243 29.5901C30.7908 29.7013 30.3422 29.7654 29.8784 29.7824C30.3111 29.6656 30.7597 29.6015 31.2243 29.5901Z"
    fill="#A4413E" />
  <path fill-rule="evenodd" clip-rule="evenodd"
    d="M44.1067 32.2819C44.0468 32.3504 44.0254 32.4358 44.0426 32.5383C43.9785 32.5383 43.9144 32.5383 43.8503 32.5383C43.3708 32.414 42.9008 32.2645 42.4403 32.0896C42.3112 31.9984 42.1617 31.9557 41.9917 31.9614C41.517 31.8748 41.0469 31.768 40.5817 31.641C40.0182 31.3874 39.4201 31.2807 38.7871 31.3205C38.5039 31.2262 38.2048 31.1835 37.8898 31.1924C37.3329 31.1877 36.7775 31.1556 36.2235 31.0962C35.9153 30.5545 35.6162 30.0097 35.3262 29.4619C38.3949 29.2995 41.3218 29.855 44.1067 31.1283C44.1584 31.511 44.1584 31.8956 44.1067 32.2819Z"
    fill="#FA5753" />
  <path fill-rule="evenodd" clip-rule="evenodd"
    d="M29.8144 29.7824C29.6852 29.8736 29.5357 29.9163 29.3657 29.9106C29.4949 29.8193 29.6444 29.7766 29.8144 29.7824Z"
    fill="#973E38" />
  <path fill-rule="evenodd" clip-rule="evenodd"
    d="M28.7249 30.0387C28.4525 30.1651 28.1533 30.2505 27.8276 30.2951C28.1036 30.1511 28.4026 30.0656 28.7249 30.0387Z"
    fill="#B34644" />
  <path fill-rule="evenodd" clip-rule="evenodd"
    d="M33.5956 29.3978C33.9028 29.3595 34.1805 29.4023 34.4287 29.526C34.1601 30.0328 33.9038 30.5455 33.6596 31.0642C33.2391 31.0537 32.8332 31.0965 32.4419 31.1924C31.3213 31.2683 30.2104 31.4179 29.1092 31.641C28.9392 31.6352 28.7897 31.6779 28.6605 31.7692C27.793 31.9647 26.9384 32.1997 26.0969 32.4742C25.9655 32.5037 25.8373 32.5465 25.7123 32.6024C25.669 32.5317 25.6263 32.4677 25.5841 32.4101C25.5585 31.9663 25.5585 31.5283 25.5841 31.0962C26.3072 30.7558 27.055 30.4888 27.8273 30.2951C28.153 30.2505 28.4522 30.165 28.7246 30.0387C28.9255 29.9411 29.1391 29.8984 29.3655 29.9105C29.5355 29.9163 29.685 29.8736 29.8142 29.7824C29.8355 29.7824 29.8569 29.7824 29.8782 29.7824C30.342 29.7654 30.7907 29.7013 31.2242 29.5901C32.0012 29.4788 32.7917 29.4147 33.5956 29.3978Z"
    fill="#FA5652" />
  <path fill-rule="evenodd" clip-rule="evenodd"
    d="M33.6601 31.0642C33.2681 31.1526 32.8622 31.1953 32.4424 31.1924C32.8337 31.0965 33.2396 31.0537 33.6601 31.0642Z"
    fill="#692523" />
  <path fill-rule="evenodd" clip-rule="evenodd"
    d="M37.8896 31.1924C38.2046 31.1835 38.5037 31.2262 38.7869 31.3205C38.472 31.3294 38.1729 31.2867 37.8896 31.1924Z"
    fill="#993C3A" />
  <path fill-rule="evenodd" clip-rule="evenodd"
    d="M38.7871 31.3206C39.4201 31.2807 40.0182 31.3875 40.5817 31.641C39.9725 31.5489 39.3743 31.4421 38.7871 31.3206Z"
    fill="#B54643" />
  <path fill-rule="evenodd" clip-rule="evenodd"
    d="M29.1098 31.641C28.9806 31.7323 28.8311 31.775 28.6611 31.7692C28.7903 31.6779 28.9398 31.6352 29.1098 31.641Z"
    fill="#531816" />
  <path fill-rule="evenodd" clip-rule="evenodd"
    d="M34.6212 31.8333C35.8636 31.8043 36.4298 32.4026 36.3196 33.6279C35.9946 34.4688 35.3858 34.8 34.493 34.6213C33.7518 34.2387 33.4633 33.6298 33.6278 32.7947C33.8269 32.3284 34.158 32.008 34.6212 31.8333Z"
    fill="#F8F8F8" />
  <path fill-rule="evenodd" clip-rule="evenodd"
    d="M41.9917 31.9615C42.1617 31.9557 42.3112 31.9984 42.4403 32.0897C42.2704 32.0954 42.1208 32.0527 41.9917 31.9615Z"
    fill="#9B413A" />
  <path fill-rule="evenodd" clip-rule="evenodd"
    d="M44.107 32.2819C44.107 32.3888 44.107 32.4955 44.107 32.6024C44.0045 32.6196 43.919 32.5981 43.8506 32.5383C43.9147 32.5383 43.9788 32.5383 44.0429 32.5383C44.0257 32.4358 44.0471 32.3504 44.107 32.2819Z"
    fill="#702826" />
  <path fill-rule="evenodd" clip-rule="evenodd"
    d="M25.5845 32.4101C25.6266 32.4676 25.6693 32.5317 25.7127 32.6024C25.8376 32.5465 25.9658 32.5037 26.0972 32.4742C25.9615 32.6123 25.7906 32.6764 25.5845 32.6665C25.5845 32.581 25.5845 32.4955 25.5845 32.4101Z"
    fill="#4E191A" />
  <path fill-rule="evenodd" clip-rule="evenodd"
    d="M34.7493 32.7947C35.2403 32.741 35.4646 32.9546 35.4223 33.4356C35.1296 33.861 34.8305 33.861 34.525 33.4356C34.4726 33.1772 34.5474 32.9636 34.7493 32.7947Z"
    fill="#0C0D0C" />
  <path fill-rule="evenodd" clip-rule="evenodd"
    d="M38.7875 34.2047C38.3184 34.1535 37.8483 34.1108 37.3774 34.0765C37.482 33.6571 37.5248 33.2298 37.5056 32.7946C39.7219 32.8987 41.8476 33.3901 43.8827 34.2688C43.9255 34.4397 43.9255 34.6106 43.8827 34.7815C43.8371 35.1111 43.773 35.4316 43.6905 35.7429C42.329 34.374 40.6946 33.8613 38.7875 34.2047Z"
    fill="#546E8F" />
  <path fill-rule="evenodd" clip-rule="evenodd"
    d="M32.5707 34.0765C32.031 34.0677 31.497 34.1104 30.9684 34.2047C29.021 33.8284 27.3759 34.3625 26.0333 35.8069C25.8689 35.2818 25.8261 34.7477 25.9052 34.2047C28.0017 33.3496 30.1808 32.8796 32.4425 32.7946C32.4233 33.2294 32.466 33.6566 32.5707 34.0765Z"
    fill="#536D8E" />
  <path fill-rule="evenodd" clip-rule="evenodd"
    d="M32.5705 34.0765C33.395 35.7412 34.6554 36.1792 36.3519 35.3903C36.8033 35.0355 37.1451 34.5975 37.3774 34.0765C37.8483 34.1108 38.3183 34.1534 38.7874 34.2047C37.126 34.9298 36.2287 36.2116 36.0956 38.0501C35.3265 38.0501 34.5574 38.0501 33.7883 38.0501C33.8035 37.9674 33.7821 37.9033 33.7242 37.8579C33.5051 36.102 32.5865 34.8843 30.9683 34.2047C31.4968 34.1104 32.0309 34.0677 32.5705 34.0765Z"
    fill="#F95753" />
  <path fill-rule="evenodd" clip-rule="evenodd"
    d="M26.2255 37.1529C26.1827 37.1101 26.14 37.0674 26.0973 37.0247C26.5909 36.0511 27.36 35.3782 28.4046 35.0058C30.7369 34.3611 32.2644 35.1836 32.9871 37.4733C33.2129 39.6187 32.2515 40.7724 30.103 40.9343C28.0796 40.9077 26.723 39.9463 26.0332 38.0501C26.3332 38.0389 26.6323 38.0924 26.9305 38.2104C27.3791 39.012 28.02 39.6102 28.8532 40.0049C29.7632 40.2989 30.6177 40.1921 31.4169 39.6845C32.0444 38.8252 32.1619 37.8959 31.7694 36.8965C31.5078 36.3143 31.0698 35.9404 30.4555 35.7749C30.0496 35.7321 29.6437 35.7321 29.2378 35.7749C28.3539 36.0608 27.6062 36.5522 26.9946 37.249C26.7381 37.2386 26.4818 37.2066 26.2255 37.1529Z"
    fill="#F7F7F8" />
  <path fill-rule="evenodd" clip-rule="evenodd"
    d="M39.2999 34.7815C40.5801 34.6852 41.7337 35.0164 42.7609 35.7749C43.1811 36.1362 43.4802 36.5741 43.6581 37.0888C43.3406 37.1631 43.0202 37.1952 42.6968 37.1849C42.097 36.4781 41.3493 36.0081 40.4536 35.7749C39.2625 35.5318 38.44 35.9697 37.986 37.0888C37.7269 37.8862 37.791 38.6553 38.1783 39.3961C38.7163 40.074 39.4107 40.3196 40.2613 40.1331C40.8341 40.0603 41.3468 39.8466 41.7995 39.4922C42.1776 39.1036 42.5195 38.687 42.8249 38.2424C43.0734 38.1375 43.3298 38.052 43.594 37.9861C43.6368 38.0074 43.6795 38.0288 43.7222 38.0502C43.0049 39.9857 41.6055 40.9471 39.5242 40.9343C38.2454 40.8825 37.3695 40.263 36.8965 39.0756C36.578 37.4811 37.0586 36.1886 38.3385 35.1981C38.6505 35.0203 38.9709 34.8814 39.2999 34.7815Z"
    fill="#F7F7F8" />
  <path fill-rule="evenodd" clip-rule="evenodd"
    d="M44.8114 35.166C44.8165 35.4033 44.7951 35.6383 44.7473 35.8711C44.7413 36.0256 44.8054 36.1431 44.9396 36.2236C44.8542 36.2449 44.7687 36.2663 44.6832 36.2876C44.7625 36.3025 44.8266 36.3346 44.8755 36.3838C44.7901 36.3838 44.7046 36.3838 44.6191 36.3838C44.6578 35.9655 44.7219 35.5595 44.8114 35.166Z"
    fill="#C7C8C7" />
  <path fill-rule="evenodd" clip-rule="evenodd"
    d="M29.3658 36.7042C30.6937 36.6202 31.2172 37.2398 30.9361 38.5629C30.6974 39.0244 30.3128 39.238 29.7824 39.2038C28.918 39.1077 28.2663 38.6804 27.8276 37.922C28.223 37.3619 28.7357 36.956 29.3658 36.7042Z"
    fill="#25928B" />
  <path fill-rule="evenodd" clip-rule="evenodd"
    d="M26.0973 37.0247C26.14 37.0674 26.1827 37.1101 26.2255 37.1529C26.1502 37.1669 26.0861 37.1456 26.0332 37.0888C26.0412 37.0499 26.0625 37.0285 26.0973 37.0247Z"
    fill="#7E7E7B" />
  <path fill-rule="evenodd" clip-rule="evenodd"
    d="M39.4925 36.7042C40.4861 36.6401 41.2872 37.0033 41.8959 37.7938C41.6866 38.3241 41.3128 38.7194 40.7743 38.9795C40.2992 39.2128 39.8078 39.2556 39.3002 39.1077C38.9286 38.8607 38.7577 38.5082 38.7875 38.0502C38.7713 37.4628 39.0063 37.0141 39.4925 36.7042Z"
    fill="#24948C" />
  <path fill-rule="evenodd" clip-rule="evenodd"
    d="M44.299 37.7297C45.408 37.8239 45.8887 38.4221 45.741 39.5243C45.5661 40.0567 45.2136 40.4092 44.6835 40.5818C44.3638 40.6138 44.0433 40.6245 43.7222 40.6138C43.9542 39.661 44.1465 38.6996 44.299 37.7297Z"
    fill="#F65551" />
  <path fill-rule="evenodd" clip-rule="evenodd"
    d="M33.7241 37.8578C33.7821 37.9033 33.8034 37.9674 33.7882 38.0501C34.5573 38.0501 35.3264 38.0501 36.0955 38.0501C35.3165 38.1139 34.526 38.1353 33.7241 38.1142C33.7241 38.0288 33.7241 37.9433 33.7241 37.8578Z"
    fill="#AF403D" />
  <path fill-rule="evenodd" clip-rule="evenodd"
    d="M25.6487 39.2679C25.6092 39.2608 25.5772 39.2394 25.5526 39.2038C25.5333 38.9758 25.4692 38.7622 25.3603 38.5629C25.3284 38.3074 25.3176 38.0511 25.3283 37.7938C25.1349 37.8069 24.9426 37.8282 24.7515 37.8579C24.9455 37.7216 25.1591 37.7003 25.3924 37.7938C25.4986 38.2817 25.5841 38.7731 25.6487 39.2679Z"
    fill="#D0514B" />
  <path fill-rule="evenodd" clip-rule="evenodd"
    d="M25.6485 39.2679C25.6428 39.4379 25.6855 39.5874 25.7767 39.7165C25.8192 39.9707 25.8405 40.2271 25.8408 40.4856C25.4782 40.5669 25.115 40.5669 24.7513 40.4856C24.1893 40.2068 23.9116 39.7475 23.9181 39.1077C23.9159 38.5028 24.1936 38.0862 24.7513 37.8579C24.9424 37.8282 25.1347 37.8069 25.3281 37.7938C25.3175 38.0511 25.3282 38.3074 25.3601 38.5629C25.469 38.7622 25.5331 38.9758 25.5524 39.2038C25.577 39.2394 25.609 39.2608 25.6485 39.2679Z"
    fill="#FA5852" />
  <path fill-rule="evenodd" clip-rule="evenodd"
    d="M36.2231 39.332C35.3712 39.459 34.4952 39.5018 33.5953 39.4602C33.5605 39.4563 33.5392 39.435 33.5312 39.3961C33.6239 39.2603 33.6667 39.1108 33.6594 38.9475C34.4937 38.9262 35.3269 38.9475 36.159 39.0115C36.2109 39.1122 36.2323 39.2191 36.2231 39.332Z"
    fill="#FA5754" />
  <path fill-rule="evenodd" clip-rule="evenodd"
    d="M36.2235 39.332C36.2814 39.3774 36.3027 39.4415 36.2875 39.5243C35.3789 39.5454 34.4816 39.524 33.5957 39.4602C34.4956 39.5018 35.3715 39.459 36.2235 39.332Z"
    fill="#481D17" />
  <path fill-rule="evenodd" clip-rule="evenodd"
    d="M25.6485 39.2679C25.7397 39.397 25.7824 39.5466 25.7766 39.7165C25.6854 39.5874 25.6427 39.4379 25.6485 39.2679Z"
    fill="#A4423F" />
  <path fill-rule="evenodd" clip-rule="evenodd"
    d="M34.4289 40.6779C34.4289 40.5711 34.4289 40.4643 34.4289 40.3575C34.1085 40.3575 33.788 40.3575 33.4675 40.3575C33.4655 40.6709 33.4227 40.97 33.3394 41.2547C33.3395 40.9325 33.3609 40.6121 33.4034 40.2934C33.7667 40.2934 34.1298 40.2934 34.493 40.2934C34.5119 40.4366 34.4905 40.5648 34.4289 40.6779Z"
    fill="#BE4642" />
  <path fill-rule="evenodd" clip-rule="evenodd"
    d="M34.4292 40.6779C34.4108 41.5362 34.3467 42.3908 34.2369 43.2416C33.8951 43.2416 33.5532 43.2416 33.2114 43.2416C33.2114 42.9639 33.2114 42.6861 33.2114 42.4084C33.2129 42.0102 33.2556 41.6257 33.3396 41.2547C33.423 40.97 33.4657 40.6709 33.4678 40.3575C33.7882 40.3575 34.1087 40.3575 34.4292 40.3575C34.4292 40.4643 34.4292 40.5711 34.4292 40.6779Z"
    fill="#F7554F" />
  <path fill-rule="evenodd" clip-rule="evenodd"
    d="M36.4155 40.6138C36.5256 41.1626 36.5897 41.7181 36.6077 42.2802C36.6103 42.581 36.6316 42.88 36.6718 43.1775C36.33 43.1775 35.9882 43.1775 35.6464 43.1775C35.6464 43.092 35.6464 43.0065 35.6464 42.9211C35.6401 42.6744 35.6187 42.4287 35.5823 42.1841C35.6876 41.7727 35.7197 41.3561 35.6784 40.9343C35.6356 40.7633 35.593 40.7633 35.5502 40.9343C35.4059 40.773 35.3526 40.5807 35.39 40.3575C35.7104 40.3575 36.0309 40.3575 36.3514 40.3575C36.3342 40.4599 36.3556 40.5454 36.4155 40.6138Z"
    fill="#F85550" />
  <path fill-rule="evenodd" clip-rule="evenodd"
    d="M25.7769 39.7166C25.8699 39.9629 25.9553 40.2192 26.0333 40.4857C26.0199 40.5232 25.9985 40.5553 25.9692 40.5818C25.6274 40.6245 25.2855 40.6245 24.9437 40.5818C24.8645 40.5669 24.8004 40.5349 24.7515 40.4857C25.1152 40.5669 25.4784 40.5669 25.841 40.4857C25.8407 40.2271 25.8194 39.9707 25.7769 39.7166Z"
    fill="#C34F4C" />
  <path fill-rule="evenodd" clip-rule="evenodd"
    d="M36.4157 40.6138C36.3559 40.5454 36.3345 40.4599 36.3516 40.3575C36.0312 40.3575 35.7107 40.3575 35.3903 40.3575C35.3528 40.5807 35.4062 40.773 35.5505 40.9343C35.5932 40.7633 35.6359 40.7633 35.6787 40.9343C35.7199 41.3561 35.6879 41.7727 35.5825 42.1841C35.619 42.4287 35.6404 42.6744 35.6466 42.9211C35.6253 42.9211 35.6039 42.9211 35.5825 42.9211C35.4794 42.0468 35.394 41.1709 35.3262 40.2934C35.6894 40.2934 36.0525 40.2934 36.4157 40.2934C36.4157 40.4002 36.4157 40.507 36.4157 40.6138Z"
    fill="#E95351" />
  <path fill-rule="evenodd" clip-rule="evenodd"
    d="M32.3785 43.4979C32.2003 43.4609 32.0294 43.4181 31.8657 43.3698C31.8763 43.1975 31.8656 43.0266 31.8337 42.857C31.814 42.8052 31.7819 42.7625 31.7376 42.7288C30.3831 42.3308 29.0158 41.9783 27.6357 41.6713C27.4352 41.4112 27.3177 41.1228 27.2832 40.8061C28.7073 41.7214 30.2135 41.8817 31.8017 41.2868C32.074 41.1346 32.341 40.9744 32.6028 40.8061C32.5282 41.7013 32.4534 42.5986 32.3785 43.4979Z"
    fill="#F55651" />
  <path fill-rule="evenodd" clip-rule="evenodd"
    d="M37.3772 40.9343C37.3152 41.0693 37.2938 41.2189 37.3131 41.3829C37.2402 41.2032 37.2295 41.0109 37.2811 40.8061C37.327 40.841 37.3591 40.8837 37.3772 40.9343Z"
    fill="#6E4F1F" />
  <path fill-rule="evenodd" clip-rule="evenodd"
    d="M27.9561 42.5366C28.8756 42.729 29.7943 42.932 30.712 43.1454C30.6692 43.1882 30.6266 43.2309 30.5838 43.2736C29.9574 43.4746 29.3486 43.7203 28.7572 44.0107C28.4559 43.5361 28.1888 43.0447 27.9561 42.5366Z"
    fill="#F75752" />
  <path fill-rule="evenodd" clip-rule="evenodd"
    d="M41.5435 42.4725C41.6076 42.4725 41.6717 42.4725 41.7358 42.4725C41.5251 43.0222 41.2473 43.5349 40.9026 44.0107C40.2735 43.7494 39.654 43.4717 39.0439 43.1775C39.8826 42.9307 40.7158 42.6957 41.5435 42.4725Z"
    fill="#F35552" />
  <path fill-rule="evenodd" clip-rule="evenodd"
    d="M36.6079 42.2802C36.7198 42.5973 36.7412 42.9178 36.672 43.2416C36.672 43.2202 36.672 43.1988 36.672 43.1775C36.6318 42.88 36.6105 42.581 36.6079 42.2802Z"
    fill="#602322" />
  <path fill-rule="evenodd" clip-rule="evenodd"
    d="M26.2253 42.4084C26.386 43.0109 26.3753 43.6305 26.1932 44.267C25.9317 44.8119 25.6219 45.3246 25.2639 45.8052C25.0978 44.8681 25.2153 43.9708 25.6164 43.1134C25.7909 42.8473 25.9938 42.6122 26.2253 42.4084Z"
    fill="#526C8C" />
  <path fill-rule="evenodd" clip-rule="evenodd"
    d="M35.5825 42.9211C35.6039 42.9211 35.6253 42.9211 35.6466 42.9211C35.6466 43.0065 35.6466 43.092 35.6466 43.1775C35.9884 43.1775 36.3303 43.1775 36.6721 43.1775C36.6721 43.1988 36.6721 43.2202 36.6721 43.2416C36.3089 43.2416 35.9457 43.2416 35.5825 43.2416C35.5825 43.1347 35.5825 43.028 35.5825 42.9211Z"
    fill="#AF4442" />
  <path fill-rule="evenodd" clip-rule="evenodd"
    d="M33.2112 42.4084C33.2112 42.6861 33.2112 42.9638 33.2112 43.2415C33.553 43.2415 33.8949 43.2415 34.2367 43.2415C33.8858 43.3049 33.5226 43.3263 33.1471 43.3056C33.1267 42.994 33.148 42.6948 33.2112 42.4084Z"
    fill="#A54541" />
  <path fill-rule="evenodd" clip-rule="evenodd"
    d="M43.3377 42.4084C43.9733 42.8014 44.3471 43.3782 44.4593 44.1388C44.5126 44.6955 44.5019 45.251 44.4273 45.8052C43.5888 44.828 43.2256 43.6957 43.3377 42.4084Z"
    fill="#56708E" />
  <path fill-rule="evenodd" clip-rule="evenodd"
    d="M31.8652 43.3697C32.0288 43.4181 32.1998 43.4609 32.3779 43.4979C32.4006 44.0031 32.6569 44.3129 33.147 44.4273C34.1492 44.5239 35.1533 44.5452 36.1593 44.4913C36.5856 44.4862 36.9594 44.3473 37.2809 44.0748C37.4205 43.8484 37.4952 43.6028 37.5052 43.3377C37.4499 42.6843 37.3858 42.0327 37.313 41.3829C37.2936 41.2189 37.315 41.0693 37.3771 40.9343C38.4393 41.6485 39.593 41.8301 40.838 41.479C41.383 41.3579 41.8958 41.1549 42.3762 40.8702C42.3975 40.8915 42.4189 40.9129 42.4403 40.9343C42.3411 41.1819 42.213 41.4062 42.0557 41.6072C40.814 41.9196 39.575 42.2401 38.3384 42.5686C37.7992 42.7529 37.6923 43.0733 38.018 43.53C38.833 43.9294 39.6555 44.3033 40.4855 44.6516C40.5282 44.7157 40.5282 44.7798 40.4855 44.8438C40.3039 45.1109 40.1223 45.3779 39.9407 45.645C39.3913 45.4762 38.8358 45.3053 38.2743 45.1323C36.0976 44.8492 33.9185 44.8492 31.737 45.1323C31.0721 45.2354 30.4419 45.4384 29.8463 45.7411C29.6032 45.4705 29.3895 45.1715 29.2054 44.8438C29.1627 44.7798 29.1627 44.7157 29.2054 44.6516C29.9377 44.3122 30.6748 43.981 31.4166 43.6582C31.5897 43.5933 31.7393 43.4972 31.8652 43.3697Z"
    fill="#FABB2A" />
  <path fill-rule="evenodd" clip-rule="evenodd"
    d="M27.5073 44.0107C27.4645 44.0747 27.4218 44.1388 27.3791 44.2029C27.3623 44.1082 27.3836 44.0228 27.4432 43.9466C27.4821 43.9545 27.5034 43.9759 27.5073 44.0107Z"
    fill="#848080" />
  <path fill-rule="evenodd" clip-rule="evenodd"
    d="M35.0064 45.6129C35.8409 45.6077 36.6741 45.6397 37.506 45.7091C37.9231 45.7604 38.329 45.8565 38.7237 45.9975C36.1643 47.3461 33.6007 47.3568 31.0327 46.0295C31.4053 45.8952 31.7899 45.8097 32.1864 45.7731C33.1358 45.7109 34.0758 45.6575 35.0064 45.6129Z"
    fill="#F7F7F8" />
  <path fill-rule="evenodd" clip-rule="evenodd"
    d="M34.0442 47.6639C34.1573 47.7255 34.2855 47.7469 34.4287 47.728C34.4498 48.5298 34.4284 49.3203 34.3647 50.0993C33.7079 49.7955 33.1097 49.4003 32.5701 48.9136C31.8063 48.2035 31.1012 47.4451 30.4551 46.6384C30.4764 46.6171 30.4978 46.5957 30.5192 46.5743C31.6219 47.1554 32.7969 47.5186 34.0442 47.6639Z"
    fill="#FBBD28" />
  <path fill-rule="evenodd" clip-rule="evenodd"
    d="M35.4545 50.0993C35.3276 49.3117 35.2849 48.4999 35.3263 47.6639C36.7091 47.5538 38.0122 47.1693 39.2359 46.5102C38.2414 47.9526 36.9809 49.149 35.4545 50.0993Z"
    fill="#FABB2A" />
  <path fill-rule="evenodd" clip-rule="evenodd"
    d="M35.3258 47.6638C35.2844 48.4999 35.3271 49.3117 35.454 50.0993C35.4086 50.1573 35.3445 50.1786 35.2618 50.1634C35.2407 49.3189 35.2621 48.4857 35.3258 47.6638Z"
    fill="#57410A" />
  <path fill-rule="evenodd" clip-rule="evenodd"
    d="M34.0444 47.6638C34.194 47.6638 34.3435 47.6638 34.4931 47.6638C34.5144 48.4981 34.493 49.3313 34.429 50.1634C34.3901 50.1555 34.3687 50.1341 34.3649 50.0993C34.4287 49.3203 34.4501 48.5298 34.429 47.7279C34.2857 47.7468 34.1576 47.7254 34.0444 47.6638Z"
    fill="#A0782C" />
  <path fill-rule="evenodd" clip-rule="evenodd"
    d="M35.7747 51.1889C35.6539 51.305 35.5043 51.3798 35.3261 51.4132C35.0788 51.4651 34.8439 51.4544 34.6211 51.3812C35.0225 51.4095 35.407 51.3454 35.7747 51.1889Z"
    fill="#BDC0C2" />
  <g clip-path="url(#clip1_0_1)">
    <g opacity="0.25">
      <path d="M129.122 49.051V43.7105H127.336V42.5404H132.219V43.7105H130.424V49.051H129.122Z" fill="#999999" />
      <path
        d="M134.332 49.095C134.191 49.095 134.03 49.0803 133.848 49.051C133.666 49.0275 133.49 48.9689 133.32 48.875C133.156 48.7812 133.018 48.6404 132.906 48.4527C132.801 48.2592 132.748 47.9952 132.748 47.6609V44.0273C132.748 43.7399 132.792 43.4994 132.88 43.3058C132.968 43.1123 133.085 42.9598 133.232 42.8483C133.379 42.7369 133.54 42.6577 133.716 42.6108C133.892 42.5638 134.065 42.5404 134.235 42.5404C134.675 42.5404 135.062 42.5462 135.396 42.558C135.737 42.5697 136.042 42.5844 136.311 42.602C136.581 42.6137 136.828 42.6313 137.05 42.6548V43.7457H134.622C134.44 43.7457 134.3 43.7897 134.2 43.8777C134.1 43.9657 134.05 44.1006 134.05 44.2824V45.2238L136.628 45.2942V46.3236L134.05 46.394V47.2914C134.05 47.4439 134.074 47.5641 134.121 47.6521C134.173 47.7342 134.241 47.7929 134.323 47.8281C134.411 47.8574 134.502 47.8721 134.596 47.8721H137.05V48.963C136.792 48.9924 136.505 49.0158 136.188 49.0334C135.877 49.051 135.561 49.0657 135.238 49.0774C134.921 49.0891 134.619 49.095 134.332 49.095Z"
        fill="#999999" />
      <path
        d="M137.91 49.051V42.5404H140.602C140.86 42.5404 141.101 42.5726 141.323 42.6372C141.546 42.6958 141.743 42.8014 141.913 42.9539C142.083 43.1064 142.215 43.3175 142.309 43.5874C142.409 43.8572 142.458 44.2032 142.458 44.6255C142.458 44.9247 142.429 45.1798 142.37 45.391C142.312 45.6021 142.233 45.7752 142.133 45.9101C142.039 46.045 141.931 46.1535 141.807 46.2356C141.684 46.3177 141.558 46.3852 141.429 46.438L142.643 49.051H141.315L140.268 46.6403C140.197 46.6403 140.115 46.6403 140.021 46.6403C139.933 46.6344 139.842 46.6315 139.749 46.6315C139.655 46.6315 139.561 46.6315 139.467 46.6315C139.373 46.6315 139.288 46.6286 139.212 46.6227V49.051H137.91ZM139.212 45.5933H140.373C140.491 45.5933 140.596 45.5787 140.69 45.5493C140.784 45.52 140.866 45.4702 140.936 45.3998C141.007 45.3235 141.06 45.2238 141.095 45.1006C141.136 44.9775 141.156 44.8191 141.156 44.6255C141.156 44.4437 141.136 44.2941 141.095 44.1768C141.06 44.0537 141.007 43.9598 140.936 43.8953C140.866 43.8249 140.784 43.778 140.69 43.7545C140.596 43.7252 140.491 43.7105 140.373 43.7105H139.212V45.5933Z"
        fill="#999999" />
      <path d="M143.338 49.051V42.5404H144.64V49.051H143.338Z" fill="#999999" />
      <path d="M147.045 49.051V43.7105H145.259V42.5404H150.142V43.7105H148.347V49.051H147.045Z" fill="#999999" />
      <path
        d="M153.23 49.1038C152.785 49.1038 152.395 49.0627 152.06 48.9806C151.726 48.8926 151.444 48.7343 151.216 48.5055C150.993 48.2709 150.826 47.9366 150.714 47.5025C150.603 47.0685 150.547 46.5025 150.547 45.8045C150.547 45.1065 150.603 44.5405 150.714 44.1064C150.832 43.6665 151.002 43.3293 151.224 43.0947C151.447 42.86 151.726 42.6987 152.06 42.6108C152.395 42.5228 152.785 42.4788 153.23 42.4788C153.676 42.4788 154.066 42.5228 154.401 42.6108C154.735 42.6987 155.014 42.86 155.236 43.0947C155.459 43.3293 155.627 43.6665 155.738 44.1064C155.849 44.5405 155.905 45.1065 155.905 45.8045C155.905 46.5025 155.849 47.0685 155.738 47.5025C155.627 47.9366 155.459 48.2709 155.236 48.5055C155.014 48.7343 154.735 48.8926 154.401 48.9806C154.066 49.0627 153.676 49.1038 153.23 49.1038ZM153.23 47.9336C153.494 47.9336 153.714 47.9043 153.89 47.8457C154.066 47.787 154.204 47.6844 154.304 47.5377C154.409 47.3852 154.486 47.1711 154.533 46.8955C154.58 46.6139 154.603 46.2503 154.603 45.8045C154.603 45.3353 154.58 44.9599 154.533 44.6783C154.486 44.3968 154.409 44.1827 154.304 44.0361C154.204 43.8836 154.066 43.7809 153.89 43.7281C153.714 43.6753 153.494 43.6489 153.23 43.6489C152.978 43.6489 152.764 43.6753 152.588 43.7281C152.412 43.7809 152.269 43.8836 152.157 44.0361C152.052 44.1827 151.972 44.3968 151.92 44.6783C151.873 44.9599 151.849 45.3353 151.849 45.8045C151.849 46.2503 151.87 46.6139 151.911 46.8955C151.958 47.1711 152.034 47.3852 152.14 47.5377C152.245 47.6844 152.386 47.787 152.562 47.8457C152.744 47.9043 152.967 47.9336 153.23 47.9336Z"
        fill="#999999" />
      <path
        d="M156.778 49.051V42.5404H159.47C159.728 42.5404 159.969 42.5726 160.192 42.6372C160.415 42.6958 160.611 42.8014 160.781 42.9539C160.951 43.1064 161.083 43.3175 161.177 43.5874C161.277 43.8572 161.327 44.2032 161.327 44.6255C161.327 44.9247 161.297 45.1798 161.239 45.391C161.18 45.6021 161.101 45.7752 161.001 45.9101C160.907 46.045 160.799 46.1535 160.676 46.2356C160.552 46.3177 160.426 46.3852 160.297 46.438L161.511 49.051H160.183L159.136 46.6403C159.066 46.6403 158.983 46.6403 158.89 46.6403C158.802 46.6344 158.711 46.6315 158.617 46.6315C158.523 46.6315 158.429 46.6315 158.335 46.6315C158.241 46.6315 158.156 46.6286 158.08 46.6227V49.051H156.778ZM158.08 45.5933H159.242C159.359 45.5933 159.464 45.5787 159.558 45.5493C159.652 45.52 159.734 45.4702 159.805 45.3998C159.875 45.3235 159.928 45.2238 159.963 45.1006C160.004 44.9775 160.025 44.8191 160.025 44.6255C160.025 44.4437 160.004 44.2941 159.963 44.1768C159.928 44.0537 159.875 43.9598 159.805 43.8953C159.734 43.8249 159.652 43.778 159.558 43.7545C159.464 43.7252 159.359 43.7105 159.242 43.7105H158.08V45.5933Z"
        fill="#999999" />
      <path d="M162.206 49.051V42.5404H163.508V49.051H162.206Z" fill="#999999" />
    </g>
    <path d="M129.124 49.0259V43.6854H127.338V42.5153H132.221V43.6854H130.426V49.0259H129.124Z" fill="#999999" />
    <path
      d="M134.334 49.0699C134.193 49.0699 134.032 49.0552 133.85 49.0259C133.668 49.0024 133.492 48.9438 133.322 48.8499C133.158 48.7561 133.02 48.6153 132.908 48.4276C132.803 48.2341 132.75 47.9701 132.75 47.6358V44.0021C132.75 43.7147 132.794 43.4743 132.882 43.2807C132.97 43.0871 133.087 42.9346 133.234 42.8232C133.381 42.7118 133.542 42.6326 133.718 42.5856C133.894 42.5387 134.067 42.5153 134.237 42.5153C134.677 42.5153 135.064 42.5211 135.398 42.5329C135.738 42.5446 136.043 42.5593 136.313 42.5768C136.583 42.5886 136.829 42.6062 137.052 42.6296V43.7206H134.624C134.442 43.7206 134.301 43.7646 134.202 43.8526C134.102 43.9406 134.052 44.0755 134.052 44.2573V45.1987L136.63 45.2691V46.2985L134.052 46.3689V47.2663C134.052 47.4188 134.076 47.539 134.123 47.627C134.175 47.7091 134.243 47.7678 134.325 47.8029C134.413 47.8323 134.504 47.8469 134.598 47.8469H137.052V48.9379C136.794 48.9672 136.507 48.9907 136.19 49.0083C135.879 49.0259 135.563 49.0406 135.24 49.0523C134.923 49.064 134.621 49.0699 134.334 49.0699Z"
      fill="#999999" />
    <path
      d="M137.912 49.0259V42.5153H140.604C140.862 42.5153 141.103 42.5475 141.325 42.612C141.548 42.6707 141.745 42.7763 141.915 42.9288C142.085 43.0813 142.217 43.2924 142.311 43.5622C142.411 43.8321 142.46 44.1781 142.46 44.6004C142.46 44.8996 142.431 45.1547 142.372 45.3659C142.314 45.577 142.235 45.75 142.135 45.885C142.041 46.0199 141.933 46.1284 141.809 46.2105C141.686 46.2926 141.56 46.3601 141.431 46.4128L142.645 49.0259H141.317L140.27 46.6152C140.199 46.6152 140.117 46.6152 140.023 46.6152C139.935 46.6093 139.844 46.6064 139.751 46.6064C139.657 46.6064 139.563 46.6064 139.469 46.6064C139.375 46.6064 139.29 46.6035 139.214 46.5976V49.0259H137.912ZM139.214 45.5682H140.375C140.493 45.5682 140.598 45.5536 140.692 45.5242C140.786 45.4949 140.868 45.445 140.938 45.3747C141.009 45.2984 141.061 45.1987 141.097 45.0755C141.138 44.9523 141.158 44.794 141.158 44.6004C141.158 44.4186 141.138 44.269 141.097 44.1517C141.061 44.0285 141.009 43.9347 140.938 43.8702C140.868 43.7998 140.786 43.7529 140.692 43.7294C140.598 43.7001 140.493 43.6854 140.375 43.6854H139.214V45.5682Z"
      fill="#999999" />
    <path d="M143.34 49.0259V42.5153H144.642V49.0259H143.34Z" fill="#999999" />
    <path d="M147.047 49.0259V43.6854H145.261V42.5153H150.144V43.6854H148.349V49.0259H147.047Z" fill="#999999" />
    <path
      d="M153.232 49.0787C152.787 49.0787 152.397 49.0376 152.062 48.9555C151.728 48.8675 151.446 48.7092 151.218 48.4804C150.995 48.2458 150.828 47.9115 150.716 47.4774C150.605 47.0434 150.549 46.4774 150.549 45.7794C150.549 45.0814 150.605 44.5154 150.716 44.0813C150.833 43.6414 151.004 43.3042 151.226 43.0695C151.449 42.8349 151.728 42.6736 152.062 42.5856C152.397 42.4977 152.787 42.4537 153.232 42.4537C153.678 42.4537 154.068 42.4977 154.403 42.5856C154.737 42.6736 155.016 42.8349 155.238 43.0695C155.461 43.3042 155.628 43.6414 155.74 44.0813C155.851 44.5154 155.907 45.0814 155.907 45.7794C155.907 46.4774 155.851 47.0434 155.74 47.4774C155.628 47.9115 155.461 48.2458 155.238 48.4804C155.016 48.7092 154.737 48.8675 154.403 48.9555C154.068 49.0376 153.678 49.0787 153.232 49.0787ZM153.232 47.9085C153.496 47.9085 153.716 47.8792 153.892 47.8205C154.068 47.7619 154.206 47.6592 154.306 47.5126C154.411 47.3601 154.488 47.146 154.535 46.8703C154.581 46.5888 154.605 46.2251 154.605 45.7794C154.605 45.3101 154.581 44.9348 154.535 44.6532C154.488 44.3717 154.411 44.1576 154.306 44.0109C154.206 43.8584 154.068 43.7558 153.892 43.703C153.716 43.6502 153.496 43.6238 153.232 43.6238C152.98 43.6238 152.766 43.6502 152.59 43.703C152.414 43.7558 152.27 43.8584 152.159 44.0109C152.053 44.1576 151.974 44.3717 151.922 44.6532C151.875 44.9348 151.851 45.3101 151.851 45.7794C151.851 46.2251 151.872 46.5888 151.913 46.8703C151.96 47.146 152.036 47.3601 152.141 47.5126C152.247 47.6592 152.388 47.7619 152.564 47.8205C152.746 47.8792 152.968 47.9085 153.232 47.9085Z"
      fill="#999999" />
    <path
      d="M156.78 49.0259V42.5153H159.472C159.73 42.5153 159.971 42.5475 160.194 42.612C160.417 42.6707 160.613 42.7763 160.783 42.9288C160.953 43.0813 161.085 43.2924 161.179 43.5622C161.279 43.8321 161.329 44.1781 161.329 44.6004C161.329 44.8996 161.299 45.1547 161.241 45.3659C161.182 45.577 161.103 45.75 161.003 45.885C160.909 46.0199 160.801 46.1284 160.678 46.2105C160.554 46.2926 160.428 46.3601 160.299 46.4128L161.513 49.0259H160.185L159.138 46.6152C159.068 46.6152 158.985 46.6152 158.892 46.6152C158.804 46.6093 158.713 46.6064 158.619 46.6064C158.525 46.6064 158.431 46.6064 158.337 46.6064C158.243 46.6064 158.158 46.6035 158.082 46.5976V49.0259H156.78ZM158.082 45.5682H159.243C159.361 45.5682 159.466 45.5536 159.56 45.5242C159.654 45.4949 159.736 45.445 159.807 45.3747C159.877 45.2984 159.93 45.1987 159.965 45.0755C160.006 44.9523 160.027 44.794 160.027 44.6004C160.027 44.4186 160.006 44.269 159.965 44.1517C159.93 44.0285 159.877 43.9347 159.807 43.8702C159.736 43.7998 159.654 43.7529 159.56 43.7294C159.466 43.7001 159.361 43.6854 159.243 43.6854H158.082V45.5682Z"
      fill="#999999" />
    <path d="M162.208 49.0259V42.5153H163.51V49.0259H162.208Z" fill="#999999" />
    <path fill-rule="evenodd" clip-rule="evenodd"
      d="M155.267 43.1026C155.061 42.9162 154.813 42.7849 154.523 42.7086C154.189 42.6206 153.799 42.5766 153.353 42.5766C152.907 42.5766 152.517 42.6206 152.183 42.7086C151.848 42.7966 151.57 42.9579 151.347 43.1925C151.124 43.4271 150.954 43.7644 150.837 44.2043C150.725 44.6383 150.67 45.2043 150.67 45.9023C150.67 46.6003 150.725 47.1663 150.837 47.6004C150.94 48.0039 151.092 48.3212 151.292 48.5523C151.266 48.5292 151.24 48.5052 151.216 48.4804C150.993 48.2458 150.826 47.9115 150.714 47.4774C150.603 47.0434 150.547 46.4774 150.547 45.7794C150.547 45.0814 150.603 44.5154 150.714 44.0813C150.832 43.6414 151.002 43.3042 151.224 43.0695C151.447 42.8349 151.726 42.6736 152.06 42.5856C152.395 42.4977 152.785 42.4537 153.23 42.4537C153.676 42.4537 154.066 42.4977 154.401 42.5856C154.735 42.6736 155.014 42.8349 155.236 43.0695C155.247 43.0804 155.257 43.0914 155.267 43.1026ZM153.89 47.8205C153.714 47.8792 153.494 47.9085 153.23 47.9085C152.967 47.9085 152.744 47.8792 152.562 47.8205C152.46 47.7866 152.37 47.738 152.292 47.6746C152.394 47.8006 152.524 47.8902 152.684 47.9435C152.866 48.0022 153.089 48.0315 153.353 48.0315C153.617 48.0315 153.837 48.0022 154.013 47.9435C154.189 47.8848 154.327 47.7822 154.426 47.6356C154.532 47.4831 154.608 47.269 154.655 46.9933C154.702 46.7118 154.725 46.3481 154.725 45.9023C154.725 45.4331 154.702 45.0577 154.655 44.7762C154.608 44.4946 154.532 44.2805 154.426 44.1339C154.38 44.0631 154.326 44.003 154.263 43.9537C154.277 43.972 154.291 43.991 154.304 44.0109C154.409 44.1576 154.486 44.3717 154.533 44.6532C154.58 44.9348 154.603 45.3101 154.603 45.7794C154.603 46.2251 154.58 46.5888 154.533 46.8703C154.486 47.146 154.409 47.3601 154.304 47.5126C154.204 47.6592 154.066 47.7619 153.89 47.8205ZM129.122 43.8084V49.0259H129.244V43.8084H129.122ZM127.458 43.6854V42.6382H132.219V42.5153H127.336V43.6854H127.458ZM133.163 48.7393C133.066 48.6561 132.98 48.5522 132.906 48.4276C132.801 48.2341 132.748 47.9701 132.748 47.6358V44.0021C132.748 43.7147 132.792 43.4743 132.88 43.2807C132.968 43.0871 133.085 42.9346 133.232 42.8232C133.379 42.7118 133.54 42.6326 133.716 42.5856C133.892 42.5387 134.065 42.5153 134.235 42.5153C134.675 42.5153 135.062 42.5211 135.396 42.5329C135.737 42.5446 136.042 42.5593 136.311 42.5768C136.581 42.5886 136.828 42.6062 137.05 42.6296V42.7405C136.861 42.723 136.655 42.7094 136.434 42.6998C136.164 42.6822 135.859 42.6675 135.519 42.6558C135.185 42.6441 134.797 42.6382 134.358 42.6382C134.187 42.6382 134.014 42.6617 133.838 42.7086C133.662 42.7555 133.501 42.8347 133.355 42.9462C133.208 43.0576 133.091 43.2101 133.003 43.4037C132.915 43.5972 132.871 43.8377 132.871 44.1251V47.7587C132.871 48.0931 132.923 48.357 133.029 48.5506C133.07 48.6199 133.115 48.6828 133.163 48.7393ZM134.173 45.202V45.3217L136.628 45.3887V45.2691L134.173 45.202ZM134.253 47.765C134.275 47.7798 134.298 47.7924 134.323 47.8029C134.411 47.8323 134.502 47.8469 134.596 47.8469H137.05V47.9699H134.718C134.624 47.9699 134.533 47.9552 134.445 47.9259C134.368 47.8929 134.304 47.8393 134.253 47.765ZM137.91 49.0259V42.5153H140.602C140.86 42.5153 141.101 42.5475 141.323 42.612C141.546 42.6707 141.743 42.7763 141.913 42.9288C141.95 42.9621 141.986 42.9983 142.019 43.0373C141.853 42.8926 141.662 42.7918 141.446 42.735C141.223 42.6705 140.983 42.6382 140.725 42.6382H138.032V49.0259H137.91ZM140.321 46.7382L141.315 49.0259H141.384L140.39 46.7382H140.321ZM139.334 45.5682H140.373C140.491 45.5682 140.596 45.5536 140.69 45.5242C140.784 45.4949 140.866 45.445 140.936 45.3747C141.007 45.2984 141.06 45.1987 141.095 45.0755C141.136 44.9523 141.156 44.794 141.156 44.6004C141.156 44.4186 141.136 44.269 141.095 44.1517C141.071 44.0675 141.038 43.997 140.998 43.9402C141.019 43.956 141.039 43.9737 141.059 43.9931C141.129 44.0577 141.182 44.1515 141.217 44.2747C141.258 44.392 141.279 44.5416 141.279 44.7234C141.279 44.9169 141.258 45.0753 141.217 45.1985C141.182 45.3217 141.129 45.4214 141.059 45.4976C140.988 45.568 140.906 45.6179 140.813 45.6472C140.719 45.6765 140.613 45.6912 140.496 45.6912H139.334V45.5682ZM143.338 42.5153V49.0259H143.46V42.6382H144.64V42.5153H143.338ZM147.045 43.8084V49.0259H147.168V43.8084H147.045ZM150.142 42.6382V42.5153H145.259V43.6854H145.382V42.6382H150.142ZM156.778 49.0259V42.5153H159.47C159.728 42.5153 159.969 42.5475 160.192 42.612C160.415 42.6707 160.611 42.7763 160.781 42.9288C160.818 42.9621 160.854 42.9983 160.887 43.0373C160.721 42.8926 160.53 42.7918 160.314 42.735C160.091 42.6705 159.851 42.6382 159.593 42.6382H156.901V49.0259H156.778ZM159.189 46.7382L160.183 49.0259H160.252L159.258 46.7382H159.189ZM158.203 45.5682H159.242C159.359 45.5682 159.464 45.5536 159.558 45.5242C159.652 45.4949 159.734 45.445 159.805 45.3747C159.875 45.2984 159.928 45.1987 159.963 45.0755C160.004 44.9523 160.025 44.794 160.025 44.6004C160.025 44.4186 160.004 44.269 159.963 44.1517C159.939 44.0675 159.907 43.997 159.866 43.9402C159.887 43.956 159.908 43.9737 159.927 43.9931C159.998 44.0577 160.05 44.1515 160.085 44.2747C160.127 44.392 160.147 44.5416 160.147 44.7234C160.147 44.9169 160.127 45.0753 160.085 45.1985C160.05 45.3217 159.998 45.4214 159.927 45.4976C159.857 45.568 159.775 45.6179 159.681 45.6472C159.587 45.6765 159.481 45.6912 159.364 45.6912H158.203V45.5682ZM162.206 42.5153V49.0259H162.329V42.6382H163.508V42.5153H162.206Z"
      fill="#E9E9E9" />
  </g>
  <path
    d="M116.545 50.6689C116.489 50.6196 116.454 50.5508 116.447 50.4765L115.892 44.5648H117.869V51.1878C117.869 51.4403 117.571 51.5748 117.382 51.4076L116.545 50.6689Z"
    fill="#999999" />
  <path d="M117.869 44.4475V43.6223L115.786 43.4423L115.881 44.4475H117.869Z" fill="#999999" />
  <path
    d="M117.869 43.5045L115.775 43.3236L115.448 39.8412C115.431 39.6692 115.567 39.5205 115.74 39.5205H117.576C117.738 39.5205 117.869 39.6518 117.869 39.8138V43.5045Z"
    fill="#999999" />
  <path
    d="M121.734 44.4475H123.242C123.323 44.4475 123.389 44.3818 123.389 44.3009V43.4361C123.389 43.3494 123.314 43.2817 123.228 43.2901L121.828 43.4268L121.734 44.4475Z"
    fill="#999999" />
  <path d="M121.709 43.4384L119.623 43.6421V44.4475H121.617L121.709 43.4384Z" fill="#999999" />
  <path
    d="M119.506 43.6536V44.4475H113.951C113.87 44.4475 113.805 44.3818 113.805 44.3009V43.4341C113.805 43.3482 113.878 43.2807 113.964 43.288L118.9 43.7102C118.909 43.711 118.918 43.7109 118.927 43.7101L119.506 43.6536Z"
    fill="#999999" />
  <path
    d="M120.125 51.3877C119.941 51.5744 119.623 51.444 119.623 51.1817V42.0837H121.836L121.066 50.3395C121.06 50.4069 121.03 50.47 120.983 50.5182L120.125 51.3877Z"
    fill="#999999" />
  <path d="M121.847 41.9664H119.623V40.702L121.978 40.5551L121.847 41.9664Z" fill="#999999" />
  <path
    d="M119.623 39.8138V40.5845L121.989 40.4368L122.045 39.841C122.061 39.6691 121.926 39.5206 121.753 39.5206H119.916C119.754 39.5206 119.623 39.6519 119.623 39.8138Z"
    fill="#999999" />
  <path d="M117.869 41.9664V40.7057L115.517 40.5899L115.646 41.9664H117.869Z" fill="#999999" />
  <path
    d="M117.987 41.9664H123.917C123.981 41.9664 124.034 41.9139 124.034 41.8491V40.5459C124.034 40.4782 123.977 40.4245 123.909 40.4288L118.817 40.7523L117.987 40.7115V41.9664Z"
    fill="#999999" />
  <path
    d="M115.389 40.5836L115.529 41.9664H113.153C113.089 41.9664 113.036 41.9139 113.036 41.8491V40.591C113.036 40.524 113.092 40.4706 113.159 40.4739L115.389 40.5836Z"
    fill="#999999" />
  <path
    d="M98.8807 49V41.7273H99.7188V44.4119H99.7898C99.8513 44.3172 99.9366 44.1965 100.045 44.0497C100.157 43.9006 100.315 43.768 100.521 43.652C100.73 43.5336 101.011 43.4744 101.366 43.4744C101.826 43.4744 102.231 43.5893 102.581 43.8189C102.931 44.0485 103.205 44.3741 103.401 44.7955C103.598 45.2169 103.696 45.714 103.696 46.2869C103.696 46.8646 103.598 47.3653 103.401 47.7891C103.205 48.2105 102.933 48.5372 102.585 48.7692C102.237 48.9988 101.835 49.1136 101.381 49.1136C101.03 49.1136 100.75 49.0556 100.539 48.9396C100.328 48.8213 100.166 48.6875 100.053 48.5384C99.9389 48.3868 99.8513 48.2614 99.7898 48.1619H99.6903V49H98.8807ZM99.7045 46.2727C99.7045 46.6847 99.7649 47.0481 99.8857 47.3629C100.006 47.6754 100.183 47.9205 100.415 48.098C100.647 48.2732 100.931 48.3608 101.267 48.3608C101.617 48.3608 101.91 48.2685 102.144 48.0838C102.381 47.8968 102.558 47.6458 102.677 47.331C102.798 47.0137 102.858 46.661 102.858 46.2727C102.858 45.8892 102.799 45.5436 102.68 45.2358C102.564 44.9257 102.388 44.6806 102.151 44.5007C101.917 44.3184 101.622 44.2273 101.267 44.2273C100.926 44.2273 100.64 44.3137 100.408 44.4865C100.176 44.657 100 44.8961 99.8821 45.2038C99.7637 45.5092 99.7045 45.8655 99.7045 46.2727ZM104.822 51.0455C104.68 51.0455 104.554 51.0336 104.442 51.0099C104.331 50.9886 104.254 50.9673 104.212 50.946L104.425 50.2074C104.628 50.2595 104.808 50.2784 104.964 50.2642C105.121 50.25 105.259 50.1802 105.38 50.0547C105.503 49.9316 105.616 49.7315 105.717 49.4545L105.874 49.0284L103.857 43.5455H104.766L106.271 47.892H106.328L107.834 43.5455H108.743L106.428 49.7955C106.323 50.0772 106.194 50.3104 106.04 50.495C105.887 50.6821 105.708 50.8205 105.504 50.9105C105.303 51.0005 105.076 51.0455 104.822 51.0455Z"
    fill="#8E8E93" />
  <defs>
    <linearGradient id="paint0_linear_0_1" x1="24.845" y1="16.0556" x2="44.8112" y2="52.0576"
      gradientUnits="userSpaceOnUse">
      <stop offset="0.166667" stop-color="#876CF5" stop-opacity="0" />
      <stop offset="0.520833" stop-color="#1FDBFA" stop-opacity="0.6" />
      <stop offset="1" stop-color="#876CF5" stop-opacity="0.36" />
    </linearGradient>
    <linearGradient id="paint1_linear_0_1" x1="32.5144" y1="13.6088" x2="36.8202" y2="54.5555"
      gradientUnits="userSpaceOnUse">
      <stop offset="0.166667" stop-color="#876CF5" stop-opacity="0" />
      <stop offset="0.520833" stop-color="#1FDBFA" stop-opacity="0.6" />
      <stop offset="1" stop-color="#876CF5" stop-opacity="0.36" />
    </linearGradient>
    <linearGradient id="paint2_linear_0_1" x1="40.5349" y1="14.3566" x2="28.4922" y2="53.7268"
      gradientUnits="userSpaceOnUse">
      <stop offset="0.166667" stop-color="#876CF5" stop-opacity="0" />
      <stop offset="0.520833" stop-color="#1FDBFA" stop-opacity="0.6" />
      <stop offset="1" stop-color="#876CF5" stop-opacity="0.36" />
    </linearGradient>
    <linearGradient id="paint3_linear_0_1" x1="47.6209" y1="18.1762" x2="21.1533" y2="49.7033"
      gradientUnits="userSpaceOnUse">
      <stop offset="0.166667" stop-color="#876CF5" stop-opacity="0" />
      <stop offset="0.520833" stop-color="#1FDBFA" stop-opacity="0.6" />
      <stop offset="1" stop-color="#876CF5" stop-opacity="0.36" />
    </linearGradient>
    <linearGradient id="paint4_linear_0_1" x1="52.6503" y1="24.4628" x2="15.9759" y2="43.14"
      gradientUnits="userSpaceOnUse">
      <stop offset="0.166667" stop-color="#876CF5" stop-opacity="0" />
      <stop offset="0.520833" stop-color="#1FDBFA" stop-opacity="0.6" />
      <stop offset="1" stop-color="#876CF5" stop-opacity="0.36" />
    </linearGradient>
    <linearGradient id="paint5_linear_0_1" x1="54.8206" y1="32.2142" x2="13.7685" y2="35.0834"
      gradientUnits="userSpaceOnUse">
      <stop offset="0.166667" stop-color="#876CF5" stop-opacity="0" />
      <stop offset="0.520833" stop-color="#1FDBFA" stop-opacity="0.6" />
      <stop offset="1" stop-color="#876CF5" stop-opacity="0.36" />
    </linearGradient>
    <linearGradient id="paint6_linear_0_1" x1="53.7947" y1="40.202" x2="14.8805" y2="26.8094"
      gradientUnits="userSpaceOnUse">
      <stop offset="0.166667" stop-color="#876CF5" stop-opacity="0" />
      <stop offset="0.520833" stop-color="#1FDBFA" stop-opacity="0.6" />
      <stop offset="1" stop-color="#876CF5" stop-opacity="0.36" />
    </linearGradient>
    <linearGradient id="paint7_linear_0_1" x1="49.7327" y1="47.1542" x2="19.137" y2="19.6195"
      gradientUnits="userSpaceOnUse">
      <stop offset="0.166667" stop-color="#876CF5" stop-opacity="0" />
      <stop offset="0.520833" stop-color="#1FDBFA" stop-opacity="0.6" />
      <stop offset="1" stop-color="#876CF5" stop-opacity="0.36" />
    </linearGradient>
    <linearGradient id="paint8_linear_0_1" x1="43.2771" y1="51.9652" x2="25.8712" y2="14.6568"
      gradientUnits="userSpaceOnUse">
      <stop offset="0.166667" stop-color="#876CF5" stop-opacity="0" />
      <stop offset="0.520833" stop-color="#1FDBFA" stop-opacity="0.6" />
      <stop offset="1" stop-color="#876CF5" stop-opacity="0.36" />
    </linearGradient>
    <linearGradient id="paint9_linear_0_1" x1="35.4563" y1="53.8704" x2="34.0187" y2="12.7229"
      gradientUnits="userSpaceOnUse">
      <stop offset="0.166667" stop-color="#876CF5" stop-opacity="0" />
      <stop offset="0.520833" stop-color="#1FDBFA" stop-opacity="0.6" />
      <stop offset="1" stop-color="#876CF5" stop-opacity="0.36" />
    </linearGradient>
    <linearGradient id="paint10_linear_0_1" x1="27.5167" y1="52.5669" x2="42.2771" y2="14.1338"
      gradientUnits="userSpaceOnUse">
      <stop offset="0.166667" stop-color="#876CF5" stop-opacity="0" />
      <stop offset="0.520833" stop-color="#1FDBFA" stop-opacity="0.6" />
      <stop offset="1" stop-color="#876CF5" stop-opacity="0.36" />
    </linearGradient>
    <linearGradient id="paint11_linear_0_1" x1="20.712" y1="48.2613" x2="49.3135" y2="18.6584"
      gradientUnits="userSpaceOnUse">
      <stop offset="0.166667" stop-color="#876CF5" stop-opacity="0" />
      <stop offset="0.520833" stop-color="#1FDBFA" stop-opacity="0.6" />
      <stop offset="1" stop-color="#876CF5" stop-opacity="0.36" />
    </linearGradient>
    <linearGradient id="paint12_linear_0_1" x1="16.1292" y1="41.6395" x2="54.0158" y2="25.5657"
      gradientUnits="userSpaceOnUse">
      <stop offset="0.166667" stop-color="#876CF5" stop-opacity="0" />
      <stop offset="0.520833" stop-color="#1FDBFA" stop-opacity="0.6" />
      <stop offset="1" stop-color="#876CF5" stop-opacity="0.36" />
    </linearGradient>
    <linearGradient id="paint13_linear_0_1" x1="14.5015" y1="33.7528" x2="55.6537" y2="33.7528"
      gradientUnits="userSpaceOnUse">
      <stop offset="0.166667" stop-color="#876CF5" stop-opacity="0" />
      <stop offset="0.520833" stop-color="#1FDBFA" stop-opacity="0.6" />
      <stop offset="1" stop-color="#876CF5" stop-opacity="0.36" />
    </linearGradient>
    <linearGradient id="paint14_linear_0_1" x1="46.7046" y1="5.41028" x2="49.4994" y2="14.5644"
      gradientUnits="userSpaceOnUse">
      <stop stop-color="#A73EE7" />
      <stop offset="1" stop-color="#00EBFF" />
    </linearGradient>
    <linearGradient id="paint15_linear_0_1" x1="48.1411" y1="6.4254" x2="49.8877" y2="12.7259"
      gradientUnits="userSpaceOnUse">
      <stop stop-color="#A73EE7" />
      <stop offset="1" stop-color="#00EBFF" />
    </linearGradient>
    <clipPath id="clip0_0_1">
      <rect width="68" height="68" fill="white" />
    </clipPath>
    <clipPath id="clip1_0_1">
      <rect width="36.8333" height="12.8194" fill="white" transform="translate(127.167 39.1805)" />
    </clipPath>
  </defs>
</svg>