<svg viewBox="0 0 200 200" fill="none" xmlns="http://www.w3.org/2000/svg">
<g id="Logo-Teritori / 200px">
<g id="Vector" opacity="0.25">
<path d="M72.7793 171.273C72.01 170.594 71.5284 169.647 71.4324 168.626L63.7858 87.2769H90.9989V178.413C90.9989 181.889 86.8978 183.738 84.2923 181.438L72.7793 171.273Z" fill="black"/>
<path d="M90.9989 85.6626V74.3067L62.3339 71.8301L63.6341 85.6626H90.9989Z" fill="black"/>
<path d="M90.9989 72.6864L62.1803 70.1965L57.676 22.2771C57.4535 19.9095 59.3159 17.8638 61.6939 17.8638H86.9633C89.1921 17.8638 90.9989 19.6706 90.9989 21.8994V72.6864Z" fill="black"/>
<path d="M144.187 85.6623H164.931C166.046 85.6623 166.949 84.7589 166.949 83.6445V71.7443C166.949 70.5524 165.922 69.6202 164.735 69.7361L145.472 71.6171L144.187 85.6623Z" fill="black"/>
<path d="M143.837 71.7768L115.132 74.5797V85.6623H142.566L143.837 71.7768Z" fill="black"/>
<path d="M113.518 74.7373V85.6623H37.0833C35.9689 85.6623 35.0655 84.7589 35.0655 83.6445V71.7176C35.0655 70.5354 36.0773 69.6064 37.2552 69.7072L105.186 75.5172C105.308 75.5277 105.431 75.5269 105.554 75.515L113.518 74.7373Z" fill="black"/>
<path d="M122.041 181.164C119.506 183.733 115.132 181.938 115.132 178.33V53.1356H145.581L134.988 166.74C134.902 167.667 134.497 168.536 133.843 169.199L122.041 181.164Z" fill="black"/>
<path d="M145.731 51.5213H115.132V34.1218L147.542 32.0999L145.731 51.5213Z" fill="black"/>
<path d="M115.132 21.9V32.5044L147.694 30.4731L148.458 22.2746C148.679 19.9081 146.817 17.8644 144.44 17.8644H119.168C116.939 17.8644 115.132 19.6712 115.132 21.9Z" fill="black"/>
<path d="M90.999 51.5214V34.1725L58.6288 32.5794L60.3998 51.5214H90.999Z" fill="black"/>
<path d="M92.6133 51.5214H174.213C175.105 51.5214 175.828 50.7987 175.828 49.9071V31.9738C175.828 31.042 175.041 30.3037 174.111 30.3628L104.034 34.814L92.6133 34.2519V51.5214Z" fill="black"/>
<path d="M56.867 32.4927L58.8005 51.5214H26.1064C25.2149 51.5214 24.4922 50.7987 24.4922 49.9071V32.5951C24.4922 31.6724 25.2642 30.9374 26.1858 30.9828L56.867 32.4927Z" fill="black"/>
</g>
<g id="Vector_2">
<path d="M72.459 170.949C71.6897 170.27 71.2081 169.323 71.1121 168.302L63.4655 86.9531H90.6786V178.089C90.6786 181.565 86.5775 183.415 83.972 181.114L72.459 170.949Z" fill="url(#paint0_linear_5167_164251)"/>
<path d="M90.6786 85.3389V73.983L62.0135 71.5063L63.3138 85.3389H90.6786Z" fill="url(#paint1_linear_5167_164251)"/>
<path d="M90.6786 72.3627L61.86 69.8728L57.3557 21.9533C57.1332 19.5858 58.9956 17.54 61.3736 17.54H86.643C88.8718 17.54 90.6786 19.3468 90.6786 21.5756V72.3627Z" fill="url(#paint2_linear_5167_164251)"/>
<path d="M143.867 85.3386H164.611C165.725 85.3386 166.629 84.4352 166.629 83.3208V71.4206C166.629 70.2287 165.601 69.2965 164.415 69.4123L145.152 71.2933L143.867 85.3386Z" fill="url(#paint3_linear_5167_164251)"/>
<path d="M143.516 71.453L114.812 74.256V85.3386H142.246L143.516 71.453Z" fill="url(#paint4_linear_5167_164251)"/>
<path d="M113.197 74.4136V85.3386H36.763C35.6486 85.3386 34.7452 84.4352 34.7452 83.3208V71.3939C34.7452 70.2117 35.757 69.2827 36.9349 69.3835L104.865 75.1935C104.988 75.204 105.111 75.2032 105.234 75.1913L113.197 74.4136Z" fill="url(#paint5_linear_5167_164251)"/>
<path d="M121.72 180.84C119.186 183.409 114.812 181.614 114.812 178.006V52.8118H145.261L134.668 166.416C134.582 167.343 134.177 168.212 133.523 168.875L121.72 180.84Z" fill="url(#paint6_linear_5167_164251)"/>
<path d="M145.411 51.1976H114.812V33.798L147.222 31.7762L145.411 51.1976Z" fill="url(#paint7_linear_5167_164251)"/>
<path d="M114.812 21.5762V32.1807L147.374 30.1494L148.138 21.9509C148.359 19.5844 146.497 17.5406 144.12 17.5406H118.847C116.618 17.5406 114.812 19.3474 114.812 21.5762Z" fill="url(#paint8_linear_5167_164251)"/>
<path d="M90.6787 51.1977V33.8487L58.3085 32.2557L60.0795 51.1977H90.6787Z" fill="url(#paint9_linear_5167_164251)"/>
<path d="M92.293 51.1977H173.893C174.784 51.1977 175.507 50.4749 175.507 49.5834V31.65C175.507 30.7183 174.721 29.98 173.791 30.039L103.714 34.4902L92.293 33.9282V51.1977Z" fill="url(#paint10_linear_5167_164251)"/>
<path d="M56.5467 32.169L58.4802 51.1977H25.7861C24.8946 51.1977 24.1719 50.4749 24.1719 49.5834V32.2713C24.1719 31.3487 24.9439 30.6137 25.8655 30.659L56.5467 32.169Z" fill="url(#paint11_linear_5167_164251)"/>
</g>
<g id="Subtract">
<path d="M63.3384 70.0005L61.86 69.8728L60.1046 51.1977H60.0795L58.3085 32.2557L58.3242 32.2565L57.3557 21.9533C57.1332 19.5858 58.9956 17.54 61.3736 17.54H86.643C88.1733 17.54 89.5047 18.3918 90.1888 19.6472C89.6161 19.3353 88.9594 19.158 88.2614 19.158H62.9921C60.6141 19.158 58.7516 21.2038 58.9742 23.5713L59.9426 33.8744L59.9269 33.8737L61.698 52.8156H61.723L63.3384 70.0005Z" fill="white"/>
<path d="M92.2972 51.1977H93.9114V35.5462L105.332 36.1082L175.409 31.657C175.442 31.6549 175.475 31.6538 175.507 31.6537V31.65C175.507 30.7183 174.721 29.98 173.791 30.039L149.007 31.6133L148.992 31.7673L116.43 33.7986V33.6825L103.714 34.4902L92.297 33.9284L92.2972 51.1977Z" fill="white"/>
<path d="M147.665 19.647C147.095 19.3361 146.439 19.1586 145.738 19.1586H120.466C118.237 19.1586 116.43 20.9654 116.43 23.1942V32.0797L114.812 32.1807V21.5762C114.812 19.3474 116.618 17.5406 118.847 17.5406H144.12C145.66 17.5406 146.984 18.3989 147.665 19.647Z" fill="white"/>
<path d="M114.812 52.8156H145.26L145.11 54.4298H116.43V179.624C116.43 180.342 116.603 180.988 116.9 181.542C115.696 180.885 114.812 179.629 114.812 178.006V86.9566H114.816V76.0316L114.812 76.032V52.8156Z" fill="white"/>
<path d="M113.197 76.1896V74.4136L105.234 75.1913C105.111 75.2032 104.988 75.2039 104.865 75.1935L62.0136 71.5063L62.0156 71.5286L36.9349 69.3835C35.757 69.2827 34.7452 70.2117 34.7452 71.3939V83.3208C34.7452 84.3102 35.4572 85.1332 36.3969 85.3055C36.375 85.1866 36.3636 85.064 36.3636 84.9388V73.0119C36.3636 71.8296 37.3754 70.9007 38.5534 71.0014L63.6341 73.1465L63.632 73.1243L106.484 76.8114C106.606 76.8219 106.73 76.8212 106.852 76.8092L113.197 76.1896Z" fill="white"/>
<path d="M63.4658 86.9566L71.1121 168.302C71.2081 169.323 71.6897 170.27 72.459 170.949L73.3766 171.76C73.017 171.213 72.7928 170.582 72.7305 169.92L65.084 88.5711H90.6786V86.9569L63.4658 86.9566Z" fill="white"/>
<path d="M144.012 85.3386H145.633L146.77 72.9113L166.033 71.0303C166.226 71.0115 166.415 71.0204 166.596 71.0535C166.411 70.044 165.476 69.3087 164.415 69.4123L145.308 71.2781L144.812 76.6021L144.012 85.3386Z" fill="white"/>
<path d="M56.7038 33.715L56.5467 32.169L25.8655 30.659C24.9439 30.6137 24.1719 31.3487 24.1719 32.2713V49.5834C24.1719 50.4749 24.8946 51.1977 25.7861 51.1977H25.7903V33.8893C25.7903 32.9666 26.5623 32.2317 27.4839 32.277L56.7038 33.715Z" fill="white"/>
</g>
</g>
<defs>
<linearGradient id="paint0_linear_5167_164251" x1="24.1719" y1="99.8363" x2="175.507" y2="99.8363" gradientUnits="userSpaceOnUse">
<stop stop-color="#5433FF"/>
<stop offset="0.5" stop-color="#20BDFF"/>
<stop offset="1" stop-color="#A5FECB"/>
</linearGradient>
<linearGradient id="paint1_linear_5167_164251" x1="24.1719" y1="99.8363" x2="175.507" y2="99.8363" gradientUnits="userSpaceOnUse">
<stop stop-color="#5433FF"/>
<stop offset="0.5" stop-color="#20BDFF"/>
<stop offset="1" stop-color="#A5FECB"/>
</linearGradient>
<linearGradient id="paint2_linear_5167_164251" x1="24.1719" y1="99.8363" x2="175.507" y2="99.8363" gradientUnits="userSpaceOnUse">
<stop stop-color="#5433FF"/>
<stop offset="0.5" stop-color="#20BDFF"/>
<stop offset="1" stop-color="#A5FECB"/>
</linearGradient>
<linearGradient id="paint3_linear_5167_164251" x1="24.1719" y1="99.8363" x2="175.507" y2="99.8363" gradientUnits="userSpaceOnUse">
<stop stop-color="#5433FF"/>
<stop offset="0.5" stop-color="#20BDFF"/>
<stop offset="1" stop-color="#A5FECB"/>
</linearGradient>
<linearGradient id="paint4_linear_5167_164251" x1="24.1719" y1="99.8363" x2="175.507" y2="99.8363" gradientUnits="userSpaceOnUse">
<stop stop-color="#5433FF"/>
<stop offset="0.5" stop-color="#20BDFF"/>
<stop offset="1" stop-color="#A5FECB"/>
</linearGradient>
<linearGradient id="paint5_linear_5167_164251" x1="24.1719" y1="99.8363" x2="175.507" y2="99.8363" gradientUnits="userSpaceOnUse">
<stop stop-color="#5433FF"/>
<stop offset="0.5" stop-color="#20BDFF"/>
<stop offset="1" stop-color="#A5FECB"/>
</linearGradient>
<linearGradient id="paint6_linear_5167_164251" x1="24.1719" y1="99.8363" x2="175.507" y2="99.8363" gradientUnits="userSpaceOnUse">
<stop stop-color="#5433FF"/>
<stop offset="0.5" stop-color="#20BDFF"/>
<stop offset="1" stop-color="#A5FECB"/>
</linearGradient>
<linearGradient id="paint7_linear_5167_164251" x1="24.1719" y1="99.8363" x2="175.507" y2="99.8363" gradientUnits="userSpaceOnUse">
<stop stop-color="#5433FF"/>
<stop offset="0.5" stop-color="#20BDFF"/>
<stop offset="1" stop-color="#A5FECB"/>
</linearGradient>
<linearGradient id="paint8_linear_5167_164251" x1="24.1719" y1="99.8363" x2="175.507" y2="99.8363" gradientUnits="userSpaceOnUse">
<stop stop-color="#5433FF"/>
<stop offset="0.5" stop-color="#20BDFF"/>
<stop offset="1" stop-color="#A5FECB"/>
</linearGradient>
<linearGradient id="paint9_linear_5167_164251" x1="24.1719" y1="99.8363" x2="175.507" y2="99.8363" gradientUnits="userSpaceOnUse">
<stop stop-color="#5433FF"/>
<stop offset="0.5" stop-color="#20BDFF"/>
<stop offset="1" stop-color="#A5FECB"/>
</linearGradient>
<linearGradient id="paint10_linear_5167_164251" x1="24.1719" y1="99.8363" x2="175.507" y2="99.8363" gradientUnits="userSpaceOnUse">
<stop stop-color="#5433FF"/>
<stop offset="0.5" stop-color="#20BDFF"/>
<stop offset="1" stop-color="#A5FECB"/>
</linearGradient>
<linearGradient id="paint11_linear_5167_164251" x1="24.1719" y1="99.8363" x2="175.507" y2="99.8363" gradientUnits="userSpaceOnUse">
<stop stop-color="#5433FF"/>
<stop offset="0.5" stop-color="#20BDFF"/>
<stop offset="1" stop-color="#A5FECB"/>
</linearGradient>
</defs>
</svg>
