<svg viewBox="0 0 68 68" fill="none" xmlns="http://www.w3.org/2000/svg">
<g clip-path="url(#clip0_4790_57539)">
<path opacity="0.0714286" d="M61.6847 21.2518L59.1557 54.4358C59.0142 56.2918 57.6213 57.8102 55.7849 58.1102L25.277 63.0946C23.5974 63.369 21.9268 62.5588 21.1019 61.07L4.27944 30.7064C3.45458 29.2176 3.65322 27.3707 4.77585 26.0911L25.1674 2.84738C26.3949 1.44818 28.42 1.07096 30.0682 1.9345L59.536 17.3735C60.9623 18.1208 61.8071 19.6456 61.6847 21.2518Z" stroke="url(#paint0_linear_4790_57539)" stroke-width="0.424436"/>
<path opacity="0.142857" d="M64.3946 32.7929L49.1069 62.3504C48.2518 64.0038 46.3761 64.8571 44.5681 64.4152L14.5398 57.0773C12.8865 56.6733 11.6651 55.2747 11.4872 53.582L7.86009 19.0547C7.68227 17.3621 8.58639 15.74 10.1196 15.0009L37.9668 1.57692C39.6435 0.768639 41.6555 1.21309 42.8356 2.65244L63.9314 28.3841C64.9523 29.6292 65.1344 31.3625 64.3946 32.7929Z" stroke="url(#paint1_linear_4790_57539)" stroke-width="0.424436"/>
<path opacity="0.214286" d="M62.3883 44.4798L36.7727 65.7113C35.3399 66.8989 33.2803 66.9511 31.7886 65.8377L7.01292 47.344C5.64889 46.3258 5.07076 44.5608 5.56815 42.9331L15.7134 9.733C16.2108 8.10531 17.6766 6.96549 19.3765 6.88453L50.2528 5.41389C52.1118 5.32535 53.7901 6.52094 54.3142 8.30711L63.6839 40.24C64.1374 41.7854 63.628 43.4523 62.3883 44.4798Z" stroke="url(#paint2_linear_4790_57539)" stroke-width="0.424436"/>
<path opacity="0.285714" d="M55.9778 54.4484L24.1072 63.9782C22.3248 64.5112 20.4091 63.7545 19.4712 62.147L3.88681 35.4369C3.02887 33.9664 3.18622 32.1155 4.28002 30.8113L26.5836 4.21769C27.6774 2.9135 29.472 2.43705 31.0684 3.02704L60.0658 13.7441C61.811 14.3892 62.8884 16.1452 62.6733 17.994L58.8272 51.0508C58.6411 52.6512 57.5207 53.9871 55.9778 54.4484Z" stroke="url(#paint3_linear_4790_57539)" stroke-width="0.424436"/>
<path opacity="0.357143" d="M46.1705 61.1174L13.1122 57.4306C11.2636 57.2245 9.79631 55.7798 9.56082 53.9341L5.6464 23.2535C5.43093 21.5646 6.29899 19.9221 7.81562 19.1489L38.7302 3.38931C40.2469 2.61617 42.0853 2.87899 43.3242 4.04608L65.8322 25.2481C67.1863 26.5236 67.4919 28.5604 66.5721 30.1779L50.1221 59.1029C49.3254 60.5038 47.7715 61.2959 46.1705 61.1174Z" stroke="url(#paint4_linear_4790_57539)" stroke-width="0.424436"/>
<path opacity="0.428571" d="M34.5463 63.4218L5.5561 47.1049C3.9351 46.1926 3.14869 44.2896 3.65263 42.499L12.0315 12.7262C12.4927 11.0874 13.9335 9.91482 15.6317 9.796L50.2425 7.37458C51.9408 7.25577 53.5306 8.21637 54.2153 9.775L66.6541 38.0913C67.4023 39.7944 66.8882 41.7883 65.4099 42.9175L38.9716 63.1122C37.6908 64.0905 35.9507 64.2122 34.5463 63.4218Z" stroke="url(#paint5_linear_4790_57539)" stroke-width="0.424436"/>
<path opacity="0.5" d="M22.9371 61.0022L2.62374 34.6493C1.48786 33.1757 1.50718 31.1164 2.6705 29.6649L22.0104 5.53484C23.075 4.2066 24.859 3.69038 26.4686 4.24487L59.2741 15.5463C60.8836 16.1008 61.9718 17.6065 61.9934 19.3089L62.3848 50.2365C62.4084 52.0968 61.1564 53.7315 59.3545 54.193L27.131 62.447C25.5702 62.8468 23.921 62.2786 22.9371 61.0022Z" stroke="url(#paint6_linear_4790_57539)" stroke-width="0.424436"/>
<path opacity="0.571429" d="M13.2109 54.24L4.804 22.0406C4.33384 20.2398 5.15633 18.3511 6.79458 17.4695L34.0195 2.81873C35.5182 2.01221 37.3618 2.23423 38.6265 3.37355L64.4118 26.6023C65.6765 27.7416 66.0899 29.5527 65.4448 31.1283L53.7274 59.749C53.0223 61.4712 51.2308 62.4871 49.3917 62.2075L16.5058 57.2082C14.9135 56.9661 13.618 55.799 13.2109 54.24Z" stroke="url(#paint7_linear_4790_57539)" stroke-width="0.424436"/>
<path opacity="0.642857" d="M6.88555 44.2103L11.7221 11.2836C11.9926 9.44193 13.4881 8.02441 15.3411 7.85326L46.1219 5.01025C47.8165 4.85373 49.4266 5.77844 50.1456 7.32114L64.8102 38.7851C65.5292 40.3278 65.2023 42.1562 63.9932 43.3544L42.0309 65.1182C40.7087 66.4284 38.6621 66.6634 37.0781 65.6869L8.75849 48.2289C7.38782 47.3839 6.65146 45.804 6.88555 44.2103Z" stroke="url(#paint8_linear_4790_57539)" stroke-width="0.424436"/>
<path opacity="0.714286" d="M4.98939 32.5075L22.3006 4.08885C23.269 2.4992 25.1996 1.77892 26.9724 2.34586L56.4159 11.7616C58.037 12.28 59.158 13.7605 59.2173 15.4614L60.4284 50.1578C60.4877 51.8587 59.4727 53.4138 57.8917 54.044L29.1764 65.4918C27.4474 66.1811 25.4713 65.5973 24.3945 64.0791L5.14402 36.9378C4.21247 35.6245 4.15168 33.8827 4.98939 32.5075Z" stroke="url(#paint9_linear_4790_57539)" stroke-width="0.424436"/>
<path opacity="0.785714" d="M7.81482 20.9917L34.8483 1.59966C36.3604 0.514975 38.4185 0.606598 39.8289 1.82138L63.2549 21.9992C64.5446 23.1101 64.9983 24.9112 64.3886 26.5003L51.9534 58.9113C51.3437 60.5004 49.802 61.5351 48.1006 61.4973L17.1968 60.8094C15.3362 60.768 13.7454 59.4582 13.3472 57.6399L6.22671 25.1309C5.8821 23.5575 6.50646 21.9302 7.81482 20.9917Z" stroke="url(#paint10_linear_4790_57539)" stroke-width="0.424436"/>
<path opacity="0.857143" d="M14.9066 11.4944L47.3639 4.21217C49.1791 3.8049 51.0372 4.69331 51.8607 6.36226L65.545 34.0952C66.2983 35.6219 66.0122 37.4575 64.8301 38.6822L40.7269 63.6542C39.5448 64.8789 37.7213 65.229 36.17 64.529L7.99014 51.8142C6.29429 51.049 5.34202 49.2221 5.68549 47.3929L11.8269 14.6851C12.1243 13.1015 13.3352 11.847 14.9066 11.4944Z" stroke="url(#paint11_linear_4790_57539)" stroke-width="0.424436"/>
<path opacity="0.928571" d="M25.151 5.52689L57.8715 11.5118C59.7012 11.8465 61.0642 13.3899 61.1704 15.2474L62.9362 46.1268C63.0334 47.8265 62.0529 49.4045 60.486 50.07L28.5481 63.6335C26.9812 64.299 25.1656 63.9085 24.011 62.6578L3.03594 39.9363C1.7742 38.5696 1.61132 36.5165 2.64171 34.9672L21.0683 7.26077C21.9607 5.91882 23.5662 5.23701 25.151 5.52689Z" stroke="url(#paint12_linear_4790_57539)" stroke-width="0.424436"/>
<path d="M36.9082 4.03648L64.6901 22.3368C66.2436 23.3601 66.8954 25.3133 66.2678 27.0644L55.8335 56.1799C55.2592 57.7825 53.7402 58.8517 52.0378 58.8517H17.3425C15.6401 58.8517 14.1211 57.7825 13.5467 56.1799L3.11244 27.0644C2.48488 25.3133 3.1367 23.3601 4.69013 22.3368L32.4721 4.03648C33.8179 3.14996 35.5624 3.14996 36.9082 4.03648Z" stroke="url(#paint13_linear_4790_57539)" stroke-width="0.424436"/>
<path d="M51.7667 17.6802L39.25 10.4537C36.0013 8.57809 31.9987 8.57809 28.75 10.4537L16.2333 17.6802C12.9846 19.5559 10.9833 23.0222 10.9833 26.7735V41.2265C10.9833 44.9778 12.9846 48.4441 16.2333 50.3198L28.75 57.5463C31.9987 59.4219 36.0013 59.4219 39.25 57.5463L51.7667 50.3198C55.0154 48.4441 57.0167 44.9778 57.0167 41.2265V26.7735C57.0167 23.0222 55.0154 19.5559 51.7667 17.6802Z" fill="black" stroke="url(#paint14_linear_4790_57539)"/>
<g opacity="0.25">
<path d="M29.6478 45.4039C29.5247 45.2952 29.4477 45.1437 29.4323 44.9803L28.2089 31.9645H32.5629V46.5462C32.5629 47.1024 31.9068 47.3983 31.4899 47.0303L29.6478 45.4039Z" fill="black"/>
<path d="M32.5629 31.7062V29.8893L27.9765 29.493L28.1846 31.7062H32.5629Z" fill="black"/>
<path d="M32.5629 29.63L27.952 29.2316L27.2313 21.5645C27.1957 21.1857 27.4937 20.8584 27.8742 20.8584H31.9172C32.2739 20.8584 32.5629 21.1475 32.5629 21.5041V29.63Z" fill="black"/>
<path d="M41.0731 31.7062H44.3921C44.5704 31.7062 44.715 31.5616 44.715 31.3833V29.4793C44.715 29.2886 44.5506 29.1394 44.3608 29.158L41.2787 29.4589L41.0731 31.7062Z" fill="black"/>
<path d="M41.017 29.4845L36.4242 29.9329V31.7062H40.8137L41.017 29.4845Z" fill="black"/>
<path d="M36.166 29.9582V31.7062H23.9365C23.7581 31.7062 23.6136 31.5616 23.6136 31.3833V29.475C23.6136 29.2859 23.7755 29.1372 23.964 29.1533L34.8328 30.0829C34.8524 30.0846 34.8722 30.0845 34.8917 30.0826L36.166 29.9582Z" fill="black"/>
<path d="M37.5296 46.9864C37.1241 47.3974 36.4242 47.1103 36.4242 46.5329V26.5019H41.2961L39.6013 44.6785C39.5874 44.8269 39.5227 44.9659 39.418 45.072L37.5296 46.9864Z" fill="black"/>
<path d="M41.3202 26.2436H36.4242V23.4597L41.6099 23.1362L41.3202 26.2436Z" fill="black"/>
<path d="M36.4242 21.5042V23.2009L41.6342 22.8759L41.7565 21.5641C41.7918 21.1855 41.4939 20.8585 41.1136 20.8585H37.0699C36.7133 20.8585 36.4242 21.1476 36.4242 21.5042Z" fill="black"/>
<path d="M32.563 26.2436V23.4678L27.3837 23.2129L27.6671 26.2436H32.563Z" fill="black"/>
<path d="M32.8212 26.2436H45.8773C46.0199 26.2436 46.1355 26.128 46.1355 25.9853V23.116C46.1355 22.9669 46.0097 22.8488 45.8609 22.8582L34.6486 23.5704L32.8212 23.4805V26.2436Z" fill="black"/>
<path d="M27.1018 23.199L27.4112 26.2436H22.1802C22.0375 26.2436 21.9219 26.128 21.9219 25.9853V23.2154C21.9219 23.0678 22.0454 22.9502 22.1928 22.9574L27.1018 23.199Z" fill="black"/>
</g>
<path d="M29.5931 45.3521C29.47 45.2435 29.393 45.092 29.3776 44.9285L28.1542 31.9127H32.5083V46.4945C32.5083 47.0506 31.8521 47.3466 31.4352 46.9785L29.5931 45.3521Z" fill="url(#paint15_linear_4790_57539)"/>
<path d="M32.5083 31.6545V29.8375L27.9219 29.4412L28.1299 31.6545H32.5083Z" fill="url(#paint16_linear_4790_57539)"/>
<path d="M32.5083 29.5783L27.8973 29.1799L27.1766 21.5128C27.141 21.134 27.439 20.8066 27.8195 20.8066H31.8626C32.2192 20.8066 32.5083 21.0957 32.5083 21.4523V29.5783Z" fill="url(#paint17_linear_4790_57539)"/>
<path d="M41.0184 31.6544H44.3375C44.5158 31.6544 44.6603 31.5099 44.6603 31.3316V29.4275C44.6603 29.2368 44.4959 29.0877 44.3061 29.1062L41.224 29.4072L41.0184 31.6544Z" fill="url(#paint18_linear_4790_57539)"/>
<path d="M40.9623 29.4327L36.3696 29.8812V31.6544H40.759L40.9623 29.4327Z" fill="url(#paint19_linear_4790_57539)"/>
<path d="M36.1113 29.9064V31.6544H23.8818C23.7035 31.6544 23.5589 31.5099 23.5589 31.3316V29.4233C23.5589 29.2341 23.7208 29.0855 23.9093 29.1016L34.7782 30.0312C34.7978 30.0329 34.8175 30.0327 34.837 30.0308L36.1113 29.9064Z" fill="url(#paint20_linear_4790_57539)"/>
<path d="M37.4749 46.9346C37.0695 47.3457 36.3696 47.0585 36.3696 46.4812V26.4501H41.2414L39.5466 44.6268C39.5328 44.7752 39.468 44.9142 39.3634 45.0203L37.4749 46.9346Z" fill="url(#paint21_linear_4790_57539)"/>
<path d="M41.2655 26.1918H36.3696V23.4079L41.5552 23.0844L41.2655 26.1918Z" fill="url(#paint22_linear_4790_57539)"/>
<path d="M36.3696 21.4524V23.1491L41.5795 22.8241L41.7018 21.5124C41.7371 21.1337 41.4392 20.8067 41.0589 20.8067H37.0152C36.6586 20.8067 36.3696 21.0958 36.3696 21.4524Z" fill="url(#paint23_linear_4790_57539)"/>
<path d="M32.5083 26.1919V23.416L27.329 23.1611L27.6124 26.1919H32.5083Z" fill="url(#paint24_linear_4790_57539)"/>
<path d="M32.7666 26.1919H45.8226C45.9652 26.1919 46.0808 26.0762 46.0808 25.9336V23.0642C46.0808 22.9152 45.955 22.797 45.8062 22.8065L34.5939 23.5187L32.7666 23.4287V26.1919Z" fill="url(#paint25_linear_4790_57539)"/>
<path d="M27.0472 23.1473L27.3565 26.1919H22.1255C21.9828 26.1919 21.8672 26.0762 21.8672 25.9336V23.1636C21.8672 23.016 21.9907 22.8984 22.1382 22.9057L27.0472 23.1473Z" fill="url(#paint26_linear_4790_57539)"/>
<path d="M28.1338 29.2003L27.8973 29.1799L27.6164 26.1919H27.6124L27.329 23.1611L27.3316 23.1613L27.1766 21.5128C27.141 21.134 27.439 20.8066 27.8195 20.8066H31.8626C32.1074 20.8066 32.3204 20.9429 32.4299 21.1438C32.3383 21.0939 32.2332 21.0655 32.1215 21.0655H28.0784C27.6979 21.0655 27.3999 21.3928 27.4356 21.7716L27.5905 23.4201L27.588 23.42L27.8714 26.4507H27.8754L28.1338 29.2003Z" fill="white"/>
<path d="M32.7672 26.1919H33.0255V23.6876L34.8528 23.7775L46.0651 23.0654C46.0704 23.065 46.0756 23.0648 46.0808 23.0648V23.0642C46.0808 22.9152 45.955 22.797 45.8062 22.8065L41.8407 23.0584L41.8384 23.083L36.6285 23.408V23.3894L34.5939 23.5187L32.7672 23.4288L32.7672 26.1919Z" fill="white"/>
<path d="M41.6262 21.1438C41.5348 21.094 41.4299 21.0656 41.3178 21.0656H37.2742C36.9176 21.0656 36.6285 21.3547 36.6285 21.7113V23.133L36.3696 23.1491V21.4524C36.3696 21.0958 36.6586 20.8067 37.0153 20.8067H41.0589C41.3053 20.8067 41.5172 20.9441 41.6262 21.1438Z" fill="white"/>
<path d="M36.3696 26.4507H41.2413L41.2173 26.709H36.6285V46.74C36.6285 46.8549 36.6562 46.9582 36.7038 47.0469C36.5111 46.9418 36.3696 46.7408 36.3696 46.4812V31.9133H36.3702V30.1653L36.3696 30.1654V26.4507Z" fill="white"/>
<path d="M36.1113 30.1906V29.9064L34.837 30.0308C34.8175 30.0327 34.7978 30.0329 34.7782 30.0312L27.9219 29.4412L27.9222 29.4448L23.9093 29.1016C23.7208 29.0855 23.5589 29.2341 23.5589 29.4233V31.3316C23.5589 31.4899 23.6728 31.6216 23.8232 31.6491C23.8197 31.6301 23.8179 31.6105 23.8179 31.5904V29.6821C23.8179 29.493 23.9798 29.3443 24.1682 29.3605L28.1811 29.7037L28.1808 29.7001L35.0371 30.2901C35.0567 30.2917 35.0764 30.2916 35.096 30.2897L36.1113 30.1906Z" fill="white"/>
<path d="M28.1542 31.9133L29.3776 44.9285C29.393 45.092 29.47 45.2435 29.5931 45.3521L29.7399 45.4818C29.6824 45.3943 29.6465 45.2933 29.6366 45.1874L28.4131 32.1716H32.5083V31.9133L28.1542 31.9133Z" fill="white"/>
<path d="M41.0417 31.6544H41.301L41.483 29.666L44.565 29.3651C44.5959 29.3621 44.6261 29.3635 44.655 29.3688C44.6254 29.2073 44.4759 29.0896 44.3061 29.1062L41.249 29.4047L41.1696 30.2566L41.0417 31.6544Z" fill="white"/>
<path d="M27.0723 23.3946L27.0472 23.1473L22.1382 22.9057C21.9907 22.8984 21.8672 23.016 21.8672 23.1636V25.9336C21.8672 26.0762 21.9828 26.1919 22.1255 26.1919H22.1261V23.4225C22.1261 23.2749 22.2497 23.1573 22.3971 23.1646L27.0723 23.3946Z" fill="white"/>
</g>
<defs>
<linearGradient id="paint0_linear_4790_57539" x1="24.845" y1="16.0556" x2="44.8112" y2="52.0576" gradientUnits="userSpaceOnUse">
<stop offset="0.166667" stop-color="#876CF5" stop-opacity="0"/>
<stop offset="0.520833" stop-color="#1FDBFA" stop-opacity="0.6"/>
<stop offset="1" stop-color="#876CF5" stop-opacity="0.36"/>
</linearGradient>
<linearGradient id="paint1_linear_4790_57539" x1="32.5125" y1="13.6088" x2="36.8183" y2="54.5555" gradientUnits="userSpaceOnUse">
<stop offset="0.166667" stop-color="#876CF5" stop-opacity="0"/>
<stop offset="0.520833" stop-color="#1FDBFA" stop-opacity="0.6"/>
<stop offset="1" stop-color="#876CF5" stop-opacity="0.36"/>
</linearGradient>
<linearGradient id="paint2_linear_4790_57539" x1="40.5329" y1="14.3571" x2="28.4902" y2="53.7273" gradientUnits="userSpaceOnUse">
<stop offset="0.166667" stop-color="#876CF5" stop-opacity="0"/>
<stop offset="0.520833" stop-color="#1FDBFA" stop-opacity="0.6"/>
<stop offset="1" stop-color="#876CF5" stop-opacity="0.36"/>
</linearGradient>
<linearGradient id="paint3_linear_4790_57539" x1="47.6248" y1="18.1762" x2="21.1572" y2="49.7033" gradientUnits="userSpaceOnUse">
<stop offset="0.166667" stop-color="#876CF5" stop-opacity="0"/>
<stop offset="0.520833" stop-color="#1FDBFA" stop-opacity="0.6"/>
<stop offset="1" stop-color="#876CF5" stop-opacity="0.36"/>
</linearGradient>
<linearGradient id="paint4_linear_4790_57539" x1="52.6483" y1="24.4633" x2="15.974" y2="43.1405" gradientUnits="userSpaceOnUse">
<stop offset="0.166667" stop-color="#876CF5" stop-opacity="0"/>
<stop offset="0.520833" stop-color="#1FDBFA" stop-opacity="0.6"/>
<stop offset="1" stop-color="#876CF5" stop-opacity="0.36"/>
</linearGradient>
<linearGradient id="paint5_linear_4790_57539" x1="54.8245" y1="32.2142" x2="13.7724" y2="35.0834" gradientUnits="userSpaceOnUse">
<stop offset="0.166667" stop-color="#876CF5" stop-opacity="0"/>
<stop offset="0.520833" stop-color="#1FDBFA" stop-opacity="0.6"/>
<stop offset="1" stop-color="#876CF5" stop-opacity="0.36"/>
</linearGradient>
<linearGradient id="paint6_linear_4790_57539" x1="53.7908" y1="40.2025" x2="14.8766" y2="26.8099" gradientUnits="userSpaceOnUse">
<stop offset="0.166667" stop-color="#876CF5" stop-opacity="0"/>
<stop offset="0.520833" stop-color="#1FDBFA" stop-opacity="0.6"/>
<stop offset="1" stop-color="#876CF5" stop-opacity="0.36"/>
</linearGradient>
<linearGradient id="paint7_linear_4790_57539" x1="49.7346" y1="47.1542" x2="19.139" y2="19.6195" gradientUnits="userSpaceOnUse">
<stop offset="0.166667" stop-color="#876CF5" stop-opacity="0"/>
<stop offset="0.520833" stop-color="#1FDBFA" stop-opacity="0.6"/>
<stop offset="1" stop-color="#876CF5" stop-opacity="0.36"/>
</linearGradient>
<linearGradient id="paint8_linear_4790_57539" x1="43.2732" y1="51.9648" x2="25.8673" y2="14.6563" gradientUnits="userSpaceOnUse">
<stop offset="0.166667" stop-color="#876CF5" stop-opacity="0"/>
<stop offset="0.520833" stop-color="#1FDBFA" stop-opacity="0.6"/>
<stop offset="1" stop-color="#876CF5" stop-opacity="0.36"/>
</linearGradient>
<linearGradient id="paint9_linear_4790_57539" x1="35.4563" y1="53.8699" x2="34.0187" y2="12.7224" gradientUnits="userSpaceOnUse">
<stop offset="0.166667" stop-color="#876CF5" stop-opacity="0"/>
<stop offset="0.520833" stop-color="#1FDBFA" stop-opacity="0.6"/>
<stop offset="1" stop-color="#876CF5" stop-opacity="0.36"/>
</linearGradient>
<linearGradient id="paint10_linear_4790_57539" x1="27.5167" y1="52.5664" x2="42.2771" y2="14.1333" gradientUnits="userSpaceOnUse">
<stop offset="0.166667" stop-color="#876CF5" stop-opacity="0"/>
<stop offset="0.520833" stop-color="#1FDBFA" stop-opacity="0.6"/>
<stop offset="1" stop-color="#876CF5" stop-opacity="0.36"/>
</linearGradient>
<linearGradient id="paint11_linear_4790_57539" x1="20.7101" y1="48.2613" x2="49.3115" y2="18.6584" gradientUnits="userSpaceOnUse">
<stop offset="0.166667" stop-color="#876CF5" stop-opacity="0"/>
<stop offset="0.520833" stop-color="#1FDBFA" stop-opacity="0.6"/>
<stop offset="1" stop-color="#876CF5" stop-opacity="0.36"/>
</linearGradient>
<linearGradient id="paint12_linear_4790_57539" x1="16.1331" y1="41.6395" x2="54.0197" y2="25.5657" gradientUnits="userSpaceOnUse">
<stop offset="0.166667" stop-color="#876CF5" stop-opacity="0"/>
<stop offset="0.520833" stop-color="#1FDBFA" stop-opacity="0.6"/>
<stop offset="1" stop-color="#876CF5" stop-opacity="0.36"/>
</linearGradient>
<linearGradient id="paint13_linear_4790_57539" x1="14.5035" y1="33.7528" x2="55.6557" y2="33.7528" gradientUnits="userSpaceOnUse">
<stop offset="0.166667" stop-color="#876CF5" stop-opacity="0"/>
<stop offset="0.520833" stop-color="#1FDBFA" stop-opacity="0.6"/>
<stop offset="1" stop-color="#876CF5" stop-opacity="0.36"/>
</linearGradient>
<linearGradient id="paint14_linear_4790_57539" x1="18.2742" y1="11.7742" x2="52.4516" y2="55.8064" gradientUnits="userSpaceOnUse">
<stop stop-color="#A73EE7"/>
<stop offset="1" stop-color="#00EBFF"/>
</linearGradient>
<linearGradient id="paint15_linear_4790_57539" x1="21.8672" y1="33.974" x2="46.0808" y2="33.974" gradientUnits="userSpaceOnUse">
<stop stop-color="#5433FF"/>
<stop offset="0.5" stop-color="#20BDFF"/>
<stop offset="1" stop-color="#A5FECB"/>
</linearGradient>
<linearGradient id="paint16_linear_4790_57539" x1="21.8672" y1="33.974" x2="46.0808" y2="33.974" gradientUnits="userSpaceOnUse">
<stop stop-color="#5433FF"/>
<stop offset="0.5" stop-color="#20BDFF"/>
<stop offset="1" stop-color="#A5FECB"/>
</linearGradient>
<linearGradient id="paint17_linear_4790_57539" x1="21.8672" y1="33.974" x2="46.0808" y2="33.974" gradientUnits="userSpaceOnUse">
<stop stop-color="#5433FF"/>
<stop offset="0.5" stop-color="#20BDFF"/>
<stop offset="1" stop-color="#A5FECB"/>
</linearGradient>
<linearGradient id="paint18_linear_4790_57539" x1="21.8672" y1="33.974" x2="46.0808" y2="33.974" gradientUnits="userSpaceOnUse">
<stop stop-color="#5433FF"/>
<stop offset="0.5" stop-color="#20BDFF"/>
<stop offset="1" stop-color="#A5FECB"/>
</linearGradient>
<linearGradient id="paint19_linear_4790_57539" x1="21.8672" y1="33.974" x2="46.0808" y2="33.974" gradientUnits="userSpaceOnUse">
<stop stop-color="#5433FF"/>
<stop offset="0.5" stop-color="#20BDFF"/>
<stop offset="1" stop-color="#A5FECB"/>
</linearGradient>
<linearGradient id="paint20_linear_4790_57539" x1="21.8672" y1="33.974" x2="46.0808" y2="33.974" gradientUnits="userSpaceOnUse">
<stop stop-color="#5433FF"/>
<stop offset="0.5" stop-color="#20BDFF"/>
<stop offset="1" stop-color="#A5FECB"/>
</linearGradient>
<linearGradient id="paint21_linear_4790_57539" x1="21.8672" y1="33.974" x2="46.0808" y2="33.974" gradientUnits="userSpaceOnUse">
<stop stop-color="#5433FF"/>
<stop offset="0.5" stop-color="#20BDFF"/>
<stop offset="1" stop-color="#A5FECB"/>
</linearGradient>
<linearGradient id="paint22_linear_4790_57539" x1="21.8672" y1="33.974" x2="46.0808" y2="33.974" gradientUnits="userSpaceOnUse">
<stop stop-color="#5433FF"/>
<stop offset="0.5" stop-color="#20BDFF"/>
<stop offset="1" stop-color="#A5FECB"/>
</linearGradient>
<linearGradient id="paint23_linear_4790_57539" x1="21.8672" y1="33.974" x2="46.0808" y2="33.974" gradientUnits="userSpaceOnUse">
<stop stop-color="#5433FF"/>
<stop offset="0.5" stop-color="#20BDFF"/>
<stop offset="1" stop-color="#A5FECB"/>
</linearGradient>
<linearGradient id="paint24_linear_4790_57539" x1="21.8672" y1="33.974" x2="46.0808" y2="33.974" gradientUnits="userSpaceOnUse">
<stop stop-color="#5433FF"/>
<stop offset="0.5" stop-color="#20BDFF"/>
<stop offset="1" stop-color="#A5FECB"/>
</linearGradient>
<linearGradient id="paint25_linear_4790_57539" x1="21.8672" y1="33.974" x2="46.0808" y2="33.974" gradientUnits="userSpaceOnUse">
<stop stop-color="#5433FF"/>
<stop offset="0.5" stop-color="#20BDFF"/>
<stop offset="1" stop-color="#A5FECB"/>
</linearGradient>
<linearGradient id="paint26_linear_4790_57539" x1="21.8672" y1="33.974" x2="46.0808" y2="33.974" gradientUnits="userSpaceOnUse">
<stop stop-color="#5433FF"/>
<stop offset="0.5" stop-color="#20BDFF"/>
<stop offset="1" stop-color="#A5FECB"/>
</linearGradient>
<clipPath id="clip0_4790_57539">
<rect width="68" height="68" fill="white"/>
</clipPath>
</defs>
</svg>
