<svg width="68" height="68" viewBox="0 0 68 68" fill="none" xmlns="http://www.w3.org/2000/svg">
<g clip-path="url(#clip0_399_15619)">
<path opacity="0.0714286" d="M59.536 17.3735C60.9623 18.1208 61.8071 19.6456 61.6847 21.2518L59.1557 54.4358C59.0142 56.2918 57.6213 57.8102 55.7849 58.1102L25.277 63.0946C23.5974 63.369 21.9268 62.5588 21.1019 61.07L4.27944 30.7064C3.45458 29.2176 3.65322 27.3707 4.77585 26.0911L25.1674 2.84738C26.3949 1.44818 28.42 1.07096 30.0682 1.9345L59.536 17.3735Z" stroke="url(#paint0_linear_399_15619)" stroke-width="0.424436"/>
<path opacity="0.142857" d="M63.9334 28.3841C64.9543 29.6292 65.1363 31.3625 64.3966 32.7929L49.1089 62.3504C48.2538 64.0038 46.3781 64.8571 44.57 64.4152L14.5417 57.0773C12.8885 56.6733 11.667 55.2747 11.4892 53.582L7.86204 19.0547C7.68422 17.3621 8.58834 15.74 10.1215 15.0009L37.9687 1.57692C39.6455 0.768638 41.6575 1.21309 42.8375 2.65244L63.9334 28.3841Z" stroke="url(#paint1_linear_399_15619)" stroke-width="0.424436"/>
<path opacity="0.214286" d="M63.6859 40.2395C64.1393 41.7849 63.63 43.4518 62.3903 44.4793L36.7747 65.7108C35.3419 66.8984 33.2822 66.9506 31.7906 65.8372L7.01488 47.3435C5.65084 46.3253 5.07271 44.5603 5.5701 42.9326L15.7153 9.73251C16.2127 8.10482 17.6785 6.96501 19.3784 6.88404L50.2548 5.41341C52.1137 5.32486 53.7921 6.52045 54.3162 8.30663L63.6859 40.2395Z" stroke="url(#paint2_linear_399_15619)" stroke-width="0.424436"/>
<path opacity="0.285714" d="M58.8233 51.0508C58.6371 52.6512 57.5168 53.9871 55.9739 54.4484L24.1033 63.9782C22.3208 64.5112 20.4052 63.7545 19.4673 62.147L3.88291 35.4369C3.02497 33.9664 3.18232 32.1155 4.27612 30.8113L26.5797 4.21769C27.6735 2.9135 29.4681 2.43705 31.0644 3.02704L60.0619 13.7441C61.8071 14.3892 62.8845 16.1452 62.6694 17.994L58.8233 51.0508Z" stroke="url(#paint3_linear_399_15619)" stroke-width="0.424436"/>
<path opacity="0.357143" d="M50.124 59.1024C49.3273 60.5033 47.7735 61.2954 46.1724 61.1169L13.1142 57.4301C11.2656 57.224 9.79826 55.7793 9.56277 53.9336L5.64835 23.253C5.43288 21.5641 6.30094 19.9216 7.81757 19.1485L38.7322 3.38882C40.2488 2.61568 42.0872 2.8785 43.3262 4.04559L65.8342 25.2476C67.1882 26.5231 67.4939 28.5599 66.574 30.1774L50.124 59.1024Z" stroke="url(#paint4_linear_399_15619)" stroke-width="0.424436"/>
<path opacity="0.428571" d="M38.9677 63.1122C37.6869 64.0905 35.9467 64.2122 34.5424 63.4218L5.55219 47.1049C3.93119 46.1926 3.14477 44.2896 3.64872 42.499L12.0276 12.7262C12.4888 11.0874 13.9296 9.91482 15.6278 9.796L50.2386 7.37458C51.9369 7.25577 53.5267 8.21637 54.2114 9.77499L66.6502 38.0913C67.3984 39.7944 66.8843 41.7883 65.406 42.9175L38.9677 63.1122Z" stroke="url(#paint5_linear_399_15619)" stroke-width="0.424436"/>
<path opacity="0.5" d="M27.1349 62.4465C25.5741 62.8463 23.9249 62.2781 22.941 61.0017L2.62765 34.6488C1.49177 33.1752 1.51109 31.1159 2.67441 29.6644L22.0143 5.53435C23.0789 4.20611 24.8629 3.6899 26.4725 4.24438L59.278 15.5459C60.8875 16.1003 61.9757 17.606 61.9973 19.3084L62.3887 50.236C62.4123 52.0963 61.1603 53.731 59.3584 54.1925L27.1349 62.4465Z" stroke="url(#paint6_linear_399_15619)" stroke-width="0.424436"/>
<path opacity="0.571429" d="M16.5039 57.2082C14.9116 56.9661 13.616 55.799 13.209 54.24L4.80204 22.0406C4.33188 20.2398 5.15437 18.3511 6.79263 17.4695L34.0176 2.81873C35.5163 2.01221 37.3598 2.23423 38.6245 3.37355L64.4098 26.6023C65.6745 27.7416 66.0879 29.5527 65.4429 31.1283L53.7254 59.749C53.0203 61.4712 51.2288 62.4871 49.3897 62.2075L16.5039 57.2082Z" stroke="url(#paint7_linear_399_15619)" stroke-width="0.424436"/>
<path opacity="0.642857" d="M8.7624 48.2294C7.39173 47.3844 6.65537 45.8045 6.88946 44.2108L11.726 11.2841C11.9965 9.44242 13.492 8.0249 15.345 7.85375L46.1258 5.01073C47.8204 4.85421 49.4305 5.77892 50.1495 7.32163L64.8141 38.7856C65.5331 40.3283 65.2062 42.1567 63.9971 43.3549L42.0348 65.1187C40.7126 66.4289 38.666 66.6639 37.082 65.6874L8.7624 48.2294Z" stroke="url(#paint8_linear_399_15619)" stroke-width="0.424436"/>
<path opacity="0.714286" d="M5.14402 36.9383C4.21247 35.6249 4.15168 33.8832 4.98939 32.508L22.3006 4.08934C23.269 2.49968 25.1996 1.77941 26.9724 2.34635L56.4159 11.7621C58.037 12.2805 59.158 13.761 59.2173 15.4619L60.4284 50.1583C60.4877 51.8592 59.4727 53.4143 57.8917 54.0445L29.1764 65.4923C27.4474 66.1816 25.4713 65.5978 24.3945 64.0796L5.14402 36.9383Z" stroke="url(#paint9_linear_399_15619)" stroke-width="0.424436"/>
<path opacity="0.785714" d="M6.22671 25.1314C5.8821 23.558 6.50646 21.9307 7.81482 20.9921L34.8483 1.60014C36.3604 0.515457 38.4185 0.607086 39.8289 1.82188L63.2549 21.9997C64.5446 23.1106 64.9983 24.9117 64.3886 26.5008L51.9534 58.9118C51.3437 60.5008 49.802 61.5356 48.1006 61.4978L17.1968 60.8099C15.3362 60.7685 13.7454 59.4587 13.3472 57.6404L6.22671 25.1314Z" stroke="url(#paint10_linear_399_15619)" stroke-width="0.424436"/>
<path opacity="0.857143" d="M11.8289 14.6851C12.1262 13.1015 13.3371 11.847 14.9086 11.4944L47.3658 4.21217C49.1811 3.80489 51.0391 4.69331 51.8626 6.36227L65.5469 34.0952C66.3002 35.6219 66.0142 37.4575 64.832 38.6822L40.7289 63.6542C39.5468 64.8789 37.7232 65.229 36.1719 64.529L7.9921 51.8142C6.29625 51.049 5.34397 49.2221 5.68744 47.3929L11.8289 14.6851Z" stroke="url(#paint11_linear_399_15619)" stroke-width="0.424436"/>
<path opacity="0.928571" d="M21.0644 7.26077C21.9568 5.91882 23.5623 5.23701 25.1471 5.52689L57.8676 11.5118C59.6973 11.8465 61.0603 13.3899 61.1665 15.2474L62.9323 46.1268C63.0295 47.8265 62.049 49.4045 60.4821 50.07L28.5442 63.6335C26.9773 64.299 25.1617 63.9085 24.0071 62.6578L3.03204 39.9363C1.77029 38.5696 1.60741 36.5165 2.6378 34.9672L21.0644 7.26077Z" stroke="url(#paint12_linear_399_15619)" stroke-width="0.424436"/>
<path d="M32.4701 4.03648C33.8159 3.14996 35.5604 3.14996 36.9062 4.03648L64.6882 22.3368C66.2416 23.3601 66.8934 25.3133 66.2659 27.0644L55.8316 56.1799C55.2572 57.7825 53.7382 58.8517 52.0358 58.8517H17.3405C15.6381 58.8517 14.1191 57.7825 13.5448 56.1799L3.11048 27.0644C2.48292 25.3133 3.13474 23.3601 4.68818 22.3368L32.4701 4.03648Z" stroke="url(#paint13_linear_399_15619)" stroke-width="0.424436"/>
<g opacity="0.25">
<path d="M29.6449 45.4036C29.5218 45.295 29.4447 45.1435 29.4294 44.98L28.2059 31.9642H32.56V46.546C32.56 47.1021 31.9038 47.3981 31.487 47.03L29.6449 45.4036Z" fill="black"/>
<path d="M32.56 31.706V29.889L27.9736 29.4928L28.1816 31.706H32.56Z" fill="black"/>
<path d="M32.56 29.6298L27.949 29.2314L27.2284 21.5643C27.1928 21.1855 27.4907 20.8582 27.8712 20.8582H31.9143C32.2709 20.8582 32.56 21.1472 32.56 21.5039V29.6298Z" fill="black"/>
<path d="M41.0701 31.7059H44.3892C44.5675 31.7059 44.7121 31.5614 44.7121 31.3831V29.479C44.7121 29.2883 44.5476 29.1392 44.3578 29.1577L41.2758 29.4587L41.0701 31.7059Z" fill="black"/>
<path d="M41.0141 29.4842L36.4213 29.9327V31.7059H40.8108L41.0141 29.4842Z" fill="black"/>
<path d="M36.163 29.9579V31.7059H23.9335C23.7552 31.7059 23.6107 31.5614 23.6107 31.3831V29.4748C23.6107 29.2856 23.7726 29.137 23.961 29.1531L34.8299 30.0827C34.8495 30.0844 34.8692 30.0843 34.8888 30.0824L36.163 29.9579Z" fill="black"/>
<path d="M37.5267 46.9861C37.1212 47.3972 36.4213 47.1101 36.4213 46.5327V26.5016H41.2931L39.5984 44.6783C39.5845 44.8267 39.5198 44.9657 39.4151 45.0718L37.5267 46.9861Z" fill="black"/>
<path d="M41.3172 26.2434H36.4213V23.4594L41.607 23.1359L41.3172 26.2434Z" fill="black"/>
<path d="M36.4213 21.5039V23.2007L41.6312 22.8756L41.7535 21.5639C41.7889 21.1852 41.4909 20.8582 41.1106 20.8582H37.067C36.7104 20.8582 36.4213 21.1473 36.4213 21.5039Z" fill="black"/>
<path d="M32.56 26.2434V23.4675L27.3808 23.2127L27.6642 26.2434H32.56Z" fill="black"/>
<path d="M32.8183 26.2434H45.8743C46.017 26.2434 46.1326 26.1277 46.1326 25.9851V23.1158C46.1326 22.9667 46.0067 22.8485 45.8579 22.858L34.6456 23.5702L32.8183 23.4803V26.2434Z" fill="black"/>
<path d="M27.0989 23.1988L27.4083 26.2434H22.1772C22.0346 26.2434 21.9189 26.1277 21.9189 25.9851V23.2152C21.9189 23.0675 22.0425 22.9499 22.1899 22.9572L27.0989 23.1988Z" fill="black"/>
</g>
<path d="M29.5931 45.3519C29.47 45.2432 29.393 45.0917 29.3776 44.9283L28.1542 31.9125H32.5083V46.4942C32.5083 47.0504 31.8521 47.3463 31.4352 46.9783L29.5931 45.3519Z" fill="url(#paint14_linear_399_15619)"/>
<path d="M32.5083 31.6542V29.8373L27.9219 29.441L28.1299 31.6542H32.5083Z" fill="url(#paint15_linear_399_15619)"/>
<path d="M32.5083 29.578L27.8973 29.1796L27.1766 21.5125C27.141 21.1337 27.439 20.8064 27.8195 20.8064H31.8626C32.2192 20.8064 32.5083 21.0955 32.5083 21.4521V29.578Z" fill="url(#paint16_linear_399_15619)"/>
<path d="M41.0184 31.6542H44.3375C44.5158 31.6542 44.6603 31.5096 44.6603 31.3313V29.4273C44.6603 29.2366 44.4959 29.0874 44.3061 29.106L41.224 29.4069L41.0184 31.6542Z" fill="url(#paint17_linear_399_15619)"/>
<path d="M40.9623 29.4325L36.3696 29.8809V31.6542H40.759L40.9623 29.4325Z" fill="url(#paint18_linear_399_15619)"/>
<path d="M36.1113 29.9062V31.6542H23.8818C23.7035 31.6542 23.5589 31.5096 23.5589 31.3313V29.423C23.5589 29.2339 23.7208 29.0852 23.9093 29.1013L34.7782 30.0309C34.7978 30.0326 34.8175 30.0325 34.837 30.0306L36.1113 29.9062Z" fill="url(#paint19_linear_399_15619)"/>
<path d="M37.4749 46.9344C37.0695 47.3454 36.3696 47.0583 36.3696 46.4809V26.4499H41.2414L39.5466 44.6265C39.5328 44.7749 39.468 44.9139 39.3634 45.02L37.4749 46.9344Z" fill="url(#paint20_linear_399_15619)"/>
<path d="M41.2655 26.1916H36.3696V23.4077L41.5552 23.0842L41.2655 26.1916Z" fill="url(#paint21_linear_399_15619)"/>
<path d="M36.3696 21.4522V23.1489L41.5795 22.8239L41.7018 21.5121C41.7371 21.1335 41.4392 20.8065 41.0589 20.8065H37.0152C36.6586 20.8065 36.3696 21.0956 36.3696 21.4522Z" fill="url(#paint22_linear_399_15619)"/>
<path d="M32.5083 26.1916V23.4158L27.329 23.1609L27.6124 26.1916H32.5083Z" fill="url(#paint23_linear_399_15619)"/>
<path d="M32.7666 26.1916H45.8226C45.9652 26.1916 46.0808 26.076 46.0808 25.9333V23.064C46.0808 22.9149 45.955 22.7968 45.8062 22.8062L34.5939 23.5184L32.7666 23.4285V26.1916Z" fill="url(#paint24_linear_399_15619)"/>
<path d="M27.0472 23.147L27.3565 26.1916H22.1255C21.9828 26.1916 21.8672 26.076 21.8672 25.9333V23.1634C21.8672 23.0158 21.9907 22.8982 22.1382 22.9054L27.0472 23.147Z" fill="url(#paint25_linear_399_15619)"/>
<path d="M28.1338 29.2001L27.8973 29.1796L27.6164 26.1916H27.6124L27.329 23.1609L27.3316 23.161L27.1766 21.5125C27.141 21.1337 27.439 20.8064 27.8195 20.8064H31.8626C32.1074 20.8064 32.3204 20.9427 32.4299 21.1435C32.3383 21.0936 32.2332 21.0653 32.1215 21.0653H28.0784C27.6979 21.0653 27.3999 21.3926 27.4356 21.7714L27.5905 23.4199L27.588 23.4198L27.8714 26.4505H27.8754L28.1338 29.2001Z" fill="white"/>
<path d="M32.7672 26.1916H33.0255V23.6874L34.8528 23.7773L46.0651 23.0651C46.0704 23.0648 46.0756 23.0646 46.0808 23.0646V23.064C46.0808 22.9149 45.955 22.7968 45.8062 22.8062L41.8407 23.0581L41.8384 23.0828L36.6285 23.4078V23.3892L34.5939 23.5184L32.7672 23.4285L32.7672 26.1916Z" fill="white"/>
<path d="M41.6262 21.1435C41.5348 21.0938 41.4299 21.0654 41.3178 21.0654H37.2742C36.9176 21.0654 36.6285 21.3545 36.6285 21.7111V23.1327L36.3696 23.1489V21.4522C36.3696 21.0956 36.6586 20.8065 37.0153 20.8065H41.0589C41.3053 20.8065 41.5172 20.9438 41.6262 21.1435Z" fill="white"/>
<path d="M36.3696 26.4505H41.2413L41.2173 26.7088H36.6285V46.7398C36.6285 46.8546 36.6562 46.958 36.7038 47.0467C36.5111 46.9415 36.3696 46.7406 36.3696 46.4809V31.913H36.3702V30.165L36.3696 30.1651V26.4505Z" fill="white"/>
<path d="M36.1113 30.1903V29.9062L34.837 30.0306C34.8175 30.0325 34.7978 30.0326 34.7782 30.0309L27.9219 29.441L27.9222 29.4446L23.9093 29.1013C23.7208 29.0852 23.5589 29.2339 23.5589 29.423V31.3313C23.5589 31.4896 23.6728 31.6213 23.8232 31.6489C23.8197 31.6298 23.8179 31.6102 23.8179 31.5902V29.6819C23.8179 29.4927 23.9798 29.3441 24.1682 29.3602L28.1811 29.7034L28.1808 29.6999L35.0371 30.2898C35.0567 30.2915 35.0764 30.2914 35.096 30.2895L36.1113 30.1903Z" fill="white"/>
<path d="M28.1542 31.913L29.3776 44.9283C29.393 45.0917 29.47 45.2432 29.5931 45.3519L29.7399 45.4815C29.6824 45.394 29.6465 45.2931 29.6366 45.1872L28.4131 32.1714H32.5083V31.9131L28.1542 31.913Z" fill="white"/>
<path d="M41.0417 31.6542H41.301L41.483 29.6658L44.565 29.3648C44.5959 29.3618 44.6261 29.3632 44.655 29.3686C44.6254 29.207 44.4759 29.0894 44.3061 29.106L41.249 29.4045L41.1696 30.2563L41.0417 31.6542Z" fill="white"/>
<path d="M27.0723 23.3944L27.0472 23.147L22.1382 22.9054C21.9907 22.8982 21.8672 23.0158 21.8672 23.1634V25.9333C21.8672 26.076 21.9828 26.1916 22.1255 26.1916H22.1261V23.4223C22.1261 23.2747 22.2497 23.1571 22.3971 23.1643L27.0723 23.3944Z" fill="white"/>
</g>
<rect x="35.7276" y="7.72763" width="30.5447" height="12.5447" rx="6.27237" fill="black"/>
<path d="M40.5036 16L42.0856 10.806H43.5976L45.1796 16H43.9266L43.6606 15.055H42.0086L41.7496 16H40.5036ZM42.2886 13.97H43.3806L42.8346 11.842L42.2886 13.97ZM45.8407 16.014C45.7381 16.014 45.6867 15.9627 45.6867 15.86V15.09C45.6867 14.9827 45.7381 14.929 45.8407 14.929H46.5407C46.6527 14.929 46.7087 14.9827 46.7087 15.09V15.86C46.7087 15.916 46.6924 15.9557 46.6597 15.979C46.6317 16.0023 46.5921 16.014 46.5407 16.014H45.8407ZM50.2507 16L49.0397 12.234H50.2857L50.9717 14.88L51.6787 12.234H52.9177L51.6437 16H50.2507ZM54.7813 16.035C54.4779 16.035 54.2213 15.9813 54.0113 15.874C53.8013 15.7667 53.6449 15.6103 53.5423 15.405C53.4396 15.1997 53.3883 14.95 53.3883 14.656V12.206C53.3883 11.8933 53.4419 11.632 53.5493 11.422C53.6613 11.2073 53.8223 11.044 54.0323 10.932C54.2423 10.82 54.4943 10.764 54.7883 10.764H55.8943C56.1883 10.764 56.4333 10.8223 56.6293 10.939C56.8299 11.051 56.9816 11.2143 57.0843 11.429C57.1869 11.639 57.2383 11.898 57.2383 12.206V14.656C57.2383 15.0947 57.1216 15.4353 56.8883 15.678C56.6549 15.916 56.3213 16.035 55.8873 16.035H54.7813ZM55.0753 14.95H55.5583C55.7169 14.95 55.8336 14.9127 55.9083 14.838C55.9876 14.7587 56.0273 14.6373 56.0273 14.474V12.332C56.0273 12.1453 55.9876 12.0193 55.9083 11.954C55.8336 11.884 55.7333 11.849 55.6073 11.849H55.0333C54.8886 11.849 54.7789 11.8887 54.7043 11.968C54.6343 12.0473 54.5993 12.1687 54.5993 12.332V14.467C54.5993 14.6397 54.6389 14.7633 54.7183 14.838C54.7976 14.9127 54.9166 14.95 55.0753 14.95ZM58.1451 16.014C58.0425 16.014 57.9911 15.9627 57.9911 15.86V15.09C57.9911 14.9827 58.0425 14.929 58.1451 14.929H58.8451C58.9571 14.929 59.0131 14.9827 59.0131 15.09V15.86C59.0131 15.916 58.9968 15.9557 58.9641 15.979C58.9361 16.0023 58.8965 16.014 58.8451 16.014H58.1451ZM59.9846 16V11.912L59.1166 11.968V11.198L60.1246 10.764H61.1956V16H59.9846Z" fill="url(#paint26_linear_399_15619)"/>
<rect x="35.7276" y="7.72763" width="30.5447" height="12.5447" rx="6.27237" stroke="url(#paint27_linear_399_15619)" stroke-width="0.544747"/>
<defs>
<linearGradient id="paint0_linear_399_15619" x1="24.845" y1="16.0556" x2="44.8112" y2="52.0576" gradientUnits="userSpaceOnUse">
<stop offset="0.166667" stop-color="#876CF5" stop-opacity="0"/>
<stop offset="0.520833" stop-color="#1FDBFA" stop-opacity="0.6"/>
<stop offset="1" stop-color="#876CF5" stop-opacity="0.36"/>
</linearGradient>
<linearGradient id="paint1_linear_399_15619" x1="32.5144" y1="13.6088" x2="36.8202" y2="54.5555" gradientUnits="userSpaceOnUse">
<stop offset="0.166667" stop-color="#876CF5" stop-opacity="0"/>
<stop offset="0.520833" stop-color="#1FDBFA" stop-opacity="0.6"/>
<stop offset="1" stop-color="#876CF5" stop-opacity="0.36"/>
</linearGradient>
<linearGradient id="paint2_linear_399_15619" x1="40.5349" y1="14.3566" x2="28.4922" y2="53.7268" gradientUnits="userSpaceOnUse">
<stop offset="0.166667" stop-color="#876CF5" stop-opacity="0"/>
<stop offset="0.520833" stop-color="#1FDBFA" stop-opacity="0.6"/>
<stop offset="1" stop-color="#876CF5" stop-opacity="0.36"/>
</linearGradient>
<linearGradient id="paint3_linear_399_15619" x1="47.6209" y1="18.1762" x2="21.1533" y2="49.7033" gradientUnits="userSpaceOnUse">
<stop offset="0.166667" stop-color="#876CF5" stop-opacity="0"/>
<stop offset="0.520833" stop-color="#1FDBFA" stop-opacity="0.6"/>
<stop offset="1" stop-color="#876CF5" stop-opacity="0.36"/>
</linearGradient>
<linearGradient id="paint4_linear_399_15619" x1="52.6503" y1="24.4628" x2="15.9759" y2="43.14" gradientUnits="userSpaceOnUse">
<stop offset="0.166667" stop-color="#876CF5" stop-opacity="0"/>
<stop offset="0.520833" stop-color="#1FDBFA" stop-opacity="0.6"/>
<stop offset="1" stop-color="#876CF5" stop-opacity="0.36"/>
</linearGradient>
<linearGradient id="paint5_linear_399_15619" x1="54.8206" y1="32.2142" x2="13.7685" y2="35.0834" gradientUnits="userSpaceOnUse">
<stop offset="0.166667" stop-color="#876CF5" stop-opacity="0"/>
<stop offset="0.520833" stop-color="#1FDBFA" stop-opacity="0.6"/>
<stop offset="1" stop-color="#876CF5" stop-opacity="0.36"/>
</linearGradient>
<linearGradient id="paint6_linear_399_15619" x1="53.7947" y1="40.202" x2="14.8805" y2="26.8094" gradientUnits="userSpaceOnUse">
<stop offset="0.166667" stop-color="#876CF5" stop-opacity="0"/>
<stop offset="0.520833" stop-color="#1FDBFA" stop-opacity="0.6"/>
<stop offset="1" stop-color="#876CF5" stop-opacity="0.36"/>
</linearGradient>
<linearGradient id="paint7_linear_399_15619" x1="49.7327" y1="47.1542" x2="19.137" y2="19.6195" gradientUnits="userSpaceOnUse">
<stop offset="0.166667" stop-color="#876CF5" stop-opacity="0"/>
<stop offset="0.520833" stop-color="#1FDBFA" stop-opacity="0.6"/>
<stop offset="1" stop-color="#876CF5" stop-opacity="0.36"/>
</linearGradient>
<linearGradient id="paint8_linear_399_15619" x1="43.2771" y1="51.9652" x2="25.8712" y2="14.6568" gradientUnits="userSpaceOnUse">
<stop offset="0.166667" stop-color="#876CF5" stop-opacity="0"/>
<stop offset="0.520833" stop-color="#1FDBFA" stop-opacity="0.6"/>
<stop offset="1" stop-color="#876CF5" stop-opacity="0.36"/>
</linearGradient>
<linearGradient id="paint9_linear_399_15619" x1="35.4563" y1="53.8704" x2="34.0187" y2="12.7229" gradientUnits="userSpaceOnUse">
<stop offset="0.166667" stop-color="#876CF5" stop-opacity="0"/>
<stop offset="0.520833" stop-color="#1FDBFA" stop-opacity="0.6"/>
<stop offset="1" stop-color="#876CF5" stop-opacity="0.36"/>
</linearGradient>
<linearGradient id="paint10_linear_399_15619" x1="27.5167" y1="52.5669" x2="42.2771" y2="14.1338" gradientUnits="userSpaceOnUse">
<stop offset="0.166667" stop-color="#876CF5" stop-opacity="0"/>
<stop offset="0.520833" stop-color="#1FDBFA" stop-opacity="0.6"/>
<stop offset="1" stop-color="#876CF5" stop-opacity="0.36"/>
</linearGradient>
<linearGradient id="paint11_linear_399_15619" x1="20.712" y1="48.2613" x2="49.3135" y2="18.6584" gradientUnits="userSpaceOnUse">
<stop offset="0.166667" stop-color="#876CF5" stop-opacity="0"/>
<stop offset="0.520833" stop-color="#1FDBFA" stop-opacity="0.6"/>
<stop offset="1" stop-color="#876CF5" stop-opacity="0.36"/>
</linearGradient>
<linearGradient id="paint12_linear_399_15619" x1="16.1292" y1="41.6395" x2="54.0158" y2="25.5657" gradientUnits="userSpaceOnUse">
<stop offset="0.166667" stop-color="#876CF5" stop-opacity="0"/>
<stop offset="0.520833" stop-color="#1FDBFA" stop-opacity="0.6"/>
<stop offset="1" stop-color="#876CF5" stop-opacity="0.36"/>
</linearGradient>
<linearGradient id="paint13_linear_399_15619" x1="14.5015" y1="33.7528" x2="55.6537" y2="33.7528" gradientUnits="userSpaceOnUse">
<stop offset="0.166667" stop-color="#876CF5" stop-opacity="0"/>
<stop offset="0.520833" stop-color="#1FDBFA" stop-opacity="0.6"/>
<stop offset="1" stop-color="#876CF5" stop-opacity="0.36"/>
</linearGradient>
<linearGradient id="paint14_linear_399_15619" x1="21.8672" y1="33.9738" x2="46.0808" y2="33.9738" gradientUnits="userSpaceOnUse">
<stop stop-color="#5433FF"/>
<stop offset="0.5" stop-color="#20BDFF"/>
<stop offset="1" stop-color="#A5FECB"/>
</linearGradient>
<linearGradient id="paint15_linear_399_15619" x1="21.8672" y1="33.9738" x2="46.0808" y2="33.9738" gradientUnits="userSpaceOnUse">
<stop stop-color="#5433FF"/>
<stop offset="0.5" stop-color="#20BDFF"/>
<stop offset="1" stop-color="#A5FECB"/>
</linearGradient>
<linearGradient id="paint16_linear_399_15619" x1="21.8672" y1="33.9738" x2="46.0808" y2="33.9738" gradientUnits="userSpaceOnUse">
<stop stop-color="#5433FF"/>
<stop offset="0.5" stop-color="#20BDFF"/>
<stop offset="1" stop-color="#A5FECB"/>
</linearGradient>
<linearGradient id="paint17_linear_399_15619" x1="21.8672" y1="33.9738" x2="46.0808" y2="33.9738" gradientUnits="userSpaceOnUse">
<stop stop-color="#5433FF"/>
<stop offset="0.5" stop-color="#20BDFF"/>
<stop offset="1" stop-color="#A5FECB"/>
</linearGradient>
<linearGradient id="paint18_linear_399_15619" x1="21.8672" y1="33.9738" x2="46.0808" y2="33.9738" gradientUnits="userSpaceOnUse">
<stop stop-color="#5433FF"/>
<stop offset="0.5" stop-color="#20BDFF"/>
<stop offset="1" stop-color="#A5FECB"/>
</linearGradient>
<linearGradient id="paint19_linear_399_15619" x1="21.8672" y1="33.9738" x2="46.0808" y2="33.9738" gradientUnits="userSpaceOnUse">
<stop stop-color="#5433FF"/>
<stop offset="0.5" stop-color="#20BDFF"/>
<stop offset="1" stop-color="#A5FECB"/>
</linearGradient>
<linearGradient id="paint20_linear_399_15619" x1="21.8672" y1="33.9738" x2="46.0808" y2="33.9738" gradientUnits="userSpaceOnUse">
<stop stop-color="#5433FF"/>
<stop offset="0.5" stop-color="#20BDFF"/>
<stop offset="1" stop-color="#A5FECB"/>
</linearGradient>
<linearGradient id="paint21_linear_399_15619" x1="21.8672" y1="33.9738" x2="46.0808" y2="33.9738" gradientUnits="userSpaceOnUse">
<stop stop-color="#5433FF"/>
<stop offset="0.5" stop-color="#20BDFF"/>
<stop offset="1" stop-color="#A5FECB"/>
</linearGradient>
<linearGradient id="paint22_linear_399_15619" x1="21.8672" y1="33.9738" x2="46.0808" y2="33.9738" gradientUnits="userSpaceOnUse">
<stop stop-color="#5433FF"/>
<stop offset="0.5" stop-color="#20BDFF"/>
<stop offset="1" stop-color="#A5FECB"/>
</linearGradient>
<linearGradient id="paint23_linear_399_15619" x1="21.8672" y1="33.9738" x2="46.0808" y2="33.9738" gradientUnits="userSpaceOnUse">
<stop stop-color="#5433FF"/>
<stop offset="0.5" stop-color="#20BDFF"/>
<stop offset="1" stop-color="#A5FECB"/>
</linearGradient>
<linearGradient id="paint24_linear_399_15619" x1="21.8672" y1="33.9738" x2="46.0808" y2="33.9738" gradientUnits="userSpaceOnUse">
<stop stop-color="#5433FF"/>
<stop offset="0.5" stop-color="#20BDFF"/>
<stop offset="1" stop-color="#A5FECB"/>
</linearGradient>
<linearGradient id="paint25_linear_399_15619" x1="21.8672" y1="33.9738" x2="46.0808" y2="33.9738" gradientUnits="userSpaceOnUse">
<stop stop-color="#5433FF"/>
<stop offset="0.5" stop-color="#20BDFF"/>
<stop offset="1" stop-color="#A5FECB"/>
</linearGradient>
<linearGradient id="paint26_linear_399_15619" x1="44.3468" y1="10.5806" x2="47.1847" y2="20.6351" gradientUnits="userSpaceOnUse">
<stop stop-color="#A73EE7"/>
<stop offset="1" stop-color="#00EBFF"/>
</linearGradient>
<linearGradient id="paint27_linear_399_15619" x1="41.9274" y1="8.87097" x2="46.5385" y2="23.7225" gradientUnits="userSpaceOnUse">
<stop stop-color="#A73EE7"/>
<stop offset="1" stop-color="#00EBFF"/>
</linearGradient>
<clipPath id="clip0_399_15619">
<rect width="68" height="68" fill="white"/>
</clipPath>
</defs>
</svg>
