<svg viewBox="0 0 1370 1370" fill="none" xmlns="http://www.w3.org/2000/svg">
<g clip-path="url(#clip0_20453_164963)">
<rect width="1370" height="1370" fill="black"/>
<mask id="mask0_20453_164963" style="mask-type:alpha" maskUnits="userSpaceOnUse" x="330" y="364" width="674" height="672">
<rect width="667.668" height="281.904" transform="matrix(-0.710481 -0.703717 -0.703717 0.710481 1003.09 834.729)" fill="url(#paint0_linear_20453_164963)"/>
</mask>
<g mask="url(#mask0_20453_164963)">
<g filter="url(#filter0_dddd_20453_164963)">
<ellipse cx="249.302" cy="251.617" rx="249.302" ry="251.617" transform="matrix(-0.387098 -0.922038 0.925683 0.3783 529.789 834.451)" stroke="white" stroke-width="2.06596" stroke-linecap="round" stroke-dasharray="0.21 12.4"/>
</g>
</g>
<mask id="mask1_20453_164963" style="mask-type:alpha" maskUnits="userSpaceOnUse" x="375" y="378" width="604" height="602">
<rect width="598.429" height="252.23" transform="matrix(-0.710481 -0.703717 -0.703717 0.710481 978.438 799.873)" fill="url(#paint1_linear_20453_164963)"/>
</mask>
<g mask="url(#mask1_20453_164963)">
<g filter="url(#filter1_dddd_20453_164963)">
<ellipse cx="224.232" cy="226.314" rx="224.232" ry="226.314" transform="matrix(-0.387098 -0.922038 0.925683 0.3783 555.195 800.994)" stroke="white" stroke-width="2.06596" stroke-linecap="round" stroke-dasharray="20.66 18.59"/>
</g>
</g>
<mask id="mask2_20453_164963" style="mask-type:alpha" maskUnits="userSpaceOnUse" x="342" y="342" width="688" height="685">
<rect width="682.505" height="286.85" transform="matrix(-0.710481 -0.703717 -0.703717 0.710481 1029.26 822.363)" fill="url(#paint2_linear_20453_164963)"/>
</mask>
<g mask="url(#mask2_20453_164963)">
<g filter="url(#filter2_dddd_20453_164963)">
<ellipse cx="253.056" cy="255.406" rx="253.056" ry="255.406" transform="matrix(-0.387098 -0.922039 0.925683 0.3783 548.602 819.309)" stroke="white" stroke-width="4.13192" stroke-linecap="round" stroke-dasharray="0.21 18.59"/>
</g>
</g>
<mask id="mask3_20453_164963" style="mask-type:alpha" maskUnits="userSpaceOnUse" x="370" y="334" width="667" height="665">
<rect width="662.723" height="276.959" transform="matrix(-0.710481 -0.703717 -0.703717 0.710481 1036.14 801.352)" fill="url(#paint3_linear_20453_164963)"/>
</mask>
<g mask="url(#mask3_20453_164963)">
<g filter="url(#filter3_dddd_20453_164963)">
<ellipse cx="238.548" cy="240.763" rx="238.548" ry="240.763" transform="matrix(-0.387098 -0.922039 0.925683 0.3783 573.492 795.58)" stroke="white" stroke-width="6.19788" stroke-linecap="round" stroke-dasharray="0.21 24.79"/>
</g>
</g>
<mask id="mask4_20453_164963" style="mask-type:alpha" maskUnits="userSpaceOnUse" x="324" y="323" width="706" height="709">
<rect width="702.288" height="296.742" transform="matrix(-0.703717 0.710481 0.710481 0.703717 818.961 323.451)" fill="url(#paint4_linear_20453_164963)"/>
</mask>
<g mask="url(#mask4_20453_164963)">
<g filter="url(#filter4_dddd_20453_164963)">
<ellipse cx="260.675" cy="263.096" rx="260.675" ry="263.096" transform="matrix(-0.922039 0.387098 0.3783 -0.925683 817.969 818.119)" stroke="white" stroke-width="2.06596" stroke-linecap="round" stroke-dasharray="0.21 14.46"/>
</g>
</g>
<mask id="mask5_20453_164963" style="mask-type:alpha" maskUnits="userSpaceOnUse" x="349" y="347" width="664" height="667">
<rect width="662.723" height="276.959" transform="matrix(-0.703717 0.710481 0.710481 0.703717 815.828 347.354)" fill="url(#paint5_linear_20453_164963)"/>
</mask>
<g mask="url(#mask5_20453_164963)">
<g filter="url(#filter5_dddd_20453_164963)">
<ellipse cx="227.97" cy="230.087" rx="227.97" ry="230.087" transform="matrix(-0.922039 0.387098 0.3783 -0.925683 804.273 804.588)" stroke="white" stroke-width="2.06596" stroke-linecap="round" stroke-dasharray="20.66 28.92"/>
</g>
</g>
<mask id="mask6_20453_164963" style="mask-type:alpha" maskUnits="userSpaceOnUse" x="330" y="328" width="664" height="666">
<rect width="662.723" height="276.959" transform="matrix(-0.703717 0.710481 0.710481 0.703717 796.5 328.205)" fill="url(#paint6_linear_20453_164963)"/>
</mask>
<g mask="url(#mask6_20453_164963)">
<g filter="url(#filter6_dddd_20453_164963)">
<ellipse cx="241.28" cy="243.52" rx="241.28" ry="243.52" transform="matrix(-0.922039 0.387098 0.3783 -0.925683 791.586 792.184)" stroke="white" stroke-width="6.19788" stroke-linecap="round" stroke-dasharray="0.21 24.79"/>
</g>
</g>
<mask id="mask7_20453_164963" style="mask-type:alpha" maskUnits="userSpaceOnUse" x="377" y="375" width="664" height="666">
<rect width="662.723" height="276.959" transform="matrix(-0.703717 0.710481 0.710481 0.703717 843.938 375.189)" fill="url(#paint7_linear_20453_164963)"/>
</mask>
<g mask="url(#mask7_20453_164963)">
<g filter="url(#filter7_dddd_20453_164963)">
<ellipse cx="238.548" cy="240.763" rx="238.548" ry="240.763" transform="matrix(-0.922039 0.387098 0.3783 -0.925683 838.742 839.209)" stroke="white" stroke-width="6.19788" stroke-linecap="round" stroke-dasharray="0.21 24.79"/>
</g>
</g>
<g style="mix-blend-mode:screen" filter="url(#filter8_f_20453_164963)">
<path fill-rule="evenodd" clip-rule="evenodd" d="M723.875 872.316C747.029 885.644 769.575 896.163 790.815 903.69C852.693 925.619 892.902 919.118 911.628 900.213C930.353 881.308 936.469 841.038 913.949 779.372C905.994 757.59 894.857 734.453 880.746 710.724C859.225 741.747 833.436 772.867 803.858 802.73C777.889 828.948 750.924 852.254 723.875 872.316ZM697.925 890.56C795.616 950.038 888.044 965.124 932.177 920.567C976.711 875.605 960.046 782.05 898.274 683.964C959.095 585.299 974.86 491.597 929.901 447.066C885.346 402.935 793.072 418.901 695.958 479.305C592.962 412.261 493.405 393.306 447.074 440.082C401.143 486.455 420.312 584.52 486.926 685.932C421.275 787.983 403.041 886.235 449.416 932.169C496.194 978.502 595.571 958.592 697.925 890.56ZM504.867 711.748C488.085 739.147 475.127 765.877 466.293 790.807C444.364 852.685 450.865 892.894 469.77 911.62C488.676 930.345 528.945 936.461 590.611 913.941C616.069 904.644 643.376 891 671.318 873.342C639.369 851.439 607.275 824.992 576.514 794.524C549.393 767.661 525.388 739.733 504.867 711.748ZM521.804 685.766C542.65 715.314 567.799 745.182 596.868 773.974C629.677 806.471 663.809 833.961 697.252 855.914C726.097 835.37 755.215 810.739 783.308 782.376C815.113 750.265 842.122 716.887 863.838 684.129C841.812 651.586 814.488 618.474 782.384 586.675C754.017 558.578 724.661 534.224 695.616 513.955C662.382 536.228 628.51 564.047 596.009 596.86C567.222 625.923 542.364 656.025 521.804 685.766ZM504.62 659.946C487.582 632.715 474.373 606.116 465.302 581.277C442.782 519.611 448.898 479.342 467.624 460.436C486.349 441.531 526.558 435.03 588.436 456.959C613.979 466.011 641.411 479.39 669.516 496.777C637.774 518.986 605.931 545.741 575.459 576.506C548.603 603.621 524.87 631.772 504.62 659.946ZM722.083 497.299C745.103 483.755 767.544 473.023 788.706 465.294C850.372 442.774 890.641 448.89 909.547 467.616C928.452 486.341 934.953 526.551 913.024 588.429C905.28 610.281 894.368 633.517 880.49 657.373C858.676 626.563 832.595 595.698 802.737 566.125C776.516 540.154 749.326 517.104 722.083 497.299Z" fill="url(#paint8_linear_20453_164963)"/>
</g>
<g style="mix-blend-mode:color-dodge" filter="url(#filter9_f_20453_164963)">
<path fill-rule="evenodd" clip-rule="evenodd" d="M734.625 864.168C755.554 875.915 775.853 885.237 794.955 892.007C855.768 913.558 889.456 904.983 902.821 891.49C916.185 877.997 924.438 844.229 902.306 783.624C895.158 764.053 885.301 743.242 872.878 721.807C853.031 749.14 829.915 776.422 803.858 802.73C781.331 825.472 758.055 846.024 734.625 864.168ZM697.925 890.56C795.616 950.038 888.044 965.124 932.177 920.567C976.711 875.605 960.046 782.05 898.274 683.964C959.095 585.299 974.86 491.597 929.901 447.066C885.346 402.935 793.072 418.901 695.958 479.305C592.962 412.261 493.405 393.306 447.074 440.082C401.143 486.455 420.312 584.52 486.926 685.932C421.275 787.983 403.041 886.235 449.416 932.169C496.194 978.502 595.571 958.592 697.925 890.56ZM512.881 722.442C497.759 747.671 486.052 772.161 477.976 794.947C456.425 855.761 465 889.448 478.493 902.813C491.986 916.177 525.754 924.43 586.359 902.298C609.601 893.81 634.592 881.5 660.299 865.611C632.009 845.307 603.739 821.49 576.514 794.524C552.849 771.084 531.557 746.834 512.881 722.442ZM537.002 685.693C556.36 712.282 579.308 739.135 605.591 765.167C635.561 794.852 666.558 820.192 696.968 840.822C722.922 821.765 749.102 799.295 774.501 773.653C803.56 744.314 828.455 713.993 848.844 684.201C828.173 654.612 802.993 624.535 773.66 595.482C748.014 570.08 721.615 547.859 695.477 529.049C665.262 549.971 634.505 575.608 604.816 605.583C578.789 631.86 556.103 658.926 537.002 685.693ZM512.532 649.176C497.174 624.099 485.236 599.727 476.946 577.025C454.813 516.42 463.066 482.652 476.431 469.159C489.795 455.666 523.483 447.091 584.296 468.642C607.614 476.906 632.718 488.974 658.571 504.612C630.474 525.188 602.429 549.277 575.459 576.506C552.026 600.165 530.97 624.612 512.532 649.176ZM732.91 505.344C753.721 493.402 773.926 483.888 792.958 476.938C853.563 454.805 887.331 463.058 900.824 476.423C914.317 489.787 922.892 523.475 901.341 584.288C894.383 603.921 884.728 624.82 872.516 646.367C852.411 619.231 829.039 592.177 802.737 566.125C779.991 543.596 756.517 523.265 732.91 505.344Z" fill="url(#paint9_linear_20453_164963)"/>
</g>
<g clip-path="url(#clip1_20453_164963)">
<path opacity="0.0714286" d="M737.759 650.649C740.705 652.193 742.451 655.343 742.198 658.662L736.973 727.218C736.681 731.053 733.803 734.19 730.009 734.81L666.981 745.107C663.511 745.674 660.059 744 658.355 740.925L623.601 678.195C621.897 675.119 622.307 671.303 624.626 668.659L666.755 620.639C669.29 617.748 673.474 616.969 676.879 618.753L737.759 650.649Z" stroke="url(#paint10_linear_20453_164963)" stroke-width="0.876868"/>
<path opacity="0.142857" d="M746.841 673.395C748.95 675.968 749.326 679.549 747.798 682.504L716.214 743.569C714.447 746.984 710.572 748.747 706.837 747.834L644.8 732.674C641.384 731.84 638.861 728.95 638.493 725.453L631 654.121C630.632 650.624 632.5 647.273 635.668 645.746L693.199 618.013C696.663 616.343 700.82 617.261 703.258 620.235L746.841 673.395Z" stroke="url(#paint11_linear_20453_164963)" stroke-width="0.876868"/>
<path opacity="0.214286" d="M746.323 697.893C747.26 701.086 746.207 704.529 743.646 706.652L690.725 750.515C687.765 752.969 683.51 753.077 680.428 750.777L629.243 712.569C626.425 710.466 625.23 706.819 626.258 703.457L647.218 634.867C648.245 631.504 651.273 629.149 654.785 628.982L718.575 625.943C722.415 625.761 725.883 628.231 726.965 631.921L746.323 697.893Z" stroke="url(#paint12_linear_20453_164963)" stroke-width="0.876868"/>
<path opacity="0.285714" d="M736.273 720.226C735.889 723.533 733.574 726.293 730.386 727.246L664.543 746.934C660.861 748.035 656.903 746.472 654.965 743.151L622.768 687.969C620.996 684.931 621.321 681.107 623.581 678.412L669.659 623.471C671.919 620.777 675.626 619.792 678.924 621.011L738.832 643.152C742.437 644.485 744.663 648.113 744.219 651.932L736.273 720.226Z" stroke="url(#paint13_linear_20453_164963)" stroke-width="0.876868"/>
<path opacity="0.357143" d="M718.306 736.862C716.66 739.756 713.449 741.393 710.142 741.024L641.845 733.407C638.026 732.981 634.994 729.997 634.508 726.184L626.421 662.799C625.975 659.31 627.769 655.916 630.902 654.319L694.77 621.76C697.904 620.163 701.702 620.706 704.261 623.117L750.762 666.92C753.559 669.555 754.191 673.763 752.291 677.104L718.306 736.862Z" stroke="url(#paint14_linear_20453_164963)" stroke-width="0.876868"/>
<path opacity="0.428571" d="M695.258 745.143C692.612 747.164 689.017 747.416 686.115 745.783L626.223 712.073C622.874 710.188 621.249 706.257 622.29 702.557L639.601 641.048C640.554 637.662 643.53 635.24 647.039 634.994L718.543 629.992C722.052 629.746 725.336 631.731 726.751 634.951L752.449 693.451C753.995 696.97 752.933 701.089 749.878 703.422L695.258 745.143Z" stroke="url(#paint15_linear_20453_164963)" stroke-width="0.876868"/>
<path opacity="0.5" d="M670.826 743.771C667.602 744.597 664.195 743.423 662.162 740.786L620.195 686.342C617.849 683.298 617.889 679.043 620.292 676.045L660.247 626.193C662.447 623.449 666.133 622.382 669.458 623.528L737.233 646.876C740.558 648.022 742.806 651.132 742.851 654.65L743.659 718.545C743.708 722.388 741.121 725.765 737.399 726.719L670.826 743.771Z" stroke="url(#paint16_linear_20453_164963)" stroke-width="0.876868"/>
<path opacity="0.571429" d="M648.859 732.949C645.57 732.449 642.893 730.038 642.052 726.817L624.684 660.294C623.713 656.574 625.412 652.672 628.796 650.851L685.042 620.583C688.138 618.917 691.947 619.375 694.56 621.729L747.831 669.719C750.444 672.073 751.298 675.814 749.965 679.069L725.758 738.199C724.301 741.757 720.6 743.855 716.8 743.278L648.859 732.949Z" stroke="url(#paint17_linear_20453_164963)" stroke-width="0.876868"/>
<path opacity="0.642857" d="M632.865 714.397C630.033 712.651 628.512 709.387 628.996 706.095L638.988 638.07C639.547 634.265 642.636 631.336 646.465 630.983L710.056 625.109C713.558 624.786 716.884 626.696 718.369 629.883L748.666 694.887C750.151 698.074 749.476 701.851 746.978 704.327L701.605 749.29C698.873 751.997 694.645 752.482 691.372 750.465L632.865 714.397Z" stroke="url(#paint18_linear_20453_164963)" stroke-width="0.876868"/>
<path opacity="0.714286" d="M625.389 691.07C623.464 688.357 623.339 684.758 625.069 681.917L660.834 623.205C662.834 619.921 666.823 618.433 670.486 619.604L731.315 639.057C734.664 640.128 736.98 643.187 737.102 646.701L739.604 718.382C739.727 721.896 737.63 725.109 734.364 726.411L675.039 750.061C671.467 751.485 667.384 750.279 665.16 747.143L625.389 691.07Z" stroke="url(#paint19_linear_20453_164963)" stroke-width="0.876868"/>
<path opacity="0.785714" d="M627.621 666.676C626.909 663.426 628.199 660.064 630.902 658.125L686.752 618.062C689.876 615.821 694.128 616.01 697.042 618.52L745.439 660.207C748.104 662.502 749.041 666.223 747.781 669.506L722.091 736.465C720.831 739.748 717.646 741.886 714.131 741.808L650.285 740.387C646.441 740.301 643.155 737.595 642.332 733.839L627.621 666.676Z" stroke="url(#paint20_linear_20453_164963)" stroke-width="0.876868"/>
<path opacity="0.857143" d="M639.195 645.095C639.81 641.824 642.311 639.232 645.558 638.503L712.613 623.459C716.363 622.617 720.202 624.453 721.903 627.901L750.175 685.196C751.731 688.35 751.14 692.142 748.698 694.672L698.902 746.263C696.459 748.794 692.692 749.517 689.487 748.071L631.269 721.802C627.765 720.222 625.798 716.447 626.507 712.668L639.195 645.095Z" stroke="url(#paint21_linear_20453_164963)" stroke-width="0.876868"/>
<path opacity="0.928571" d="M658.272 629.758C660.115 626.985 663.432 625.577 666.706 626.175L734.306 638.54C738.086 639.231 740.902 642.42 741.121 646.258L744.769 710.053C744.97 713.565 742.944 716.825 739.707 718.2L673.725 746.221C670.488 747.596 666.737 746.789 664.351 744.206L621.018 697.264C618.411 694.44 618.074 690.199 620.203 686.998L658.272 629.758Z" stroke="url(#paint22_linear_20453_164963)" stroke-width="0.876868"/>
<path d="M681.845 623.094C684.626 621.263 688.23 621.263 691.01 623.094L748.407 660.902C751.616 663.016 752.963 667.051 751.666 670.669L730.109 730.82C728.923 734.131 725.784 736.34 722.267 736.34H650.588C647.071 736.34 643.933 734.131 642.746 730.82L621.19 670.669C619.893 667.051 621.24 663.016 624.449 660.902L681.845 623.094Z" stroke="url(#paint23_linear_20453_164963)" stroke-width="0.876868"/>
<g opacity="0.25">
<path d="M676.008 708.558C675.754 708.333 675.595 708.02 675.563 707.683L673.036 680.792H682.031V710.918C682.031 712.067 680.675 712.678 679.814 711.918L676.008 708.558Z" fill="black"/>
<path d="M682.031 680.259V676.505L672.556 675.686L672.985 680.259H682.031Z" fill="black"/>
<path d="M682.031 675.969L672.505 675.146L671.016 659.306C670.942 658.524 671.558 657.848 672.344 657.848H680.697C681.434 657.848 682.031 658.445 682.031 659.182V675.969Z" fill="black"/>
<path d="M699.612 680.259H706.47C706.838 680.259 707.137 679.96 707.137 679.592V675.658C707.137 675.264 706.797 674.956 706.405 674.994L700.037 675.616L699.612 680.259Z" fill="black"/>
<path d="M699.497 675.669L690.008 676.595V680.259H699.077L699.497 675.669Z" fill="black"/>
<path d="M689.475 676.647V680.259H664.209C663.841 680.259 663.542 679.96 663.542 679.592V675.649C663.542 675.258 663.876 674.951 664.266 674.985L686.72 676.905C686.761 676.909 686.802 676.908 686.842 676.904L689.475 676.647Z" fill="black"/>
<path d="M692.292 711.827C691.454 712.676 690.008 712.083 690.008 710.89V669.507H700.073L696.572 707.059C696.543 707.366 696.409 707.653 696.193 707.872L692.292 711.827Z" fill="black"/>
<path d="M700.123 668.973H690.008V663.222L700.722 662.553L700.123 668.973Z" fill="black"/>
<path d="M690.008 659.182V662.687L700.772 662.016L701.024 659.306C701.097 658.523 700.482 657.848 699.696 657.848H691.342C690.605 657.848 690.008 658.445 690.008 659.182Z" fill="black"/>
<path d="M682.031 668.973V663.239L671.331 662.712L671.916 668.973H682.031Z" fill="black"/>
<path d="M682.565 668.973H709.538C709.832 668.973 710.071 668.734 710.071 668.44V662.512C710.071 662.204 709.811 661.96 709.504 661.979L686.34 663.451L682.565 663.265V668.973Z" fill="black"/>
<path d="M670.748 662.683L671.388 668.973H660.58C660.286 668.973 660.047 668.734 660.047 668.44V662.717C660.047 662.412 660.302 662.169 660.607 662.184L670.748 662.683Z" fill="black"/>
</g>
<path d="M675.899 708.454C675.645 708.23 675.485 707.917 675.454 707.579L672.926 680.689H681.922V710.814C681.922 711.963 680.566 712.575 679.705 711.814L675.899 708.454Z" fill="url(#paint24_linear_20453_164963)"/>
<path d="M681.922 680.155V676.402L672.446 675.583L672.876 680.155H681.922Z" fill="url(#paint25_linear_20453_164963)"/>
<path d="M681.922 675.866L672.395 675.043L670.907 659.203C670.833 658.42 671.449 657.744 672.235 657.744H680.588C681.324 657.744 681.922 658.341 681.922 659.078V675.866Z" fill="url(#paint26_linear_20453_164963)"/>
<path d="M699.503 680.155H706.36C706.729 680.155 707.027 679.857 707.027 679.488V675.555C707.027 675.161 706.687 674.852 706.295 674.891L699.928 675.512L699.503 680.155Z" fill="url(#paint27_linear_20453_164963)"/>
<path d="M699.387 675.565L689.899 676.492V680.155H698.967L699.387 675.565Z" fill="url(#paint28_linear_20453_164963)"/>
<path d="M689.365 676.544V680.155H664.1C663.731 680.155 663.433 679.857 663.433 679.488V675.546C663.433 675.155 663.767 674.848 664.156 674.881L686.611 676.802C686.652 676.805 686.692 676.805 686.733 676.801L689.365 676.544Z" fill="url(#paint29_linear_20453_164963)"/>
<path d="M692.182 711.723C691.345 712.573 689.899 711.98 689.899 710.787V669.403H699.964L696.462 706.956C696.434 707.262 696.3 707.549 696.084 707.769L692.182 711.723Z" fill="url(#paint30_linear_20453_164963)"/>
<path d="M700.014 668.87H689.899V663.118L700.612 662.45L700.014 668.87Z" fill="url(#paint31_linear_20453_164963)"/>
<path d="M689.899 659.078V662.584L700.662 661.912L700.915 659.202C700.988 658.42 700.372 657.744 699.587 657.744H691.233C690.496 657.744 689.899 658.342 689.899 659.078Z" fill="url(#paint32_linear_20453_164963)"/>
<path d="M681.922 668.87V663.135L671.221 662.608L671.807 668.87H681.922Z" fill="url(#paint33_linear_20453_164963)"/>
<path d="M682.455 668.87H709.428C709.723 668.87 709.962 668.631 709.962 668.336V662.408C709.962 662.1 709.702 661.856 709.395 661.876L686.23 663.347L682.455 663.161V668.87Z" fill="url(#paint34_linear_20453_164963)"/>
<path d="M670.639 662.58L671.278 668.87H660.471C660.176 668.87 659.938 668.631 659.938 668.336V662.614C659.938 662.309 660.193 662.066 660.497 662.081L670.639 662.58Z" fill="url(#paint35_linear_20453_164963)"/>
<path d="M672.884 675.085L672.395 675.043L671.815 668.87H671.807L671.221 662.608L671.227 662.609L670.907 659.203C670.833 658.42 671.449 657.744 672.235 657.744H680.588C681.093 657.744 681.533 658.026 681.76 658.441C681.57 658.338 681.353 658.279 681.123 658.279H672.77C671.984 658.279 671.368 658.955 671.442 659.738L671.762 663.144L671.756 663.143L672.342 669.405H672.35L672.884 675.085Z" fill="white"/>
<path d="M682.457 668.87H682.99V663.696L686.765 663.882L709.93 662.411C709.94 662.41 709.951 662.41 709.962 662.409V662.408C709.962 662.1 709.702 661.856 709.395 661.876L701.202 662.396L701.197 662.447L690.434 663.118V663.08L686.23 663.347L682.457 663.161L682.457 668.87Z" fill="white"/>
<path d="M700.759 658.441C700.57 658.338 700.353 658.279 700.122 658.279H691.768C691.031 658.279 690.434 658.876 690.434 659.613V662.55L689.899 662.584V659.078C689.899 658.342 690.496 657.744 691.233 657.744H699.587C700.096 657.744 700.534 658.028 700.759 658.441Z" fill="white"/>
<path d="M689.899 669.405H699.964L699.914 669.938H690.434V711.321C690.434 711.559 690.491 711.772 690.589 711.955C690.191 711.738 689.899 711.323 689.899 710.787V680.69H689.9V677.079L689.899 677.079V669.405Z" fill="white"/>
<path d="M689.365 677.131V676.544L686.733 676.801C686.692 676.805 686.652 676.805 686.611 676.802L672.446 675.583L672.447 675.59L664.156 674.881C663.767 674.848 663.433 675.155 663.433 675.546V679.488C663.433 679.815 663.668 680.087 663.979 680.144C663.971 680.105 663.968 680.064 663.968 680.023V676.081C663.968 675.69 664.302 675.383 664.691 675.416L672.982 676.125L672.981 676.118L687.146 677.337C687.187 677.34 687.227 677.34 687.268 677.336L689.365 677.131Z" fill="white"/>
<path d="M672.926 680.69L675.454 707.579C675.485 707.917 675.645 708.23 675.899 708.454L676.202 708.722C676.083 708.541 676.009 708.333 675.989 708.114L673.461 681.224H681.922V680.69L672.926 680.69Z" fill="white"/>
<path d="M699.551 680.155H700.087L700.463 676.047L706.83 675.426C706.894 675.419 706.956 675.422 707.016 675.433C706.955 675.099 706.646 674.856 706.295 674.891L699.98 675.507L699.815 677.267L699.551 680.155Z" fill="white"/>
<path d="M670.691 663.091L670.639 662.58L660.497 662.081C660.193 662.066 659.938 662.309 659.938 662.614V668.336C659.938 668.631 660.176 668.87 660.471 668.87H660.472V663.148C660.472 662.843 660.728 662.601 661.032 662.616L670.691 663.091Z" fill="white"/>
</g>
</g>
<defs>
<filter id="filter0_dddd_20453_164963" x="303.726" y="341.663" width="724.954" height="716.216" filterUnits="userSpaceOnUse" color-interpolation-filters="sRGB">
<feFlood flood-opacity="0" result="BackgroundImageFix"/>
<feColorMatrix in="SourceAlpha" type="matrix" values="0 0 0 0 0 0 0 0 0 0 0 0 0 0 0 0 0 0 127 0" result="hardAlpha"/>
<feOffset/>
<feGaussianBlur stdDeviation="4.13192"/>
<feColorMatrix type="matrix" values="0 0 0 0 1 0 0 0 0 1 0 0 0 0 1 0 0 0 1 0"/>
<feBlend mode="normal" in2="BackgroundImageFix" result="effect1_dropShadow_20453_164963"/>
<feColorMatrix in="SourceAlpha" type="matrix" values="0 0 0 0 0 0 0 0 0 0 0 0 0 0 0 0 0 0 127 0" result="hardAlpha"/>
<feOffset/>
<feGaussianBlur stdDeviation="8.26384"/>
<feColorMatrix type="matrix" values="0 0 0 0 0.270833 0 0 0 0 1 0 0 0 0 0.762597 0 0 0 1 0"/>
<feBlend mode="normal" in2="effect1_dropShadow_20453_164963" result="effect2_dropShadow_20453_164963"/>
<feColorMatrix in="SourceAlpha" type="matrix" values="0 0 0 0 0 0 0 0 0 0 0 0 0 0 0 0 0 0 127 0" result="hardAlpha"/>
<feOffset/>
<feGaussianBlur stdDeviation="12.3958"/>
<feColorMatrix type="matrix" values="0 0 0 0 0.270588 0 0 0 0 1 0 0 0 0 0.760784 0 0 0 1 0"/>
<feBlend mode="normal" in2="effect2_dropShadow_20453_164963" result="effect3_dropShadow_20453_164963"/>
<feColorMatrix in="SourceAlpha" type="matrix" values="0 0 0 0 0 0 0 0 0 0 0 0 0 0 0 0 0 0 127 0" result="hardAlpha"/>
<feOffset/>
<feGaussianBlur stdDeviation="16.5277"/>
<feColorMatrix type="matrix" values="0 0 0 0 0.270588 0 0 0 0 1 0 0 0 0 0.760784 0 0 0 1 0"/>
<feBlend mode="normal" in2="effect3_dropShadow_20453_164963" result="effect4_dropShadow_20453_164963"/>
<feBlend mode="normal" in="SourceGraphic" in2="effect4_dropShadow_20453_164963" result="shape"/>
</filter>
<filter id="filter1_dddd_20453_164963" x="348.538" y="354.437" width="658.704" height="650.841" filterUnits="userSpaceOnUse" color-interpolation-filters="sRGB">
<feFlood flood-opacity="0" result="BackgroundImageFix"/>
<feColorMatrix in="SourceAlpha" type="matrix" values="0 0 0 0 0 0 0 0 0 0 0 0 0 0 0 0 0 0 127 0" result="hardAlpha"/>
<feOffset/>
<feGaussianBlur stdDeviation="4.13192"/>
<feColorMatrix type="matrix" values="0 0 0 0 1 0 0 0 0 1 0 0 0 0 1 0 0 0 1 0"/>
<feBlend mode="normal" in2="BackgroundImageFix" result="effect1_dropShadow_20453_164963"/>
<feColorMatrix in="SourceAlpha" type="matrix" values="0 0 0 0 0 0 0 0 0 0 0 0 0 0 0 0 0 0 127 0" result="hardAlpha"/>
<feOffset/>
<feGaussianBlur stdDeviation="8.26384"/>
<feColorMatrix type="matrix" values="0 0 0 0 0.270833 0 0 0 0 1 0 0 0 0 0.762597 0 0 0 1 0"/>
<feBlend mode="normal" in2="effect1_dropShadow_20453_164963" result="effect2_dropShadow_20453_164963"/>
<feColorMatrix in="SourceAlpha" type="matrix" values="0 0 0 0 0 0 0 0 0 0 0 0 0 0 0 0 0 0 127 0" result="hardAlpha"/>
<feOffset/>
<feGaussianBlur stdDeviation="12.3958"/>
<feColorMatrix type="matrix" values="0 0 0 0 0.270588 0 0 0 0 1 0 0 0 0 0.760784 0 0 0 1 0"/>
<feBlend mode="normal" in2="effect2_dropShadow_20453_164963" result="effect3_dropShadow_20453_164963"/>
<feColorMatrix in="SourceAlpha" type="matrix" values="0 0 0 0 0 0 0 0 0 0 0 0 0 0 0 0 0 0 127 0" result="hardAlpha"/>
<feOffset/>
<feGaussianBlur stdDeviation="16.5277"/>
<feColorMatrix type="matrix" values="0 0 0 0 0.270588 0 0 0 0 1 0 0 0 0 0.760784 0 0 0 1 0"/>
<feBlend mode="normal" in2="effect3_dropShadow_20453_164963" result="effect4_dropShadow_20453_164963"/>
<feBlend mode="normal" in="SourceGraphic" in2="effect4_dropShadow_20453_164963" result="shape"/>
</filter>
<filter id="filter2_dddd_20453_164963" x="319.632" y="319.597" width="734.876" height="726.007" filterUnits="userSpaceOnUse" color-interpolation-filters="sRGB">
<feFlood flood-opacity="0" result="BackgroundImageFix"/>
<feColorMatrix in="SourceAlpha" type="matrix" values="0 0 0 0 0 0 0 0 0 0 0 0 0 0 0 0 0 0 127 0" result="hardAlpha"/>
<feOffset/>
<feGaussianBlur stdDeviation="4.13192"/>
<feColorMatrix type="matrix" values="0 0 0 0 1 0 0 0 0 1 0 0 0 0 1 0 0 0 1 0"/>
<feBlend mode="normal" in2="BackgroundImageFix" result="effect1_dropShadow_20453_164963"/>
<feColorMatrix in="SourceAlpha" type="matrix" values="0 0 0 0 0 0 0 0 0 0 0 0 0 0 0 0 0 0 127 0" result="hardAlpha"/>
<feOffset/>
<feGaussianBlur stdDeviation="8.26384"/>
<feColorMatrix type="matrix" values="0 0 0 0 0.270833 0 0 0 0 1 0 0 0 0 0.762597 0 0 0 1 0"/>
<feBlend mode="normal" in2="effect1_dropShadow_20453_164963" result="effect2_dropShadow_20453_164963"/>
<feColorMatrix in="SourceAlpha" type="matrix" values="0 0 0 0 0 0 0 0 0 0 0 0 0 0 0 0 0 0 127 0" result="hardAlpha"/>
<feOffset/>
<feGaussianBlur stdDeviation="12.3958"/>
<feColorMatrix type="matrix" values="0 0 0 0 0.270588 0 0 0 0 1 0 0 0 0 0.760784 0 0 0 1 0"/>
<feBlend mode="normal" in2="effect2_dropShadow_20453_164963" result="effect3_dropShadow_20453_164963"/>
<feColorMatrix in="SourceAlpha" type="matrix" values="0 0 0 0 0 0 0 0 0 0 0 0 0 0 0 0 0 0 127 0" result="hardAlpha"/>
<feOffset/>
<feGaussianBlur stdDeviation="16.5277"/>
<feColorMatrix type="matrix" values="0 0 0 0 0.270588 0 0 0 0 1 0 0 0 0 0.760784 0 0 0 1 0"/>
<feBlend mode="normal" in2="effect3_dropShadow_20453_164963" result="effect4_dropShadow_20453_164963"/>
<feBlend mode="normal" in="SourceGraphic" in2="effect4_dropShadow_20453_164963" result="shape"/>
</filter>
<filter id="filter3_dddd_20453_164963" x="355.757" y="322.624" width="696.533" height="688.173" filterUnits="userSpaceOnUse" color-interpolation-filters="sRGB">
<feFlood flood-opacity="0" result="BackgroundImageFix"/>
<feColorMatrix in="SourceAlpha" type="matrix" values="0 0 0 0 0 0 0 0 0 0 0 0 0 0 0 0 0 0 127 0" result="hardAlpha"/>
<feOffset/>
<feGaussianBlur stdDeviation="4.13192"/>
<feColorMatrix type="matrix" values="0 0 0 0 1 0 0 0 0 1 0 0 0 0 1 0 0 0 1 0"/>
<feBlend mode="normal" in2="BackgroundImageFix" result="effect1_dropShadow_20453_164963"/>
<feColorMatrix in="SourceAlpha" type="matrix" values="0 0 0 0 0 0 0 0 0 0 0 0 0 0 0 0 0 0 127 0" result="hardAlpha"/>
<feOffset/>
<feGaussianBlur stdDeviation="8.26384"/>
<feColorMatrix type="matrix" values="0 0 0 0 0.270833 0 0 0 0 1 0 0 0 0 0.762597 0 0 0 1 0"/>
<feBlend mode="normal" in2="effect1_dropShadow_20453_164963" result="effect2_dropShadow_20453_164963"/>
<feColorMatrix in="SourceAlpha" type="matrix" values="0 0 0 0 0 0 0 0 0 0 0 0 0 0 0 0 0 0 127 0" result="hardAlpha"/>
<feOffset/>
<feGaussianBlur stdDeviation="12.3958"/>
<feColorMatrix type="matrix" values="0 0 0 0 0.270588 0 0 0 0 1 0 0 0 0 0.760784 0 0 0 1 0"/>
<feBlend mode="normal" in2="effect2_dropShadow_20453_164963" result="effect3_dropShadow_20453_164963"/>
<feColorMatrix in="SourceAlpha" type="matrix" values="0 0 0 0 0 0 0 0 0 0 0 0 0 0 0 0 0 0 127 0" result="hardAlpha"/>
<feOffset/>
<feGaussianBlur stdDeviation="16.5277"/>
<feColorMatrix type="matrix" values="0 0 0 0 0.270588 0 0 0 0 1 0 0 0 0 0.760784 0 0 0 1 0"/>
<feBlend mode="normal" in2="effect3_dropShadow_20453_164963" result="effect4_dropShadow_20453_164963"/>
<feBlend mode="normal" in="SourceGraphic" in2="effect4_dropShadow_20453_164963" result="shape"/>
</filter>
<filter id="filter4_dddd_20453_164963" x="304.21" y="297.976" width="745.869" height="755.013" filterUnits="userSpaceOnUse" color-interpolation-filters="sRGB">
<feFlood flood-opacity="0" result="BackgroundImageFix"/>
<feColorMatrix in="SourceAlpha" type="matrix" values="0 0 0 0 0 0 0 0 0 0 0 0 0 0 0 0 0 0 127 0" result="hardAlpha"/>
<feOffset/>
<feGaussianBlur stdDeviation="4.13192"/>
<feColorMatrix type="matrix" values="0 0 0 0 1 0 0 0 0 1 0 0 0 0 1 0 0 0 1 0"/>
<feBlend mode="normal" in2="BackgroundImageFix" result="effect1_dropShadow_20453_164963"/>
<feColorMatrix in="SourceAlpha" type="matrix" values="0 0 0 0 0 0 0 0 0 0 0 0 0 0 0 0 0 0 127 0" result="hardAlpha"/>
<feOffset/>
<feGaussianBlur stdDeviation="8.26384"/>
<feColorMatrix type="matrix" values="0 0 0 0 0.270833 0 0 0 0 1 0 0 0 0 0.762597 0 0 0 1 0"/>
<feBlend mode="normal" in2="effect1_dropShadow_20453_164963" result="effect2_dropShadow_20453_164963"/>
<feColorMatrix in="SourceAlpha" type="matrix" values="0 0 0 0 0 0 0 0 0 0 0 0 0 0 0 0 0 0 127 0" result="hardAlpha"/>
<feOffset/>
<feGaussianBlur stdDeviation="12.3958"/>
<feColorMatrix type="matrix" values="0 0 0 0 0.270588 0 0 0 0 1 0 0 0 0 0.760784 0 0 0 1 0"/>
<feBlend mode="normal" in2="effect2_dropShadow_20453_164963" result="effect3_dropShadow_20453_164963"/>
<feColorMatrix in="SourceAlpha" type="matrix" values="0 0 0 0 0 0 0 0 0 0 0 0 0 0 0 0 0 0 127 0" result="hardAlpha"/>
<feOffset/>
<feGaussianBlur stdDeviation="16.5277"/>
<feColorMatrix type="matrix" values="0 0 0 0 0.270588 0 0 0 0 1 0 0 0 0 0.760784 0 0 0 1 0"/>
<feBlend mode="normal" in2="effect3_dropShadow_20453_164963" result="effect4_dropShadow_20453_164963"/>
<feBlend mode="normal" in="SourceGraphic" in2="effect4_dropShadow_20453_164963" result="shape"/>
</filter>
<filter id="filter5_dddd_20453_164963" x="350.827" y="345.558" width="660.587" height="668.579" filterUnits="userSpaceOnUse" color-interpolation-filters="sRGB">
<feFlood flood-opacity="0" result="BackgroundImageFix"/>
<feColorMatrix in="SourceAlpha" type="matrix" values="0 0 0 0 0 0 0 0 0 0 0 0 0 0 0 0 0 0 127 0" result="hardAlpha"/>
<feOffset/>
<feGaussianBlur stdDeviation="4.13192"/>
<feColorMatrix type="matrix" values="0 0 0 0 1 0 0 0 0 1 0 0 0 0 1 0 0 0 1 0"/>
<feBlend mode="normal" in2="BackgroundImageFix" result="effect1_dropShadow_20453_164963"/>
<feColorMatrix in="SourceAlpha" type="matrix" values="0 0 0 0 0 0 0 0 0 0 0 0 0 0 0 0 0 0 127 0" result="hardAlpha"/>
<feOffset/>
<feGaussianBlur stdDeviation="8.26384"/>
<feColorMatrix type="matrix" values="0 0 0 0 0.270833 0 0 0 0 1 0 0 0 0 0.762597 0 0 0 1 0"/>
<feBlend mode="normal" in2="effect1_dropShadow_20453_164963" result="effect2_dropShadow_20453_164963"/>
<feColorMatrix in="SourceAlpha" type="matrix" values="0 0 0 0 0 0 0 0 0 0 0 0 0 0 0 0 0 0 127 0" result="hardAlpha"/>
<feOffset/>
<feGaussianBlur stdDeviation="12.3958"/>
<feColorMatrix type="matrix" values="0 0 0 0 0.270588 0 0 0 0 1 0 0 0 0 0.760784 0 0 0 1 0"/>
<feBlend mode="normal" in2="effect2_dropShadow_20453_164963" result="effect3_dropShadow_20453_164963"/>
<feColorMatrix in="SourceAlpha" type="matrix" values="0 0 0 0 0 0 0 0 0 0 0 0 0 0 0 0 0 0 127 0" result="hardAlpha"/>
<feOffset/>
<feGaussianBlur stdDeviation="16.5277"/>
<feColorMatrix type="matrix" values="0 0 0 0 0.270588 0 0 0 0 1 0 0 0 0 0.760784 0 0 0 1 0"/>
<feBlend mode="normal" in2="effect3_dropShadow_20453_164963" result="effect4_dropShadow_20453_164963"/>
<feBlend mode="normal" in="SourceGraphic" in2="effect4_dropShadow_20453_164963" result="shape"/>
</filter>
<filter id="filter6_dddd_20453_164963" x="313.593" y="308.283" width="695.298" height="703.753" filterUnits="userSpaceOnUse" color-interpolation-filters="sRGB">
<feFlood flood-opacity="0" result="BackgroundImageFix"/>
<feColorMatrix in="SourceAlpha" type="matrix" values="0 0 0 0 0 0 0 0 0 0 0 0 0 0 0 0 0 0 127 0" result="hardAlpha"/>
<feOffset/>
<feGaussianBlur stdDeviation="4.13192"/>
<feColorMatrix type="matrix" values="0 0 0 0 1 0 0 0 0 1 0 0 0 0 1 0 0 0 1 0"/>
<feBlend mode="normal" in2="BackgroundImageFix" result="effect1_dropShadow_20453_164963"/>
<feColorMatrix in="SourceAlpha" type="matrix" values="0 0 0 0 0 0 0 0 0 0 0 0 0 0 0 0 0 0 127 0" result="hardAlpha"/>
<feOffset/>
<feGaussianBlur stdDeviation="8.26384"/>
<feColorMatrix type="matrix" values="0 0 0 0 0.270833 0 0 0 0 1 0 0 0 0 0.762597 0 0 0 1 0"/>
<feBlend mode="normal" in2="effect1_dropShadow_20453_164963" result="effect2_dropShadow_20453_164963"/>
<feColorMatrix in="SourceAlpha" type="matrix" values="0 0 0 0 0 0 0 0 0 0 0 0 0 0 0 0 0 0 127 0" result="hardAlpha"/>
<feOffset/>
<feGaussianBlur stdDeviation="12.3958"/>
<feColorMatrix type="matrix" values="0 0 0 0 0.270588 0 0 0 0 1 0 0 0 0 0.760784 0 0 0 1 0"/>
<feBlend mode="normal" in2="effect2_dropShadow_20453_164963" result="effect3_dropShadow_20453_164963"/>
<feColorMatrix in="SourceAlpha" type="matrix" values="0 0 0 0 0 0 0 0 0 0 0 0 0 0 0 0 0 0 127 0" result="hardAlpha"/>
<feOffset/>
<feGaussianBlur stdDeviation="16.5277"/>
<feColorMatrix type="matrix" values="0 0 0 0 0.270588 0 0 0 0 1 0 0 0 0 0.760784 0 0 0 1 0"/>
<feBlend mode="normal" in2="effect3_dropShadow_20453_164963" result="effect4_dropShadow_20453_164963"/>
<feBlend mode="normal" in="SourceGraphic" in2="effect4_dropShadow_20453_164963" result="shape"/>
</filter>
<filter id="filter7_dddd_20453_164963" x="365.788" y="360.413" width="688.173" height="696.535" filterUnits="userSpaceOnUse" color-interpolation-filters="sRGB">
<feFlood flood-opacity="0" result="BackgroundImageFix"/>
<feColorMatrix in="SourceAlpha" type="matrix" values="0 0 0 0 0 0 0 0 0 0 0 0 0 0 0 0 0 0 127 0" result="hardAlpha"/>
<feOffset/>
<feGaussianBlur stdDeviation="4.13192"/>
<feColorMatrix type="matrix" values="0 0 0 0 1 0 0 0 0 1 0 0 0 0 1 0 0 0 1 0"/>
<feBlend mode="normal" in2="BackgroundImageFix" result="effect1_dropShadow_20453_164963"/>
<feColorMatrix in="SourceAlpha" type="matrix" values="0 0 0 0 0 0 0 0 0 0 0 0 0 0 0 0 0 0 127 0" result="hardAlpha"/>
<feOffset/>
<feGaussianBlur stdDeviation="8.26384"/>
<feColorMatrix type="matrix" values="0 0 0 0 0.270833 0 0 0 0 1 0 0 0 0 0.762597 0 0 0 1 0"/>
<feBlend mode="normal" in2="effect1_dropShadow_20453_164963" result="effect2_dropShadow_20453_164963"/>
<feColorMatrix in="SourceAlpha" type="matrix" values="0 0 0 0 0 0 0 0 0 0 0 0 0 0 0 0 0 0 127 0" result="hardAlpha"/>
<feOffset/>
<feGaussianBlur stdDeviation="12.3958"/>
<feColorMatrix type="matrix" values="0 0 0 0 0.270588 0 0 0 0 1 0 0 0 0 0.760784 0 0 0 1 0"/>
<feBlend mode="normal" in2="effect2_dropShadow_20453_164963" result="effect3_dropShadow_20453_164963"/>
<feColorMatrix in="SourceAlpha" type="matrix" values="0 0 0 0 0 0 0 0 0 0 0 0 0 0 0 0 0 0 127 0" result="hardAlpha"/>
<feOffset/>
<feGaussianBlur stdDeviation="16.5277"/>
<feColorMatrix type="matrix" values="0 0 0 0 0.270588 0 0 0 0 1 0 0 0 0 0.760784 0 0 0 1 0"/>
<feBlend mode="normal" in2="effect3_dropShadow_20453_164963" result="effect4_dropShadow_20453_164963"/>
<feBlend mode="normal" in="SourceGraphic" in2="effect4_dropShadow_20453_164963" result="shape"/>
</filter>
<filter id="filter8_f_20453_164963" x="306.236" y="298.566" width="766.778" height="774.438" filterUnits="userSpaceOnUse" color-interpolation-filters="sRGB">
<feFlood flood-opacity="0" result="BackgroundImageFix"/>
<feBlend mode="normal" in="SourceGraphic" in2="BackgroundImageFix" result="shape"/>
<feGaussianBlur stdDeviation="57.8469" result="effect1_foregroundBlur_20453_164963"/>
</filter>
<filter id="filter9_f_20453_164963" x="8.73767" y="1.06775" width="1361.77" height="1369.43" filterUnits="userSpaceOnUse" color-interpolation-filters="sRGB">
<feFlood flood-opacity="0" result="BackgroundImageFix"/>
<feBlend mode="normal" in="SourceGraphic" in2="BackgroundImageFix" result="shape"/>
<feGaussianBlur stdDeviation="206.596" result="effect1_foregroundBlur_20453_164963"/>
</filter>
<linearGradient id="paint0_linear_20453_164963" x1="333.834" y1="0" x2="333.834" y2="281.904" gradientUnits="userSpaceOnUse">
<stop stop-color="#D9D9D9" stop-opacity="0"/>
<stop offset="1" stop-color="#D9D9D9"/>
</linearGradient>
<linearGradient id="paint1_linear_20453_164963" x1="299.214" y1="0" x2="299.214" y2="252.23" gradientUnits="userSpaceOnUse">
<stop stop-color="#D9D9D9" stop-opacity="0"/>
<stop offset="1" stop-color="#D9D9D9"/>
</linearGradient>
<linearGradient id="paint2_linear_20453_164963" x1="341.253" y1="0" x2="341.253" y2="286.85" gradientUnits="userSpaceOnUse">
<stop stop-color="#D9D9D9" stop-opacity="0"/>
<stop offset="1" stop-color="#D9D9D9"/>
</linearGradient>
<linearGradient id="paint3_linear_20453_164963" x1="331.361" y1="0" x2="331.361" y2="276.959" gradientUnits="userSpaceOnUse">
<stop stop-color="#D9D9D9" stop-opacity="0"/>
<stop offset="1" stop-color="#D9D9D9"/>
</linearGradient>
<linearGradient id="paint4_linear_20453_164963" x1="351.144" y1="0" x2="351.144" y2="296.742" gradientUnits="userSpaceOnUse">
<stop stop-color="#D9D9D9" stop-opacity="0"/>
<stop offset="1" stop-color="#D9D9D9"/>
</linearGradient>
<linearGradient id="paint5_linear_20453_164963" x1="331.361" y1="0" x2="331.361" y2="276.959" gradientUnits="userSpaceOnUse">
<stop stop-color="#D9D9D9" stop-opacity="0"/>
<stop offset="1" stop-color="#D9D9D9"/>
</linearGradient>
<linearGradient id="paint6_linear_20453_164963" x1="331.361" y1="0" x2="331.361" y2="276.959" gradientUnits="userSpaceOnUse">
<stop stop-color="#D9D9D9" stop-opacity="0"/>
<stop offset="1" stop-color="#D9D9D9"/>
</linearGradient>
<linearGradient id="paint7_linear_20453_164963" x1="331.361" y1="0" x2="331.361" y2="276.959" gradientUnits="userSpaceOnUse">
<stop stop-color="#D9D9D9" stop-opacity="0"/>
<stop offset="1" stop-color="#D9D9D9"/>
</linearGradient>
<linearGradient id="paint8_linear_20453_164963" x1="444.753" y1="927.551" x2="925.238" y2="442.448" gradientUnits="userSpaceOnUse">
<stop stop-color="#5433FF"/>
<stop offset="0.5" stop-color="#20BDFF"/>
<stop offset="1" stop-color="#A5FECB"/>
</linearGradient>
<linearGradient id="paint9_linear_20453_164963" x1="729.262" y1="1198.84" x2="1161.25" y2="421.498" gradientUnits="userSpaceOnUse">
<stop stop-color="#01B7C5"/>
<stop offset="1" stop-color="#782C96"/>
</linearGradient>
<linearGradient id="paint10_linear_20453_164963" x1="666.088" y1="647.927" x2="707.338" y2="722.305" gradientUnits="userSpaceOnUse">
<stop offset="0.166667" stop-color="#876CF5" stop-opacity="0"/>
<stop offset="0.520833" stop-color="#1FDBFA" stop-opacity="0.6"/>
<stop offset="1" stop-color="#876CF5" stop-opacity="0.36"/>
</linearGradient>
<linearGradient id="paint11_linear_20453_164963" x1="681.931" y1="642.87" x2="690.826" y2="727.464" gradientUnits="userSpaceOnUse">
<stop offset="0.166667" stop-color="#876CF5" stop-opacity="0"/>
<stop offset="0.520833" stop-color="#1FDBFA" stop-opacity="0.6"/>
<stop offset="1" stop-color="#876CF5" stop-opacity="0.36"/>
</linearGradient>
<linearGradient id="paint12_linear_20453_164963" x1="698.494" y1="644.42" x2="673.614" y2="725.757" gradientUnits="userSpaceOnUse">
<stop offset="0.166667" stop-color="#876CF5" stop-opacity="0"/>
<stop offset="0.520833" stop-color="#1FDBFA" stop-opacity="0.6"/>
<stop offset="1" stop-color="#876CF5" stop-opacity="0.36"/>
</linearGradient>
<linearGradient id="paint13_linear_20453_164963" x1="713.129" y1="652.309" x2="658.448" y2="717.442" gradientUnits="userSpaceOnUse">
<stop offset="0.166667" stop-color="#876CF5" stop-opacity="0"/>
<stop offset="0.520833" stop-color="#1FDBFA" stop-opacity="0.6"/>
<stop offset="1" stop-color="#876CF5" stop-opacity="0.36"/>
</linearGradient>
<linearGradient id="paint14_linear_20453_164963" x1="723.525" y1="665.298" x2="647.757" y2="703.885" gradientUnits="userSpaceOnUse">
<stop offset="0.166667" stop-color="#876CF5" stop-opacity="0"/>
<stop offset="0.520833" stop-color="#1FDBFA" stop-opacity="0.6"/>
<stop offset="1" stop-color="#876CF5" stop-opacity="0.36"/>
</linearGradient>
<linearGradient id="paint15_linear_20453_164963" x1="728.009" y1="681.309" x2="643.197" y2="687.237" gradientUnits="userSpaceOnUse">
<stop offset="0.166667" stop-color="#876CF5" stop-opacity="0"/>
<stop offset="0.520833" stop-color="#1FDBFA" stop-opacity="0.6"/>
<stop offset="1" stop-color="#876CF5" stop-opacity="0.36"/>
</linearGradient>
<linearGradient id="paint16_linear_20453_164963" x1="725.904" y1="697.815" x2="645.509" y2="670.146" gradientUnits="userSpaceOnUse">
<stop offset="0.166667" stop-color="#876CF5" stop-opacity="0"/>
<stop offset="0.520833" stop-color="#1FDBFA" stop-opacity="0.6"/>
<stop offset="1" stop-color="#876CF5" stop-opacity="0.36"/>
</linearGradient>
<linearGradient id="paint17_linear_20453_164963" x1="717.509" y1="712.178" x2="654.3" y2="655.293" gradientUnits="userSpaceOnUse">
<stop offset="0.166667" stop-color="#876CF5" stop-opacity="0"/>
<stop offset="0.520833" stop-color="#1FDBFA" stop-opacity="0.6"/>
<stop offset="1" stop-color="#876CF5" stop-opacity="0.36"/>
</linearGradient>
<linearGradient id="paint18_linear_20453_164963" x1="704.171" y1="722.115" x2="668.211" y2="645.038" gradientUnits="userSpaceOnUse">
<stop offset="0.166667" stop-color="#876CF5" stop-opacity="0"/>
<stop offset="0.520833" stop-color="#1FDBFA" stop-opacity="0.6"/>
<stop offset="1" stop-color="#876CF5" stop-opacity="0.36"/>
</linearGradient>
<linearGradient id="paint19_linear_20453_164963" x1="688.013" y1="726.051" x2="685.043" y2="641.042" gradientUnits="userSpaceOnUse">
<stop offset="0.166667" stop-color="#876CF5" stop-opacity="0"/>
<stop offset="0.520833" stop-color="#1FDBFA" stop-opacity="0.6"/>
<stop offset="1" stop-color="#876CF5" stop-opacity="0.36"/>
</linearGradient>
<linearGradient id="paint20_linear_20453_164963" x1="671.605" y1="723.357" x2="702.1" y2="643.956" gradientUnits="userSpaceOnUse">
<stop offset="0.166667" stop-color="#876CF5" stop-opacity="0"/>
<stop offset="0.520833" stop-color="#1FDBFA" stop-opacity="0.6"/>
<stop offset="1" stop-color="#876CF5" stop-opacity="0.36"/>
</linearGradient>
<linearGradient id="paint21_linear_20453_164963" x1="657.548" y1="714.462" x2="716.637" y2="653.304" gradientUnits="userSpaceOnUse">
<stop offset="0.166667" stop-color="#876CF5" stop-opacity="0"/>
<stop offset="0.520833" stop-color="#1FDBFA" stop-opacity="0.6"/>
<stop offset="1" stop-color="#876CF5" stop-opacity="0.36"/>
</linearGradient>
<linearGradient id="paint22_linear_20453_164963" x1="648.076" y1="700.783" x2="726.348" y2="667.575" gradientUnits="userSpaceOnUse">
<stop offset="0.166667" stop-color="#876CF5" stop-opacity="0"/>
<stop offset="0.520833" stop-color="#1FDBFA" stop-opacity="0.6"/>
<stop offset="1" stop-color="#876CF5" stop-opacity="0.36"/>
</linearGradient>
<linearGradient id="paint23_linear_20453_164963" x1="644.723" y1="684.487" x2="729.742" y2="684.487" gradientUnits="userSpaceOnUse">
<stop offset="0.166667" stop-color="#876CF5" stop-opacity="0"/>
<stop offset="0.520833" stop-color="#1FDBFA" stop-opacity="0.6"/>
<stop offset="1" stop-color="#876CF5" stop-opacity="0.36"/>
</linearGradient>
<linearGradient id="paint24_linear_20453_164963" x1="659.938" y1="684.947" x2="709.962" y2="684.947" gradientUnits="userSpaceOnUse">
<stop stop-color="#5433FF"/>
<stop offset="0.5" stop-color="#20BDFF"/>
<stop offset="1" stop-color="#A5FECB"/>
</linearGradient>
<linearGradient id="paint25_linear_20453_164963" x1="659.938" y1="684.947" x2="709.962" y2="684.947" gradientUnits="userSpaceOnUse">
<stop stop-color="#5433FF"/>
<stop offset="0.5" stop-color="#20BDFF"/>
<stop offset="1" stop-color="#A5FECB"/>
</linearGradient>
<linearGradient id="paint26_linear_20453_164963" x1="659.938" y1="684.947" x2="709.962" y2="684.947" gradientUnits="userSpaceOnUse">
<stop stop-color="#5433FF"/>
<stop offset="0.5" stop-color="#20BDFF"/>
<stop offset="1" stop-color="#A5FECB"/>
</linearGradient>
<linearGradient id="paint27_linear_20453_164963" x1="659.938" y1="684.947" x2="709.962" y2="684.947" gradientUnits="userSpaceOnUse">
<stop stop-color="#5433FF"/>
<stop offset="0.5" stop-color="#20BDFF"/>
<stop offset="1" stop-color="#A5FECB"/>
</linearGradient>
<linearGradient id="paint28_linear_20453_164963" x1="659.938" y1="684.947" x2="709.962" y2="684.947" gradientUnits="userSpaceOnUse">
<stop stop-color="#5433FF"/>
<stop offset="0.5" stop-color="#20BDFF"/>
<stop offset="1" stop-color="#A5FECB"/>
</linearGradient>
<linearGradient id="paint29_linear_20453_164963" x1="659.938" y1="684.947" x2="709.962" y2="684.947" gradientUnits="userSpaceOnUse">
<stop stop-color="#5433FF"/>
<stop offset="0.5" stop-color="#20BDFF"/>
<stop offset="1" stop-color="#A5FECB"/>
</linearGradient>
<linearGradient id="paint30_linear_20453_164963" x1="659.938" y1="684.947" x2="709.962" y2="684.947" gradientUnits="userSpaceOnUse">
<stop stop-color="#5433FF"/>
<stop offset="0.5" stop-color="#20BDFF"/>
<stop offset="1" stop-color="#A5FECB"/>
</linearGradient>
<linearGradient id="paint31_linear_20453_164963" x1="659.938" y1="684.947" x2="709.962" y2="684.947" gradientUnits="userSpaceOnUse">
<stop stop-color="#5433FF"/>
<stop offset="0.5" stop-color="#20BDFF"/>
<stop offset="1" stop-color="#A5FECB"/>
</linearGradient>
<linearGradient id="paint32_linear_20453_164963" x1="659.938" y1="684.947" x2="709.962" y2="684.947" gradientUnits="userSpaceOnUse">
<stop stop-color="#5433FF"/>
<stop offset="0.5" stop-color="#20BDFF"/>
<stop offset="1" stop-color="#A5FECB"/>
</linearGradient>
<linearGradient id="paint33_linear_20453_164963" x1="659.938" y1="684.947" x2="709.962" y2="684.947" gradientUnits="userSpaceOnUse">
<stop stop-color="#5433FF"/>
<stop offset="0.5" stop-color="#20BDFF"/>
<stop offset="1" stop-color="#A5FECB"/>
</linearGradient>
<linearGradient id="paint34_linear_20453_164963" x1="659.938" y1="684.947" x2="709.962" y2="684.947" gradientUnits="userSpaceOnUse">
<stop stop-color="#5433FF"/>
<stop offset="0.5" stop-color="#20BDFF"/>
<stop offset="1" stop-color="#A5FECB"/>
</linearGradient>
<linearGradient id="paint35_linear_20453_164963" x1="659.938" y1="684.947" x2="709.962" y2="684.947" gradientUnits="userSpaceOnUse">
<stop stop-color="#5433FF"/>
<stop offset="0.5" stop-color="#20BDFF"/>
<stop offset="1" stop-color="#A5FECB"/>
</linearGradient>
<clipPath id="clip0_20453_164963">
<rect width="1370" height="1370" fill="white"/>
</clipPath>
<clipPath id="clip1_20453_164963">
<rect width="140.485" height="140.485" fill="white" transform="translate(614.758 614.758)"/>
</clipPath>
</defs>
</svg>
