<svg width="40" height="40" viewBox="0 0 40 40" fill="none" xmlns="http://www.w3.org/2000/svg">
<path d="M6.66797 31.6667V8.33333C6.66797 7.44928 7.01916 6.60143 7.64428 5.97631C8.2694 5.35119 9.11725 5 10.0013 5H32.3346C32.5998 5 32.8542 5.10536 33.0417 5.29289C33.2293 5.48043 33.3346 5.73478 33.3346 6V27.8567M10.0013 28.3333H33.3346M10.0013 35H33.3346" stroke="#777777" stroke-width="1.5" stroke-linecap="round" stroke-linejoin="round"/>
<path d="M10.0013 35.0007C9.11725 35.0007 8.2694 34.6495 7.64428 34.0243C7.01916 33.3992 6.66797 32.5514 6.66797 31.6673C6.66797 30.7833 7.01916 29.9354 7.64428 29.3103C8.2694 28.6852 9.11725 28.334 10.0013 28.334" stroke="#777777" stroke-width="1.5" stroke-linecap="round" stroke-linejoin="round"/>
<path d="M15 11.666H25" stroke="#777777" stroke-width="1.5" stroke-linecap="round" stroke-linejoin="round"/>
</svg>
