<svg width="125" height="104" viewBox="0 0 125 104" fill="none" xmlns="http://www.w3.org/2000/svg">
<path d="M2.09755 97V76.336H10.4975C11.2629 76.336 11.9815 76.4293 12.6535 76.616C13.3442 76.784 13.9509 77.1013 14.4735 77.568C15.0149 78.0347 15.4349 78.688 15.7335 79.528C16.0509 80.3493 16.2095 81.4227 16.2095 82.748C16.2095 83.7747 16.1069 84.6333 15.9015 85.324C15.6962 85.996 15.4255 86.5467 15.0895 86.976C14.7535 87.4053 14.3709 87.7413 13.9415 87.984C13.5309 88.208 13.1202 88.3947 12.7095 88.544L16.6855 97H13.1855L9.60155 89.048C9.34021 89.048 9.03221 89.048 8.67755 89.048C8.34155 89.048 7.98688 89.048 7.61355 89.048C7.24021 89.0293 6.87621 89.02 6.52155 89.02C6.16688 89.0013 5.84021 88.992 5.54155 88.992V97H2.09755ZM5.54155 86.276H9.90955C10.3202 86.276 10.6935 86.2293 11.0295 86.136C11.3655 86.024 11.6642 85.8373 11.9255 85.576C12.1869 85.3147 12.3829 84.96 12.5135 84.512C12.6629 84.064 12.7375 83.4853 12.7375 82.776C12.7375 82.0853 12.6629 81.5253 12.5135 81.096C12.3829 80.648 12.1869 80.312 11.9255 80.088C11.6642 79.8453 11.3562 79.6773 11.0015 79.584C10.6655 79.4907 10.3015 79.444 9.90955 79.444H5.54155V86.276ZM24.0314 97.14C22.4074 97.14 21.1101 96.916 20.1394 96.468C19.1874 96.02 18.4967 95.2453 18.0674 94.144C17.6381 93.024 17.4234 91.4747 17.4234 89.496C17.4234 87.48 17.6287 85.9213 18.0394 84.82C18.4501 83.7 19.1314 82.916 20.0834 82.468C21.0354 82.02 22.3234 81.796 23.9474 81.796C25.3847 81.796 26.5327 81.9453 27.3914 82.244C28.2687 82.524 28.9034 83.0373 29.2954 83.784C29.7061 84.512 29.9114 85.548 29.9114 86.892C29.9114 87.844 29.7247 88.6093 29.3514 89.188C28.9781 89.748 28.4367 90.1493 27.7274 90.392C27.0367 90.6347 26.2154 90.756 25.2634 90.756H20.8674C20.9047 91.6893 21.0261 92.436 21.2314 92.996C21.4554 93.5373 21.8474 93.9293 22.4074 94.172C22.9861 94.4147 23.8261 94.536 24.9274 94.536H29.4634V96.58C28.6981 96.7293 27.8861 96.86 27.0274 96.972C26.1874 97.084 25.1887 97.14 24.0314 97.14ZM20.8394 88.656H24.9274C25.5807 88.656 26.0567 88.5347 26.3554 88.292C26.6727 88.0307 26.8314 87.564 26.8314 86.892C26.8314 86.2387 26.7381 85.7253 26.5514 85.352C26.3647 84.9787 26.0567 84.7173 25.6274 84.568C25.1981 84.4 24.6381 84.316 23.9474 84.316C23.1634 84.316 22.5474 84.4373 22.0994 84.68C21.6514 84.9227 21.3247 85.3613 21.1194 85.996C20.9327 86.612 20.8394 87.4987 20.8394 88.656ZM37.2491 97.168C36.8198 97.168 36.3251 97.1493 35.7651 97.112C35.2238 97.0933 34.6731 97.056 34.1131 97C33.5718 96.9627 33.0678 96.9067 32.6011 96.832C32.1345 96.7573 31.7518 96.6733 31.4531 96.58V94.536H37.9211C38.3878 94.536 38.7798 94.4987 39.0971 94.424C39.4331 94.3493 39.6851 94.2 39.8531 93.976C40.0211 93.752 40.1051 93.416 40.1051 92.968V92.436C40.1051 91.9693 39.9465 91.6053 39.6291 91.344C39.3305 91.064 38.7985 90.924 38.0331 90.924H35.7651C34.8878 90.924 34.1038 90.8027 33.4131 90.56C32.7411 90.3173 32.2091 89.9067 31.8171 89.328C31.4251 88.7493 31.2291 87.9653 31.2291 86.976V86.136C31.2291 85.184 31.4065 84.4 31.7611 83.784C32.1345 83.1493 32.7411 82.6733 33.5811 82.356C34.4398 82.02 35.5785 81.852 36.9971 81.852C37.5945 81.852 38.2385 81.88 38.9291 81.936C39.6198 81.992 40.2825 82.0667 40.9171 82.16C41.5518 82.2347 42.0558 82.328 42.4291 82.44V84.484H36.3251C35.6345 84.484 35.1025 84.6053 34.7291 84.848C34.3745 85.072 34.1971 85.5013 34.1971 86.136V86.668C34.1971 87.0787 34.2811 87.3867 34.4491 87.592C34.6171 87.7973 34.8691 87.9373 35.2051 88.012C35.5411 88.0867 35.9425 88.124 36.4091 88.124H38.7331C40.2078 88.124 41.2998 88.46 42.0091 89.132C42.7185 89.804 43.0731 90.756 43.0731 91.988V93.22C43.0731 94.228 42.8398 95.0213 42.3731 95.6C41.9065 96.1787 41.2345 96.5893 40.3571 96.832C39.4985 97.056 38.4625 97.168 37.2491 97.168ZM51.1072 97.14C49.9312 97.14 48.9138 97.0187 48.0552 96.776C47.1965 96.5333 46.4965 96.1227 45.9552 95.544C45.4138 94.9653 45.0125 94.1813 44.7512 93.192C44.4898 92.2027 44.3592 90.9613 44.3592 89.468C44.3592 87.9187 44.4898 86.6493 44.7512 85.66C45.0125 84.652 45.4138 83.868 45.9552 83.308C46.5152 82.7293 47.2245 82.3373 48.0832 82.132C48.9418 81.908 49.9498 81.796 51.1072 81.796C52.3018 81.796 53.3285 81.9173 54.1872 82.16C55.0458 82.384 55.7458 82.776 56.2872 83.336C56.8285 83.896 57.2298 84.68 57.4912 85.688C57.7525 86.6773 57.8832 87.9373 57.8832 89.468C57.8832 90.98 57.7525 92.24 57.4912 93.248C57.2485 94.2373 56.8565 95.0213 56.3152 95.6C55.7738 96.16 55.0738 96.5613 54.2152 96.804C53.3565 97.028 52.3205 97.14 51.1072 97.14ZM51.1072 94.368C51.6858 94.368 52.1805 94.3213 52.5912 94.228C53.0018 94.116 53.3378 93.9013 53.5992 93.584C53.8792 93.248 54.0845 92.7533 54.2152 92.1C54.3458 91.428 54.4112 90.5413 54.4112 89.44C54.4112 88.3573 54.3458 87.4893 54.2152 86.836C54.0845 86.1827 53.8792 85.6973 53.5992 85.38C53.3378 85.044 53.0018 84.8293 52.5912 84.736C52.1805 84.624 51.6858 84.568 51.1072 84.568C50.5472 84.568 50.0618 84.624 49.6512 84.736C49.2405 84.8293 48.9045 85.044 48.6432 85.38C48.3818 85.6973 48.1765 86.1827 48.0272 86.836C47.8965 87.4893 47.8312 88.3573 47.8312 89.44C47.8312 90.5413 47.8965 91.428 48.0272 92.1C48.1765 92.7533 48.3818 93.248 48.6432 93.584C48.9045 93.9013 49.2405 94.116 49.6512 94.228C50.0618 94.3213 50.5472 94.368 51.1072 94.368ZM64.188 97.168C62.8067 97.168 61.7333 96.7853 60.968 96.02C60.2027 95.236 59.82 94.0973 59.82 92.604V81.992H63.292V91.596C63.292 92.5853 63.516 93.248 63.964 93.584C64.4307 93.92 65.056 94.088 65.84 94.088C66.4933 94.088 67.128 93.9853 67.744 93.78C68.36 93.5747 68.9387 93.276 69.48 92.884V81.992H72.952V97H70.124L69.48 95.432C68.7707 95.88 67.9587 96.2813 67.044 96.636C66.148 96.9907 65.196 97.168 64.188 97.168ZM75.3256 97V81.992H78.0136L78.7976 84.4C79.395 83.672 80.0576 83.056 80.7856 82.552C81.5136 82.048 82.3816 81.796 83.3896 81.796C83.595 81.796 83.8096 81.8147 84.0336 81.852C84.2576 81.8707 84.463 81.908 84.6496 81.964V85.492C84.3883 85.4547 84.1083 85.4267 83.8096 85.408C83.511 85.3893 83.2216 85.38 82.9416 85.38C82.363 85.38 81.831 85.4453 81.3456 85.576C80.879 85.7067 80.4403 85.912 80.0296 86.192C79.619 86.4533 79.2083 86.7893 78.7976 87.2V97H75.3256ZM91.6761 97.168C90.7801 97.168 89.9494 97.056 89.1841 96.832C88.4374 96.5893 87.7841 96.188 87.2241 95.628C86.6641 95.0493 86.2254 94.2653 85.9081 93.276C85.6094 92.2867 85.4601 91.0453 85.4601 89.552C85.4601 88.0213 85.6001 86.752 85.8801 85.744C86.1788 84.736 86.5988 83.9427 87.1401 83.364C87.6814 82.7853 88.3348 82.384 89.1001 82.16C89.8841 81.9173 90.7708 81.796 91.7601 81.796C92.6001 81.796 93.4494 81.8427 94.3081 81.936C95.1668 82.0107 96.0254 82.16 96.8841 82.384V84.372H92.7961C91.9001 84.372 91.1721 84.512 90.6121 84.792C90.0521 85.072 89.6321 85.5853 89.3521 86.332C89.0721 87.0787 88.9321 88.152 88.9321 89.552C88.9321 90.9333 89.0721 91.988 89.3521 92.716C89.6321 93.4253 90.0521 93.9107 90.6121 94.172C91.1908 94.4147 91.9281 94.536 92.8241 94.536H97.1081V96.496C96.6601 96.6267 96.1374 96.748 95.5401 96.86C94.9428 96.9533 94.3081 97.028 93.6361 97.084C92.9828 97.14 92.3294 97.168 91.6761 97.168ZM104.675 97.14C103.051 97.14 101.753 96.916 100.783 96.468C99.8307 96.02 99.14 95.2453 98.7107 94.144C98.2813 93.024 98.0667 91.4747 98.0667 89.496C98.0667 87.48 98.272 85.9213 98.6827 84.82C99.0933 83.7 99.7747 82.916 100.727 82.468C101.679 82.02 102.967 81.796 104.591 81.796C106.028 81.796 107.176 81.9453 108.035 82.244C108.912 82.524 109.547 83.0373 109.939 83.784C110.349 84.512 110.555 85.548 110.555 86.892C110.555 87.844 110.368 88.6093 109.995 89.188C109.621 89.748 109.08 90.1493 108.371 90.392C107.68 90.6347 106.859 90.756 105.907 90.756H101.511C101.548 91.6893 101.669 92.436 101.875 92.996C102.099 93.5373 102.491 93.9293 103.051 94.172C103.629 94.4147 104.469 94.536 105.571 94.536H110.107V96.58C109.341 96.7293 108.529 96.86 107.671 96.972C106.831 97.084 105.832 97.14 104.675 97.14ZM101.483 88.656H105.571C106.224 88.656 106.7 88.5347 106.999 88.292C107.316 88.0307 107.475 87.564 107.475 86.892C107.475 86.2387 107.381 85.7253 107.195 85.352C107.008 84.9787 106.7 84.7173 106.271 84.568C105.841 84.4 105.281 84.316 104.591 84.316C103.807 84.316 103.191 84.4373 102.743 84.68C102.295 84.9227 101.968 85.3613 101.763 85.996C101.576 86.612 101.483 87.4987 101.483 88.656ZM117.892 97.168C117.463 97.168 116.968 97.1493 116.408 97.112C115.867 97.0933 115.316 97.056 114.756 97C114.215 96.9627 113.711 96.9067 113.244 96.832C112.778 96.7573 112.395 96.6733 112.096 96.58V94.536H118.564C119.031 94.536 119.423 94.4987 119.74 94.424C120.076 94.3493 120.328 94.2 120.496 93.976C120.664 93.752 120.748 93.416 120.748 92.968V92.436C120.748 91.9693 120.59 91.6053 120.272 91.344C119.974 91.064 119.442 90.924 118.676 90.924H116.408C115.531 90.924 114.747 90.8027 114.056 90.56C113.384 90.3173 112.852 89.9067 112.46 89.328C112.068 88.7493 111.872 87.9653 111.872 86.976V86.136C111.872 85.184 112.05 84.4 112.404 83.784C112.778 83.1493 113.384 82.6733 114.224 82.356C115.083 82.02 116.222 81.852 117.64 81.852C118.238 81.852 118.882 81.88 119.572 81.936C120.263 81.992 120.926 82.0667 121.56 82.16C122.195 82.2347 122.699 82.328 123.072 82.44V84.484H116.968C116.278 84.484 115.746 84.6053 115.372 84.848C115.018 85.072 114.84 85.5013 114.84 86.136V86.668C114.84 87.0787 114.924 87.3867 115.092 87.592C115.26 87.7973 115.512 87.9373 115.848 88.012C116.184 88.0867 116.586 88.124 117.052 88.124H119.376C120.851 88.124 121.943 88.46 122.652 89.132C123.362 89.804 123.716 90.756 123.716 91.988V93.22C123.716 94.228 123.483 95.0213 123.016 95.6C122.55 96.1787 121.878 96.5893 121 96.832C120.142 97.056 119.106 97.168 117.892 97.168Z" fill="white"/>
<g filter="url(#filter0_b_9954_166413)">
<rect x="30" width="64" height="56" rx="12" fill="black" fill-opacity="0.6"/>
</g>
<path d="M48.668 39.6667V16.3333C48.668 15.4493 49.0192 14.6014 49.6443 13.9763C50.2694 13.3512 51.1172 13 52.0013 13H74.3346C74.5998 13 74.8542 13.1054 75.0417 13.2929C75.2293 13.4804 75.3346 13.7348 75.3346 14V35.8567M52.0013 36.3333H75.3346M52.0013 43H75.3346" stroke="white" stroke-width="1.5" stroke-linecap="round" stroke-linejoin="round"/>
<path d="M52.0013 43.0007C51.1172 43.0007 50.2694 42.6495 49.6443 42.0243C49.0192 41.3992 48.668 40.5514 48.668 39.6673C48.668 38.7833 49.0192 37.9354 49.6443 37.3103C50.2694 36.6852 51.1172 36.334 52.0013 36.334" stroke="white" stroke-width="1.5" stroke-linecap="round" stroke-linejoin="round"/>
<path d="M57 19.666H67" stroke="white" stroke-width="1.5" stroke-linecap="round" stroke-linejoin="round"/>
<defs>
<filter id="filter0_b_9954_166413" x="-66" y="-96" width="256" height="248" filterUnits="userSpaceOnUse" color-interpolation-filters="sRGB">
<feFlood flood-opacity="0" result="BackgroundImageFix"/>
<feGaussianBlur in="BackgroundImageFix" stdDeviation="48"/>
<feComposite in2="SourceAlpha" operator="in" result="effect1_backgroundBlur_9954_166413"/>
<feBlend mode="normal" in="SourceGraphic" in2="effect1_backgroundBlur_9954_166413" result="shape"/>
</filter>
</defs>
</svg>
