<svg width="40" height="40" viewBox="0 0 40 40" fill="none" xmlns="http://www.w3.org/2000/svg">
<path d="M15 35H25M15 35V26.6667M15 35H6C5.73478 35 5.48043 34.8946 5.29289 34.7071C5.10536 34.5196 5 34.2652 5 34V27.6667C5 27.4015 5.10536 27.1471 5.29289 26.9596C5.48043 26.772 5.73478 26.6667 6 26.6667H15M25 35V15M25 35H34C34.2652 35 34.5196 34.8946 34.7071 34.7071C34.8946 34.5196 35 34.2652 35 34V6C35 5.73478 34.8946 5.48043 34.7071 5.29289C34.5196 5.10536 34.2652 5 34 5H26C25.7348 5 25.4804 5.10536 25.2929 5.29289C25.1054 5.48043 25 5.73478 25 6V15M25 15H16C15.7348 15 15.4804 15.1054 15.2929 15.2929C15.1054 15.4804 15 15.7348 15 16V26.6667" stroke="#777777" stroke-width="1.5" stroke-linecap="round" stroke-linejoin="round"/>
</svg>
