<svg width="28" height="28" viewBox="0 0 28 28" fill="none" xmlns="http://www.w3.org/2000/svg">
<circle cx="14" cy="14" r="14" fill="#color"/>
<path d="M8 20.4V7.6C8 7.44087 8.06321 7.28826 8.17574 7.17574C8.28826 7.06321 8.44087 7 8.6 7H11.4C11.5591 7 11.7117 7.06321 11.8243 7.17574C11.9368 7.28826 12 7.44087 12 7.6V20.4C12 20.5591 11.9368 20.7117 11.8243 20.8243C11.7117 20.9368 11.5591 21 11.4 21H8.6C8.44087 21 8.28826 20.9368 8.17574 20.8243C8.06321 20.7117 8 20.5591 8 20.4ZM16 20.4V7.6C16 7.44087 16.0632 7.28826 16.1757 7.17574C16.2883 7.06321 16.4409 7 16.6 7H19.4C19.5591 7 19.7117 7.06321 19.8243 7.17574C19.9368 7.28826 20 7.44087 20 7.6V20.4C20 20.5591 19.9368 20.7117 19.8243 20.8243C19.7117 20.9368 19.5591 21 19.4 21H16.6C16.4409 21 16.2883 20.9368 16.1757 20.8243C16.0632 20.7117 16 20.5591 16 20.4Z" fill="black"/>
</svg>
