<svg viewBox="0 0 392 100" fill="none" xmlns="http://www.w3.org/2000/svg">
<mask id="path-1-inside-1_5076_49778" fill="white">
<path fill-rule="evenodd" clip-rule="evenodd" d="M0 92V12.1417L11.4924 0H384C388.418 0 392 3.58172 392 8V87.8572L380.507 100H8C3.58172 100 0 96.4183 0 92Z"/>
</mask>
<path fill-rule="evenodd" clip-rule="evenodd" d="M0 92V12.1417L11.4924 0H384C388.418 0 392 3.58172 392 8V87.8572L380.507 100H8C3.58172 100 0 96.4183 0 92Z" fill="black"/>
<path d="M0 12.1417L-0.726259 11.4543L-1 11.7435V12.1417H0ZM11.4924 0V-1H11.062L10.7661 -0.687421L11.4924 0ZM392 87.8572L392.726 88.5446L393 88.2554V87.8572H392ZM380.507 100V101H380.937L381.233 100.687L380.507 100ZM-1 12.1417V92H1V12.1417H-1ZM10.7661 -0.687421L-0.726259 11.4543L0.726259 12.8291L12.2187 0.687421L10.7661 -0.687421ZM384 -1H11.4924V1H384V-1ZM393 8C393 3.02944 388.971 -1 384 -1V1C387.866 1 391 4.134 391 8H393ZM393 87.8572V8H391V87.8572H393ZM381.233 100.687L392.726 88.5446L391.274 87.1698L379.78 99.3126L381.233 100.687ZM8 101H380.507V99H8V101ZM-1 92C-1 96.9706 3.02943 101 8 101V99C4.134 99 1 95.866 1 92H-1Z" fill="url(#paint0_linear_5076_49778)" mask="url(#path-1-inside-1_5076_49778)"/>
<defs>
<linearGradient id="paint0_linear_5076_49778" x1="4.2875" y1="-7.56579" x2="244.414" y2="256.385" gradientUnits="userSpaceOnUse">
<stop stop-color="#01B7C5"/>
<stop offset="1" stop-color="#782C96"/>
</linearGradient>
</defs>
</svg>
