<svg width="592" height="80" viewBox="0 0 592 80" fill="none" xmlns="http://www.w3.org/2000/svg">
<mask id="path-1-inside-1_15238_281068" fill="white">
<path fill-rule="evenodd" clip-rule="evenodd" d="M0 68V12.1417L12.1417 0H580C586.627 0 592 5.37258 592 12V67.8579L579.858 80H12C5.37259 80 0 74.6274 0 68Z"/>
</mask>
<path fill-rule="evenodd" clip-rule="evenodd" d="M0 68V12.1417L12.1417 0H580C586.627 0 592 5.37258 592 12V67.8579L579.858 80H12C5.37259 80 0 74.6274 0 68Z" fill="black"/>
<path d="M0 12.1417L-0.353553 11.7881L-0.5 11.9346V12.1417H0ZM12.1417 0V-0.5H11.9346L11.7881 -0.353553L12.1417 0ZM592 67.8579L592.354 68.2115L592.5 68.065V67.8579H592ZM579.858 80V80.5H580.065L580.211 80.3536L579.858 80ZM-0.5 12.1417V14.9346H0.5V12.1417H-0.5ZM-0.5 20.5204V26.1063H0.5V20.5204H-0.5ZM-0.5 31.6921V37.2779H0.5V31.6921H-0.5ZM-0.5 42.8638V48.4496H0.5V42.8638H-0.5ZM-0.5 54.0354V59.6213H0.5V54.0354H-0.5ZM-0.5 65.2071V68H0.5V65.2071H-0.5ZM-0.5 68C-0.5 68.8342 -0.418219 69.6497 -0.262085 70.439L0.718903 70.2449C0.575346 69.5193 0.5 68.7687 0.5 68H-0.5ZM1.60574 74.9456C2.51819 76.3085 3.69153 77.4818 5.05446 78.3943L5.61078 77.5633C4.35647 76.7236 3.27644 75.6435 2.4367 74.3892L1.60574 74.9456ZM9.56103 80.2621C10.3503 80.4182 11.1658 80.5 12 80.5V79.5C11.2313 79.5 10.4808 79.4247 9.7551 79.2811L9.56103 80.2621ZM12 80.5H15.0205V79.5H12V80.5ZM21.0616 80.5H27.1026V79.5H21.0616V80.5ZM33.1437 80.5H39.1847V79.5H33.1437V80.5ZM45.2257 80.5H51.2668V79.5H45.2257V80.5ZM57.3078 80.5H63.3489V79.5H57.3078V80.5ZM69.3899 80.5H75.4309V79.5H69.3899V80.5ZM81.472 80.5H87.513V79.5H81.472V80.5ZM93.5541 80.5H99.5951V79.5H93.5541V80.5ZM105.636 80.5H111.677V79.5H105.636V80.5ZM117.718 80.5H123.759V79.5H117.718V80.5ZM129.8 80.5H135.841V79.5H129.8V80.5ZM141.882 80.5H147.923V79.5H141.882V80.5ZM153.964 80.5H160.006V79.5H153.964V80.5ZM166.047 80.5H172.088V79.5H166.047V80.5ZM178.129 80.5H184.17V79.5H178.129V80.5ZM190.211 80.5H196.252V79.5H190.211V80.5ZM202.293 80.5H208.334V79.5H202.293V80.5ZM214.375 80.5H220.416V79.5H214.375V80.5ZM226.457 80.5H232.498V79.5H226.457V80.5ZM238.539 80.5H244.58V79.5H238.539V80.5ZM250.621 80.5H256.662V79.5H250.621V80.5ZM262.703 80.5H268.744V79.5H262.703V80.5ZM274.785 80.5H280.826V79.5H274.785V80.5ZM286.867 80.5H292.909V79.5H286.867V80.5ZM298.95 80.5H304.991V79.5H298.95V80.5ZM311.032 80.5H317.073V79.5H311.032V80.5ZM323.114 80.5H329.155V79.5H323.114V80.5ZM335.196 80.5H341.237V79.5H335.196V80.5ZM347.278 80.5H353.319V79.5H347.278V80.5ZM359.36 80.5H365.401V79.5H359.36V80.5ZM371.442 80.5H377.483V79.5H371.442V80.5ZM383.524 80.5H389.565V79.5H383.524V80.5ZM395.606 80.5H401.647V79.5H395.606V80.5ZM407.688 80.5H413.729V79.5H407.688V80.5ZM419.77 80.5H425.812V79.5H419.77V80.5ZM431.853 80.5H437.894V79.5H431.853V80.5ZM443.935 80.5H449.976V79.5H443.935V80.5ZM456.017 80.5H462.058V79.5H456.017V80.5ZM468.099 80.5H474.14V79.5H468.099V80.5ZM480.181 80.5H486.222V79.5H480.181V80.5ZM492.263 80.5H498.304V79.5H492.263V80.5ZM504.345 80.5H510.386V79.5H504.345V80.5ZM516.427 80.5H522.468V79.5H516.427V80.5ZM528.509 80.5H534.55V79.5H528.509V80.5ZM540.591 80.5H546.632V79.5H540.591V80.5ZM552.673 80.5H558.714V79.5H552.673V80.5ZM564.755 80.5H570.796V79.5H564.755V80.5ZM576.837 80.5H579.858V79.5H576.837V80.5ZM580.211 80.3536L583.247 77.318L582.54 76.6109L579.504 79.6464L580.211 80.3536ZM589.318 71.247L592.354 68.2115L591.646 67.5044L588.611 70.5399L589.318 71.247ZM592.5 67.8579V65.065H591.5V67.8579H592.5ZM592.5 59.4792V53.8934H591.5V59.4792H592.5ZM592.5 48.3076V42.7219H591.5V48.3076H592.5ZM592.5 37.1361V31.5503H591.5V37.1361H592.5ZM592.5 25.9645V20.3787H591.5V25.9645H592.5ZM592.5 14.7929V12H591.5V14.7929H592.5ZM592.5 12C592.5 11.1658 592.418 10.3503 592.262 9.56102L591.281 9.75509C591.425 10.4808 591.5 11.2313 591.5 12H592.5ZM590.394 5.05446C589.482 3.69153 588.308 2.5182 586.946 1.60574L586.389 2.43671C587.644 3.27644 588.724 4.35647 589.563 5.61078L590.394 5.05446ZM582.439 -0.262083C581.65 -0.418218 580.834 -0.5 580 -0.5V0.5C580.769 0.5 581.519 0.575346 582.245 0.718904L582.439 -0.262083ZM580 -0.5H576.979V0.5H580V-0.5ZM570.938 -0.5H564.897V0.5H570.938V-0.5ZM558.856 -0.5H552.815V0.5H558.856V-0.5ZM546.774 -0.5H540.733V0.5H546.774V-0.5ZM534.692 -0.5H528.651V0.5H534.692V-0.5ZM522.61 -0.5H516.569V0.5H522.61V-0.5ZM510.528 -0.5H504.487V0.5H510.528V-0.5ZM498.446 -0.5H492.405V0.5H498.446V-0.5ZM486.364 -0.5H480.323V0.5H486.364V-0.5ZM474.282 -0.5H468.241V0.5H474.282V-0.5ZM462.2 -0.5H456.159V0.5H462.2V-0.5ZM450.118 -0.5H444.076V0.5H450.118V-0.5ZM438.035 -0.5H431.994V0.5H438.035V-0.5ZM425.953 -0.5H419.912V0.5H425.953V-0.5ZM413.871 -0.5H407.83V0.5H413.871V-0.5ZM401.789 -0.5H395.748V0.5H401.789V-0.5ZM389.707 -0.5H383.666V0.5H389.707V-0.5ZM377.625 -0.5H371.584V0.5H377.625V-0.5ZM365.543 -0.5H359.502V0.5H365.543V-0.5ZM353.461 -0.5H347.42V0.5H353.461V-0.5ZM341.379 -0.5H335.338V0.5H341.379V-0.5ZM329.297 -0.5H323.256V0.5H329.297V-0.5ZM317.214 -0.5H311.173V0.5H317.214V-0.5ZM305.132 -0.5H299.091V0.5H305.132V-0.5ZM293.05 -0.5H287.009V0.5H293.05V-0.5ZM280.968 -0.5H274.927V0.5H280.968V-0.5ZM268.886 -0.5H262.845V0.5H268.886V-0.5ZM256.804 -0.5H250.763V0.5H256.804V-0.5ZM244.722 -0.5H238.681V0.5H244.722V-0.5ZM232.64 -0.5H226.599V0.5H232.64V-0.5ZM220.558 -0.5H214.517V0.5H220.558V-0.5ZM208.476 -0.5H202.435V0.5H208.476V-0.5ZM196.394 -0.5H190.353V0.5H196.394V-0.5ZM184.311 -0.5H178.27V0.5H184.311V-0.5ZM172.229 -0.5H166.188V0.5H172.229V-0.5ZM160.147 -0.5H154.106V0.5H160.147V-0.5ZM148.065 -0.5H142.024V0.5H148.065V-0.5ZM135.983 -0.5H129.942V0.5H135.983V-0.5ZM123.901 -0.5H117.86V0.5H123.901V-0.5ZM111.819 -0.5H105.778V0.5H111.819V-0.5ZM99.7368 -0.5H93.6958V0.5H99.7368V-0.5ZM87.6547 -0.5H81.6137V0.5H87.6547V-0.5ZM75.5726 -0.5H69.5316V0.5H75.5726V-0.5ZM63.4906 -0.5H57.4495V0.5H63.4906V-0.5ZM51.4085 -0.5H45.3675V0.5H51.4085V-0.5ZM39.3265 -0.5H33.2855V0.5H39.3265V-0.5ZM27.2445 -0.5H21.2034V0.5H27.2445V-0.5ZM15.1624 -0.5H12.1417V0.5H15.1624V-0.5ZM11.7881 -0.353553L8.75272 2.68187L9.45982 3.38898L12.4952 0.353553L11.7881 -0.353553ZM2.68187 8.75272L-0.353553 11.7881L0.353553 12.4952L3.38898 9.45982L2.68187 8.75272ZM0 12.1417L-0.707107 11.4346L-1 11.7275V12.1417H0ZM12.1417 0V-1H11.7275L11.4346 -0.707107L12.1417 0ZM592 67.8579L592.707 68.565L593 68.2721V67.8579H592ZM579.858 80V81H580.272L580.565 80.7071L579.858 80ZM-1 12.1417V14.9346H1V12.1417H-1ZM-1 20.5204V26.1063H1V20.5204H-1ZM-1 31.6921V37.2779H1V31.6921H-1ZM-1 42.8638V48.4496H1V42.8638H-1ZM-1 54.0354V59.6213H1V54.0354H-1ZM-1 65.2071V68H1V65.2071H-1ZM-1 68C-1 68.8669 -0.915001 69.715 -0.752579 70.536L1.2094 70.1479C1.07213 69.454 1 68.7359 1 68H-1ZM1.19025 75.2237C2.13907 76.6409 3.35906 77.8609 4.7763 78.8098L5.88894 77.1478C4.68894 76.3444 3.65557 75.3111 2.85219 74.1111L1.19025 75.2237ZM9.464 80.7526C10.285 80.915 11.1331 81 12 81V79C11.2641 79 10.546 78.9279 9.85214 78.7906L9.464 80.7526ZM12 81H15.0205V79H12V81ZM21.0616 81H27.1026V79H21.0616V81ZM33.1437 81H39.1847V79H33.1437V81ZM45.2257 81H51.2668V79H45.2257V81ZM57.3078 81H63.3489V79H57.3078V81ZM69.3899 81H75.4309V79H69.3899V81ZM81.472 81H87.513V79H81.472V81ZM93.5541 81H99.5951V79H93.5541V81ZM105.636 81H111.677V79H105.636V81ZM117.718 81H123.759V79H117.718V81ZM129.8 81H135.841V79H129.8V81ZM141.882 81H147.923V79H141.882V81ZM153.964 81H160.006V79H153.964V81ZM166.047 81H172.088V79H166.047V81ZM178.129 81H184.17V79H178.129V81ZM190.211 81H196.252V79H190.211V81ZM202.293 81H208.334V79H202.293V81ZM214.375 81H220.416V79H214.375V81ZM226.457 81H232.498V79H226.457V81ZM238.539 81H244.58V79H238.539V81ZM250.621 81H256.662V79H250.621V81ZM262.703 81H268.744V79H262.703V81ZM274.785 81H280.826V79H274.785V81ZM286.867 81H292.909V79H286.867V81ZM298.95 81H304.991V79H298.95V81ZM311.032 81H317.073V79H311.032V81ZM323.114 81H329.155V79H323.114V81ZM335.196 81H341.237V79H335.196V81ZM347.278 81H353.319V79H347.278V81ZM359.36 81H365.401V79H359.36V81ZM371.442 81H377.483V79H371.442V81ZM383.524 81H389.565V79H383.524V81ZM395.606 81H401.647V79H395.606V81ZM407.688 81H413.729V79H407.688V81ZM419.77 81H425.812V79H419.77V81ZM431.853 81H437.894V79H431.853V81ZM443.935 81H449.976V79H443.935V81ZM456.017 81H462.058V79H456.017V81ZM468.099 81H474.14V79H468.099V81ZM480.181 81H486.222V79H480.181V81ZM492.263 81H498.304V79H492.263V81ZM504.345 81H510.386V79H504.345V81ZM516.427 81H522.468V79H516.427V81ZM528.509 81H534.55V79H528.509V81ZM540.591 81H546.632V79H540.591V81ZM552.673 81H558.714V79H552.673V81ZM564.755 81H570.796V79H564.755V81ZM576.837 81H579.858V79H576.837V81ZM580.565 80.7071L583.601 77.6716L582.186 76.2574L579.151 79.2929L580.565 80.7071ZM589.672 71.6005L592.707 68.565L591.293 67.1508L588.257 70.1863L589.672 71.6005ZM593 67.8579V65.065H591V67.8579H593ZM593 59.4792V53.8934H591V59.4792H593ZM593 48.3076V42.7219H591V48.3076H593ZM593 37.1361V31.5503H591V37.1361H593ZM593 25.9645V20.3787H591V25.9645H593ZM593 14.7929V12H591V14.7929H593ZM593 12C593 11.1331 592.915 10.285 592.753 9.46399L590.791 9.85213C590.928 10.546 591 11.2641 591 12H593ZM590.81 4.7763C589.861 3.35906 588.641 2.13907 587.224 1.19025L586.111 2.85219C587.311 3.65557 588.344 4.68894 589.148 5.88894L590.81 4.7763ZM582.536 -0.752577C581.715 -0.915 580.867 -1 580 -1V1C580.736 1 581.454 1.07213 582.148 1.2094L582.536 -0.752577ZM580 -1H576.979V1H580V-1ZM570.938 -1H564.897V1H570.938V-1ZM558.856 -1H552.815V1H558.856V-1ZM546.774 -1H540.733V1H546.774V-1ZM534.692 -1H528.651V1H534.692V-1ZM522.61 -1H516.569V1H522.61V-1ZM510.528 -1H504.487V1H510.528V-1ZM498.446 -1H492.405V1H498.446V-1ZM486.364 -1H480.323V1H486.364V-1ZM474.282 -1H468.241V1H474.282V-1ZM462.2 -1H456.159V1H462.2V-1ZM450.118 -1H444.076V1H450.118V-1ZM438.035 -1H431.994V1H438.035V-1ZM425.953 -1H419.912V1H425.953V-1ZM413.871 -1H407.83V1H413.871V-1ZM401.789 -1H395.748V1H401.789V-1ZM389.707 -1H383.666V1H389.707V-1ZM377.625 -1H371.584V1H377.625V-1ZM365.543 -1H359.502V1H365.543V-1ZM353.461 -1H347.42V1H353.461V-1ZM341.379 -1H335.338V1H341.379V-1ZM329.297 -1H323.256V1H329.297V-1ZM317.214 -1H311.173V1H317.214V-1ZM305.132 -1H299.091V1H305.132V-1ZM293.05 -1H287.009V1H293.05V-1ZM280.968 -1H274.927V1H280.968V-1ZM268.886 -1H262.845V1H268.886V-1ZM256.804 -1H250.763V1H256.804V-1ZM244.722 -1H238.681V1H244.722V-1ZM232.64 -1H226.599V1H232.64V-1ZM220.558 -1H214.517V1H220.558V-1ZM208.476 -1H202.435V1H208.476V-1ZM196.394 -1H190.353V1H196.394V-1ZM184.311 -1H178.27V1H184.311V-1ZM172.229 -1H166.188V1H172.229V-1ZM160.147 -1H154.106V1H160.147V-1ZM148.065 -1H142.024V1H148.065V-1ZM135.983 -1H129.942V1H135.983V-1ZM123.901 -1H117.86V1H123.901V-1ZM111.819 -1H105.778V1H111.819V-1ZM99.7368 -1H93.6958V1H99.7368V-1ZM87.6547 -1H81.6137V1H87.6547V-1ZM75.5726 -1H69.5316V1H75.5726V-1ZM63.4906 -1H57.4495V1H63.4906V-1ZM51.4085 -1H45.3675V1H51.4085V-1ZM39.3265 -1H33.2855V1H39.3265V-1ZM27.2445 -1H21.2034V1H27.2445V-1ZM15.1624 -1H12.1417V1H15.1624V-1ZM11.4346 -0.707107L8.39916 2.32832L9.81338 3.74253L12.8488 0.707107L11.4346 -0.707107ZM2.32832 8.39916L-0.707107 11.4346L0.707107 12.8488L3.74253 9.81338L2.32832 8.39916Z" fill="url(#paint0_linear_15238_281068)" mask="url(#path-1-inside-1_15238_281068)"/>
<defs>
<linearGradient id="paint0_linear_15238_281068" x1="0" y1="40" x2="592" y2="40" gradientUnits="userSpaceOnUse">
<stop stop-color="#5433FF"/>
<stop offset="0.5" stop-color="#20BDFF"/>
<stop offset="1" stop-color="#A5FECB"/>
</linearGradient>
</defs>
</svg>
