<svg viewBox="0 0 392 84" fill="none" xmlns="http://www.w3.org/2000/svg">
<mask id="path-1-inside-1_5138_50660" fill="white">
<path fill-rule="evenodd" clip-rule="evenodd" d="M0 76V12.1417L11.4924 0H384C388.418 0 392 3.58172 392 8V71.8572L380.507 84H8C3.58172 84 0 80.4183 0 76Z"/>
</mask>
<path fill-rule="evenodd" clip-rule="evenodd" d="M0 76V12.1417L11.4924 0H384C388.418 0 392 3.58172 392 8V71.8572L380.507 84H8C3.58172 84 0 80.4183 0 76Z" fill="black"/>
<path d="M0 12.1417L-0.726259 11.4543L-1 11.7435V12.1417H0ZM11.4924 0V-1H11.062L10.7661 -0.687421L11.4924 0ZM392 71.8572L392.726 72.5446L393 72.2554V71.8572H392ZM380.507 84V85H380.937L381.233 84.6874L380.507 84ZM-1 12.1417V76H1V12.1417H-1ZM10.7661 -0.687421L-0.726259 11.4543L0.726259 12.8291L12.2187 0.687421L10.7661 -0.687421ZM384 -1H11.4924V1H384V-1ZM393 8C393 3.02944 388.971 -1 384 -1V1C387.866 1 391 4.13401 391 8H393ZM393 71.8572V8H391V71.8572H393ZM381.233 84.6874L392.726 72.5446L391.274 71.1698L379.78 83.3126L381.233 84.6874ZM8 85H380.507V83H8V85ZM-1 76C-1 80.9706 3.02943 85 8 85V83C4.134 83 1 79.866 1 76H-1Z" fill="url(#paint0_linear_5138_50660)" mask="url(#path-1-inside-1_5138_50660)"/>
<defs>
<linearGradient id="paint0_linear_5138_50660" x1="4.2875" y1="-6.35526" x2="199.783" y2="249.469" gradientUnits="userSpaceOnUse">
<stop stop-color="#01B7C5"/>
<stop offset="1" stop-color="#782C96"/>
</linearGradient>
</defs>
</svg>
