<svg viewBox="0 0 220 40" fill="none" xmlns="http://www.w3.org/2000/svg">
<mask id="path-1-inside-1_7533_118488" fill="white">
<path fill-rule="evenodd" clip-rule="evenodd" d="M0 32V12.1417L11.4924 0H212C216.418 0 220 3.58172 220 8V27.8561L208.506 40H8.00001C3.58173 40 0 36.4183 0 32Z"/>
</mask>
<path fill-rule="evenodd" clip-rule="evenodd" d="M0 32V12.1417L11.4924 0H212C216.418 0 220 3.58172 220 8V27.8561L208.506 40H8.00001C3.58173 40 0 36.4183 0 32Z" fill="black"/>
<path d="M0 12.1417L-0.726259 11.4543L-1 11.7435V12.1417H0ZM11.4924 0V-1H11.062L10.7661 -0.687421L11.4924 0ZM220 27.8561L220.726 28.5435L221 28.2543V27.8561H220ZM208.506 40V41H208.936L209.232 40.6874L208.506 40ZM-1 12.1417V32H1V12.1417H-1ZM10.7661 -0.687421L-0.726259 11.4543L0.726259 12.8291L12.2187 0.687421L10.7661 -0.687421ZM212 -1H11.4924V1H212V-1ZM221 8C221 3.02943 216.971 -1 212 -1V1C215.866 1 219 4.13401 219 8H221ZM221 27.8561V8H219V27.8561H221ZM209.232 40.6874L220.726 28.5435L219.274 27.1687L207.779 39.3126L209.232 40.6874ZM8.00001 41H208.506V39H8.00001V41ZM-1 32C-1 36.9706 3.02944 41 8.00001 41V39C4.13401 39 1 35.866 1 32H-1Z" fill="#333333" mask="url(#path-1-inside-1_7533_118488)"/>
</svg>
