<svg viewBox="0 0 420 100" fill="none" xmlns="http://www.w3.org/2000/svg">
<mask id="path-1-inside-1_7055_106964" fill="white">
<path fill-rule="evenodd" clip-rule="evenodd" d="M0 92V12.1417L11.4924 0H412C416.418 0 420 3.58172 420 8V87.8561L408.506 100H8C3.58172 100 0 96.4183 0 92Z"/>
</mask>
<path fill-rule="evenodd" clip-rule="evenodd" d="M0 92V12.1417L11.4924 0H412C416.418 0 420 3.58172 420 8V87.8561L408.506 100H8C3.58172 100 0 96.4183 0 92Z" fill="black"/>
<path d="M0 12.1417L-0.726259 11.4543L-1 11.7435V12.1417H0ZM11.4924 0V-1H11.062L10.7661 -0.687421L11.4924 0ZM420 87.8561L420.726 88.5436L421 88.2544V87.8561H420ZM408.506 100V101H408.936L409.232 100.687L408.506 100ZM-1 12.1417V92H1V12.1417H-1ZM10.7661 -0.687421L-0.726259 11.4543L0.726259 12.8291L12.2187 0.687421L10.7661 -0.687421ZM412 -1H11.4924V1H412V-1ZM421 8C421 3.02944 416.971 -1 412 -1V1C415.866 1 419 4.13401 419 8H421ZM421 87.8561V8H419V87.8561H421ZM409.232 100.687L420.726 88.5436L419.274 87.1687L407.779 99.3126L409.232 100.687ZM8 101H408.506V99H8V101ZM-1 92C-1 96.9706 3.02944 101 8 101V99C4.13401 99 1 95.866 1 92H-1Z" fill="#333333" mask="url(#path-1-inside-1_7055_106964)"/>
</svg>
