<svg width="200" height="116" viewBox="0 0 200 116" fill="none" xmlns="http://www.w3.org/2000/svg">
<mask id="path-1-inside-1_6816_97207" fill="white">
<path fill-rule="evenodd" clip-rule="evenodd" d="M0 108V12.1425L11.4932 0H192C196.418 0 200 3.58172 200 8V103.856L188.506 116H8C3.58173 116 0 112.418 0 108Z"/>
</mask>
<path fill-rule="evenodd" clip-rule="evenodd" d="M0 108V12.1425L11.4932 0H192C196.418 0 200 3.58172 200 8V103.856L188.506 116H8C3.58173 116 0 112.418 0 108Z" fill="#171717"/>
<path d="M0 12.1425L-0.726259 11.4551L-1 11.7443V12.1425H0ZM11.4932 0V-1H11.0628L10.7669 -0.687421L11.4932 0ZM200 103.856L200.726 104.544L201 104.254V103.856H200ZM188.506 116V117H188.936L189.232 116.687L188.506 116ZM-1 12.1425V108H1V12.1425H-1ZM10.7669 -0.687421L-0.726259 11.4551L0.726259 12.8299L12.2194 0.687421L10.7669 -0.687421ZM192 -1H11.4932V1H192V-1ZM201 8C201 3.02944 196.971 -1 192 -1V1C195.866 1 199 4.13401 199 8H201ZM201 103.856V8H199V103.856H201ZM189.232 116.687L200.726 104.544L199.274 103.169L187.779 115.313L189.232 116.687ZM8 117H188.506V115H8V117ZM-1 108C-1 112.971 3.02944 117 8 117V115C4.13401 115 1 111.866 1 108H-1Z" fill="#333333" mask="url(#path-1-inside-1_6816_97207)"/>
</svg>
