
<svg width="56" height="56" viewBox="0 0 56 56" fill="none" xmlns="http://www.w3.org/2000/svg">
<rect width="56" height="56" rx="28" fill="#333333"/>
<path d="M22.1641 26.3337C22.1641 27.8808 22.7786 29.3645 23.8726 30.4584C24.9666 31.5524 26.4503 32.167 27.9974 32.167M27.9974 32.167C29.5445 32.167 31.0282 31.5524 32.1222 30.4584C33.2161 29.3645 33.8307 27.8808 33.8307 26.3337M27.9974 32.167V35.5003M24.6641 35.5003H31.3307M27.9974 19.667C29.3781 19.667 30.4974 20.7863 30.4974 22.167V26.3337C30.4974 27.7144 29.3781 28.8337 27.9974 28.8337C26.6167 28.8337 25.4974 27.7144 25.4974 26.3337V22.167C25.4974 20.7863 26.6167 19.667 27.9974 19.667Z" stroke="white" stroke-width="1.5" stroke-linecap="round" stroke-linejoin="round"/>
</svg>
