
<svg width="56" height="56" viewBox="0 0 56 56" fill="none" xmlns="http://www.w3.org/2000/svg">
<rect width="56" height="56" rx="28" fill="#EB5757"/>
<path d="M31.3333 21.333L34.6667 24.6663M34.6667 21.333L31.3333 24.6663M22.1667 21.333H25.5L27.1667 25.4997L25.0833 26.7497C25.9758 28.5593 27.4404 30.0239 29.25 30.9163L30.5 28.833L34.6667 30.4997V33.833C34.6667 34.275 34.4911 34.699 34.1785 35.0115C33.866 35.3241 33.442 35.4997 33 35.4997C29.7494 35.3021 26.6835 33.9218 24.3807 31.619C22.0779 29.3162 20.6975 26.2503 20.5 22.9997C20.5 22.5576 20.6756 22.1337 20.9882 21.8212C21.3007 21.5086 21.7246 21.333 22.1667 21.333Z" stroke="white" stroke-width="1.5" stroke-linecap="round" stroke-linejoin="round"/>
</svg>
