<svg width="24" height="24" viewBox="0 0 24 24" fill="none" xmlns="http://www.w3.org/2000/svg">
<path d="M6.16406 10.3337C6.16406 11.8808 6.77864 13.3645 7.87261 14.4584C8.96657 15.5524 10.4503 16.167 11.9974 16.167M11.9974 16.167C13.5445 16.167 15.0282 15.5524 16.1222 14.4584C17.2161 13.3645 17.8307 11.8808 17.8307 10.3337M11.9974 16.167V19.5003M8.66406 19.5003H15.3307M11.9974 3.66699C13.3781 3.66699 14.4974 4.78628 14.4974 6.16699V10.3337C14.4974 11.7144 13.3781 12.8337 11.9974 12.8337C10.6167 12.8337 9.4974 11.7144 9.4974 10.3337V6.16699C9.4974 4.78628 10.6167 3.66699 11.9974 3.66699Z" stroke="#777777" stroke-width="1.5" stroke-linecap="round" stroke-linejoin="round"/>
<path d="M2.98438 18.8944C2.39859 19.4802 2.39859 20.43 2.98438 21.0157C3.57016 21.6015 4.51991 21.6015 5.1057 21.0157L21.0156 5.10584C21.6014 4.52005 21.6014 3.5703 21.0156 2.98452C20.4298 2.39873 19.4801 2.39873 18.8943 2.98452L2.98438 18.8944Z" fill="#F46F76" stroke="black" stroke-width="1.5" stroke-linecap="round" stroke-linejoin="round"/>
</svg>
