
<svg width="56" height="56" viewBox="0 0 56 56" fill="none" xmlns="http://www.w3.org/2000/svg">
<rect width="56" height="56" rx="28" fill="#333333"/>
<path d="M19 35H19.01M23 35C23 33.9391 22.5786 32.9217 21.8284 32.1716C21.0783 31.4214 20.0609 31 19 31M27 35C27 32.8783 26.1571 30.8434 24.6569 29.3431C23.1566 27.8429 21.1217 27 19 27M31 35H34C34.7957 35 35.5587 34.6839 36.1213 34.1213C36.6839 33.5587 37 32.7956 37 32V24C37 23.2044 36.6839 22.4413 36.1213 21.8787C35.5587 21.3161 34.7957 21 34 21H22C21.3845 21.0058 20.7857 21.2009 20.2848 21.5587C19.7839 21.9164 19.4052 22.4196 19.2 23" stroke="white" stroke-width="1.5" stroke-linecap="round" stroke-linejoin="round"/>
</svg>
