
<svg width="56" height="56" viewBox="0 0 56 56" fill="none" xmlns="http://www.w3.org/2000/svg">
<rect width="56" height="56" rx="28" fill="#333333"/>
<path d="M31 26.0001L35.553 23.7241C35.7054 23.648 35.8748 23.612 36.045 23.6197C36.2152 23.6273 36.3806 23.6784 36.5256 23.7679C36.6706 23.8575 36.7902 23.9826 36.8733 24.1314C36.9563 24.2802 36.9999 24.4477 37 24.6181V31.3821C36.9999 31.5525 36.9563 31.7201 36.8733 31.8688C36.7902 32.0176 36.6706 32.1428 36.5256 32.2323C36.3806 32.3219 36.2152 32.3729 36.045 32.3806C35.8748 32.3882 35.7054 32.3523 35.553 32.2761L31 30.0001V26.0001Z" stroke="white" stroke-width="1.5" stroke-linecap="round" stroke-linejoin="round"/>
<path d="M29 22H21C19.8954 22 19 22.8954 19 24V32C19 33.1046 19.8954 34 21 34H29C30.1046 34 31 33.1046 31 32V24C31 22.8954 30.1046 22 29 22Z" stroke="white" stroke-width="1.5" stroke-linecap="round" stroke-linejoin="round"/>
</svg>
