<svg width="381" height="279" viewBox="0 0 381 279" fill="none" xmlns="http://www.w3.org/2000/svg">
<mask id="path-1-inside-1_15034_120985" fill="white">
<path fill-rule="evenodd" clip-rule="evenodd" d="M0 254.419V37.3089L35.3137 0H356.419C369.995 0 381 11.0051 381 24.5806V241.687L345.683 279H24.5807C11.0052 279 0 267.995 0 254.419Z"/>
</mask>
<path fill-rule="evenodd" clip-rule="evenodd" d="M0 254.419V37.3089L35.3137 0H356.419C369.995 0 381 11.0051 381 24.5806V241.687L345.683 279H24.5807C11.0052 279 0 267.995 0 254.419Z" fill="black"/>
<path d="M0 37.3089L-0.726259 36.6215L-1 36.9107V37.3089H0ZM35.3137 0V-1H34.8834L34.5875 -0.687421L35.3137 0ZM381 241.687L381.726 242.375L382 242.085V241.687H381ZM345.683 279V280H346.113L346.409 279.687L345.683 279ZM-1 37.3089V254.419H1V37.3089H-1ZM34.5875 -0.687421L-0.726259 36.6215L0.726259 37.9963L36.04 0.687421L34.5875 -0.687421ZM356.419 -1H35.3137V1H356.419V-1ZM382 24.5806C382 10.4528 370.547 -1 356.419 -1V1C369.443 1 380 11.5574 380 24.5806H382ZM382 241.687V24.5806H380V241.687H382ZM346.409 279.687L381.726 242.375L380.274 241L344.956 278.313L346.409 279.687ZM24.5807 280H345.683V278H24.5807V280ZM-1 254.419C-1 268.547 10.4529 280 24.5807 280V278C11.5574 278 1 267.443 1 254.419H-1Z" fill="#333333" mask="url(#path-1-inside-1_15034_120985)"/>
</svg>
