<svg width="53" height="53" viewBox="0 0 53 53" fill="none" xmlns="http://www.w3.org/2000/svg">
<path fill-rule="evenodd" clip-rule="evenodd" d="M25.9587 26.4999V17.6275C25.9587 17.3299 26.2002 17.0885 26.4978 17.0885C26.7954 17.0885 27.0368 17.3299 27.0368 17.6275V25.9609H33.4973C33.7949 25.9609 34.0363 26.2023 34.0363 26.4999C34.0363 26.7976 33.7949 27.039 33.4973 27.039H26.4978C26.2002 27.039 25.9588 26.7976 25.9588 26.4999L25.9587 26.4999ZM37.9349 15.0633C35.0079 12.1364 30.9642 10.3259 26.4982 10.3259C22.0322 10.3259 17.9881 12.1364 15.0616 15.0633C12.1346 17.9902 10.3242 22.0339 10.3242 26.4999C10.3242 30.9659 12.1346 35.01 15.0616 37.9366C17.9885 40.8635 22.0322 42.6739 26.4982 42.6739C30.9642 42.6739 35.0083 40.8635 37.9349 37.9366C40.8618 35.0096 42.6722 30.9659 42.6722 26.4999C42.6722 22.0339 40.8618 17.9898 37.9349 15.0633ZM16.5863 17.3506L15.4424 16.2068C15.232 15.9964 15.232 15.6548 15.4424 15.4444C15.6528 15.2341 15.9944 15.2341 16.2047 15.4444L17.3486 16.5883C17.5589 16.7986 17.5589 17.1402 17.3486 17.3506C17.1382 17.561 16.7966 17.561 16.5863 17.3506ZM35.6483 16.5883L36.7921 15.4444C37.0025 15.2341 37.3441 15.2341 37.5545 15.4444C37.7648 15.6548 37.7648 15.9964 37.5545 16.2068L36.4106 17.3506C36.2002 17.561 35.8586 17.561 35.6483 17.3506C35.4379 17.1402 35.4379 16.7986 35.6483 16.5883ZM25.9597 14.6392V11.4043C25.9597 11.1067 26.2011 10.8653 26.4987 10.8653C26.7963 10.8653 27.0377 11.1067 27.0377 11.4043V14.6392C27.0377 14.9368 26.7963 15.1782 26.4987 15.1782C26.2011 15.1782 25.9597 14.9368 25.9597 14.6392ZM10.8642 26.4998C10.8642 26.2022 11.1056 25.9608 11.4032 25.9608H14.6381C14.9357 25.9608 15.1771 26.2022 15.1771 26.4998C15.1771 26.7975 14.9357 27.0389 14.6381 27.0389H11.4032C11.1056 27.0389 10.8642 26.7975 10.8642 26.4998ZM26.4992 42.1348C26.2016 42.1348 25.9601 41.8934 25.9601 41.5958V38.3609C25.9601 38.0633 26.2016 37.8219 26.4992 37.8219C26.7968 37.8219 27.0382 38.0633 27.0382 38.3609V41.5958C27.0382 41.8934 26.7968 42.1348 26.4992 42.1348ZM37.8213 26.4998C37.8213 26.2022 38.0627 25.9608 38.3603 25.9608H41.5952C41.8928 25.9608 42.1342 26.2022 42.1342 26.4998C42.1342 26.7975 41.8928 27.0389 41.5952 27.0389H38.3603C38.0627 27.0389 37.8213 26.7975 37.8213 26.4998ZM15.443 37.556C15.2326 37.3457 15.2326 37.0041 15.443 36.7937L16.5868 35.6499C16.7972 35.4395 17.1388 35.4395 17.3492 35.6499C17.5595 35.8602 17.5595 36.2018 17.3492 36.4122L16.2053 37.556C15.9949 37.7664 15.6533 37.7664 15.443 37.556ZM36.7916 37.556L35.6477 36.4122C35.4374 36.2018 35.4374 35.8602 35.6477 35.6499C35.8581 35.4395 36.1997 35.4395 36.41 35.6499L37.5539 36.7937C37.7643 37.0041 37.7643 37.3457 37.5539 37.556C37.3435 37.7664 37.0019 37.7664 36.7916 37.556Z" fill="#color"/>
<path fill-rule="evenodd" clip-rule="evenodd" d="M26.5 0C41.1356 0 53 11.8644 53 26.5C53 41.1356 41.1356 53 26.5 53C11.8644 53 0 41.1356 0 26.5C0 11.8644 11.8644 0 26.5 0ZM26.5 2.65076C39.6714 2.65076 50.3491 13.3284 50.3491 26.4998C50.3491 39.6713 39.6714 50.3489 26.5 50.3489C13.3286 50.3489 2.65095 39.6713 2.65095 26.4998C2.65095 13.3284 13.3286 2.65076 26.5 2.65076Z" fill="#color"/>
</svg>
