<svg width="40" height="40" viewBox="0 0 40 40" fill="none" xmlns="http://www.w3.org/2000/svg">
<path fill-rule="evenodd" clip-rule="evenodd" d="M19.5867 20.0002V13.3041C19.5867 13.0795 19.7689 12.8973 19.9936 12.8973C20.2182 12.8973 20.4004 13.0795 20.4004 13.3041V19.5935H25.2762C25.5008 19.5935 25.683 19.7757 25.683 20.0003C25.683 20.2249 25.5008 20.4071 25.2762 20.4071H19.9936C19.769 20.4071 19.5868 20.2249 19.5868 20.0003L19.5867 20.0002ZM28.6253 11.3688C26.4163 9.15981 23.3645 7.79346 19.9939 7.79346C16.6233 7.79346 13.5712 9.15981 11.3625 11.3688C9.15347 13.5778 7.78711 16.6297 7.78711 20.0002C7.78711 23.3708 9.15347 26.423 11.3625 28.6317C13.5715 30.8407 16.6233 32.207 19.9939 32.207C23.3645 32.207 26.4166 30.8407 28.6253 28.6317C30.8343 26.4227 32.2007 23.3708 32.2007 20.0002C32.2007 16.6297 30.8343 13.5775 28.6253 11.3688ZM12.5132 13.0951L11.6499 12.2318C11.4911 12.073 11.4911 11.8152 11.6499 11.6565C11.8087 11.4977 12.0665 11.4977 12.2252 11.6565L13.0885 12.5198C13.2473 12.6785 13.2473 12.9363 13.0885 13.0951C12.9298 13.2539 12.6719 13.2539 12.5132 13.0951ZM26.8996 12.5198L27.7629 11.6565C27.9217 11.4977 28.1795 11.4977 28.3382 11.6565C28.497 11.8152 28.497 12.073 28.3382 12.2318L27.4749 13.0951C27.3162 13.2539 27.0584 13.2539 26.8996 13.0951C26.7408 12.9363 26.7408 12.6785 26.8996 12.5198ZM19.5875 11.0488V8.60734C19.5875 8.38273 19.7697 8.20053 19.9943 8.20053C20.2189 8.20053 20.4011 8.38273 20.4011 8.60734V11.0488C20.4011 11.2734 20.2189 11.4556 19.9943 11.4556C19.7697 11.4556 19.5875 11.2734 19.5875 11.0488ZM8.19461 20.0002C8.19461 19.7756 8.37681 19.5934 8.60142 19.5934H11.0428C11.2675 19.5934 11.4497 19.7756 11.4497 20.0002C11.4497 20.2248 11.2675 20.407 11.0428 20.407H8.60142C8.37681 20.407 8.19461 20.2248 8.19461 20.0002ZM19.9946 31.8002C19.77 31.8002 19.5878 31.618 19.5878 31.3934V28.952C19.5878 28.7273 19.77 28.5451 19.9946 28.5451C20.2192 28.5451 20.4014 28.7273 20.4014 28.952V31.3934C20.4014 31.618 20.2192 31.8002 19.9946 31.8002ZM28.5396 20.0002C28.5396 19.7756 28.7218 19.5934 28.9464 19.5934H31.3878C31.6124 19.5934 31.7946 19.7756 31.7946 20.0002C31.7946 20.2248 31.6124 20.407 31.3878 20.407H28.9464C28.7218 20.407 28.5396 20.2248 28.5396 20.0002ZM11.6503 28.3445C11.4916 28.1857 11.4916 27.9279 11.6503 27.7691L12.5136 26.9059C12.6724 26.7471 12.9302 26.7471 13.0889 26.9059C13.2477 27.0646 13.2477 27.3224 13.0889 27.4812L12.2257 28.3445C12.0669 28.5032 11.8091 28.5032 11.6503 28.3445ZM27.7625 28.3445L26.8992 27.4812C26.7404 27.3224 26.7404 27.0646 26.8992 26.9059C27.0579 26.7471 27.3157 26.7471 27.4745 26.9059L28.3378 27.7691C28.4966 27.9279 28.4966 28.1857 28.3378 28.3445C28.179 28.5032 27.9212 28.5032 27.7625 28.3445Z" fill="#color"/>
<path fill-rule="evenodd" clip-rule="evenodd" d="M20 0C31.0457 0 40 8.95429 40 20C40 31.0457 31.0457 40 20 40C8.95429 40 0 31.0457 0 20C0 8.95429 8.95429 0 20 0ZM20 2.00057C29.9407 2.00057 37.9993 10.0591 37.9993 19.9999C37.9993 29.9406 29.9407 37.9991 20 37.9991C10.0593 37.9991 2.00071 29.9406 2.00071 19.9999C2.00071 10.0591 10.0593 2.00057 20 2.00057Z" fill="#color"/>
</svg>
