<svg width="44" height="28" viewBox="0 0 44 28" fill="none" xmlns="http://www.w3.org/2000/svg">
<path fill-rule="evenodd" clip-rule="evenodd" d="M13.8 0H30.2C37.8 0 44 6.2 44 13.8V14.2C44 21.8 37.8 28 30.2 28H13.8C6.2 28 0 21.8 0 14.2V13.8C0 6.2 6.2 0 13.8 0ZM15.5984 11.9996H16.9984C18.1985 11.9996 19.1985 12.7996 19.1985 13.9996C19.1985 15.1996 18.3985 15.9996 17.1984 15.9996H15.7984V17.3996C15.7984 18.5996 14.9984 19.3996 13.7984 19.3996C12.5984 19.3996 11.7984 18.5996 11.7984 17.3996V15.9996H10.3984C9.19844 15.9996 8.39844 15.1996 8.39844 13.9996C8.39844 12.7996 9.19844 11.9996 10.3984 11.9996H11.5984V10.5996C11.5984 9.39961 12.3984 8.59961 13.5984 8.59961C14.7984 8.59961 15.5984 9.39961 15.5984 10.5996V11.9996ZM27.8031 14.2C29.2391 14.2 30.4031 13.036 30.4031 11.6C30.4031 10.164 29.2391 9 27.8031 9C26.3671 9 25.2031 10.164 25.2031 11.6C25.2031 13.036 26.3671 14.2 27.8031 14.2ZM35.4031 16.6C35.4031 18.036 34.2391 19.2 32.8031 19.2C31.3671 19.2 30.2031 18.036 30.2031 16.6C30.2031 15.164 31.3671 14 32.8031 14C34.2391 14 35.4031 15.164 35.4031 16.6Z" fill="#FFE768"/>
</svg>
