<svg width="40" height="40" viewBox="0 0 40 40" fill="none" xmlns="http://www.w3.org/2000/svg">
<path d="M26.8346 8.33325H13.168C6.83464 8.33325 1.66797 13.4999 1.66797 19.8333V20.1666C1.66797 26.4999 6.83464 31.6666 13.168 31.6666H26.8346C33.168 31.6666 38.3346 26.4999 38.3346 20.1666V19.8333C38.3346 13.4999 33.168 8.33325 26.8346 8.33325Z" fill="#color"/>
<path d="M15.8347 18.3336H14.668V17.1669C14.668 16.1669 14.0013 15.5002 13.0013 15.5002C12.0013 15.5002 11.3347 16.1669 11.3347 17.1669V18.3336H10.3346C9.33464 18.3336 8.66797 19.0002 8.66797 20.0002C8.66797 21.0002 9.33464 21.6669 10.3346 21.6669H11.5013V22.8336C11.5013 23.8336 12.168 24.5002 13.168 24.5002C14.168 24.5002 14.8347 23.8336 14.8347 22.8336V21.6669H16.0013C17.0013 21.6669 17.668 21.0002 17.668 20.0002C17.668 19.0002 16.8347 18.3336 15.8347 18.3336Z" fill="black"/>
<path d="M24.8346 20.1666C26.0312 20.1666 27.0013 19.1966 27.0013 17.9999C27.0013 16.8033 26.0312 15.8333 24.8346 15.8333C23.638 15.8333 22.668 16.8033 22.668 17.9999C22.668 19.1966 23.638 20.1666 24.8346 20.1666Z" fill="black"/>
<path d="M28.9987 24.3333C30.1953 24.3333 31.1654 23.3633 31.1654 22.1667C31.1654 20.97 30.1953 20 28.9987 20C27.802 20 26.832 20.97 26.832 22.1667C26.832 23.3633 27.802 24.3333 28.9987 24.3333Z" fill="black"/>
</svg>
