<svg width="29" height="38" viewBox="0 0 29 38" fill="none" xmlns="http://www.w3.org/2000/svg">
<path fill-rule="evenodd" clip-rule="evenodd" d="M19.4209 3.69635C19.4209 2.32221 18.5918 1.23465 17.4583 0.831714C16.3498 0.437669 15.0072 0.737958 14.2017 1.85768L9.80066 7.31841L6.21978 11.6524L0.568455 18.6837C0.524411 18.7385 0.483866 18.7961 0.447077 18.856C-0.139934 19.8124 -0.0972004 20.942 0.277055 21.7956C0.661933 22.6735 1.55384 23.5655 2.89251 23.5655H8.742V34.2564C8.742 35.6656 9.60322 36.7225 10.7319 37.1363C11.8067 37.5303 13.0637 37.3327 14.0238 36.5505C14.116 36.4754 14.1999 36.3906 14.2741 36.2975L22.1254 26.4531L25.5352 22.2863L25.5582 22.2577L27.7789 19.4187C27.8177 19.3692 27.8537 19.3174 27.8866 19.2637C28.4737 18.3073 28.4309 17.1777 28.0567 16.3241C27.6718 15.4462 26.7799 14.5543 25.4411 14.5543H19.4209V3.69635Z" fill="#555555"/>
</svg>
