<svg viewBox="0 0 48 48" fill="none" xmlns="http://www.w3.org/2000/svg">
<rect width="48" height="48" rx="24" fill="#22232C"/>
<g clip-path="url(#clip0_11243_191357)">
<path d="M24 36C30.6274 36 36 30.6274 36 24C36 17.3726 30.6274 12 24 12C17.3726 12 12 17.3726 12 24C12 30.6274 17.3726 36 24 36Z" fill="#2E3148"/>
<path d="M24.002 30.9571C27.8475 30.9571 30.9649 27.8397 30.9649 23.9942C30.9649 20.1487 27.8475 17.0312 24.002 17.0312C20.1565 17.0312 17.0391 20.1487 17.0391 23.9942C17.0391 27.8397 20.1565 30.9571 24.002 30.9571Z" fill="#1B1E36"/>
<path d="M24.0254 13.5312C22.73 13.5312 21.6797 18.2295 21.6797 24.0251C21.6797 29.8207 22.73 34.519 24.0254 34.519C25.3207 34.519 26.371 29.8207 26.371 24.0251C26.371 18.2295 25.3207 13.5312 24.0254 13.5312ZM24.1873 33.9268C24.0392 34.1243 23.891 33.9761 23.891 33.9761C23.2945 33.2849 22.9962 32.0008 22.9962 32.0008C21.9528 28.6428 22.2012 21.4329 22.2012 21.4329C22.6915 15.709 23.5836 14.3569 23.8871 14.0567C23.9181 14.026 23.9589 14.0073 24.0024 14.0038C24.0458 14.0003 24.0891 14.0122 24.1246 14.0375C24.5651 14.3496 24.9345 15.6548 24.9345 15.6548C26.0253 19.7042 25.9265 23.5066 25.9265 23.5066C26.0253 26.8153 25.3799 30.519 25.3799 30.519C24.8831 33.3337 24.1873 33.9268 24.1873 33.9268Z" fill="#6F7390"/>
<path d="M33.1243 18.8059C32.4793 17.6819 27.8818 19.1091 22.8522 21.9931C17.8227 24.8771 14.2749 28.1264 14.9193 29.2499C15.5638 30.3734 20.1618 28.9468 25.1914 26.0627C30.2209 23.1787 33.7687 19.9294 33.1243 18.8059ZM15.5143 29.0957C15.2674 29.0646 15.3232 28.8617 15.3232 28.8617C15.6261 28.0005 16.5899 27.1027 16.5899 27.1027C18.9845 24.5264 25.3623 21.154 25.3623 21.154C30.5707 18.7308 32.1885 18.8331 32.5989 18.946C32.6411 18.9578 32.6777 18.9841 32.7023 19.0203C32.7269 19.0564 32.7379 19.1001 32.7333 19.1436C32.684 19.6812 31.7333 20.6508 31.7333 20.6508C28.7657 23.6133 25.4181 25.4202 25.4181 25.4202C22.5973 27.153 19.0636 28.4355 19.0636 28.4355C16.3747 29.4044 15.5144 29.0957 15.5144 29.0957H15.5143Z" fill="#6F7390"/>
<path d="M33.1027 29.2819C33.7526 28.1609 30.2138 24.8968 25.202 21.9911C20.1902 19.0855 15.5933 17.6407 14.944 18.7636C14.2947 19.8865 17.8329 23.1487 22.8476 26.0543C27.8622 28.96 32.4534 30.4049 33.1027 29.2819ZM15.3747 19.1967C15.2787 18.9691 15.4813 18.9143 15.4813 18.9143C16.3785 18.7449 17.6388 19.131 17.6388 19.131C21.0674 19.9117 27.181 23.7413 27.181 23.7413C31.8881 27.0351 32.61 28.4859 32.7182 28.8977C32.7292 28.9399 32.7249 28.9847 32.7062 29.0241C32.6874 29.0635 32.6553 29.095 32.6155 29.113C32.1247 29.3378 30.8101 29.0029 30.8101 29.0029C26.7583 27.9165 23.5178 25.926 23.5178 25.926C20.6063 24.3557 17.7273 21.9394 17.7273 21.9394C15.5397 20.0975 15.3753 19.1992 15.3753 19.1992L15.3747 19.1967Z" fill="#6F7390"/>
<path d="M24.0002 25.2347C24.682 25.2347 25.2347 24.682 25.2347 24.0002C25.2347 23.3184 24.682 22.7656 24.0002 22.7656C23.3184 22.7656 22.7656 23.3184 22.7656 24.0002C22.7656 24.682 23.3184 25.2347 24.0002 25.2347Z" fill="#B7B9C8"/>
<path d="M29.0598 19.9971C29.4553 19.9971 29.7759 19.6655 29.7759 19.2564C29.7759 18.8473 29.4553 18.5156 29.0598 18.5156C28.6643 18.5156 28.3438 18.8473 28.3438 19.2564C28.3438 19.6655 28.6643 19.9971 29.0598 19.9971Z" fill="#B7B9C8"/>
<path d="M17.3098 22.5127C17.7053 22.5127 18.0259 22.1811 18.0259 21.772C18.0259 21.3629 17.7053 21.0312 17.3098 21.0312C16.9143 21.0312 16.5938 21.3629 16.5938 21.772C16.5938 22.1811 16.9143 22.5127 17.3098 22.5127Z" fill="#B7B9C8"/>
<path d="M22.5443 31.6065C22.9398 31.6065 23.2604 31.2748 23.2604 30.8657C23.2604 30.4566 22.9398 30.125 22.5443 30.125C22.1487 30.125 21.8281 30.4566 21.8281 30.8657C21.8281 31.2748 22.1487 31.6065 22.5443 31.6065Z" fill="#B7B9C8"/>
</g>
<defs>
<clipPath id="clip0_11243_191357">
<rect width="24" height="24" fill="white" transform="translate(12 12)"/>
</clipPath>
</defs>
</svg>
