<svg viewBox="0 0 64 64" fill="none" xmlns="http://www.w3.org/2000/svg">
<rect width="64" height="64" rx="32" fill="url(#paint0_linear_11243_192427)" fill-opacity="0.2"/>
<g opacity="0.25">
<path d="M26.891 46.9468C26.7476 46.8201 26.6578 46.6436 26.6399 46.4531L25.214 31.2836H30.2885V48.2781C30.2885 48.9263 29.5238 49.2712 29.0379 48.8423L26.891 46.9468Z" fill="black"/>
<path d="M30.2885 30.9826V28.865L24.9432 28.4032L25.1857 30.9826H30.2885Z" fill="black"/>
<path d="M30.2885 28.5629L24.9146 28.0986L24.0747 19.1628C24.0332 18.7213 24.3805 18.3398 24.8239 18.3398H29.536C29.9516 18.3398 30.2885 18.6768 30.2885 19.0924V28.5629Z" fill="black"/>
<path d="M40.2068 30.9825H44.075C44.2829 30.9825 44.4513 30.8141 44.4513 30.6063V28.3872C44.4513 28.1649 44.2597 27.9911 44.0385 28.0127L40.4464 28.3635L40.2068 30.9825Z" fill="black"/>
<path d="M40.1414 28.3932L34.7887 28.9159V30.9825H39.9045L40.1414 28.3932Z" fill="black"/>
<path d="M34.4877 28.9453V30.9825H20.2346C20.0268 30.9825 19.8584 30.8141 19.8584 30.6063V28.3822C19.8584 28.1618 20.047 27.9885 20.2667 28.0073L32.934 29.0907C32.9569 29.0927 32.9798 29.0926 33.0026 29.0903L34.4877 28.9453Z" fill="black"/>
<path d="M36.077 48.7911C35.6044 49.2702 34.7887 48.9355 34.7887 48.2626V24.9171H40.4667L38.4915 46.1014C38.4753 46.2743 38.3999 46.4364 38.2779 46.56L36.077 48.7911Z" fill="black"/>
<path d="M40.4948 24.6161H34.7887V21.3715L40.8324 20.9945L40.4948 24.6161Z" fill="black"/>
<path d="M34.7887 19.0925V21.0699L40.8607 20.6912L41.0033 19.1624C41.0444 18.7211 40.6972 18.34 40.254 18.34H35.5413C35.1256 18.34 34.7887 18.6769 34.7887 19.0925Z" fill="black"/>
<path d="M30.2885 24.6161V21.381L24.2523 21.0839L24.5826 24.6161H30.2885Z" fill="black"/>
<path d="M30.5896 24.6161H45.8059C45.9721 24.6161 46.1069 24.4814 46.1069 24.3151V20.971C46.1069 20.7972 45.9602 20.6596 45.7868 20.6706L32.7192 21.5006L30.5896 21.3958V24.6161Z" fill="black"/>
<path d="M23.9238 21.0678L24.2843 24.6161H18.1877C18.0215 24.6161 17.8867 24.4814 17.8867 24.3151V21.0869C17.8867 20.9148 18.0307 20.7777 18.2025 20.7862L23.9238 21.0678Z" fill="black"/>
</g>
<path d="M26.8324 46.8804C26.689 46.7537 26.5992 46.5772 26.5813 46.3867L25.1554 31.2172H30.2299V48.2117C30.2299 48.8599 29.4652 49.2048 28.9793 48.7759L26.8324 46.8804Z" fill="url(#paint1_linear_11243_192427)"/>
<path d="M30.2299 30.9162V28.7986L24.8846 28.3368L25.1271 30.9162H30.2299Z" fill="url(#paint2_linear_11243_192427)"/>
<path d="M30.2299 28.4965L24.856 28.0322L24.0161 19.0964C23.9746 18.6549 24.3219 18.2734 24.7653 18.2734H29.4774C29.893 18.2734 30.2299 18.6104 30.2299 19.026V28.4965Z" fill="url(#paint3_linear_11243_192427)"/>
<path d="M40.1482 30.9161H44.0165C44.2243 30.9161 44.3927 30.7477 44.3927 30.5399V28.3208C44.3927 28.0985 44.2011 27.9247 43.9799 27.9463L40.3878 28.2971L40.1482 30.9161Z" fill="url(#paint4_linear_11243_192427)"/>
<path d="M40.0828 28.3268L34.7301 28.8495V30.9161H39.8459L40.0828 28.3268Z" fill="url(#paint5_linear_11243_192427)"/>
<path d="M34.4291 28.8789V30.9161H20.176C19.9682 30.9161 19.7998 30.7477 19.7998 30.5399V28.3158C19.7998 28.0954 19.9885 27.9221 20.2081 27.9409L32.8754 29.0243C32.8983 29.0263 32.9212 29.0261 32.9441 29.0239L34.4291 28.8789Z" fill="url(#paint6_linear_11243_192427)"/>
<path d="M36.0184 48.7247C35.5458 49.2037 34.7301 48.8691 34.7301 48.1962V24.8507H40.4081L38.4329 46.035C38.4167 46.2079 38.3413 46.3699 38.2193 46.4936L36.0184 48.7247Z" fill="url(#paint7_linear_11243_192427)"/>
<path d="M40.4362 24.5497H34.7301V21.3051L40.7738 20.9281L40.4362 24.5497Z" fill="url(#paint8_linear_11243_192427)"/>
<path d="M34.7301 19.0261V21.0035L40.8021 20.6248L40.9447 19.0959C40.9858 18.6547 40.6386 18.2735 40.1954 18.2735H35.4827C35.0671 18.2735 34.7301 18.6105 34.7301 19.0261Z" fill="url(#paint9_linear_11243_192427)"/>
<path d="M30.23 24.5497V21.3146L24.1937 21.0175L24.524 24.5497H30.23Z" fill="url(#paint10_linear_11243_192427)"/>
<path d="M30.531 24.5497H45.7473C45.9135 24.5497 46.0483 24.415 46.0483 24.2487V20.9046C46.0483 20.7308 45.9016 20.5932 45.7282 20.6042L32.6607 21.4342L30.531 21.3294V24.5497Z" fill="url(#paint11_linear_11243_192427)"/>
<path d="M23.8652 21.0014L24.2258 24.5497H18.1291C17.9629 24.5497 17.8281 24.415 17.8281 24.2487V21.0204C17.8281 20.8484 17.9721 20.7113 18.1439 20.7198L23.8652 21.0014Z" fill="url(#paint12_linear_11243_192427)"/>
<path d="M25.1317 28.056L24.856 28.0322L24.5287 24.5497H24.524L24.1937 21.0175L24.1967 21.0177L24.0161 19.0964C23.9746 18.6549 24.3219 18.2734 24.7653 18.2734H29.4774C29.7628 18.2734 30.011 18.4323 30.1386 18.6664C30.0318 18.6082 29.9094 18.5751 29.7792 18.5751H25.0671C24.6237 18.5751 24.2764 18.9566 24.3179 19.3981L24.4985 21.3194L24.4955 21.3192L24.8258 24.8514H24.8305L25.1317 28.056Z" fill="white"/>
<path d="M30.5318 24.5497H30.8328V21.6311L32.9625 21.7359L46.03 20.9059C46.0361 20.9055 46.0422 20.9053 46.0483 20.9053V20.9046C46.0483 20.7308 45.9016 20.5932 45.7282 20.6042L41.1066 20.8977L41.1039 20.9265L35.0319 21.3052V21.2836L32.6607 21.4342L30.5317 21.3294L30.5318 24.5497Z" fill="white"/>
<path d="M40.8565 18.6663C40.7501 18.6084 40.6278 18.5753 40.4972 18.5753H35.7845C35.3689 18.5753 35.0319 18.9122 35.0319 19.3278V20.9847L34.7301 21.0035V19.0261C34.7301 18.6105 35.0671 18.2735 35.4827 18.2735H40.1954C40.4826 18.2735 40.7295 18.4336 40.8565 18.6663Z" fill="white"/>
<path d="M34.7301 24.8514H40.408L40.38 25.1524H35.0319V48.4979C35.0319 48.6318 35.0642 48.7522 35.1196 48.8556C34.8951 48.733 34.7301 48.4988 34.7301 48.1962V31.2178H34.7309V29.1806L34.7301 29.1807V24.8514Z" fill="white"/>
<path d="M34.4291 29.2101V28.8789L32.9441 29.0239C32.9212 29.0261 32.8983 29.0263 32.8754 29.0243L24.8846 28.3368L24.885 28.3409L20.2081 27.9409C19.9885 27.9221 19.7998 28.0954 19.7998 28.3158V30.5399C19.7998 30.7244 19.9326 30.8778 20.1078 30.91C20.1037 30.8878 20.1016 30.8649 20.1016 30.8416V28.6175C20.1016 28.3971 20.2903 28.2238 20.5099 28.2426L25.1868 28.6426L25.1864 28.6385L33.1772 29.326C33.2001 29.328 33.223 29.3279 33.2459 29.3256L34.4291 29.2101Z" fill="white"/>
<path d="M25.1554 31.2178L26.5813 46.3867C26.5992 46.5772 26.689 46.7537 26.8324 46.8804L27.0035 47.0314C26.9365 46.9295 26.8947 46.8119 26.8831 46.6884L25.4572 31.5189H30.2299V31.2179L25.1554 31.2178Z" fill="white"/>
<path d="M40.1753 30.9161H40.4776L40.6896 28.5988L44.2817 28.248C44.3176 28.2445 44.3528 28.2462 44.3865 28.2523C44.352 28.0641 44.1778 27.927 43.9799 27.9463L40.417 28.2942L40.3244 29.287L40.1753 30.9161Z" fill="white"/>
<path d="M23.8945 21.2897L23.8652 21.0014L18.1439 20.7198C17.9721 20.7113 17.8281 20.8484 17.8281 21.0204V24.2487C17.8281 24.415 17.9629 24.5497 18.1291 24.5497H18.1299V21.3222C18.1299 21.1501 18.2739 21.0131 18.4457 21.0215L23.8945 21.2897Z" fill="white"/>
<defs>
<linearGradient id="paint0_linear_11243_192427" x1="64" y1="-1.90735e-06" x2="-5.72205e-06" y2="64" gradientUnits="userSpaceOnUse">
<stop stop-color="#9EFBCE"/>
<stop offset="1" stop-color="#4A50FF"/>
</linearGradient>
<linearGradient id="paint1_linear_11243_192427" x1="17.8281" y1="33.6196" x2="46.0483" y2="33.6196" gradientUnits="userSpaceOnUse">
<stop stop-color="#5433FF"/>
<stop offset="0.5" stop-color="#20BDFF"/>
<stop offset="1" stop-color="#A5FECB"/>
</linearGradient>
<linearGradient id="paint2_linear_11243_192427" x1="17.8281" y1="33.6196" x2="46.0483" y2="33.6196" gradientUnits="userSpaceOnUse">
<stop stop-color="#5433FF"/>
<stop offset="0.5" stop-color="#20BDFF"/>
<stop offset="1" stop-color="#A5FECB"/>
</linearGradient>
<linearGradient id="paint3_linear_11243_192427" x1="17.8281" y1="33.6196" x2="46.0483" y2="33.6196" gradientUnits="userSpaceOnUse">
<stop stop-color="#5433FF"/>
<stop offset="0.5" stop-color="#20BDFF"/>
<stop offset="1" stop-color="#A5FECB"/>
</linearGradient>
<linearGradient id="paint4_linear_11243_192427" x1="17.8281" y1="33.6196" x2="46.0483" y2="33.6196" gradientUnits="userSpaceOnUse">
<stop stop-color="#5433FF"/>
<stop offset="0.5" stop-color="#20BDFF"/>
<stop offset="1" stop-color="#A5FECB"/>
</linearGradient>
<linearGradient id="paint5_linear_11243_192427" x1="17.8281" y1="33.6196" x2="46.0483" y2="33.6196" gradientUnits="userSpaceOnUse">
<stop stop-color="#5433FF"/>
<stop offset="0.5" stop-color="#20BDFF"/>
<stop offset="1" stop-color="#A5FECB"/>
</linearGradient>
<linearGradient id="paint6_linear_11243_192427" x1="17.8281" y1="33.6196" x2="46.0483" y2="33.6196" gradientUnits="userSpaceOnUse">
<stop stop-color="#5433FF"/>
<stop offset="0.5" stop-color="#20BDFF"/>
<stop offset="1" stop-color="#A5FECB"/>
</linearGradient>
<linearGradient id="paint7_linear_11243_192427" x1="17.8281" y1="33.6196" x2="46.0483" y2="33.6196" gradientUnits="userSpaceOnUse">
<stop stop-color="#5433FF"/>
<stop offset="0.5" stop-color="#20BDFF"/>
<stop offset="1" stop-color="#A5FECB"/>
</linearGradient>
<linearGradient id="paint8_linear_11243_192427" x1="17.8281" y1="33.6196" x2="46.0483" y2="33.6196" gradientUnits="userSpaceOnUse">
<stop stop-color="#5433FF"/>
<stop offset="0.5" stop-color="#20BDFF"/>
<stop offset="1" stop-color="#A5FECB"/>
</linearGradient>
<linearGradient id="paint9_linear_11243_192427" x1="17.8281" y1="33.6196" x2="46.0483" y2="33.6196" gradientUnits="userSpaceOnUse">
<stop stop-color="#5433FF"/>
<stop offset="0.5" stop-color="#20BDFF"/>
<stop offset="1" stop-color="#A5FECB"/>
</linearGradient>
<linearGradient id="paint10_linear_11243_192427" x1="17.8281" y1="33.6196" x2="46.0483" y2="33.6196" gradientUnits="userSpaceOnUse">
<stop stop-color="#5433FF"/>
<stop offset="0.5" stop-color="#20BDFF"/>
<stop offset="1" stop-color="#A5FECB"/>
</linearGradient>
<linearGradient id="paint11_linear_11243_192427" x1="17.8281" y1="33.6196" x2="46.0483" y2="33.6196" gradientUnits="userSpaceOnUse">
<stop stop-color="#5433FF"/>
<stop offset="0.5" stop-color="#20BDFF"/>
<stop offset="1" stop-color="#A5FECB"/>
</linearGradient>
<linearGradient id="paint12_linear_11243_192427" x1="17.8281" y1="33.6196" x2="46.0483" y2="33.6196" gradientUnits="userSpaceOnUse">
<stop stop-color="#5433FF"/>
<stop offset="0.5" stop-color="#20BDFF"/>
<stop offset="1" stop-color="#A5FECB"/>
</linearGradient>
</defs>
</svg>
