<svg width="24" height="24" viewBox="0 0 24 24" fill="none" xmlns="http://www.w3.org/2000/svg">
<g id="Frame">
<path id="Subtract" fill-rule="evenodd" clip-rule="evenodd" d="M22 12C22 17.5228 17.5228 22 12 22C6.47715 22 2 17.5228 2 12C2 6.47715 6.47715 2 12 2C17.5228 2 22 6.47715 22 12ZM13.0909 8C13.0909 7.39751 12.6025 6.90909 12 6.90909C11.3975 6.90909 10.9091 7.39751 10.9091 8V10.9091H8C7.39751 10.9091 6.90909 11.3975 6.90909 12C6.90909 12.6025 7.39751 13.0909 8 13.0909H10.9091V16C10.9091 16.6025 11.3975 17.0909 12 17.0909C12.6025 17.0909 13.0909 16.6025 13.0909 16V13.0909H16C16.6025 13.0909 17.0909 12.6025 17.0909 12C17.0909 11.3975 16.6025 10.9091 16 10.9091H13.0909V8Z" fill="white"/>
</g>
</svg>
