<svg viewBox="0 0 32 32" fill="none" xmlns="http://www.w3.org/2000/svg">
<rect width="32" height="32" rx="16" fill="#222222"/>
<path fill-rule="evenodd" clip-rule="evenodd" d="M16.2999 10.3C16.2999 10.1343 16.1656 10 15.9999 10C15.8342 10 15.6999 10.1343 15.6999 10.3V14.7C15.6999 15.2523 15.2522 15.7 14.6999 15.7H10.3C10.1343 15.7 10 15.8343 10 16C10 16.1657 10.1343 16.3 10.3 16.3H14.6999C15.2522 16.3 15.6999 16.7477 15.6999 17.3V21.7C15.6999 21.8657 15.8342 22 15.9999 22C16.1656 22 16.2999 21.8657 16.2999 21.7V17.3C16.2999 16.7477 16.7476 16.3 17.2999 16.3H21.7C21.8657 16.3 22 16.1657 22 16C22 15.8343 21.8657 15.7 21.7 15.7H17.2999C16.7476 15.7 16.2999 15.2523 16.2999 14.7V10.3Z" fill="white"/>
<path d="M16.1999 14.7V10.3H15.1999V14.7H16.1999ZM10.3 16.2H14.6999V15.2H10.3V16.2ZM14.6999 15.8H10.3V16.8H14.6999V15.8ZM16.1999 21.7V17.3H15.1999V21.7H16.1999ZM15.7999 17.3V21.7H16.7999V17.3H15.7999ZM21.7 15.8H17.2999V16.8H21.7V15.8ZM17.2999 16.2H21.7V15.2H17.2999V16.2ZM15.7999 10.3V14.7H16.7999V10.3H15.7999ZM17.2999 15.2C17.0237 15.2 16.7999 14.9762 16.7999 14.7H15.7999C15.7999 15.5285 16.4714 16.2 17.2999 16.2V15.2ZM22.5 16C22.5 15.5582 22.1418 15.2 21.7 15.2V16.2C21.5895 16.2 21.5 16.1105 21.5 16H22.5ZM21.7 16.8C22.1418 16.8 22.5 16.4419 22.5 16H21.5C21.5 15.8896 21.5895 15.8 21.7 15.8V16.8ZM16.7999 17.3C16.7999 17.0239 17.0237 16.8 17.2999 16.8V15.8C16.4714 15.8 15.7999 16.4716 15.7999 17.3H16.7999ZM15.9999 22.5C16.4417 22.5 16.7999 22.1418 16.7999 21.7H15.7999C15.7999 21.5895 15.8894 21.5 15.9999 21.5V22.5ZM15.1999 21.7C15.1999 22.1418 15.558 22.5 15.9999 22.5V21.5C16.1103 21.5 16.1999 21.5895 16.1999 21.7H15.1999ZM14.6999 16.8C14.976 16.8 15.1999 17.0239 15.1999 17.3H16.1999C16.1999 16.4716 15.5283 15.8 14.6999 15.8V16.8ZM9.5 16C9.5 16.4419 9.85817 16.8 10.3 16.8V15.8C10.4105 15.8 10.5 15.8896 10.5 16H9.5ZM10.3 15.2C9.85817 15.2 9.5 15.5582 9.5 16H10.5C10.5 16.1105 10.4105 16.2 10.3 16.2V15.2ZM15.1999 14.7C15.1999 14.9762 14.976 15.2 14.6999 15.2V16.2C15.5283 16.2 16.1999 15.5285 16.1999 14.7H15.1999ZM15.9999 10.5C15.8894 10.5 15.7999 10.4105 15.7999 10.3H16.7999C16.7999 9.85817 16.4417 9.5 15.9999 9.5V10.5ZM15.9999 9.5C15.558 9.5 15.1999 9.85817 15.1999 10.3H16.1999C16.1999 10.4105 16.1103 10.5 15.9999 10.5V9.5Z" fill="white"/>
</svg>
