<svg id="svg" version="1.1" xmlns="http://www.w3.org/2000/svg" xmlns:xlink="http://www.w3.org/1999/xlink" width="400" height="376.47058823529414" viewBox="0, 0, 400,376.47058823529414"><g id="svgg"><path id="path0" d="M166.862 76.940 C 165.337 77.717,164.983 78.934,164.976 83.427 C 164.970 87.530,164.044 98.804,163.663 99.420 C 163.554 99.596,163.213 102.018,162.904 104.803 C 162.595 107.588,162.108 110.531,161.821 111.345 C 161.534 112.158,161.175 113.921,161.022 115.263 C 160.870 116.605,160.497 118.296,160.194 119.021 C 159.890 119.746,159.418 121.525,159.144 122.976 C 158.871 124.426,158.290 126.582,157.855 127.768 C 157.419 128.954,157.062 130.276,157.062 130.705 C 157.062 131.134,156.638 132.281,156.121 133.253 C 155.603 134.226,155.179 135.388,155.179 135.835 C 155.179 136.282,154.757 137.555,154.241 138.663 C 153.725 139.771,153.300 141.017,153.296 141.431 C 153.292 141.846,152.866 143.091,152.350 144.199 C 151.835 145.307,151.411 146.494,151.410 146.836 C 151.409 147.178,151.136 147.966,150.805 148.588 C 150.473 149.209,149.892 150.565,149.514 151.601 C 147.075 158.283,140.452 171.837,138.269 174.612 C 137.833 175.166,137.476 175.782,137.476 175.980 C 137.476 176.178,137.124 176.791,136.693 177.342 C 135.592 178.749,133.333 182.399,133.333 182.771 C 133.333 182.942,133.017 183.541,132.630 184.102 C 132.243 184.663,130.421 187.409,128.581 190.204 C 126.741 192.999,124.473 196.251,123.540 197.432 C 122.608 198.613,121.422 200.130,120.904 200.802 C 109.823 215.193,92.893 232.189,79.119 242.750 C 75.812 245.285,75.372 247.745,77.717 250.592 C 78.165 251.136,78.921 252.137,79.397 252.815 C 79.874 253.494,81.060 255.138,82.034 256.469 C 86.588 262.696,94.119 273.715,94.666 274.953 C 94.803 275.264,95.507 276.281,96.230 277.213 C 96.953 278.145,97.842 279.331,98.206 279.849 C 98.570 280.367,99.813 282.062,100.969 283.616 C 103.315 286.768,106.664 291.559,108.098 293.812 C 114.611 304.053,115.680 304.867,119.330 302.374 C 123.072 299.817,130.888 293.458,134.326 290.173 C 135.391 289.156,138.236 286.544,140.650 284.369 C 148.512 277.285,156.705 268.941,161.483 263.150 C 162.195 262.288,163.997 260.311,165.488 258.757 C 168.290 255.837,170.987 252.538,174.215 248.082 C 175.242 246.664,176.516 244.969,177.046 244.315 C 179.895 240.798,189.099 227.911,189.999 226.177 C 190.322 225.556,191.082 224.284,191.689 223.352 C 192.296 222.420,194.088 219.411,195.672 216.667 L 198.553 211.676 199.994 211.676 C 201.547 211.676,201.480 211.599,204.293 216.652 C 204.837 217.629,206.211 219.917,207.346 221.737 C 208.482 223.558,209.752 225.640,210.169 226.365 C 211.635 228.916,219.443 239.736,226.557 249.076 C 228.009 250.983,229.474 252.974,229.811 253.501 C 230.149 254.028,231.948 256.062,233.810 258.021 C 235.672 259.979,237.784 262.288,238.503 263.150 C 243.539 269.189,251.504 277.298,259.346 284.369 C 261.759 286.544,264.639 289.171,265.748 290.207 C 273.326 297.289,281.746 303.557,283.695 303.569 C 285.082 303.578,288.045 300.046,292.105 293.544 C 293.385 291.495,296.831 286.550,299.021 283.619 C 303.216 278.006,304.530 276.172,305.650 274.370 C 308.092 270.437,313.788 262.169,317.979 256.473 C 318.959 255.140,320.146 253.494,320.615 252.815 C 321.085 252.137,321.829 251.144,322.269 250.609 C 324.632 247.737,324.124 245.170,320.678 242.569 C 307.709 232.780,289.689 214.677,279.096 200.797 C 278.578 200.118,277.455 198.687,276.600 197.616 C 273.634 193.899,269.077 187.069,267.186 183.505 C 266.480 182.173,265.608 180.696,265.249 180.221 C 264.889 179.747,264.256 178.796,263.842 178.108 C 263.427 177.420,262.750 176.308,262.335 175.636 C 258.777 169.871,253.590 159.583,251.451 154.049 C 250.690 152.081,249.808 149.948,249.490 149.309 C 249.173 148.671,248.771 147.569,248.598 146.861 C 248.424 146.153,247.946 144.727,247.536 143.691 C 246.744 141.691,246.214 140.217,245.305 137.476 C 244.659 135.531,244.196 134.150,243.475 132.015 C 242.070 127.855,241.052 124.312,240.824 122.787 C 240.685 121.855,240.278 120.330,239.920 119.397 C 239.563 118.465,239.151 116.685,239.006 115.443 C 238.860 114.200,238.496 112.335,238.195 111.299 C 237.894 110.264,237.477 107.806,237.267 105.838 C 237.057 103.870,236.644 100.989,236.348 99.435 C 235.809 96.601,235.109 87.790,234.934 81.649 C 234.852 78.803,234.725 78.249,233.982 77.506 L 233.124 76.648 200.460 76.556 C 174.735 76.483,167.598 76.565,166.862 76.940 " stroke="none" fill="#fc855d" fill-rule="evenodd"></path><path id="path1" d="M0.000 188.324 L 0.000 376.648 200.000 376.648 L 400.000 376.648 400.000 188.324 L 400.000 0.000 200.000 0.000 L 0.000 0.000 0.000 188.324 M234.523 75.545 C 236.929 77.468,237.286 78.584,237.290 84.181 C 237.294 89.345,237.429 90.811,238.958 102.260 C 240.103 110.837,242.955 124.717,244.677 130.092 C 245.001 131.105,245.493 132.800,245.769 133.858 C 246.046 134.916,246.537 136.290,246.862 136.911 C 247.187 137.533,247.454 138.428,247.455 138.901 C 247.457 139.374,247.881 140.598,248.399 141.620 C 248.917 142.642,249.341 143.674,249.341 143.914 C 249.341 144.154,249.754 145.304,250.259 146.469 C 250.765 147.634,251.716 149.859,252.372 151.412 C 255.865 159.674,264.074 175.901,266.629 179.594 C 267.012 180.149,268.183 181.959,269.229 183.616 C 270.276 185.273,271.491 187.137,271.929 187.759 C 272.368 188.380,274.282 191.092,276.183 193.785 C 283.995 204.853,299.383 222.033,309.228 230.679 C 313.624 234.539,319.099 239.151,321.204 240.767 C 327.199 245.369,327.178 246.403,320.904 255.391 C 319.557 257.320,317.225 260.688,315.721 262.876 C 312.363 267.760,311.644 268.790,309.260 272.128 C 306.812 275.556,303.197 280.776,296.996 289.831 C 293.462 294.992,291.726 297.472,290.405 299.247 C 289.789 300.075,288.876 301.354,288.378 302.087 C 284.921 307.177,283.261 307.091,276.420 301.467 C 259.227 287.334,243.641 272.390,233.642 260.452 C 230.866 257.137,227.947 253.663,227.156 252.731 C 221.889 246.524,207.533 226.422,207.533 225.253 C 207.533 225.087,207.287 224.747,206.987 224.498 C 206.508 224.101,205.100 221.831,203.472 218.833 C 203.191 218.316,202.739 217.638,202.468 217.327 C 202.196 217.015,201.695 216.210,201.354 215.537 C 200.510 213.870,199.471 213.938,198.476 215.725 C 197.128 218.147,195.720 220.488,194.350 222.586 C 193.625 223.697,192.863 224.878,192.655 225.211 C 192.448 225.544,191.940 226.322,191.525 226.940 C 191.111 227.558,190.603 228.356,190.395 228.713 C 188.039 232.779,174.018 251.879,172.350 253.296 C 172.106 253.503,170.739 255.113,169.313 256.874 C 164.694 262.577,162.996 264.527,159.149 268.545 C 151.611 276.418,140.210 287.519,136.196 290.897 C 133.938 292.796,130.887 295.372,129.416 296.620 C 117.168 307.017,116.710 307.230,113.355 304.092 C 112.328 303.131,111.488 302.135,111.488 301.878 C 111.488 301.621,111.210 301.180,110.872 300.899 C 110.533 300.618,109.865 299.792,109.388 299.064 C 108.911 298.336,107.335 296.045,105.887 293.974 C 104.438 291.902,101.804 288.089,100.035 285.499 C 98.265 282.910,95.808 279.350,94.574 277.589 C 93.340 275.829,91.205 272.778,89.828 270.810 C 88.452 268.842,86.777 266.469,86.107 265.537 C 85.436 264.605,83.221 261.384,81.184 258.380 C 79.148 255.377,77.195 252.580,76.845 252.166 C 72.804 247.386,73.343 245.232,79.913 239.921 C 95.696 227.162,112.876 209.216,123.177 194.727 C 126.799 189.634,131.855 182.184,132.581 180.872 C 132.892 180.309,133.493 179.341,133.917 178.719 C 134.341 178.098,134.893 177.166,135.144 176.648 C 135.394 176.130,136.625 173.842,137.880 171.563 C 140.775 166.305,145.282 156.991,147.632 151.412 C 148.286 149.859,149.235 147.634,149.741 146.469 C 150.246 145.304,150.659 144.176,150.659 143.964 C 150.659 143.751,151.081 142.671,151.597 141.563 C 152.113 140.455,152.537 139.166,152.539 138.699 C 152.541 138.232,152.881 137.218,153.295 136.446 C 153.709 135.674,154.143 134.446,154.261 133.717 C 154.378 132.988,154.656 131.968,154.878 131.450 C 156.264 128.222,159.892 111.077,161.054 102.260 C 162.580 90.683,162.706 89.316,162.709 84.263 C 162.712 78.745,163.074 77.482,165.118 75.847 C 167.163 74.213,166.003 74.262,200.624 74.327 L 233.075 74.388 234.523 75.545 " stroke="none" fill="#fcfbfb" fill-rule="evenodd"></path><path id="path2" d="M167.323 74.516 C 163.879 75.524,162.713 77.989,162.709 84.263 C 162.706 89.316,162.580 90.683,161.054 102.260 C 159.892 111.077,156.264 128.222,154.878 131.450 C 154.656 131.968,154.378 132.988,154.261 133.717 C 154.143 134.446,153.709 135.674,153.295 136.446 C 152.881 137.218,152.541 138.232,152.539 138.699 C 152.537 139.166,152.113 140.455,151.597 141.563 C 151.081 142.671,150.659 143.751,150.659 143.964 C 150.659 144.176,150.246 145.304,149.741 146.469 C 149.235 147.634,148.286 149.859,147.632 151.412 C 145.282 156.991,140.775 166.305,137.880 171.563 C 136.625 173.842,135.394 176.130,135.144 176.648 C 134.893 177.166,134.341 178.098,133.917 178.719 C 133.493 179.341,132.892 180.309,132.581 180.872 C 123.446 197.381,99.951 223.722,79.913 239.921 C 73.343 245.232,72.804 247.386,76.845 252.166 C 77.195 252.580,79.148 255.377,81.184 258.380 C 83.221 261.384,85.436 264.605,86.107 265.537 C 86.777 266.469,88.452 268.842,89.828 270.810 C 91.205 272.778,93.340 275.829,94.574 277.589 C 95.808 279.350,98.265 282.910,100.035 285.499 C 101.804 288.089,104.438 291.902,105.887 293.974 C 107.335 296.045,108.911 298.336,109.388 299.064 C 109.865 299.792,110.533 300.618,110.872 300.899 C 111.210 301.180,111.488 301.621,111.488 301.878 C 111.488 302.135,112.328 303.131,113.355 304.092 C 116.710 307.230,117.168 307.017,129.416 296.620 C 130.887 295.372,133.938 292.796,136.196 290.897 C 140.210 287.519,151.611 276.418,159.149 268.545 C 162.996 264.527,164.694 262.577,169.313 256.874 C 170.739 255.113,172.106 253.503,172.350 253.296 C 174.018 251.879,188.039 232.779,190.395 228.713 C 190.603 228.356,191.111 227.558,191.525 226.940 C 191.940 226.322,192.448 225.544,192.655 225.211 C 192.863 224.878,193.625 223.697,194.350 222.586 C 195.720 220.488,197.128 218.147,198.476 215.725 C 199.471 213.938,200.510 213.870,201.354 215.537 C 201.695 216.210,202.196 217.015,202.468 217.327 C 202.739 217.638,203.191 218.316,203.472 218.833 C 205.100 221.831,206.508 224.101,206.987 224.498 C 207.287 224.747,207.533 225.087,207.533 225.253 C 207.533 226.422,221.889 246.524,227.156 252.731 C 227.947 253.663,230.866 257.137,233.642 260.452 C 243.641 272.390,259.227 287.334,276.420 301.467 C 283.261 307.091,284.921 307.177,288.378 302.087 C 288.876 301.354,289.789 300.075,290.405 299.247 C 291.726 297.472,293.462 294.992,296.996 289.831 C 303.197 280.776,306.812 275.556,309.260 272.128 C 311.644 268.790,312.363 267.760,315.721 262.876 C 317.225 260.688,319.557 257.320,320.904 255.391 C 327.178 246.403,327.199 245.369,321.204 240.767 C 319.099 239.151,313.624 234.539,309.228 230.679 C 299.383 222.033,283.995 204.853,276.183 193.785 C 274.282 191.092,272.368 188.380,271.929 187.759 C 271.491 187.137,270.276 185.273,269.229 183.616 C 268.183 181.959,267.012 180.149,266.629 179.594 C 264.074 175.901,255.865 159.674,252.372 151.412 C 251.716 149.859,250.765 147.634,250.259 146.469 C 249.754 145.304,249.341 144.154,249.341 143.914 C 249.341 143.674,248.917 142.642,248.399 141.620 C 247.881 140.598,247.457 139.374,247.455 138.901 C 247.454 138.428,247.187 137.533,246.862 136.911 C 246.537 136.290,246.046 134.916,245.769 133.858 C 245.493 132.800,245.001 131.105,244.677 130.092 C 242.955 124.717,240.103 110.837,238.958 102.260 C 237.429 90.811,237.294 89.345,237.290 84.181 C 237.286 78.584,236.929 77.468,234.523 75.545 L 233.075 74.388 200.624 74.327 C 182.776 74.294,167.791 74.379,167.323 74.516 M233.967 76.263 C 235.769 77.488,236.044 78.523,236.323 85.146 C 236.580 91.267,237.699 101.988,238.621 107.156 C 238.953 109.021,239.379 111.478,239.566 112.618 C 240.098 115.841,241.426 121.544,242.417 124.859 C 242.912 126.516,243.317 128.165,243.316 128.522 C 243.315 128.880,243.738 130.299,244.256 131.675 C 244.774 133.051,245.199 134.453,245.201 134.791 C 245.203 135.128,245.622 136.252,246.131 137.288 C 246.641 138.324,247.066 139.510,247.077 139.925 C 247.089 140.339,247.449 141.441,247.878 142.373 C 248.307 143.305,248.882 144.746,249.155 145.574 C 251.328 152.171,260.993 172.382,263.982 176.581 C 264.423 177.200,264.788 177.849,264.794 178.024 C 264.800 178.199,265.308 179.009,265.924 179.822 C 266.540 180.636,267.043 181.505,267.043 181.754 C 267.043 182.002,267.292 182.412,267.596 182.664 C 267.900 182.916,268.750 184.166,269.484 185.441 C 270.219 186.716,271.792 189.131,272.981 190.809 C 274.169 192.486,275.722 194.690,276.432 195.705 C 284.507 207.252,302.951 226.864,314.878 236.584 C 326.582 246.122,326.606 246.180,321.657 252.978 C 320.725 254.259,319.150 256.464,318.156 257.879 C 312.645 265.731,310.366 269.005,308.761 271.375 C 307.780 272.825,306.472 274.689,305.856 275.518 C 305.239 276.347,304.384 277.618,303.955 278.343 C 303.526 279.068,302.666 280.339,302.045 281.168 C 300.854 282.756,300.124 283.784,297.365 287.759 C 296.431 289.105,294.897 291.309,293.958 292.655 C 293.019 294.002,291.226 296.573,289.974 298.370 C 285.687 304.521,284.138 305.614,281.614 304.270 C 278.936 302.845,264.143 290.332,255.893 282.514 C 253.800 280.531,251.342 278.204,250.432 277.345 C 245.142 272.350,230.550 256.002,225.604 249.529 C 224.812 248.493,223.260 246.460,222.153 245.009 C 219.918 242.080,214.464 234.461,212.311 231.262 C 208.550 225.673,206.332 222.263,205.689 221.085 C 205.357 220.475,204.492 218.998,203.767 217.803 C 203.041 216.608,202.192 215.122,201.880 214.501 C 201.237 213.224,199.039 212.861,198.458 213.936 C 194.509 221.241,187.859 231.402,180.343 241.620 C 174.652 249.355,171.892 252.772,163.569 262.387 C 159.887 266.640,152.116 274.944,149.568 277.346 C 148.658 278.205,146.200 280.531,144.107 282.514 C 136.501 289.722,123.198 301.087,119.427 303.599 C 116.516 305.538,114.460 304.879,111.931 301.199 C 111.336 300.332,109.577 297.759,108.022 295.480 C 106.468 293.202,104.657 290.574,103.997 289.642 C 103.337 288.710,102.381 287.354,101.871 286.629 C 101.361 285.904,100.519 284.718,100.000 283.992 C 98.161 281.426,96.975 279.732,96.045 278.343 C 95.527 277.570,94.643 276.279,94.081 275.474 C 92.012 272.514,86.965 265.233,84.191 261.205 C 82.621 258.927,81.020 256.638,80.632 256.121 C 73.540 246.639,73.512 246.217,79.657 241.201 C 96.454 227.490,112.794 210.628,123.049 196.422 C 125.667 192.795,133.333 181.308,133.333 181.012 C 133.333 180.863,133.757 180.185,134.275 179.506 C 134.793 178.827,135.217 178.099,135.217 177.887 C 135.217 177.676,135.585 177.035,136.035 176.462 C 136.485 175.890,137.137 174.893,137.484 174.246 C 137.831 173.599,138.840 171.714,139.726 170.056 C 140.613 168.399,141.544 166.704,141.795 166.290 C 142.250 165.540,146.681 155.773,148.032 152.542 C 148.421 151.610,149.257 149.633,149.888 148.148 C 150.519 146.663,151.036 145.282,151.036 145.078 C 151.036 144.874,151.458 143.801,151.974 142.693 C 152.490 141.585,152.915 140.339,152.919 139.925 C 152.923 139.510,153.343 138.324,153.852 137.288 C 154.362 136.252,154.784 135.018,154.790 134.546 C 154.797 134.074,155.226 132.681,155.744 131.450 C 156.262 130.220,156.685 128.911,156.684 128.542 C 156.683 128.174,157.084 126.516,157.576 124.859 C 160.606 114.648,163.126 98.244,163.677 85.146 C 163.956 78.523,164.231 77.488,166.033 76.263 L 167.407 75.330 200.000 75.330 L 232.593 75.330 233.967 76.263 " stroke="none" fill="#fccab9" fill-rule="evenodd"></path><path id="path3" d="M166.644 75.915 C 165.938 76.481,165.941 76.488,166.736 76.104 C 167.883 75.549,232.117 75.549,233.264 76.104 C 234.059 76.488,234.062 76.481,233.356 75.915 C 232.243 75.024,167.757 75.024,166.644 75.915 M164.698 77.477 C 164.175 78.274,164.020 79.357,163.982 82.468 L 163.933 86.441 164.170 82.468 C 164.340 79.610,164.594 78.210,165.075 77.478 C 165.442 76.918,165.658 76.460,165.554 76.460 C 165.451 76.460,165.065 76.917,164.698 77.477 M234.895 77.431 C 235.415 78.225,235.649 79.509,235.812 82.468 L 236.030 86.441 236.094 82.945 C 236.158 79.463,235.655 77.268,234.651 76.647 C 234.401 76.493,234.511 76.846,234.895 77.431 M163.533 88.512 C 163.492 89.652,163.381 91.516,163.286 92.655 L 163.113 94.727 163.491 92.655 C 163.698 91.516,163.810 89.652,163.738 88.512 L 163.608 86.441 163.533 88.512 M236.186 88.920 C 236.201 90.250,236.352 92.100,236.520 93.032 C 236.719 94.138,236.757 93.354,236.628 90.772 C 236.406 86.333,236.144 85.232,236.186 88.920 M162.814 97.175 C 162.814 98.107,162.888 98.489,162.978 98.023 C 163.067 97.556,163.067 96.794,162.978 96.328 C 162.888 95.862,162.814 96.243,162.814 97.175 M237.014 97.175 C 237.014 98.107,237.088 98.489,237.177 98.023 C 237.267 97.556,237.267 96.794,237.177 96.328 C 237.088 95.862,237.014 96.243,237.014 97.175 M162.430 100.377 C 162.434 101.205,162.512 101.500,162.602 101.031 C 162.692 100.563,162.688 99.885,162.594 99.525 C 162.500 99.165,162.426 99.548,162.430 100.377 M237.383 100.377 C 237.387 101.205,237.464 101.500,237.555 101.031 C 237.645 100.563,237.641 99.885,237.547 99.525 C 237.453 99.165,237.379 99.548,237.383 100.377 M161.620 105.687 C 161.370 107.474,161.240 109.012,161.332 109.103 C 161.423 109.195,161.705 107.810,161.959 106.026 C 162.212 104.243,162.341 102.705,162.247 102.611 C 162.152 102.516,161.870 103.900,161.620 105.687 M237.911 104.643 C 238.027 105.954,238.267 107.479,238.445 108.033 C 238.822 109.210,238.516 106.191,238.013 103.766 C 237.775 102.624,237.751 102.835,237.911 104.643 M159.814 115.819 C 159.566 117.062,159.271 118.503,159.159 119.021 C 159.046 119.539,159.298 118.945,159.718 117.702 C 160.138 116.460,160.432 115.019,160.373 114.501 C 160.304 113.908,160.097 114.396,159.814 115.819 M239.609 114.501 C 239.606 115.414,240.575 118.836,240.623 118.079 C 240.635 117.872,240.413 116.770,240.129 115.631 C 239.845 114.492,239.611 113.983,239.609 114.501 M157.834 124.137 C 156.990 127.000,156.988 127.280,157.829 125.272 C 158.254 124.256,158.552 123.168,158.491 122.855 C 158.430 122.542,158.135 123.119,157.834 124.137 M241.465 122.976 C 241.473 123.737,242.888 127.438,242.905 126.742 C 242.909 126.535,242.585 125.433,242.185 124.294 C 241.784 123.154,241.460 122.561,241.465 122.976 M155.925 130.953 C 155.078 133.152,155.080 133.267,155.939 131.706 C 156.374 130.915,156.674 130.098,156.605 129.890 C 156.536 129.683,156.230 130.161,155.925 130.953 M152.100 142.390 C 151.752 143.209,151.536 143.879,151.619 143.879 C 151.895 143.879,152.967 141.574,152.848 141.235 C 152.783 141.051,152.447 141.571,152.100 142.390 M247.111 141.167 C 247.078 141.712,248.123 143.879,248.419 143.879 C 248.522 143.879,248.372 143.413,248.084 142.844 C 247.796 142.274,247.466 141.554,247.351 141.243 C 247.209 140.863,247.131 140.839,247.111 141.167 M149.785 148.228 C 148.900 150.084,149.025 150.400,149.950 148.646 C 150.370 147.850,150.647 147.132,150.566 147.050 C 150.484 146.969,150.133 147.499,149.785 148.228 M249.372 147.081 C 249.372 147.288,249.697 148.051,250.094 148.776 C 250.491 149.501,250.816 149.925,250.816 149.718 C 250.816 149.510,250.491 148.748,250.094 148.023 C 249.697 147.298,249.372 146.874,249.372 147.081 M148.211 152.066 C 147.112 154.647,147.114 154.847,148.218 152.796 C 148.756 151.796,149.144 150.825,149.080 150.637 C 149.016 150.449,148.625 151.092,148.211 152.066 M250.876 150.659 C 250.874 151.202,251.937 153.358,251.964 152.868 C 251.971 152.737,251.730 152.059,251.427 151.362 C 251.125 150.664,250.876 150.348,250.876 150.659 M252.004 153.484 C 252.004 153.691,252.246 154.284,252.542 154.802 C 252.838 155.320,253.081 155.574,253.081 155.367 C 253.081 155.160,252.838 154.567,252.542 154.049 C 252.246 153.531,252.004 153.277,252.004 153.484 M145.834 157.645 C 144.699 159.981,144.826 160.308,145.995 158.061 C 146.517 157.057,146.880 156.171,146.801 156.092 C 146.723 156.013,146.287 156.712,145.834 157.645 M253.141 156.121 C 253.141 156.328,253.550 157.260,254.049 158.192 C 254.548 159.124,254.957 159.718,254.957 159.510 C 254.957 159.303,254.548 158.371,254.049 157.439 C 253.550 156.507,253.141 155.913,253.141 156.121 M143.764 162.166 C 142.382 164.985,142.509 165.319,143.923 162.580 C 144.548 161.368,144.997 160.314,144.919 160.236 C 144.842 160.159,144.323 161.028,143.764 162.166 M254.991 160.220 C 254.991 160.624,256.111 162.712,256.328 162.712 C 256.432 162.712,256.236 162.161,255.894 161.488 C 255.195 160.113,254.991 159.826,254.991 160.220 M256.874 163.982 C 256.874 164.389,258.370 167.232,258.584 167.232 C 258.688 167.232,258.409 166.511,257.965 165.631 C 257.092 163.899,256.874 163.570,256.874 163.982 M141.086 167.598 C 140.321 169.054,139.778 170.245,139.879 170.245 C 140.128 170.245,142.770 165.243,142.607 165.080 C 142.536 165.009,141.851 166.142,141.086 167.598 M258.757 167.753 C 258.757 168.157,259.878 170.245,260.095 170.245 C 260.198 170.245,260.003 169.694,259.660 169.021 C 258.961 167.646,258.757 167.359,258.757 167.753 M137.841 173.466 C 137.386 174.202,137.078 174.869,137.157 174.947 C 137.236 175.026,137.684 174.424,138.153 173.609 C 139.215 171.763,138.964 171.648,137.841 173.466 M261.847 173.609 C 262.316 174.424,262.764 175.026,262.843 174.947 C 263.006 174.785,261.423 172.128,261.163 172.128 C 261.070 172.128,261.378 172.795,261.847 173.609 M135.997 176.510 C 135.568 177.056,135.222 177.692,135.228 177.923 C 135.234 178.154,135.428 178.004,135.657 177.589 C 135.887 177.175,136.332 176.540,136.646 176.177 C 136.960 175.815,137.118 175.518,136.997 175.518 C 136.877 175.518,136.427 175.964,135.997 176.510 M134.157 179.646 C 133.704 180.259,133.333 180.885,133.333 181.037 C 133.333 181.189,133.757 180.740,134.275 180.038 C 134.793 179.336,135.217 178.710,135.217 178.646 C 135.217 178.338,134.910 178.627,134.157 179.646 M265.126 179.221 C 265.329 179.601,265.791 180.152,266.153 180.445 C 266.560 180.776,266.469 180.513,265.915 179.755 C 264.925 178.404,264.554 178.153,265.126 179.221 M267.925 183.626 C 269.572 186.161,270.092 186.714,269.098 184.876 C 268.576 183.912,267.880 182.900,267.551 182.626 C 267.221 182.353,267.390 182.803,267.925 183.626 M129.698 186.703 C 127.821 189.483,127.612 189.831,127.817 189.831 C 127.910 189.831,128.639 188.865,129.436 187.685 C 131.313 184.905,131.522 184.557,131.317 184.557 C 131.223 184.557,130.495 185.523,129.698 186.703 M271.186 188.701 C 271.629 189.322,272.076 189.831,272.179 189.831 C 272.283 189.831,272.006 189.322,271.563 188.701 C 271.121 188.079,270.674 187.571,270.570 187.571 C 270.467 187.571,270.744 188.079,271.186 188.701 M126.695 191.243 C 125.581 192.773,125.238 193.551,126.155 192.467 C 127.004 191.464,127.796 190.207,127.579 190.207 C 127.507 190.207,127.109 190.673,126.695 191.243 M272.657 190.772 C 272.872 191.186,273.403 191.949,273.838 192.467 C 274.376 193.110,274.503 193.169,274.236 192.655 C 274.020 192.241,273.489 191.478,273.055 190.960 C 272.517 190.318,272.390 190.258,272.657 190.772 M124.053 195.009 C 123.485 195.786,122.598 197.002,122.082 197.710 C 121.566 198.419,121.333 198.882,121.565 198.739 C 121.797 198.596,122.754 197.380,123.692 196.038 C 125.507 193.442,125.791 192.632,124.053 195.009 M276.290 196.012 C 277.238 197.369,278.175 198.578,278.372 198.700 C 278.569 198.821,277.954 197.811,277.006 196.455 C 276.058 195.098,275.121 193.889,274.924 193.767 C 274.727 193.646,275.342 194.656,276.290 196.012 M119.397 201.130 C 118.530 202.166,117.905 203.013,118.009 203.013 C 118.113 203.013,118.907 202.166,119.774 201.130 C 120.641 200.094,121.266 199.247,121.162 199.247 C 121.059 199.247,120.265 200.094,119.397 201.130 M280.226 201.130 C 281.093 202.166,281.887 203.013,281.991 203.013 C 282.095 203.013,281.470 202.166,280.603 201.130 C 279.735 200.094,278.941 199.247,278.838 199.247 C 278.734 199.247,279.359 200.094,280.226 201.130 M116.384 204.896 C 115.728 205.725,115.276 206.403,115.379 206.403 C 115.483 206.403,116.105 205.725,116.761 204.896 C 117.417 204.068,117.869 203.390,117.766 203.390 C 117.662 203.390,117.040 204.068,116.384 204.896 M283.239 204.896 C 283.895 205.725,284.517 206.403,284.621 206.403 C 284.724 206.403,284.272 205.725,283.616 204.896 C 282.960 204.068,282.338 203.390,282.234 203.390 C 282.131 203.390,282.583 204.068,283.239 204.896 M111.478 210.837 C 108.976 213.506,107.654 215.163,109.596 213.196 C 111.634 211.133,113.502 209.040,113.306 209.040 C 113.228 209.040,112.405 209.848,111.478 210.837 M289.264 211.959 C 290.794 213.668,292.115 215.066,292.200 215.066 C 292.443 215.066,288.699 210.833,287.535 209.793 C 286.955 209.275,287.733 210.250,289.264 211.959 M198.656 213.277 C 198.267 213.743,198.190 213.912,198.485 213.653 C 198.779 213.395,199.461 213.183,200.000 213.183 C 200.539 213.183,201.221 213.395,201.515 213.653 C 201.810 213.912,201.733 213.743,201.344 213.277 C 200.955 212.811,200.350 212.429,200.000 212.429 C 199.650 212.429,199.045 212.811,198.656 213.277 M197.064 215.844 C 196.595 216.659,196.287 217.326,196.380 217.326 C 196.639 217.326,198.222 214.669,198.059 214.506 C 197.981 214.428,197.532 215.030,197.064 215.844 M201.883 214.488 C 201.883 214.882,203.396 217.326,203.640 217.326 C 203.743 217.326,203.446 216.690,202.978 215.913 C 201.938 214.183,201.883 214.112,201.883 214.488 M100.175 222.783 C 96.971 225.991,92.750 230.017,90.793 231.728 C 85.368 236.474,84.151 237.705,88.136 234.415 C 91.442 231.686,106.659 216.982,106.201 216.959 C 106.090 216.954,103.378 219.574,100.175 222.783 M298.493 221.791 C 301.186 224.543,305.085 228.347,307.156 230.244 C 309.228 232.142,307.194 230.028,302.637 225.546 C 292.785 215.858,291.933 215.086,298.493 221.791 M193.827 221.375 C 192.883 222.980,192.456 223.857,192.878 223.324 C 193.779 222.186,195.947 218.456,195.708 218.456 C 195.617 218.456,194.771 219.769,193.827 221.375 M206.028 221.689 C 206.029 221.879,206.467 222.542,207.001 223.164 L 207.972 224.294 207.121 222.976 C 206.030 221.285,206.026 221.280,206.028 221.689 M210.136 228.185 C 210.339 228.565,210.801 229.116,211.163 229.410 C 211.569 229.740,211.478 229.477,210.924 228.719 C 209.935 227.368,209.564 227.117,210.136 228.185 M187.569 230.979 C 187.015 231.737,186.924 232.000,187.331 231.669 C 187.948 231.168,188.882 229.755,188.596 229.755 C 188.524 229.755,188.062 230.306,187.569 230.979 M214.168 233.898 C 217.609 239.016,224.269 248.035,224.890 248.419 C 225.094 248.545,223.996 246.961,222.450 244.898 C 220.903 242.835,218.281 239.220,216.623 236.864 C 212.850 231.504,211.294 229.625,214.168 233.898 M185.205 234.369 C 182.228 238.430,180.392 241.113,180.733 240.902 C 181.176 240.628,186.510 233.145,186.262 233.145 C 186.174 233.145,185.699 233.696,185.205 234.369 M312.435 234.884 C 314.284 236.672,317.891 239.662,317.891 239.408 C 317.891 239.306,316.323 237.917,314.407 236.322 C 312.491 234.727,311.603 234.080,312.435 234.884 M83.027 238.512 L 81.921 239.736 83.145 238.630 C 84.286 237.599,84.542 237.288,84.251 237.288 C 84.186 237.288,83.636 237.839,83.027 238.512 M320.339 241.297 C 322.257 242.998,322.963 243.495,322.224 242.620 C 321.813 242.135,321.136 241.564,320.720 241.350 C 320.303 241.137,320.132 241.113,320.339 241.297 M177.443 245.031 C 175.970 247.011,174.936 248.526,175.145 248.397 C 175.353 248.268,176.479 246.860,177.645 245.268 C 178.812 243.676,179.934 242.161,180.137 241.902 C 180.340 241.643,180.420 241.431,180.313 241.431 C 180.207 241.431,178.915 243.051,177.443 245.031 M76.115 244.404 C 74.832 246.024,74.648 247.309,75.539 248.421 C 76.105 249.128,76.111 249.125,75.727 248.330 C 75.070 246.969,75.269 245.948,76.491 244.404 C 77.130 243.598,77.568 242.938,77.464 242.938 C 77.361 242.938,76.753 243.598,76.115 244.404 M323.735 244.694 C 324.096 245.246,324.525 246.136,324.687 246.672 C 324.898 247.368,324.992 247.444,325.015 246.937 C 325.046 246.246,323.679 243.691,323.278 243.691 C 323.168 243.691,323.373 244.143,323.735 244.694 M173.423 250.347 C 172.843 251.107,172.560 251.611,172.795 251.466 C 173.278 251.167,174.908 248.964,174.647 248.964 C 174.554 248.964,174.003 249.586,173.423 250.347 M225.945 250.033 C 226.364 250.622,227.005 251.342,227.369 251.634 C 227.732 251.927,227.458 251.445,226.758 250.565 C 225.321 248.757,224.788 248.408,225.945 250.033 M76.475 250.325 C 76.492 250.693,78.719 253.399,78.719 253.051 C 78.719 252.932,78.211 252.194,77.589 251.412 C 76.968 250.630,76.466 250.141,76.475 250.325 M322.599 251.119 C 321.286 252.866,321.147 253.345,322.350 251.977 C 322.988 251.252,323.517 250.532,323.525 250.377 C 323.549 249.932,323.405 250.048,322.599 251.119 M79.826 255.030 C 80.449 255.984,81.257 257.001,81.621 257.290 C 82.276 257.810,81.279 256.379,79.554 254.321 C 79.049 253.719,79.161 254.011,79.826 255.030 M320.468 254.143 C 319.931 254.783,319.300 255.687,318.035 257.627 L 317.422 258.569 318.230 257.627 C 319.172 256.530,321.310 253.484,321.138 253.484 C 321.073 253.484,320.772 253.781,320.468 254.143 M167.396 257.721 L 166.290 258.945 167.514 257.839 C 168.655 256.808,168.911 256.497,168.620 256.497 C 168.556 256.497,168.005 257.048,167.396 257.721 M231.262 256.615 C 231.262 256.680,231.813 257.231,232.486 257.839 L 233.710 258.945 232.604 257.721 C 231.573 256.580,231.262 256.324,231.262 256.615 M84.397 261.552 C 85.463 263.122,86.409 264.407,86.500 264.407 C 86.683 264.407,86.677 264.398,84.656 261.324 C 83.882 260.147,83.071 259.074,82.854 258.940 C 82.637 258.806,83.332 259.981,84.397 261.552 M316.842 259.228 C 316.505 259.638,314.072 263.201,313.523 264.089 C 313.415 264.264,313.403 264.407,313.496 264.407 C 313.589 264.407,314.528 263.136,315.582 261.582 C 317.305 259.043,317.882 257.965,316.842 259.228 M161.652 264.124 C 159.998 266.040,158.119 268.106,157.477 268.715 C 156.834 269.323,156.309 269.944,156.309 270.094 C 156.309 270.245,157.292 269.323,158.494 268.046 C 161.401 264.959,165.114 260.640,164.862 260.640 C 164.751 260.640,163.306 262.208,161.652 264.124 M236.911 262.900 C 237.988 264.143,238.954 265.160,239.058 265.160 C 239.161 265.160,238.365 264.143,237.288 262.900 C 236.211 261.657,235.246 260.640,235.142 260.640 C 235.038 260.640,235.835 261.657,236.911 262.900 M88.038 266.761 C 88.826 267.848,89.935 269.459,90.503 270.339 C 91.071 271.219,91.621 271.940,91.724 271.940 C 91.828 271.940,91.448 271.219,90.880 270.339 C 89.343 267.958,87.008 264.783,86.794 264.783 C 86.690 264.783,87.250 265.673,88.038 266.761 M312.545 265.443 C 311.881 266.215,311.384 267.043,311.583 267.043 C 311.660 267.043,312.099 266.535,312.558 265.913 C 313.466 264.685,313.457 264.380,312.545 265.443 M241.257 267.808 C 242.492 269.161,243.580 270.214,243.674 270.148 C 243.767 270.083,242.757 268.976,241.428 267.689 L 239.012 265.348 241.257 267.808 M310.679 268.079 C 309.851 269.074,308.062 271.940,308.269 271.940 C 308.369 271.940,309.126 270.923,309.951 269.680 C 311.448 267.426,311.720 266.829,310.679 268.079 M154.802 271.563 C 154.360 272.185,154.082 272.693,154.186 272.693 C 154.290 272.693,154.736 272.185,155.179 271.563 C 155.621 270.942,155.899 270.433,155.795 270.433 C 155.692 270.433,155.245 270.942,154.802 271.563 M244.821 271.563 C 245.264 272.185,245.710 272.693,245.814 272.693 C 245.918 272.693,245.640 272.185,245.198 271.563 C 244.755 270.942,244.308 270.433,244.205 270.433 C 244.101 270.433,244.379 270.942,244.821 271.563 M92.245 273.006 C 92.448 273.386,92.910 273.937,93.272 274.231 C 93.679 274.561,93.588 274.298,93.033 273.540 C 92.044 272.189,91.673 271.938,92.245 273.006 M306.967 273.540 C 306.412 274.298,306.321 274.561,306.728 274.231 C 307.346 273.729,308.280 272.316,307.994 272.316 C 307.922 272.316,307.460 272.867,306.967 273.540 M151.954 274.670 L 150.847 275.895 152.072 274.788 C 153.213 273.757,153.469 273.446,153.178 273.446 C 153.113 273.446,152.562 273.997,151.954 274.670 M246.704 273.564 C 246.704 273.629,247.255 274.180,247.928 274.788 L 249.153 275.895 248.046 274.670 C 247.015 273.529,246.704 273.273,246.704 273.564 M142.561 283.527 C 140.904 285.130,137.612 288.136,135.245 290.207 C 129.774 294.995,127.527 297.112,130.697 294.491 C 136.168 289.968,146.334 280.589,145.745 280.608 C 145.651 280.611,144.218 281.925,142.561 283.527 M255.744 282.263 C 256.676 283.252,259.557 285.929,262.147 288.212 C 267.200 292.667,265.328 290.789,258.342 284.395 C 255.981 282.233,254.812 281.274,255.744 282.263 M98.451 281.733 C 100.295 284.555,100.950 285.460,101.307 285.680 C 101.757 285.958,99.868 283.158,98.644 281.733 L 97.836 280.791 98.451 281.733 M300.918 282.196 C 300.413 282.865,299.746 283.780,299.435 284.228 C 299.124 284.677,298.311 285.824,297.628 286.778 C 296.945 287.732,296.463 288.512,296.557 288.512 C 296.713 288.512,298.679 285.922,300.273 283.616 C 300.631 283.098,301.203 282.293,301.544 281.827 C 301.885 281.361,302.090 280.979,302.000 280.979 C 301.910 280.979,301.423 281.527,300.918 282.196 M102.038 286.942 C 102.241 287.322,102.706 287.873,103.072 288.167 C 103.544 288.545,103.488 288.345,102.879 287.476 C 101.949 286.150,101.441 285.828,102.038 286.942 M103.824 289.360 C 104.693 290.771,107.429 294.539,107.585 294.539 C 107.685 294.539,106.888 293.267,105.814 291.714 C 104.739 290.160,103.787 288.889,103.697 288.889 C 103.607 288.889,103.664 289.101,103.824 289.360 M294.914 290.866 C 294.360 291.624,294.269 291.887,294.675 291.556 C 295.293 291.055,296.227 289.642,295.941 289.642 C 295.869 289.642,295.407 290.193,294.914 290.866 M293.032 293.409 C 292.589 294.030,292.312 294.539,292.416 294.539 C 292.519 294.539,292.966 294.030,293.409 293.409 C 293.851 292.787,294.129 292.279,294.025 292.279 C 293.921 292.279,293.475 292.787,293.032 293.409 M269.303 294.280 C 269.303 294.345,269.854 294.895,270.527 295.504 L 271.751 296.610 270.645 295.386 C 269.614 294.245,269.303 293.989,269.303 294.280 M109.616 297.855 C 110.514 299.160,111.427 300.339,111.645 300.474 C 112.092 300.750,109.408 296.920,108.543 296.045 C 108.235 295.734,108.718 296.549,109.616 297.855 M290.725 296.893 C 290.256 297.566,289.439 298.701,288.910 299.416 C 288.380 300.131,288.128 300.606,288.349 300.472 C 288.826 300.184,292.035 295.669,291.763 295.669 C 291.661 295.669,291.193 296.219,290.725 296.893 M121.846 301.384 C 117.611 304.859,116.192 305.132,113.655 302.961 L 112.053 301.591 113.639 303.149 C 116.129 305.596,118.074 305.167,122.600 301.172 C 124.668 299.347,124.151 299.492,121.846 301.384 M276.083 299.931 C 276.083 300.184,280.612 303.732,281.630 304.276 C 282.989 305.004,284.617 304.788,285.761 303.730 L 286.817 302.751 285.731 303.541 C 283.699 305.019,282.334 304.656,278.453 301.605 C 277.149 300.581,276.083 299.828,276.083 299.931 " stroke="none" fill="#fcbca5" fill-rule="evenodd"></path><path id="path4" d="M166.235 76.432 C 164.638 77.405,164.327 78.645,164.053 85.122 C 163.925 88.126,163.657 91.940,163.455 93.597 C 163.254 95.254,162.828 98.814,162.510 101.507 C 161.812 107.407,160.659 114.050,159.665 117.891 C 159.263 119.444,158.778 121.563,158.587 122.599 C 158.396 123.635,157.994 125.075,157.693 125.800 C 157.393 126.525,157.022 127.881,156.871 128.814 C 156.719 129.746,156.291 131.110,155.919 131.844 C 155.546 132.579,155.120 133.850,154.971 134.669 C 154.822 135.488,154.398 136.759,154.029 137.494 C 153.660 138.229,153.237 139.500,153.088 140.319 C 152.938 141.138,152.416 142.569,151.926 143.500 C 151.436 144.430,151.036 145.426,151.036 145.713 C 151.036 145.999,150.596 147.272,150.059 148.540 C 149.521 149.809,148.686 151.780,148.203 152.919 C 144.394 161.896,139.347 171.982,136.245 176.815 C 135.783 177.535,134.915 178.936,134.316 179.928 C 124.411 196.339,114.934 208.259,99.636 223.547 C 95.071 228.108,88.710 233.999,85.499 236.637 C 73.769 246.276,73.732 246.360,78.369 252.542 C 78.990 253.371,79.916 254.642,80.426 255.367 C 80.936 256.092,81.735 257.218,82.202 257.868 C 83.664 259.906,87.258 265.143,90.955 270.621 C 92.912 273.522,94.750 276.149,95.039 276.460 C 95.328 276.770,95.778 277.434,96.040 277.934 C 96.301 278.435,97.384 280.002,98.446 281.417 C 102.015 286.172,102.402 286.726,111.224 299.720 C 114.167 304.054,116.026 305.139,118.386 303.899 C 121.728 302.144,136.218 289.691,148.607 277.929 C 151.893 274.809,159.111 267.108,162.693 262.900 C 164.192 261.139,165.621 259.529,165.868 259.322 C 167.666 257.816,175.748 247.532,182.592 238.041 C 188.883 229.316,189.685 228.106,194.608 219.894 C 200.443 210.164,199.673 210.260,204.590 218.644 C 211.314 230.108,227.664 252.717,233.598 258.757 C 234.311 259.482,235.968 261.347,237.282 262.900 C 240.456 266.654,248.131 274.827,251.393 277.927 C 261.714 287.735,270.287 295.274,277.424 300.823 C 284.769 306.532,283.771 307.177,296.491 288.512 C 299.575 283.987,299.787 283.689,301.721 281.163 C 302.675 279.918,303.676 278.477,303.946 277.962 C 304.215 277.446,304.676 276.770,304.969 276.460 C 305.262 276.149,306.721 274.058,308.212 271.812 C 309.703 269.567,311.262 267.259,311.676 266.683 C 312.090 266.107,313.446 264.154,314.689 262.344 C 315.932 260.533,317.331 258.519,317.798 257.868 C 318.265 257.218,319.064 256.092,319.574 255.367 C 320.084 254.642,321.010 253.371,321.631 252.542 C 325.449 247.452,325.383 245.230,321.322 242.186 C 319.096 240.517,314.334 236.684,312.624 235.184 C 295.976 220.580,281.228 203.919,270.646 187.759 C 269.425 185.895,268.030 183.767,267.546 183.031 C 267.062 182.294,266.667 181.545,266.667 181.365 C 266.667 181.186,266.372 180.713,266.012 180.315 C 265.340 179.572,265.099 179.172,261.159 172.234 C 258.478 167.513,254.180 158.727,252.170 153.861 C 251.401 151.996,250.364 149.517,249.868 148.352 C 249.371 147.187,248.964 145.999,248.964 145.713 C 248.964 145.426,248.564 144.430,248.074 143.500 C 247.584 142.569,247.063 141.130,246.916 140.301 C 246.769 139.473,246.406 138.418,246.110 137.958 C 245.813 137.498,245.381 136.227,245.150 135.133 C 244.918 134.040,244.433 132.552,244.072 131.827 C 243.712 131.102,243.301 129.831,243.159 129.002 C 243.018 128.173,242.578 126.478,242.182 125.235 C 240.657 120.444,238.376 108.894,237.495 101.507 C 237.174 98.814,236.746 95.254,236.545 93.597 C 236.343 91.940,236.075 88.126,235.947 85.122 C 235.673 78.645,235.362 77.405,233.765 76.432 C 231.915 75.303,168.085 75.303,166.235 76.432 M233.982 77.506 C 234.725 78.249,234.852 78.803,234.934 81.649 C 235.109 87.790,235.809 96.601,236.348 99.435 C 236.644 100.989,237.057 103.870,237.267 105.838 C 237.477 107.806,237.894 110.264,238.195 111.299 C 238.496 112.335,238.860 114.200,239.006 115.443 C 239.151 116.685,239.563 118.465,239.920 119.397 C 240.278 120.330,240.685 121.855,240.824 122.787 C 241.052 124.312,242.070 127.855,243.475 132.015 C 244.196 134.150,244.659 135.531,245.305 137.476 C 246.214 140.217,246.744 141.691,247.536 143.691 C 247.946 144.727,248.424 146.153,248.598 146.861 C 248.771 147.569,249.173 148.671,249.490 149.309 C 249.808 149.948,250.690 152.081,251.451 154.049 C 253.590 159.583,258.777 169.871,262.335 175.636 C 262.750 176.308,263.427 177.420,263.842 178.108 C 264.256 178.796,264.889 179.747,265.249 180.221 C 265.608 180.696,266.480 182.173,267.186 183.505 C 269.077 187.069,273.634 193.899,276.600 197.616 C 277.455 198.687,278.578 200.118,279.096 200.797 C 289.689 214.677,307.709 232.780,320.678 242.569 C 324.124 245.170,324.632 247.737,322.269 250.609 C 321.829 251.144,321.085 252.137,320.615 252.815 C 320.146 253.494,318.959 255.140,317.979 256.473 C 313.788 262.169,308.092 270.437,305.650 274.370 C 304.530 276.172,303.216 278.006,299.021 283.619 C 296.831 286.550,293.385 291.495,292.105 293.544 C 288.045 300.046,285.082 303.578,283.695 303.569 C 281.746 303.557,273.326 297.289,265.748 290.207 C 264.639 289.171,261.759 286.544,259.346 284.369 C 251.504 277.298,243.539 269.189,238.503 263.150 C 237.784 262.288,235.672 259.979,233.810 258.021 C 231.948 256.062,230.149 254.028,229.811 253.501 C 229.474 252.974,228.009 250.983,226.557 249.076 C 219.443 239.736,211.635 228.916,210.169 226.365 C 209.752 225.640,208.482 223.558,207.346 221.737 C 206.211 219.917,204.837 217.629,204.293 216.652 C 201.480 211.599,201.547 211.676,199.994 211.676 L 198.553 211.676 195.672 216.667 C 194.088 219.411,192.296 222.420,191.689 223.352 C 191.082 224.284,190.322 225.556,189.999 226.177 C 189.099 227.911,179.895 240.798,177.046 244.315 C 176.516 244.969,175.242 246.664,174.215 248.082 C 170.987 252.538,168.290 255.837,165.488 258.757 C 163.997 260.311,162.195 262.288,161.483 263.150 C 156.705 268.941,148.512 277.285,140.650 284.369 C 138.236 286.544,135.391 289.156,134.326 290.173 C 130.888 293.458,123.072 299.817,119.330 302.374 C 115.680 304.867,114.611 304.053,108.098 293.812 C 106.664 291.559,103.315 286.768,100.969 283.616 C 99.813 282.062,98.570 280.367,98.206 279.849 C 97.842 279.331,96.953 278.145,96.230 277.213 C 95.507 276.281,94.803 275.264,94.666 274.953 C 94.119 273.715,86.588 262.696,82.034 256.469 C 81.060 255.138,79.874 253.494,79.397 252.815 C 78.921 252.137,78.165 251.136,77.717 250.592 C 75.372 247.745,75.812 245.285,79.119 242.750 C 92.893 232.189,109.823 215.193,120.904 200.802 C 121.422 200.130,122.608 198.613,123.540 197.432 C 124.473 196.251,126.741 192.999,128.581 190.204 C 130.421 187.409,132.243 184.663,132.630 184.102 C 133.017 183.541,133.333 182.942,133.333 182.771 C 133.333 182.399,135.592 178.749,136.693 177.342 C 137.124 176.791,137.476 176.178,137.476 175.980 C 137.476 175.782,137.833 175.166,138.269 174.612 C 140.452 171.837,147.075 158.283,149.514 151.601 C 149.892 150.565,150.473 149.209,150.805 148.588 C 151.136 147.966,151.409 147.178,151.410 146.836 C 151.411 146.494,151.835 145.307,152.350 144.199 C 152.866 143.091,153.292 141.846,153.296 141.431 C 153.300 141.017,153.725 139.771,154.241 138.663 C 154.757 137.555,155.179 136.282,155.179 135.835 C 155.179 135.388,155.603 134.226,156.121 133.253 C 156.638 132.281,157.062 131.134,157.062 130.705 C 157.062 130.276,157.419 128.954,157.855 127.768 C 158.290 126.582,158.871 124.426,159.144 122.976 C 159.418 121.525,159.890 119.746,160.194 119.021 C 160.497 118.296,160.870 116.605,161.022 115.263 C 161.175 113.921,161.534 112.158,161.821 111.345 C 162.108 110.531,162.595 107.588,162.904 104.803 C 163.213 102.018,163.554 99.596,163.663 99.420 C 164.044 98.804,164.970 87.530,164.976 83.427 C 164.989 75.732,161.306 76.446,200.460 76.556 L 233.124 76.648 233.982 77.506 " stroke="none" fill="#fcb499" fill-rule="evenodd"></path></g></svg>