<svg viewBox="0 0 24 24" fill="none" xmlns="http://www.w3.org/2000/svg">
<path d="M18.6693 13.6667V4.5L9.5026 6.16667V15.3333M18.6693 13.6667L18.6693 16.1667C18.6693 16.6087 18.4937 17.0326 18.1811 17.3452C17.8686 17.6577 17.4446 17.8333 17.0026 17.8333H16.1693C15.7272 17.8333 15.3033 17.6577 14.9908 17.3452C14.6782 17.0326 14.5026 16.6087 14.5026 16.1667V15.3333C14.5026 14.8913 14.6782 14.4674 14.9908 14.1548C15.3033 13.8423 15.7272 13.6667 16.1693 13.6667L18.6693 13.6667ZM9.5026 15.3333L9.5026 17.8333C9.5026 18.2754 9.32701 18.6993 9.01445 19.0118C8.70189 19.3244 8.27796 19.5 7.83594 19.5H7.0026C6.56058 19.5 6.13665 19.3244 5.82409 19.0118C5.51153 18.6993 5.33594 18.2754 5.33594 17.8333V17C5.33594 16.558 5.51153 16.1341 5.82409 15.8215C6.13665 15.5089 6.56058 15.3333 7.0026 15.3333L9.5026 15.3333Z" stroke="#color" stroke-width="1.5" stroke-linecap="round" stroke-linejoin="round"/>
</svg>
