<svg width="24" height="24" viewBox="0 0 24 24" fill="none" xmlns="http://www.w3.org/2000/svg">
<path d="M14.5 7.83333C14.942 7.83333 15.366 8.00893 15.6785 8.32149C15.9911 8.63405 16.1667 9.05797 16.1667 9.5M14.5 4.5C15.8261 4.5 17.0979 5.02678 18.0355 5.96447C18.9732 6.90215 19.5 8.17392 19.5 9.5M6.16667 5.33333H9.5L11.1667 9.5L9.08333 10.75C9.9758 12.5596 11.4404 14.0242 13.25 14.9167L14.5 12.8333L18.6667 14.5V17.8333C18.6667 18.2754 18.4911 18.6993 18.1785 19.0118C17.866 19.3244 17.442 19.5 17 19.5C13.7494 19.3025 10.6835 17.9221 8.38069 15.6193C6.07792 13.3165 4.69754 10.2506 4.5 7C4.5 6.55797 4.67559 6.13405 4.98816 5.82149C5.30072 5.50893 5.72464 5.33333 6.16667 5.33333Z" stroke="white" stroke-width="1.5" stroke-linecap="round" stroke-linejoin="round"/>
</svg>
