<svg width="16" height="18" viewBox="0 0 16 18" fill="none" xmlns="http://www.w3.org/2000/svg">
<path d="M14.875 4.3125C14.875 6.21083 11.7967 7.75 8 7.75C4.20333 7.75 1.125 6.21083 1.125 4.3125M14.875 4.3125C14.875 2.41417 11.7967 0.875 8 0.875C4.20333 0.875 1.125 2.41417 1.125 4.3125M14.875 4.3125V13.6875C14.875 15.5858 11.7967 17.125 8 17.125C4.20333 17.125 1.125 15.5858 1.125 13.6875V4.3125M14.875 4.3125V7.4375M1.125 4.3125V7.4375M14.875 7.4375V10.5625C14.875 12.4608 11.7967 14 8 14C4.20333 14 1.125 12.4608 1.125 10.5625V7.4375M14.875 7.4375C14.875 9.33583 11.7967 10.875 8 10.875C4.20333 10.875 1.125 9.33583 1.125 7.4375" stroke="#color" stroke-width="1.37" stroke-linecap="round" stroke-linejoin="round"/>
</svg>
