<svg viewBox="0 0 20 20" fill="none" xmlns="http://www.w3.org/2000/svg">
<path d="M9.16407 14.3347C9.46694 14.3347 9.73952 14.577 9.73952 14.9101C9.73952 15.213 9.49722 15.4856 9.16407 15.4856C8.8612 15.4856 8.58862 15.2433 8.58862 14.9101C8.58862 14.577 8.8612 14.3347 9.16407 14.3347ZM18.0684 10.8214C17.7655 10.8214 17.4929 10.5791 17.4929 10.246C17.4929 9.94309 17.7352 9.67051 18.0684 9.67051C18.3712 9.67051 18.6438 9.91281 18.6438 10.246C18.6438 10.5488 18.3712 10.8214 18.0684 10.8214ZM18.0684 8.48933C17.0992 8.48933 16.3117 9.27678 16.3117 10.246C16.3117 10.4277 16.342 10.6094 16.4026 10.7911L10.6178 13.8804C10.2847 13.3958 9.73952 13.1232 9.16407 13.1232C8.49776 13.1232 7.89203 13.5169 7.58916 14.0924L2.37984 11.3666C1.83468 11.0637 1.41066 10.1854 1.47124 9.33736C1.50152 8.91334 1.65296 8.58019 1.86496 8.45904C2.0164 8.36818 2.16783 8.39847 2.37984 8.48933L2.41012 8.51961C3.80331 9.2465 8.31604 11.6089 8.49776 11.6997C8.80063 11.8209 8.95206 11.8814 9.46694 11.6391L18.7953 6.79327C18.9467 6.7327 19.0981 6.61155 19.0981 6.39954C19.0981 6.12696 18.8255 6.00581 18.8255 6.00581C18.2804 5.76352 17.4626 5.36979 16.6752 5.00635C14.9791 4.2189 13.0408 3.31029 12.1927 2.85599C11.4659 2.46227 10.8601 2.79542 10.7693 2.85599L10.5573 2.94685C6.71084 4.88521 1.62267 7.39901 1.3198 7.58073C0.804927 7.88359 0.471773 8.51961 0.441486 9.30707C0.380913 10.5488 1.01693 11.8512 1.92554 12.3055L7.43772 15.1524C7.55887 16.0004 8.31604 16.6667 9.16407 16.6667C10.1332 16.6667 10.8904 15.9096 10.9207 14.9404L16.978 11.6694C17.2809 11.9117 17.6746 12.0329 18.0684 12.0329C19.0375 12.0329 19.825 11.2454 19.825 10.2762C19.825 9.27678 19.0375 8.48933 18.0684 8.48933" fill="white"/>
</svg>
