<svg viewBox="0 0 24 24" xmlns="http://www.w3.org/2000/svg">
    <path  fill-rule="evenodd" clip-rule="evenodd" d="M 7.21 1.455 L 7.21 2.508 C 7.231 2.872 7.276 3.532 7.334 3.871 C 7.417 4.353 7.529 4.78 7.683 5.224 C 7.989 6.107 8.385 6.832 8.894 7.496 C 9.896 8.806 10.928 9.455 12 9.455 C 13.07 9.455 14.102 8.798 15.106 7.483 C 16.085 6.199 16.76 4.593 16.79 2.684 L 16.79 1.455 L 18.71 1.455 L 18.71 3.13 C 18.723 3.476 18.754 4.182 18.798 4.545 C 18.858 5.036 18.94 5.475 19.057 5.921 C 19.289 6.809 19.596 7.52 20.034 8.17 C 20.899 9.453 21.903 10.157 23.5 10.085 L 23.5 12.005 C 23.174 11.994 22.853 11.958 22.54 11.9 L 22.54 13.915 L 23.5 13.915 L 23.5 15.835 L 18.71 15.835 L 18.71 22.545 L 16.79 22.545 L 16.79 15.835 L 7.21 15.835 L 7.21 22.545 L 5.29 22.545 L 5.29 15.835 L 0.5 15.835 L 0.5 13.915 L 1.46 13.915 L 1.46 11.94 C 1.001 11.992 0.52 12.016 0.52 12.016 C 0.485 11.478 0.52 11.006 0.503 10.208 C 0.503 10.208 1.228 10.074 1.583 9.982 C 1.934 9.892 2.202 9.782 2.506 9.609 C 3.115 9.263 3.554 8.834 3.983 8.192 C 4.835 6.916 5.276 5.264 5.29 3.266 L 5.29 1.455 Z M 16.632 8.647 C 16.135 9.299 15.53 9.877 14.88 10.33 L 14.88 13.915 L 16.79 13.915 L 16.79 8.433 C 16.738 8.506 16.685 8.577 16.632 8.647 Z M 20.62 13.915 L 20.62 11.218 C 19.876 10.811 19.225 10.262 18.71 9.611 L 18.71 13.915 Z M 12 11.375 C 11.688 11.375 11.366 11.331 11.04 11.248 L 11.04 13.915 L 12.96 13.915 L 12.96 11.247 C 12.634 11.33 12.312 11.375 12 11.375 Z M 7.369 8.664 C 7.316 8.594 7.263 8.523 7.21 8.449 L 7.21 13.915 L 9.12 13.915 L 9.12 10.338 C 8.471 9.887 7.866 9.314 7.369 8.664 Z M 5.29 13.915 L 5.29 9.658 C 4.782 10.308 4.138 10.89 3.455 11.278 C 3.43 11.292 3.405 11.306 3.38 11.32 L 3.38 13.915 Z" fill="#color"/>
</svg>
