<svg width="20" height="21" viewBox="0 0 20 21" fill="none" xmlns="http://www.w3.org/2000/svg">
<path d="M10 18C14.1421 18 17.5 14.6421 17.5 10.5C17.5 6.35786 14.1421 3 10 3C5.85786 3 2.5 6.35786 2.5 10.5C2.5 14.6421 5.85786 18 10 18Z" stroke="#999999" stroke-width="1.25" stroke-linecap="round"/>
<path d="M13.125 10.5C13.125 15.5 10 18 10 18C10 18 6.875 15.5 6.875 10.5C6.875 5.5 10 3 10 3C10 3 13.125 5.5 13.125 10.5Z" stroke="#999999" stroke-width="1.25" stroke-linecap="round"/>
<path d="M2.92578 8H17.0727" stroke="#999999" stroke-width="1.25" stroke-linecap="round"/>
<path d="M2.92578 13H17.0727" stroke="#999999" stroke-width="1.25" stroke-linecap="round"/>
</svg>
