<svg  viewBox="0 0 16 16" fill="none" xmlns="http://www.w3.org/2000/svg">
<path d="M5.99219 8.6665H9.99219" stroke="white" stroke-width="1.25" stroke-linecap="round" stroke-linejoin="round"/>
<path d="M2 3.3335C3.714 5.1115 12.286 5.1115 14 3.3335M2.02667 2.86283C2.01657 2.80304 2.02311 2.74163 2.04557 2.68531C2.06803 2.62899 2.10554 2.57993 2.154 2.5435C2.618 2.2135 4.20933 1.3335 8 1.3335C11.7907 1.3335 13.382 2.2135 13.846 2.5435C13.8946 2.57985 13.9322 2.62888 13.9548 2.68521C13.9774 2.74153 13.984 2.80298 13.974 2.86283L12.8407 11.3588C12.7864 11.7655 12.6391 12.1541 12.4102 12.4945C12.1812 12.8349 11.8768 13.1179 11.5207 13.3215L11.3073 13.4435C10.3001 14.019 9.16008 14.3217 8 14.3217C6.83992 14.3217 5.69992 14.019 4.69267 13.4435L4.47933 13.3215C4.12317 13.1179 3.81877 12.8349 3.58983 12.4945C3.36088 12.1541 3.21356 11.7655 3.15933 11.3588L2.026 2.86283H2.02667Z" stroke="white" stroke-width="1.25"/>
</svg>
