<svg viewBox="0 0 32 32" fill="none" xmlns="http://www.w3.org/2000/svg">
<rect opacity="0.1" width="32" height="32" rx="16" fill="#16BBFF"/>
<mask id="path-2-outside-1_4611_45641" maskUnits="userSpaceOnUse" x="9.5" y="7.5" width="13" height="17" fill="black">
<rect fill="white" x="9.5" y="7.5" width="13" height="17"/>
<path fill-rule="evenodd" clip-rule="evenodd" d="M17.1393 9.52218C16.9336 9.65464 16.4019 10.1792 16.1246 10.5231C15.3781 11.4489 14.8893 12.4876 14.6887 13.5745C14.5835 14.1443 14.4989 15.1184 14.4989 15.7592V15.9751L14.3935 15.9408C14.1575 15.8638 13.8741 15.6168 13.6951 15.3322C13.5173 15.0492 13.3554 14.6135 13.2647 14.1733C13.1748 13.7375 12.9463 13.7277 12.5447 14.1422C12.0366 14.6668 11.6831 15.5481 11.5534 16.6134C11.5018 17.0376 11.4838 17.7472 11.5163 18.0755C11.633 19.2515 12.0729 20.264 12.8182 21.0715C13.511 21.8221 14.329 22.274 15.3204 22.4539C15.6601 22.5155 16.3436 22.5153 16.6816 22.4535C17.6771 22.2715 18.4902 21.823 19.1804 21.0752C20.1298 20.0465 20.5884 18.6936 20.4859 17.2236C20.4087 16.1163 20.1747 15.2839 19.6674 14.312C19.4976 13.9865 19.2535 13.5963 18.7687 12.8752C18.5196 12.5046 18.2429 12.0775 18.1539 11.9261C17.7424 11.2262 17.5568 10.6537 17.5067 9.92996C17.4889 9.67188 17.4807 9.63539 17.4281 9.5784C17.3606 9.50522 17.2108 9.47608 17.1393 9.52218ZM16.5402 17.8748C16.5819 17.9548 16.7383 18.2158 16.8877 18.4547C17.1865 18.9323 17.3339 19.2422 17.407 19.5464C17.6025 20.3595 17.4771 20.9922 17.023 21.4841C16.7207 21.8117 16.401 21.9608 16.001 21.9608C15.6009 21.9608 15.2812 21.8117 14.9789 21.4841C14.7705 21.2583 14.6582 21.0541 14.5657 20.7328C14.4704 20.4021 14.5017 19.6766 14.6248 19.3593L14.6561 19.2785L14.716 19.389C14.8219 19.5845 14.963 19.7351 15.1162 19.8161C15.401 19.9665 15.6511 19.9351 15.7122 19.7411C15.7276 19.6921 15.7408 19.5286 15.7415 19.3777C15.7453 18.5898 15.8806 18.0671 16.2129 17.5571L16.3352 17.3694L16.3998 17.5494C16.4354 17.6484 16.4985 17.7948 16.5402 17.8748Z"/>
</mask>
<path fill-rule="evenodd" clip-rule="evenodd" d="M17.1393 9.52218C16.9336 9.65464 16.4019 10.1792 16.1246 10.5231C15.3781 11.4489 14.8893 12.4876 14.6887 13.5745C14.5835 14.1443 14.4989 15.1184 14.4989 15.7592V15.9751L14.3935 15.9408C14.1575 15.8638 13.8741 15.6168 13.6951 15.3322C13.5173 15.0492 13.3554 14.6135 13.2647 14.1733C13.1748 13.7375 12.9463 13.7277 12.5447 14.1422C12.0366 14.6668 11.6831 15.5481 11.5534 16.6134C11.5018 17.0376 11.4838 17.7472 11.5163 18.0755C11.633 19.2515 12.0729 20.264 12.8182 21.0715C13.511 21.8221 14.329 22.274 15.3204 22.4539C15.6601 22.5155 16.3436 22.5153 16.6816 22.4535C17.6771 22.2715 18.4902 21.823 19.1804 21.0752C20.1298 20.0465 20.5884 18.6936 20.4859 17.2236C20.4087 16.1163 20.1747 15.2839 19.6674 14.312C19.4976 13.9865 19.2535 13.5963 18.7687 12.8752C18.5196 12.5046 18.2429 12.0775 18.1539 11.9261C17.7424 11.2262 17.5568 10.6537 17.5067 9.92996C17.4889 9.67188 17.4807 9.63539 17.4281 9.5784C17.3606 9.50522 17.2108 9.47608 17.1393 9.52218ZM16.5402 17.8748C16.5819 17.9548 16.7383 18.2158 16.8877 18.4547C17.1865 18.9323 17.3339 19.2422 17.407 19.5464C17.6025 20.3595 17.4771 20.9922 17.023 21.4841C16.7207 21.8117 16.401 21.9608 16.001 21.9608C15.6009 21.9608 15.2812 21.8117 14.9789 21.4841C14.7705 21.2583 14.6582 21.0541 14.5657 20.7328C14.4704 20.4021 14.5017 19.6766 14.6248 19.3593L14.6561 19.2785L14.716 19.389C14.8219 19.5845 14.963 19.7351 15.1162 19.8161C15.401 19.9665 15.6511 19.9351 15.7122 19.7411C15.7276 19.6921 15.7408 19.5286 15.7415 19.3777C15.7453 18.5898 15.8806 18.0671 16.2129 17.5571L16.3352 17.3694L16.3998 17.5494C16.4354 17.6484 16.4985 17.7948 16.5402 17.8748Z" stroke="#16BBFF" stroke-width="3" stroke-linecap="round" stroke-linejoin="round" mask="url(#path-2-outside-1_4611_45641)"/>
</svg>
