<svg width="32" height="32" viewBox="0 0 32 32" fill="none" xmlns="http://www.w3.org/2000/svg">
<rect x="3" y="3" width="26" height="26" rx="13" fill="#333333"/>
<path d="M18.5 9.33335V7.66669M18.5 9.33335V11M18.5 9.33335H14.75M8.5 14.3334V21.8334C8.5 22.7539 9.24619 23.5 10.1667 23.5H21.8333C22.7538 23.5 23.5 22.7539 23.5 21.8334V14.3334H8.5Z" stroke="white" stroke-width="1.25" stroke-linecap="round" stroke-linejoin="round"/>
<path d="M8.5 14.3333V11C8.5 10.0795 9.24619 9.33331 10.1667 9.33331H11.8333" stroke="white" stroke-width="1.25" stroke-linecap="round" stroke-linejoin="round"/>
<path d="M11.8359 7.66669V11" stroke="white" stroke-width="1.25" stroke-linecap="round" stroke-linejoin="round"/>
<path d="M23.4974 14.3333V11C23.4974 10.0795 22.7512 9.33331 21.8307 9.33331H21.4141" stroke="white" stroke-width="1.25" stroke-linecap="round" stroke-linejoin="round"/>
<rect x="3" y="3" width="26" height="26" rx="13" stroke="#333333" stroke-width="6"/>
</svg>
