<svg viewBox="0 0 16 16" fill="none" xmlns="http://www.w3.org/2000/svg">
<path d="M1.33594 12.6667V6C1.33594 5.26362 1.93289 4.66667 2.66927 4.66667H3.0026C3.42228 4.66667 3.81746 4.46907 4.06927 4.13333L5.54927 2.16C5.62481 2.05928 5.74337 2 5.86927 2H10.1359C10.2619 2 10.3804 2.05928 10.4559 2.16L11.9359 4.13333C12.1877 4.46907 12.5829 4.66667 13.0026 4.66667H13.3359C14.0723 4.66667 14.6693 5.26362 14.6693 6V12.6667C14.6693 13.4031 14.0723 14 13.3359 14H2.66927C1.93289 14 1.33594 13.4031 1.33594 12.6667Z" stroke="#color" stroke-width="1.5" stroke-linecap="round" stroke-linejoin="round"/>
<path d="M8.0026 11.3333C9.47534 11.3333 10.6693 10.1394 10.6693 8.66667C10.6693 7.19393 9.47534 6 8.0026 6C6.52984 6 5.33594 7.19393 5.33594 8.66667C5.33594 10.1394 6.52984 11.3333 8.0026 11.3333Z" stroke="#color" stroke-width="1.5" stroke-linecap="round" stroke-linejoin="round"/>
</svg>
