<svg width="24" height="24" viewBox="0 0 24 24" fill="none" xmlns="http://www.w3.org/2000/svg">
<g id="Frame">
<path id="Vector" d="M3.66602 17.8333V9.5C3.66602 8.57952 4.41221 7.83333 5.33268 7.83333H5.74935C6.27394 7.83333 6.76792 7.58634 7.08268 7.16667L8.93268 4.7C9.02711 4.5741 9.17531 4.5 9.33268 4.5H14.666C14.8234 4.5 14.9716 4.5741 15.066 4.7L16.916 7.16667C17.2308 7.58634 17.7248 7.83333 18.2493 7.83333H18.666C19.5865 7.83333 20.3327 8.57952 20.3327 9.5V17.8333C20.3327 18.7538 19.5865 19.5 18.666 19.5H5.33268C4.41221 19.5 3.66602 18.7538 3.66602 17.8333Z" stroke="white" stroke-width="1.5" stroke-linecap="round" stroke-linejoin="round"/>
<path id="Vector_2" d="M11.9993 16.1667C13.8403 16.1667 15.3327 14.6742 15.3327 12.8333C15.3327 10.9924 13.8403 9.5 11.9993 9.5C10.1584 9.5 8.66602 10.9924 8.66602 12.8333C8.66602 14.6742 10.1584 16.1667 11.9993 16.1667Z" stroke="white" stroke-width="1.5" stroke-linecap="round" stroke-linejoin="round"/>
</g>
</svg>
