<?xml version="1.0" encoding="utf-8"?>
<!-- Generator: Adobe Illustrator 25.4.0, SVG Export Plug-In . SVG Version: 6.00 Build 0)  -->
<svg version="1.1" id="Layer_1" xmlns="http://www.w3.org/2000/svg" xmlns:xlink="http://www.w3.org/1999/xlink" x="0px" y="0px"
	 viewBox="0 0 28 28" style="enable-background:new 0 0 28 28;" xml:space="preserve">
<style type="text/css">
	.st0{fill:none;stroke:#FFFFFF;stroke-width:1.5;stroke-linecap:round;stroke-linejoin:round;}
</style>
<path class="st0" d="M14,18.7c2.6,0,4.7-2.1,4.7-4.7c0-2.6-2.1-4.7-4.7-4.7S9.3,11.4,9.3,14C9.3,16.6,11.4,18.7,14,18.7z"/>
<path class="st0" d="M24.5,8.6v10.8c0,0.3-0.1,0.5-0.4,0.6l-9.8,5.4c-0.2,0.1-0.5,0.1-0.7,0L3.9,20c-0.2-0.1-0.4-0.4-0.4-0.6l0-10.8
	c0-0.3,0.1-0.5,0.4-0.6l9.8-5.4c0.2-0.1,0.5-0.1,0.7,0L24.1,8C24.4,8.1,24.5,8.3,24.5,8.6z"/>
<path class="st0" d="M23.9,8.5l-5.7,3.2 M4.1,8.5l5.7,3.2L4.1,8.5z"/>
<path class="st0" d="M14,24.5v-5.8"/>
</svg>
