<svg xmlns="http://www.w3.org/2000/svg" xmlns:xlink="http://www.w3.org/1999/xlink" viewBox="0 0 37.85 38.43"><defs><style>.cls-1,.cls-2,.cls-3,.cls-4,.cls-5,.cls-6{fill:none;}.cls-1,.cls-2,.cls-3,.cls-4,.cls-5{stroke-width:1.25px;isolation:isolate;opacity:0.88;}.cls-1{stroke:url(#linear-gradient);}.cls-2{stroke:url(#linear-gradient-2);}.cls-3{stroke:url(#linear-gradient-3);}.cls-4{stroke:url(#linear-gradient-4);}.cls-5{stroke:url(#linear-gradient-5);}.cls-6{stroke-linecap:round;stroke-linejoin:round;stroke-width:3px;stroke:url(#linear-gradient-6);}</style><linearGradient id="linear-gradient" x1="10.46" y1="-751.87" x2="30.04" y2="-767.16" gradientTransform="matrix(1, 0, 0, -1, 0, -741.36)" gradientUnits="userSpaceOnUse"><stop offset="0.17" stop-color="#876cf5" stop-opacity="0.29"/><stop offset="0.52" stop-color="#1fdbfa" stop-opacity="0.6"/><stop offset="1" stop-color="#876cf5" stop-opacity="0.36"/></linearGradient><linearGradient id="linear-gradient-2" x1="14.5" y1="-749.09" x2="26.55" y2="-770.82" gradientTransform="matrix(1, 0, 0, -1, 0, -741.36)" gradientUnits="userSpaceOnUse"><stop offset="0.17" stop-color="#876cf5" stop-opacity="0.17"/><stop offset="0.52" stop-color="#1fdbfa" stop-opacity="0.6"/><stop offset="1" stop-color="#876cf5" stop-opacity="0.36"/></linearGradient><linearGradient id="linear-gradient-3" x1="21.13" y1="-772.51" x2="14.69" y2="-748.5" gradientTransform="matrix(1, 0, 0, -1, 0, -741.36)" gradientUnits="userSpaceOnUse"><stop offset="0.17" stop-color="#876cf5" stop-opacity="0.24"/><stop offset="0.52" stop-color="#1fdbfa" stop-opacity="0.6"/><stop offset="1" stop-color="#876cf5" stop-opacity="0.36"/></linearGradient><linearGradient id="linear-gradient-4" x1="10.98" y1="-769.41" x2="25.77" y2="-749.45" gradientTransform="matrix(1, 0, 0, -1, 0, -741.36)" gradientUnits="userSpaceOnUse"><stop offset="0.17" stop-color="#876cf5" stop-opacity="0.28"/><stop offset="0.52" stop-color="#1fdbfa" stop-opacity="0.6"/><stop offset="1" stop-color="#876cf5" stop-opacity="0.36"/></linearGradient><linearGradient id="linear-gradient-5" x1="7.01" y1="-760.63" x2="31.65" y2="-757.49" gradientTransform="matrix(1, 0, 0, -1, 0, -741.36)" gradientUnits="userSpaceOnUse"><stop offset="0.17" stop-color="#876cf5" stop-opacity="0.35"/><stop offset="0.52" stop-color="#1fdbfa" stop-opacity="0.6"/><stop offset="1" stop-color="#876cf5" stop-opacity="0.36"/></linearGradient><linearGradient id="linear-gradient-6" x1="13.15" y1="-760.38" x2="25.37" y2="-760.38" gradientTransform="matrix(1, 0, 0, -1, 0, -741.36)" gradientUnits="userSpaceOnUse"><stop offset="0" stop-color="#5433ff"/><stop offset="0.5" stop-color="#20bdff"/><stop offset="1" stop-color="#a5fecb"/></linearGradient></defs><g id="Layer_2" data-name="Layer 2"><g id="Layer_1-2" data-name="Layer 1"><g id="Layer_2-2" data-name="Layer 2"><g id="Layer_1-2-2" data-name="Layer 1-2"><path class="cls-1" d="M27.62,4.41a4.38,4.38,0,0,1,3.79,3l5.33,15.77a4.4,4.4,0,0,1-1.81,5.12L22.12,36.33a4.46,4.46,0,0,1-5.05-.24L3.25,25.26A4.36,4.36,0,0,1,1.8,20.42L6.53,6a4.38,4.38,0,0,1,4.53-3Z"/><path class="cls-2" d="M32.67,8.83A4.4,4.4,0,0,1,35,13L33.75,29.61a4.41,4.41,0,0,1-3.66,4L15.16,36.05a4.39,4.39,0,0,1-4.53-2.19L2.1,18.51a4.38,4.38,0,0,1,.52-5l10-11.39a4.34,4.34,0,0,1,5.32-1Z"/><path class="cls-3" d="M3.77,25.68A4.36,4.36,0,0,1,2.52,21L7.74,5.21a4.39,4.39,0,0,1,4.53-3L27.34,3.47A4.36,4.36,0,0,1,31.2,6.7l4.56,17A4.34,4.34,0,0,1,34,28.39L21.6,37a4.39,4.39,0,0,1-5.4-.31Z"/><path class="cls-4" d="M4.43,11.06A4.39,4.39,0,0,1,7.29,7.19L22.92,1.48a4.4,4.4,0,0,1,5.15,1.67L36.5,15.76a4.44,4.44,0,0,1-.11,5L26,34.9a4.4,4.4,0,0,1-4.77,1.6L6.7,32.12A4.36,4.36,0,0,1,3.6,27.7Z"/><path class="cls-5" d="M14.77,2.81a4.37,4.37,0,0,1,4.78-.63L34.48,9.49a4.35,4.35,0,0,1,2.34,4.87l-3.28,14.8a4.36,4.36,0,0,1-3.72,3.41L12.41,34.8A4.33,4.33,0,0,1,8,32.43L1.1,18.92a4.42,4.42,0,0,1,1-5.32Z"/><path class="cls-6" d="M14,18.54l3.83,3.62,6.62-6.27"/></g></g></g></g></svg>