<svg width="24" height="24" viewBox="0 0 24 24" fill="none" xmlns="http://www.w3.org/2000/svg">
<path d="M7 6.2H8H8.9H15.1H16H17L17.9 4.5C18.2 4 18.2 3.4 17.9 2.9C17.6 2.3 17 2 16.4 2H7.6C7 2 6.4 2.3 6.1 2.8C5.8 3.3 5.8 3.9 6.1 4.4L7 6.2Z" fill="#color"/>
<path d="M20.6002 12.0001L17.3002 7.80011H16.2002H15.1002H8.8002H7.7002H6.7002L3.40019 12.0001C1.80019 14.0001 1.60019 16.7001 2.90019 18.9001C3.90019 20.8001 6.00019 22.0001 8.2002 22.0001H15.9002C18.1002 22.0001 20.2002 20.8001 21.3002 18.9001C22.4002 16.7001 22.2002 14.0001 20.6002 12.0001Z" fill="#color"/>
</svg>
