<svg width="20" height="20" viewBox="0 0 20 20" fill="none" xmlns="http://www.w3.org/2000/svg">
<path fill-rule="evenodd" clip-rule="evenodd" d="M14.4547 5.96933L14.0304 5.54506L10.0001 9.57534L5.9698 5.54499L5.54553 5.96926L9.57588 9.9996L5.54514 14.0303L5.9694 14.4546L10.0001 10.4239L14.0308 14.4545L14.4551 14.0303L10.4244 9.9996L14.4547 5.96933Z" fill="white"/>
<path d="M14.0304 5.54506L14.384 5.19151L14.0304 4.83796L13.6769 5.19151L14.0304 5.54506ZM14.4547 5.96933L14.8082 6.32288L15.1618 5.96933L14.8082 5.61578L14.4547 5.96933ZM10.0001 9.57534L9.64659 9.92889L10.0001 10.2824L10.3537 9.92889L10.0001 9.57534ZM5.9698 5.54499L6.32335 5.19144L5.9698 4.83788L5.61624 5.19144L5.9698 5.54499ZM5.54553 5.96926L5.19198 5.6157L4.83843 5.96926L5.19198 6.32281L5.54553 5.96926ZM9.57588 9.9996L9.92943 10.3532L10.283 9.9996L9.92943 9.64605L9.57588 9.9996ZM5.54514 14.0303L5.19158 13.6768L4.83803 14.0303L5.19158 14.3839L5.54514 14.0303ZM5.9694 14.4546L5.61585 14.8082L5.9694 15.1617L6.32295 14.8082L5.9694 14.4546ZM10.0001 10.4239L10.3537 10.0703L10.0001 9.71676L9.64659 10.0703L10.0001 10.4239ZM14.0308 14.4545L13.6773 14.8081L14.0308 15.1616L14.3844 14.8081L14.0308 14.4545ZM14.4551 14.0303L14.8086 14.3838L15.1622 14.0303L14.8086 13.6767L14.4551 14.0303ZM10.4244 9.9996L10.0709 9.64605L9.7173 9.9996L10.0709 10.3532L10.4244 9.9996ZM13.6769 5.89862L14.1011 6.32288L14.8082 5.61578L14.384 5.19151L13.6769 5.89862ZM10.3537 9.92889L14.384 5.89862L13.6769 5.19151L9.64659 9.22178L10.3537 9.92889ZM5.61624 5.89854L9.64659 9.92889L10.3537 9.22178L6.32335 5.19144L5.61624 5.89854ZM5.89909 6.32281L6.32335 5.89854L5.61624 5.19144L5.19198 5.6157L5.89909 6.32281ZM9.92943 9.64605L5.89909 5.6157L5.19198 6.32281L9.22233 10.3532L9.92943 9.64605ZM5.89869 14.3839L9.92943 10.3532L9.22233 9.64605L5.19158 13.6768L5.89869 14.3839ZM6.32295 14.1011L5.89869 13.6768L5.19158 14.3839L5.61585 14.8082L6.32295 14.1011ZM9.64659 10.0703L5.61585 14.1011L6.32295 14.8082L10.3537 10.7774L9.64659 10.0703ZM14.3844 14.101L10.3537 10.0703L9.64659 10.7774L13.6773 14.8081L14.3844 14.101ZM14.1015 13.6767L13.6773 14.101L14.3844 14.8081L14.8086 14.3838L14.1015 13.6767ZM10.0709 10.3532L14.1015 14.3838L14.8086 13.6767L10.778 9.64605L10.0709 10.3532ZM14.1011 5.61578L10.0709 9.64605L10.778 10.3532L14.8082 6.32288L14.1011 5.61578Z" fill="white"/>
</svg>
