<svg viewBox="0 0 32 32" fill="none" xmlns="http://www.w3.org/2000/svg">
<path d="M15.9993 29.3334C23.3631 29.3334 29.3327 23.3638 29.3327 16.0001C29.3327 8.63628 23.3631 2.66675 15.9993 2.66675C8.63555 2.66675 2.66602 8.63628 2.66602 16.0001C2.66602 23.3638 8.63555 29.3334 15.9993 29.3334Z" fill="#222222"/>
<path d="M19.1519 12.3228C18.4321 11.603 17.1647 11.1024 15.9998 11.0711M12.8477 19.1523C13.5248 20.0552 14.7839 20.5701 15.9998 20.6138M15.9998 11.0711C14.6138 11.0338 13.373 11.6608 13.373 13.3735C13.373 16.5256 19.1519 14.9495 19.1519 18.1016C19.1519 19.8994 17.6138 20.6718 15.9998 20.6138M15.9998 11.0711V9.17065M15.9998 20.6138V22.8298" stroke="white" stroke-width="1.18204" stroke-linecap="round" stroke-linejoin="round"/>
</svg>
