<svg viewBox="0 0 24 24" fill="none" xmlns="http://www.w3.org/2000/svg">
<path d="M9 15H7.5C7.10218 15 6.72064 14.842 6.43934 14.5607C6.15804 14.2794 6 13.8978 6 13.5V7.5C6 7.10218 6.15804 6.72064 6.43934 6.43934C6.72064 6.15804 7.10218 6 7.5 6H13.5C13.8978 6 14.2794 6.15804 14.5607 6.43934C14.842 6.72064 15 7.10218 15 7.5V9M10.5 18H16.5C16.8978 18 17.2794 17.842 17.5607 17.5607C17.842 17.2794 18 16.8978 18 16.5V10.5C18 10.1022 17.842 9.72064 17.5607 9.43934C17.2794 9.15804 16.8978 9 16.5 9H10.5C10.1022 9 9.72064 9.15804 9.43934 9.43934C9.15804 9.72064 9 10.1022 9 10.5V16.5C9 16.8978 9.15804 17.2794 9.43934 17.5607C9.72064 17.842 10.1022 18 10.5 18Z" stroke="white" stroke-width="1.25" stroke-linecap="round" stroke-linejoin="round"/>
</svg>
