<svg width="24" height="24" viewBox="0 0 24 24" fill="none" xmlns="http://www.w3.org/2000/svg">
<path d="M12.0016 5.11182C11.4945 5.11182 11.0089 5.3159 10.6514 5.67801C10.2941 6.04 10.094 6.53021 10.094 7.04062C10.094 7.55103 10.2941 8.04124 10.6514 8.40323C11.0089 8.76534 11.4945 8.96943 12.0016 8.96943C12.5086 8.96943 12.9942 8.76534 13.3517 8.40323C13.709 8.04124 13.9092 7.55103 13.9092 7.04062C13.9092 6.53021 13.709 6.04 13.3517 5.67801C12.9942 5.3159 12.5086 5.11182 12.0016 5.11182Z" fill="#999999"/>
<path d="M7.57167 7.47362C7.06459 7.47362 6.579 7.6777 6.22153 8.03981C5.86419 8.4018 5.66406 8.89201 5.66406 9.40242C5.66406 9.91283 5.86419 10.403 6.22153 10.765C6.579 11.1271 7.06459 11.3312 7.57167 11.3312C8.07876 11.3312 8.56434 11.1271 8.92181 10.765C9.27915 10.403 9.47928 9.91283 9.47928 9.40242C9.47928 8.89201 9.27915 8.4018 8.92181 8.03981C8.56434 7.67771 8.07876 7.47362 7.57167 7.47362Z" fill="#999999"/>
<path d="M16.4315 7.47362C15.9244 7.47362 15.4388 7.67771 15.0813 8.03981C14.724 8.4018 14.5238 8.89201 14.5238 9.40242C14.5238 9.91283 14.724 10.403 15.0813 10.765C15.4388 11.1271 15.9244 11.3312 16.4315 11.3312C16.9385 11.3312 17.4241 11.1271 17.7816 10.765C18.1389 10.403 18.3391 9.91283 18.3391 9.40242C18.3391 8.89201 18.1389 8.4018 17.7816 8.03981C17.4241 7.67771 16.9385 7.47362 16.4315 7.47362Z" fill="#999999"/>
<path d="M7.57167 12.6696C7.06459 12.6696 6.579 12.8737 6.22153 13.2358C5.86419 13.5978 5.66406 14.088 5.66406 14.5984C5.66406 15.1088 5.86419 15.599 6.22153 15.961C6.579 16.3231 7.06459 16.5272 7.57167 16.5272C8.07876 16.5272 8.56434 16.3231 8.92181 15.961C9.27915 15.599 9.47928 15.1088 9.47928 14.5984C9.47928 14.088 9.27915 13.5978 8.92181 13.2358C8.56434 12.8737 8.07876 12.6696 7.57167 12.6696Z" fill="#999999"/>
<path d="M16.4315 12.6696C15.9244 12.6696 15.4388 12.8737 15.0813 13.2358C14.724 13.5978 14.5238 14.088 14.5238 14.5984C14.5238 15.1088 14.724 15.599 15.0813 15.961C15.4388 16.3231 15.9244 16.5272 16.4315 16.5272C16.9385 16.5272 17.4241 16.3231 17.7816 15.961C18.1389 15.599 18.3391 15.1088 18.3391 14.5984C18.3391 14.088 18.1389 13.5978 17.7816 13.2358C17.4241 12.8737 16.9385 12.6696 16.4315 12.6696Z" fill="#999999"/>
<path d="M12.0016 15.0314C11.4945 15.0314 11.0089 15.2355 10.6514 15.5976C10.2941 15.9596 10.094 16.4498 10.094 16.9602C10.094 17.4706 10.2941 17.9608 10.6514 18.3228C11.0089 18.6849 11.4945 18.889 12.0016 18.889C12.5086 18.889 12.9942 18.6849 13.3517 18.3228C13.709 17.9608 13.9092 17.4706 13.9092 16.9602C13.9092 16.4498 13.709 15.9596 13.3517 15.5976C12.9942 15.2355 12.5086 15.0314 12.0016 15.0314Z" fill="#999999"/>
</svg>
