<svg width="18" height="18" viewBox="0 0 18 18" fill="none" xmlns="http://www.w3.org/2000/svg">
<g id="Frame">
<g id="Vector">
<path d="M4.8675 1.65444H5.955V16.249H4.8675C3.1275 16.249 1.75 14.8626 1.75 13.1112V4.79228C1.75 3.04093 3.1275 1.65444 4.8675 1.65444Z" fill="white"/>
<path fill-rule="evenodd" clip-rule="evenodd" d="M16.2511 13.184V4.79214C16.2511 3.04078 14.8736 1.6543 13.1336 1.6543H7.33359V16.3219H13.1336C14.8736 16.3219 16.2511 14.8624 16.2511 13.184ZM9.57969 9.68153H13.7122C14.1472 9.68153 14.4372 9.38964 14.4372 8.9518C14.4372 8.51396 14.1472 8.22207 13.7122 8.22207H9.57969C9.14469 8.22207 8.85469 8.51396 8.85469 8.9518C8.85469 9.38964 9.14469 9.68153 9.57969 9.68153ZM13.7122 13.8411H9.57969C9.14469 13.8411 8.85469 13.5492 8.85469 13.1114C8.85469 12.6735 9.14469 12.3816 9.57969 12.3816H13.7122C14.1472 12.3816 14.4372 12.6735 14.4372 13.1114C14.4372 13.5492 14.1472 13.8411 13.7122 13.8411ZM9.57969 5.52196H13.7122C14.1472 5.52196 14.4372 5.23007 14.4372 4.79223C14.4372 4.35439 14.1472 4.0625 13.7122 4.0625H9.57969C9.14469 4.0625 8.85469 4.35439 8.85469 4.79223C8.85469 5.23007 9.14469 5.52196 9.57969 5.52196Z" fill="white"/>
</g>
</g>
</svg>
