<svg width="16" height="16" viewBox="0 0 16 16" fill="none" xmlns="http://www.w3.org/2000/svg">
<path d="M12.5 4.99996H10V4.16496C9.98827 3.84487 9.8501 3.54249 9.61579 3.3241C9.38147 3.10572 9.07012 2.98915 8.75 2.99996H7.25C6.92988 2.98915 6.61853 3.10572 6.38421 3.3241C6.1499 3.54249 6.01173 3.84487 6 4.16496V4.99996H3.5C3.36739 4.99996 3.24021 5.05264 3.14645 5.1464C3.05268 5.24017 3 5.36735 3 5.49996C3 5.63257 3.05268 5.75974 3.14645 5.85351C3.24021 5.94728 3.36739 5.99996 3.5 5.99996H4V11.5C4 11.8978 4.15804 12.2793 4.43934 12.5606C4.72064 12.8419 5.10218 13 5.5 13H10.5C10.8978 13 11.2794 12.8419 11.5607 12.5606C11.842 12.2793 12 11.8978 12 11.5V5.99996H12.5C12.6326 5.99996 12.7598 5.94728 12.8536 5.85351C12.9473 5.75974 13 5.63257 13 5.49996C13 5.36735 12.9473 5.24017 12.8536 5.1464C12.7598 5.05264 12.6326 4.99996 12.5 4.99996ZM7 4.16496C7 4.08496 7.105 3.99996 7.25 3.99996H8.75C8.895 3.99996 9 4.08496 9 4.16496V4.99996H7V4.16496ZM11 11.5C11 11.6326 10.9473 11.7597 10.8536 11.8535C10.7598 11.9473 10.6326 12 10.5 12H5.5C5.36739 12 5.24021 11.9473 5.14645 11.8535C5.05268 11.7597 5 11.6326 5 11.5V5.99996H11V11.5Z" fill="#F46F76"/>
<path d="M6.5 10.5C6.63261 10.5 6.75979 10.4473 6.85355 10.3536C6.94732 10.2598 7 10.1326 7 10V8C7 7.86739 6.94732 7.74021 6.85355 7.64645C6.75979 7.55268 6.63261 7.5 6.5 7.5C6.36739 7.5 6.24021 7.55268 6.14645 7.64645C6.05268 7.74021 6 7.86739 6 8V10C6 10.1326 6.05268 10.2598 6.14645 10.3536C6.24021 10.4473 6.36739 10.5 6.5 10.5Z" fill="#F46F76"/>
<path d="M9.5 10.5C9.63261 10.5 9.75979 10.4473 9.85355 10.3536C9.94732 10.2598 10 10.1326 10 10V8C10 7.86739 9.94732 7.74021 9.85355 7.64645C9.75979 7.55268 9.63261 7.5 9.5 7.5C9.36739 7.5 9.24021 7.55268 9.14645 7.64645C9.05268 7.74021 9 7.86739 9 8V10C9 10.1326 9.05268 10.2598 9.14645 10.3536C9.24021 10.4473 9.36739 10.5 9.5 10.5Z" fill="#F46F76"/>
</svg>
