<svg width="12" height="12" viewBox="0 0 12 12" fill="none" xmlns="http://www.w3.org/2000/svg">
<path d="M10.4999 3.00069H7.99994V2.16569C7.98821 1.8456 7.85004 1.54322 7.61572 1.32484C7.38141 1.10645 7.07006 0.989886 6.74994 1.00069H5.24994C4.92982 0.989886 4.61847 1.10645 4.38415 1.32484C4.14984 1.54322 4.01167 1.8456 3.99994 2.16569V3.00069H1.49994C1.36733 3.00069 1.24015 3.05337 1.14639 3.14714C1.05262 3.2409 0.999939 3.36808 0.999939 3.50069C0.999939 3.6333 1.05262 3.76047 1.14639 3.85424C1.24015 3.94801 1.36733 4.00069 1.49994 4.00069H1.99994V9.50069C1.99994 9.89851 2.15797 10.28 2.43928 10.5613C2.72058 10.8427 3.10211 11.0007 3.49994 11.0007H8.49994C8.89776 11.0007 9.27929 10.8427 9.5606 10.5613C9.8419 10.28 9.99994 9.89851 9.99994 9.50069V4.00069H10.4999C10.6325 4.00069 10.7597 3.94801 10.8535 3.85424C10.9473 3.76047 10.9999 3.6333 10.9999 3.50069C10.9999 3.36808 10.9473 3.2409 10.8535 3.14714C10.7597 3.05337 10.6325 3.00069 10.4999 3.00069ZM4.99994 2.16569C4.99994 2.08569 5.10494 2.00069 5.24994 2.00069H6.74994C6.89494 2.00069 6.99994 2.08569 6.99994 2.16569V3.00069H4.99994V2.16569ZM8.99994 9.50069C8.99994 9.6333 8.94726 9.76048 8.85349 9.85424C8.75972 9.94801 8.63255 10.0007 8.49994 10.0007H3.49994C3.36733 10.0007 3.24015 9.94801 3.14639 9.85424C3.05262 9.76048 2.99994 9.6333 2.99994 9.50069V4.00069H8.99994V9.50069Z" fill="#F46F76"/>
<path d="M4.49994 8.5C4.63255 8.5 4.75972 8.44732 4.85349 8.35355C4.94726 8.25979 4.99994 8.13261 4.99994 8V6C4.99994 5.86739 4.94726 5.74021 4.85349 5.64645C4.75972 5.55268 4.63255 5.5 4.49994 5.5C4.36733 5.5 4.24015 5.55268 4.14639 5.64645C4.05262 5.74021 3.99994 5.86739 3.99994 6V8C3.99994 8.13261 4.05262 8.25979 4.14639 8.35355C4.24015 8.44732 4.36733 8.5 4.49994 8.5Z" fill="#F46F76"/>
<path d="M7.49994 8.5C7.63255 8.5 7.75972 8.44732 7.85349 8.35355C7.94726 8.25979 7.99994 8.13261 7.99994 8V6C7.99994 5.86739 7.94726 5.74021 7.85349 5.64645C7.75972 5.55268 7.63255 5.5 7.49994 5.5C7.36733 5.5 7.24015 5.55268 7.14639 5.64645C7.05262 5.74021 6.99994 5.86739 6.99994 6V8C6.99994 8.13261 7.05262 8.25979 7.14639 8.35355C7.24015 8.44732 7.36733 8.5 7.49994 8.5Z" fill="#F46F76"/>
</svg>
