<svg viewBox="0 0 28 28" fill="none" xmlns="http://www.w3.org/2000/svg">
<path fill-rule="evenodd" clip-rule="evenodd" d="M11.322 5.90039C11.322 5.34811 10.8743 4.90039 10.322 4.90039H5.89844C5.34615 4.90039 4.89844 5.34811 4.89844 5.90039V10.3239C4.89844 10.8762 5.34615 11.3239 5.89844 11.3239H10.322C10.8743 11.3239 11.322 10.8762 11.322 10.3239V5.90039ZM11.322 17.6769C11.322 17.1246 10.8743 16.6769 10.322 16.6769H5.89844C5.34615 16.6769 4.89844 17.1246 4.89844 17.6769V22.1004C4.89844 22.6527 5.34615 23.1004 5.89844 23.1004H10.322C10.8743 23.1004 11.322 22.6527 11.322 22.1004V17.6769ZM16.6749 5.90039C16.6749 5.34811 17.1226 4.90039 17.6749 4.90039H22.0984C22.6507 4.90039 23.0984 5.34811 23.0984 5.90039V10.3239C23.0984 10.8762 22.6507 11.3239 22.0984 11.3239H17.6749C17.1226 11.3239 16.6749 10.8762 16.6749 10.3239V5.90039ZM23.0984 17.6769C23.0984 17.1246 22.6507 16.6769 22.0984 16.6769H17.6749C17.1226 16.6769 16.6749 17.1246 16.6749 17.6769V22.1004C16.6749 22.6527 17.1226 23.1004 17.6749 23.1004H22.0984C22.6507 23.1004 23.0984 22.6527 23.0984 22.1004V17.6769ZM15.069 8.11216C15.069 8.49047 14.7623 8.79716 14.384 8.79716H13.6128C13.2345 8.79716 12.9278 8.49047 12.9278 8.11216C12.9278 7.73384 13.2345 7.42716 13.6128 7.42716H14.384C14.7623 7.42716 15.069 7.73384 15.069 8.11216ZM8.1102 15.071C8.48852 15.071 8.7952 14.7643 8.7952 14.386L8.7952 13.6148C8.7952 13.2365 8.48852 12.9298 8.1102 12.9298C7.73189 12.9298 7.4252 13.2365 7.4252 13.6148V14.386C7.4252 14.7643 7.73189 15.071 8.1102 15.071ZM15.069 19.8886C15.069 20.2669 14.7623 20.5736 14.384 20.5736H13.6129C13.2345 20.5736 12.9278 20.2669 12.9278 19.8886C12.9278 19.5103 13.2345 19.2036 13.6129 19.2036H14.384C14.7623 19.2036 15.069 19.5103 15.069 19.8886ZM19.8867 15.071C20.265 15.071 20.5717 14.7643 20.5717 14.386V13.6148C20.5717 13.2365 20.265 12.9298 19.8867 12.9298C19.5084 12.9298 19.2017 13.2365 19.2017 13.6148V14.386C19.2017 14.7643 19.5084 15.071 19.8867 15.071Z" fill="url(#paint0_linear_13170_12068)"/>
<defs>
<linearGradient id="paint0_linear_13170_12068" x1="4.89844" y1="14.0004" x2="23.0984" y2="14.0004" gradientUnits="userSpaceOnUse">
<stop stop-color="#5433FF"/>
<stop offset="0.5" stop-color="#20BDFF"/>
<stop offset="1" stop-color="#A5FECB"/>
</linearGradient>
</defs>
</svg>
