<svg width="17" height="16" viewBox="0 0 17 16" fill="none" xmlns="http://www.w3.org/2000/svg">
<path d="M16.8578 4.37503L14.2474 0.459457C14.1263 0.277663 13.9228 0.168701 13.7045 0.168701H3.26293C3.04457 0.168701 2.84109 0.277663 2.72001 0.459457L0.109626 4.37503C-0.0437644 4.60534 -0.0356052 4.90718 0.130456 5.12873L7.96161 15.5703C8.08499 15.7344 8.27844 15.8313 8.48368 15.8313C8.68893 15.8313 8.88281 15.7344 9.00576 15.5703L16.8369 5.12873C17.0027 4.90687 17.0114 4.60505 16.8577 4.37503H16.8578ZM15.0955 4.08428H12.2172L11.3473 1.47389H13.3553L15.0955 4.08428ZM4.75052 5.38947L6.98463 12.0918L1.95778 5.38947H4.75052ZM10.8413 5.38947L8.48378 12.4621L6.12626 5.38947H10.8413ZM6.12619 4.08428L6.99642 1.47389H9.97125L10.8412 4.08428H6.12619ZM12.217 5.38947H15.0097L9.98325 12.0918L12.217 5.38947ZM3.61202 1.47389H5.62033L4.75011 4.08428H1.87182L3.61202 1.47389Z" fill="#color"/>
</svg>
