<svg viewBox="0 0 100 100" fill="none" xmlns="http://www.w3.org/2000/svg">
<g clip-path="url(#clip0_13440_257867)">
<rect width="100" height="100" fill="black"/>
<g filter="url(#filter0_f_13440_257867)">
<circle cx="50" cy="50" r="24.25" stroke="url(#paint0_radial_13440_257867)" stroke-width="17.5"/>
</g>
<mask id="mask0_13440_257867" style="mask-type:alpha" maskUnits="userSpaceOnUse" x="17" y="17" width="66" height="66">
<circle cx="50" cy="50" r="33" fill="black"/>
</mask>
<g mask="url(#mask0_13440_257867)">
<g filter="url(#filter1_f_13440_257867)">
<circle cx="50" cy="61.9287" r="48" fill="black"/>
</g>
</g>
<circle cx="50" cy="50" r="32.5" stroke="url(#paint1_radial_13440_257867)"/>
<circle cx="50" cy="50" r="32.5" stroke="url(#paint2_radial_13440_257867)"/>
<mask id="mask1_13440_257867" style="mask-type:alpha" maskUnits="userSpaceOnUse" x="3" y="3" width="94" height="94">
<circle cx="50" cy="50" r="47" fill="black"/>
</mask>
<g mask="url(#mask1_13440_257867)">
</g>
<g opacity="0.25">
<path d="M47.8239 55.7015C47.7624 55.6471 47.7238 55.5714 47.7162 55.4897L47.1044 48.9818H49.2815V56.2726C49.2815 56.5507 48.9534 56.6987 48.7449 56.5147L47.8239 55.7015Z" fill="black"/>
<path d="M47.8239 55.7015C47.7624 55.6471 47.7238 55.5714 47.7162 55.4897L47.1044 48.9818H49.2815V56.2726C49.2815 56.5507 48.9534 56.6987 48.7449 56.5147L47.8239 55.7015Z" fill="url(#paint3_angular_13440_257867)"/>
<path d="M49.2815 48.8526V47.9441L46.9883 47.746L47.0923 48.8526H49.2815Z" fill="black"/>
<path d="M49.2815 48.8526V47.9441L46.9883 47.746L47.0923 48.8526H49.2815Z" fill="url(#paint4_angular_13440_257867)"/>
<path d="M49.2815 47.8145L46.976 47.6153L46.6156 43.7818C46.5978 43.5924 46.7468 43.4287 46.9371 43.4287H48.9586C49.1369 43.4287 49.2815 43.5733 49.2815 43.7516V47.8145Z" fill="black"/>
<path d="M49.2815 47.8145L46.976 47.6153L46.6156 43.7818C46.5978 43.5924 46.7468 43.4287 46.9371 43.4287H48.9586C49.1369 43.4287 49.2815 43.5733 49.2815 43.7516V47.8145Z" fill="url(#paint5_angular_13440_257867)"/>
<path d="M53.5365 48.8526H55.1961C55.2852 48.8526 55.3575 48.7803 55.3575 48.6912V47.7392C55.3575 47.6438 55.2753 47.5692 55.1804 47.5785L53.6393 47.729L53.5365 48.8526Z" fill="black"/>
<path d="M53.5365 48.8526H55.1961C55.2852 48.8526 55.3575 48.7803 55.3575 48.6912V47.7392C55.3575 47.6438 55.2753 47.5692 55.1804 47.5785L53.6393 47.729L53.5365 48.8526Z" fill="url(#paint6_angular_13440_257867)"/>
<path d="M53.5085 47.7418L51.2121 47.966V48.8526H53.4069L53.5085 47.7418Z" fill="black"/>
<path d="M53.5085 47.7418L51.2121 47.966V48.8526H53.4069L53.5085 47.7418Z" fill="url(#paint7_angular_13440_257867)"/>
<path d="M51.083 47.9786V48.8526H44.9682C44.8791 48.8526 44.8068 48.7803 44.8068 48.6912V47.737C44.8068 47.6424 44.8877 47.5681 44.982 47.5762L50.4164 48.041C50.4262 48.0418 50.4361 48.0418 50.4459 48.0408L51.083 47.9786Z" fill="black"/>
<path d="M51.083 47.9786V48.8526H44.9682C44.8791 48.8526 44.8068 48.7803 44.8068 48.6912V47.737C44.8068 47.6424 44.8877 47.5681 44.982 47.5762L50.4164 48.041C50.4262 48.0418 50.4361 48.0418 50.4459 48.0408L51.083 47.9786Z" fill="url(#paint8_angular_13440_257867)"/>
<path d="M51.7648 56.4927C51.5621 56.6982 51.2121 56.5547 51.2121 56.266V46.2505H53.648L52.8006 55.3388C52.7937 55.413 52.7614 55.4825 52.709 55.5355L51.7648 56.4927Z" fill="black"/>
<path d="M51.7648 56.4927C51.5621 56.6982 51.2121 56.5547 51.2121 56.266V46.2505H53.648L52.8006 55.3388C52.7937 55.413 52.7614 55.4825 52.709 55.5355L51.7648 56.4927Z" fill="url(#paint9_angular_13440_257867)"/>
<path d="M53.6601 46.1213H51.2121V44.7294L53.8049 44.5676L53.6601 46.1213Z" fill="black"/>
<path d="M53.6601 46.1213H51.2121V44.7294L53.8049 44.5676L53.6601 46.1213Z" fill="url(#paint10_angular_13440_257867)"/>
<path d="M51.2121 43.7516V44.6L53.8171 44.4375L53.8782 43.7816C53.8959 43.5923 53.7469 43.4288 53.5568 43.4288H51.535C51.3567 43.4288 51.2121 43.5733 51.2121 43.7516Z" fill="black"/>
<path d="M51.2121 43.7516V44.6L53.8171 44.4375L53.8782 43.7816C53.8959 43.5923 53.7469 43.4288 53.5568 43.4288H51.535C51.3567 43.4288 51.2121 43.5733 51.2121 43.7516Z" fill="url(#paint11_angular_13440_257867)"/>
<path d="M49.2815 46.1213V44.7334L46.6919 44.606L46.8335 46.1213H49.2815Z" fill="black"/>
<path d="M49.2815 46.1213V44.7334L46.6919 44.606L46.8335 46.1213H49.2815Z" fill="url(#paint12_angular_13440_257867)"/>
<path d="M49.4106 46.1213H55.9386C56.0099 46.1213 56.0678 46.0635 56.0678 45.9922V44.5575C56.0678 44.483 56.0048 44.4239 55.9304 44.4286L50.3243 44.7847L49.4106 44.7398V46.1213Z" fill="black"/>
<path d="M49.4106 46.1213H55.9386C56.0099 46.1213 56.0678 46.0635 56.0678 45.9922V44.5575C56.0678 44.483 56.0048 44.4239 55.9304 44.4286L50.3243 44.7847L49.4106 44.7398V46.1213Z" fill="url(#paint13_angular_13440_257867)"/>
<path d="M46.5509 44.599L46.7056 46.1213H44.0901C44.0188 46.1213 43.9609 46.0635 43.9609 45.9922V44.6072C43.9609 44.5334 44.0227 44.4746 44.0964 44.4782L46.5509 44.599Z" fill="black"/>
<path d="M46.5509 44.599L46.7056 46.1213H44.0901C44.0188 46.1213 43.9609 46.0635 43.9609 45.9922V44.6072C43.9609 44.5334 44.0227 44.4746 44.0964 44.4782L46.5509 44.599Z" fill="url(#paint14_angular_13440_257867)"/>
</g>
<path d="M47.7966 55.6761C47.735 55.6217 47.6965 55.546 47.6888 55.4643L47.0771 48.9564H49.2541V56.2472C49.2541 56.5253 48.926 56.6733 48.7176 56.4893L47.7966 55.6761Z" fill="black"/>
<path d="M47.7966 55.6761C47.735 55.6217 47.6965 55.546 47.6888 55.4643L47.0771 48.9564H49.2541V56.2472C49.2541 56.5253 48.926 56.6733 48.7176 56.4893L47.7966 55.6761Z" fill="url(#paint15_angular_13440_257867)"/>
<path d="M49.2541 48.8272V47.9188L46.9609 47.7206L47.0649 48.8272H49.2541Z" fill="black"/>
<path d="M49.2541 48.8272V47.9188L46.9609 47.7206L47.0649 48.8272H49.2541Z" fill="url(#paint16_angular_13440_257867)"/>
<path d="M49.2541 47.7891L46.9486 47.5899L46.5883 43.7564C46.5705 43.567 46.7195 43.4033 46.9097 43.4033H48.9313C49.1096 43.4033 49.2541 43.5479 49.2541 43.7262V47.7891Z" fill="black"/>
<path d="M49.2541 47.7891L46.9486 47.5899L46.5883 43.7564C46.5705 43.567 46.7195 43.4033 46.9097 43.4033H48.9313C49.1096 43.4033 49.2541 43.5479 49.2541 43.7262V47.7891Z" fill="url(#paint17_angular_13440_257867)"/>
<path d="M53.5092 48.8272H55.1687C55.2579 48.8272 55.3302 48.7549 55.3302 48.6658V47.7138C55.3302 47.6184 55.2479 47.5438 55.153 47.5531L53.612 47.7036L53.5092 48.8272Z" fill="black"/>
<path d="M53.5092 48.8272H55.1687C55.2579 48.8272 55.3302 48.7549 55.3302 48.6658V47.7138C55.3302 47.6184 55.2479 47.5438 55.153 47.5531L53.612 47.7036L53.5092 48.8272Z" fill="url(#paint18_angular_13440_257867)"/>
<path d="M53.4812 47.7164L51.1848 47.9406V48.8272H53.3795L53.4812 47.7164Z" fill="black"/>
<path d="M53.4812 47.7164L51.1848 47.9406V48.8272H53.3795L53.4812 47.7164Z" fill="url(#paint19_angular_13440_257867)"/>
<path d="M51.0556 47.9532V48.8272H44.9409C44.8517 48.8272 44.7795 48.7549 44.7795 48.6658V47.7116C44.7795 47.6171 44.8604 47.5427 44.9546 47.5508L50.3891 48.0156C50.3989 48.0164 50.4087 48.0164 50.4185 48.0154L51.0556 47.9532Z" fill="black"/>
<path d="M51.0556 47.9532V48.8272H44.9409C44.8517 48.8272 44.7795 48.7549 44.7795 48.6658V47.7116C44.7795 47.6171 44.8604 47.5427 44.9546 47.5508L50.3891 48.0156C50.3989 48.0164 50.4087 48.0164 50.4185 48.0154L51.0556 47.9532Z" fill="url(#paint20_angular_13440_257867)"/>
<path d="M51.7375 56.4673C51.5347 56.6728 51.1848 56.5293 51.1848 56.2406V46.2251H53.6207L52.7733 55.3134C52.7664 55.3876 52.734 55.4571 52.6817 55.5101L51.7375 56.4673Z" fill="black"/>
<path d="M51.7375 56.4673C51.5347 56.6728 51.1848 56.5293 51.1848 56.2406V46.2251H53.6207L52.7733 55.3134C52.7664 55.3876 52.734 55.4571 52.6817 55.5101L51.7375 56.4673Z" fill="url(#paint21_angular_13440_257867)"/>
<path d="M53.6327 46.0959H51.1848V44.704L53.7776 44.5422L53.6327 46.0959Z" fill="black"/>
<path d="M53.6327 46.0959H51.1848V44.704L53.7776 44.5422L53.6327 46.0959Z" fill="url(#paint22_angular_13440_257867)"/>
<path d="M51.1848 43.7262V44.5746L53.7897 44.4121L53.8509 43.7562C53.8685 43.5669 53.7196 43.4034 53.5294 43.4034H51.5076C51.3293 43.4034 51.1848 43.5479 51.1848 43.7262Z" fill="black"/>
<path d="M51.1848 43.7262V44.5746L53.7897 44.4121L53.8509 43.7562C53.8685 43.5669 53.7196 43.4034 53.5294 43.4034H51.5076C51.3293 43.4034 51.1848 43.5479 51.1848 43.7262Z" fill="url(#paint23_angular_13440_257867)"/>
<path d="M49.2541 46.0959V44.708L46.6645 44.5806L46.8062 46.0959H49.2541Z" fill="black"/>
<path d="M49.2541 46.0959V44.708L46.6645 44.5806L46.8062 46.0959H49.2541Z" fill="url(#paint24_angular_13440_257867)"/>
<path d="M49.3833 46.0959H55.9113C55.9826 46.0959 56.0404 46.0381 56.0404 45.9668V44.5321C56.0404 44.4576 55.9775 44.3985 55.9031 44.4032L50.2969 44.7593L49.3833 44.7144V46.0959Z" fill="black"/>
<path d="M49.3833 46.0959H55.9113C55.9826 46.0959 56.0404 46.0381 56.0404 45.9668V44.5321C56.0404 44.4576 55.9775 44.3985 55.9031 44.4032L50.2969 44.7593L49.3833 44.7144V46.0959Z" fill="url(#paint25_angular_13440_257867)"/>
<path d="M46.5236 44.5736L46.6783 46.0959H44.0627C43.9914 46.0959 43.9336 46.0381 43.9336 45.9668V44.5818C43.9336 44.508 43.9954 44.4492 44.0691 44.4528L46.5236 44.5736Z" fill="black"/>
<path d="M46.5236 44.5736L46.6783 46.0959H44.0627C43.9914 46.0959 43.9336 46.0381 43.9336 45.9668V44.5818C43.9336 44.508 43.9954 44.4492 44.0691 44.4528L46.5236 44.5736Z" fill="url(#paint26_angular_13440_257867)"/>
<path d="M47.0669 47.6002L46.9486 47.5899L46.8082 46.0959H46.8062L46.6645 44.5806L46.6658 44.5806L46.5883 43.7564C46.5705 43.567 46.7195 43.4033 46.9097 43.4033H48.9313C49.0537 43.4033 49.1602 43.4715 49.215 43.5719C49.1691 43.5469 49.1166 43.5328 49.0608 43.5328H47.0392C46.849 43.5328 46.7 43.6964 46.7178 43.8858L46.7953 44.7101L46.794 44.71L46.9357 46.2254H46.9377L47.0669 47.6002Z" fill="black"/>
<path d="M47.0669 47.6002L46.9486 47.5899L46.8082 46.0959H46.8062L46.6645 44.5806L46.6658 44.5806L46.5883 43.7564C46.5705 43.567 46.7195 43.4033 46.9097 43.4033H48.9313C49.0537 43.4033 49.1602 43.4715 49.215 43.5719C49.1691 43.5469 49.1166 43.5328 49.0608 43.5328H47.0392C46.849 43.5328 46.7 43.6964 46.7178 43.8858L46.7953 44.7101L46.794 44.71L46.9357 46.2254H46.9377L47.0669 47.6002Z" fill="url(#paint27_angular_13440_257867)"/>
<path d="M49.3836 46.0959H49.5128V44.8438L50.4264 44.8888L56.0326 44.5327C56.0352 44.5325 56.0378 44.5324 56.0404 44.5324V44.5321C56.0404 44.4576 55.9775 44.3985 55.9031 44.4032L53.9204 44.5292L53.9192 44.5415L51.3143 44.704V44.6947L50.2969 44.7593L49.3836 44.7144L49.3836 46.0959Z" fill="black"/>
<path d="M49.3836 46.0959H49.5128V44.8438L50.4264 44.8888L56.0326 44.5327C56.0352 44.5325 56.0378 44.5324 56.0404 44.5324V44.5321C56.0404 44.4576 55.9775 44.3985 55.9031 44.4032L53.9204 44.5292L53.9192 44.5415L51.3143 44.704V44.6947L50.2969 44.7593L49.3836 44.7144L49.3836 46.0959Z" fill="url(#paint28_angular_13440_257867)"/>
<path d="M53.8131 43.5719C53.7674 43.547 53.7149 43.5328 53.6589 43.5328H51.6371C51.4588 43.5328 51.3143 43.6773 51.3143 43.8557V44.5665L51.1848 44.5746V43.7262C51.1848 43.5479 51.3293 43.4034 51.5076 43.4034H53.5294C53.6527 43.4034 53.7586 43.472 53.8131 43.5719Z" fill="black"/>
<path d="M53.8131 43.5719C53.7674 43.547 53.7149 43.5328 53.6589 43.5328H51.6371C51.4588 43.5328 51.3143 43.6773 51.3143 43.8557V44.5665L51.1848 44.5746V43.7262C51.1848 43.5479 51.3293 43.4034 51.5076 43.4034H53.5294C53.6527 43.4034 53.7586 43.472 53.8131 43.5719Z" fill="url(#paint29_angular_13440_257867)"/>
<path d="M51.1848 46.2254H53.6207L53.6086 46.3545H51.3143V56.37C51.3143 56.4274 51.3281 56.4791 51.3519 56.5235C51.2555 56.4709 51.1848 56.3704 51.1848 56.2406V48.9566H51.1851V48.0826L51.1848 48.0827V46.2254Z" fill="black"/>
<path d="M51.1848 46.2254H53.6207L53.6086 46.3545H51.3143V56.37C51.3143 56.4274 51.3281 56.4791 51.3519 56.5235C51.2555 56.4709 51.1848 56.3704 51.1848 56.2406V48.9566H51.1851V48.0826L51.1848 48.0827V46.2254Z" fill="url(#paint30_angular_13440_257867)"/>
<path d="M51.0556 48.0953V47.9532L50.4185 48.0154C50.4087 48.0164 50.3989 48.0164 50.3891 48.0156L46.9609 47.7206L46.9611 47.7224L44.9546 47.5508C44.8604 47.5427 44.7795 47.6171 44.7795 47.7116V48.6658C44.7795 48.7449 44.8364 48.8108 44.9116 48.8246C44.9098 48.815 44.9089 48.8052 44.9089 48.7952V47.8411C44.9089 47.7465 44.9899 47.6722 45.0841 47.6802L47.0906 47.8518L47.0904 47.8501L50.5186 48.145C50.5284 48.1459 50.5382 48.1458 50.548 48.1449L51.0556 48.0953Z" fill="black"/>
<path d="M51.0556 48.0953V47.9532L50.4185 48.0154C50.4087 48.0164 50.3989 48.0164 50.3891 48.0156L46.9609 47.7206L46.9611 47.7224L44.9546 47.5508C44.8604 47.5427 44.7795 47.6171 44.7795 47.7116V48.6658C44.7795 48.7449 44.8364 48.8108 44.9116 48.8246C44.9098 48.815 44.9089 48.8052 44.9089 48.7952V47.8411C44.9089 47.7465 44.9899 47.6722 45.0841 47.6802L47.0906 47.8518L47.0904 47.8501L50.5186 48.145C50.5284 48.1459 50.5382 48.1458 50.548 48.1449L51.0556 48.0953Z" fill="url(#paint31_angular_13440_257867)"/>
<path d="M47.0771 48.9566L47.6888 55.4643C47.6965 55.546 47.735 55.6217 47.7966 55.6761L47.87 55.7409C47.8412 55.6971 47.8233 55.6467 47.8183 55.5937L47.2066 49.0858H49.2541V48.9567L47.0771 48.9566Z" fill="black"/>
<path d="M47.0771 48.9566L47.6888 55.4643C47.6965 55.546 47.735 55.6217 47.7966 55.6761L47.87 55.7409C47.8412 55.6971 47.8233 55.6467 47.8183 55.5937L47.2066 49.0858H49.2541V48.9567L47.0771 48.9566Z" fill="url(#paint32_angular_13440_257867)"/>
<path d="M53.5208 48.8272H53.6505L53.7415 47.833L55.2825 47.6825C55.2979 47.681 55.313 47.6817 55.3275 47.6844C55.3127 47.6036 55.2379 47.5448 55.153 47.5531L53.6245 47.7024L53.5848 48.1283L53.5208 48.8272Z" fill="black"/>
<path d="M53.5208 48.8272H53.6505L53.7415 47.833L55.2825 47.6825C55.2979 47.681 55.313 47.6817 55.3275 47.6844C55.3127 47.6036 55.2379 47.5448 55.153 47.5531L53.6245 47.7024L53.5848 48.1283L53.5208 48.8272Z" fill="url(#paint33_angular_13440_257867)"/>
<path d="M46.5361 44.6973L46.5236 44.5736L44.0691 44.4528C43.9954 44.4492 43.9336 44.508 43.9336 44.5818V45.9668C43.9336 46.0381 43.9914 46.0959 44.0627 46.0959H44.0631V44.7113C44.0631 44.6374 44.1248 44.5786 44.1986 44.5823L46.5361 44.6973Z" fill="black"/>
<path d="M46.5361 44.6973L46.5236 44.5736L44.0691 44.4528C43.9954 44.4492 43.9336 44.508 43.9336 44.5818V45.9668C43.9336 46.0381 43.9914 46.0959 44.0627 46.0959H44.0631V44.7113C44.0631 44.6374 44.1248 44.5786 44.1986 44.5823L46.5361 44.6973Z" fill="url(#paint34_angular_13440_257867)"/>
<g filter="url(#filter2_f_13440_257867)">
<circle cx="50" cy="50" r="49.5" transform="matrix(1 0 0 -1 0 100)" stroke="url(#paint35_radial_13440_257867)"/>
</g>
<g filter="url(#filter3_f_13440_257867)">
<circle cx="50" cy="50" r="39.5" stroke="url(#paint36_radial_13440_257867)" stroke-width="21"/>
</g>
<circle cx="47" cy="47" r="46.5" transform="matrix(1 0 0 -1 3 97)" stroke="url(#paint37_radial_13440_257867)"/>
<circle cx="50" cy="50" r="46.5" stroke="url(#paint38_radial_13440_257867)"/>
</g>
<defs>
<filter id="filter0_f_13440_257867" x="-9" y="-9" width="118" height="118" filterUnits="userSpaceOnUse" color-interpolation-filters="sRGB">
<feFlood flood-opacity="0" result="BackgroundImageFix"/>
<feBlend mode="normal" in="SourceGraphic" in2="BackgroundImageFix" result="shape"/>
<feGaussianBlur stdDeviation="13" result="effect1_foregroundBlur_13440_257867"/>
</filter>
<filter id="filter1_f_13440_257867" x="-96" y="-84.0713" width="292" height="292" filterUnits="userSpaceOnUse" color-interpolation-filters="sRGB">
<feFlood flood-opacity="0" result="BackgroundImageFix"/>
<feBlend mode="normal" in="SourceGraphic" in2="BackgroundImageFix" result="shape"/>
<feGaussianBlur stdDeviation="49" result="effect1_foregroundBlur_13440_257867"/>
</filter>
<filter id="filter2_f_13440_257867" x="-35" y="-35" width="170" height="170" filterUnits="userSpaceOnUse" color-interpolation-filters="sRGB">
<feFlood flood-opacity="0" result="BackgroundImageFix"/>
<feBlend mode="normal" in="SourceGraphic" in2="BackgroundImageFix" result="shape"/>
<feGaussianBlur stdDeviation="17.5" result="effect1_foregroundBlur_13440_257867"/>
</filter>
<filter id="filter3_f_13440_257867" x="-35" y="-35" width="170" height="170" filterUnits="userSpaceOnUse" color-interpolation-filters="sRGB">
<feFlood flood-opacity="0" result="BackgroundImageFix"/>
<feBlend mode="normal" in="SourceGraphic" in2="BackgroundImageFix" result="shape"/>
<feGaussianBlur stdDeviation="17.5" result="effect1_foregroundBlur_13440_257867"/>
</filter>
<radialGradient id="paint0_radial_13440_257867" cx="0" cy="0" r="1" gradientUnits="userSpaceOnUse" gradientTransform="translate(50 17) rotate(90) scale(66)">
<stop offset="0.0859675" stop-color="#6C717B"/>
<stop offset="0.270032" stop-color="#848B94"/>
<stop offset="0.894562" stop-opacity="0"/>
</radialGradient>
<radialGradient id="paint1_radial_13440_257867" cx="0" cy="0" r="1" gradientUnits="userSpaceOnUse" gradientTransform="translate(50 17) rotate(90) scale(66)">
<stop stop-color="#454545"/>
<stop offset="0.484375" stop-color="#B3B3B3" stop-opacity="0.43"/>
<stop offset="0.894562" stop-color="#3C3C3C" stop-opacity="0"/>
</radialGradient>
<radialGradient id="paint2_radial_13440_257867" cx="0" cy="0" r="1" gradientUnits="userSpaceOnUse" gradientTransform="translate(50 17) rotate(90) scale(66)">
<stop offset="0.889508" stop-color="#0C0C0C" stop-opacity="0"/>
<stop offset="1" stop-color="#444444"/>
</radialGradient>
<radialGradient id="paint3_angular_13440_257867" cx="0" cy="0" r="1" gradientUnits="userSpaceOnUse" gradientTransform="translate(50.0144 50.0124) rotate(90) scale(6.5837 6.05341)">
<stop stop-color="white"/>
<stop offset="1" stop-color="white" stop-opacity="0"/>
</radialGradient>
<radialGradient id="paint4_angular_13440_257867" cx="0" cy="0" r="1" gradientUnits="userSpaceOnUse" gradientTransform="translate(50.0144 50.0124) rotate(90) scale(6.5837 6.05341)">
<stop stop-color="white"/>
<stop offset="1" stop-color="white" stop-opacity="0"/>
</radialGradient>
<radialGradient id="paint5_angular_13440_257867" cx="0" cy="0" r="1" gradientUnits="userSpaceOnUse" gradientTransform="translate(50.0144 50.0124) rotate(90) scale(6.5837 6.05341)">
<stop stop-color="white"/>
<stop offset="1" stop-color="white" stop-opacity="0"/>
</radialGradient>
<radialGradient id="paint6_angular_13440_257867" cx="0" cy="0" r="1" gradientUnits="userSpaceOnUse" gradientTransform="translate(50.0144 50.0124) rotate(90) scale(6.5837 6.05341)">
<stop stop-color="white"/>
<stop offset="1" stop-color="white" stop-opacity="0"/>
</radialGradient>
<radialGradient id="paint7_angular_13440_257867" cx="0" cy="0" r="1" gradientUnits="userSpaceOnUse" gradientTransform="translate(50.0144 50.0124) rotate(90) scale(6.5837 6.05341)">
<stop stop-color="white"/>
<stop offset="1" stop-color="white" stop-opacity="0"/>
</radialGradient>
<radialGradient id="paint8_angular_13440_257867" cx="0" cy="0" r="1" gradientUnits="userSpaceOnUse" gradientTransform="translate(50.0144 50.0124) rotate(90) scale(6.5837 6.05341)">
<stop stop-color="white"/>
<stop offset="1" stop-color="white" stop-opacity="0"/>
</radialGradient>
<radialGradient id="paint9_angular_13440_257867" cx="0" cy="0" r="1" gradientUnits="userSpaceOnUse" gradientTransform="translate(50.0144 50.0124) rotate(90) scale(6.5837 6.05341)">
<stop stop-color="white"/>
<stop offset="1" stop-color="white" stop-opacity="0"/>
</radialGradient>
<radialGradient id="paint10_angular_13440_257867" cx="0" cy="0" r="1" gradientUnits="userSpaceOnUse" gradientTransform="translate(50.0144 50.0124) rotate(90) scale(6.5837 6.05341)">
<stop stop-color="white"/>
<stop offset="1" stop-color="white" stop-opacity="0"/>
</radialGradient>
<radialGradient id="paint11_angular_13440_257867" cx="0" cy="0" r="1" gradientUnits="userSpaceOnUse" gradientTransform="translate(50.0144 50.0124) rotate(90) scale(6.5837 6.05341)">
<stop stop-color="white"/>
<stop offset="1" stop-color="white" stop-opacity="0"/>
</radialGradient>
<radialGradient id="paint12_angular_13440_257867" cx="0" cy="0" r="1" gradientUnits="userSpaceOnUse" gradientTransform="translate(50.0144 50.0124) rotate(90) scale(6.5837 6.05341)">
<stop stop-color="white"/>
<stop offset="1" stop-color="white" stop-opacity="0"/>
</radialGradient>
<radialGradient id="paint13_angular_13440_257867" cx="0" cy="0" r="1" gradientUnits="userSpaceOnUse" gradientTransform="translate(50.0144 50.0124) rotate(90) scale(6.5837 6.05341)">
<stop stop-color="white"/>
<stop offset="1" stop-color="white" stop-opacity="0"/>
</radialGradient>
<radialGradient id="paint14_angular_13440_257867" cx="0" cy="0" r="1" gradientUnits="userSpaceOnUse" gradientTransform="translate(50.0144 50.0124) rotate(90) scale(6.5837 6.05341)">
<stop stop-color="white"/>
<stop offset="1" stop-color="white" stop-opacity="0"/>
</radialGradient>
<radialGradient id="paint15_angular_13440_257867" cx="0" cy="0" r="1" gradientUnits="userSpaceOnUse" gradientTransform="translate(49.987 49.987) rotate(90) scale(6.5837 6.05341)">
<stop stop-color="white"/>
<stop offset="1" stop-color="white" stop-opacity="0"/>
</radialGradient>
<radialGradient id="paint16_angular_13440_257867" cx="0" cy="0" r="1" gradientUnits="userSpaceOnUse" gradientTransform="translate(49.987 49.987) rotate(90) scale(6.5837 6.05341)">
<stop stop-color="white"/>
<stop offset="1" stop-color="white" stop-opacity="0"/>
</radialGradient>
<radialGradient id="paint17_angular_13440_257867" cx="0" cy="0" r="1" gradientUnits="userSpaceOnUse" gradientTransform="translate(49.987 49.987) rotate(90) scale(6.5837 6.05341)">
<stop stop-color="white"/>
<stop offset="1" stop-color="white" stop-opacity="0"/>
</radialGradient>
<radialGradient id="paint18_angular_13440_257867" cx="0" cy="0" r="1" gradientUnits="userSpaceOnUse" gradientTransform="translate(49.987 49.987) rotate(90) scale(6.5837 6.05341)">
<stop stop-color="white"/>
<stop offset="1" stop-color="white" stop-opacity="0"/>
</radialGradient>
<radialGradient id="paint19_angular_13440_257867" cx="0" cy="0" r="1" gradientUnits="userSpaceOnUse" gradientTransform="translate(49.987 49.987) rotate(90) scale(6.5837 6.05341)">
<stop stop-color="white"/>
<stop offset="1" stop-color="white" stop-opacity="0"/>
</radialGradient>
<radialGradient id="paint20_angular_13440_257867" cx="0" cy="0" r="1" gradientUnits="userSpaceOnUse" gradientTransform="translate(49.987 49.987) rotate(90) scale(6.5837 6.05341)">
<stop stop-color="white"/>
<stop offset="1" stop-color="white" stop-opacity="0"/>
</radialGradient>
<radialGradient id="paint21_angular_13440_257867" cx="0" cy="0" r="1" gradientUnits="userSpaceOnUse" gradientTransform="translate(49.987 49.987) rotate(90) scale(6.5837 6.05341)">
<stop stop-color="white"/>
<stop offset="1" stop-color="white" stop-opacity="0"/>
</radialGradient>
<radialGradient id="paint22_angular_13440_257867" cx="0" cy="0" r="1" gradientUnits="userSpaceOnUse" gradientTransform="translate(49.987 49.987) rotate(90) scale(6.5837 6.05341)">
<stop stop-color="white"/>
<stop offset="1" stop-color="white" stop-opacity="0"/>
</radialGradient>
<radialGradient id="paint23_angular_13440_257867" cx="0" cy="0" r="1" gradientUnits="userSpaceOnUse" gradientTransform="translate(49.987 49.987) rotate(90) scale(6.5837 6.05341)">
<stop stop-color="white"/>
<stop offset="1" stop-color="white" stop-opacity="0"/>
</radialGradient>
<radialGradient id="paint24_angular_13440_257867" cx="0" cy="0" r="1" gradientUnits="userSpaceOnUse" gradientTransform="translate(49.987 49.987) rotate(90) scale(6.5837 6.05341)">
<stop stop-color="white"/>
<stop offset="1" stop-color="white" stop-opacity="0"/>
</radialGradient>
<radialGradient id="paint25_angular_13440_257867" cx="0" cy="0" r="1" gradientUnits="userSpaceOnUse" gradientTransform="translate(49.987 49.987) rotate(90) scale(6.5837 6.05341)">
<stop stop-color="white"/>
<stop offset="1" stop-color="white" stop-opacity="0"/>
</radialGradient>
<radialGradient id="paint26_angular_13440_257867" cx="0" cy="0" r="1" gradientUnits="userSpaceOnUse" gradientTransform="translate(49.987 49.987) rotate(90) scale(6.5837 6.05341)">
<stop stop-color="white"/>
<stop offset="1" stop-color="white" stop-opacity="0"/>
</radialGradient>
<radialGradient id="paint27_angular_13440_257867" cx="0" cy="0" r="1" gradientUnits="userSpaceOnUse" gradientTransform="translate(49.987 49.9634) rotate(90) scale(6.56007 6.05341)">
<stop stop-color="white"/>
<stop offset="1" stop-color="white" stop-opacity="0"/>
</radialGradient>
<radialGradient id="paint28_angular_13440_257867" cx="0" cy="0" r="1" gradientUnits="userSpaceOnUse" gradientTransform="translate(49.987 49.9634) rotate(90) scale(6.56007 6.05341)">
<stop stop-color="white"/>
<stop offset="1" stop-color="white" stop-opacity="0"/>
</radialGradient>
<radialGradient id="paint29_angular_13440_257867" cx="0" cy="0" r="1" gradientUnits="userSpaceOnUse" gradientTransform="translate(49.987 49.9634) rotate(90) scale(6.56007 6.05341)">
<stop stop-color="white"/>
<stop offset="1" stop-color="white" stop-opacity="0"/>
</radialGradient>
<radialGradient id="paint30_angular_13440_257867" cx="0" cy="0" r="1" gradientUnits="userSpaceOnUse" gradientTransform="translate(49.987 49.9634) rotate(90) scale(6.56007 6.05341)">
<stop stop-color="white"/>
<stop offset="1" stop-color="white" stop-opacity="0"/>
</radialGradient>
<radialGradient id="paint31_angular_13440_257867" cx="0" cy="0" r="1" gradientUnits="userSpaceOnUse" gradientTransform="translate(49.987 49.9634) rotate(90) scale(6.56007 6.05341)">
<stop stop-color="white"/>
<stop offset="1" stop-color="white" stop-opacity="0"/>
</radialGradient>
<radialGradient id="paint32_angular_13440_257867" cx="0" cy="0" r="1" gradientUnits="userSpaceOnUse" gradientTransform="translate(49.987 49.9634) rotate(90) scale(6.56007 6.05341)">
<stop stop-color="white"/>
<stop offset="1" stop-color="white" stop-opacity="0"/>
</radialGradient>
<radialGradient id="paint33_angular_13440_257867" cx="0" cy="0" r="1" gradientUnits="userSpaceOnUse" gradientTransform="translate(49.987 49.9634) rotate(90) scale(6.56007 6.05341)">
<stop stop-color="white"/>
<stop offset="1" stop-color="white" stop-opacity="0"/>
</radialGradient>
<radialGradient id="paint34_angular_13440_257867" cx="0" cy="0" r="1" gradientUnits="userSpaceOnUse" gradientTransform="translate(49.987 49.9634) rotate(90) scale(6.56007 6.05341)">
<stop stop-color="white"/>
<stop offset="1" stop-color="white" stop-opacity="0"/>
</radialGradient>
<radialGradient id="paint35_radial_13440_257867" cx="0" cy="0" r="1" gradientUnits="userSpaceOnUse" gradientTransform="translate(50) rotate(90) scale(100)">
<stop offset="0.0967523" stop-color="#23262E"/>
<stop offset="0.270032"/>
<stop offset="0.894562" stop-color="#2D2D2D" stop-opacity="0"/>
</radialGradient>
<radialGradient id="paint36_radial_13440_257867" cx="0" cy="0" r="1" gradientUnits="userSpaceOnUse" gradientTransform="translate(50) rotate(90) scale(100)">
<stop offset="0.0967523" stop-color="#23262E"/>
<stop offset="0.270032"/>
<stop offset="0.894562" stop-color="#2D2D2D" stop-opacity="0"/>
</radialGradient>
<radialGradient id="paint37_radial_13440_257867" cx="0" cy="0" r="1" gradientUnits="userSpaceOnUse" gradientTransform="translate(47) rotate(90) scale(94)">
<stop stop-color="#353535"/>
<stop offset="0.484375" stop-opacity="0.43"/>
<stop offset="0.894562" stop-color="#2E2C3A" stop-opacity="0"/>
</radialGradient>
<radialGradient id="paint38_radial_13440_257867" cx="0" cy="0" r="1" gradientUnits="userSpaceOnUse" gradientTransform="translate(50 3) rotate(90) scale(94)">
<stop stop-color="#353535"/>
<stop offset="0.484375" stop-opacity="0.43"/>
<stop offset="0.894562" stop-color="#2E2C3A" stop-opacity="0"/>
</radialGradient>
<clipPath id="clip0_13440_257867">
<rect width="100" height="100" fill="white"/>
</clipPath>
</defs>
</svg>
