<svg viewBox="0 0 16 16" fill="none" xmlns="http://www.w3.org/2000/svg">
    <path
        d="M8.0026 14.6666C4.3206 14.6666 1.33594 11.6819 1.33594 7.99992C1.33594 4.31792 4.3206 1.33325 8.0026 1.33325C11.6846 1.33325 14.6693 4.31792 14.6693 7.99992C14.6693 11.6819 11.6846 14.6666 8.0026 14.6666Z"
        stroke="#color" stroke-width="1.5" stroke-linecap="round" stroke-linejoin="round" />
    <path d="M11 9.66675C11 9.66675 10 11.0001 8 11.0001C6 11.0001 5 9.66675 5 9.66675" stroke="#color"
        stroke-width="1.5" stroke-linecap="round" stroke-linejoin="round" />
    <path
        d="M10.3359 5.99992C10.2475 5.99992 10.1627 5.9648 10.1002 5.90229C10.0377 5.83978 10.0026 5.75499 10.0026 5.66659C10.0026 5.57818 10.0377 5.49339 10.1002 5.43088C10.1627 5.36837 10.2475 5.33325 10.3359 5.33325C10.4243 5.33325 10.5091 5.36837 10.5716 5.43088C10.6342 5.49339 10.6693 5.57818 10.6693 5.66659C10.6693 5.75499 10.6342 5.83978 10.5716 5.90229C10.5091 5.9648 10.4243 5.99992 10.3359 5.99992ZM5.66927 5.99992C5.58087 5.99992 5.49608 5.9648 5.43357 5.90229C5.37106 5.83978 5.33594 5.75499 5.33594 5.66659C5.33594 5.57818 5.37106 5.49339 5.43357 5.43088C5.49608 5.36837 5.58087 5.33325 5.66927 5.33325C5.75768 5.33325 5.84246 5.36837 5.90497 5.43088C5.96749 5.49339 6.0026 5.57818 6.0026 5.66659C6.0026 5.75499 5.96749 5.83978 5.90497 5.90229C5.84246 5.9648 5.75768 5.99992 5.66927 5.99992Z"
        fill="#color" stroke="#color" stroke-width="1.3" stroke-linecap="round" stroke-linejoin="round" />
</svg>
