<svg viewBox="0 0 350 350" fill="none" xmlns="http://www.w3.org/2000/svg">
  <mask id="mask0_13957_256502" style="mask-type:alpha" maskUnits="userSpaceOnUse" x="37" y="37" width="276" height="276">
    <circle cx="174.997" cy="175" r="137.083" fill="black"/>
  </mask>
  <g mask="url(#mask0_13957_256502)">
  </g>
  <g opacity="0.25">
    <path d="M168.65 191.63C168.47 191.472 168.358 191.251 168.336 191.013L166.551 172.031H172.901V193.296C172.901 194.107 171.944 194.539 171.336 194.002L168.65 191.63Z" fill="black"/>
    <path d="M168.65 191.63C168.47 191.472 168.358 191.251 168.336 191.013L166.551 172.031H172.901V193.296C172.901 194.107 171.944 194.539 171.336 194.002L168.65 191.63Z" fill="url(#paint0_angular_13957_256502)"/>
    <path d="M172.901 171.655V169.005L166.213 168.427L166.516 171.655H172.901Z" fill="black"/>
    <path d="M172.901 171.655V169.005L166.213 168.427L166.516 171.655H172.901Z" fill="url(#paint1_angular_13957_256502)"/>
    <path d="M172.901 168.627L166.177 168.046L165.126 156.865C165.074 156.312 165.508 155.835 166.063 155.835H171.959C172.479 155.835 172.901 156.257 172.901 156.777V168.627Z" fill="black"/>
    <path d="M172.901 168.627L166.177 168.046L165.126 156.865C165.074 156.312 165.508 155.835 166.063 155.835H171.959C172.479 155.835 172.901 156.257 172.901 156.777V168.627Z" fill="url(#paint2_angular_13957_256502)"/>
    <path d="M185.312 171.655H190.152C190.412 171.655 190.623 171.444 190.623 171.184V168.407C190.623 168.129 190.383 167.911 190.106 167.938L185.612 168.377L185.312 171.655Z" fill="black"/>
    <path d="M185.312 171.655H190.152C190.412 171.655 190.623 171.444 190.623 171.184V168.407C190.623 168.129 190.383 167.911 190.106 167.938L185.612 168.377L185.312 171.655Z" fill="url(#paint3_angular_13957_256502)"/>
    <path d="M185.23 168.415L178.532 169.069V171.655H184.933L185.23 168.415Z" fill="black"/>
    <path d="M185.23 168.415L178.532 169.069V171.655H184.933L185.23 168.415Z" fill="url(#paint4_angular_13957_256502)"/>
    <path d="M178.155 169.105V171.655H160.321C160.061 171.655 159.85 171.444 159.85 171.184V168.401C159.85 168.125 160.086 167.908 160.361 167.932L176.211 169.287C176.24 169.29 176.269 169.29 176.297 169.287L178.155 169.105Z" fill="black"/>
    <path d="M178.155 169.105V171.655H160.321C160.061 171.655 159.85 171.444 159.85 171.184V168.401C159.85 168.125 160.086 167.908 160.361 167.932L176.211 169.287C176.24 169.29 176.269 169.29 176.297 169.287L178.155 169.105Z" fill="url(#paint5_angular_13957_256502)"/>
    <path d="M180.144 193.938C179.553 194.538 178.532 194.119 178.532 193.277V164.065H185.637L183.165 190.573C183.145 190.789 183.051 190.992 182.898 191.147L180.144 193.938Z" fill="black"/>
    <path d="M180.144 193.938C179.553 194.538 178.532 194.119 178.532 193.277V164.065H185.637L183.165 190.573C183.145 190.789 183.051 190.992 182.898 191.147L180.144 193.938Z" fill="url(#paint6_angular_13957_256502)"/>
    <path d="M185.672 163.688H178.532V159.628L186.095 159.157L185.672 163.688Z" fill="black"/>
    <path d="M185.672 163.688H178.532V159.628L186.095 159.157L185.672 163.688Z" fill="url(#paint7_angular_13957_256502)"/>
    <path d="M178.532 156.777V159.251L186.13 158.777L186.308 156.864C186.36 156.312 185.925 155.835 185.371 155.835H179.474C178.954 155.835 178.532 156.257 178.532 156.777Z" fill="black"/>
    <path d="M178.532 156.777V159.251L186.13 158.777L186.308 156.864C186.36 156.312 185.925 155.835 185.371 155.835H179.474C178.954 155.835 178.532 156.257 178.532 156.777Z" fill="url(#paint8_angular_13957_256502)"/>
    <path d="M172.901 163.688V159.64L165.348 159.269L165.761 163.688H172.901Z" fill="black"/>
    <path d="M172.901 163.688V159.64L165.348 159.269L165.761 163.688H172.901Z" fill="url(#paint9_angular_13957_256502)"/>
    <path d="M173.278 163.688H192.318C192.526 163.688 192.694 163.52 192.694 163.312V159.127C192.694 158.91 192.511 158.738 192.294 158.751L175.943 159.79L173.278 159.659V163.688Z" fill="black"/>
    <path d="M173.278 163.688H192.318C192.526 163.688 192.694 163.52 192.694 163.312V159.127C192.694 158.91 192.511 158.738 192.294 158.751L175.943 159.79L173.278 159.659V163.688Z" fill="url(#paint10_angular_13957_256502)"/>
    <path d="M164.937 159.248L165.388 163.688H157.759C157.551 163.688 157.383 163.52 157.383 163.312V159.272C157.383 159.057 157.563 158.885 157.778 158.896L164.937 159.248Z" fill="black"/>
    <path d="M164.937 159.248L165.388 163.688H157.759C157.551 163.688 157.383 163.52 157.383 163.312V159.272C157.383 159.057 157.563 158.885 157.778 158.896L164.937 159.248Z" fill="url(#paint11_angular_13957_256502)"/>
  </g>
  <path d="M168.572 191.555C168.392 191.397 168.28 191.176 168.257 190.938L166.473 171.956H172.823V193.221C172.823 194.032 171.866 194.464 171.258 193.927L168.572 191.555Z" fill="black"/>
  <path d="M168.572 191.555C168.392 191.397 168.28 191.176 168.257 190.938L166.473 171.956H172.823V193.221C172.823 194.032 171.866 194.464 171.258 193.927L168.572 191.555Z" fill="url(#paint12_angular_13957_256502)"/>
  <path d="M172.823 171.579V168.93L166.134 168.352L166.438 171.579H172.823Z" fill="black"/>
  <path d="M172.823 171.579V168.93L166.134 168.352L166.438 171.579H172.823Z" fill="url(#paint13_angular_13957_256502)"/>
  <path d="M172.823 168.552L166.099 167.971L165.048 156.79C164.996 156.237 165.43 155.76 165.985 155.76H171.881C172.401 155.76 172.823 156.181 172.823 156.701V168.552Z" fill="black"/>
  <path d="M172.823 168.552L166.099 167.971L165.048 156.79C164.996 156.237 165.43 155.76 165.985 155.76H171.881C172.401 155.76 172.823 156.181 172.823 156.701V168.552Z" fill="url(#paint14_angular_13957_256502)"/>
  <path d="M185.234 171.579H190.074C190.334 171.579 190.545 171.369 190.545 171.109V168.332C190.545 168.054 190.305 167.836 190.028 167.863L185.533 168.302L185.234 171.579Z" fill="black"/>
  <path d="M185.234 171.579H190.074C190.334 171.579 190.545 171.369 190.545 171.109V168.332C190.545 168.054 190.305 167.836 190.028 167.863L185.533 168.302L185.234 171.579Z" fill="url(#paint15_angular_13957_256502)"/>
  <path d="M185.152 168.339L178.454 168.993V171.579H184.855L185.152 168.339Z" fill="black"/>
  <path d="M185.152 168.339L178.454 168.993V171.579H184.855L185.152 168.339Z" fill="url(#paint16_angular_13957_256502)"/>
  <path d="M178.077 169.03V171.579H160.243C159.983 171.579 159.772 171.369 159.772 171.109V168.326C159.772 168.05 160.008 167.833 160.283 167.857L176.133 169.212C176.162 169.215 176.191 169.215 176.219 169.212L178.077 169.03Z" fill="black"/>
  <path d="M178.077 169.03V171.579H160.243C159.983 171.579 159.772 171.369 159.772 171.109V168.326C159.772 168.05 160.008 167.833 160.283 167.857L176.133 169.212C176.162 169.215 176.191 169.215 176.219 169.212L178.077 169.03Z" fill="url(#paint17_angular_13957_256502)"/>
  <path d="M180.066 193.863C179.475 194.462 178.454 194.044 178.454 193.202V163.99H185.559L183.087 190.497C183.067 190.714 182.973 190.917 182.82 191.071L180.066 193.863Z" fill="black"/>
  <path d="M180.066 193.863C179.475 194.462 178.454 194.044 178.454 193.202V163.99H185.559L183.087 190.497C183.067 190.714 182.973 190.917 182.82 191.071L180.066 193.863Z" fill="url(#paint18_angular_13957_256502)"/>
  <path d="M185.594 163.613H178.454V159.553L186.016 159.082L185.594 163.613Z" fill="black"/>
  <path d="M185.594 163.613H178.454V159.553L186.016 159.082L185.594 163.613Z" fill="url(#paint19_angular_13957_256502)"/>
  <path d="M178.454 156.702V159.176L186.052 158.702L186.23 156.789C186.282 156.237 185.847 155.76 185.293 155.76H179.396C178.876 155.76 178.454 156.181 178.454 156.702Z" fill="black"/>
  <path d="M178.454 156.702V159.176L186.052 158.702L186.23 156.789C186.282 156.237 185.847 155.76 185.293 155.76H179.396C178.876 155.76 178.454 156.181 178.454 156.702Z" fill="url(#paint20_angular_13957_256502)"/>
  <path d="M172.823 163.613V159.565L165.27 159.193L165.683 163.613H172.823Z" fill="black"/>
  <path d="M172.823 163.613V159.565L165.27 159.193L165.683 163.613H172.823Z" fill="url(#paint21_angular_13957_256502)"/>
  <path d="M173.2 163.613H192.24C192.448 163.613 192.616 163.445 192.616 163.237V159.052C192.616 158.835 192.433 158.662 192.216 158.676L175.864 159.715L173.2 159.584V163.613Z" fill="black"/>
  <path d="M173.2 163.613H192.24C192.448 163.613 192.616 163.445 192.616 163.237V159.052C192.616 158.835 192.433 158.662 192.216 158.676L175.864 159.715L173.2 159.584V163.613Z" fill="url(#paint22_angular_13957_256502)"/>
  <path d="M164.859 159.173L165.31 163.613H157.681C157.473 163.613 157.305 163.445 157.305 163.237V159.197C157.305 158.982 157.485 158.81 157.7 158.821L164.859 159.173Z" fill="black"/>
  <path d="M164.859 159.173L165.31 163.613H157.681C157.473 163.613 157.305 163.445 157.305 163.237V159.197C157.305 158.982 157.485 158.81 157.7 158.821L164.859 159.173Z" fill="url(#paint23_angular_13957_256502)"/>
  <path d="M166.444 168.001L166.099 167.971L165.689 163.613H165.683L165.27 159.193L165.274 159.194L165.048 156.79C164.996 156.237 165.43 155.76 165.985 155.76H171.881C172.238 155.76 172.549 155.959 172.709 156.251C172.575 156.179 172.422 156.137 172.259 156.137H166.363C165.808 156.137 165.373 156.615 165.425 157.167L165.651 159.571L165.648 159.571L166.061 163.991H166.067L166.444 168.001Z" fill="black"/>
  <path d="M166.444 168.001L166.099 167.971L165.689 163.613H165.683L165.27 159.193L165.274 159.194L165.048 156.79C164.996 156.237 165.43 155.76 165.985 155.76H171.881C172.238 155.76 172.549 155.959 172.709 156.251C172.575 156.179 172.422 156.137 172.259 156.137H166.363C165.808 156.137 165.373 156.615 165.425 157.167L165.651 159.571L165.648 159.571L166.061 163.991H166.067L166.444 168.001Z" fill="url(#paint24_angular_13957_256502)"/>
  <path d="M173.201 163.613H173.577V159.961L176.242 160.092L192.593 159.054C192.601 159.053 192.609 159.053 192.616 159.053V159.052C192.616 158.835 192.433 158.662 192.216 158.676L186.433 159.044L186.429 159.079L178.832 159.553V159.526L175.864 159.715L173.201 159.584L173.201 163.613Z" fill="black"/>
  <path d="M173.201 163.613H173.577V159.961L176.242 160.092L192.593 159.054C192.601 159.053 192.609 159.053 192.616 159.053V159.052C192.616 158.835 192.433 158.662 192.216 158.676L186.433 159.044L186.429 159.079L178.832 159.553V159.526L175.864 159.715L173.201 159.584L173.201 163.613Z" fill="url(#paint25_angular_13957_256502)"/>
  <path d="M186.12 156.251C185.987 156.179 185.834 156.137 185.67 156.137H179.773C179.253 156.137 178.832 156.559 178.832 157.079V159.152L178.454 159.176V156.702C178.454 156.181 178.876 155.76 179.396 155.76H185.293C185.652 155.76 185.961 155.96 186.12 156.251Z" fill="black"/>
  <path d="M186.12 156.251C185.987 156.179 185.834 156.137 185.67 156.137H179.773C179.253 156.137 178.832 156.559 178.832 157.079V159.152L178.454 159.176V156.702C178.454 156.181 178.876 155.76 179.396 155.76H185.293C185.652 155.76 185.961 155.96 186.12 156.251Z" fill="url(#paint26_angular_13957_256502)"/>
  <path d="M178.454 163.991H185.559L185.524 164.367H178.832V193.579C178.832 193.747 178.872 193.898 178.941 194.027C178.66 193.873 178.454 193.58 178.454 193.202V171.957H178.455V169.408L178.454 169.408V163.991Z" fill="black"/>
  <path d="M178.454 163.991H185.559L185.524 164.367H178.832V193.579C178.832 193.747 178.872 193.898 178.941 194.027C178.66 193.873 178.454 193.58 178.454 193.202V171.957H178.455V169.408L178.454 169.408V163.991Z" fill="url(#paint27_angular_13957_256502)"/>
  <path d="M178.077 169.445V169.03L176.219 169.212C176.191 169.215 176.162 169.215 176.133 169.212L166.134 168.352L166.135 168.357L160.283 167.857C160.008 167.833 159.772 168.05 159.772 168.326V171.109C159.772 171.339 159.938 171.532 160.157 171.572C160.152 171.544 160.149 171.515 160.149 171.486V168.703C160.149 168.427 160.386 168.211 160.66 168.234L166.513 168.735L166.512 168.729L176.511 169.59C176.539 169.592 176.568 169.592 176.597 169.589L178.077 169.445Z" fill="black"/>
  <path d="M178.077 169.445V169.03L176.219 169.212C176.191 169.215 176.162 169.215 176.133 169.212L166.134 168.352L166.135 168.357L160.283 167.857C160.008 167.833 159.772 168.05 159.772 168.326V171.109C159.772 171.339 159.938 171.532 160.157 171.572C160.152 171.544 160.149 171.515 160.149 171.486V168.703C160.149 168.427 160.386 168.211 160.66 168.234L166.513 168.735L166.512 168.729L176.511 169.59C176.539 169.592 176.568 169.592 176.597 169.589L178.077 169.445Z" fill="url(#paint28_angular_13957_256502)"/>
  <path d="M166.473 171.957L168.257 190.938C168.28 191.176 168.392 191.397 168.572 191.555L168.786 191.744C168.702 191.617 168.65 191.47 168.635 191.315L166.851 172.334H172.823V171.957L166.473 171.957Z" fill="black"/>
  <path d="M166.473 171.957L168.257 190.938C168.28 191.176 168.392 191.397 168.572 191.555L168.786 191.744C168.702 191.617 168.65 191.47 168.635 191.315L166.851 172.334H172.823V171.957L166.473 171.957Z" fill="url(#paint29_angular_13957_256502)"/>
  <path d="M185.267 171.579H185.646L185.911 168.68L190.406 168.241C190.451 168.236 190.495 168.239 190.537 168.246C190.494 168.011 190.276 167.839 190.028 167.863L185.57 168.299L185.454 169.541L185.267 171.579Z" fill="black"/>
  <path d="M185.267 171.579H185.646L185.911 168.68L190.406 168.241C190.451 168.236 190.495 168.239 190.537 168.246C190.494 168.011 190.276 167.839 190.028 167.863L185.57 168.299L185.454 169.541L185.267 171.579Z" fill="url(#paint30_angular_13957_256502)"/>
  <path d="M164.895 159.534L164.859 159.173L157.7 158.821C157.485 158.81 157.305 158.982 157.305 159.197V163.237C157.305 163.445 157.473 163.613 157.681 163.613H157.682V159.575C157.682 159.359 157.862 159.188 158.077 159.198L164.895 159.534Z" fill="black"/>
  <path d="M164.895 159.534L164.859 159.173L157.7 158.821C157.485 158.81 157.305 158.982 157.305 159.197V163.237C157.305 163.445 157.473 163.613 157.681 163.613H157.682V159.575C157.682 159.359 157.862 159.188 158.077 159.198L164.895 159.534Z" fill="url(#paint31_angular_13957_256502)"/>
  <g filter="url(#filter0_f_13957_256502)">
    <circle r="135.333" transform="matrix(1 0 0 -1 174.997 175.001)" stroke="url(#paint32_radial_13957_256502)" stroke-width="21"/>
  </g>
  <g filter="url(#filter1_f_13957_256502)">
    <circle cx="174.997" cy="175" r="135.333" stroke="url(#paint33_radial_13957_256502)" stroke-width="21"/>
  </g>
  <circle r="136.208" transform="matrix(1 0 0 -1 174.997 175.001)" stroke="url(#paint34_radial_13957_256502)" stroke-width="1.75"/>
  <circle cx="174.997" cy="175" r="136.208" stroke="url(#paint35_radial_13957_256502)" stroke-width="1.75"/>
  <defs>
    <filter id="filter0_f_13957_256502" x="-5.83594" y="-5.83301" width="361.664" height="361.667" filterUnits="userSpaceOnUse" color-interpolation-filters="sRGB">
      <feFlood flood-opacity="0" result="BackgroundImageFix"/>
      <feBlend mode="normal" in="SourceGraphic" in2="BackgroundImageFix" result="shape"/>
      <feGaussianBlur stdDeviation="17.5" result="effect1_foregroundBlur_13957_256502"/>
    </filter>
    <filter id="filter1_f_13957_256502" x="-5.83594" y="-5.83301" width="361.664" height="361.667" filterUnits="userSpaceOnUse" color-interpolation-filters="sRGB">
      <feFlood flood-opacity="0" result="BackgroundImageFix"/>
      <feBlend mode="normal" in="SourceGraphic" in2="BackgroundImageFix" result="shape"/>
      <feGaussianBlur stdDeviation="17.5" result="effect1_foregroundBlur_13957_256502"/>
    </filter>
    <radialGradient id="paint0_angular_13957_256502" cx="0" cy="0" r="1" gradientUnits="userSpaceOnUse" gradientTransform="translate(175.039 175.037) rotate(90) scale(19.2025 17.6558)">
      <stop stop-color="white"/>
      <stop offset="1" stop-color="white" stop-opacity="0"/>
    </radialGradient>
    <radialGradient id="paint1_angular_13957_256502" cx="0" cy="0" r="1" gradientUnits="userSpaceOnUse" gradientTransform="translate(175.039 175.037) rotate(90) scale(19.2025 17.6558)">
      <stop stop-color="white"/>
      <stop offset="1" stop-color="white" stop-opacity="0"/>
    </radialGradient>
    <radialGradient id="paint2_angular_13957_256502" cx="0" cy="0" r="1" gradientUnits="userSpaceOnUse" gradientTransform="translate(175.039 175.037) rotate(90) scale(19.2025 17.6558)">
      <stop stop-color="white"/>
      <stop offset="1" stop-color="white" stop-opacity="0"/>
    </radialGradient>
    <radialGradient id="paint3_angular_13957_256502" cx="0" cy="0" r="1" gradientUnits="userSpaceOnUse" gradientTransform="translate(175.039 175.037) rotate(90) scale(19.2025 17.6558)">
      <stop stop-color="white"/>
      <stop offset="1" stop-color="white" stop-opacity="0"/>
    </radialGradient>
    <radialGradient id="paint4_angular_13957_256502" cx="0" cy="0" r="1" gradientUnits="userSpaceOnUse" gradientTransform="translate(175.039 175.037) rotate(90) scale(19.2025 17.6558)">
      <stop stop-color="white"/>
      <stop offset="1" stop-color="white" stop-opacity="0"/>
    </radialGradient>
    <radialGradient id="paint5_angular_13957_256502" cx="0" cy="0" r="1" gradientUnits="userSpaceOnUse" gradientTransform="translate(175.039 175.037) rotate(90) scale(19.2025 17.6558)">
      <stop stop-color="white"/>
      <stop offset="1" stop-color="white" stop-opacity="0"/>
    </radialGradient>
    <radialGradient id="paint6_angular_13957_256502" cx="0" cy="0" r="1" gradientUnits="userSpaceOnUse" gradientTransform="translate(175.039 175.037) rotate(90) scale(19.2025 17.6558)">
      <stop stop-color="white"/>
      <stop offset="1" stop-color="white" stop-opacity="0"/>
    </radialGradient>
    <radialGradient id="paint7_angular_13957_256502" cx="0" cy="0" r="1" gradientUnits="userSpaceOnUse" gradientTransform="translate(175.039 175.037) rotate(90) scale(19.2025 17.6558)">
      <stop stop-color="white"/>
      <stop offset="1" stop-color="white" stop-opacity="0"/>
    </radialGradient>
    <radialGradient id="paint8_angular_13957_256502" cx="0" cy="0" r="1" gradientUnits="userSpaceOnUse" gradientTransform="translate(175.039 175.037) rotate(90) scale(19.2025 17.6558)">
      <stop stop-color="white"/>
      <stop offset="1" stop-color="white" stop-opacity="0"/>
    </radialGradient>
    <radialGradient id="paint9_angular_13957_256502" cx="0" cy="0" r="1" gradientUnits="userSpaceOnUse" gradientTransform="translate(175.039 175.037) rotate(90) scale(19.2025 17.6558)">
      <stop stop-color="white"/>
      <stop offset="1" stop-color="white" stop-opacity="0"/>
    </radialGradient>
    <radialGradient id="paint10_angular_13957_256502" cx="0" cy="0" r="1" gradientUnits="userSpaceOnUse" gradientTransform="translate(175.039 175.037) rotate(90) scale(19.2025 17.6558)">
      <stop stop-color="white"/>
      <stop offset="1" stop-color="white" stop-opacity="0"/>
    </radialGradient>
    <radialGradient id="paint11_angular_13957_256502" cx="0" cy="0" r="1" gradientUnits="userSpaceOnUse" gradientTransform="translate(175.039 175.037) rotate(90) scale(19.2025 17.6558)">
      <stop stop-color="white"/>
      <stop offset="1" stop-color="white" stop-opacity="0"/>
    </radialGradient>
    <radialGradient id="paint12_angular_13957_256502" cx="0" cy="0" r="1" gradientUnits="userSpaceOnUse" gradientTransform="translate(174.96 174.962) rotate(90) scale(19.2025 17.6558)">
      <stop stop-color="white"/>
      <stop offset="1" stop-color="white" stop-opacity="0"/>
    </radialGradient>
    <radialGradient id="paint13_angular_13957_256502" cx="0" cy="0" r="1" gradientUnits="userSpaceOnUse" gradientTransform="translate(174.96 174.962) rotate(90) scale(19.2025 17.6558)">
      <stop stop-color="white"/>
      <stop offset="1" stop-color="white" stop-opacity="0"/>
    </radialGradient>
    <radialGradient id="paint14_angular_13957_256502" cx="0" cy="0" r="1" gradientUnits="userSpaceOnUse" gradientTransform="translate(174.96 174.962) rotate(90) scale(19.2025 17.6558)">
      <stop stop-color="white"/>
      <stop offset="1" stop-color="white" stop-opacity="0"/>
    </radialGradient>
    <radialGradient id="paint15_angular_13957_256502" cx="0" cy="0" r="1" gradientUnits="userSpaceOnUse" gradientTransform="translate(174.96 174.962) rotate(90) scale(19.2025 17.6558)">
      <stop stop-color="white"/>
      <stop offset="1" stop-color="white" stop-opacity="0"/>
    </radialGradient>
    <radialGradient id="paint16_angular_13957_256502" cx="0" cy="0" r="1" gradientUnits="userSpaceOnUse" gradientTransform="translate(174.96 174.962) rotate(90) scale(19.2025 17.6558)">
      <stop stop-color="white"/>
      <stop offset="1" stop-color="white" stop-opacity="0"/>
    </radialGradient>
    <radialGradient id="paint17_angular_13957_256502" cx="0" cy="0" r="1" gradientUnits="userSpaceOnUse" gradientTransform="translate(174.96 174.962) rotate(90) scale(19.2025 17.6558)">
      <stop stop-color="white"/>
      <stop offset="1" stop-color="white" stop-opacity="0"/>
    </radialGradient>
    <radialGradient id="paint18_angular_13957_256502" cx="0" cy="0" r="1" gradientUnits="userSpaceOnUse" gradientTransform="translate(174.96 174.962) rotate(90) scale(19.2025 17.6558)">
      <stop stop-color="white"/>
      <stop offset="1" stop-color="white" stop-opacity="0"/>
    </radialGradient>
    <radialGradient id="paint19_angular_13957_256502" cx="0" cy="0" r="1" gradientUnits="userSpaceOnUse" gradientTransform="translate(174.96 174.962) rotate(90) scale(19.2025 17.6558)">
      <stop stop-color="white"/>
      <stop offset="1" stop-color="white" stop-opacity="0"/>
    </radialGradient>
    <radialGradient id="paint20_angular_13957_256502" cx="0" cy="0" r="1" gradientUnits="userSpaceOnUse" gradientTransform="translate(174.96 174.962) rotate(90) scale(19.2025 17.6558)">
      <stop stop-color="white"/>
      <stop offset="1" stop-color="white" stop-opacity="0"/>
    </radialGradient>
    <radialGradient id="paint21_angular_13957_256502" cx="0" cy="0" r="1" gradientUnits="userSpaceOnUse" gradientTransform="translate(174.96 174.962) rotate(90) scale(19.2025 17.6558)">
      <stop stop-color="white"/>
      <stop offset="1" stop-color="white" stop-opacity="0"/>
    </radialGradient>
    <radialGradient id="paint22_angular_13957_256502" cx="0" cy="0" r="1" gradientUnits="userSpaceOnUse" gradientTransform="translate(174.96 174.962) rotate(90) scale(19.2025 17.6558)">
      <stop stop-color="white"/>
      <stop offset="1" stop-color="white" stop-opacity="0"/>
    </radialGradient>
    <radialGradient id="paint23_angular_13957_256502" cx="0" cy="0" r="1" gradientUnits="userSpaceOnUse" gradientTransform="translate(174.96 174.962) rotate(90) scale(19.2025 17.6558)">
      <stop stop-color="white"/>
      <stop offset="1" stop-color="white" stop-opacity="0"/>
    </radialGradient>
    <radialGradient id="paint24_angular_13957_256502" cx="0" cy="0" r="1" gradientUnits="userSpaceOnUse" gradientTransform="translate(174.96 174.893) rotate(90) scale(19.1335 17.6558)">
      <stop stop-color="white"/>
      <stop offset="1" stop-color="white" stop-opacity="0"/>
    </radialGradient>
    <radialGradient id="paint25_angular_13957_256502" cx="0" cy="0" r="1" gradientUnits="userSpaceOnUse" gradientTransform="translate(174.96 174.893) rotate(90) scale(19.1335 17.6558)">
      <stop stop-color="white"/>
      <stop offset="1" stop-color="white" stop-opacity="0"/>
    </radialGradient>
    <radialGradient id="paint26_angular_13957_256502" cx="0" cy="0" r="1" gradientUnits="userSpaceOnUse" gradientTransform="translate(174.96 174.893) rotate(90) scale(19.1335 17.6558)">
      <stop stop-color="white"/>
      <stop offset="1" stop-color="white" stop-opacity="0"/>
    </radialGradient>
    <radialGradient id="paint27_angular_13957_256502" cx="0" cy="0" r="1" gradientUnits="userSpaceOnUse" gradientTransform="translate(174.96 174.893) rotate(90) scale(19.1335 17.6558)">
      <stop stop-color="white"/>
      <stop offset="1" stop-color="white" stop-opacity="0"/>
    </radialGradient>
    <radialGradient id="paint28_angular_13957_256502" cx="0" cy="0" r="1" gradientUnits="userSpaceOnUse" gradientTransform="translate(174.96 174.893) rotate(90) scale(19.1335 17.6558)">
      <stop stop-color="white"/>
      <stop offset="1" stop-color="white" stop-opacity="0"/>
    </radialGradient>
    <radialGradient id="paint29_angular_13957_256502" cx="0" cy="0" r="1" gradientUnits="userSpaceOnUse" gradientTransform="translate(174.96 174.893) rotate(90) scale(19.1335 17.6558)">
      <stop stop-color="white"/>
      <stop offset="1" stop-color="white" stop-opacity="0"/>
    </radialGradient>
    <radialGradient id="paint30_angular_13957_256502" cx="0" cy="0" r="1" gradientUnits="userSpaceOnUse" gradientTransform="translate(174.96 174.893) rotate(90) scale(19.1335 17.6558)">
      <stop stop-color="white"/>
      <stop offset="1" stop-color="white" stop-opacity="0"/>
    </radialGradient>
    <radialGradient id="paint31_angular_13957_256502" cx="0" cy="0" r="1" gradientUnits="userSpaceOnUse" gradientTransform="translate(174.96 174.893) rotate(90) scale(19.1335 17.6558)">
      <stop stop-color="white"/>
      <stop offset="1" stop-color="white" stop-opacity="0"/>
    </radialGradient>
    <radialGradient id="paint32_radial_13957_256502" cx="0" cy="0" r="1" gradientUnits="userSpaceOnUse" gradientTransform="translate(145.833) rotate(90) scale(291.667)">
      <stop offset="0.0967523" stop-color="#23262E"/>
      <stop offset="0.270032"/>
      <stop offset="0.894562" stop-color="#2D2D2D" stop-opacity="0"/>
    </radialGradient>
    <radialGradient id="paint33_radial_13957_256502" cx="0" cy="0" r="1" gradientUnits="userSpaceOnUse" gradientTransform="translate(174.997 29.167) rotate(90) scale(291.667)">
      <stop offset="0.0967523" stop-color="#23262E"/>
      <stop offset="0.270032"/>
      <stop offset="0.894562" stop-color="#2D2D2D" stop-opacity="0"/>
    </radialGradient>
    <radialGradient id="paint34_radial_13957_256502" cx="0" cy="0" r="1" gradientUnits="userSpaceOnUse" gradientTransform="translate(137.083) rotate(90) scale(274.167)">
      <stop stop-color="#353535"/>
      <stop offset="0.484375" stop-opacity="0.43"/>
      <stop offset="0.894562" stop-color="#2E2C3A" stop-opacity="0"/>
    </radialGradient>
    <radialGradient id="paint35_radial_13957_256502" cx="0" cy="0" r="1" gradientUnits="userSpaceOnUse" gradientTransform="translate(174.997 37.917) rotate(90) scale(274.167)">
      <stop stop-color="#353535"/>
      <stop offset="0.484375" stop-opacity="0.43"/>
      <stop offset="0.894562" stop-color="#2E2C3A" stop-opacity="0"/>
    </radialGradient>
  </defs>
</svg>
