<svg width="25" height="24" viewBox="0 0 25 24" fill="none" xmlns="http://www.w3.org/2000/svg">
<path d="M7.5 9.00916L7.51 8.99805" stroke="currentColor" stroke-width="1.5" stroke-linecap="round" stroke-linejoin="round"/>
<path d="M11.5 9.00916L11.51 8.99805" stroke="currentColor" stroke-width="1.5" stroke-linecap="round" stroke-linejoin="round"/>
<path d="M7.5 13.0091L7.51 12.998" stroke="currentColor" stroke-width="1.5" stroke-linecap="round" stroke-linejoin="round"/>
<path d="M11.5 13.0091L11.51 12.998" stroke="currentColor" stroke-width="1.5" stroke-linecap="round" stroke-linejoin="round"/>
<path d="M7.5 17.0091L7.51 16.998" stroke="currentColor" stroke-width="1.5" stroke-linecap="round" stroke-linejoin="round"/>
<path d="M11.5 17.0091L11.51 16.998" stroke="currentColor" stroke-width="1.5" stroke-linecap="round" stroke-linejoin="round"/>
<path d="M15.5 21H4.1C3.76863 21 3.5 20.7314 3.5 20.4V5.6C3.5 5.26863 3.76863 5 4.1 5H9.5V3.6C9.5 3.26863 9.76863 3 10.1 3H14.9C15.2314 3 15.5 3.26863 15.5 3.6V9M15.5 21H20.9C21.2314 21 21.5 20.7314 21.5 20.4V9.6C21.5 9.26863 21.2314 9 20.9 9H15.5M15.5 21V17M15.5 9V13M15.5 17V13M15.5 17H17.5M15.5 13H17.5" stroke="#A3A3A3" stroke-width="1.5" stroke-linecap="round" stroke-linejoin="round"/>
</svg>
