<svg width="21" height="20" viewBox="0 0 21 20" fill="none" xmlns="http://www.w3.org/2000/svg">
<g id="eye-off 1" clip-path="url(#clip0_21277_13736)">
<path id="Vector" d="M15.4507 14.9502C14.0261 16.036 12.2916 16.6376 10.5007 16.6668C4.66732 16.6668 1.33398 10.0002 1.33398 10.0002C2.37056 8.06843 3.80826 6.38069 5.55065 5.05018M8.75065 3.53352C9.32426 3.39925 9.91154 3.33213 10.5007 3.33352C16.334 3.33352 19.6673 10.0002 19.6673 10.0002C19.1615 10.9465 18.5582 11.8375 17.8673 12.6585M12.2673 11.7668C12.0384 12.0125 11.7624 12.2095 11.4558 12.3461C11.1491 12.4828 10.8181 12.5562 10.4824 12.5622C10.1467 12.5681 9.81329 12.5063 9.50199 12.3806C9.1907 12.2549 8.90792 12.0677 8.67052 11.8303C8.43313 11.5929 8.24598 11.3101 8.12024 10.9988C7.99451 10.6875 7.93276 10.3541 7.93868 10.0184C7.9446 9.68276 8.01808 9.35172 8.15472 9.04506C8.29136 8.73839 8.48836 8.46239 8.73399 8.23352" stroke="white" stroke-width="2" stroke-linecap="round" stroke-linejoin="round"/>
<path id="Vector_2" d="M1.33398 0.833496L19.6673 19.1668" stroke="white" stroke-width="2" stroke-linecap="round" stroke-linejoin="round"/>
</g>
<defs>
<clipPath id="clip0_21277_13736">
<rect width="20" height="20" fill="white" transform="translate(0.5)"/>
</clipPath>
</defs>
</svg>
