<svg width="24" height="24" viewBox="0 0 24 24" fill="none" xmlns="http://www.w3.org/2000/svg">
<path d="M8.66927 12.0003H15.3359M8.66927 15.3337H12.0026M15.3359 3.66699V6.50033C15.3359 6.63293 15.3886 6.76011 15.4824 6.85388C15.5762 6.94765 15.7033 7.00033 15.8359 7.00033H18.6693M5.33594 19.8337V4.16699C5.33594 4.03438 5.38862 3.90721 5.48238 3.81344C5.57615 3.71967 5.70333 3.66699 5.83594 3.66699H15.5459C15.6785 3.66711 15.8056 3.71986 15.8993 3.81366L18.5226 6.43699C18.5692 6.48358 18.6062 6.53892 18.6314 6.59985C18.6566 6.66077 18.6694 6.72607 18.6693 6.79199V19.8337C18.6693 19.8993 18.6563 19.9643 18.6312 20.025C18.6061 20.0857 18.5693 20.1408 18.5228 20.1872C18.4764 20.2336 18.4213 20.2705 18.3606 20.2956C18.2999 20.3207 18.2349 20.3337 18.1693 20.3337H5.83594C5.77028 20.3337 5.70526 20.3207 5.6446 20.2956C5.58393 20.2705 5.52881 20.2336 5.48238 20.1872C5.43595 20.1408 5.39913 20.0857 5.374 20.025C5.34887 19.9643 5.33594 19.8993 5.33594 19.8337Z" stroke="white" stroke-width="1.5" stroke-linecap="round" stroke-linejoin="round"/>
</svg>
