<svg width="16" height="16" viewBox="0 0 16 16" fill="none" xmlns="http://www.w3.org/2000/svg">
<path d="M5.9974 7.99992H7.9974M9.9974 7.99992H7.9974M7.9974 7.99992V5.99992M7.9974 7.99992V9.99992M2.66406 14.2666V1.73325C2.66406 1.62717 2.70621 1.52542 2.78122 1.45041C2.85623 1.37539 2.95798 1.33325 3.06406 1.33325H10.8321C10.9381 1.33335 11.0398 1.37555 11.1147 1.45059L13.2134 3.54925C13.2507 3.58652 13.2803 3.6308 13.3004 3.67954C13.3206 3.72828 13.3309 3.78052 13.3307 3.83325V14.2666C13.3307 14.3191 13.3204 14.3711 13.3003 14.4197C13.2802 14.4682 13.2507 14.5123 13.2136 14.5494C13.1764 14.5866 13.1323 14.616 13.0838 14.6361C13.0353 14.6562 12.9833 14.6666 12.9307 14.6666H3.06406C3.01153 14.6666 2.95952 14.6562 2.91099 14.6361C2.86246 14.616 2.81836 14.5866 2.78122 14.5494C2.74408 14.5123 2.71461 14.4682 2.69451 14.4197C2.67441 14.3711 2.66406 14.3191 2.66406 14.2666V14.2666Z" stroke="#A3A3A3" stroke-width="1.25"/>
<path d="M10.6641 1.33325V3.59992C10.6641 3.70601 10.7062 3.80775 10.7812 3.88276C10.8562 3.95778 10.958 3.99992 11.0641 3.99992H13.3307" stroke="#A3A3A3" stroke-width="1.25"/>
</svg>
