<svg width="32" height="32" viewBox="0 0 32 32" fill="none" xmlns="http://www.w3.org/2000/svg">
<path d="M10.582 5.16797H20.8737L25.7487 10.043V23.5846" stroke="#777777" stroke-width="1.5"/>
<path d="M14.9167 26.8346H20.875C21.306 26.8346 21.7193 26.6634 22.024 26.3587C22.3288 26.0539 22.5 25.6406 22.5 25.2096V12.4794C22.5001 12.3939 22.4833 12.3092 22.4505 12.2302C22.4178 12.1512 22.3698 12.0794 22.3093 12.019L18.899 8.60864C18.8384 8.548 18.7665 8.49994 18.6873 8.46722C18.6081 8.4345 18.5232 8.41776 18.4375 8.41797H7.875C7.44402 8.41797 7.0307 8.58918 6.72595 8.89392C6.4212 9.19867 6.25 9.61199 6.25 10.043V17.0846" stroke="white" stroke-width="1.5"/>
<path d="M11.9495 20.7688L7.35326 25.365L4.05078 22.0625" stroke="white" stroke-width="1.5"/>
<path d="M18.168 8.41797V12.1013C18.168 12.2737 18.2365 12.439 18.3583 12.5609C18.4802 12.6828 18.6456 12.7513 18.818 12.7513H22.5013" stroke="white" stroke-width="1.5"/>
</svg>
