<svg width="22" height="16" viewBox="0 0 22 16" fill="none" xmlns="http://www.w3.org/2000/svg">
<path fill-rule="evenodd" clip-rule="evenodd" d="M14.4062 5.15552H21.1146V10.8449H14.4062V5.15552Z" fill="#color"/>
<path fill-rule="evenodd" clip-rule="evenodd" d="M0 5.15552V10.8449H6.70835V5.15552H0Z" fill="#color"/>
<path fill-rule="evenodd" clip-rule="evenodd" d="M7.39844 5.15552H13.7185V10.8449H7.39844V5.15552Z" fill="#color"/>
<path fill-rule="evenodd" clip-rule="evenodd" d="M0.0117188 4.46708H21.1258V1.22145C21.1258 1.03903 21.0533 0.863836 20.9241 0.734744C20.7951 0.605495 20.6199 0.532959 20.4373 0.532959H0.700222C0.517495 0.532959 0.342446 0.605499 0.213512 0.734744C0.0842629 0.863994 0.0117266 1.03904 0.0117266 1.22145L0.0117188 4.46708ZM4.52434 2.42849C4.52434 2.17492 4.31871 1.96944 4.06529 1.96944H3.01688C2.76346 1.96944 2.55783 2.17492 2.55783 2.42849V2.90124C2.55783 3.15466 2.76346 3.36029 3.01688 3.36029H4.06529C4.31871 3.36029 4.52434 3.15466 4.52434 2.90124V2.42849ZM13.8946 2.42849C13.8946 2.17492 13.6892 1.96944 13.4356 1.96944H12.3874C12.1339 1.96944 11.9284 2.17492 11.9284 2.42849V2.90124C11.9284 3.15466 12.1339 3.36029 12.3874 3.36029H13.4356C13.6892 3.36029 13.8946 3.15466 13.8946 2.90124V2.42849ZM9.20929 2.42849C9.20929 2.17492 9.00381 1.96944 8.75024 1.96944H7.7021C7.44853 1.96944 7.24305 2.17492 7.24305 2.42849V2.90124C7.24305 3.15466 7.44853 3.36029 7.7021 3.36029H8.75024C9.00381 3.36029 9.20929 3.15466 9.20929 2.90124V2.42849ZM18.58 2.42849C18.58 2.17492 18.3743 1.96944 18.1209 1.96944H17.0725C16.8191 1.96944 16.6135 2.17492 16.6135 2.42849V2.90124C16.6135 3.15466 16.8191 3.36029 17.0725 3.36029H18.1209C18.3743 3.36029 18.58 3.15466 18.58 2.90124V2.42849Z" fill="#color"/>
<path fill-rule="evenodd" clip-rule="evenodd" d="M21.1141 11.533H0V14.7786C0 14.961 0.0725403 15.1362 0.201785 15.2653C0.330724 15.3945 0.505925 15.4671 0.688496 15.4671H20.4256C20.6083 15.4671 20.7834 15.3945 20.9123 15.2653C21.0416 15.136 21.1141 14.961 21.1141 14.7786L21.1141 11.533ZM4.51262 13.0988C4.51262 12.8454 4.30699 12.6398 4.05357 12.6398H3.00516C2.75174 12.6398 2.54611 12.8454 2.54611 13.0988V13.5716C2.54611 13.8252 2.75174 14.0306 3.00516 14.0306H4.05357C4.30699 14.0306 4.51262 13.8252 4.51262 13.5716V13.0988ZM13.8829 13.0988C13.8829 12.8454 13.6774 12.6398 13.4239 12.6398H12.3757C12.1221 12.6398 11.9167 12.8454 11.9167 13.0988V13.5716C11.9167 13.8252 12.1221 14.0306 12.3757 14.0306H13.4239C13.6774 14.0306 13.8829 13.8252 13.8829 13.5716V13.0988ZM9.19757 13.0988C9.19757 12.8454 8.99209 12.6398 8.73852 12.6398H7.69039C7.43681 12.6398 7.23133 12.8454 7.23133 13.0988V13.5716C7.23133 13.8252 7.43681 14.0306 7.69039 14.0306H8.73852C8.99209 14.0306 9.19757 13.8252 9.19757 13.5716V13.0988ZM18.5682 13.0988C18.5682 12.8454 18.3626 12.6398 18.1092 12.6398H17.0608C16.8074 12.6398 16.6017 12.8454 16.6017 13.0988V13.5716C16.6017 13.8252 16.8074 14.0306 17.0608 14.0306H18.1092C18.3626 14.0306 18.5682 13.8252 18.5682 13.5716V13.0988Z" fill="#color"/>
</svg>
