<svg viewBox="0 0 28 28" fill="none" xmlns="http://www.w3.org/2000/svg">
<g clip-path="url(#clip0_10886_187623)">
<path d="M18.2503 11.0644C18.0433 11.837 16.1531 12.0018 14.0285 11.4325C11.9038 10.8632 10.3492 9.77539 10.5562 9.00279C10.7633 8.23018 12.6535 8.06537 14.7781 8.63468C16.9028 9.20398 18.4574 10.2918 18.2503 11.0644Z" fill="url(#paint0_linear_10886_187623)"/>
<path fill-rule="evenodd" clip-rule="evenodd" d="M17.9692 12.1136C17.7622 12.8862 15.872 13.051 13.7473 12.4817C11.6227 11.9124 10.0681 10.8246 10.2751 10.052L7.46381 20.5439C7.25679 21.3165 8.81135 22.4044 10.936 22.9737C13.0607 23.543 14.9509 23.3782 15.1579 22.6056L17.9692 12.1136ZM11.7794 19.8261C13.1315 20.1884 14.5422 19.3077 14.9304 17.8591C15.3185 16.4104 14.5371 14.9424 13.1851 14.5801C11.833 14.2178 10.4223 15.0985 10.0341 16.5471C9.64595 17.9958 10.4273 19.4638 11.7794 19.8261Z" fill="url(#paint1_linear_10886_187623)"/>
<path d="M12.2653 7.94388C12.8783 7.63647 13.5828 7.5647 14.2452 7.74219L15.6859 8.12823C16.3483 8.30572 16.9226 8.72012 17.2997 9.29285L17.9132 10.2244L11.2683 8.44389L12.2653 7.94388Z" fill="url(#paint2_linear_10886_187623)"/>
<path d="M15.164 4.58905C14.6445 4.69536 14.2296 5.08607 14.0924 5.59828L13.9352 6.18476C13.8352 6.55818 14.0568 6.94202 14.4302 7.04208L15.8758 7.42941C16.2492 7.52947 16.633 7.30787 16.7331 6.93444L16.833 6.56139C16.4467 6.45788 16.2175 6.06081 16.321 5.67451C16.4245 5.28821 16.8216 5.05896 17.2079 5.16247L17.3424 4.66029C17.4098 4.40897 17.1891 4.17464 16.9342 4.22681L15.164 4.58905Z" fill="url(#paint3_linear_10886_187623)"/>
<path d="M17.2991 5.61306L19.9422 4.78711C19.9422 4.60553 19.9422 4.06282 20.4854 3.88179C20.92 3.73696 21.2699 4.06292 21.3906 4.244C22.6941 3.80952 22.8991 4.9078 22.8387 5.51124C23.7077 6.38021 23.0714 7.08021 22.6446 7.32159C22.5922 7.70111 22.3695 8.22676 21.7525 8.22676C21.0284 8.22676 20.6614 7.7887 20.5684 7.56967C20.4471 7.63883 20.2997 7.68366 20.1232 7.68366C19.5439 7.68366 19.3519 7.12397 19.3284 6.84412L17.3138 6.30689C17.1556 6.26472 17.0456 6.12151 17.0456 5.95785C17.0456 5.79986 17.1483 5.66019 17.2991 5.61306Z" fill="url(#paint4_linear_10886_187623)"/>
</g>
<defs>
<linearGradient id="paint0_linear_10886_187623" x1="7.44531" y1="13.5791" x2="23.272" y2="13.5791" gradientUnits="userSpaceOnUse">
<stop stop-color="#5433FF"/>
<stop offset="0.5" stop-color="#20BDFF"/>
<stop offset="1" stop-color="#A5FECB"/>
</linearGradient>
<linearGradient id="paint1_linear_10886_187623" x1="7.44531" y1="13.5791" x2="23.272" y2="13.5791" gradientUnits="userSpaceOnUse">
<stop stop-color="#5433FF"/>
<stop offset="0.5" stop-color="#20BDFF"/>
<stop offset="1" stop-color="#A5FECB"/>
</linearGradient>
<linearGradient id="paint2_linear_10886_187623" x1="7.44531" y1="13.5791" x2="23.272" y2="13.5791" gradientUnits="userSpaceOnUse">
<stop stop-color="#5433FF"/>
<stop offset="0.5" stop-color="#20BDFF"/>
<stop offset="1" stop-color="#A5FECB"/>
</linearGradient>
<linearGradient id="paint3_linear_10886_187623" x1="7.44531" y1="13.5791" x2="23.272" y2="13.5791" gradientUnits="userSpaceOnUse">
<stop stop-color="#5433FF"/>
<stop offset="0.5" stop-color="#20BDFF"/>
<stop offset="1" stop-color="#A5FECB"/>
</linearGradient>
<linearGradient id="paint4_linear_10886_187623" x1="7.44531" y1="13.5791" x2="23.272" y2="13.5791" gradientUnits="userSpaceOnUse">
<stop stop-color="#5433FF"/>
<stop offset="0.5" stop-color="#20BDFF"/>
<stop offset="1" stop-color="#A5FECB"/>
</linearGradient>
<clipPath id="clip0_10886_187623">
<rect width="28" height="28" fill="white"/>
</clipPath>
</defs>
</svg>
