<svg width="40" height="40" viewBox="0 0 40 40" fill="none" xmlns="http://www.w3.org/2000/svg">
<path d="M15.332 14.167H10.6654C10.0465 14.167 9.45303 14.4128 9.01545 14.8504C8.57786 15.288 8.33203 15.8815 8.33203 16.5003V28.167C8.33203 28.7858 8.57786 29.3793 9.01545 29.8169C9.45303 30.2545 10.0465 30.5003 10.6654 30.5003H29.332C29.9509 30.5003 30.5444 30.2545 30.9819 29.8169C31.4195 29.3793 31.6654 28.7858 31.6654 28.167V16.5003C31.6654 15.8815 31.4195 15.288 30.9819 14.8504C30.5444 14.4128 29.9509 14.167 29.332 14.167H24.6654M15.332 14.167H24.6654H15.332Z" fill="url(#paint0_linear_15272_281408)"/>
<path fill-rule="evenodd" clip-rule="evenodd" d="M8.52907 14.365C9.09543 13.7986 9.86358 13.4805 10.6645 13.4805H29.3312C30.1322 13.4805 30.9003 13.7986 31.4667 14.365C32.033 14.9314 32.3512 15.6995 32.3512 16.5005V28.1671C32.3512 28.9681 32.033 29.7362 31.4667 30.3026C30.9003 30.869 30.1322 31.1871 29.3312 31.1871H10.6645C9.86358 31.1871 9.09543 30.869 8.52907 30.3026C7.96271 29.7362 7.64453 28.9681 7.64453 28.1671V16.5005C7.64453 15.6995 7.96271 14.9314 8.52907 14.365ZM10.6645 14.8538C10.2278 14.8538 9.80897 15.0273 9.50016 15.3361C9.19135 15.6449 9.01786 16.0637 9.01786 16.5005V28.1671C9.01786 28.6039 9.19135 29.0227 9.50016 29.3315C9.80897 29.6403 10.2278 29.8138 10.6645 29.8138H29.3312C29.7679 29.8138 30.1868 29.6403 30.4956 29.3315C30.8044 29.0227 30.9779 28.6039 30.9779 28.1671V16.5005C30.9779 16.0637 30.8044 15.6449 30.4956 15.3361C30.1868 15.0273 29.7679 14.8538 29.3312 14.8538H10.6645Z" fill="url(#paint1_linear_15272_281408)"/>
<path fill-rule="evenodd" clip-rule="evenodd" d="M16.082 10.25V13.4167H23.9154V10.25H16.082ZM25.4154 13.4167V10.2C25.4154 9.81544 25.2626 9.44662 24.9907 9.1747C24.7187 8.90277 24.3499 8.75 23.9654 8.75H16.032C15.6475 8.75 15.2787 8.90277 15.0067 9.1747C14.7348 9.44662 14.582 9.81544 14.582 10.2V13.4167H10.6654C9.84761 13.4167 9.06336 13.7415 8.48512 14.3198C7.90688 14.898 7.58203 15.6822 7.58203 16.5V28.1667C7.58203 28.9844 7.90688 29.7687 8.48512 30.3469C9.06336 30.9251 9.84761 31.25 10.6654 31.25H29.332C30.1498 31.25 30.934 30.9251 31.5123 30.3469C32.0905 29.7687 32.4154 28.9844 32.4154 28.1667V16.5C32.4154 15.6822 32.0905 14.898 31.5123 14.3198C30.934 13.7415 30.1498 13.4167 29.332 13.4167H25.4154ZM10.6654 14.9167C10.2454 14.9167 9.84271 15.0835 9.54578 15.3804C9.24885 15.6773 9.08203 16.0801 9.08203 16.5V28.1667C9.08203 28.5866 9.24885 28.9893 9.54578 29.2863C9.84271 29.5832 10.2454 29.75 10.6654 29.75H29.332C29.752 29.75 30.1547 29.5832 30.4516 29.2863C30.7485 28.9893 30.9154 28.5866 30.9154 28.1667V16.5C30.9154 16.0801 30.7485 15.6773 30.4516 15.3804C30.1547 15.0835 29.752 14.9167 29.332 14.9167H10.6654Z" fill="url(#paint2_linear_15272_281408)"/>
<defs>
<linearGradient id="paint0_linear_15272_281408" x1="8.33203" y1="22.3337" x2="31.6654" y2="22.3337" gradientUnits="userSpaceOnUse">
<stop stop-color="#5433FF"/>
<stop offset="0.5" stop-color="#20BDFF"/>
<stop offset="1" stop-color="#A5FECB"/>
</linearGradient>
<linearGradient id="paint1_linear_15272_281408" x1="7.64453" y1="22.3338" x2="32.3512" y2="22.3338" gradientUnits="userSpaceOnUse">
<stop stop-color="#5433FF"/>
<stop offset="0.5" stop-color="#20BDFF"/>
<stop offset="1" stop-color="#A5FECB"/>
</linearGradient>
<linearGradient id="paint2_linear_15272_281408" x1="7.58203" y1="20" x2="32.4154" y2="20" gradientUnits="userSpaceOnUse">
<stop stop-color="#5433FF"/>
<stop offset="0.5" stop-color="#20BDFF"/>
<stop offset="1" stop-color="#A5FECB"/>
</linearGradient>
</defs>
</svg>
