<svg width="20" height="21" viewBox="0 0 20 21" fill="none" xmlns="http://www.w3.org/2000/svg">
<g id="friend">
<path id="Vector" d="M2.91992 17.1671V16.3337C2.91992 14.7866 3.5345 13.3029 4.62847 12.209C5.72243 11.115 7.20616 10.5004 8.75326 10.5004M8.75326 10.5004C10.3004 10.5004 11.003 10.5004 12.5 10.5004C13.997 10.5004 16.875 10.5004 16.875 4.25M8.75326 10.5004C9.63731 10.5004 10.4852 10.1492 11.1103 9.5241C11.7354 8.89897 12.0866 8.05113 12.0866 7.16707C12.0866 6.28302 11.7354 5.43517 11.1103 4.81005C10.4852 4.18493 9.63731 3.83374 8.75326 3.83374C7.8692 3.83374 7.02135 4.18493 6.39623 4.81005C5.77111 5.43517 5.41992 6.28302 5.41992 7.16707C5.41992 8.05113 5.77111 8.89897 6.39623 9.5241C7.02135 10.1492 7.8692 10.5004 8.75326 10.5004Z" stroke="#999999" stroke-width="1.25" stroke-linecap="round"/>
</g>
</svg>
