<svg width="30" height="30" viewBox="0 0 30 30" fill="none" xmlns="http://www.w3.org/2000/svg">
<path d="M8 22V21.125C8 19.5005 8.61656 17.9426 9.71404 16.794C10.8115 15.6453 12.3 15 13.8521 15M13.8521 15C15.4042 15 16.1091 15 17.6109 15C19.1127 15 22 15 22 8.43707M13.8521 15C14.739 15 15.5896 14.6313 16.2167 13.9749C16.8439 13.3185 17.1962 12.4283 17.1962 11.5C17.1962 10.5717 16.8439 9.6815 16.2167 9.02513C15.5896 8.36875 14.739 8 13.8521 8C12.9652 8 12.1146 8.36875 11.4875 9.02513C10.8604 9.6815 10.508 10.5717 10.508 11.5C10.508 12.4283 10.8604 13.3185 11.4875 13.9749C12.1146 14.6313 12.9652 15 13.8521 15ZM15 29.0002C22.7322 29.0002 29 22.7324 29 15.0002C29 7.26804 22.7322 1.00024 15 1.00024C7.2678 1.00024 1 7.26804 1 15.0002C1 22.7324 7.2678 29.0002 15 29.0002Z" stroke="url(#paint0_radial_13440_256287)" stroke-width="1.37"/>
<path d="M8 22V21.125C8 19.5005 8.61656 17.9426 9.71404 16.794C10.8115 15.6453 12.3 15 13.8521 15M13.8521 15C15.4042 15 16.1091 15 17.6109 15C19.1127 15 22 15 22 8.43707M13.8521 15C14.739 15 15.5896 14.6313 16.2167 13.9749C16.8439 13.3185 17.1962 12.4283 17.1962 11.5C17.1962 10.5717 16.8439 9.6815 16.2167 9.02513C15.5896 8.36875 14.739 8 13.8521 8C12.9652 8 12.1146 8.36875 11.4875 9.02513C10.8604 9.6815 10.508 10.5717 10.508 11.5C10.508 12.4283 10.8604 13.3185 11.4875 13.9749C12.1146 14.6313 12.9652 15 13.8521 15ZM15 29.0002C22.7322 29.0002 29 22.7324 29 15.0002C29 7.26804 22.7322 1.00024 15 1.00024C7.2678 1.00024 1 7.26804 1 15.0002C1 22.7324 7.2678 29.0002 15 29.0002Z" stroke="url(#paint1_radial_13440_256287)" stroke-width="1.37"/>
<defs>
<radialGradient id="paint0_radial_13440_256287" cx="0" cy="0" r="1" gradientUnits="userSpaceOnUse" gradientTransform="translate(15 1.00024) rotate(90) scale(28)">
<stop stop-color="#2BC3FB"/>
<stop offset="0.484375" stop-color="#9EFBCE" stop-opacity="0.43"/>
<stop offset="0.894562" stop-color="#5338FF" stop-opacity="0"/>
</radialGradient>
<radialGradient id="paint1_radial_13440_256287" cx="0" cy="0" r="1" gradientUnits="userSpaceOnUse" gradientTransform="translate(15 1.00024) rotate(90) scale(28)">
<stop offset="0.484375" stop-color="#5338FF" stop-opacity="0"/>
<stop offset="1" stop-color="#465AFF"/>
</radialGradient>
</defs>
</svg>
