<svg viewBox="0 0 16 16" fill="none" xmlns="http://www.w3.org/2000/svg">
<path d="M2.66406 4V2.4C2.66406 2.29391 2.70621 2.19217 2.78122 2.11716C2.85623 2.04214 2.95798 2 3.06406 2H12.9307C13.0368 2 13.1386 2.04214 13.2136 2.11716C13.2886 2.19217 13.3307 2.29391 13.3307 2.4V4M2.66406 12V13.6C2.66406 13.7061 2.70621 13.8078 2.78122 13.8828C2.85623 13.9579 2.95798 14 3.06406 14H12.9307C13.0368 14 13.1386 13.9579 13.2136 13.8828C13.2886 13.8078 13.3307 13.7061 13.3307 13.6V12" stroke="#color" stroke-width="1.5" stroke-linecap="round" stroke-linejoin="round"/>
<path d="M10.3307 10V6H12.3307M10.3307 8H11.6641M7.9974 10V6M5.66406 6H3.66406V10H5.66406V8.4" stroke="#color" stroke-width="1.5" stroke-linecap="round" stroke-linejoin="round"/>
</svg>
