<svg width="20" height="20" viewBox="0 0 20 20" fill="none" xmlns="http://www.w3.org/2000/svg">
<path d="M9.98956 1.86719C14.605 1.86719 18.3229 5.58514 18.3229 10.2005C18.3229 13.8864 15.9191 17.0274 12.6178 18.1172C12.3293 18.2133 12.0729 18.0531 12.0729 17.7005V15.4248C12.0729 14.3031 11.496 13.8864 11.496 13.8864C13.3229 13.6941 15.3101 12.989 15.3101 9.78385C15.3101 8.3736 14.4447 7.54026 14.4447 7.54026C14.4447 7.54026 14.8934 6.61078 14.3806 5.32873C14.3806 5.32873 13.6755 5.10437 12.0729 6.19411C10.7267 5.8095 9.25239 5.8095 7.90625 6.19411C6.30368 5.10437 5.59856 5.32873 5.59856 5.32873C5.08573 6.61078 5.53445 7.54026 5.53445 7.54026C5.53445 7.54026 4.66907 8.3736 4.66907 9.78385C4.66907 12.989 6.65625 13.6941 8.48314 13.8864C8.48314 13.8864 8.03445 14.2069 7.9383 15.0082C7.45753 15.2326 6.23958 15.5851 5.5024 14.3031C5.5024 14.3031 5.08573 13.5018 4.2524 13.4377C4.2524 13.4377 3.41907 13.4377 4.1883 13.9505C4.1883 13.9505 4.73318 14.2069 5.11778 15.1684C5.11778 15.1684 5.63061 16.8031 7.9383 16.2903V17.7005C7.9383 18.0531 7.64984 18.2133 7.36138 18.1172C4.06009 17.0274 1.65625 13.8864 1.65625 10.2005C1.65625 5.58514 5.3742 1.86719 9.98956 1.86719Z" fill="white"/>
</svg>
