<svg width="40" height="40" viewBox="0 0 40 40" fill="none" xmlns="http://www.w3.org/2000/svg">
<path d="M3.33203 23.3333V10M36.6654 23.3333V10M23.332 23.3333H16.6654M3.33203 23.3333C3.33203 25.1014 4.03441 26.7971 5.28465 28.0474C6.5349 29.2976 8.23059 30 9.9987 30C11.7668 30 13.4625 29.2976 14.7127 28.0474C15.963 26.7971 16.6654 25.1014 16.6654 23.3333C16.6654 21.5652 15.963 19.8695 14.7127 18.6193C13.4625 17.369 11.7668 16.6667 9.9987 16.6667C8.23059 16.6667 6.5349 17.369 5.28465 18.6193C4.03441 19.8695 3.33203 21.5652 3.33203 23.3333V23.3333ZM36.6654 23.3333C36.6654 25.1014 35.963 26.7971 34.7127 28.0474C33.4625 29.2976 31.7668 30 29.9987 30C28.2306 30 26.5349 29.2976 25.2847 28.0474C24.0344 26.7971 23.332 25.1014 23.332 23.3333C23.332 21.5652 24.0344 19.8695 25.2847 18.6193C26.5349 17.369 28.2306 16.6667 29.9987 16.6667C31.7668 16.6667 33.4625 17.369 34.7127 18.6193C35.963 19.8695 36.6654 21.5652 36.6654 23.3333V23.3333Z" stroke="#777777" stroke-width="1.5" stroke-linecap="round" stroke-linejoin="round"/>
</svg>
