<svg viewBox="0 0 40 40" fill="none" xmlns="http://www.w3.org/2000/svg">
<path d="M33.9873 9.57324C33.3046 10.2904 32.3577 10.6961 31.3678 10.6961C30.3778 10.6961 29.4309 10.2904 28.7482 9.57324C27.7912 10.3572 27.2358 11.529 27.2344 12.7662V14.3162C27.2344 14.4533 27.2888 14.5847 27.3857 14.6816C27.4826 14.7785 27.614 14.8329 27.751 14.8329H34.9845C35.1215 14.8329 35.253 14.7785 35.3498 14.6816C35.4467 14.5847 35.5012 14.4533 35.5012 14.3162V12.7662C35.4998 11.529 34.9443 10.3572 33.9873 9.57324Z" fill="url(#paint0_linear_4559_34738)"/>
<path d="M27.7489 15.8668C27.3378 15.8668 26.9434 15.7035 26.6528 15.4128C26.3622 15.1222 26.1989 14.7278 26.1989 14.3168V12.7668C26.1993 11.2195 26.8934 9.75393 28.0898 8.7729L28.1465 8.72631H28.1467C27.8845 8.2184 27.7479 7.65487 27.7489 7.08334C27.7505 6.92073 27.7625 6.75858 27.7851 6.59758C25.5724 5.30867 23.0748 4.58786 20.5156 4.5V19.7882L31.3091 30.5817C33.1246 28.646 34.4112 26.2753 35.0446 23.6978C35.6782 21.1206 35.6372 18.4236 34.9258 15.8668L27.7489 15.8668Z" fill="url(#paint1_linear_4559_34738)"/>
<path d="M33.9519 7.08337C33.9519 8.51021 32.7954 9.66673 31.3685 9.66673C29.9417 9.66673 28.7852 8.51021 28.7852 7.08337C28.7852 5.65652 29.9417 4.5 31.3685 4.5C32.7954 4.5 33.9519 5.65652 33.9519 7.08337Z" fill="url(#paint2_linear_4559_34738)"/>
<path d="M11.253 30.2402C10.5702 30.9574 9.62333 31.3631 8.63339 31.3631C7.64344 31.3631 6.69654 30.9574 6.01382 30.2402C5.05683 31.0242 4.50142 32.196 4.5 33.4332V34.9832C4.5 35.1202 4.55444 35.2517 4.65131 35.3486C4.74819 35.4455 4.87966 35.4999 5.01667 35.4999H12.2501C12.3871 35.4999 12.5186 35.4455 12.6155 35.3486C12.7123 35.2517 12.7668 35.1202 12.7668 34.9832V33.4332C12.7654 32.196 12.21 31.0242 11.253 30.2402Z" fill="url(#paint3_linear_4559_34738)"/>
<path d="M11.2175 27.7504C11.2175 29.1772 10.061 30.3337 8.63415 30.3337C7.2073 30.3337 6.05078 29.1772 6.05078 27.7504C6.05078 26.3235 7.2073 25.167 8.63415 25.167C10.061 25.167 11.2175 26.3235 11.2175 27.7504Z" fill="url(#paint4_linear_4559_34738)"/>
<path d="M19.4815 20.0002V4.5C16.1503 4.61164 12.9442 5.79399 10.3378 7.87155C7.73162 9.94934 5.86469 12.8118 5.0138 16.0344C4.16268 19.2569 4.37325 22.6679 5.61374 25.7614C6.189 24.8912 7.11162 24.3115 8.14543 24.1715C9.17902 24.0315 10.2228 24.3443 11.0088 25.03C11.7949 25.7157 12.2465 26.7076 12.2479 27.7506C12.2488 28.3222 12.1123 28.8857 11.85 29.3936L11.9067 29.4402H11.907C13.1034 30.4211 13.7975 31.8868 13.7979 33.434V34.209C16.5727 35.4167 19.6402 35.786 22.6227 35.271C25.6048 34.7559 28.3709 33.3791 30.5794 31.3106L19.6313 20.3671C19.5344 20.2698 19.4806 20.1376 19.4813 20.0004L19.4815 20.0002Z" fill="url(#paint5_linear_4559_34738)"/>
<defs>
<linearGradient id="paint0_linear_4559_34738" x1="27.2344" y1="12.2031" x2="35.5012" y2="12.2031" gradientUnits="userSpaceOnUse">
<stop stop-color="#5433FF"/>
<stop offset="0.5" stop-color="#20BDFF"/>
<stop offset="1" stop-color="#A5FECB"/>
</linearGradient>
<linearGradient id="paint1_linear_4559_34738" x1="20.5156" y1="17.5408" x2="35.4913" y2="17.5408" gradientUnits="userSpaceOnUse">
<stop stop-color="#5433FF"/>
<stop offset="0.5" stop-color="#20BDFF"/>
<stop offset="1" stop-color="#A5FECB"/>
</linearGradient>
<linearGradient id="paint2_linear_4559_34738" x1="28.7852" y1="7.08337" x2="33.9519" y2="7.08337" gradientUnits="userSpaceOnUse">
<stop stop-color="#5433FF"/>
<stop offset="0.5" stop-color="#20BDFF"/>
<stop offset="1" stop-color="#A5FECB"/>
</linearGradient>
<linearGradient id="paint3_linear_4559_34738" x1="4.5" y1="32.8701" x2="12.7668" y2="32.8701" gradientUnits="userSpaceOnUse">
<stop stop-color="#5433FF"/>
<stop offset="0.5" stop-color="#20BDFF"/>
<stop offset="1" stop-color="#A5FECB"/>
</linearGradient>
<linearGradient id="paint4_linear_4559_34738" x1="6.05078" y1="27.7504" x2="11.2175" y2="27.7504" gradientUnits="userSpaceOnUse">
<stop stop-color="#5433FF"/>
<stop offset="0.5" stop-color="#20BDFF"/>
<stop offset="1" stop-color="#A5FECB"/>
</linearGradient>
<linearGradient id="paint5_linear_4559_34738" x1="4.5" y1="19.9985" x2="30.5794" y2="19.9985" gradientUnits="userSpaceOnUse">
<stop stop-color="#5433FF"/>
<stop offset="0.5" stop-color="#20BDFF"/>
<stop offset="1" stop-color="#A5FECB"/>
</linearGradient>
</defs>
</svg>
