<svg width="24" height="24" viewBox="0 0 24 24" fill="none" xmlns="http://www.w3.org/2000/svg">
<g id="dapp/icons/40x40/alternative sidebar/governance">
<path id="Subtract" fill-rule="evenodd" clip-rule="evenodd" d="M17.1533 8.39953L14.076 5.32413C13.6144 4.79906 12.922 4.49902 12.2296 4.49902H7.99831C6.92124 4.49902 5.99805 5.39914 5.99805 6.52429V17.5507C5.99805 18.6009 6.92124 19.501 7.99831 19.501H15.9993C17.0764 19.501 17.9996 18.6009 17.9996 17.4757V11.1749V10.2748C17.9996 9.52468 17.6919 8.84959 17.1533 8.39953ZM14.0995 12.7496H9.59888C9.14882 12.7496 8.84878 13.0497 8.84878 13.4997C8.84878 13.9498 9.14882 14.2498 9.59888 14.2498H14.0995C14.5495 14.2498 14.8496 13.9498 14.8496 13.4997C14.8496 13.0497 14.4745 12.7496 14.0995 12.7496ZM9.59888 14.9999H11.8492C12.2242 14.9999 12.5993 15.3 12.5993 15.75C12.5993 16.2001 12.2992 16.5001 11.8492 16.5001H9.59888C9.14882 16.5001 8.84878 16.2001 8.84878 15.75C8.84878 15.3 9.14882 14.9999 9.59888 14.9999Z" fill="#999999"/>
</g>
</svg>
