<svg width="28" height="28" viewBox="0 0 28 28" fill="none" xmlns="http://www.w3.org/2000/svg">
<path fill-rule="evenodd" clip-rule="evenodd" d="M20.0145 9.80059L16.4243 6.21263C15.8858 5.60005 15.078 5.25 14.2702 5.25H9.33364C8.07706 5.25 7 6.30014 7 7.61281V20.477C7 21.7021 8.07706 22.7523 9.33364 22.7523H18.6682C19.9247 22.7523 21.0018 21.7021 21.0018 20.3895V13.0385V11.9884C21.0018 11.1133 20.6428 10.3257 20.0145 9.80059ZM16.4517 14.8757H11.201C10.6759 14.8757 10.3259 15.2258 10.3259 15.7508C10.3259 16.2759 10.6759 16.626 11.201 16.626H16.4517C16.9767 16.626 17.3268 16.2759 17.3268 15.7508C17.3268 15.2258 16.8892 14.8757 16.4517 14.8757ZM11.201 17.5011H13.8263C14.2639 17.5011 14.7014 17.8511 14.7014 18.3762C14.7014 18.9013 14.3514 19.2513 13.8263 19.2513H11.201C10.6759 19.2513 10.3259 18.9013 10.3259 18.3762C10.3259 17.8511 10.6759 17.5011 11.201 17.5011Z" fill="url(#paint0_linear_10215_169837)"/>
<defs>
<linearGradient id="paint0_linear_10215_169837" x1="7" y1="14.0011" x2="21.0018" y2="14.0011" gradientUnits="userSpaceOnUse">
<stop stop-color="#5433FF"/>
<stop offset="0.5" stop-color="#20BDFF"/>
<stop offset="1" stop-color="#A5FECB"/>
</linearGradient>
</defs>
</svg>
