<svg width="40" height="40" viewBox="0 0 40 40" fill="none" xmlns="http://www.w3.org/2000/svg">
<path fill-rule="evenodd" clip-rule="evenodd" d="M7.5 20C7.5 26.9037 13.0963 32.5 20 32.5C26.9037 32.5 32.5 26.9037 32.5 20C32.5 13.0963 26.9037 7.5 20 7.5C13.0963 7.5 7.5 13.0963 7.5 20ZM26.0901 23.8559C26.0387 24.156 25.7785 24.3753 25.4741 24.3753H14.5281C14.2236 24.3753 13.9635 24.156 13.912 23.8559L12.7097 16.842C12.6231 16.3372 13.1471 15.9483 13.6052 16.1774L17.3146 18.0321C17.5711 18.1603 17.882 18.0976 18.0687 17.8798L19.5265 16.1789C19.776 15.8879 20.2262 15.8879 20.4756 16.1789L21.9335 17.8798C22.1201 18.0976 22.431 18.1603 22.6875 18.0321L26.397 16.1774C26.8551 15.9483 27.379 16.3372 27.2925 16.842L26.0901 23.8559Z" fill="url(#paint0_linear_18202_284632)"/>
<defs>
<linearGradient id="paint0_linear_18202_284632" x1="7.5" y1="20" x2="32.5" y2="20" gradientUnits="userSpaceOnUse">
<stop stop-color="#5433FF"/>
<stop offset="0.5" stop-color="#20BDFF"/>
<stop offset="1" stop-color="#A5FECB"/>
</linearGradient>
</defs>
</svg>
