<?xml version="1.0" encoding="utf-8"?>
<!-- Generator: Adobe Illustrator 25.4.0, SVG Export Plug-In . SVG Version: 6.00 Build 0)  -->
<svg version="1.1" id="Layer_1" xmlns="http://www.w3.org/2000/svg" xmlns:xlink="http://www.w3.org/1999/xlink" x="0px" y="0px"
	 viewBox="0 0 28 28" style="enable-background:new 0 0 28 28;" xml:space="preserve">
<style type="text/css">
	.st0{fill:none;stroke:#A3A3A3;stroke-width:1.5;}
</style>
<path class="st0" d="M3.5,23.8V17c0-0.4,0.3-0.7,0.7-0.7H11c0.4,0,0.7,0.3,0.7,0.7v6.8c0,0.4-0.3,0.7-0.7,0.7H4.2
	C3.8,24.5,3.5,24.2,3.5,23.8z"/>
<path class="st0" d="M16.3,11V4.2c0-0.4,0.3-0.7,0.7-0.7h6.8c0.4,0,0.7,0.3,0.7,0.7V11c0,0.4-0.3,0.7-0.7,0.7H17
	C16.6,11.7,16.3,11.4,16.3,11z"/>
<path class="st0" d="M3.5,11V4.2c0-0.4,0.3-0.7,0.7-0.7H11c0.4,0,0.7,0.3,0.7,0.7V11c0,0.4-0.3,0.7-0.7,0.7H4.2
	C3.8,11.7,3.5,11.4,3.5,11z"/>
<circle class="st0" cx="20.3" cy="20.3" r="3.8"/>
</svg>
