<svg width="40" height="40" viewBox="0 0 40 40" fill="none" xmlns="http://www.w3.org/2000/svg">
<path d="M20.0006 4.00005C27.7175 4.00005 32.0131 5.59184 33.1507 6.081C33.145 7.39381 33.1012 8.63599 33.0366 9.83724C31.3813 9.05832 27.5105 7.62446 21.2789 7.44472L20.8388 6.30013V6.29989C22.8257 6.34129 24.8073 6.52531 26.7679 6.85099C27.0792 6.90292 27.374 6.69282 27.4262 6.38125C27.4781 6.06993 27.268 5.77511 26.9564 5.72295C22.3454 4.92466 17.6314 4.92607 13.0209 5.72749C12.7347 5.78851 12.5409 6.05557 12.5715 6.34653C12.6019 6.63728 12.847 6.85839 13.1396 6.85863C13.1798 6.85863 13.2198 6.85456 13.2593 6.84642C15.2083 6.49394 17.1842 6.30992 19.1651 6.29604L18.7234 7.44467C12.4926 7.62438 8.62158 9.05802 6.96571 9.83744C6.9011 8.63594 6.85731 7.3937 6.85156 6.0812C7.98849 5.59183 12.2841 4 20.0011 4L20.0006 4.00005ZM24.7145 15.2383C24.8231 15.3634 24.9806 15.4352 25.1464 15.4352C26.0007 15.4352 26.7375 14.544 27.2549 13.6697C27.1886 15.378 26.8734 17.0677 26.3193 18.6849C26.2611 18.8593 26.2903 19.051 26.398 19.2001C26.5054 19.3492 26.678 19.4377 26.8617 19.4377C27.6416 19.3231 28.3576 18.9419 28.8884 18.359C28.3473 20.3006 27.6395 22.192 26.7725 24.0116H23.132L23.9619 21.9367L23.9622 21.9369C24.0505 21.7163 23.993 21.4643 23.8183 21.3038C23.6437 21.1429 23.3879 21.1071 23.1754 21.2133L21.6111 21.9956L20.568 13.6489C20.5321 13.3627 20.289 13.148 20.0006 13.148C19.7123 13.148 19.4691 13.3627 19.4332 13.6489L18.3902 21.9956L16.8259 21.2133C16.6134 21.107 16.3576 21.1429 16.1829 21.3038C16.008 21.4643 15.9508 21.7163 16.0391 21.9369L16.8692 24.0116H13.2288C12.3618 22.192 11.6539 20.3006 11.1129 18.359C11.6437 18.9419 12.3597 19.3231 13.1395 19.4377C13.3233 19.4377 13.4958 19.3492 13.6033 19.2001C13.7109 19.051 13.7401 18.8593 13.682 18.6849C13.1278 17.0677 12.8126 15.378 12.7464 13.6697C13.2637 14.544 14.0005 15.4352 14.8548 15.4352C15.0207 15.4352 15.1781 15.3634 15.2868 15.238C15.3954 15.1129 15.4442 14.9465 15.4208 14.7826C15.2714 13.7831 15.2449 12.7689 15.342 11.7629C15.6368 12.5461 16.1791 13.2121 16.8862 13.6596C17.0303 13.7319 17.1983 13.7398 17.3485 13.6816C17.4991 13.6232 17.6178 13.5043 17.6757 13.3538L20.0007 7.30836L22.3257 13.3538C22.3836 13.5043 22.5023 13.6232 22.6528 13.6816C22.8031 13.7398 22.9711 13.7319 23.1151 13.6596C23.8223 13.2121 24.3645 12.5461 24.6593 11.7629C24.7565 12.7689 24.7299 13.7831 24.5806 14.7826C24.5571 14.9468 24.606 15.1129 24.7146 15.2382L24.7145 15.2383ZM18.2448 24.3716L17.6597 22.9087L18.6016 23.3799C18.7674 23.4629 18.9634 23.4601 19.1271 23.3725C19.2905 23.2849 19.4016 23.1234 19.4245 22.9394L20.0008 18.33L20.577 22.9394C20.6 23.1234 20.711 23.2849 20.8744 23.3725C21.0381 23.4601 21.2341 23.4629 21.3999 23.3799L22.3418 22.9087L21.7567 24.3716C21.6864 24.5477 21.7079 24.7473 21.8144 24.9042C21.9209 25.0615 22.0982 25.1555 22.2877 25.1555H25.9741L20.9048 27.4951C20.7426 27.5698 20.6249 27.716 20.5863 27.8904L20.0008 30.5246L19.4152 27.8904C19.3767 27.716 19.2589 27.5698 19.0967 27.4951L14.0274 25.1555H17.7138C17.9033 25.1555 18.0807 25.0615 18.1871 24.9045C18.2936 24.7473 18.3152 24.5477 18.2448 24.3716H18.2448ZM18.3606 28.4147L18.9323 30.9872C17.8023 30.2027 16.3897 28.5303 15.267 26.9871L18.3606 28.4147ZM21.6409 28.4147L24.7348 26.9868C23.6123 28.5303 22.1997 30.203 21.0692 30.9872L21.6409 28.4147ZM20.0008 36C18.7777 35.6478 8.54817 32.0578 7.04056 11.075C8.21841 10.4588 11.8682 8.861 18.2763 8.60499L16.8994 12.1856C16.4739 11.5675 16.1628 10.8783 15.9807 10.1503C15.9384 9.98235 15.8223 9.84261 15.6648 9.7701C15.5074 9.69783 15.3257 9.7007 15.1707 9.778C14.1383 10.2944 14.0675 12.2878 14.1611 13.7178C13.7254 13.1243 13.3683 12.477 13.0981 11.7919C13.0192 11.5952 12.8375 11.458 12.6265 11.4363C12.4154 11.4143 12.2096 11.5112 12.0919 11.6875C11.1658 13.0767 11.7712 16.0909 12.2321 17.816H12.2319C11.6748 17.3482 11.1735 16.8177 10.7377 16.2352C10.59 16.0385 10.333 15.9586 10.0995 16.0363C9.86614 16.1143 9.70892 16.3326 9.70868 16.5786C9.70868 18.666 11.0844 22.048 11.971 24.0113H11.424C11.1555 24.0115 10.9231 24.1982 10.8655 24.4607C10.808 24.723 10.9406 24.9898 11.1845 25.1025L13.2396 26.0511C13.6483 26.6919 16.817 31.5547 19.2538 32.4356L19.4424 33.2837C19.5003 33.5453 19.7324 33.7315 20.0005 33.7315C20.2685 33.7315 20.5006 33.5453 20.5585 33.2837L20.7471 32.4356C23.1838 31.5548 26.3524 26.692 26.7614 26.0511L28.8165 25.1025C29.0603 24.9898 29.1929 24.723 29.1354 24.4607C29.0778 24.1984 28.8454 24.0115 28.5769 24.0113H28.0299C28.9165 22.0479 30.2922 18.6659 30.2922 16.5786C30.292 16.3326 30.1348 16.1144 29.9012 16.0363C29.6679 15.9586 29.4109 16.0385 29.2633 16.2352C28.8275 16.8176 28.3262 17.3482 27.7691 17.816C28.2299 16.0907 28.8354 13.0767 27.9093 11.6875H27.909C27.7927 11.5095 27.5858 11.4123 27.3744 11.4363C27.1634 11.458 26.9818 11.5949 26.9028 11.7919C26.6326 12.477 26.2754 13.1243 25.8398 13.7178C25.9334 12.2877 25.8628 10.2944 24.8302 9.778C24.6752 9.70047 24.4933 9.69759 24.3356 9.7701C24.1781 9.84261 24.0618 9.98284 24.02 10.1511C23.834 10.8778 23.5237 11.567 23.1025 12.188L21.7246 8.60498C28.1349 8.86103 31.7836 10.4593 32.961 11.0752C31.4529 32.0575 21.2235 35.6474 20.0007 35.9996L20.0008 36Z" fill="url(#paint0_linear_4559_34739)"/>
<defs>
<linearGradient id="paint0_linear_4559_34739" x1="6.85156" y1="20" x2="33.1507" y2="20" gradientUnits="userSpaceOnUse">
<stop stop-color="#5433FF"/>
<stop offset="0.5" stop-color="#20BDFF"/>
<stop offset="1" stop-color="#A5FECB"/>
</linearGradient>
</defs>
</svg>
