<svg width="40" height="40" viewBox="0 0 40 40" fill="none" xmlns="http://www.w3.org/2000/svg">
<path d="M21.3595 5.00695C21.2334 4.75459 21.0396 4.54233 20.7996 4.39398C20.5597 4.24563 20.2832 4.16704 20.0011 4.16704M21.3595 5.00695L25.6895 13.7269L35.3695 15.1353C35.648 15.1745 35.9099 15.291 36.1255 15.4717C36.3411 15.6523 36.5017 15.8898 36.589 16.1572C36.6763 16.4246 36.6869 16.7111 36.6195 16.9841C36.5521 17.2572 36.4095 17.5059 36.2078 17.7019L29.2045 24.4853L30.8578 34.0686C31.0695 35.3003 29.7695 36.2386 28.6595 35.6569L20.0011 31.1303M21.3595 5.00695C21.2353 4.75309 21.0419 4.53951 20.8015 4.39088C20.5612 4.24225 20.2837 4.16471 20.0011 4.16704M20.0011 4.16704C19.719 4.16704 19.4425 4.24563 19.2026 4.39398C18.9627 4.54233 18.7688 4.75459 18.6428 5.00695L17.8161 6.67028M20.0011 4.16704V31.1303M20.0011 31.1303L17.3811 32.5003M9.45279 32.282L9.14446 34.0686C8.93279 35.3003 10.2328 36.2386 11.3445 35.657L12.7561 34.9186M10.4228 26.667L10.7978 24.4869L9.63946 23.3653M6.16612 20.0003L3.79446 17.7036C3.59178 17.5077 3.44827 17.2588 3.3803 16.9852C3.31233 16.7116 3.32264 16.4245 3.41005 16.1565C3.49747 15.8885 3.65847 15.6505 3.87468 15.4696C4.09088 15.2888 4.35358 15.1723 4.63279 15.1336L6.48279 14.8653M11.6678 14.1119L14.3128 13.7269L15.6528 11.0303" stroke="#777777" stroke-width="1.5" stroke-linecap="round" stroke-linejoin="round"/>
</svg>
