<svg width="20" height="20" viewBox="0 0 20 20" fill="none" xmlns="http://www.w3.org/2000/svg">
<path d="M8.375 3.8125C8.375 3.64014 8.34105 3.46947 8.27509 3.31023C8.20913 3.15099 8.11246 3.0063 7.99058 2.88442C7.8687 2.76255 7.72401 2.66587 7.56477 2.59991C7.40553 2.53395 7.23486 2.5 7.0625 2.5C6.89014 2.5 6.71947 2.53395 6.56023 2.59991C6.40099 2.66587 6.2563 2.76255 6.13442 2.88442C6.01255 3.0063 5.91587 3.15099 5.84991 3.31023C5.78395 3.46947 5.75 3.64014 5.75 3.8125V6.3125M8.375 3.8125V2.5625C8.375 2.2144 8.51328 1.88056 8.75942 1.63442C9.00556 1.38828 9.3394 1.25 9.6875 1.25C10.0356 1.25 10.3694 1.38828 10.6156 1.63442C10.8617 1.88056 11 2.2144 11 2.5625V3.8125M8.375 3.8125L8.4375 8.75M5.75 6.3125C5.75 5.9644 5.61172 5.63056 5.36558 5.38442C5.11944 5.13828 4.7856 5 4.4375 5C4.0894 5 3.75556 5.13828 3.50942 5.38442C3.26328 5.63056 3.125 5.9644 3.125 6.3125V13.125C3.125 14.6168 3.71763 16.0476 4.77252 17.1025C5.82742 18.1574 7.25816 18.75 8.75 18.75H10.4317C11.5919 18.7499 12.7046 18.2888 13.525 17.4683L14.9683 16.025C15.7888 15.2046 16.2499 14.0919 16.25 12.9317L16.2525 11.245C16.2533 11.0975 16.3127 10.9563 16.4175 10.8525C16.5394 10.7306 16.6361 10.5859 16.7021 10.4266C16.7681 10.2673 16.802 10.0966 16.802 9.92417C16.802 9.75176 16.7681 9.58104 16.7021 9.42176C16.6361 9.26247 16.5394 9.11774 16.4175 8.99583C16.2956 8.87392 16.1509 8.77722 15.9916 8.71124C15.8323 8.64526 15.6616 8.6113 15.4892 8.6113C15.3168 8.6113 15.146 8.64526 14.9868 8.71124C14.8275 8.77722 14.6827 8.87392 14.5608 8.99583C13.9662 9.58967 13.6307 10.3946 13.6275 11.235M5.75 6.3125V10M11 3.8125V9.375M11 3.8125C11 3.4644 11.1383 3.13056 11.3844 2.88442C11.6306 2.63828 11.9644 2.5 12.3125 2.5C12.6606 2.5 12.9944 2.63828 13.2406 2.88442C13.4867 3.13056 13.625 3.4644 13.625 3.8125V12.5M13.625 12.5C13.1328 12.4998 12.6453 12.5967 12.1906 12.7851C11.7358 12.9736 11.3228 13.2499 10.975 13.5983M13.625 12.5H13.6267" stroke="#F46F76" stroke-linecap="round" stroke-linejoin="round"/>
</svg>
