<svg width="22" height="22" viewBox="0 0 22 22" fill="none" xmlns="http://www.w3.org/2000/svg">
<path d="M13.8939 4.12137C13.8939 4.12137 13.8939 4.12138 13.8939 4.12137L18.1365 8.36403L19.0862 7.41437C19.8672 6.63332 19.8672 5.36699 19.0862 4.58595L17.672 3.17173C16.8909 2.39068 15.6246 2.39068 14.8435 3.17173L13.8939 4.12137Z" fill="#999999"/>
<path d="M17.0759 9.42468L12.8333 5.18204L3.74791 14.2674C3.41584 14.5995 3.21121 15.0378 3.16989 15.5056L2.9278 18.2461C2.87303 18.8661 3.3919 19.385 4.01192 19.3302L6.75233 19.0881C7.22014 19.0468 7.65848 18.8421 7.99055 18.5101L17.0759 9.42468Z" fill="#999999"/>
</svg>
