<svg xmlns="http://www.w3.org/2000/svg" fill="none" viewBox="0 0 120 34"><g clip-path="url(#clip0_1156_3872)"><path opacity="0.75" d="M29.7485 21.4025C30.7161 18.7463 31.0955 15.8815 30.6971 13.0736C30.0141 8.25463 27.4528 4.53605 22.6338 1.91787C16.5058 -1.4592 8.1959 -0.263946 3.22515 4.68783C0.474159 7.43882 -1.19541 11.9922 1.02436 15.1985C2.637 17.5131 5.72949 18.3669 7.55084 20.5108C9.82752 23.2048 9.65677 27.3598 11.9145 30.0538C13.9255 32.4444 17.5303 33.1084 20.49 32.1218C22.9753 31.306 27.4528 27.6823 29.7485 21.4025V21.4025Z" fill="#3066DB"></path><path opacity="0.8" d="M20.4905 32.1372C22.9759 31.3214 27.4534 27.6977 29.749 21.4179C30.7166 18.7617 31.2478 16.2005 30.6976 13.089C28.8573 2.82498 16.2787 16.0297 14.0969 17.3768C9.80911 20.0139 8.63283 25.8194 11.6874 29.8226C11.7633 29.9175 11.8202 30.0123 11.8961 30.0882C13.9071 32.4598 17.5308 33.1048 20.4905 32.1372Z" fill="#3066DB"></path><path opacity="0.7" d="M24.3986 3.51126C21.7424 2.54367 18.8776 2.16423 16.0697 2.56265C11.2507 3.24565 7.53215 5.80692 4.91397 10.6259C1.53689 16.754 2.73215 25.0638 7.68393 30.0346C10.4349 32.7856 14.9883 34.4551 18.1946 32.2354C20.5092 30.6227 21.363 27.5302 23.5069 25.7089C26.2009 23.4322 30.3559 23.603 33.0499 21.3453C35.4405 19.3342 36.1045 15.7294 35.1179 12.7698C34.3021 10.2844 30.6784 5.80692 24.3986 3.51126Z" fill="#3066DB"></path><path d="M18.897 23.7918L16.4495 18.859L14.8179 20.3578L14.078 23.7918H11.2891L13.9642 11.1562H16.7721L15.7286 16.0701L21.1167 11.1562H25.0061L18.6503 16.8859L22.2551 23.7918H18.897Z" fill="white"></path><path d="M60.7689 29.1223L55.9309 19.7879L52.6677 22.7476L51.3396 29.1413H46.957L51.7191 6.62109H56.1017L54.0906 16.1262L64.6392 6.62109H70.6724L59.4029 16.6954L65.9104 29.1223H60.7689Z" fill="rgb(1,3,6)"></path><path d="M80.1199 13.4902H84.218L81.6377 25.6894C81.448 26.6001 81.3531 27.5487 81.3531 28.5163C81.3531 28.725 81.3721 28.9336 81.3911 29.1234H77.4828C77.4638 28.9526 77.4448 28.706 77.4448 28.3835C77.4448 28.0989 77.4638 27.7194 77.5018 27.2072C76.5152 28.668 75.1112 29.408 73.3089 29.408C71.4496 29.408 69.9697 28.7439 68.8693 27.4159C67.7689 26.0878 67.2188 24.4372 67.2188 22.4451C67.2188 19.789 67.9776 17.5882 69.5144 15.7858C71.0322 14.0024 72.9294 13.0918 75.2061 13.0918C76.4962 13.0918 77.5018 13.3194 78.2417 13.7558C78.9816 14.1921 79.4749 14.7044 79.7595 15.2546L80.1199 13.4902ZM75.5476 16.8862C74.2765 16.8862 73.2709 17.4364 72.531 18.5368C71.7911 19.6372 71.4116 20.8894 71.4116 22.2933C71.4116 23.3748 71.6772 24.2285 72.2464 24.8356C72.7966 25.4427 73.5365 25.7653 74.4662 25.7653C75.5856 25.7653 76.5531 25.253 77.35 24.2475C78.1468 23.242 78.5452 21.8949 78.5452 20.2254C78.5452 19.1819 78.2796 18.3661 77.7484 17.7779C77.2172 17.1898 76.4773 16.8862 75.5476 16.8862ZM104.215 6.12891L100.079 25.7084C99.8891 26.5621 99.7753 27.4728 99.7373 28.4783C99.7373 28.8388 99.7563 29.0665 99.7753 29.1423H95.9239C95.9049 28.9526 95.8859 28.687 95.8859 28.3455C95.8859 28.0609 95.9049 27.7004 95.9429 27.2261C94.9563 28.687 93.5523 29.4269 91.75 29.4269C89.8907 29.408 88.4108 28.7439 87.3105 27.4348C86.2101 26.1257 85.6599 24.4752 85.6599 22.4831C85.6599 19.8269 86.4188 17.6261 87.9555 15.8238C89.4733 14.0404 91.3705 13.1297 93.6472 13.1297C95.829 13.1297 97.3089 13.8127 98.0867 15.1597L99.984 6.12891H104.215ZM93.9697 16.8862C92.6986 16.8862 91.6931 17.4364 90.9531 18.5368C90.2132 19.6372 89.8338 20.8894 89.8338 22.2933C89.8338 23.3748 90.0994 24.2285 90.6686 24.8356C91.2188 25.4427 91.9587 25.7653 92.8883 25.7653C94.0077 25.7653 94.9753 25.253 95.7721 24.2475C96.5689 23.242 96.9674 21.8949 96.9674 20.2254C96.9674 19.1819 96.7018 18.3661 96.1705 17.7779C95.6393 17.1898 94.8994 16.8862 93.9697 16.8862ZM120 20.2823C120 22.8435 119.165 25.0443 117.514 26.8657C115.864 28.687 113.777 29.5977 111.254 29.5977C109.11 29.5977 107.383 28.8957 106.074 27.5107C104.765 26.1257 104.101 24.3993 104.101 22.3123C104.101 19.5993 104.955 17.3795 106.643 15.6151C108.332 13.8696 110.419 12.9969 112.866 12.9969C115.029 12.9969 116.756 13.6799 118.046 15.0649C119.355 16.4499 120 18.1953 120 20.2823ZM112.563 16.8672C111.348 16.8672 110.343 17.3795 109.546 18.385C108.749 19.3906 108.332 20.6427 108.332 22.1416C108.332 23.2419 108.635 24.1147 109.223 24.7787C109.812 25.4427 110.59 25.7653 111.538 25.7653C112.639 25.7653 113.625 25.291 114.479 24.3423C115.333 23.3937 115.769 22.1036 115.769 20.453C115.769 19.3336 115.484 18.4609 114.896 17.8159C114.308 17.1708 113.53 16.8672 112.563 16.8672Z" fill="rgb(1,3,6)"></path></g><defs><clipPath id="clip0_1156_3872"><rect width="120" height="33.2585" fill="white"></rect></clipPath></defs></svg>
