
<svg width="30" height="30" viewBox="0 0 24 24" fill="none" xmlns="http://www.w3.org/2000/svg">
<path d="M12.6667 18H6.4C6.29391 18 6.19217 17.9579 6.11716 17.8828C6.04214 17.8078 6 17.7061 6 17.6V6.4C6 6.29391 6.04214 6.19217 6.11716 6.11716C6.19217 6.04214 6.29391 6 6.4 6H17.6C17.7061 6 17.8078 6.04214 17.8828 6.11716C17.9579 6.19217 18 6.29391 18 6.4V12.6667" stroke="#A3A3A3" stroke-width="1.25"/>
<path d="M6 14.6667L10.6667 12.6667L14.3333 14.3333M14.6667 16.6667H16.6667M18.6667 16.6667H16.6667M16.6667 16.6667V14.6667M16.6667 16.6667V18.6667M14.6667 10.6667C14.313 10.6667 13.9739 10.5262 13.7239 10.2761C13.4738 10.0261 13.3333 9.68696 13.3333 9.33333C13.3333 8.97971 13.4738 8.64057 13.7239 8.39052C13.9739 8.14048 14.313 8 14.6667 8C15.0203 8 15.3594 8.14048 15.6095 8.39052C15.8595 8.64057 16 8.97971 16 9.33333C16 9.68696 15.8595 10.0261 15.6095 10.2761C15.3594 10.5262 15.0203 10.6667 14.6667 10.6667V10.6667Z" stroke="#A3A3A3" stroke-width="1.25"/>
</svg>
