<svg viewBox="0 0 28 28" fill="none" xmlns="http://www.w3.org/2000/svg">
<path fill-rule="evenodd" clip-rule="evenodd" d="M12.1071 18.7615L17.9326 15.7098C18.7511 15.2812 19.4534 14.6604 19.9792 13.9006C20.505 13.1409 20.8386 12.2649 20.9513 11.3479L21.4392 7.37427C21.4498 7.28813 21.4406 7.20071 21.4124 7.11864C21.3842 7.03656 21.3376 6.96201 21.2762 6.90064C21.2148 6.83927 21.1403 6.79269 21.0582 6.76446C20.9761 6.73622 20.8887 6.72707 20.8026 6.73769L16.829 7.22556C15.9119 7.33828 15.0359 7.67186 14.2762 8.19765C13.5165 8.72345 12.8957 9.42575 12.4671 10.2443L9.41838 16.0728L11.5173 12.0559C7.47981 11.383 6.05078 15.3968 6.05078 15.3968L9.41838 16.0728L12.1071 18.7615ZM14.241 12.0318C14.241 12.5366 14.4415 13.0207 14.7985 13.3776C15.1554 13.7346 15.6395 13.9351 16.1443 13.9351C16.6491 13.9351 17.1332 13.7346 17.4902 13.3776C17.8471 13.0207 18.0476 12.5366 18.0476 12.0318C18.0476 11.527 17.8471 11.0429 17.4902 10.686C17.1332 10.329 16.6491 10.1285 16.1443 10.1285C15.6395 10.1285 15.1554 10.329 14.7985 10.686C14.4415 11.0429 14.241 11.527 14.241 12.0318Z" fill="url(#paint0_linear_10215_169466)"/>
<path d="M6.7237 21.4531C6.7237 21.4531 6.05078 19.4344 7.39662 18.0885L10.0883 20.7802C8.74247 22.1261 6.7237 21.4531 6.7237 21.4531Z" fill="url(#paint1_linear_10215_169466)"/>
<path d="M12.7799 22.126C12.7799 22.126 16.7543 20.717 16.0814 16.6795L12.1071 18.7615L12.7799 22.126Z" fill="url(#paint2_linear_10215_169466)"/>
<defs>
<linearGradient id="paint0_linear_10215_169466" x1="6.05078" y1="14.4297" x2="21.4434" y2="14.4297" gradientUnits="userSpaceOnUse">
<stop stop-color="#5433FF"/>
<stop offset="0.5" stop-color="#20BDFF"/>
<stop offset="1" stop-color="#A5FECB"/>
</linearGradient>
<linearGradient id="paint1_linear_10215_169466" x1="6.05078" y1="14.4297" x2="21.4434" y2="14.4297" gradientUnits="userSpaceOnUse">
<stop stop-color="#5433FF"/>
<stop offset="0.5" stop-color="#20BDFF"/>
<stop offset="1" stop-color="#A5FECB"/>
</linearGradient>
<linearGradient id="paint2_linear_10215_169466" x1="6.05078" y1="14.4297" x2="21.4434" y2="14.4297" gradientUnits="userSpaceOnUse">
<stop stop-color="#5433FF"/>
<stop offset="0.5" stop-color="#20BDFF"/>
<stop offset="1" stop-color="#A5FECB"/>
</linearGradient>
</defs>
</svg>
