<svg viewBox="0 0 28 28" fill="none" xmlns="http://www.w3.org/2000/svg">
<path fill-rule="evenodd" clip-rule="evenodd" d="M12.0593 19.1222L18.9472 15.5139C19.915 15.0072 20.7454 14.2732 21.3671 13.3749C21.9888 12.4766 22.3832 11.4408 22.5165 10.3565L23.0934 5.65816C23.1059 5.55631 23.0951 5.45293 23.0617 5.35589C23.0283 5.25885 22.9733 5.1707 22.9007 5.09813C22.8281 5.02557 22.74 4.9705 22.6429 4.93712C22.5459 4.90373 22.4425 4.89291 22.3407 4.90547L17.6424 5.48232C16.5581 5.6156 15.5223 6.01002 14.624 6.63171C13.7257 7.25341 12.9917 8.08381 12.485 9.05163L8.88023 15.9432L11.362 11.1937C6.5881 10.398 4.89844 15.144 4.89844 15.144L8.88023 15.9432L12.0593 19.1222ZM14.5824 11.1652C14.5824 11.762 14.8195 12.3344 15.2416 12.7565C15.6636 13.1785 16.236 13.4156 16.8329 13.4156C17.4297 13.4156 18.0021 13.1785 18.4242 12.7565C18.8462 12.3344 19.0833 11.762 19.0833 11.1652C19.0833 10.5683 18.8462 9.9959 18.4242 9.57386C18.0021 9.15182 17.4297 8.91472 16.8329 8.91472C16.236 8.91472 15.6636 9.15182 15.2416 9.57386C14.8195 9.9959 14.5824 10.5683 14.5824 11.1652Z" fill="url(#paint0_linear_13834_252229)"/>
<path d="M5.69409 22.3049C5.69409 22.3049 4.89844 19.9179 6.48974 18.3266L9.67234 21.5092C8.08104 23.1005 5.69409 22.3049 5.69409 22.3049Z" fill="url(#paint1_linear_13834_252229)"/>
<path d="M12.8548 23.1004C12.8548 23.1004 17.5541 21.4345 16.7585 16.6606L12.0593 19.1222L12.8548 23.1004Z" fill="url(#paint2_linear_13834_252229)"/>
<defs>
<linearGradient id="paint0_linear_13834_252229" x1="4.89844" y1="14.0004" x2="23.0984" y2="14.0004" gradientUnits="userSpaceOnUse">
<stop stop-color="#5433FF"/>
<stop offset="0.5" stop-color="#20BDFF"/>
<stop offset="1" stop-color="#A5FECB"/>
</linearGradient>
<linearGradient id="paint1_linear_13834_252229" x1="4.89844" y1="14.0004" x2="23.0984" y2="14.0004" gradientUnits="userSpaceOnUse">
<stop stop-color="#5433FF"/>
<stop offset="0.5" stop-color="#20BDFF"/>
<stop offset="1" stop-color="#A5FECB"/>
</linearGradient>
<linearGradient id="paint2_linear_13834_252229" x1="4.89844" y1="14.0004" x2="23.0984" y2="14.0004" gradientUnits="userSpaceOnUse">
<stop stop-color="#5433FF"/>
<stop offset="0.5" stop-color="#20BDFF"/>
<stop offset="1" stop-color="#A5FECB"/>
</linearGradient>
</defs>
</svg>
