<svg viewBox="0 0 28 28" fill="none" xmlns="http://www.w3.org/2000/svg">
<path d="M10.7365 24.266C10.4565 24.266 10.1765 24.1726 9.89653 24.0793C9.14987 23.7059 8.77654 22.9592 8.96321 22.2126L10.0832 16.7993H8.40321C7.65654 16.7993 7.00321 16.3326 6.72321 15.6793C6.44321 15.026 6.53654 14.2793 7.09654 13.8126L15.9632 4.38592C16.5232 3.82592 17.4565 3.63926 18.1099 4.01259C18.8565 4.38592 19.2299 5.13259 19.0432 5.87926L17.9232 11.2926H19.6032C20.3499 11.2926 21.0032 11.7593 21.2832 12.4126C21.5632 13.066 21.4699 13.8126 20.9099 14.2793L12.0432 23.7059C11.6699 24.0793 11.2032 24.266 10.7365 24.266Z" fill="url(#paint0_linear_10215_169843)"/>
<defs>
<linearGradient id="paint0_linear_10215_169843" x1="6.57031" y1="14.0422" x2="21.4361" y2="14.0422" gradientUnits="userSpaceOnUse">
<stop stop-color="#5433FF"/>
<stop offset="0.5" stop-color="#20BDFF"/>
<stop offset="1" stop-color="#A5FECB"/>
</linearGradient>
</defs>
</svg>
