<svg viewBox="0 0 40 40" fill="none" xmlns="http://www.w3.org/2000/svg">
<path d="M12.6997 5.38441C13.0189 5.10364 13.5015 5.10364 13.8211 5.38441C15.7112 7.04435 16.6298 9.73405 16.6298 13.4019V25.9098C16.6298 26.3677 16.2526 26.739 15.7875 26.739H10.7331C10.2677 26.739 9.89062 26.3677 9.89062 25.9098V13.4019C9.89062 9.73377 10.8093 7.04407 12.6996 5.38441H12.6997Z" fill="url(#paint0_linear_4559_33841)"/>
<path d="M16.8236 12.1685C17.0873 11.8279 17.5191 11.8279 17.7827 12.1685C18.8384 13.5312 19.3242 16.089 19.3242 19.8657V26.4943C19.3242 26.898 19.7323 27.937 20.5508 29.4352C20.8617 30.0038 20.542 30.7826 19.998 30.7826H14.6083C14.0681 30.7826 13.7478 30.0139 14.0505 29.4441C14.8691 27.9043 15.2821 26.8527 15.2821 26.4943V19.8657C15.2821 16.0894 15.7679 13.5315 16.8236 12.1685H16.8236ZM16.6294 19.8657V26.4943C16.6294 27.1091 16.3673 27.9396 15.8399 29.0674H18.7533C18.2361 27.9715 17.977 27.1361 17.977 26.4943V19.8657C17.977 17.3173 17.7401 15.4527 17.3032 14.2828C16.8663 15.4527 16.6294 17.3173 16.6294 19.8657Z" fill="url(#paint1_linear_4559_33841)"/>
<path d="M9.31564 12.1685C9.63206 11.8279 10.1501 11.8279 10.4668 12.1685C11.7336 13.5312 12.3163 16.089 12.3163 19.8657V26.4943C12.3163 26.898 12.806 27.937 13.7885 29.4352C14.1612 30.0038 13.7777 30.7826 13.1248 30.7826H6.65754C6.00927 30.7826 5.62465 30.0139 5.98788 29.4441C6.97018 27.9043 7.46577 26.8527 7.46577 26.4943V19.8657C7.46577 16.0894 8.04881 13.5315 9.31555 12.1685H9.31564ZM9.08285 19.8657V26.4943C9.08285 27.1091 8.76805 27.9396 8.1352 29.0674H11.6315C11.0106 27.9715 10.6996 27.1361 10.6996 26.4943V19.8657C10.6996 17.3173 10.4154 15.4527 9.89109 14.2828C9.36679 15.4527 9.08285 17.3173 9.08285 19.8657Z" fill="url(#paint2_linear_4559_33841)"/>
<path d="M5.27482 36.174C4.84693 36.174 4.5 35.8723 4.5 35.5002C4.5 35.1279 4.84694 34.8262 5.27482 34.8262H34.7252C35.1531 34.8262 35.5 35.1279 35.5 35.5002C35.5 35.8723 35.1531 36.174 34.7252 36.174H5.27482Z" fill="url(#paint3_linear_4559_33841)"/>
<path d="M9.89079 35.4251C9.89079 35.8385 9.58909 36.1737 9.21677 36.1737C8.84466 36.1737 8.54297 35.8385 8.54297 35.4251V30.1834C8.54297 29.77 8.84467 29.4346 9.21677 29.4346C9.58909 29.4346 9.89079 29.77 9.89079 30.1834V35.4251Z" fill="url(#paint4_linear_4559_33841)"/>
<path d="M17.9806 35.3653C17.9806 35.8119 17.6788 36.1739 17.3067 36.1739C16.9347 36.1739 16.6328 35.8118 16.6328 35.3653V28.8954C16.6328 28.4489 16.9347 28.0869 17.3067 28.0869C17.6788 28.0869 17.9806 28.4489 17.9806 28.8954V35.3653Z" fill="url(#paint5_linear_4559_33841)"/>
<path d="M26.336 5.4436V35.3655C26.336 35.812 25.974 36.174 25.5275 36.174C25.0808 36.174 24.7188 35.812 24.7188 35.3655V4.63468C24.7188 4.18818 25.0808 3.82617 25.5275 3.82617H31.9969C32.4434 3.82617 32.8057 4.18819 32.8057 4.63468V35.3655C32.8057 35.812 32.4434 36.174 31.9969 36.174C31.5504 36.174 31.1881 35.812 31.1881 35.3655V5.4436H26.336Z" fill="url(#paint6_linear_4559_33841)"/>
<path d="M25.255 9.2168C25.7015 9.2168 26.0635 9.5185 26.0635 9.89059C26.0635 10.2629 25.7015 10.5646 25.255 10.5646H18.7851C18.3386 10.5646 17.9766 10.2629 17.9766 9.89059C17.9766 9.51849 18.3386 9.2168 18.7851 9.2168H25.255Z" fill="url(#paint7_linear_4559_33841)"/>
<path d="M30.8533 11.1046L24.9557 5.20668C24.6398 4.89097 24.6398 4.37897 24.9557 4.06296C25.2715 3.74724 25.7834 3.74724 26.0995 4.06296L32.5689 10.5327C32.8846 10.8484 32.8846 11.3604 32.5689 11.6764L26.671 17.574L32.5689 23.4716C32.8846 23.7876 32.8846 24.2996 32.5689 24.6153L26.671 30.5132L30.9516 34.7935C31.2673 35.1092 31.2673 35.6212 30.9516 35.9372C30.6356 36.2529 30.1236 36.2529 29.8079 35.9372L24.9557 31.0851C24.6398 30.7691 24.6398 30.2571 24.9557 29.9413L30.8533 24.0435L24.9557 18.1459C24.6398 17.8302 24.6398 17.3179 24.9557 17.0021L30.8533 11.1046Z" fill="url(#paint8_linear_4559_33841)"/>
<defs>
<linearGradient id="paint0_linear_10215_169843" x1="6.57031" y1="14.0422" x2="21.4361" y2="14.0422" gradientUnits="userSpaceOnUse">
<stop stop-color="#5433FF"/>
<stop offset="0.5" stop-color="#20BDFF"/>
<stop offset="1" stop-color="#A5FECB"/>
</linearGradient>
</defs>
</svg>
