<svg width="28" height="28" viewBox="0 0 28 28" fill="none" xmlns="http://www.w3.org/2000/svg">
<path d="M8.8882 3.76948C9.1117 3.57294 9.44949 3.57294 9.6732 3.76948C10.9962 4.93144 11.6393 6.81423 11.6393 9.38171V18.1372C11.6393 18.4578 11.3753 18.7177 11.0497 18.7177H7.51162C7.18585 18.7177 6.92188 18.4578 6.92188 18.1372V9.38171C6.92188 6.81403 7.56495 4.93124 8.88815 3.76948H8.8882Z" fill="url(#paint0_linear_12434_205977)"/>
<path d="M11.7769 8.51768C11.9615 8.27926 12.2637 8.27926 12.4483 8.51768C13.1872 9.47152 13.5273 11.262 13.5273 13.9057V18.5457C13.5273 18.8283 13.813 19.5556 14.386 20.6044C14.6036 21.0024 14.3798 21.5476 13.999 21.5476H10.2262C9.84805 21.5476 9.62385 21.0094 9.83573 20.6106C10.4087 19.5327 10.6978 18.7966 10.6978 18.5457V13.9057C10.6978 11.2623 11.0379 9.47177 11.7769 8.51768H11.7769ZM11.641 13.9057V18.5457C11.641 18.9761 11.4575 19.5574 11.0884 20.3469H13.1277C12.7657 19.5798 12.5843 18.995 12.5843 18.5457V13.9057C12.5843 12.1218 12.4185 10.8166 12.1126 9.99766C11.8068 10.8166 11.641 12.1218 11.641 13.9057Z" fill="url(#paint1_linear_12434_205977)"/>
<path d="M6.52134 8.51768C6.74283 8.27926 7.10549 8.27926 7.32716 8.51768C8.21388 9.47152 8.62181 11.262 8.62181 13.9057V18.5457C8.62181 18.8283 8.96457 19.5556 9.65235 20.6044C9.91326 21.0024 9.64478 21.5476 9.18777 21.5476H4.66067C4.20688 21.5476 3.93765 21.0094 4.19191 20.6106C4.87952 19.5327 5.22643 18.7966 5.22643 18.5457V13.9057C5.22643 11.2623 5.63456 9.47178 6.52128 8.51768H6.52134ZM6.35839 13.9057V18.5457C6.35839 18.9761 6.13803 19.5574 5.69503 20.3469H8.14246C7.70781 19.5798 7.49011 18.995 7.49011 18.5457V13.9057C7.49011 12.1218 7.29116 10.8166 6.92415 9.99766C6.55714 10.8166 6.35839 12.1218 6.35839 13.9057Z" fill="url(#paint2_linear_12434_205977)"/>
<path d="M3.69081 25.3214C3.39129 25.3214 3.14844 25.1102 3.14844 24.8497C3.14844 24.5891 3.39129 24.3779 3.69081 24.3779H24.3061C24.6056 24.3779 24.8484 24.5891 24.8484 24.8497C24.8484 25.1102 24.6056 25.3214 24.3061 25.3214H3.69081Z" fill="url(#paint3_linear_12434_205977)"/>
<path d="M6.92395 24.7979C6.92395 25.0872 6.71276 25.3219 6.45213 25.3219C6.19166 25.3219 5.98047 25.0872 5.98047 24.7979V21.1287C5.98047 20.8393 6.19166 20.6045 6.45213 20.6045C6.71276 20.6045 6.92395 20.8393 6.92395 21.1287V24.7979Z" fill="url(#paint4_linear_12434_205977)"/>
<path d="M12.5841 24.756C12.5841 25.0686 12.3728 25.322 12.1124 25.322C11.8519 25.322 11.6406 25.0686 11.6406 24.756V20.2271C11.6406 19.9145 11.8519 19.6611 12.1124 19.6611C12.3728 19.6611 12.5841 19.9146 12.5841 20.2271V24.756Z" fill="url(#paint5_linear_12434_205977)"/>
<path d="M18.4368 3.81091V24.7562C18.4368 25.0688 18.1834 25.3222 17.8708 25.3222C17.5581 25.3222 17.3047 25.0688 17.3047 24.7562V3.24467C17.3047 2.93212 17.5581 2.67871 17.8708 2.67871H22.3994C22.712 2.67871 22.9656 2.93212 22.9656 3.24467V24.7562C22.9656 25.0688 22.712 25.3222 22.3994 25.3222C22.0869 25.3222 21.8333 25.0688 21.8333 24.7562V3.81091H18.4368Z" fill="url(#paint6_linear_12434_205977)"/>
<path d="M17.6808 6.45215C17.9934 6.45215 18.2468 6.66334 18.2468 6.92381C18.2468 7.18444 17.9934 7.39563 17.6808 7.39563H13.1519C12.8394 7.39563 12.5859 7.18444 12.5859 6.92381C12.5859 6.66334 12.8394 6.45215 13.1519 6.45215H17.6808Z" fill="url(#paint7_linear_12434_205977)"/>
<path d="M21.5989 7.77358L17.4706 3.64507C17.2494 3.42407 17.2494 3.06567 17.4706 2.84446C17.6916 2.62346 18.05 2.62346 18.2712 2.84446L22.7998 7.37327C23.0208 7.59427 23.0208 7.95267 22.7998 8.17388L18.6713 12.3022L22.7998 16.4305C23.0208 16.6517 23.0208 17.0101 22.7998 17.2311L18.6713 21.3596L21.6677 24.3558C21.8887 24.5768 21.8887 24.9352 21.6677 25.1564C21.4465 25.3774 21.0881 25.3774 20.8671 25.1564L17.4706 21.7599C17.2494 21.5387 17.2494 21.1803 17.4706 20.9593L21.5989 16.8308L17.4706 12.7025C17.2494 12.4815 17.2494 12.1229 17.4706 11.9019L21.5989 7.77358Z" fill="url(#paint8_linear_12434_205977)"/>
<defs>
<linearGradient id="paint0_linear_12434_205977" x1="6.92188" y1="11.1699" x2="11.6393" y2="11.1699" gradientUnits="userSpaceOnUse">
<stop stop-color="#5433FF"/>
<stop offset="0.5" stop-color="#20BDFF"/>
<stop offset="1" stop-color="#A5FECB"/>
</linearGradient>
<linearGradient id="paint1_linear_12434_205977" x1="9.75391" y1="14.9432" x2="14.4713" y2="14.9432" gradientUnits="userSpaceOnUse">
<stop stop-color="#5433FF"/>
<stop offset="0.5" stop-color="#20BDFF"/>
<stop offset="1" stop-color="#A5FECB"/>
</linearGradient>
<linearGradient id="paint2_linear_12434_205977" x1="4.09375" y1="14.9432" x2="9.75462" y2="14.9432" gradientUnits="userSpaceOnUse">
<stop stop-color="#5433FF"/>
<stop offset="0.5" stop-color="#20BDFF"/>
<stop offset="1" stop-color="#A5FECB"/>
</linearGradient>
<linearGradient id="paint3_linear_12434_205977" x1="3.14844" y1="24.8497" x2="24.8484" y2="24.8497" gradientUnits="userSpaceOnUse">
<stop stop-color="#5433FF"/>
<stop offset="0.5" stop-color="#20BDFF"/>
<stop offset="1" stop-color="#A5FECB"/>
</linearGradient>
<linearGradient id="paint4_linear_12434_205977" x1="5.98047" y1="22.9632" x2="6.92395" y2="22.9632" gradientUnits="userSpaceOnUse">
<stop stop-color="#5433FF"/>
<stop offset="0.5" stop-color="#20BDFF"/>
<stop offset="1" stop-color="#A5FECB"/>
</linearGradient>
<linearGradient id="paint5_linear_12434_205977" x1="11.6406" y1="22.4916" x2="12.5841" y2="22.4916" gradientUnits="userSpaceOnUse">
<stop stop-color="#5433FF"/>
<stop offset="0.5" stop-color="#20BDFF"/>
<stop offset="1" stop-color="#A5FECB"/>
</linearGradient>
<linearGradient id="paint6_linear_12434_205977" x1="17.3047" y1="14.0005" x2="22.9656" y2="14.0005" gradientUnits="userSpaceOnUse">
<stop stop-color="#5433FF"/>
<stop offset="0.5" stop-color="#20BDFF"/>
<stop offset="1" stop-color="#A5FECB"/>
</linearGradient>
<linearGradient id="paint7_linear_12434_205977" x1="12.5859" y1="6.92389" x2="18.2468" y2="6.92389" gradientUnits="userSpaceOnUse">
<stop stop-color="#5433FF"/>
<stop offset="0.5" stop-color="#20BDFF"/>
<stop offset="1" stop-color="#A5FECB"/>
</linearGradient>
<linearGradient id="paint8_linear_12434_205977" x1="17.3047" y1="14.0005" x2="22.9656" y2="14.0005" gradientUnits="userSpaceOnUse">
<stop stop-color="#5433FF"/>
<stop offset="0.5" stop-color="#20BDFF"/>
<stop offset="1" stop-color="#A5FECB"/>
</linearGradient>
</defs>
</svg>
