<svg width="28" height="28" viewBox="0 0 28 28" fill="none" xmlns="http://www.w3.org/2000/svg">
<path fill-rule="evenodd" clip-rule="evenodd" d="M12.0612 19.1218L18.9492 15.5135C19.917 15.0067 20.7474 14.2727 21.3691 13.3744C21.9908 12.4761 22.3852 11.4403 22.5185 10.356L23.0953 5.65767C23.1079 5.55582 23.0971 5.45244 23.0637 5.3554C23.0303 5.25836 22.9752 5.17021 22.9027 5.09765C22.8301 5.02508 22.7419 4.97001 22.6449 4.93663C22.5479 4.90324 22.4445 4.89242 22.3426 4.90498L17.6443 5.48183C16.56 5.61511 15.5243 6.00953 14.626 6.63122C13.7277 7.25292 12.9936 8.08332 12.4869 9.05114L8.88218 15.9427L11.364 11.1932C6.59005 10.3975 4.90039 15.1435 4.90039 15.1435L8.88218 15.9427L12.0612 19.1218ZM14.5844 11.1647C14.5844 11.7615 14.8215 12.334 15.2435 12.756C15.6656 13.178 16.238 13.4151 16.8348 13.4151C17.4317 13.4151 18.0041 13.178 18.4261 12.756C18.8482 12.334 19.0853 11.7615 19.0853 11.1647C19.0853 10.5678 18.8482 9.99541 18.4261 9.57337C18.0041 9.15133 17.4317 8.91423 16.8348 8.91423C16.238 8.91423 15.6656 9.15133 15.2435 9.57337C14.8215 9.99541 14.5844 10.5678 14.5844 11.1647Z" fill="currentColor"/>
<path d="M5.69604 22.3044C5.69604 22.3044 4.90039 19.9174 6.49169 18.3261L9.67429 21.5087C8.08299 23.1 5.69604 22.3044 5.69604 22.3044Z" fill="currentColor"/>
<path d="M12.8568 23.0999C12.8568 23.0999 17.5561 21.434 16.7604 16.6601L12.0612 19.1218L12.8568 23.0999Z" fill="currentColor"/>
</svg>
