<svg width="12" height="15" viewBox="0 0 12 15" fill="none" xmlns="http://www.w3.org/2000/svg">
    <path fill-rule="evenodd" clip-rule="evenodd" d="M7.76833 1.21184C7.76833 0.662187 7.43667 0.22716 6.98333 0.0659868C6.53993 -0.0916306 6.00287 0.0284802 5.68067 0.476374L3.92027 2.66067L2.48789 4.39425L0.227387 7.2068C0.20976 7.22873 0.193547 7.25173 0.178833 7.27573C-0.0559734 7.65827 -0.0388801 8.11007 0.11082 8.45153C0.264773 8.80273 0.62154 9.15947 1.15701 9.15947H3.49681V13.4359C3.49681 13.9995 3.84129 14.4223 4.29275 14.5879C4.72267 14.7455 5.22547 14.6664 5.60953 14.3535C5.6464 14.3235 5.68 14.2895 5.70967 14.2523L8.8502 10.3145L10.2141 8.64787L10.2233 8.6364L11.1115 7.5008C11.1271 7.481 11.1415 7.46027 11.1547 7.4388C11.3895 7.0562 11.3723 6.6044 11.2227 6.26293C11.0687 5.91177 10.7119 5.555 10.1765 5.555H7.76833V1.21184Z" fill="#color"/>
</svg>
