<svg width="21" height="21" viewBox="0 0 21 21" fill="none" xmlns="http://www.w3.org/2000/svg">
<path d="M14.504 0.0324787C14.1219 0.0576739 13.7491 0.140644 13.3879 0.262402C13.3774 0.265566 13.3659 0.259238 13.3553 0.262402C13.3344 0.269784 13.3102 0.255019 13.2893 0.262402V0.294979C12.6214 0.495487 12.1207 0.873529 11.7468 1.24631L10.7955 2.19764L12.3053 3.67397L13.2241 2.72264C13.4561 2.49061 13.8132 2.288 13.9129 2.2628V2.26268C13.9463 2.25342 13.9793 2.24253 14.0116 2.2301C14.8306 1.93186 15.4984 2.04741 15.9478 2.68994V2.69006C15.984 2.76049 16.028 2.82682 16.079 2.88741C16.8949 3.63507 16.9148 4.90655 16.0464 5.7749L12.6012 9.22011C12.2033 9.61809 11.6657 9.81963 11.1249 9.84378C10.5317 9.75237 10.0865 9.62534 9.68116 9.22011L8.17132 10.7299C9.00709 11.5657 10.0298 11.8251 10.8624 11.9438H10.8625C10.9162 11.959 10.9709 11.9698 11.0264 11.9764C12.1289 11.9764 13.2419 11.5658 14.0777 10.729L17.5562 7.25051C19.15 5.65664 19.1816 3.09041 17.6548 1.50821C17.5992 1.45044 17.5835 1.36641 17.5236 1.31087L17.4575 1.37696C16.9619 0.768982 16.355 0.302812 15.6526 0.129622C15.2798 0.0382147 14.8871 0.00575471 14.5039 0.0309487L14.504 0.0324787ZM9.64761 4.88888C9.27801 4.91829 8.92422 4.98966 8.56503 5.1188V5.08623C8.53035 5.09466 8.53035 5.11037 8.49894 5.1188C8.47796 5.12724 8.45488 5.11036 8.43285 5.1188V5.15138C8.15359 5.24689 7.96878 5.34978 7.7766 5.47997C7.54562 5.63641 7.29051 5.81279 7.05426 6.00497C6.63003 6.35255 6.30462 6.68852 6.00426 7.05497L5.97168 7.02239L5.87301 7.15364L3.34668 9.64739C1.72446 11.2696 1.70136 13.9146 3.3141 15.4884C3.34351 15.5168 3.34879 15.5587 3.38019 15.5871L3.41277 15.5545C4.52583 16.7263 6.1785 17.0224 7.61277 16.5393C7.61699 16.5319 7.63691 16.5414 7.64535 16.5393C7.66632 16.5319 7.69046 16.5467 7.71144 16.5393V16.5068C8.3793 16.3062 8.88003 15.9282 9.25386 15.5554L10.2052 14.6041L8.69535 13.1278L7.7766 14.0791C7.54457 14.3111 7.18749 14.5137 7.08777 14.5389V14.5393C7.05437 14.5485 7.02144 14.5593 6.9891 14.5719C6.17007 14.8701 5.43402 14.7251 4.8891 14.112V14.1119C4.85746 14.088 4.82453 14.066 4.79042 14.0458C3.97457 13.2982 3.95465 11.9941 4.823 11.1257L7.448 8.50073H7.44788C7.48292 8.47003 7.51597 8.4371 7.54667 8.40206C7.54456 8.40522 8.00453 7.93799 8.40026 7.61456C8.59761 7.45284 8.80562 7.3237 8.95784 7.22081C9.03449 7.16936 9.11534 7.141 9.15519 7.12213C9.17827 7.10104 9.2003 7.07901 9.2214 7.05592C9.81156 6.81967 10.7911 7.05065 11.3214 7.58092L12.8312 6.07108C12.2569 5.49673 11.5282 5.12923 10.7638 4.95499C10.4026 4.87308 10.0183 4.86054 9.64773 4.8889L9.64761 4.88888Z" fill="url(#paint0_linear_10803_178376)"/>
<defs>
<linearGradient id="paint0_linear_10803_178376" x1="2.46717" y1="1.26259" x2="18.2174" y2="1.2942" gradientUnits="userSpaceOnUse">
<stop stop-color="#676767"/>
<stop offset="1" stop-color="#B7B7B7"/>
</linearGradient>
</defs>
</svg>
