<svg width="24" height="24" viewBox="0 0 24 24" fill="none" xmlns="http://www.w3.org/2000/svg">
<path d="M13.904 5.29219C13.904 6.34219 13.049 7.19717 11.999 7.19717C10.949 7.19717 10.0938 6.34216 10.0938 5.29219C10.0938 4.24222 10.949 3.38721 11.999 3.38721C13.049 3.38721 13.904 4.24222 13.904 5.29219Z" fill="url(#paint0_linear_10803_178380)"/>
<path d="M12.0026 1.18799C9.96559 1.18799 8.21373 2.63402 7.83281 4.6289C7.83281 4.63788 7.83281 4.64685 7.82987 4.65596C7.78192 4.8989 7.75781 5.16301 7.75781 5.43301C7.75781 6.08697 7.90179 6.71697 8.18988 7.29904L11.9966 15.4981L15.8281 7.27504C16.107 6.69606 16.2481 6.07799 16.2481 5.43297C16.2481 3.09297 14.3431 1.18806 12.0031 1.18806L12.0026 1.18799ZM12.0026 7.64707C10.7037 7.64707 9.64739 6.59104 9.64739 5.29206C9.64739 3.99294 10.7037 2.93704 12.0026 2.93704C13.3016 2.93704 14.3577 3.99307 14.3577 5.29206C14.3577 6.59104 13.3016 7.64707 12.0026 7.64707Z" fill="url(#paint1_linear_10803_178380)"/>
<path d="M13.904 5.29219C13.904 6.34219 13.049 7.19717 11.999 7.19717C10.949 7.19717 10.0938 6.34216 10.0938 5.29219C10.0938 4.24222 10.949 3.38721 11.999 3.38721C13.049 3.38721 13.904 4.24222 13.904 5.29219Z" fill="url(#paint2_linear_10803_178380)"/>
<path d="M15.2437 17.2021C15.2437 17.9731 12.5437 18.0121 12.0008 18.0121C11.4578 18.0121 8.75781 17.9731 8.75781 17.2021C8.75781 16.4311 11.4578 16.3921 12.0008 16.3921C12.5437 16.3921 15.2437 16.4311 15.2437 17.2021Z" fill="url(#paint3_linear_10803_178380)"/>
<defs>
<linearGradient id="paint0_linear_10803_178380" x1="10.1738" y1="3.66943" x2="13.7762" y2="3.67669" gradientUnits="userSpaceOnUse">
<stop stop-color="#676767"/>
<stop offset="1" stop-color="#B7B7B7"/>
</linearGradient>
<linearGradient id="paint1_linear_10803_178380" x1="7.93618" y1="2.248" x2="15.9633" y2="2.2576" gradientUnits="userSpaceOnUse">
<stop stop-color="#676767"/>
<stop offset="1" stop-color="#B7B7B7"/>
</linearGradient>
<linearGradient id="paint2_linear_10803_178380" x1="10.1738" y1="3.66943" x2="13.7762" y2="3.67669" gradientUnits="userSpaceOnUse">
<stop stop-color="#676767"/>
<stop offset="1" stop-color="#B7B7B7"/>
</linearGradient>
<linearGradient id="paint3_linear_10803_178380" x1="8.89407" y1="16.5121" x2="15.0258" y2="16.5616" gradientUnits="userSpaceOnUse">
<stop stop-color="#676767"/>
<stop offset="1" stop-color="#B7B7B7"/>
</linearGradient>
</defs>
</svg>
