<svg width="12" height="12" viewBox="0 0 12 12" fill="none" xmlns="http://www.w3.org/2000/svg">
<path d="M8.7 6H8H4H3.3C3.13431 6 3 6.1343 3 6.3V9.7C3 9.8657 3.13431 10 3.3 10H8.7C8.8657 10 9 9.8657 9 9.7V6.3C9 6.1343 8.8657 6 8.7 6Z" fill="#A3A3A3"/>
<path d="M8 6H8.7C8.8657 6 9 6.1343 9 6.3V9.7C9 9.8657 8.8657 10 8.7 10H3.3C3.13431 10 3 9.8657 3 9.7V6.3C3 6.1343 3.13431 6 3.3 6H4M8 6V4C8 3.33333 7.6 2 6 2C4.4 2 4 3.33333 4 4V6M8 6H4" stroke="#A3A3A3" stroke-width="1.33333" stroke-linecap="round" stroke-linejoin="round"/>
</svg>
