<svg width="16" height="16" viewBox="0 0 16 16" fill="none" xmlns="http://www.w3.org/2000/svg">
<g id="Layer_1">
<path id="Vector" d="M2.7 15H13.3C13.6844 15 14 14.6906 14 14.3094V7.6875C14 7.30625 13.6875 7 13.3 7H12.625V6.03438C12.625 4.7375 12.1187 3.29688 11.2937 2.42812C10.4719 1.55937 9.29375 1 8.00313 1C8 1 8 1 8 1H7.99687C6.70625 1 5.52813 1.55937 4.70625 2.425C3.88125 3.29375 3.375 4.73438 3.375 6.03125V7H2.78125H2.7C2.3125 7 2 7.30937 2 7.6875V14.3094C2 14.6906 2.3125 15 2.7 15ZM5.03125 6.03438C5.03125 5.18125 5.34063 4.125 5.90938 3.525V3.51562C6.45938 2.93438 7.21875 2.59375 7.99687 2.59375H8H8.00313C8.78125 2.59375 9.54062 2.93438 10.0906 3.51562V3.52187L10.0875 3.525C10.6594 4.125 10.9656 5.18125 10.9656 6.03438V7H10.4187H5.575H5.03125V6.03438Z" fill="white"/>
</g>
</svg>
