<svg viewBox="0 0 88 88" fill="none" xmlns="http://www.w3.org/2000/svg">
<g opacity="0.25">
<path d="M32.0237 75.3595C31.6852 75.0606 31.4733 74.6441 31.431 74.1945L28.0665 38.4011H40.0403V78.5009C40.0403 80.0303 38.2358 80.8442 37.0894 79.832L32.0237 75.3595Z" fill="white"/>
<path d="M40.0403 37.6909V32.6943L27.4277 31.6045L27.9998 37.6909H40.0403Z" fill="white"/>
<path d="M40.0403 31.9813L27.3601 30.8858L25.3782 9.80123C25.2803 8.7595 26.0998 7.85938 27.1461 7.85938H38.2646C39.2453 7.85938 40.0403 8.65437 40.0403 9.63504V31.9813Z" fill="white"/>
<path d="M63.4431 37.6907H72.5706C73.0609 37.6907 73.4584 37.2932 73.4584 36.8029V31.5668C73.4584 31.0424 73.0062 30.6322 72.4843 30.6832L64.0086 31.5108L63.4431 37.6907Z" fill="white"/>
<path d="M63.2889 31.5811L50.6588 32.8144V37.6907H62.7299L63.2889 31.5811Z" fill="white"/>
<path d="M49.9486 32.8837V37.6907H16.3174C15.8271 37.6907 15.4296 37.2932 15.4296 36.8029V31.5551C15.4296 31.0349 15.8748 30.6261 16.3931 30.6705L46.2825 33.2269C46.3364 33.2315 46.3906 33.2312 46.4445 33.2259L49.9486 32.8837Z" fill="white"/>
<path d="M53.6986 79.7113C52.5836 80.8417 50.6588 80.0521 50.6588 78.4643V23.379H64.0564L59.3957 73.3647C59.3577 73.7728 59.1796 74.1551 58.8918 74.4469L53.6986 79.7113Z" fill="white"/>
<path d="M64.1226 22.6687H50.6588V15.0129L64.9194 14.1233L64.1226 22.6687Z" fill="white"/>
<path d="M50.6588 9.6353V14.3012L64.9861 13.4075L65.3225 9.80015C65.4196 8.75888 64.6003 7.85963 63.5545 7.85963H52.4345C51.4538 7.85963 50.6588 8.65462 50.6588 9.6353Z" fill="white"/>
<path d="M40.0403 22.6687V15.0352L25.7974 14.3343L26.5767 22.6687H40.0403Z" fill="white"/>
<path d="M40.7506 22.6687H76.6546C77.0469 22.6687 77.3649 22.3507 77.3649 21.9585V14.0678C77.3649 13.6578 77.0188 13.3329 76.6096 13.3589L45.7758 15.3175L40.7506 15.0702V22.6687Z" fill="white"/>
<path d="M25.0223 14.2961L25.873 22.6687H11.4876C11.0953 22.6687 10.7773 22.3507 10.7773 21.9585V14.3411C10.7773 13.9352 11.117 13.6118 11.5225 13.6317L25.0223 14.2961Z" fill="white"/>
</g>
<path d="M31.883 75.2188C31.5446 74.92 31.3327 74.5035 31.2904 74.0539L27.9259 38.2605H39.8997V78.3603C39.8997 79.8896 38.0952 80.7036 36.9488 79.6914L31.883 75.2188Z" fill="white"/>
<path d="M39.8997 37.5502V32.5536L27.2871 31.4639L27.8592 37.5502H39.8997Z" fill="white"/>
<path d="M39.8997 31.8407L27.2195 30.7452L25.2376 9.6606C25.1397 8.61888 25.9592 7.71875 27.0055 7.71875H38.124C39.1047 7.71875 39.8997 8.51374 39.8997 9.49442V31.8407Z" fill="white"/>
<path d="M63.3025 37.5501H72.43C72.9203 37.5501 73.3178 37.1526 73.3178 36.6623V31.4262C73.3178 30.9018 72.8656 30.4916 72.3437 30.5426L63.868 31.3702L63.3025 37.5501Z" fill="white"/>
<path d="M63.1483 31.4405L50.5182 32.6738V37.5501H62.5893L63.1483 31.4405Z" fill="white"/>
<path d="M49.8079 32.7431V37.5501H16.1768C15.6865 37.5501 15.289 37.1526 15.289 36.6623V31.4145C15.289 30.8943 15.7342 30.4855 16.2525 30.5299L46.1419 33.0863C46.1958 33.0909 46.25 33.0905 46.3038 33.0853L49.8079 32.7431Z" fill="white"/>
<path d="M53.558 79.5707C52.4429 80.701 50.5182 79.9115 50.5182 78.3237V23.2383H63.9158L59.2551 73.2241C59.217 73.6321 59.039 74.0145 58.7512 74.3062L53.558 79.5707Z" fill="white"/>
<path d="M63.982 22.5281H50.5182V14.8723L64.7788 13.9827L63.982 22.5281Z" fill="white"/>
<path d="M50.5182 9.49467V14.1606L64.8455 13.2669L65.1819 9.65952C65.279 8.61825 64.4596 7.71901 63.4139 7.71901H52.2939C51.3132 7.71901 50.5182 8.514 50.5182 9.49467Z" fill="white"/>
<path d="M39.8997 22.5281V14.8946L25.6568 14.1936L26.4361 22.5281H39.8997Z" fill="white"/>
<path d="M40.61 22.5281H76.514C76.9063 22.5281 77.2243 22.2101 77.2243 21.8178V13.9271C77.2243 13.5172 76.8781 13.1923 76.469 13.2183L45.6351 15.1768L40.61 14.9295V22.5281Z" fill="white"/>
<path d="M24.8816 14.1555L25.7324 22.5281H11.347C10.9547 22.5281 10.6367 22.2101 10.6367 21.8178V14.2005C10.6367 13.7945 10.9764 13.4712 11.3819 13.4911L24.8816 14.1555Z" fill="white"/>
<path d="M27.87 30.8014L27.2195 30.7452L26.4471 22.5281H26.4361L25.6568 14.1936L25.6637 14.194L25.2376 9.6606C25.1397 8.61888 25.9592 7.71875 27.0055 7.71875H38.124C38.7973 7.71875 39.3831 8.09354 39.6842 8.64589C39.4322 8.50864 39.1432 8.43066 38.8361 8.43066H27.7176C26.6713 8.43066 25.8518 9.33078 25.9497 10.3725L26.3758 14.9059L26.3689 14.9055L27.1482 23.24H27.1592L27.87 30.8014Z" fill="white"/>
<path d="M40.6118 22.5281H41.3221V15.6414L46.3472 15.8887L77.1811 13.9302C77.1956 13.9293 77.21 13.9288 77.2243 13.9288V13.9271C77.2243 13.5172 76.8781 13.1923 76.469 13.2183L65.564 13.911L65.5576 13.9788L51.2303 14.8725V14.8214L45.6351 15.1768L40.6118 14.9296L40.6118 22.5281Z" fill="white"/>
<path d="M64.9739 8.64582C64.7227 8.50901 64.4342 8.43091 64.126 8.43091H53.006C52.0253 8.43091 51.2303 9.22591 51.2303 10.2066V14.1162L50.5182 14.1606V9.49467C50.5182 8.514 51.3132 7.71901 52.2939 7.71901H63.4139C64.0916 7.71901 64.6741 8.09663 64.9739 8.64582Z" fill="white"/>
<path d="M50.5182 23.24H63.9156L63.8494 23.9502H51.2303V79.0356C51.2303 79.3514 51.3065 79.6357 51.4373 79.8795C50.9075 79.5903 50.5182 79.0377 50.5182 78.3237V38.262H50.5201V33.455L50.5182 33.4552V23.24Z" fill="white"/>
<path d="M49.8079 33.5246V32.7431L46.3038 33.0853C46.25 33.0905 46.1958 33.0909 46.1419 33.0863L27.2871 31.4639L27.288 31.4737L16.2525 30.5299C15.7342 30.4855 15.289 30.8943 15.289 31.4145V36.6623C15.289 37.0976 15.6023 37.4598 16.0157 37.5355C16.0061 37.4832 16.0011 37.4293 16.0011 37.3742V32.1264C16.0011 31.6062 16.4463 31.1974 16.9646 31.2418L28.0001 32.1856L27.9992 32.1758L46.854 33.7982C46.9079 33.8028 46.9621 33.8025 47.0159 33.7972L49.8079 33.5246Z" fill="white"/>
<path d="M27.9261 38.262L31.2904 74.0539C31.3327 74.5035 31.5446 74.92 31.883 75.2188L32.2868 75.5753C32.1286 75.3347 32.0299 75.0572 32.0025 74.7658L28.638 38.9724H39.8997V38.2621L27.9261 38.262Z" fill="white"/>
<path d="M63.3665 37.5501H64.0798L64.5801 32.0821L73.0558 31.2545C73.1406 31.2462 73.2237 31.2501 73.3032 31.2647C73.2218 30.8205 72.8106 30.497 72.3437 30.5426L63.9367 31.3635L63.7183 33.706L63.3665 37.5501Z" fill="white"/>
<path d="M24.9507 14.8357L24.8816 14.1555L11.3819 13.4911C10.9764 13.4712 10.6367 13.7945 10.6367 14.2005V21.8178C10.6367 22.2101 10.9547 22.5281 11.347 22.5281H11.3488V14.9124C11.3488 14.5064 11.6885 14.1831 12.094 14.203L24.9507 14.8357Z" fill="white"/>
</svg>
