<svg width="24" height="24" viewBox="0 0 24 24" fill="none" xmlns="http://www.w3.org/2000/svg">
<g id="dapp/icons/40x40/alternative sidebar/marketplace">
<path id="Subtract" fill-rule="evenodd" clip-rule="evenodd" d="M15.2246 4.5C16.9496 4.5 18.2996 5.775 18.4496 7.425L19.5746 15.975C19.6496 16.875 19.3496 17.775 18.7496 18.45C18.0746 19.125 17.2496 19.5 16.3496 19.5H7.72461C6.82461 19.5 5.92461 19.125 5.32461 18.45C4.72461 17.775 4.42461 16.875 4.49961 15.975L5.54961 7.425C5.69961 5.775 7.04961 4.5 8.6996 4.5H15.2246ZM8.175 7.725C8.175 9.825 9.9 11.55 12 11.55C14.1 11.55 15.825 9.825 15.825 7.725C15.825 7.275 15.525 6.975 15.075 6.975C14.625 6.975 14.325 7.275 14.325 7.725C14.325 9 13.275 10.05 12 10.05C10.725 10.05 9.675 9 9.675 7.725C9.675 7.275 9.375 6.975 8.925 6.975C8.475 6.975 8.175 7.275 8.175 7.725Z" fill="#999999"/>
</g>
</svg>
