<svg viewBox="0 0 20 20" fill="none" xmlns="http://www.w3.org/2000/svg">
<path d="M3.89728 6.44801C3.91719 6.26246 3.84231 6.07901 3.69562 5.95416L2.20166 4.25398V4H6.84031L10.4258 11.4286L13.578 4L18 4.00003V4.25398L16.7227 5.41092C16.6125 5.49019 16.5579 5.62059 16.5808 5.7496V14.2504C16.5579 14.3794 16.6125 14.5098 16.7227 14.5891L17.9701 15.7461V16H11.6957V15.7461L12.9878 14.5608C13.1149 14.4409 13.1149 14.4056 13.1149 14.2223V7.351L9.52197 15.9717H9.03647L4.85337 7.351V13.1288C4.81856 13.3717 4.90394 13.6163 5.08494 13.7919L6.76569 15.7178V15.9717H2V15.7178L3.68075 13.7919C3.86041 13.6159 3.94078 13.3697 3.89728 13.1288V6.44801Z" fill="white"/>
</svg>
