<svg xmlns="http://www.w3.org/2000/svg" viewBox="0 0 28 28">
    <g id="Layer_2" data-name="Layer 2">
        <g id="Layer_1-2" data-name="Layer 1">
            <path fill="#color"
                d="M20.65,9.55v3.94A4.52,4.52,0,0,1,16.15,18H10.59a1.3,1.3,0,0,0-.62.09,2.83,2.83,0,0,0,2.8,2.37h5.08a2.64,2.64,0,0,1,1.57.52l3.07,2.19c.08.08.26.08.43.08a.72.72,0,0,0,.35-.08.58.58,0,0,0,.35-.61v-10A3,3,0,0,0,20.65,9.55Z" />
            <path fill="#color"
                d="M10.59,16.55h5.6a3.15,3.15,0,0,0,3.15-3.13V7.88a3.13,3.13,0,0,0-3.12-3.14H7.53A3.13,3.13,0,0,0,4.38,7.85V19a.71.71,0,0,0,.35.61h.35a.8.8,0,0,0,.43-.09l3.33-2.36a5.74,5.74,0,0,1,1.05-.53C10.06,16.63,10.33,16.55,10.59,16.55Z" />
            <rect fill="none" width="28" height="28" />
        </g>
    </g>
</svg>