<svg viewBox="0 0 24 24" fill="none" xmlns="http://www.w3.org/2000/svg">
<rect width="24" height="24" rx="12" fill="#F6851B" fill-opacity="0.2"/>
<path d="M18.2769 5.23926L12.8438 9.2745L13.8485 6.89376L18.2769 5.23926Z" fill="#E2761B" stroke="#E2761B" stroke-width="0.0546041" stroke-linecap="round" stroke-linejoin="round"/>
<path d="M5.72959 5.23926L11.119 9.31273L10.1634 6.89376L5.72959 5.23926ZM16.3173 14.5929L14.8703 16.8099L17.9664 17.6617L18.8564 14.6421L16.3173 14.5929ZM5.15625 14.6421L6.04084 17.6617L9.13689 16.8099L7.68988 14.5929L5.15625 14.6421Z" fill="#E4761B" stroke="#E4761B" stroke-width="0.0546041" stroke-linecap="round" stroke-linejoin="round"/>
<path d="M8.96431 10.8482L8.10156 12.1533L11.1758 12.2898L11.0666 8.98622L8.96431 10.8482ZM15.0417 10.8482L12.9122 8.948L12.8412 12.2898L15.91 12.1533L15.0417 10.8482ZM9.13904 16.811L10.9847 15.91L9.39022 14.6651L9.13904 16.811ZM13.0214 15.91L14.8725 16.811L14.6158 14.6651L13.0214 15.91Z" fill="#E4761B" stroke="#E4761B" stroke-width="0.0546041" stroke-linecap="round" stroke-linejoin="round"/>
<path d="M14.8741 16.8101L13.023 15.9092L13.1704 17.1159L13.154 17.6237L14.8741 16.8101ZM9.14062 16.8101L10.8607 17.6237L10.8497 17.1159L10.9862 15.9092L9.14062 16.8101Z" fill="#D7C1B3" stroke="#D7C1B3" stroke-width="0.0546041" stroke-linecap="round" stroke-linejoin="round"/>
<path d="M10.8836 13.8666L9.34375 13.4134L10.4304 12.9165L10.8836 13.8666ZM13.1169 13.8666L13.5701 12.9165L14.6622 13.4134L13.1169 13.8666Z" fill="#233447" stroke="#233447" stroke-width="0.0546041" stroke-linecap="round" stroke-linejoin="round"/>
<path d="M9.13451 16.8103L9.39661 14.5934L7.6875 14.6425L9.13451 16.8103ZM14.6058 14.5934L14.8679 16.8103L16.315 14.6425L14.6058 14.5934ZM15.9054 12.1526L12.8367 12.2891L13.1206 13.8672L13.5738 12.917L14.6659 13.4139L15.9054 12.1526ZM9.34201 13.4139L10.4341 12.917L10.8818 13.8672L11.1712 12.2891L8.09703 12.1526L9.34201 13.4139Z" fill="#CD6116" stroke="#CD6116" stroke-width="0.0546041" stroke-linecap="round" stroke-linejoin="round"/>
<path d="M8.10156 12.1526L9.39022 14.6644L9.34654 13.4139L8.10156 12.1526ZM14.6704 13.4139L14.6158 14.6644L15.91 12.1526L14.6704 13.4139ZM11.1758 12.2891L10.8864 13.8672L11.2468 15.7292L11.3287 13.2774L11.1758 12.2891ZM12.8412 12.2891L12.6938 13.272L12.7593 15.7292L13.1251 13.8672L12.8412 12.2891Z" fill="#E4751F" stroke="#E4751F" stroke-width="0.0546041" stroke-linecap="round" stroke-linejoin="round"/>
<path d="M13.1224 13.8678L12.7565 15.7298L13.0186 15.91L14.613 14.665L14.6677 13.4146L13.1224 13.8678ZM9.34375 13.4146L9.38743 14.665L10.9819 15.91L11.244 15.7298L10.8836 13.8678L9.34375 13.4146Z" fill="#F6851B" stroke="#F6851B" stroke-width="0.0546041" stroke-linecap="round" stroke-linejoin="round"/>
<path d="M13.154 17.6244L13.1704 17.1166L13.0339 16.9964H10.9753L10.8497 17.1166L10.8607 17.6244L9.14062 16.8108L9.74127 17.3022L10.9589 18.1486H13.0503L14.2734 17.3022L14.8741 16.8108L13.154 17.6244Z" fill="#C0AD9E" stroke="#C0AD9E" stroke-width="0.0546041" stroke-linecap="round" stroke-linejoin="round"/>
<path d="M13.017 15.9092L12.7549 15.729H11.2424L10.9803 15.9092L10.8438 17.1159L10.9693 16.9958H13.0279L13.1644 17.1159L13.017 15.9092Z" fill="#161616" stroke="#161616" stroke-width="0.0546041" stroke-linecap="round" stroke-linejoin="round"/>
<path d="M18.499 9.5366L18.9631 7.30876L18.2696 5.23926L13.0167 9.13799L15.0371 10.8471L17.8929 11.6825L18.5263 10.9454L18.2533 10.7488L18.6901 10.3502L18.3516 10.0881L18.7884 9.75502L18.499 9.5366ZM5.03906 7.30876L5.5032 9.5366L5.20834 9.75502L5.64517 10.0881L5.31208 10.3502L5.74892 10.7488L5.4759 10.9454L6.10384 11.6825L8.95964 10.8471L10.98 9.13799L5.72707 5.23926L5.03906 7.30876Z" fill="#763D16" stroke="#763D16" stroke-width="0.0546041" stroke-linecap="round" stroke-linejoin="round"/>
<path d="M17.8954 11.6836L15.0396 10.8481L15.9078 12.1532L14.6137 14.6649L16.3173 14.6431H18.8564L17.8954 11.6836ZM8.96216 10.8481L6.10636 11.6836L5.15625 14.6431H7.68988L9.38807 14.6649L8.09941 12.1532L8.96216 10.8481ZM12.8391 12.2897L13.0192 9.13901L13.8492 6.89478H10.1634L10.9825 9.13901L11.1736 12.2897L11.2392 13.2835L11.2446 15.7297H12.7571L12.7681 13.2835L12.8391 12.2897Z" fill="#F6851B" stroke="#F6851B" stroke-width="0.0546041" stroke-linecap="round" stroke-linejoin="round"/>
</svg>
