<svg viewBox="0 0 40 40" fill="none" xmlns="http://www.w3.org/2000/svg">
<path d="M30.382 7.71967C29.5654 7.13015 28.5154 7.01224 27.582 7.36596L18.0154 10.6673C16.382 11.2569 15.332 12.7896 15.332 14.5582V18.567V24.1086C14.632 23.7549 13.8154 23.4012 12.9987 23.4012C10.432 23.4012 8.33203 25.5235 8.33203 28.1174C8.33203 30.7113 10.432 32.8337 12.9987 32.8337C15.5654 32.8337 17.6654 30.7113 17.6654 28.1174C17.6654 27.9995 17.6654 27.8816 17.6654 27.7637V27.6458V19.3923L29.332 15.2657V21.1609C28.632 20.8073 27.8154 20.4535 26.9987 20.4535C24.432 20.4535 22.332 22.5759 22.332 25.1697C22.332 27.7637 24.432 29.886 26.9987 29.886C29.5654 29.886 31.6654 27.7637 31.6654 25.1697C31.6654 25.0518 31.6654 24.9339 31.6654 24.816V24.6982V13.615V10.1957C31.6654 9.25246 31.1987 8.30921 30.382 7.71967Z" fill="url(#paint0_linear_15272_281409)"/>
<defs>
<linearGradient id="paint0_linear_15272_281409" x1="8.33203" y1="20.0003" x2="31.6654" y2="20.0003" gradientUnits="userSpaceOnUse">
<stop stop-color="#5433FF"/>
<stop offset="0.5" stop-color="#20BDFF"/>
<stop offset="1" stop-color="#A5FECB"/>
</linearGradient>
</defs>
</svg>
