<svg width="18" height="18" viewBox="0 0 18 18" fill="none" xmlns="http://www.w3.org/2000/svg">
<path d="M1.6875 10.125H4.5825C4.89585 10.1251 5.20299 10.2124 5.46951 10.3772C5.73602 10.542 5.9514 10.7777 6.0915 11.058L6.2835 11.442C6.42366 11.7224 6.63915 11.9582 6.90581 12.123C7.17248 12.2878 7.47977 12.3751 7.79325 12.375H10.2068C10.5202 12.3751 10.8275 12.2878 11.0942 12.123C11.3609 11.9582 11.5763 11.7224 11.7165 11.442L11.9085 11.058C12.0487 10.7776 12.2641 10.5418 12.5308 10.377C12.7975 10.2122 13.1048 10.1249 13.4183 10.125H16.3125M1.6875 10.3785V13.5C1.6875 13.9476 1.86529 14.3768 2.18176 14.6932C2.49822 15.0097 2.92745 15.1875 3.375 15.1875H14.625C15.0726 15.1875 15.5018 15.0097 15.8182 14.6932C16.1347 14.3768 16.3125 13.9476 16.3125 13.5V10.3785C16.3125 10.2105 16.287 10.0433 16.2375 9.88275L14.43 4.0035C14.3238 3.65868 14.11 3.35696 13.8198 3.14261C13.5296 2.92826 13.1783 2.81257 12.8175 2.8125H5.18325C4.82246 2.81257 4.47119 2.92826 4.18098 3.14261C3.89077 3.35696 3.6769 3.65868 3.57075 4.0035L1.7625 9.88275C1.71295 10.0433 1.68767 10.2104 1.6875 10.3785Z" stroke="#777777" stroke-width="1.5" stroke-linecap="round" stroke-linejoin="round"/>
</svg>
