<svg width="20" height="21" viewBox="0 0 20 21" fill="none" xmlns="http://www.w3.org/2000/svg">
<g id="Frame">
<path id="Vector" d="M9.99905 14.9854C12.4763 14.9854 14.4844 12.9773 14.4844 10.5C14.4844 8.02275 12.4763 6.01465 9.99905 6.01465C7.52177 6.01465 5.51367 8.02275 5.51367 10.5C5.51367 12.9773 7.52177 14.9854 9.99905 14.9854Z" stroke="#999999" stroke-width="1.25" stroke-linecap="round"/>
<path id="Vector_2" d="M4.44943 16.0504C3.72054 15.3215 3.14236 14.4562 2.74789 13.5039C2.35342 12.5515 2.15039 11.5308 2.15039 10.5C2.15039 9.46922 2.35342 8.44851 2.74789 7.49618C3.14236 6.54384 3.72054 5.67853 4.44943 4.94965" stroke="#999999" stroke-width="1.25" stroke-linecap="round"/>
<path id="Vector_3" d="M15.5508 16.0504C16.2797 15.3215 16.8579 14.4562 17.2523 13.5039C17.6468 12.5515 17.8498 11.5308 17.8498 10.5C17.8498 9.46922 17.6468 8.44851 17.2523 7.49618C16.8578 6.54384 16.2797 5.67853 15.5508 4.94965" stroke="#999999" stroke-width="1.25" stroke-linecap="round"/>
</g>
</svg>
