<svg viewBox="0 0 16 16" fill="none" xmlns="http://www.w3.org/2000/svg">
<path d="M7.85054 2.43261C7.91168 2.30873 8.08832 2.30873 8.14946 2.43261L9.45377 5.07543C9.6237 5.41976 9.9522 5.65843 10.3322 5.71364L13.2487 6.13744C13.3854 6.1573 13.44 6.3253 13.3411 6.42172L11.2307 8.47887C10.9557 8.7469 10.8302 9.13306 10.8951 9.51153L11.3933 12.4163C11.4167 12.5524 11.2738 12.6562 11.1515 12.592L8.5429 11.2205C8.20302 11.0418 7.79698 11.0418 7.4571 11.2205L4.84848 12.592C4.72621 12.6562 4.5833 12.5524 4.60666 12.4163L5.10486 9.51153C5.16977 9.13307 5.0443 8.7469 4.76933 8.47887L2.65891 6.42172C2.55999 6.3253 2.61458 6.1573 2.75128 6.13744L5.66781 5.71364C6.0478 5.65843 6.37629 5.41976 6.54623 5.07543L7.85054 2.43261Z" stroke="#777777"/>
</svg>
