<svg width="14" height="14" viewBox="0 0 14 14" fill="none" xmlns="http://www.w3.org/2000/svg">
<path fill-rule="evenodd" clip-rule="evenodd" d="M14 7C14 10.866 10.866 14 7 14C3.13401 14 0 10.866 0 7C0 3.13401 3.13401 0 7 0C10.866 0 14 3.13401 14 7ZM10.4646 5.4181C10.6955 5.16153 10.6747 4.76635 10.4181 4.53544C10.1615 4.30453 9.76635 4.32533 9.53544 4.5819L6.4 8.06572L4.46456 5.91523C4.23365 5.65866 3.83847 5.63786 3.5819 5.86877C3.32533 6.09969 3.30453 6.49487 3.53544 6.75144L5.93544 9.4181C6.05397 9.5498 6.22282 9.625 6.4 9.625C6.57718 9.625 6.74603 9.5498 6.86456 9.4181L10.4646 5.4181Z" fill="#3EBE7B"/>
</svg>
