<svg viewBox="0 0 24 24" fill="none" xmlns="http://www.w3.org/2000/svg">
<path d="M8.10913 4.53702C8.01803 4.48301 7.91426 4.45407 7.80836 4.45315C7.70247 4.45222 7.59821 4.47934 7.50619 4.53175C7.41416 4.58417 7.33765 4.66 7.28442 4.75155C7.23119 4.84311 7.20314 4.94712 7.20312 5.05302V18.947C7.20314 19.0529 7.23119 19.1569 7.28442 19.2485C7.33765 19.34 7.41416 19.4159 7.50619 19.4683C7.59821 19.5207 7.70247 19.5478 7.80836 19.5469C7.91426 19.546 8.01803 19.517 8.10913 19.463L19.8321 12.516C19.9217 12.4629 19.9958 12.3874 20.0473 12.2969C20.0989 12.2064 20.1259 12.1041 20.1259 12C20.1259 11.8959 20.0989 11.7936 20.0473 11.7031C19.9958 11.6127 19.9217 11.5371 19.8321 11.484L8.10913 4.53702Z" fill="#color"/>
</svg>
