<svg width="24" height="24" viewBox="0 0 24 24" fill="none" xmlns="http://www.w3.org/2000/svg">
<path d="M11.1861 18.2727V5.54545H12.0014V18.2727H11.1861ZM13.5376 9.61719C13.4912 9.183 13.2957 8.84493 12.951 8.60298C12.6096 8.36103 12.1655 8.24006 11.6186 8.24006C11.2341 8.24006 10.9044 8.29806 10.6293 8.41406C10.3542 8.53007 10.1437 8.6875 9.99787 8.88636C9.85204 9.08523 9.77746 9.31226 9.77415 9.56747C9.77415 9.77959 9.82221 9.96354 9.91832 10.1193C10.0178 10.2751 10.152 10.4077 10.321 10.517C10.4901 10.6231 10.6773 10.7126 10.8828 10.7855C11.0883 10.8584 11.2955 10.9197 11.5043 10.9695L12.4588 11.2081C12.8433 11.2976 13.2128 11.4186 13.5675 11.571C13.9254 11.7235 14.2453 11.9157 14.527 12.1477C14.812 12.3797 15.0374 12.6598 15.2031 12.9879C15.3688 13.3161 15.4517 13.7005 15.4517 14.1413C15.4517 14.7379 15.2992 15.2633 14.9943 15.7173C14.6894 16.1681 14.2486 16.5211 13.6719 16.7763C13.0985 17.0282 12.4041 17.1541 11.5888 17.1541C10.7966 17.1541 10.1089 17.0315 9.52557 16.7862C8.94555 16.541 8.49148 16.183 8.16335 15.7124C7.83854 15.2417 7.66288 14.6683 7.63636 13.9922H9.45099C9.47751 14.3468 9.58688 14.6418 9.77912 14.8771C9.97135 15.1125 10.2216 15.2881 10.5298 15.4041C10.8414 15.5201 11.1894 15.5781 11.5739 15.5781C11.9749 15.5781 12.3262 15.5185 12.6278 15.3991C12.9328 15.2765 13.1714 15.1075 13.3438 14.892C13.5161 14.6733 13.6039 14.4181 13.6072 14.1264C13.6039 13.8613 13.526 13.6425 13.3736 13.4702C13.2211 13.2945 13.0073 13.1487 12.7322 13.0327C12.4605 12.9134 12.1423 12.8073 11.7777 12.7145L10.6193 12.4162C9.78078 12.2008 9.1179 11.8743 8.63068 11.4368C8.14678 10.996 7.90483 10.411 7.90483 9.68182C7.90483 9.08191 8.06723 8.55658 8.39205 8.10582C8.72017 7.65507 9.16596 7.3054 9.7294 7.05682C10.2929 6.80492 10.9309 6.67898 11.6435 6.67898C12.366 6.67898 12.9991 6.80492 13.5426 7.05682C14.0895 7.3054 14.5187 7.65175 14.8303 8.09588C15.1418 8.53669 15.3026 9.0438 15.3125 9.61719H13.5376Z" fill="currentColor"/></svg>
