<svg width="28" height="28" viewBox="0 0 28 28" fill="none" xmlns="http://www.w3.org/2000/svg">
<path fill-rule="evenodd" clip-rule="evenodd" d="M5.25 14C5.25 18.8326 9.16738 22.75 14 22.75C18.8326 22.75 22.75 18.8326 22.75 14C22.75 9.16738 18.8326 5.25 14 5.25C9.16738 5.25 5.25 9.16738 5.25 14ZM18.2631 16.6991C18.2271 16.9092 18.045 17.0627 17.8319 17.0627H10.1696C9.95654 17.0627 9.77443 16.9092 9.73843 16.6991L8.89675 11.7894C8.83618 11.4361 9.20298 11.1638 9.52362 11.3242L12.1202 12.6225C12.2998 12.7122 12.5174 12.6683 12.6481 12.5159L13.6686 11.3253C13.8432 11.1216 14.1583 11.1216 14.3329 11.3253L15.3535 12.5159C15.4841 12.6683 15.7017 12.7122 15.8813 12.6225L18.4779 11.3242C18.7985 11.1638 19.1653 11.4361 19.1048 11.7894L18.2631 16.6991Z" fill="url(#paint0_linear_19426_109066)"/>
<defs>
<linearGradient id="paint0_linear_19426_109066" x1="5.25" y1="14" x2="22.75" y2="14" gradientUnits="userSpaceOnUse">
<stop stop-color="#5433FF"/>
<stop offset="0.5" stop-color="#20BDFF"/>
<stop offset="1" stop-color="#A5FECB"/>
</linearGradient>
</defs>
</svg>
