<svg viewBox="0 0 28 28" fill="none" xmlns="http://www.w3.org/2000/svg">
<path fill-rule="evenodd" clip-rule="evenodd" d="M21.2753 9.45479L22.9646 11.1441C23.1068 11.2869 23.1867 11.4802 23.1868 11.6817C23.1868 11.8832 23.1071 12.0766 22.965 12.2195L20.2723 14.9125C20.1056 15.0788 19.9026 15.2042 19.6793 15.2789C19.6362 15.2934 19.5971 15.3176 19.5649 15.3498C19.5328 15.3819 19.5085 15.4211 19.494 15.4642C19.4193 15.6875 19.2937 15.8905 19.1273 16.0572L12.2214 22.9631C12.0785 23.1057 11.8848 23.1858 11.683 23.1858C11.4811 23.1858 11.2874 23.1057 11.1445 22.9631L9.45517 21.2737C9.32071 21.1374 9.2422 20.9557 9.23511 20.7644C9.22803 20.5731 9.29288 20.386 9.41689 20.2402C9.61013 20.0155 9.71133 19.7261 9.70021 19.43C9.68909 19.1338 9.56648 18.8528 9.35693 18.6433C9.14739 18.4338 8.8664 18.3111 8.57027 18.3C8.27414 18.2889 7.98475 18.3901 7.76008 18.5833C7.61421 18.7073 7.42717 18.7722 7.23584 18.7651C7.04451 18.758 6.86278 18.6795 6.72649 18.5451L5.03522 16.8557C4.8926 16.7128 4.8125 16.5192 4.8125 16.3173C4.8125 16.1154 4.8926 15.9217 5.03522 15.7789L11.9412 8.87292C12.1079 8.70641 12.311 8.58087 12.5345 8.50618C12.5775 8.49164 12.6165 8.46739 12.6486 8.43533C12.6806 8.40326 12.7049 8.36424 12.7194 8.32128C12.7941 8.09788 12.9195 7.89479 13.0858 7.72792L15.7789 5.03522C15.9217 4.8926 16.1154 4.8125 16.3173 4.8125C16.5192 4.8125 16.7128 4.8926 16.8557 5.03522L18.5466 6.72649C18.681 6.86278 18.7596 7.04451 18.7666 7.23584C18.7737 7.42717 18.7089 7.61421 18.5849 7.76008C18.3933 7.98526 18.2933 8.27418 18.3046 8.56961C18.316 8.86504 18.4378 9.14543 18.6461 9.35526C18.856 9.56365 19.1364 9.6856 19.432 9.69694C19.7275 9.70829 20.0165 9.6082 20.2417 9.41651C20.3876 9.2925 20.5746 9.22764 20.7659 9.23473C20.9572 9.24182 21.139 9.32033 21.2753 9.45479ZM14.0236 10.1419C14.0979 10.1111 14.1655 10.066 14.2223 10.0091C14.2792 9.95223 14.3244 9.8847 14.3551 9.81038C14.3859 9.73606 14.4018 9.6564 14.4018 9.57595C14.4018 9.4955 14.3859 9.41585 14.3551 9.34153C14.3244 9.2672 14.2792 9.19968 14.2223 9.1428L13.7817 8.70256C13.6663 8.59044 13.5114 8.52823 13.3506 8.52937C13.1897 8.53051 13.0357 8.59491 12.9219 8.70866C12.8081 8.8224 12.7436 8.97636 12.7424 9.13725C12.7412 9.29814 12.8033 9.45304 12.9154 9.56849L13.356 10.0091C13.4129 10.066 13.4804 10.1111 13.5548 10.1419C13.6291 10.1727 13.7087 10.1885 13.7892 10.1885C13.8696 10.1885 13.9493 10.1727 14.0236 10.1419ZM15.4738 11.8727C15.6361 11.8727 15.7919 11.8083 15.9067 11.6935L15.9075 11.6946C15.9645 11.6377 16.0098 11.5701 16.0406 11.4956C16.0715 11.4212 16.0873 11.3414 16.0873 11.2608C16.0873 11.1802 16.0713 11.1005 16.0404 11.026C16.0095 10.9516 15.9642 10.884 15.9071 10.8272L15.486 10.4061C15.4291 10.3492 15.3616 10.3041 15.2873 10.2733C15.2129 10.2425 15.1333 10.2267 15.0528 10.2267C14.8904 10.2267 14.7346 10.2912 14.6197 10.4061C14.5628 10.463 14.5177 10.5305 14.4869 10.6048C14.4561 10.6791 14.4403 10.7588 14.4403 10.8392C14.4403 10.9197 14.4561 10.9993 14.4869 11.0737C14.5177 11.148 14.5628 11.2155 14.6197 11.2724L15.0408 11.6935C15.1556 11.8083 15.3114 11.8727 15.4738 11.8727ZM17.3924 13.5107C17.4667 13.4799 17.5342 13.4347 17.5911 13.3779L17.593 13.3798C17.65 13.3227 17.6952 13.255 17.7259 13.1805C17.7567 13.106 17.7724 13.0261 17.7723 12.9455C17.7721 12.8648 17.756 12.785 17.7249 12.7106C17.6938 12.6362 17.6483 12.5687 17.5911 12.5119L17.17 12.0908C17.0546 11.9787 16.8997 11.9165 16.7388 11.9176C16.5779 11.9188 16.424 11.9832 16.3102 12.0969C16.1964 12.2107 16.1319 12.3646 16.1307 12.5255C16.1295 12.6864 16.1916 12.8413 16.3037 12.9568L16.7248 13.3779C16.7817 13.4347 16.8492 13.4799 16.9235 13.5107C16.9978 13.5415 17.0775 13.5573 17.1579 13.5573C17.2384 13.5573 17.318 13.5415 17.3924 13.5107ZM19.0932 15.2157C19.1675 15.1849 19.235 15.1398 19.2919 15.0829L19.2938 15.0848C19.3508 15.028 19.3959 14.9605 19.4267 14.8861C19.4576 14.8118 19.4734 14.7322 19.4735 14.6517C19.4735 14.5713 19.4577 14.4916 19.4269 14.4173C19.3962 14.343 19.3511 14.2754 19.2942 14.2185L18.8559 13.7787C18.7995 13.7203 18.732 13.6737 18.6574 13.6417C18.5828 13.6096 18.5026 13.5927 18.4215 13.5919C18.3403 13.5912 18.2598 13.6065 18.1846 13.6371C18.1094 13.6677 18.0411 13.713 17.9835 13.7703C17.926 13.8275 17.8804 13.8956 17.8494 13.9707C17.8184 14.0457 17.8027 14.1262 17.8031 14.2073C17.8035 14.2885 17.82 14.3688 17.8517 14.4435C17.8834 14.5183 17.9296 14.586 17.9877 14.6427L18.4256 15.0829C18.4825 15.1398 18.55 15.1849 18.6243 15.2157C18.6987 15.2465 18.7783 15.2623 18.8588 15.2623C18.9392 15.2623 19.0189 15.2465 19.0932 15.2157ZM12.6501 14.9975C12.385 14.7497 11.5702 14.0782 11.2875 13.8754L10.6634 14.5757C11.0165 14.825 11.7608 15.4499 12.0269 15.7147L12.6501 14.9975ZM14.0812 13.4437C14.0499 13.3126 14.015 13.1664 13.9714 12.9534L12.8864 13.1876C13.29 14.0528 13.4717 15.1072 13.3442 15.9129C13.2007 16.9022 12.5723 17.9274 11.973 18.5349L13.0632 18.8381C13.6582 18.1023 14.1555 17.0918 14.3068 15.9498C14.423 15.1244 14.3116 14.2823 14.1003 13.524C14.0941 13.4976 14.0877 13.471 14.0812 13.4437ZM11.4394 16.2369C11.1039 15.9425 10.3231 15.33 9.9672 15.0909L9.34883 15.8314C9.668 16.022 10.5071 16.7054 10.8117 16.9915L11.4394 16.2369Z" fill="url(#paint0_linear_27273_196616)"/>
<defs>
<linearGradient id="paint0_linear_27273_196616" x1="23.1868" y1="0.793329" x2="3.68809" y2="1.81946" gradientUnits="userSpaceOnUse">
<stop stop-color="#FFD83D"/>
<stop offset="1" stop-color="#FFEDAE"/>
</linearGradient>
<clipPath id="clip0_27273_196616">
</clipPath>
</defs>
</svg>
