<svg width="24" height="24" viewBox="0 0 24 24" fill="none" xmlns="http://www.w3.org/2000/svg">
  <path d="M12 11.5C13.0609 11.5 14.0783 11.0786 14.8284 10.3284C15.5786 9.57828 16 8.56087 16 7.5C16 6.43913 15.5786 5.42172 14.8284 4.67157C14.0783 3.92143 13.0609 3.5 12 3.5C10.9391 3.5 9.92172 3.92143 9.17157 4.67157C8.42143 5.42172 8 6.43913 8 7.5C8 8.56087 8.42143 9.57828 9.17157 10.3284C9.92172 11.0786 10.9391 11.5 12 11.5ZM7 20.5C8.06087 20.5 9.07828 20.0786 9.82843 19.3284C10.5786 18.5783 11 17.5609 11 16.5C11 15.4391 10.5786 14.4217 9.82843 13.6716C9.07828 12.9214 8.06087 12.5 7 12.5C5.93913 12.5 4.92172 12.9214 4.17157 13.6716C3.42143 14.4217 3 15.4391 3 16.5C3 17.5609 3.42143 18.5783 4.17157 19.3284C4.92172 20.0786 5.93913 20.5 7 20.5ZM17 20.5C18.0609 20.5 19.0783 20.0786 19.8284 19.3284C20.5786 18.5783 21 17.5609 21 16.5C21 15.4391 20.5786 14.4217 19.8284 13.6716C19.0783 12.9214 18.0609 12.5 17 12.5C15.9391 12.5 14.9217 12.9214 14.1716 13.6716C13.4214 14.4217 13 15.4391 13 16.5C13 17.5609 13.4214 18.5783 14.1716 19.3284C14.9217 20.0786 15.9391 20.5 17 20.5Z" fill="#777777" stroke="#777777" stroke-width="1.37333" stroke-linecap="round" stroke-linejoin="round"/>
</svg>
