<svg width="24" height="24" viewBox="0 0 24 24" fill="none" xmlns="http://www.w3.org/2000/svg">
<path d="M20 8.33333C19.3075 6.74796 18.1673 5.39897 16.7193 4.45165C15.2713 3.50434 13.5782 2.99985 11.8477 3C7.23711 3 3.44461 6.50844 3 11" stroke="#777777" stroke-width="1.5" stroke-linecap="round" stroke-linejoin="round"/>
<path d="M16.5542 8.47368H20.4665C20.5366 8.47368 20.6059 8.4598 20.6707 8.43282C20.7354 8.40584 20.7942 8.3663 20.8437 8.31645C20.8933 8.2666 20.9326 8.20742 20.9594 8.14228C20.9862 8.07715 21 8.00734 21 7.93684V4M4 15.6316C5.37288 18.7918 8.5063 21 12.1519 21C16.7631 21 20.5545 17.4685 21 12.9474" stroke="#777777" stroke-width="1.5" stroke-linecap="round" stroke-linejoin="round"/>
<path d="M7.14844 14.6083L3.2361 14.6083C3.16604 14.6083 3.09666 14.6222 3.03194 14.6492C2.96721 14.6762 2.9084 14.7157 2.85886 14.7656C2.80932 14.8154 2.77002 14.8746 2.74321 14.9397C2.7164 15.0049 2.7026 15.0747 2.7026 15.1452L2.7026 19.082" stroke="#777777" stroke-width="1.5" stroke-linecap="round" stroke-linejoin="round"/>
</svg>
