<svg id="Layer_1" data-name="Layer 1" xmlns="http://www.w3.org/2000/svg" viewBox="0 0 32.68 34.18"><defs><style>.cls-1{fill:none;stroke:#777;stroke-linecap:round;stroke-linejoin:round;stroke-width:1.5px;}</style></defs><path class="cls-1" d="M-207.69-54.65a1,1,0,0,1,.65-.25,1,1,0,0,1,.66.25l3.24,2.82a1.19,1.19,0,0,0,.35.19,1.07,1.07,0,0,0,.4,0l4.28-.37a1,1,0,0,1,.68.18,1,1,0,0,1,.38.59l1,4.19a1,1,0,0,0,.17.36,1.06,1.06,0,0,0,.29.27l3.69,2.22a1,1,0,0,1,.43.54.94.94,0,0,1,0,.7l-1.68,4a1.09,1.09,0,0,0-.08.39,1,1,0,0,0,.08.39l1.68,4a.94.94,0,0,1,0,.7,1,1,0,0,1-.43.55l-3.69,2.22a1.06,1.06,0,0,0-.29.27,1,1,0,0,0-.17.36l-1,4.19a1,1,0,0,1-.38.58,1,1,0,0,1-.68.19l-4.28-.37a1.07,1.07,0,0,0-.4,0,1,1,0,0,0-.35.2l-3.24,2.82a1,1,0,0,1-.66.25,1,1,0,0,1-.66-.25l-3.24-2.82a.94.94,0,0,0-.35-.2,1,1,0,0,0-.39,0l-4.29.37a1,1,0,0,1-.67-.19,1,1,0,0,1-.39-.58l-1-4.19a1.17,1.17,0,0,0-.16-.36,1,1,0,0,0-.3-.27L-222.14-33a1,1,0,0,1-.44-.55,1.05,1.05,0,0,1,0-.7l1.68-4a1,1,0,0,0,.08-.39,1.09,1.09,0,0,0-.08-.39l-1.68-4a1,1,0,0,1,0-.7,1,1,0,0,1,.44-.55l3.68-2.21a1,1,0,0,0,.3-.27A1.17,1.17,0,0,0-218-47l1-4.19a1,1,0,0,1,.39-.59A.94.94,0,0,1-216-52l4.29.37a1,1,0,0,0,.39,0,1.08,1.08,0,0,0,.35-.19l3.25-2.82Z" transform="translate(223.38 55.65)"/><path class="cls-1" d="M-212-36.89l3.34,3.33,8.33-8.33" transform="translate(223.38 55.65)"/></svg>