<svg width="24" height="24" viewBox="0 0 24 24" fill="none" xmlns="http://www.w3.org/2000/svg">
<path d="M6.16406 14.4997L5.66406 19.4997M9.4974 8.24967L15.3307 11.583M6.16406 14.4997L6.95573 5.78801C6.96697 5.66363 7.02434 5.54797 7.11657 5.46377C7.20879 5.37956 7.32918 5.33292 7.45406 5.33301H18.9499C19.0194 5.33296 19.0881 5.34739 19.1517 5.37539C19.2153 5.40338 19.2724 5.44433 19.3193 5.49561C19.3661 5.54689 19.4018 5.60738 19.424 5.67322C19.4462 5.73906 19.4545 5.8088 19.4482 5.87801L18.7057 14.0447C18.6945 14.169 18.6371 14.2847 18.5449 14.3689C18.4527 14.4531 18.3323 14.4998 18.2074 14.4997H6.16406Z" stroke="white" stroke-width="1.5" stroke-linecap="round" stroke-linejoin="round"/>
</svg>
