<svg viewBox="0 0 28 28" fill="none" xmlns="http://www.w3.org/2000/svg">
<path d="M22.4656 9.55784C22.3219 7.973 22.1128 6.19823 21.0545 5.49084C19.996 4.78345 18.9793 5.44911 18.5849 5.84442C18.4714 5.95811 18.3877 6.07155 18.323 6.1825C18.2327 6.1351 18.159 6.10683 18.1151 6.11015C17.816 6.13286 17.726 6.58191 17.726 6.58191C17.726 6.58191 17.5399 6.46726 17.402 6.63167C17.264 6.79608 17.475 6.87942 17.2907 7.09915C17.1065 7.31869 16.3007 7.94644 15.7482 8.6052C15.4724 8.9341 15.3513 9.07836 14.7987 9.73711C14.2462 10.3959 13.8303 10.4484 13.0238 10.5182C12.2173 10.5882 11.6247 11.185 11.4405 11.4045C11.2563 11.6243 5.87031 18.051 5.49922 18.488C4.98255 19.0957 5.0288 19.4944 5.46687 19.8637C5.57999 19.9589 8.63146 22.5309 8.74465 22.6263C9.18271 22.9956 9.49062 23.0157 10.0914 22.3581C10.4781 21.935 15.8486 15.4947 16.0328 15.2748C16.217 15.0553 16.7018 14.3676 16.6321 13.559C16.5623 12.7505 16.5426 12.3309 17.0951 11.6722C17.6476 11.0135 17.7687 10.869 18.0445 10.5403C18.5971 9.88153 19.0757 8.97797 19.2599 8.75849C19.4442 8.53895 19.5621 8.73258 19.7001 8.56835C19.8381 8.40394 19.6935 8.23984 19.6935 8.23984C19.6935 8.23984 20.1192 8.07402 20.0904 7.77471C20.0849 7.71825 20.024 7.62459 19.9269 7.51013C20.0747 7.3757 20.2121 7.29824 20.3493 7.43586C20.7021 7.78945 19.8201 9.73445 19.6437 12.2103C19.5083 14.1098 18.7617 16.2773 19.4673 16.2773C20.1947 16.2773 20.1729 16.4541 20.1729 16.8077C20.1729 17.1612 21.0549 17.515 21.5841 17.1612C22.1132 16.8077 22.8189 16.8363 22.8189 16.2771C22.8186 15.2164 22.6422 11.503 22.4658 9.55786L22.4656 9.55784ZM13.2133 16.7179C13.1118 17.1399 13.0563 17.4882 12.7842 17.8492C12.3074 18.4827 11.4616 18.9124 10.6757 18.6246C10.573 18.587 10.1607 18.3602 10.2906 18.2075C10.3567 18.1302 10.5208 18.1644 10.6068 18.1709C11.0568 18.2042 11.5299 17.9222 11.752 17.5335C11.9901 17.117 11.9803 16.5155 12.4192 16.2362C12.2254 16.2662 12.065 16.2795 11.8853 16.3718C11.731 16.4512 11.5756 16.5521 11.4517 16.6743C11.3834 16.7417 11.175 17.0039 11.2044 17.1078C11.1252 16.8289 11.1805 16.5269 11.3271 16.2805C11.4296 16.1082 11.5705 15.9808 11.6946 15.8267C11.9489 15.5106 12.2636 15.0543 12.0031 14.645C12.0444 14.8898 11.7108 15.1246 11.5222 15.2013C11.2755 15.3014 11.0136 15.3557 10.7596 15.4329C10.1332 15.6235 9.56735 16.0496 9.46564 16.7224C9.38978 17.2238 9.5995 17.4645 9.49429 17.5417C9.16718 17.7814 8.6068 16.8254 8.94686 15.8571C9.14975 15.2795 9.61953 14.8128 10.1338 14.5006C10.6767 14.1709 11.3349 14.0638 11.9325 13.8752C12.4181 13.7221 13.1439 13.648 13.4478 12.9851C14.0763 13.9957 13.1812 15.3786 13.0894 15.6522C13.1788 15.3858 13.7568 15.1781 14.004 15.2075C13.6262 15.612 13.3424 16.181 13.2131 16.718L13.2133 16.7179Z" fill="url(#paint0_linear_10215_169846)"/>
<defs>
<linearGradient id="paint0_linear_10215_169846" x1="5.125" y1="14.0313" x2="22.8189" y2="14.0313" gradientUnits="userSpaceOnUse">
<stop stop-color="#5433FF"/>
<stop offset="0.5" stop-color="#20BDFF"/>
<stop offset="1" stop-color="#A5FECB"/>
</linearGradient>
</defs>
</svg>
