<svg width="24" height="24" viewBox="0 0 24 24" fill="none" xmlns="http://www.w3.org/2000/svg">
<g id="Frame">
<path id="Vector" d="M11.9992 8.875C11.3812 8.875 10.777 9.05828 10.2631 9.40166C9.74918 9.74504 9.34864 10.2331 9.11212 10.8041C8.87559 11.3751 8.81371 12.0035 8.93429 12.6097C9.05487 13.2158 9.35249 13.7727 9.78953 14.2097C10.2266 14.6467 10.7834 14.9444 11.3896 15.065C11.9958 15.1855 12.6241 15.1236 13.1951 14.8871C13.7661 14.6506 14.2542 14.2501 14.5976 13.7362C14.941 13.2223 15.1242 12.6181 15.1242 12C15.1218 11.172 14.7917 10.3785 14.2062 9.79302C13.6207 9.20751 12.8273 8.87747 11.9992 8.875ZM18.7461 12C18.7445 12.292 18.7231 12.5836 18.6821 12.8727L20.584 14.3617C20.6668 14.4301 20.7227 14.5257 20.7415 14.6315C20.7603 14.7373 20.7409 14.8463 20.6867 14.9391L18.8875 18.0453C18.8328 18.1373 18.7475 18.207 18.6464 18.2422C18.5454 18.2774 18.4352 18.2759 18.3352 18.2379L16.0989 17.3395C15.6332 17.698 15.1236 17.9956 14.5824 18.225L14.2481 20.5992C14.2294 20.7056 14.1743 20.8021 14.0923 20.8724C14.0103 20.9426 13.9064 20.9822 13.7985 20.9844H10.2C10.094 20.9823 9.99186 20.9444 9.9102 20.8768C9.82854 20.8092 9.77222 20.7159 9.75041 20.6121L9.41604 18.2379C8.87341 18.0112 8.36345 17.7131 7.89963 17.3516L5.6633 18.25C5.56334 18.2881 5.45316 18.2896 5.35213 18.2545C5.25111 18.2193 5.16572 18.1497 5.11096 18.0578L3.31174 14.952C3.25758 14.8592 3.23818 14.7502 3.257 14.6444C3.27582 14.5386 3.33164 14.443 3.41448 14.3746L5.31643 12.8855C5.27586 12.5921 5.25446 12.2963 5.25237 12C5.25399 11.708 5.2754 11.4164 5.31643 11.1273L3.41448 9.63828C3.33164 9.56988 3.27582 9.47426 3.257 9.36849C3.23818 9.26272 3.25758 9.15371 3.31174 9.06094L5.11096 5.95469C5.16566 5.86273 5.25103 5.79301 5.35205 5.75779C5.45308 5.72256 5.56329 5.72409 5.6633 5.76211L7.89963 6.66055C8.3653 6.30196 8.8749 6.00436 9.41604 5.775L9.75041 3.40078C9.76913 3.29443 9.82419 3.19788 9.9062 3.12763C9.98821 3.05738 10.0921 3.01779 10.2 3.01562H13.7985C13.9045 3.01769 14.0066 3.05562 14.0883 3.12323C14.1699 3.19084 14.2263 3.28414 14.2481 3.38789L14.5824 5.76211C15.1258 5.98866 15.6364 6.28674 16.1008 6.64844L18.3352 5.75C18.4351 5.71195 18.5453 5.71036 18.6464 5.74551C18.7474 5.78066 18.8328 5.8503 18.8875 5.94219L20.6867 9.04844C20.7409 9.14121 20.7603 9.25023 20.7415 9.35599C20.7227 9.46176 20.6668 9.55738 20.584 9.62578L18.6821 11.1148C18.7226 11.4082 18.744 11.7039 18.7461 12Z" fill="white"/>
</g>
</svg>
