<svg width="20" height="21" viewBox="0 0 20 21" fill="none" xmlns="http://www.w3.org/2000/svg">
<path d="M7.5 13L12.5 8" stroke="#999999" stroke-width="1.25" stroke-linecap="round"/>
<path d="M8.75 6.44598L11.0984 4.10223C11.8036 3.40843 12.7544 3.02139 13.7437 3.02542C14.7329 3.02945 15.6805 3.42422 16.3801 4.12374C17.0796 4.82326 17.4743 5.77086 17.4784 6.76012C17.4824 7.74938 17.0954 8.70016 16.4016 9.40536L14.0531 11.7499" stroke="#999999" stroke-width="1.25" stroke-linecap="round"/>
<path d="M5.94794 9.25L3.60419 11.5984C2.91039 12.3036 2.52335 13.2544 2.52737 14.2437C2.5314 15.2329 2.92617 16.1805 3.62569 16.8801C4.32521 17.5796 5.27281 17.9743 6.26207 17.9784C7.25134 17.9824 8.20212 17.5954 8.90731 16.9016L11.2518 14.5531" stroke="#999999" stroke-width="1.25" stroke-linecap="round"/>
</svg>
