<svg viewBox="0 0 20 20" fill="none" xmlns="http://www.w3.org/2000/svg">
<path d="M8.1573 10.7454C8.26952 10.521 8.33285 10.2676 8.33285 9.99988C8.33285 9.73212 8.26952 9.4788 8.1573 9.25437V10.7454ZM8.1573 10.7454C7.98935 11.0811 7.71296 11.3504 7.3729 11.5094C7.03284 11.6685 6.64903 11.7081 6.28364 11.6218C5.91826 11.5356 5.59271 11.3284 5.35973 11.0341C5.12676 10.7397 5 10.3753 5 9.99988C5 9.62447 5.12676 9.26006 5.35973 8.96568C5.59271 8.6713 5.91826 8.4642 6.28364 8.37792C6.64903 8.29165 7.03284 8.33126 7.3729 8.49033C7.71296 8.6494 7.98935 8.91862 8.1573 9.25437V10.7454ZM8.1573 10.7454L11.8418 12.5875L8.1573 10.7454ZM8.1573 9.25437L11.8418 7.41227L8.1573 9.25437ZM11.8418 7.41227C11.9397 7.60803 12.0752 7.7826 12.2406 7.926C12.4059 8.0694 12.5979 8.17882 12.8056 8.24802C13.0133 8.31722 13.2325 8.34485 13.4509 8.32931C13.6692 8.31378 13.8824 8.2554 14.0782 8.1575C14.2739 8.05959 14.4485 7.92409 14.5919 7.75873C14.7353 7.59336 14.8448 7.40137 14.914 7.19371C14.9832 6.98606 15.0108 6.76681 14.9953 6.54848C14.9797 6.33015 14.9213 6.11702 14.8234 5.92125C14.6257 5.52588 14.279 5.22525 13.8596 5.08549C13.4402 4.94574 12.9824 4.9783 12.587 5.17602C12.1916 5.37374 11.891 5.72042 11.7512 6.1398C11.6115 6.55918 11.644 7.0169 11.8418 7.41227V7.41227ZM11.8418 12.5875C11.644 12.9829 11.6115 13.4407 11.7513 13.8601C11.8911 14.2796 12.1918 14.6263 12.5873 14.824C12.9828 15.0217 13.4406 15.0543 13.8601 14.9145C14.2795 14.7746 14.6263 14.4739 14.824 14.0785C15.0217 13.6831 15.0543 13.2253 14.9144 12.8058C14.7746 12.3864 14.4739 12.0397 14.0784 11.842C13.8826 11.7441 13.6694 11.6857 13.4511 11.6702C13.2327 11.6547 13.0134 11.6823 12.8057 11.7515C12.3862 11.8913 12.0395 12.192 11.8418 12.5875V12.5875Z" stroke="#color" stroke-width="1.25" stroke-linecap="round" stroke-linejoin="round"/>
</svg>
