
<svg width="30" height="30" viewBox="0 0 24 24" fill="none" xmlns="http://www.w3.org/2000/svg">
<path d="M9.9974 11.9999H11.9974M13.9974 11.9999H11.9974M11.9974 11.9999V9.99992M11.9974 11.9999V13.9999M6.66406 18.2666V5.73325C6.66406 5.62717 6.70621 5.52542 6.78122 5.45041C6.85623 5.37539 6.95798 5.33325 7.06406 5.33325H14.8321C14.9381 5.33335 15.0398 5.37555 15.1147 5.45059L17.2134 7.54925C17.2507 7.58652 17.2803 7.6308 17.3004 7.67954C17.3206 7.72828 17.3309 7.78052 17.3307 7.83325V18.2666C17.3307 18.3191 17.3204 18.3711 17.3003 18.4197C17.2802 18.4682 17.2507 18.5123 17.2136 18.5494C17.1764 18.5866 17.1323 18.616 17.0838 18.6361C17.0353 18.6562 16.9833 18.6666 16.9307 18.6666H7.06406C7.01153 18.6666 6.95952 18.6562 6.91099 18.6361C6.86246 18.616 6.81836 18.5866 6.78122 18.5494C6.74408 18.5123 6.71461 18.4682 6.69451 18.4197C6.67441 18.3711 6.66406 18.3191 6.66406 18.2666V18.2666Z" stroke="#16BBFF" stroke-width="1.25"/>
<path d="M14.6641 5.33325V7.59992C14.6641 7.70601 14.7062 7.80775 14.7812 7.88276C14.8562 7.95778 14.958 7.99992 15.0641 7.99992H17.3307" stroke="#16BBFF" stroke-width="1.25"/>
</svg>
