<svg width="40" height="40" viewBox="0 0 40 40" fill="none" xmlns="http://www.w3.org/2000/svg">
<path d="M8 15H28V13H8V15ZM19 27H26V25H19V27ZM19 23H28V21H19V23ZM19 19H28V17H19V19ZM8 27H17V17H8V27ZM32 11V7H4V29C4 29 4 33 8 33H33C33 33 36 32.938 36 29V11H32ZM8 31C6 31 6 29 6 29V9H30V29C30 29.921 30.284 30.558 30.676 31H8Z" fill="url(#paint0_linear_5234_136154)"/>
<defs>
<linearGradient id="paint0_linear_5234_136154" x1="4" y1="20" x2="36" y2="20" gradientUnits="userSpaceOnUse">
<stop stop-color="#5433FF"/>
<stop offset="0.5" stop-color="#20BDFF"/>
<stop offset="1" stop-color="#A5FECB"/>
</linearGradient>
</defs>
</svg>
