<svg width="24" height="24" viewBox="0 0 24 24" fill="none" xmlns="http://www.w3.org/2000/svg">
<g id="dapp/icons/40x40/alternative sidebar/staking">
<g id="Vector">
<path d="M9.6752 18H7.95019C7.50019 18 7.20019 18.3 7.20019 18.75C7.20019 19.2 7.50019 19.5 7.95019 19.5H9.6752C10.1252 19.5 10.4252 19.2 10.4252 18.75C10.4252 18.3 10.1252 18 9.6752 18Z" fill="#999999"/>
<path d="M16.0502 18H14.3252C13.8752 18 13.5752 18.3 13.5752 18.75C13.5752 19.2 13.8752 19.5 14.3252 19.5H16.0502C16.5002 19.5 16.8002 19.2 16.8002 18.75C16.8002 18.3 16.5002 18 16.0502 18Z" fill="#999999"/>
<path d="M9.67501 11.775C9.15001 11.775 8.70001 11.325 8.70001 10.8C8.70001 10.2 9.15001 9.75 9.67501 9.75C10.2 9.75 10.65 10.2 10.65 10.725C10.65 11.325 10.2 11.775 9.67501 11.775Z" fill="#999999"/>
<path fill-rule="evenodd" clip-rule="evenodd" d="M16.95 4.5H7.05C5.625 4.5 4.5 5.625 4.5 7.05V14.475C4.5 15.9 5.625 17.025 7.05 17.025H16.95C18.375 17.025 19.5 15.9 19.5 14.475V7.05C19.5 5.625 18.375 4.5 16.95 4.5ZM9.67501 8.25C8.32501 8.25 7.2 9.375 7.2 10.8C7.2 12.15 8.32501 13.275 9.67501 13.275C11.025 13.275 12.15 12.15 12.15 10.8C12.15 9.375 11.025 8.25 9.67501 8.25ZM15.525 7.575C15.525 7.125 15.825 6.825 16.275 6.825C16.725 6.825 17.025 7.125 17.025 7.575V13.95C17.025 14.4 16.725 14.7 16.275 14.7C15.825 14.7 15.525 14.4 15.525 13.95V7.575Z" fill="#999999"/>
</g>
</g>
</svg>
