<svg width="40" height="40" viewBox="0 0 40 40" fill="none" xmlns="http://www.w3.org/2000/svg">
<path d="M18.8984 26.4902V29.9002H14.4984C13.8384 29.9002 13.3984 30.3402 13.3984 31.0002C13.3984 31.6602 13.8384 32.1002 14.4984 32.1002H25.4984C26.1584 32.1002 26.5984 31.6602 26.5984 31.0002C26.5984 30.3402 26.1584 29.9002 25.4984 29.9002H21.0984V26.4902C23.6284 25.9402 25.4984 23.7402 25.4984 21.1002C25.4984 18.4602 23.6284 16.2602 21.0984 15.7102V13.4002H25.4984C26.1584 13.4002 26.5984 12.9602 26.5984 12.3002C26.5984 11.6402 26.1584 11.2002 25.4984 11.2002H14.4984C13.8384 11.2002 13.3984 11.6402 13.3984 12.3002C13.3984 12.9602 13.8384 13.4002 14.4984 13.4002H18.8984V15.7102C16.3684 16.2602 14.4984 18.4602 14.4984 21.1002C14.4984 23.7402 16.3684 25.9402 18.8984 26.4902ZM16.8084 21.2102C17.0284 20.9902 17.3584 20.9902 17.5784 21.2102L19.2284 22.8602L22.1984 17.9102C22.3084 17.6902 22.7484 17.5802 22.9684 17.6902C23.1884 17.8002 23.2984 18.1302 23.1884 18.4602L19.8884 23.9602C19.7784 24.0702 19.6684 24.1802 19.4484 24.1802H19.3384C19.2284 24.1802 19.0084 24.0702 18.8984 24.0702L16.6984 21.8702C16.6984 21.8702 16.6984 21.4302 16.8084 21.2102Z" fill="url(#paint0_linear_4559_33844)"/>
<path d="M26.5984 23.2998L24.3984 25.4998H32.0984L34.2984 23.2998H26.5984Z" fill="url(#paint1_linear_4559_33844)"/>
<path d="M33.1992 34.3004L35.3992 32.1004V24.4004L33.1992 26.6004V34.3004Z" fill="url(#paint2_linear_4559_33844)"/>
<path d="M23.3008 27.6996V28.7996H25.5008C26.7108 28.7996 27.7008 29.7896 27.7008 30.9996C27.7008 32.2096 26.7108 33.1996 25.5008 33.1996H23.3008V34.2996C23.3008 34.9596 23.7408 35.3996 24.4008 35.3996H31.0008C31.6608 35.3996 32.1008 34.9596 32.1008 34.2996V26.5996H24.4008C23.7408 26.5996 23.3008 27.0396 23.3008 27.6996Z" fill="url(#paint3_linear_4559_33844)"/>
<path d="M5.69922 23.2998L7.89922 25.4998H15.5992L13.3992 23.2998H5.69922Z" fill="url(#paint4_linear_4559_33844)"/>
<path d="M4.60156 32.1004L6.80156 34.3004V26.6004L4.60156 24.4004V32.1004Z" fill="url(#paint5_linear_4559_33844)"/>
<path d="M12.2984 30.9996C12.2984 29.7896 13.2884 28.7996 14.4984 28.7996H16.6984V27.6996C16.6984 27.0396 16.2584 26.5996 15.5984 26.5996H7.89844V34.2996C7.89844 34.9596 8.33844 35.3996 8.99844 35.3996H15.5984C16.2584 35.3996 16.6984 34.9596 16.6984 34.2996V33.1996H14.4984C13.2884 33.1996 12.2984 32.2096 12.2984 30.9996Z" fill="url(#paint6_linear_4559_33844)"/>
<path d="M34.2984 4.59961H26.5984L24.3984 6.79961H32.0984L34.2984 4.59961Z" fill="url(#paint7_linear_4559_33844)"/>
<path d="M33.1992 7.9002V15.6002L35.3992 13.4002V5.7002L33.1992 7.9002Z" fill="url(#paint8_linear_4559_33844)"/>
<path d="M27.7008 12.3004C27.7008 13.5104 26.7108 14.5004 25.5008 14.5004H23.3008V15.6004C23.3008 16.2604 23.7408 16.7004 24.4008 16.7004H31.0008C31.6608 16.7004 32.1008 16.2604 32.1008 15.6004V7.90039H24.4008C23.7408 7.90039 23.3008 8.34039 23.3008 9.00039V10.1004H25.5008C26.7108 10.1004 27.7008 11.0904 27.7008 12.3004Z" fill="url(#paint9_linear_4559_33844)"/>
<path d="M15.5992 6.79961L13.3992 4.59961H5.69922L7.89922 6.79961H15.5992Z" fill="url(#paint10_linear_4559_33844)"/>
<path d="M6.80156 7.9002L4.60156 5.7002V13.4002L6.80156 15.6002V7.9002Z" fill="url(#paint11_linear_4559_33844)"/>
<path d="M7.89844 7.90039V15.6004C7.89844 16.2604 8.33844 16.7004 8.99844 16.7004H15.5984C16.2584 16.7004 16.6984 16.2604 16.6984 15.6004V14.5004H14.4984C13.2884 14.5004 12.2984 13.5104 12.2984 12.3004C12.2984 11.0904 13.2884 10.1004 14.4984 10.1004H16.6984V9.00039C16.6984 8.34039 16.2584 7.90039 15.5984 7.90039H7.89844Z" fill="url(#paint12_linear_4559_33844)"/>
<defs>
<linearGradient id="paint0_linear_4559_33844" x1="13.3984" y1="21.6502" x2="26.5984" y2="21.6502" gradientUnits="userSpaceOnUse">
<stop stop-color="#5433FF"/>
<stop offset="0.5" stop-color="#20BDFF"/>
<stop offset="1" stop-color="#A5FECB"/>
</linearGradient>
<linearGradient id="paint1_linear_4559_33844" x1="24.3984" y1="24.3998" x2="34.2984" y2="24.3998" gradientUnits="userSpaceOnUse">
<stop stop-color="#5433FF"/>
<stop offset="0.5" stop-color="#20BDFF"/>
<stop offset="1" stop-color="#A5FECB"/>
</linearGradient>
<linearGradient id="paint2_linear_4559_33844" x1="33.1992" y1="29.3504" x2="35.3992" y2="29.3504" gradientUnits="userSpaceOnUse">
<stop stop-color="#5433FF"/>
<stop offset="0.5" stop-color="#20BDFF"/>
<stop offset="1" stop-color="#A5FECB"/>
</linearGradient>
<linearGradient id="paint3_linear_4559_33844" x1="23.3008" y1="30.9996" x2="32.1008" y2="30.9996" gradientUnits="userSpaceOnUse">
<stop stop-color="#5433FF"/>
<stop offset="0.5" stop-color="#20BDFF"/>
<stop offset="1" stop-color="#A5FECB"/>
</linearGradient>
<linearGradient id="paint4_linear_4559_33844" x1="5.69922" y1="24.3998" x2="15.5992" y2="24.3998" gradientUnits="userSpaceOnUse">
<stop stop-color="#5433FF"/>
<stop offset="0.5" stop-color="#20BDFF"/>
<stop offset="1" stop-color="#A5FECB"/>
</linearGradient>
<linearGradient id="paint5_linear_4559_33844" x1="4.60156" y1="29.3504" x2="6.80156" y2="29.3504" gradientUnits="userSpaceOnUse">
<stop stop-color="#5433FF"/>
<stop offset="0.5" stop-color="#20BDFF"/>
<stop offset="1" stop-color="#A5FECB"/>
</linearGradient>
<linearGradient id="paint6_linear_4559_33844" x1="7.89844" y1="30.9996" x2="16.6984" y2="30.9996" gradientUnits="userSpaceOnUse">
<stop stop-color="#5433FF"/>
<stop offset="0.5" stop-color="#20BDFF"/>
<stop offset="1" stop-color="#A5FECB"/>
</linearGradient>
<linearGradient id="paint7_linear_4559_33844" x1="24.3984" y1="5.69961" x2="34.2984" y2="5.69961" gradientUnits="userSpaceOnUse">
<stop stop-color="#5433FF"/>
<stop offset="0.5" stop-color="#20BDFF"/>
<stop offset="1" stop-color="#A5FECB"/>
</linearGradient>
<linearGradient id="paint8_linear_4559_33844" x1="33.1992" y1="10.6502" x2="35.3992" y2="10.6502" gradientUnits="userSpaceOnUse">
<stop stop-color="#5433FF"/>
<stop offset="0.5" stop-color="#20BDFF"/>
<stop offset="1" stop-color="#A5FECB"/>
</linearGradient>
<linearGradient id="paint9_linear_4559_33844" x1="23.3008" y1="12.3004" x2="32.1008" y2="12.3004" gradientUnits="userSpaceOnUse">
<stop stop-color="#5433FF"/>
<stop offset="0.5" stop-color="#20BDFF"/>
<stop offset="1" stop-color="#A5FECB"/>
</linearGradient>
<linearGradient id="paint10_linear_4559_33844" x1="5.69922" y1="5.69961" x2="15.5992" y2="5.69961" gradientUnits="userSpaceOnUse">
<stop stop-color="#5433FF"/>
<stop offset="0.5" stop-color="#20BDFF"/>
<stop offset="1" stop-color="#A5FECB"/>
</linearGradient>
<linearGradient id="paint11_linear_4559_33844" x1="4.60156" y1="10.6502" x2="6.80156" y2="10.6502" gradientUnits="userSpaceOnUse">
<stop stop-color="#5433FF"/>
<stop offset="0.5" stop-color="#20BDFF"/>
<stop offset="1" stop-color="#A5FECB"/>
</linearGradient>
<linearGradient id="paint12_linear_4559_33844" x1="7.89844" y1="12.3004" x2="16.6984" y2="12.3004" gradientUnits="userSpaceOnUse">
<stop stop-color="#5433FF"/>
<stop offset="0.5" stop-color="#20BDFF"/>
<stop offset="1" stop-color="#A5FECB"/>
</linearGradient>
</defs>
</svg>
