<svg width="16" height="16" viewBox="0 0 16 16" fill="none" xmlns="http://www.w3.org/2000/svg">
<path d="M7.50739 0.8334C7.60344 0.280926 8.39656 0.280926 8.49261 0.8334L9.08944 4.26624C9.15226 4.6276 9.56987 4.80058 9.86982 4.58948L12.7192 2.58412C13.1778 2.26138 13.7386 2.8222 13.4159 3.28078L11.4105 6.13018C11.1994 6.43013 11.3724 6.84774 11.7338 6.91056L15.1666 7.50739C15.7191 7.60344 15.7191 8.39656 15.1666 8.49261L11.7338 9.08944C11.3724 9.15226 11.1994 9.56987 11.4105 9.86982L13.4159 12.7192C13.7386 13.1778 13.1778 13.7386 12.7192 13.4159L9.86982 11.4105C9.56987 11.1994 9.15226 11.3724 9.08944 11.7338L8.49261 15.1666C8.39656 15.7191 7.60344 15.7191 7.50739 15.1666L6.91056 11.7338C6.84774 11.3724 6.43013 11.1994 6.13018 11.4105L3.28078 13.4159C2.8222 13.7386 2.26138 13.1778 2.58412 12.7192L4.58948 9.86982C4.80058 9.56987 4.6276 9.15226 4.26624 9.08944L0.8334 8.49261C0.280926 8.39656 0.280926 7.60344 0.8334 7.50739L4.26624 6.91056C4.6276 6.84774 4.80058 6.43013 4.58948 6.13018L2.58412 3.28078C2.26138 2.8222 2.8222 2.26138 3.28078 2.58412L6.13018 4.58948C6.43013 4.80058 6.84774 4.6276 6.91056 4.26624L7.50739 0.8334Z" fill="white"/>
</svg>
