<svg width="64" height="64" viewBox="0 0 64 64" fill="none" xmlns="http://www.w3.org/2000/svg">
<g opacity="0.25">
<path d="M21.7782 57.8935C21.4913 57.6402 21.3116 57.2872 21.2758 56.9061L18.4241 26.5672H28.5731V60.5563C28.5731 61.8525 27.0436 62.5425 26.0719 61.6845L21.7782 57.8935Z" fill="white"/>
<path d="M28.5731 25.9652V21.73L17.8825 20.8064L18.3675 25.9652H28.5731Z" fill="white"/>
<path d="M28.5731 21.1257L17.8253 20.1971L16.1454 2.32562C16.0624 1.44265 16.757 0.679688 17.6439 0.679688H27.0681C27.8993 0.679688 28.5731 1.35353 28.5731 2.18476V21.1257Z" fill="white"/>
<path d="M48.4097 25.9651H56.1462C56.5618 25.9651 56.8987 25.6282 56.8987 25.2126V20.7744C56.8987 20.3299 56.5155 19.9822 56.073 20.0254L48.8889 20.7269L48.4097 25.9651Z" fill="white"/>
<path d="M48.2789 20.7865L37.5735 21.8318V25.9651H47.8051L48.2789 20.7865Z" fill="white"/>
<path d="M36.9715 21.8906V25.9651H8.46537C8.04975 25.9651 7.71283 25.6282 7.71283 25.2126V20.7644C7.71283 20.3235 8.09019 19.9771 8.5295 20.0146L33.8641 22.1815C33.9098 22.1854 33.9558 22.1851 34.0014 22.1807L36.9715 21.8906Z" fill="white"/>
<path d="M40.1501 61.5822C39.205 62.5403 37.5735 61.8711 37.5735 60.5252V13.8343H48.9295L44.979 56.2028C44.9468 56.5486 44.7959 56.8727 44.5519 57.12L40.1501 61.5822Z" fill="white"/>
<path d="M48.9856 13.2322H37.5735V6.74309L49.661 5.98905L48.9856 13.2322Z" fill="white"/>
<path d="M37.5735 2.18498V6.13989L49.7175 5.38232L50.0026 2.32471C50.0849 1.44212 49.3905 0.679904 48.504 0.679904H39.0786C38.2474 0.679904 37.5735 1.35375 37.5735 2.18498Z" fill="white"/>
<path d="M28.5732 13.2323V6.762L16.5007 6.16787L17.1612 13.2323H28.5732Z" fill="white"/>
<path d="M29.1752 13.2323H59.6079C59.9404 13.2323 60.2099 12.9627 60.2099 12.6302V5.942C60.2099 5.59449 59.9165 5.31915 59.5697 5.34118L33.4346 7.00125L29.1752 6.79163V13.2323Z" fill="white"/>
<path d="M15.8437 6.13554L16.5648 13.2323H4.37156C4.03907 13.2323 3.76953 12.9627 3.76953 12.6302V6.17371C3.76953 5.8296 4.05746 5.55549 4.40115 5.57241L15.8437 6.13554Z" fill="white"/>
</g>
<path d="M21.661 57.7607C21.3741 57.5074 21.1945 57.1544 21.1586 56.7733L18.3069 26.4344H28.4559V60.4235C28.4559 61.7197 26.9265 62.4097 25.9547 61.5517L21.661 57.7607Z" fill="white"/>
<path d="M28.4559 25.8324V21.5972L17.7654 20.6735L18.2503 25.8324H28.4559Z" fill="white"/>
<path d="M28.4559 20.9929L17.7081 20.0643L16.0282 2.19281C15.9452 1.30983 16.6398 0.546875 17.5267 0.546875H26.9509C27.7821 0.546875 28.4559 1.22072 28.4559 2.05195V20.9929Z" fill="white"/>
<path d="M48.2925 25.8323H56.029C56.4446 25.8323 56.7815 25.4954 56.7815 25.0797V20.6416C56.7815 20.1971 56.3983 19.8494 55.9559 19.8926L48.7718 20.5941L48.2925 25.8323Z" fill="white"/>
<path d="M48.1618 20.6537L37.4564 21.699V25.8323H47.6879L48.1618 20.6537Z" fill="white"/>
<path d="M36.8543 21.7578V25.8323H8.34818C7.93257 25.8323 7.59564 25.4954 7.59564 25.0797V20.6316C7.59564 20.1907 7.973 19.8443 8.41231 19.8818L33.7469 22.0487C33.7926 22.0526 33.8386 22.0523 33.8842 22.0478L36.8543 21.7578Z" fill="white"/>
<path d="M40.0329 61.4494C39.0878 62.4075 37.4564 61.7383 37.4564 60.3924V13.7015H48.8123L44.8618 56.0699C44.8296 56.4158 44.6787 56.7399 44.4347 56.9872L40.0329 61.4494Z" fill="white"/>
<path d="M48.8684 13.0994H37.4564V6.61028L49.5438 5.85624L48.8684 13.0994Z" fill="white"/>
<path d="M37.4564 2.05217V6.00708L49.6003 5.24951L49.8854 2.19189C49.9677 1.30931 49.2733 0.547092 48.3869 0.547092H38.9614C38.1302 0.547092 37.4564 1.22094 37.4564 2.05217Z" fill="white"/>
<path d="M28.456 13.0995V6.62919L16.3836 6.03506L17.0441 13.0995H28.456Z" fill="white"/>
<path d="M29.058 13.0995H59.4907C59.8232 13.0995 60.0927 12.8299 60.0927 12.4974V5.80918C60.0927 5.46168 59.7993 5.18633 59.4525 5.20836L33.3174 6.86844L29.058 6.65882V13.0995Z" fill="white"/>
<path d="M15.7265 6.00272L16.4476 13.0995H4.25437C3.92188 13.0995 3.65234 12.8299 3.65234 12.4974V6.0409C3.65234 5.69679 3.94027 5.42268 4.28397 5.4396L15.7265 6.00272Z" fill="white"/>
<path d="M18.2595 20.112L17.7081 20.0643L17.0534 13.0994H17.0441L16.3836 6.03506L16.3894 6.03535L16.0282 2.19281C15.9452 1.30983 16.6398 0.546875 17.5267 0.546875H26.9509C27.5216 0.546875 28.0181 0.864551 28.2733 1.33273C28.0597 1.2164 27.8148 1.15029 27.5545 1.15029H18.1303C17.2434 1.15029 16.5488 1.91325 16.6318 2.79623L16.993 6.63877L16.9872 6.63848L17.6477 13.7029H17.657L18.2595 20.112Z" fill="white"/>
<path d="M29.0596 13.0994H29.6616V7.26224L33.921 7.47185L60.0561 5.81178C60.0684 5.811 60.0806 5.8106 60.0927 5.81055V5.80918C60.0927 5.46168 59.7993 5.18633 59.4525 5.20836L50.2093 5.79548L50.2039 5.85293L38.06 6.6105V6.56719L33.3174 6.86844L29.0595 6.65889L29.0596 13.0994Z" fill="white"/>
<path d="M49.7091 1.33267C49.4962 1.21671 49.2517 1.15051 48.9905 1.15051H39.565C38.7338 1.15051 38.06 1.82436 38.06 2.65559V5.96942L37.4564 6.00708V2.05217C37.4564 1.22094 38.1302 0.547092 38.9614 0.547092H48.3869C48.9613 0.547092 49.4551 0.867171 49.7091 1.33267Z" fill="white"/>
<path d="M37.4564 13.7029H48.8121L48.756 14.3049H38.06V60.9958C38.06 61.2635 38.1245 61.5045 38.2354 61.7111C37.7863 61.466 37.4564 60.9976 37.4564 60.3924V26.4357H37.4579V22.3612L37.4564 22.3614V13.7029Z" fill="white"/>
<path d="M36.8543 22.4202V21.7578L33.8842 22.0478C33.8386 22.0523 33.7926 22.0526 33.7469 22.0487L17.7654 20.6735L17.7661 20.6818L8.41231 19.8818C7.973 19.8443 7.59564 20.1907 7.59564 20.6316V25.0797C7.59564 25.4487 7.86121 25.7557 8.21164 25.8199C8.2035 25.7756 8.19924 25.7299 8.19924 25.6832V21.235C8.19924 20.7941 8.5766 20.4477 9.01591 20.4852L18.3697 21.2853L18.369 21.277L34.3505 22.6521C34.3962 22.656 34.4422 22.6557 34.4878 22.6513L36.8543 22.4202Z" fill="white"/>
<path d="M18.307 26.4357L21.1586 56.7733C21.1945 57.1543 21.3741 57.5074 21.661 57.7607L22.0032 58.0629C21.8691 57.8589 21.7855 57.6237 21.7622 57.3767L18.9105 27.0378H28.4559V26.4358L18.307 26.4357Z" fill="white"/>
<path d="M48.3467 25.8323H48.9513L49.3754 21.1975L56.5595 20.496C56.6314 20.489 56.7018 20.4923 56.7692 20.5047C56.7001 20.1282 56.3517 19.8539 55.9559 19.8926L48.83 20.5884L48.6449 22.574L48.3467 25.8323Z" fill="white"/>
<path d="M15.7851 6.57932L15.7265 6.00272L4.28397 5.4396C3.94027 5.42268 3.65234 5.69679 3.65234 6.0409V12.4974C3.65234 12.8299 3.92188 13.0994 4.25437 13.0994H4.25594V6.64432C4.25594 6.30021 4.54387 6.0261 4.88757 6.04302L15.7851 6.57932Z" fill="white"/>
</svg>
