<svg width="24" height="24" viewBox="0 0 24 24" fill="none" xmlns="http://www.w3.org/2000/svg">
<rect width="24" height="24" rx="12" fill="#FFD83D" fill-opacity="0.1"/>
<g clip-path="url(#clip0_6816_97543)">
<path d="M10.4457 7.57434C11.3825 7.22394 12.4369 7.22314 13.3913 7.51114C14.6337 7.89674 15.6825 8.83434 16.2305 10.0111C16.3817 10.3463 16.5265 10.6959 16.5409 11.0687C15.8425 10.6639 15.0769 10.4015 14.3097 10.1623C13.0825 9.71994 11.7977 9.41274 10.6361 8.80474C10.3657 8.64314 10.0209 8.47754 9.9473 8.14074C9.9177 7.84954 10.2257 7.68714 10.4457 7.57434Z" fill="#FFD83D"/>
<path d="M7.61642 10.4061C7.88761 9.67008 8.33241 8.98687 8.9364 8.48047C9.09 9.74368 9.6276 10.9645 10.5156 11.8829C11.5804 12.9893 13.0972 13.6685 14.6404 13.6429C15.2531 13.6621 15.8523 13.5205 16.4499 13.4061C15.8619 15.5309 13.5332 16.9414 11.3756 16.6021C10.0732 16.4357 8.8708 15.6645 8.14521 14.5757C7.32682 13.3725 7.12042 11.7749 7.61642 10.4061Z" fill="#FFD83D"/>
<path d="M14.3086 10.1641C15.0758 10.4033 15.8414 10.6657 16.5398 11.0705L16.587 11.0953C16.6518 11.5825 16.699 12.0793 16.6126 12.5673C16.2614 12.4185 15.9766 12.1569 15.679 11.9257C15.1062 11.4489 14.5214 10.9033 14.3086 10.1641Z" fill="#FF6F03"/>
</g>
<defs>
<clipPath id="clip0_6816_97543">
<rect width="16" height="16" fill="white" transform="translate(4 4)"/>
</clipPath>
</defs>
</svg>
