<svg width="16" height="16" viewBox="0 0 16 16" fill="none" xmlns="http://www.w3.org/2000/svg">
<path fill-rule="evenodd" clip-rule="evenodd" d="M14.3355 4.04264L15.8066 5.51377C15.9304 5.63811 15.9999 5.80643 16 5.98191C16.0001 6.1574 15.9306 6.32577 15.8069 6.45019L13.4621 8.79541C13.3169 8.94018 13.1402 9.04938 12.9458 9.11444C12.9083 9.12705 12.8742 9.14817 12.8462 9.17617C12.8182 9.20416 12.797 9.23826 12.7844 9.27578C12.7193 9.47027 12.61 9.64702 12.4651 9.79216L6.45152 15.806C6.32709 15.9302 6.15847 16 5.98267 16C5.80687 16 5.63825 15.9302 5.51382 15.806L4.04276 14.3349C3.92567 14.2162 3.85731 14.058 3.85114 13.8914C3.84496 13.7247 3.90144 13.5619 4.00943 13.4348C4.17769 13.2392 4.26582 12.9872 4.25613 12.7293C4.24645 12.4714 4.13968 12.2267 3.95721 12.0442C3.77475 11.8618 3.53007 11.755 3.2722 11.7453C3.01434 11.7356 2.76234 11.8238 2.5667 11.992C2.43968 12.1 2.27681 12.1565 2.1102 12.1503C1.9436 12.1442 1.78535 12.0758 1.66667 11.9587L0.193942 10.4876C0.0697501 10.3631 0 10.1945 0 10.0187C0 9.84287 0.0697501 9.67424 0.193942 9.54981L6.20751 3.53592C6.35271 3.39093 6.52958 3.2816 6.7242 3.21656C6.7616 3.2039 6.79558 3.18278 6.8235 3.15486C6.85143 3.12693 6.87254 3.09295 6.88521 3.05555C6.95025 2.861 7.05943 2.68414 7.20422 2.53883L9.54931 0.193952C9.67374 0.0697537 9.84236 0 10.0182 0C10.194 0 10.3626 0.0697537 10.487 0.193952L11.9594 1.66675C12.0765 1.78544 12.1449 1.9437 12.151 2.11031C12.1572 2.27693 12.1007 2.43981 11.9927 2.56684C11.8259 2.76293 11.7388 3.01452 11.7487 3.27179C11.7586 3.52906 11.8647 3.77324 12.0461 3.95596C12.2288 4.13743 12.473 4.24363 12.7304 4.25351C12.9877 4.26339 13.2394 4.17623 13.4355 4.0093C13.5625 3.90131 13.7254 3.84483 13.892 3.851C14.0586 3.85717 14.2168 3.92555 14.3355 4.04264ZM8.02088 4.641C8.08559 4.61419 8.14439 4.57489 8.19392 4.52535C8.24346 4.47582 8.28276 4.41701 8.30957 4.35229C8.33638 4.28757 8.35018 4.2182 8.35018 4.14815C8.35018 4.07809 8.33638 4.00872 8.30957 3.944C8.28276 3.87928 8.24346 3.82048 8.19392 3.77095L7.81024 3.38758C7.70976 3.28994 7.57489 3.23576 7.43479 3.23676C7.29469 3.23775 7.16061 3.29383 7.06152 3.39288C6.96242 3.49194 6.90629 3.626 6.90523 3.76611C6.90418 3.90622 6.95829 4.04111 7.05588 4.14165L7.43956 4.52535C7.48909 4.57489 7.54789 4.61419 7.61261 4.641C7.67732 4.66781 7.74669 4.68161 7.81674 4.68161C7.88679 4.68161 7.95616 4.66781 8.02088 4.641ZM9.28363 6.14825C9.42503 6.14825 9.56063 6.0921 9.66065 5.99215L9.66131 5.99315C9.71098 5.94358 9.75038 5.88469 9.77725 5.81987C9.80412 5.75504 9.81794 5.68555 9.81791 5.61538C9.81788 5.5452 9.804 5.47573 9.77707 5.41093C9.75014 5.34612 9.71069 5.28727 9.66098 5.23775L9.2943 4.87105C9.24477 4.82151 9.18596 4.78222 9.12125 4.75541C9.05653 4.7286 8.98717 4.7148 8.91712 4.7148C8.77565 4.7148 8.63997 4.77101 8.53994 4.87105C8.49041 4.92058 8.45111 4.97939 8.42431 5.04411C8.3975 5.10883 8.3837 5.17819 8.3837 5.24825C8.3837 5.3183 8.3975 5.38767 8.42431 5.45239C8.45111 5.51711 8.49041 5.57591 8.53994 5.62545L8.90662 5.99215C9.00663 6.0921 9.14224 6.14825 9.28363 6.14825ZM10.9543 7.5746C11.019 7.54779 11.0778 7.50849 11.1274 7.45895L11.129 7.46062C11.1787 7.41095 11.218 7.35198 11.2448 7.28707C11.2716 7.22217 11.2853 7.15262 11.2851 7.0824C11.285 7.01219 11.271 6.9427 11.2439 6.87791C11.2168 6.81313 11.1772 6.75433 11.1274 6.70488L10.7607 6.33818C10.6602 6.24054 10.5253 6.18637 10.3852 6.18736C10.2451 6.18835 10.1111 6.24443 10.012 6.34349C9.91287 6.44254 9.85674 6.5766 9.85568 6.71671C9.85463 6.85682 9.90874 6.99172 10.0063 7.09225L10.373 7.45895C10.4225 7.50849 10.4813 7.54779 10.5461 7.5746C10.6108 7.60142 10.6801 7.61522 10.7502 7.61522C10.8202 7.61522 10.8896 7.60142 10.9543 7.5746ZM12.4354 9.05941C12.5001 9.03259 12.5589 8.99329 12.6084 8.94375L12.6101 8.94542C12.6597 8.89591 12.699 8.83712 12.7258 8.77241C12.7527 8.7077 12.7665 8.63834 12.7665 8.56829C12.7666 8.49823 12.7528 8.42886 12.726 8.36412C12.6992 8.29939 12.6599 8.24057 12.6104 8.19102L12.2287 7.80798C12.1796 7.75716 12.1209 7.71661 12.0559 7.6887C11.991 7.66078 11.9211 7.64606 11.8505 7.64538C11.7798 7.6447 11.7097 7.65807 11.6442 7.68473C11.5787 7.71139 11.5192 7.7508 11.4691 7.80066C11.419 7.85053 11.3793 7.90985 11.3523 7.9752C11.3253 8.04054 11.3116 8.11059 11.312 8.18128C11.3123 8.25197 11.3267 8.32189 11.3543 8.38697C11.3819 8.45205 11.4221 8.511 11.4727 8.56038L11.8541 8.94375C11.9036 8.99329 11.9624 9.03259 12.0271 9.05941C12.0918 9.08622 12.1612 9.10002 12.2312 9.10002C12.3013 9.10002 12.3707 9.08622 12.4354 9.05941ZM6.68275 8.62061C6.43487 8.38886 5.67314 7.76109 5.40882 7.57143L4.82525 8.2262C5.15542 8.45934 5.8513 9.04363 6.10012 9.29113L6.68275 8.62061ZM8.02079 7.16777C7.99152 7.04522 7.95885 6.90847 7.91811 6.70937L6.90368 6.92836C7.28105 7.7373 7.45089 8.72311 7.33169 9.47649C7.1975 10.4015 6.61003 11.3601 6.04971 11.9281L7.06901 12.2115C7.62529 11.5236 8.09027 10.5787 8.23171 9.511C8.34031 8.73929 8.23614 7.9519 8.03866 7.24283C8.03282 7.21813 8.02688 7.19326 8.02079 7.16777ZM5.55083 9.77942C5.2371 9.5042 4.50713 8.93144 4.17438 8.70794L3.59623 9.40033C3.89464 9.57845 4.67918 10.2175 4.96398 10.485L5.55083 9.77942Z" fill="url(#paint0_linear_22186_173535)"/>
<defs>
<linearGradient id="paint0_linear_22186_173535" x1="16" y1="-3.50001" x2="-0.979125" y2="-2.60652" gradientUnits="userSpaceOnUse">
<stop stop-color="#FFD83D"/>
<stop offset="1" stop-color="#FFEDAE"/>
</linearGradient>
</defs>
</svg>
