<svg width="24" height="24" viewBox="0 0 24 24" fill="none" xmlns="http://www.w3.org/2000/svg">
<path fill-rule="evenodd" clip-rule="evenodd" d="M4.5 12C4.5 7.875 7.875 4.5 12 4.5C16.125 4.5 19.5 7.875 19.5 12C19.5 16.125 16.125 19.5 12 19.5C7.875 19.5 4.5 16.125 4.5 12ZM14.249 8.85011C14.474 8.70011 14.774 8.77511 14.999 9.00011C15.149 9.22511 15.224 9.52511 15.149 9.75011L14.249 12.4501C13.949 13.2751 13.274 13.9501 12.449 14.2501L9.74895 15.1501C9.67395 15.2251 9.59895 15.2251 9.52395 15.2251C9.29895 15.2251 9.14895 15.1501 8.99895 15.0001C8.84895 14.7751 8.77395 14.5501 8.84895 14.2501L9.74895 11.5501C10.049 10.6501 10.649 10.0501 11.549 9.75011L14.249 8.85011Z" fill="#999999"/>
</svg>
