<svg width="32" height="32" viewBox="0 0 32 32" fill="none" xmlns="http://www.w3.org/2000/svg">
<rect width="32" height="32" rx="16" fill="#444444"/>
<g clip-path="url(#clip0_21277_6178)">
<g opacity="0.25">
<path d="M13.6582 22.9348C13.5925 22.8767 13.5513 22.7958 13.5431 22.7085L12.8896 15.7558H15.2154V23.545C15.2154 23.842 14.8649 24.0001 14.6422 23.8035L13.6582 22.9348Z" fill="white"/>
<path d="M15.2154 15.6178V14.6473L12.7655 14.4356L12.8766 15.6178H15.2154Z" fill="white"/>
<path d="M15.2154 14.5088L12.7524 14.296L12.3674 10.2004C12.3484 9.99809 12.5075 9.82324 12.7108 9.82324H14.8705C15.061 9.82324 15.2154 9.97767 15.2154 10.1682V14.5088Z" fill="white"/>
<path d="M19.7613 15.6178H21.5342C21.6295 15.6178 21.7067 15.5406 21.7067 15.4454V14.4283C21.7067 14.3264 21.6189 14.2467 21.5175 14.2566L19.8711 14.4174L19.7613 15.6178Z" fill="white"/>
<path d="M19.7313 14.4311L17.278 14.6706V15.6178H19.6227L19.7313 14.4311Z" fill="white"/>
<path d="M17.14 14.6841V15.6178H10.6074C10.5121 15.6178 10.4349 15.5406 10.4349 15.4454V14.426C10.4349 14.325 10.5214 14.2456 10.6221 14.2542L16.4279 14.7507C16.4384 14.7516 16.4489 14.7516 16.4594 14.7505L17.14 14.6841Z" fill="white"/>
<path d="M17.8685 23.7801C17.6519 23.9996 17.278 23.8463 17.278 23.5378V12.8378H19.8804L18.9751 22.5473C18.9677 22.6265 18.9331 22.7008 18.8772 22.7575L17.8685 23.7801Z" fill="white"/>
<path d="M19.8933 12.6999H17.278V11.2128L20.048 11.04L19.8933 12.6999Z" fill="white"/>
<path d="M17.278 10.1682V11.0745L20.061 10.9009L20.1263 10.2002C20.1452 9.99797 19.986 9.82329 19.7829 9.82329H17.6229C17.4324 9.82329 17.278 9.97771 17.278 10.1682Z" fill="white"/>
<path d="M15.2154 12.6999V11.2171L12.4488 11.081L12.6002 12.6999H15.2154Z" fill="white"/>
<path d="M15.3534 12.6999H22.3275C22.4037 12.6999 22.4655 12.6381 22.4655 12.5619V11.0292C22.4655 10.9496 22.3983 10.8865 22.3188 10.8915L16.3295 11.2719L15.3534 11.2239V12.6999Z" fill="white"/>
<path d="M12.2982 11.0735L12.4635 12.6999H9.66922C9.59302 12.6999 9.53125 12.6381 9.53125 12.5619V11.0823C9.53125 11.0034 9.59723 10.9406 9.676 10.9445L12.2982 11.0735Z" fill="white"/>
</g>
<path d="M13.6323 22.9055C13.5666 22.8474 13.5254 22.7665 13.5172 22.6792L12.8637 15.7265H15.1895V23.5157C15.1895 23.8127 14.839 23.9708 14.6163 23.7742L13.6323 22.9055Z" fill="white"/>
<path d="M15.1895 15.5885V14.618L12.7396 14.4063L12.8507 15.5885H15.1895Z" fill="white"/>
<path d="M15.1895 14.4795L12.7265 14.2667L12.3415 10.1711C12.3225 9.96879 12.4817 9.79395 12.6849 9.79395H14.8446C15.0351 9.79395 15.1895 9.94837 15.1895 10.1389V14.4795Z" fill="white"/>
<path d="M19.7354 15.5885H21.5084C21.6036 15.5885 21.6808 15.5113 21.6808 15.4161V14.399C21.6808 14.2971 21.593 14.2174 21.4916 14.2273L19.8452 14.3881L19.7354 15.5885Z" fill="white"/>
<path d="M19.7054 14.4018L17.2521 14.6413V15.5885H19.5969L19.7054 14.4018Z" fill="white"/>
<path d="M17.1142 14.6548V15.5885H10.5815C10.4863 15.5885 10.409 15.5113 10.409 15.4161V14.3967C10.409 14.2957 10.4955 14.2163 10.5962 14.2249L16.402 14.7214C16.4125 14.7223 16.423 14.7223 16.4335 14.7212L17.1142 14.6548Z" fill="white"/>
<path d="M17.8426 23.7508C17.626 23.9703 17.2521 23.817 17.2521 23.5085V12.8085H19.8545L18.9492 22.518C18.9418 22.5972 18.9072 22.6715 18.8513 22.7282L17.8426 23.7508Z" fill="white"/>
<path d="M19.8674 12.6706H17.2521V11.1835L20.0222 11.0107L19.8674 12.6706Z" fill="white"/>
<path d="M17.2521 10.1389V11.0452L20.0351 10.8716L20.1005 10.1709C20.1193 9.96867 19.9602 9.79399 19.757 9.79399H17.597C17.4065 9.79399 17.2521 9.94842 17.2521 10.1389Z" fill="white"/>
<path d="M15.1895 12.6706V11.1878L12.4229 11.0517L12.5743 12.6706H15.1895Z" fill="white"/>
<path d="M15.3275 12.6706H22.3017C22.3779 12.6706 22.4396 12.6088 22.4396 12.5326V10.9999C22.4396 10.9203 22.3724 10.8572 22.2929 10.8622L16.3036 11.2426L15.3275 11.1946V12.6706Z" fill="white"/>
<path d="M12.2724 11.0442L12.4376 12.6706H9.64334C9.56714 12.6706 9.50537 12.6088 9.50537 12.5326V11.053C9.50537 10.9741 9.57135 10.9113 9.65012 10.9152L12.2724 11.0442Z" fill="white"/>
<path d="M12.8528 14.2776L12.7265 14.2667L12.5764 12.6706H12.5743L12.4229 11.0517L12.4243 11.0517L12.3415 10.1711C12.3225 9.96879 12.4817 9.79395 12.6849 9.79395H14.8446C14.9754 9.79395 15.0892 9.86675 15.1477 9.97404C15.0987 9.94738 15.0426 9.93223 14.9829 9.93223H12.8232C12.62 9.93223 12.4608 10.1071 12.4798 10.3094L12.5626 11.19L12.5613 11.1899L12.7126 12.8089H12.7148L12.8528 14.2776Z" fill="white"/>
<path d="M15.3279 12.6706H15.4658V11.3329L16.4419 11.3809L22.4312 11.0005C22.434 11.0003 22.4368 11.0002 22.4396 11.0002V10.9999C22.4396 10.9203 22.3724 10.8572 22.2929 10.8622L20.1747 10.9968L20.1734 11.0099L17.3904 11.1835V11.1736L16.3036 11.2426L15.3279 11.1946L15.3279 12.6706Z" fill="white"/>
<path d="M20.0601 9.97402C20.0113 9.94745 19.9552 9.93228 19.8954 9.93228H17.7354C17.5449 9.93228 17.3904 10.0867 17.3904 10.2772V11.0366L17.2521 11.0452V10.1389C17.2521 9.94842 17.4065 9.79399 17.597 9.79399H19.757C19.8887 9.79399 20.0018 9.86735 20.0601 9.97402Z" fill="white"/>
<path d="M17.2521 12.8089H19.8545L19.8416 12.9468H17.3904V23.6468C17.3904 23.7082 17.4052 23.7634 17.4306 23.8108C17.3277 23.7546 17.2521 23.6472 17.2521 23.5085V15.7268H17.2525V14.7931L17.2521 14.7931V12.8089Z" fill="white"/>
<path d="M17.1142 14.8066V14.6548L16.4335 14.7212C16.423 14.7223 16.4125 14.7223 16.402 14.7214L12.7396 14.4063L12.7398 14.4082L10.5962 14.2249C10.4955 14.2163 10.409 14.2957 10.409 14.3967V15.4161C10.409 15.5006 10.4699 15.571 10.5502 15.5857C10.5483 15.5755 10.5474 15.565 10.5474 15.5543V14.535C10.5474 14.4339 10.6338 14.3545 10.7345 14.3632L12.8781 14.5465L12.8779 14.5446L16.5404 14.8597C16.5508 14.8606 16.5614 14.8606 16.5718 14.8595L17.1142 14.8066Z" fill="white"/>
<path d="M12.8637 15.7268L13.5172 22.6792C13.5254 22.7665 13.5666 22.8474 13.6323 22.9055L13.7108 22.9747C13.68 22.928 13.6609 22.8741 13.6556 22.8175L13.002 15.8648H15.1895V15.7268L12.8637 15.7268Z" fill="white"/>
<path d="M19.7478 15.5885H19.8864L19.9836 14.5264L21.6299 14.3656C21.6464 14.364 21.6625 14.3648 21.678 14.3676C21.6622 14.2813 21.5823 14.2185 21.4916 14.2273L19.8586 14.3868L19.8162 14.8418L19.7478 15.5885Z" fill="white"/>
<path d="M12.2858 11.1764L12.2724 11.0442L9.65012 10.9152C9.57135 10.9113 9.50537 10.9741 9.50537 11.053V12.5326C9.50537 12.6088 9.56714 12.6706 9.64334 12.6706H9.6437V11.1913C9.6437 11.1124 9.70968 11.0496 9.78844 11.0535L12.2858 11.1764Z" fill="white"/>
</g>
<defs>
<clipPath id="clip0_21277_6178">
<rect width="14.6667" height="14.6667" fill="white" transform="translate(8.66699 9.66699)"/>
</clipPath>
</defs>
</svg>
