<svg width="24" height="24" viewBox="0 0 24 24" fill="none" xmlns="http://www.w3.org/2000/svg">
<g id="Frame">
<g id="Layer 81">
<path id="Vector" d="M12 22.5C9.9233 22.5 7.89323 21.8842 6.16652 20.7304C4.4398 19.5767 3.09399 17.9368 2.29927 16.0182C1.50455 14.0996 1.29661 11.9884 1.70176 9.95156C2.1069 7.91476 3.10693 6.04383 4.57538 4.57538C6.04383 3.10693 7.91476 2.1069 9.95156 1.70176C11.9884 1.29661 14.0996 1.50455 16.0182 2.29927C17.9368 3.09399 19.5767 4.4398 20.7304 6.16652C21.8842 7.89323 22.5 9.9233 22.5 12C22.5 14.7848 21.3938 17.4555 19.4246 19.4246C17.4555 21.3938 14.7848 22.5 12 22.5ZM12 3C10.22 3 8.47992 3.52785 6.99987 4.51678C5.51983 5.50571 4.36628 6.91132 3.68509 8.55585C3.0039 10.2004 2.82567 12.01 3.17294 13.7558C3.5202 15.5016 4.37737 17.1053 5.63604 18.364C6.89472 19.6226 8.49836 20.4798 10.2442 20.8271C11.99 21.1743 13.7996 20.9961 15.4442 20.3149C17.0887 19.6337 18.4943 18.4802 19.4832 17.0001C20.4722 15.5201 21 13.78 21 12C21 9.61306 20.0518 7.32387 18.364 5.63604C16.6761 3.94822 14.387 3 12 3Z" fill="#888888"/>
<path id="Vector_2" d="M17.25 10.5001H7.5C7.30109 10.5001 7.11032 10.4211 6.96967 10.2805C6.82902 10.1398 6.75 9.94905 6.75 9.75014C6.75 9.55123 6.82902 9.36046 6.96967 9.21981C7.11032 9.07916 7.30109 9.00014 7.5 9.00014H15.4425L15.2175 8.78264C15.1476 8.71271 15.0921 8.62969 15.0543 8.53833C15.0164 8.44696 14.9969 8.34903 14.9969 8.25014C14.9969 8.05041 15.0763 7.85887 15.2175 7.71764C15.3587 7.57641 15.5503 7.49707 15.75 7.49707C15.8489 7.49707 15.9468 7.51655 16.0382 7.55439C16.1296 7.59224 16.2126 7.64771 16.2825 7.71764L17.7825 9.21764C17.8866 9.32311 17.9571 9.45704 17.9851 9.60253C18.0131 9.74802 17.9974 9.89856 17.94 10.0351C17.8837 10.1721 17.7882 10.2893 17.6654 10.3721C17.5426 10.4548 17.3981 10.4994 17.25 10.5001Z" fill="#888888"/>
<path id="Vector_3" d="M8.46712 16.2825L6.96712 14.7825C6.86305 14.677 6.79255 14.5431 6.76452 14.3976C6.73649 14.2521 6.75218 14.1016 6.80962 13.965C6.86588 13.828 6.96143 13.7108 7.08422 13.628C7.20701 13.5453 7.35155 13.5007 7.49962 13.5H17.2496C17.4485 13.5 17.6393 13.579 17.7799 13.7197C17.9206 13.8603 17.9996 14.0511 17.9996 14.25C17.9996 14.4489 17.9206 14.6397 17.7799 14.7803C17.6393 14.921 17.4485 15 17.2496 15H9.30712L9.53212 15.2175C9.60241 15.2872 9.65821 15.3702 9.69629 15.4616C9.73436 15.553 9.75397 15.651 9.75397 15.75C9.75397 15.849 9.73436 15.947 9.69629 16.0384C9.65821 16.1298 9.60241 16.2128 9.53212 16.2825C9.37372 16.3858 9.18871 16.4408 8.99962 16.4408C8.81053 16.4408 8.62552 16.3858 8.46712 16.2825Z" fill="#888888"/>
<path id="Vector_4" d="M13.5 20.2502C10.9141 20.2502 8.43419 19.2229 6.60571 17.3944C4.77723 15.566 3.75 13.086 3.75 10.5002C3.74274 9.45461 3.9607 8.41975 4.38907 7.46595C4.81743 6.51216 5.44616 5.66178 6.2325 4.97266C4.0125 6.75016 2.25 8.92516 2.25 12.0002C2.25 14.586 3.27723 17.066 5.10571 18.8944C6.93419 20.7229 9.41414 21.7502 12 21.7502C15.075 21.7502 18.6825 19.5452 19.5975 16.9202C18.255 18.6077 15.81 20.2502 13.5 20.2502Z" fill="#888888"/>
</g>
</g>
</svg>
