<svg viewBox="0 0 12 12" fill="none" xmlns="http://www.w3.org/2000/svg">
<path d="M10.5 3.00069H8V2.16569C7.98827 1.8456 7.8501 1.54322 7.61579 1.32484C7.38147 1.10645 7.07012 0.989886 6.75 1.00069H5.25C4.92988 0.989886 4.61853 1.10645 4.38421 1.32484C4.1499 1.54322 4.01173 1.8456 4 2.16569V3.00069H1.5C1.36739 3.00069 1.24021 3.05337 1.14645 3.14714C1.05268 3.2409 1 3.36808 1 3.50069C1 3.6333 1.05268 3.76047 1.14645 3.85424C1.24021 3.94801 1.36739 4.00069 1.5 4.00069H2V9.50069C2 9.89851 2.15804 10.28 2.43934 10.5613C2.72064 10.8427 3.10218 11.0007 3.5 11.0007H8.5C8.89782 11.0007 9.27936 10.8427 9.56066 10.5613C9.84196 10.28 10 9.89851 10 9.50069V4.00069H10.5C10.6326 4.00069 10.7598 3.94801 10.8536 3.85424C10.9473 3.76047 11 3.6333 11 3.50069C11 3.36808 10.9473 3.2409 10.8536 3.14714C10.7598 3.05337 10.6326 3.00069 10.5 3.00069ZM5 2.16569C5 2.08569 5.105 2.00069 5.25 2.00069H6.75C6.895 2.00069 7 2.08569 7 2.16569V3.00069H5V2.16569ZM9 9.50069C9 9.6333 8.94732 9.76048 8.85355 9.85424C8.75979 9.94801 8.63261 10.0007 8.5 10.0007H3.5C3.36739 10.0007 3.24021 9.94801 3.14645 9.85424C3.05268 9.76048 3 9.6333 3 9.50069V4.00069H9V9.50069Z" fill="#F46F76"/>
<path d="M4.5 8.5C4.63261 8.5 4.75979 8.44732 4.85355 8.35355C4.94732 8.25979 5 8.13261 5 8V6C5 5.86739 4.94732 5.74021 4.85355 5.64645C4.75979 5.55268 4.63261 5.5 4.5 5.5C4.36739 5.5 4.24021 5.55268 4.14645 5.64645C4.05268 5.74021 4 5.86739 4 6V8C4 8.13261 4.05268 8.25979 4.14645 8.35355C4.24021 8.44732 4.36739 8.5 4.5 8.5Z" fill="#F46F76"/>
<path d="M7.5 8.5C7.63261 8.5 7.75979 8.44732 7.85355 8.35355C7.94732 8.25979 8 8.13261 8 8V6C8 5.86739 7.94732 5.74021 7.85355 5.64645C7.75979 5.55268 7.63261 5.5 7.5 5.5C7.36739 5.5 7.24021 5.55268 7.14645 5.64645C7.05268 5.74021 7 5.86739 7 6V8C7 8.13261 7.05268 8.25979 7.14645 8.35355C7.24021 8.44732 7.36739 8.5 7.5 8.5Z" fill="#F46F76"/>
</svg>
