<svg width="26" height="20" viewBox="0 0 26 20" fill="none" xmlns="http://www.w3.org/2000/svg">
<path d="M9.51881 3.9679H10.4035C10.618 4.39689 10.913 4.79894 11.1809 5.22794C11.315 5.44244 11.5562 5.57652 11.7975 5.57652H11.9852V6.70252H11.5832C11.2615 6.70252 11.0201 6.94377 11.0201 7.26562C11.0201 7.58728 11.2613 7.82872 11.5832 7.82872H13.8621C14.1837 7.82872 14.4252 7.58747 14.4252 7.26562C14.4252 6.94396 14.1839 6.70252 13.8621 6.70252H13.46V5.57652H13.6478C13.889 5.57652 14.1302 5.44244 14.2643 5.22794C14.5325 4.82588 14.8274 4.3969 15.0417 3.9679H15.953C16.5161 3.9679 16.9718 3.51216 16.9718 2.94909V1.98394C16.9718 1.42085 16.5161 0.965133 15.953 0.965133H15.3899V0.643476C15.3899 0.294895 15.095 0 14.7464 0L10.7252 0.000187008C10.3766 0.000187008 10.0817 0.295101 10.0817 0.643663V0.96532H9.51881C8.95571 0.96532 8.5 1.42106 8.5 1.98413V2.94927C8.5 3.51218 8.95574 3.96789 9.51881 3.96789V3.9679ZM15.3901 2.78823V1.76942H15.953C16.0602 1.76942 16.1675 1.87658 16.1675 1.98392V2.94906C16.1675 3.05622 16.0603 3.16356 15.953 3.16356H15.3364C15.3632 3.02948 15.3901 2.92232 15.3901 2.78824L15.3901 2.78823ZM9.30433 1.98389C9.30433 1.87674 9.41149 1.76939 9.51883 1.76939H10.0819V2.7882C10.0819 2.92229 10.1087 3.02945 10.1356 3.13679H9.51884C9.41168 3.13679 9.30434 3.02963 9.30434 2.92229L9.30433 1.98389Z" fill="#color"/>
<path d="M1.04225 7.93567H1.92696C2.14146 8.36467 2.43639 8.76672 2.70434 9.19572C2.83843 9.41022 3.07967 9.5443 3.32091 9.5443H3.50867V10.6703H3.1066C2.78495 10.6703 2.54351 10.9115 2.54351 11.2334C2.54351 11.5551 2.78475 11.7965 3.1066 11.7965H5.38551C5.70717 11.7965 5.94861 11.5552 5.94861 11.2334C5.94861 10.9117 5.70736 10.6703 5.38551 10.6703H4.98344V9.5443H5.1712C5.41244 9.5443 5.65368 9.41021 5.78777 9.19572C6.05594 8.79365 6.35087 8.36467 6.56515 7.93567H7.44987C8.01296 7.93567 8.46868 7.47993 8.46868 6.91686V5.95172C8.46868 5.38862 8.01294 4.93291 7.44987 4.93291H6.88677V4.61125C6.88677 4.26267 6.59186 3.96777 6.24329 3.96777L2.24863 3.96796C1.90005 3.96796 1.60515 4.26287 1.60515 4.61144V4.93309H1.04225C0.479151 4.93309 0.0234375 5.38883 0.0234375 5.9519V6.91705C0.0234375 7.47995 0.479175 7.93566 1.04225 7.93566V7.93567ZM6.88672 6.756V5.73719H7.44982C7.55698 5.73719 7.66432 5.84435 7.66432 5.95169V6.91684C7.66432 7.02399 7.55716 7.13134 7.44982 7.13134H6.83306C6.8598 6.99744 6.88673 6.89009 6.88673 6.75601L6.88672 6.756ZM0.827771 5.95186C0.827771 5.8447 0.934928 5.73736 1.04227 5.73736H1.60537V6.75617C1.60537 6.89026 1.63211 6.99741 1.65904 7.10475L1.04228 7.10456C0.935119 7.10456 0.827776 6.99741 0.827776 6.89006L0.827771 5.95186Z" fill="#color"/>
<path d="M18.0151 7.93567H18.8998C19.1143 8.36467 19.4092 8.76672 19.6772 9.19572C19.8113 9.41022 20.0525 9.5443 20.2938 9.5443H20.4815V10.6703H20.0795C19.7578 10.6703 19.5164 10.9115 19.5164 11.2334C19.5164 11.5551 19.7576 11.7965 20.0795 11.7965H22.3584C22.68 11.7965 22.9215 11.5552 22.9215 11.2334C22.9215 10.9117 22.6802 10.6703 22.3584 10.6703H21.9563V9.5443H22.144C22.3853 9.5443 22.6265 9.41021 22.7606 9.19572C23.0288 8.79365 23.3237 8.36467 23.538 7.93567H24.4227C24.9858 7.93567 25.4415 7.47993 25.4415 6.91686V5.95172C25.4415 5.38862 24.9858 4.93291 24.4227 4.93291H23.8596V4.61125C23.8596 4.26267 23.5647 3.96777 23.2161 3.96777L19.2215 3.96796C18.8729 3.96796 18.578 4.26287 18.578 4.61144V4.93309H18.0149C17.4518 4.93309 16.9961 5.38883 16.9961 5.9519V6.91705C16.9963 7.47995 17.452 7.93566 18.0151 7.93566V7.93567ZM23.8596 6.756V5.73719H24.4227C24.5298 5.73719 24.6372 5.84435 24.6372 5.95169V6.91684C24.6372 7.02399 24.53 7.13134 24.4227 7.13134H23.8061C23.8328 6.99744 23.8596 6.89009 23.8596 6.75601L23.8596 6.756ZM17.8006 5.95186C17.8006 5.8447 17.9078 5.73736 18.0151 5.73736H18.5782V6.75617C18.5782 6.89026 18.605 6.99741 18.6319 7.10475H18.0153C17.9082 7.10475 17.8008 6.99759 17.8008 6.89025L17.8006 5.95186Z" fill="#color"/>
<path d="M24.7184 12.8151H16.9704V9.62475C16.9704 9.22268 16.6218 8.87408 16.2198 8.87408H9.24929C8.84722 8.87408 8.49862 9.22267 8.49862 9.62475V12.8151H0.750667C0.3486 12.8151 0 13.1637 0 13.5658V19.2494C0 19.6515 0.348581 20.0001 0.750667 20.0001H24.7184C25.1205 20.0001 25.4691 19.6515 25.4691 19.2494V13.5658C25.4691 13.1635 25.1205 12.8151 24.7184 12.8151ZM5.95172 16.3004L5.33514 16.8366C5.25473 16.8902 5.22799 16.9974 5.25473 17.0778L5.44249 17.8552C5.49616 18.0697 5.25473 18.2305 5.06716 18.1234L4.37016 17.6944C4.28975 17.6407 4.18241 17.6407 4.10199 17.6944L3.40499 18.1234C3.21723 18.2305 2.976 18.0697 3.02967 17.8552L3.21743 17.0778C3.24417 16.9974 3.21743 16.89 3.13701 16.8366L2.52044 16.3004C2.35961 16.1663 2.44003 15.8714 2.65453 15.8714L3.45886 15.8178C3.53927 15.8178 3.61969 15.7641 3.67336 15.6569L3.99502 14.9063C4.07543 14.6918 4.37034 14.6918 4.45076 14.9063L4.77241 15.6569C4.79915 15.7373 4.87957 15.791 4.98691 15.8178L5.79125 15.8714C6.03211 15.8982 6.11252 16.1663 5.9517 16.3004H5.95172ZM14.4235 13.0027L13.807 13.5388C13.7265 13.5925 13.6998 13.6997 13.7265 13.7801L13.9143 14.5575C13.968 14.772 13.7265 14.9328 13.539 14.8256L12.842 14.3966C12.7616 14.343 12.6542 14.343 12.5738 14.3966L11.9034 14.8258C11.7156 14.933 11.4744 14.7722 11.528 14.5577L11.7158 13.7803C11.7425 13.6999 11.7158 13.5925 11.6354 13.539L11.0188 13.0029C10.858 12.8688 10.9384 12.5739 11.1529 12.5739L11.9572 12.5202C12.0377 12.5202 12.1181 12.4665 12.1717 12.3594L12.4934 11.6087C12.5738 11.3942 12.8687 11.3942 12.9491 11.6087L13.2708 12.3594C13.2975 12.4398 13.3779 12.4935 13.4853 12.5202L14.2896 12.5739C14.5039 12.5739 14.6111 12.8419 14.4235 13.0027ZM22.9221 16.3004L22.3056 16.8366C22.2252 16.8902 22.1984 16.9974 22.2252 17.0778L22.4129 17.8552C22.4666 18.0697 22.2252 18.2305 22.0376 18.1234L21.3406 17.6944C21.2602 17.6407 21.1528 17.6407 21.0724 17.6944L20.3754 18.1234C20.1877 18.2305 19.9464 18.0697 20.0001 17.8552L20.1879 17.0778C20.2146 16.9974 20.1879 16.89 20.1074 16.8366L19.4909 16.3004C19.3564 16.1663 19.4368 15.8982 19.6781 15.8714L20.4824 15.8178C20.5628 15.8178 20.6432 15.7641 20.6969 15.6569L21.0186 14.9063C21.099 14.6918 21.3939 14.6918 21.4743 14.9063L21.796 15.6569C21.8227 15.7373 21.9031 15.791 22.0105 15.8178L22.8148 15.8714C23.0025 15.8982 23.083 16.1663 22.9221 16.3004H22.9221Z" fill="#color"/>
<line x1="24.9699" y1="19.4297" x2="25.4184" y2="19.8782" stroke="black" stroke-width="0.224241"/>
</svg>
