<svg viewBox="0 0 20 20" fill="none" xmlns="http://www.w3.org/2000/svg">
<path d="M17 5.42188C16.4838 5.6625 15.932 5.825 15.3505 5.9C15.9438 5.525 16.4007 4.93125 16.6143 4.225C16.0595 4.57187 15.4454 4.825 14.7898 4.95937C14.2647 4.36875 13.5171 4 12.6923 4C11.1051 4 9.82051 5.35625 9.82051 7.02812C9.82051 7.26562 9.84425 7.49688 9.89468 7.71875C7.50646 7.59375 5.38822 6.3875 3.97309 4.55312C3.72685 5 3.58445 5.52187 3.58445 6.075C3.58445 7.125 4.09176 8.05313 4.86311 8.59688C4.3914 8.58438 3.94639 8.44688 3.56071 8.21875C3.56071 8.23125 3.56071 8.24375 3.56071 8.25625C3.56071 9.725 4.5516 10.9469 5.86586 11.225C5.62556 11.2938 5.37042 11.3313 5.10935 11.3313C4.92541 11.3313 4.74444 11.3125 4.5694 11.275C4.93431 12.4781 5.9964 13.3531 7.25429 13.3781C6.2723 14.1906 5.03221 14.675 3.68531 14.675C3.45391 14.675 3.22547 14.6594 3 14.6313C4.26976 15.5 5.77983 16 7.39966 16C12.6864 16 15.576 11.3844 15.576 7.38125C15.576 7.25 15.573 7.11875 15.5671 6.99062C16.1278 6.5625 16.6143 6.02813 17 5.42188Z" fill="white"/>
</svg>
