<svg width="24" height="24" viewBox="0 0 24 24" fill="none" xmlns="http://www.w3.org/2000/svg">
<path d="M5 9C7.20913 9 9 7.20913 9 5C9 2.79086 7.20913 1 5 1C2.79086 1 1 2.79086 1 5C1 7.20913 2.79086 9 5 9Z" fill="#color"/>
<path d="M19 23C21.2091 23 23 21.2091 23 19C23 16.7909 21.2091 15 19 15C16.7909 15 15 16.7909 15 19C15 21.2091 16.7909 23 19 23Z" fill="#color"/>
<path d="M12.9992 18H7.69916C6.99916 18 6.79916 17.4 6.69916 17.3C6.69916 17.1 6.59919 16.5 7.19916 16.2L18.7992 9.7C19.9992 9 20.5992 7.7 20.1992 6.3C19.7992 4.9 18.6992 4 17.2992 4H10.9992C10.3992 4 9.99916 4.4 9.99916 5C9.99916 5.6 10.3992 6 10.9992 6H17.2992C17.9992 6 18.1992 6.6 18.2992 6.7C18.3992 6.8 18.3992 7.5 17.7992 7.8L6.19919 14.4C4.99919 15.1 4.39919 16.4 4.79919 17.8C5.09919 19.1 6.29919 20 7.69916 20H12.9992C13.5992 20 13.9992 19.6 13.9992 19C13.9992 18.4 13.5992 18 12.9992 18Z" fill="#color"/>
</svg>
