<svg width="32" height="32" viewBox="0 0 32 32" fill="none" xmlns="http://www.w3.org/2000/svg">
<rect width="32" height="32" rx="16" fill="#222222"/>
<path d="M18.25 16V19.3C18.25 19.3591 18.2384 19.4176 18.2157 19.4722C18.1931 19.5268 18.16 19.5764 18.1182 19.6182C18.0764 19.66 18.0268 19.6931 17.9722 19.7157C17.9176 19.7384 17.8591 19.75 17.8 19.75H9.7C9.64091 19.75 9.58239 19.7384 9.52779 19.7157C9.4732 19.6931 9.42359 19.66 9.3818 19.6182C9.34002 19.5764 9.30687 19.5268 9.28425 19.4722C9.26164 19.4176 9.25 19.3591 9.25 19.3V12.7C9.25 12.5807 9.29741 12.4662 9.3818 12.3818C9.46619 12.2974 9.58065 12.25 9.7 12.25H17.8C17.9193 12.25 18.0338 12.2974 18.1182 12.3818C18.2026 12.4662 18.25 12.5807 18.25 12.7V16ZM18.25 16L22.012 12.865C22.0777 12.8103 22.1577 12.7754 22.2425 12.7645C22.3273 12.7535 22.4135 12.767 22.4909 12.8033C22.5684 12.8396 22.6339 12.8972 22.6797 12.9693C22.7256 13.0415 22.75 13.1252 22.75 13.2108V18.7893C22.7499 18.8747 22.7254 18.9584 22.6794 19.0304C22.6335 19.1025 22.568 19.1599 22.4906 19.1961C22.4132 19.2323 22.327 19.2457 22.2423 19.2348C22.1575 19.2238 22.0777 19.1889 22.012 19.1343L18.25 16Z" stroke="white" stroke-width="1.25"/>
</svg>
