<svg width="16" height="16" viewBox="0 0 16 16" fill="none" xmlns="http://www.w3.org/2000/svg">
<path d="M8.66667 14H2.4C2.29391 14 2.19217 13.9579 2.11716 13.8828C2.04214 13.8078 2 13.7061 2 13.6V2.4C2 2.29391 2.04214 2.19217 2.11716 2.11716C2.19217 2.04214 2.29391 2 2.4 2H13.6C13.7061 2 13.8078 2.04214 13.8828 2.11716C13.9579 2.19217 14 2.29391 14 2.4V8.66667" stroke="#A3A3A3" stroke-width="1.25" stroke-linecap="round" stroke-linejoin="round"/>
<path d="M2 10.6667L6.66667 8.66667L10.3333 10.3333M10.6667 12.6667H12.6667M14.6667 12.6667H12.6667M12.6667 12.6667V10.6667M12.6667 12.6667V14.6667M10.6667 6.66667C10.313 6.66667 9.97391 6.52619 9.72386 6.27614C9.47381 6.02609 9.33333 5.68696 9.33333 5.33333C9.33333 4.97971 9.47381 4.64057 9.72386 4.39052C9.97391 4.14048 10.313 4 10.6667 4C11.0203 4 11.3594 4.14048 11.6095 4.39052C11.8595 4.64057 12 4.97971 12 5.33333C12 5.68696 11.8595 6.02609 11.6095 6.27614C11.3594 6.52619 11.0203 6.66667 10.6667 6.66667V6.66667Z" stroke="#A3A3A3" stroke-width="1.25" stroke-linecap="round" stroke-linejoin="round"/>
</svg>