<?xml version="1.0" encoding="utf-8"?>
<!-- Generator: Adobe Illustrator 25.4.0, SVG Export Plug-In . SVG Version: 6.00 Build 0)  -->
<svg version="1.1" id="Layer_1" xmlns="http://www.w3.org/2000/svg" xmlns:xlink="http://www.w3.org/1999/xlink" x="0px" y="0px"
	 viewBox="0 0 28 28" style="enable-background:new 0 0 28 28;" xml:space="preserve">
<style type="text/css">
	.st0{fill:none;stroke:#FFFFFF;stroke-width:1.5;}
	.st1{fill:#A3A3A3;stroke:#FFFFFF;stroke-width:1.5;stroke-linecap:round;stroke-linejoin:round;}
</style>
<path class="st0" d="M22.2,23.3H5.8c-1.3,0-2.3-1-2.3-2.3V10.5c0-1.3,1-2.3,2.3-2.3h16.3c1.3,0,2.3,1,2.3,2.3V21
	C24.5,22.3,23.5,23.3,22.2,23.3z"/>
<path class="st0" d="M8.2,8.2v-4c0-0.4,0.3-0.7,0.7-0.7h10.3c0.4,0,0.7,0.3,0.7,0.7v4"/>
<path class="st0" d="M11.7,3.5v4.7"/>
<path class="st0" d="M14,3.5v4.7"/>
<path class="st1" d="M19.3,16.3c-0.3,0-0.6-0.3-0.6-0.6c0-0.3,0.3-0.6,0.6-0.6s0.6,0.3,0.6,0.6C19.8,16.1,19.6,16.3,19.3,16.3z"/>
</svg>
