<svg viewBox="0 0 24 24" fill="none" xmlns="http://www.w3.org/2000/svg">
<rect width="24" height="24" rx="12" fill="#3396FF" fill-opacity="0.2"/>
<path d="M7.28407 9.02041C9.88771 6.47236 14.109 6.47236 16.7126 9.02041L17.026 9.32706C17.1561 9.45448 17.1561 9.66102 17.026 9.78844L15.954 10.8375C15.889 10.9012 15.7834 10.9012 15.7183 10.8375L15.2871 10.4155C13.4708 8.63788 10.5259 8.63788 8.70957 10.4155L8.24777 10.8674C8.18269 10.9311 8.07713 10.9311 8.01205 10.8674L6.94013 9.81836C6.80997 9.69094 6.80997 9.4844 6.94013 9.35698L7.28407 9.02041ZM18.9294 11.1899L19.8834 12.1235C20.0136 12.2509 20.0136 12.4575 19.8834 12.5849L15.5818 16.7948C15.4516 16.9222 15.2405 16.9222 15.1103 16.7948L12.0573 13.8069C12.0247 13.7751 11.972 13.7751 11.9394 13.8069L8.88644 16.7948C8.75628 16.9222 8.5452 16.9222 8.41504 16.7948L4.11326 12.5849C3.98308 12.4574 3.98308 12.2509 4.11326 12.1235L5.06726 11.1899C5.19744 11.0625 5.40851 11.0625 5.53869 11.1899L8.59179 14.1778C8.62433 14.2096 8.67707 14.2096 8.70961 14.1778L11.7626 11.1899C11.8927 11.0625 12.1038 11.0625 12.234 11.1898L15.2871 14.1778C15.3196 14.2096 15.3724 14.2096 15.4049 14.1778L18.458 11.1899C18.5881 11.0625 18.7992 11.0625 18.9294 11.1899Z" fill="#3396FF"/>
</svg>
