<svg viewBox="0 0 28 28" fill="none" xmlns="http://www.w3.org/2000/svg">
<path d="M22.1667 23.3332H5.83333C4.54467 23.3332 3.5 22.2885 3.5 20.9998V10.4998C3.5 9.21117 4.54467 8.1665 5.83333 8.1665H22.1667C23.4554 8.1665 24.5 9.21117 24.5 10.4998V20.9998C24.5 22.2885 23.4554 23.3332 22.1667 23.3332Z" stroke="#color" stroke-width="1.5"/>
<path d="M8.16895 8.16667V4.2C8.16895 3.8134 8.48235 3.5 8.86895 3.5H19.1356C19.5222 3.5 19.8356 3.8134 19.8356 4.2V8.16667" stroke="#color" stroke-width="1.5"/>
<path d="M11.6689 3.5V8.16667" stroke="#color" stroke-width="1.5"/>
<path d="M14 3.5V8.16667" stroke="#color" stroke-width="1.5"/>
<path d="M19.2523 16.3332C18.9302 16.3332 18.6689 16.072 18.6689 15.7498C18.6689 15.4277 18.9302 15.1665 19.2523 15.1665C19.5744 15.1665 19.8356 15.4277 19.8356 15.7498C19.8356 16.072 19.5744 16.3332 19.2523 16.3332Z" fill="#color" stroke="#color" stroke-width="1.5" stroke-linecap="round" stroke-linejoin="round"/>
</svg>
