<svg width="24" height="24" viewBox="0 0 24 24" fill="none" xmlns="http://www.w3.org/2000/svg">
<path d="M16.05 15.15C14.325 15.15 12.9 13.725 12.9 12C12.9 10.275 14.325 8.85 16.05 8.85H18.225C18.075 7.275 16.725 6 15.075 6H7.575C5.925 6 4.5 7.35 4.5 9.075V14.925C4.5 16.65 5.925 18 7.65 18H15.15C16.8 18 18.15 16.725 18.3 15.15H16.05Z" fill="#999999"/>
<path d="M18.4504 10.3501H16.0504C15.1504 10.3501 14.4004 11.1001 14.4004 12.0001C14.4004 12.9001 15.1504 13.6501 16.0504 13.6501H18.4504C19.0504 13.6501 19.5004 13.2001 19.5004 12.6001V11.4001C19.5004 10.8001 19.0504 10.3501 18.4504 10.3501Z" fill="#999999"/>
</svg>
