<svg width="24" height="24" viewBox="0 0 24 24" fill="none" xmlns="http://www.w3.org/2000/svg">
<path d="M17.8333 19.5H6.16667C5.24619 19.5 4.5 18.7538 4.5 17.8333V6.16667C4.5 5.24619 5.24619 4.5 6.16667 4.5H17.8333C18.7538 4.5 19.5 5.24619 19.5 6.16667V17.8333C19.5 18.7538 18.7538 19.5 17.8333 19.5Z" stroke="white" stroke-width="1.25" stroke-linecap="round" stroke-linejoin="round"/>
<path d="M4.5 14.5H9.83333C10.1095 14.5 10.3377 14.7319 10.4587 14.9802C10.6303 15.3326 11.0368 15.75 12 15.75C12.9632 15.75 13.3697 15.3326 13.5413 14.9802C13.6622 14.7319 13.8905 14.5 14.1667 14.5H19.5" stroke="white" stroke-width="1.25" stroke-linecap="round" stroke-linejoin="round"/>
<path d="M4.5 7.83398H19.5" stroke="white" stroke-width="1.25" stroke-linecap="round" stroke-linejoin="round"/>
<path d="M4.5 11.166H19.5" stroke="white" stroke-width="1.25" stroke-linecap="round" stroke-linejoin="round"/>
</svg>
