<svg width="24" height="24" viewBox="0 0 24 24" fill="none" xmlns="http://www.w3.org/2000/svg">
<path d="M11.7758 6.14891C11.8675 5.9631 12.1325 5.9631 12.2242 6.14891L13.4459 8.62442C13.7008 9.14092 14.1936 9.49891 14.7636 9.58174L17.4954 9.9787C17.7005 10.0085 17.7824 10.2605 17.634 10.4051L15.6572 12.332C15.2447 12.7341 15.0565 13.3133 15.1539 13.881L15.6206 16.6019C15.6556 16.8061 15.4412 16.9618 15.2578 16.8654L12.8143 15.5808C12.3045 15.3128 11.6955 15.3128 11.1857 15.5808L8.74218 16.8654C8.55878 16.9618 8.34442 16.8061 8.37945 16.6019L8.84611 13.881C8.94347 13.3133 8.75526 12.7341 8.34281 12.332L6.36601 10.4051C6.21763 10.2605 6.2995 10.0085 6.50456 9.9787L9.23644 9.58174C9.80644 9.49891 10.2992 9.14091 10.5541 8.62441L9.88153 8.29249L10.5541 8.62441L11.7758 6.14891Z" fill="#FFE768" stroke="#FFE768" stroke-width="1.5"/>
</svg>
