<svg width="24" height="24" viewBox="0 0 24 24" fill="none" xmlns="http://www.w3.org/2000/svg">
<path d="M7 9L12 12.5L17 9" stroke="white" stroke-width="1.5" stroke-linecap="round" stroke-linejoin="round"/>
<path d="M2 17V7C2 6.46957 2.21071 5.96086 2.58579 5.58579C2.96086 5.21071 3.46957 5 4 5H20C20.5304 5 21.0391 5.21071 21.4142 5.58579C21.7893 5.96086 22 6.46957 22 7V17C22 17.5304 21.7893 18.0391 21.4142 18.4142C21.0391 18.7893 20.5304 19 20 19H4C3.46957 19 2.96086 18.7893 2.58579 18.4142C2.21071 18.0391 2 17.5304 2 17Z" stroke="white" stroke-width="1.5"/>
</svg>
