<svg width="24" height="24" viewBox="0 0 24 24" fill="none" xmlns="http://www.w3.org/2000/svg">
<path d="M21.4721 7.14091C21.4866 7.35091 21.4866 7.56091 21.4866 7.77284C21.4866 14.2306 16.5705 21.6783 7.58113 21.6783V21.6745C4.92565 21.6783 2.32533 20.9177 0.0898438 19.4835C0.475973 19.5299 0.864037 19.5532 1.25307 19.5541C3.45371 19.5561 5.59146 18.8177 7.32275 17.458C5.23146 17.4183 3.39759 16.0548 2.75694 14.0641C3.48952 14.2054 4.24436 14.1764 4.96339 13.9799C2.68339 13.5193 1.04307 11.5161 1.04307 9.18962V9.12768C1.72242 9.50607 2.48307 9.71607 3.26113 9.73929C1.11371 8.30413 0.451779 5.44736 1.74855 3.21381C4.22984 6.26704 7.89081 8.12316 11.8208 8.31962C11.4269 6.6222 11.965 4.84349 13.2347 3.65026C15.2031 1.79994 18.2989 1.89478 20.1492 3.8622C21.2437 3.64639 22.2927 3.24478 23.2527 2.67575C22.8879 3.80704 22.1244 4.768 21.1044 5.37865C22.0731 5.26446 23.0195 5.0051 23.9108 4.60929C23.2547 5.59252 22.4282 6.44897 21.4721 7.14091Z" fill="#1D9BF0"/>
</svg>
