<svg viewBox="0 0 20 20" fill="none" xmlns="http://www.w3.org/2000/svg">
<rect x="6.5" y="6.5" width="10" height="10" rx="1.5" stroke="#777777"/>
<path fill-rule="evenodd" clip-rule="evenodd" d="M5 3C3.89543 3 3 3.89543 3 5V12C3 13.1046 3.89543 14 5 14H6V13H5L6 12V10.5856L4.11659 12.469C4.04217 12.3291 4 12.1695 4 12V10.9998L6 8.99983V8C6 7.83816 6.01922 7.68081 6.05551 7.53011L4 9.58562V7.99984L7.99984 4H9.58562L7.53011 6.05551C7.68081 6.01922 7.83816 6 8 6H8.99984L10.9998 4H12C12.1695 4 12.3291 4.04217 12.469 4.11659L10.5856 6H12L13 5V6H14V5C14 3.89543 13.1046 3 12 3H5ZM5 4H6.58562L4 6.58562V5C4 4.44772 4.44772 4 5 4Z" fill="#777777"/>
</svg>
