<svg viewBox="0 0 20 20" fill="none" xmlns="http://www.w3.org/2000/svg">
<mask id="path-1-outside-1_8279_3293" maskUnits="userSpaceOnUse" x="3.25" y="3" width="14" height="14" fill="black">
<rect fill="white" x="3.25" y="3" width="14" height="14"/>
<path d="M4.25 13.5V7.20711C4.25 6.75435 4.42986 6.32014 4.75 6C5.07014 6.32014 5.25 6.75435 5.25 7.20711V13.5C5.25 14.3284 5.92157 15 6.75 15C7.57843 15 8.25 14.3284 8.25 13.5V8.75C8.25 7.7835 9.0335 7 10 7C10.9665 7 11.75 7.7835 11.75 8.75V13.5C11.75 14.3284 12.4216 15 13.25 15C14.0784 15 14.75 14.3284 14.75 13.5V7.20711C14.75 6.75435 14.9299 6.32014 15.25 6C15.5701 6.32014 15.75 6.75435 15.75 7.20711V13.5C15.75 14.8807 14.6307 16 13.25 16C11.8693 16 10.75 14.8807 10.75 13.5V8.75C10.75 8.33579 10.4142 8 10 8C9.58579 8 9.25 8.33579 9.25 8.75V13.5C9.25 14.8807 8.13071 16 6.75 16C5.36929 16 4.25 14.8807 4.25 13.5Z"/>
</mask>
<path d="M14.75 6C14.75 6.27614 14.9739 6.5 15.25 6.5C15.5261 6.5 15.75 6.27614 15.75 6H14.75ZM15.75 4C15.75 3.72386 15.5261 3.5 15.25 3.5C14.9739 3.5 14.75 3.72386 14.75 4H15.75ZM4.25 6C4.25 6.27614 4.47386 6.5 4.75 6.5C5.02614 6.5 5.25 6.27614 5.25 6H4.25ZM5.25 4C5.25 3.72386 5.02614 3.5 4.75 3.5C4.47386 3.5 4.25 3.72386 4.25 4H5.25ZM15.75 6V4H14.75V6H15.75ZM5.25 6V4H4.25V6H5.25ZM15.25 6L15.9571 5.29289C15.5666 4.90237 14.9334 4.90237 14.5429 5.29289L15.25 6ZM4.75 6L5.45711 5.29289C5.06658 4.90237 4.43342 4.90237 4.04289 5.29289L4.75 6ZM3.25 7.20711V13.5H5.25V7.20711H3.25ZM10.25 13.5V8.75H8.25V13.5H10.25ZM9.75 8.75V13.5H11.75V8.75H9.75ZM16.75 13.5V7.20711H14.75V13.5H16.75ZM13.75 7.20711V13.5H15.75V7.20711H13.75ZM12.75 13.5V8.75H10.75V13.5H12.75ZM7.25 8.75V13.5H9.25V8.75H7.25ZM6.25 13.5V7.20711H4.25V13.5H6.25ZM6.25 7.20711C6.25 6.48914 5.96479 5.80057 5.45711 5.29289L4.04289 6.70711C4.1755 6.83972 4.25 7.01957 4.25 7.20711H6.25ZM6.75 14C6.47386 14 6.25 13.7761 6.25 13.5H4.25C4.25 14.8807 5.36929 16 6.75 16V14ZM7.25 13.5C7.25 13.7761 7.02614 14 6.75 14V16C8.13071 16 9.25 14.8807 9.25 13.5H7.25ZM10 6C8.48122 6 7.25 7.23122 7.25 8.75H9.25C9.25 8.33579 9.58579 8 10 8V6ZM12.75 8.75C12.75 7.23122 11.5188 6 10 6V8C10.4142 8 10.75 8.33579 10.75 8.75H12.75ZM13.75 13.5C13.75 13.7761 13.5261 14 13.25 14V16C14.6307 16 15.75 14.8807 15.75 13.5H13.75ZM14.5429 5.29289C14.0352 5.80057 13.75 6.48914 13.75 7.20711H15.75C15.75 7.01957 15.8245 6.83972 15.9571 6.70711L14.5429 5.29289ZM16.75 7.20711C16.75 6.48914 16.4648 5.80057 15.9571 5.29289L14.5429 6.70711C14.6755 6.83972 14.75 7.01957 14.75 7.20711H16.75ZM13.25 17C15.183 17 16.75 15.433 16.75 13.5H14.75C14.75 14.3284 14.0784 15 13.25 15V17ZM9.75 13.5C9.75 15.433 11.317 17 13.25 17V15C12.4216 15 11.75 14.3284 11.75 13.5H9.75ZM10 9C9.86193 9 9.75 8.88807 9.75 8.75H11.75C11.75 7.7835 10.9665 7 10 7V9ZM10.25 8.75C10.25 8.88807 10.1381 9 10 9V7C9.0335 7 8.25 7.7835 8.25 8.75H10.25ZM6.75 17C8.683 17 10.25 15.433 10.25 13.5H8.25C8.25 14.3284 7.57843 15 6.75 15V17ZM3.25 13.5C3.25 15.433 4.817 17 6.75 17V15C5.92157 15 5.25 14.3284 5.25 13.5H3.25ZM13.25 14C12.9739 14 12.75 13.7761 12.75 13.5H10.75C10.75 14.8807 11.8693 16 13.25 16V14ZM5.25 7.20711C5.25 7.01957 5.3245 6.83972 5.45711 6.70711L4.04289 5.29289C3.53521 5.80057 3.25 6.48914 3.25 7.20711H5.25Z" fill="#777777" mask="url(#path-1-outside-1_8279_3293)"/>
</svg>
