<svg width="16" height="16" viewBox="0 0 16 16" fill="none" xmlns="http://www.w3.org/2000/svg">
<g clip-path="url(#clip0_301_12404)">
<path d="M13.625 4.24891H10.5V3.20516C10.4853 2.80505 10.3126 2.42707 10.0197 2.15409C9.72684 1.88111 9.33765 1.7354 8.9375 1.74891H7.0625C6.66235 1.7354 6.27316 1.88111 5.98027 2.15409C5.68737 2.42707 5.51466 2.80505 5.5 3.20516V4.24891H2.375C2.20924 4.24891 2.05027 4.31476 1.93306 4.43197C1.81585 4.54918 1.75 4.70815 1.75 4.87391C1.75 5.03967 1.81585 5.19864 1.93306 5.31585C2.05027 5.43306 2.20924 5.49891 2.375 5.49891H3V12.3739C3 12.8712 3.19754 13.3481 3.54917 13.6997C3.90081 14.0514 4.37772 14.2489 4.875 14.2489H11.125C11.6223 14.2489 12.0992 14.0514 12.4508 13.6997C12.8025 13.3481 13 12.8712 13 12.3739V5.49891H13.625C13.7908 5.49891 13.9497 5.43306 14.0669 5.31585C14.1842 5.19864 14.25 5.03967 14.25 4.87391C14.25 4.70815 14.1842 4.54918 14.0669 4.43197C13.9497 4.31476 13.7908 4.24891 13.625 4.24891ZM6.75 3.20516C6.75 3.10516 6.88125 2.99891 7.0625 2.99891H8.9375C9.11875 2.99891 9.25 3.10516 9.25 3.20516V4.24891H6.75V3.20516ZM11.75 12.3739C11.75 12.5397 11.6842 12.6986 11.5669 12.8159C11.4497 12.9331 11.2908 12.9989 11.125 12.9989H4.875C4.70924 12.9989 4.55027 12.9331 4.43306 12.8159C4.31585 12.6986 4.25 12.5397 4.25 12.3739V5.49891H11.75V12.3739Z" fill="#F46F76"/>
<path d="M6.125 11.125C6.29076 11.125 6.44973 11.0592 6.56694 10.9419C6.68415 10.8247 6.75 10.6658 6.75 10.5V8C6.75 7.83424 6.68415 7.67527 6.56694 7.55806C6.44973 7.44085 6.29076 7.375 6.125 7.375C5.95924 7.375 5.80027 7.44085 5.68306 7.55806C5.56585 7.67527 5.5 7.83424 5.5 8V10.5C5.5 10.6658 5.56585 10.8247 5.68306 10.9419C5.80027 11.0592 5.95924 11.125 6.125 11.125Z" fill="#F46F76"/>
<path d="M9.875 11.125C10.0408 11.125 10.1997 11.0592 10.3169 10.9419C10.4342 10.8247 10.5 10.6658 10.5 10.5V8C10.5 7.83424 10.4342 7.67527 10.3169 7.55806C10.1997 7.44085 10.0408 7.375 9.875 7.375C9.70924 7.375 9.55027 7.44085 9.43306 7.55806C9.31585 7.67527 9.25 7.83424 9.25 8V10.5C9.25 10.6658 9.31585 10.8247 9.43306 10.9419C9.55027 11.0592 9.70924 11.125 9.875 11.125Z" fill="#F46F76"/>
</g>
<defs>
<clipPath id="clip0_301_12404">
<rect width="16" height="16" fill="white"/>
</clipPath>
</defs>
</svg>
