<svg width="16" height="16" viewBox="0 0 16 16" fill="none" xmlns="http://www.w3.org/2000/svg">
<path d="M10.981 13.333H2.73301C2.62692 13.333 2.52518 13.2909 2.45017 13.2159C2.37515 13.1408 2.33301 13.0391 2.33301 12.933V6.39968C2.33301 6.29359 2.37515 6.19185 2.45017 6.11684C2.52518 6.04182 2.62692 5.99968 2.73301 5.99968H4.57834C4.80859 5.99968 5.03491 5.94006 5.23528 5.82662C5.43564 5.71317 5.60321 5.54978 5.72167 5.35235L7.52834 2.34101C7.6646 2.11358 7.87926 1.94377 8.13194 1.86351C8.38463 1.78326 8.65793 1.79809 8.90045 1.90522C9.14297 2.01235 9.33799 2.2044 9.44883 2.44524C9.55967 2.68608 9.5787 2.95912 9.50234 3.21301L8.82101 5.48501C8.80315 5.54468 8.79948 5.6077 8.81028 5.66905C8.82108 5.73039 8.84606 5.78836 8.88322 5.83835C8.92039 5.88833 8.96871 5.92895 9.02435 5.95695C9.07998 5.98496 9.14139 5.99959 9.20367 5.99968H12.2537C12.4587 5.99964 12.661 6.04688 12.8448 6.13773C13.0286 6.22858 13.1889 6.3606 13.3134 6.52351C13.4379 6.68643 13.5231 6.87586 13.5625 7.07707C13.6018 7.27829 13.5943 7.48587 13.5403 7.68368L12.267 12.3503C12.1901 12.6324 12.0227 12.8814 11.7904 13.0589C11.5582 13.2365 11.274 13.3328 10.9817 13.333H10.981Z" stroke="#A3A3A3" stroke-width="1.25" stroke-linecap="round"/>
<path d="M4.66699 13.3333V6" stroke="#A3A3A3" stroke-width="1.25" stroke-linecap="round" stroke-linejoin="round"/>
</svg>
