<svg width="16" height="16" viewBox="0 0 16 16" fill="none" xmlns="http://www.w3.org/2000/svg">
<path d="M12.5 5.00069H10V4.16569C9.98827 3.8456 9.8501 3.54322 9.61579 3.32484C9.38147 3.10645 9.07012 2.98989 8.75 3.00069H7.25C6.92988 2.98989 6.61853 3.10645 6.38421 3.32484C6.1499 3.54322 6.01173 3.8456 6 4.16569V5.00069H3.5C3.36739 5.00069 3.24021 5.05337 3.14645 5.14714C3.05268 5.2409 3 5.36808 3 5.50069C3 5.6333 3.05268 5.76047 3.14645 5.85424C3.24021 5.94801 3.36739 6.00069 3.5 6.00069H4V11.5007C4 11.8985 4.15804 12.28 4.43934 12.5613C4.72064 12.8427 5.10218 13.0007 5.5 13.0007H10.5C10.8978 13.0007 11.2794 12.8427 11.5607 12.5613C11.842 12.28 12 11.8985 12 11.5007V6.00069H12.5C12.6326 6.00069 12.7598 5.94801 12.8536 5.85424C12.9473 5.76047 13 5.6333 13 5.50069C13 5.36808 12.9473 5.2409 12.8536 5.14714C12.7598 5.05337 12.6326 5.00069 12.5 5.00069ZM7 4.16569C7 4.08569 7.105 4.00069 7.25 4.00069H8.75C8.895 4.00069 9 4.08569 9 4.16569V5.00069H7V4.16569ZM11 11.5007C11 11.6333 10.9473 11.7605 10.8536 11.8542C10.7598 11.948 10.6326 12.0007 10.5 12.0007H5.5C5.36739 12.0007 5.24021 11.948 5.14645 11.8542C5.05268 11.7605 5 11.6333 5 11.5007V6.00069H11V11.5007Z" fill="#F46F76"/>
<path d="M6.5 10.5C6.63261 10.5 6.75979 10.4473 6.85355 10.3536C6.94732 10.2598 7 10.1326 7 10V8C7 7.86739 6.94732 7.74021 6.85355 7.64645C6.75979 7.55268 6.63261 7.5 6.5 7.5C6.36739 7.5 6.24021 7.55268 6.14645 7.64645C6.05268 7.74021 6 7.86739 6 8V10C6 10.1326 6.05268 10.2598 6.14645 10.3536C6.24021 10.4473 6.36739 10.5 6.5 10.5Z" fill="#F46F76"/>
<path d="M9.5 10.5C9.63261 10.5 9.75979 10.4473 9.85355 10.3536C9.94732 10.2598 10 10.1326 10 10V8C10 7.86739 9.94732 7.74021 9.85355 7.64645C9.75979 7.55268 9.63261 7.5 9.5 7.5C9.36739 7.5 9.24021 7.55268 9.14645 7.64645C9.05268 7.74021 9 7.86739 9 8V10C9 10.1326 9.05268 10.2598 9.14645 10.3536C9.24021 10.4473 9.36739 10.5 9.5 10.5Z" fill="#F46F76"/>
</svg>
